<svg width="24" height="24" viewBox="0 0 24 24" fill="none" xmlns="http://www.w3.org/2000/svg">
<g clip-path="url(#clip0_1317_20277)">
<path d="M19 1.99911H16.461C15.7695 1.21092 14.8807 0.621053 13.8858 0.29012C12.8909 -0.040812 11.8258 -0.100872 10.8 0.116114C9.55068 0.370884 8.42128 1.03319 7.589 1.99911H5C3.67441 2.0007 2.40356 2.528 1.46622 3.46533C0.528882 4.40267 0.00158786 5.67352 0 6.99911L0 18.9991C0.00158786 20.3247 0.528882 21.5956 1.46622 22.5329C2.40356 23.4702 3.67441 23.9975 5 23.9991H19C20.3256 23.9975 21.5964 23.4702 22.5338 22.5329C23.4711 21.5956 23.9984 20.3247 24 18.9991V6.99911C23.9984 5.67352 23.4711 4.40267 22.5338 3.46533C21.5964 2.528 20.3256 2.0007 19 1.99911ZM12 1.99911C13.0609 1.99911 14.0783 2.42054 14.8284 3.17069C15.5786 3.92083 16 4.93825 16 5.99911C16 6.26433 15.8946 6.51868 15.7071 6.70622C15.5196 6.89376 15.2652 6.99911 15 6.99911H12.868L13.832 5.55411C13.9792 5.33345 14.0327 5.06336 13.9808 4.80325C13.9288 4.54313 13.7757 4.31431 13.555 4.16711C13.3343 4.01992 13.0642 3.96641 12.8041 4.01836C12.544 4.0703 12.3152 4.22345 12.168 4.44411L10.465 6.99911H9C8.73478 6.99911 8.48043 6.89376 8.29289 6.70622C8.10536 6.51868 8 6.26433 8 5.99911C8 4.93825 8.42143 3.92083 9.17157 3.17069C9.92172 2.42054 10.9391 1.99911 12 1.99911ZM22 18.9991C22 19.7948 21.6839 20.5578 21.1213 21.1204C20.5587 21.683 19.7956 21.9991 19 21.9991H5C4.20435 21.9991 3.44129 21.683 2.87868 21.1204C2.31607 20.5578 2 19.7948 2 18.9991V6.99911C2 6.20346 2.31607 5.4404 2.87868 4.87779C3.44129 4.31518 4.20435 3.99911 5 3.99911H6.393C6.1339 4.7089 6.0009 5.45852 6 6.21411C6.00079 6.9525 6.29447 7.66041 6.81658 8.18253C7.3387 8.70465 8.04662 8.99832 8.785 8.99911H15.215C15.932 9.00571 16.6235 8.73321 17.1432 8.23923C17.6629 7.74525 17.9702 7.06852 18 6.35211C18.01 5.55455 17.8939 4.76042 17.656 3.99911H19C19.7956 3.99911 20.5587 4.31518 21.1213 4.87779C21.6839 5.4404 22 6.20346 22 6.99911V18.9991Z" fill="#374957"/>
</g>
<defs>
<clipPath id="clip0_1317_20277">
<rect width="24" height="24" fill="white"/>
</clipPath>
</defs>
</svg>
