<svg width="24" height="24" viewBox="0 0 24 24" fill="none" xmlns="http://www.w3.org/2000/svg">
<g clip-path="url(#clip0_1317_20353)">
<path d="M9 24H1C0.734784 24 0.48043 23.8946 0.292893 23.7071C0.105357 23.5196 0 23.2652 0 23C0 22.7348 0.105357 22.4804 0.292893 22.2929C0.48043 22.1054 0.734784 22 1 22H9C9.26522 22 9.51957 22.1054 9.70711 22.2929C9.89464 22.4804 10 22.7348 10 23C10 23.2652 9.89464 23.5196 9.70711 23.7071C9.51957 23.8946 9.26522 24 9 24Z" fill="#374957"/>
<path d="M7 20H1C0.734784 20 0.48043 19.8947 0.292893 19.7071C0.105357 19.5196 0 19.2652 0 19C0 18.7348 0.105357 18.4804 0.292893 18.2929C0.48043 18.1054 0.734784 18 1 18H7C7.26522 18 7.51957 18.1054 7.70711 18.2929C7.89464 18.4804 8 18.7348 8 19C8 19.2652 7.89464 19.5196 7.70711 19.7071C7.51957 19.8947 7.26522 20 7 20Z" fill="#374957"/>
<path d="M5 16H1C0.734784 16 0.48043 15.8947 0.292893 15.7071C0.105357 15.5196 0 15.2652 0 15C0 14.7348 0.105357 14.4804 0.292893 14.2929C0.48043 14.1054 0.734784 14 1 14H5C5.26522 14 5.51957 14.1054 5.70711 14.2929C5.89464 14.4804 6 14.7348 6 15C6 15.2652 5.89464 15.5196 5.70711 15.7071C5.51957 15.8947 5.26522 16 5 16Z" fill="#374957"/>
<path d="M13 23.9539C12.7348 23.9657 12.4757 23.8717 12.2798 23.6925C12.0839 23.5133 11.9673 23.2636 11.9555 22.9984C11.9437 22.7332 12.0377 22.4741 12.2169 22.2783C12.3961 22.0824 12.6458 21.9657 12.911 21.9539C14.8034 21.7807 16.6074 21.0719 18.1115 19.9105C19.6156 18.749 20.7577 17.183 21.4039 15.3959C22.0501 13.6088 22.1737 11.6745 21.7602 9.8197C21.3467 7.96487 20.4133 6.26625 19.0692 4.9228C17.7252 3.57935 16.0261 2.64669 14.1711 2.23406C12.3161 1.82144 10.3819 1.94593 8.59504 2.59295C6.80822 3.23998 5.24276 4.38275 4.082 5.88742C2.92125 7.39209 2.21327 9.19636 2.04098 11.0889C2.01711 11.353 1.88928 11.5969 1.68562 11.7668C1.48196 11.9367 1.21914 12.0188 0.954982 11.9949C0.690826 11.971 0.446972 11.8432 0.277064 11.6395C0.107157 11.4359 0.0251132 11.173 0.0489827 10.9089C0.327871 7.8322 1.78258 4.98159 4.11031 2.95046C6.43803 0.919325 9.45941 -0.135842 12.5455 0.00460606C15.6316 0.145054 18.5447 1.47029 20.6783 3.70446C22.8119 5.93863 24.0017 8.90959 24 11.9989C24.0153 14.9972 22.9014 17.8915 20.8799 20.1059C18.8583 22.3203 16.0773 23.6927 13.09 23.9499C13.06 23.9529 13.029 23.9539 13 23.9539Z" fill="#374957"/>
<path d="M12 6C11.7348 6 11.4804 6.10536 11.2929 6.29289C11.1054 6.48043 11 6.73478 11 7V12C11.0001 12.2652 11.1055 12.5195 11.293 12.707L14.293 15.707C14.4816 15.8892 14.7342 15.99 14.9964 15.9877C15.2586 15.9854 15.5094 15.8802 15.6948 15.6948C15.8802 15.5094 15.9854 15.2586 15.9877 14.9964C15.99 14.7342 15.8892 14.4816 15.707 14.293L13 11.586V7C13 6.73478 12.8946 6.48043 12.7071 6.29289C12.5196 6.10536 12.2652 6 12 6Z" fill="#374957"/>
</g>
<defs>
<clipPath id="clip0_1317_20353">
<rect width="24" height="24" fill="white"/>
</clipPath>
</defs>
</svg>
