<svg width="24" height="24" viewBox="0 0 24 24" fill="none" xmlns="http://www.w3.org/2000/svg">
<g clip-path="url(#clip0_1317_19995)">
<path d="M19.9999 12.0005C19.3864 12.0004 18.7812 12.1416 18.2311 12.4131C17.681 12.6847 17.2009 13.0794 16.8279 13.5665L16.7579 13.5365C17.0329 12.6845 17.0742 11.7743 16.8773 10.9009C16.6804 10.0276 16.2526 9.2231 15.6387 8.57153C15.0247 7.91995 14.247 7.44518 13.3869 7.19679C12.5268 6.94841 11.6157 6.93552 10.7489 7.15947L10.6579 6.98747C11.3843 6.3412 11.8501 5.45221 11.9679 4.48712C12.0858 3.52202 11.8477 2.54707 11.2982 1.74498C10.7487 0.942882 9.92555 0.368703 8.98303 0.130045C8.04051 -0.108613 7.04331 0.00463268 6.17831 0.448559C5.31331 0.892485 4.63989 1.63662 4.28425 2.5415C3.92861 3.44639 3.91516 4.44991 4.24644 5.364C4.57771 6.27808 5.23095 7.03999 6.08375 7.50693C6.93654 7.97387 7.93036 8.1138 8.87893 7.90047L8.95193 8.03747C7.95198 8.8048 7.27932 9.92199 7.06897 11.1647C6.85863 12.4075 7.12619 13.6838 7.81793 14.7375L5.93293 16.5005C5.08089 16.0297 4.08644 15.8858 3.13592 16.0958C2.1854 16.3057 1.34404 16.855 0.769524 17.6408C0.195004 18.4266 -0.0732523 19.395 0.0150247 20.3644C0.103302 21.3338 0.542053 22.2378 1.24906 22.9069C1.95607 23.576 2.8828 23.9643 3.85561 23.9991C4.82842 24.0339 5.78052 23.7127 6.53351 23.0958C7.2865 22.4789 7.78869 21.6086 7.94598 20.648C8.10327 19.6873 7.90486 18.7023 7.38793 17.8775L9.22593 16.1595C10.2354 16.8342 11.4562 17.118 12.6598 16.9576C13.8633 16.7973 14.9673 16.2039 15.7649 15.2885L16.0439 15.4075C15.9229 16.2149 16.0518 17.0401 16.4135 17.7721C16.7751 18.5041 17.3521 19.108 18.0669 19.5025C18.7817 19.897 19.6002 20.0634 20.4123 19.9791C21.2244 19.8949 21.9913 19.5642 22.61 19.0314C23.2287 18.4986 23.6695 17.7892 23.8732 16.9985C24.0769 16.2079 24.0338 15.3738 23.7497 14.6084C23.4655 13.8429 22.9539 13.1828 22.2836 12.7166C21.6133 12.2504 20.8164 12.0005 19.9999 12.0005ZM5.99993 4.00047C5.99993 3.60491 6.11722 3.21823 6.33699 2.88933C6.55675 2.56043 6.86911 2.30409 7.23456 2.15271C7.60001 2.00134 8.00215 1.96173 8.39011 2.0389C8.77807 2.11607 9.13444 2.30655 9.41414 2.58626C9.69385 2.86596 9.88433 3.22233 9.9615 3.61029C10.0387 3.99825 9.99906 4.40039 9.84769 4.76584C9.69631 5.13129 9.43997 5.44365 9.11107 5.66341C8.78217 5.88317 8.39549 6.00047 7.99993 6.00047C7.46949 6.00047 6.96079 5.78976 6.58571 5.41469C6.21064 5.03961 5.99993 4.53091 5.99993 4.00047ZM3.99993 22.0005C3.60436 22.0005 3.21768 21.8832 2.88879 21.6634C2.55989 21.4436 2.30354 21.1313 2.15217 20.7658C2.00079 20.4004 1.96119 19.9983 2.03836 19.6103C2.11553 19.2223 2.30601 18.866 2.58571 18.5863C2.86542 18.3066 3.22178 18.1161 3.60975 18.0389C3.99771 17.9617 4.39984 18.0013 4.76529 18.1527C5.13075 18.3041 5.4431 18.5604 5.66287 18.8893C5.88263 19.2182 5.99993 19.6049 5.99993 20.0005C5.99993 20.5309 5.78921 21.0396 5.41414 21.4147C5.03907 21.7898 4.53036 22.0005 3.99993 22.0005ZM11.9999 15.0005C11.3506 14.9992 10.7192 14.7873 10.2006 14.3966C9.68203 14.0059 9.30418 13.4575 9.12383 12.8337C8.94349 12.21 8.97039 11.5445 9.20049 10.9373C9.43059 10.3302 9.85147 9.81404 10.3999 9.46647L10.8069 9.24947C11.2159 9.07158 11.6594 8.9871 12.1051 9.00219C12.5508 9.01728 12.9875 9.13155 13.3835 9.33669C13.7795 9.54183 14.1248 9.83268 14.3942 10.1881C14.6637 10.5435 14.8505 10.9544 14.941 11.3911C15.0316 11.8278 15.0237 12.2792 14.9179 12.7124C14.8121 13.1456 14.611 13.5498 14.3292 13.8956C14.0475 14.2413 13.6923 14.5199 13.2893 14.711C12.8864 14.9021 12.4459 15.001 11.9999 15.0005ZM19.9999 18.0005C19.6044 18.0005 19.2177 17.8832 18.8888 17.6634C18.5599 17.4436 18.3035 17.1313 18.1522 16.7658C18.0008 16.4004 17.9612 15.9983 18.0384 15.6103C18.1155 15.2223 18.306 14.866 18.5857 14.5863C18.8654 14.3066 19.2218 14.1161 19.6097 14.0389C19.9977 13.9617 20.3998 14.0013 20.7653 14.1527C21.1307 14.3041 21.4431 14.5604 21.6629 14.8893C21.8826 15.2182 21.9999 15.6049 21.9999 16.0005C21.9999 16.5309 21.7892 17.0396 21.4141 17.4147C21.0391 17.7898 20.5304 18.0005 19.9999 18.0005Z" fill="#374957"/>
</g>
<defs>
<clipPath id="clip0_1317_19995">
<rect width="24" height="24" fill="white"/>
</clipPath>
</defs>
</svg>
