<svg width="24" height="24" viewBox="0 0 24 24" fill="none" xmlns="http://www.w3.org/2000/svg">
<g clip-path="url(#clip0_1317_19981)">
<path d="M17.762 24.0008C9.631 24.2758 -5.01699 9.74577 1.78401 1.86777L2.934 0.867768C3.51613 0.305034 4.29642 -0.00585419 5.10603 0.0023804C5.91564 0.010615 6.68944 0.33731 7.26 0.911768C7.29084 0.943173 7.31956 0.976579 7.346 1.01177L9.146 3.35077C9.69302 3.9296 9.99696 4.69635 9.9951 5.49276C9.99324 6.28918 9.68572 7.0545 9.136 7.63077L7.978 9.08677C8.61912 10.6438 9.56142 12.059 10.7508 13.251C11.9402 14.4429 13.3533 15.3883 14.909 16.0328L16.373 14.8678C16.9568 14.3316 17.7202 14.0336 18.5128 14.0325C19.3054 14.0314 20.0697 14.3273 20.655 14.8618L22.995 16.6618C23.0299 16.6881 23.0633 16.7165 23.095 16.7468C23.6721 17.3292 23.9958 18.1159 23.9958 18.9358C23.9958 19.7557 23.6721 20.5424 23.095 21.1248L22.184 22.1748C21.6061 22.7589 20.9172 23.2215 20.1577 23.5351C19.3982 23.8487 18.5836 24.007 17.762 24.0008ZM5.071 2.00077C4.92729 2.00066 4.78497 2.02886 4.65217 2.08377C4.51936 2.13867 4.39867 2.21921 4.297 2.32077L3.146 3.32077C-2.49999 10.1088 14.777 26.4238 20.72 20.8088L21.632 19.7578C21.7404 19.6613 21.8286 19.5443 21.8916 19.4135C21.9546 19.2828 21.9911 19.1409 21.999 18.996C22.0069 18.851 21.9861 18.706 21.9377 18.5692C21.8893 18.4324 21.8143 18.3065 21.717 18.1988L19.39 16.4118C19.3543 16.3855 19.3209 16.3564 19.29 16.3248C19.0813 16.126 18.8042 16.0151 18.516 16.0151C18.2278 16.0151 17.9506 16.126 17.742 16.3248C17.7154 16.3517 17.6874 16.377 17.658 16.4008L15.7 17.9608C15.5641 18.069 15.4023 18.1399 15.2306 18.1665C15.059 18.1932 14.8833 18.1747 14.721 18.1128C12.7051 17.3618 10.8742 16.1863 9.3523 14.6659C7.83039 13.1456 6.65303 11.3159 5.9 9.30077C5.83334 9.13614 5.81172 8.95672 5.83738 8.78097C5.86304 8.60522 5.93505 8.43947 6.046 8.30077L7.6 6.34477C7.62311 6.31514 7.64817 6.28708 7.675 6.26077C7.87927 6.05475 7.99388 5.77638 7.99388 5.48627C7.99388 5.19615 7.87927 4.91778 7.675 4.71177C7.64383 4.68067 7.61508 4.64724 7.589 4.61177L5.806 2.28777C5.60453 2.10574 5.34252 2.00521 5.071 2.00577V2.00077ZM22.564 12.5768C27.554 5.23177 18.764 -3.54923 11.427 1.43977C11.3163 1.51364 11.2216 1.60885 11.1482 1.71981C11.0748 1.83078 11.0243 1.95528 10.9996 2.08601C10.9749 2.21674 10.9766 2.35108 11.0045 2.48116C11.0324 2.61124 11.086 2.73444 11.1621 2.84356C11.2382 2.95267 11.3353 3.0455 11.4478 3.11661C11.5602 3.18772 11.6857 3.23567 11.8169 3.25767C11.9481 3.27967 12.0824 3.27527 12.2119 3.24472C12.3414 3.21417 12.4635 3.15809 12.571 3.07977C18.045 -0.679232 24.681 5.96377 20.924 11.4338C20.844 11.5412 20.7864 11.6636 20.7546 11.7938C20.7228 11.9239 20.7175 12.0591 20.7389 12.1914C20.7604 12.3236 20.8083 12.4502 20.8796 12.5636C20.9509 12.677 21.0443 12.7749 21.1542 12.8515C21.2641 12.9281 21.3883 12.9818 21.5194 13.0095C21.6505 13.0372 21.7858 13.0382 21.9173 13.0126C22.0488 12.987 22.1738 12.9352 22.2849 12.8603C22.396 12.7855 22.4909 12.689 22.564 12.5768ZM18.706 10.7118C18.8935 10.5242 18.9988 10.2699 18.9988 10.0048C18.9988 9.7396 18.8935 9.4853 18.706 9.29777L17 7.59077V5.00077C17 4.73555 16.8946 4.4812 16.7071 4.29366C16.5196 4.10613 16.2652 4.00077 16 4.00077C15.7348 4.00077 15.4804 4.10613 15.2929 4.29366C15.1053 4.4812 15 4.73555 15 5.00077V8.00077C15 8.26596 15.1054 8.52028 15.293 8.70777L17.293 10.7078C17.4805 10.8952 17.7348 11.0006 18 11.0006C18.2652 11.0006 18.5195 10.8952 18.707 10.7078L18.706 10.7118Z" fill="#374957"/>
</g>
<defs>
<clipPath id="clip0_1317_19981">
<rect width="24" height="24" fill="white"/>
</clipPath>
</defs>
</svg>
