<svg width="24" height="24" viewBox="0 0 24 24" fill="none" xmlns="http://www.w3.org/2000/svg">
<path d="M17.7918 7.21123C17.3475 5.30051 16.2165 3.61967 14.614 2.48821C13.0114 1.35675 11.049 0.853546 9.09978 1.07425C7.15052 1.29494 5.3503 2.22416 4.0413 3.68527C2.7323 5.14638 2.00578 7.03753 1.99984 8.99923C1.99898 10.2776 2.30778 11.5372 2.89984 12.6702C1.82097 13.2484 0.966238 14.1705 0.471458 15.29C-0.0233229 16.4096 -0.129776 17.6624 0.16901 18.8494C0.467797 20.0364 1.15469 21.0894 2.12054 21.8413C3.0864 22.5932 4.27583 23.0008 5.49984 22.9992H15.9998C17.9589 22.9901 19.8466 22.2625 21.3049 20.9543C22.7632 19.646 23.6907 17.8482 23.9117 15.9016C24.1326 13.9549 23.6316 11.9949 22.5036 10.3931C21.3756 8.79136 19.6991 7.65916 17.7918 7.21123ZM15.9998 20.9992H5.49984C4.64826 21.0018 3.82512 20.693 3.18536 20.1309C2.54559 19.5689 2.13332 18.7924 2.02615 17.9476C1.91899 17.1028 2.12431 16.2479 2.60347 15.5439C3.08264 14.84 3.8026 14.3354 4.62784 14.1252C4.78655 14.0844 4.93279 14.0051 5.05368 13.8945C5.17458 13.7838 5.26643 13.6452 5.32115 13.4907C5.37587 13.3362 5.39178 13.1707 5.36749 13.0086C5.3432 12.8465 5.27945 12.6929 5.18184 12.5612C4.41299 11.533 3.99825 10.2831 3.99984 8.99923C4.01125 7.48521 4.59462 6.03149 5.63298 4.92958C6.67133 3.82768 8.08789 3.15908 9.59856 3.05786C11.1092 2.95664 12.6023 3.43029 13.7784 4.38383C14.9545 5.33736 15.7266 6.70027 15.9398 8.19923C15.9686 8.41688 16.0682 8.61902 16.2233 8.77445C16.3783 8.92987 16.5803 9.02995 16.7978 9.05923C18.2967 9.27247 19.6595 10.0444 20.613 11.2203C21.5665 12.3961 22.0403 13.889 21.9394 15.3995C21.8384 16.9101 21.1702 18.3266 20.0686 19.3651C18.9671 20.4036 17.5137 20.9873 15.9998 20.9992Z" fill="#374957"/>
</svg>
