<svg width="24" height="24" viewBox="0 0 24 24" fill="none" xmlns="http://www.w3.org/2000/svg">
<g clip-path="url(#clip0_1317_20085)">
<path d="M22.8271 1.175C22.3419 0.68535 21.7375 0.330552 21.0734 0.145557C20.4094 -0.0394372 19.7086 -0.0482458 19.0401 0.119999C13.8577 1.48055 9.11141 4.1491 5.25608 7.87C4.49768 8.63299 3.90627 9.54539 3.51944 10.5492C3.1326 11.5531 2.9588 12.6264 3.00908 13.701C3.08071 15.2609 3.62825 16.7615 4.57808 18.001L0.293081 22.294C0.197571 22.3862 0.121389 22.4966 0.0689798 22.6186C0.0165708 22.7406 -0.0110155 22.8718 -0.0121693 23.0046C-0.0133231 23.1374 0.0119786 23.2691 0.0622595 23.392C0.11254 23.5149 0.186794 23.6265 0.280686 23.7204C0.374579 23.8143 0.486231 23.8885 0.609127 23.9388C0.732023 23.9891 0.863703 24.0144 0.996482 24.0133C1.12926 24.0121 1.26048 23.9845 1.38249 23.9321C1.50449 23.8797 1.61483 23.8035 1.70708 23.708L5.99108 19.424C7.30418 20.4492 8.92315 21.0045 10.5891 21.001C11.6915 20.985 12.7799 20.7521 13.7922 20.3154C14.8046 19.8787 15.721 19.2469 16.4891 18.456C20.8891 14.056 23.3721 7.01 23.8831 4.931C24.0492 4.26718 24.0392 3.57149 23.854 2.91274C23.6687 2.25399 23.3148 1.655 22.8271 1.175ZM5.00708 13.609C4.96944 12.8117 5.09802 12.0154 5.38466 11.2704C5.6713 10.5255 6.10972 9.84839 6.67208 9.282C7.10008 8.857 7.54508 8.458 8.00008 8.068V14.587L6.01008 16.577C5.40369 15.7015 5.05609 14.6729 5.00708 13.609ZM15.0451 17.068C14.0927 18.1031 12.8022 18.7644 11.4058 18.9331C10.0093 19.1017 8.59852 18.7666 7.42708 17.988L9.70608 15.709L12.4141 13.001H18.1761C17.2703 14.4575 16.2214 15.8199 15.0451 17.068ZM21.9451 4.448C21.3423 6.72803 20.4695 8.92793 19.3451 11.001H14.4141L17.7071 7.708C17.8026 7.61575 17.8788 7.50541 17.9312 7.3834C17.9836 7.2614 18.0112 7.13018 18.0123 6.9974C18.0135 6.86462 17.9882 6.73294 17.9379 6.61005C17.8876 6.48715 17.8134 6.3755 17.7195 6.28161C17.6256 6.18771 17.5139 6.11346 17.391 6.06318C17.2681 6.0129 17.1365 5.9876 17.0037 5.98875C16.8709 5.9899 16.7397 6.01749 16.6177 6.0699C16.4957 6.12231 16.3853 6.19849 16.2931 6.294L11.2931 11.294L10.0001 12.587V6.513C12.8911 4.4869 16.1134 2.98065 19.5221 2.062C19.6804 2.02216 19.8429 2.00168 20.0061 2.001C20.2682 2.00156 20.5275 2.05388 20.7693 2.15496C21.0111 2.25604 21.2306 2.40388 21.4151 2.59C21.6586 2.82593 21.8355 3.12201 21.9279 3.44827C22.0203 3.77454 22.0248 4.11941 21.9411 4.448H21.9451Z" fill="#374957"/>
</g>
<defs>
<clipPath id="clip0_1317_20085">
<rect width="24" height="24" fill="white"/>
</clipPath>
</defs>
</svg>
