<svg width="24" height="24" viewBox="0 0 24 24" fill="none" xmlns="http://www.w3.org/2000/svg">
<g clip-path="url(#clip0_1317_20392)">
<path d="M24.0002 7.49963C24.0028 6.10633 23.6166 4.73993 22.8849 3.5542C22.1532 2.36847 21.1052 1.41046 19.8587 0.787977C18.6121 0.165495 17.2166 -0.0967544 15.8292 0.0307389C14.4417 0.158232 13.1174 0.670408 12.0052 1.50963C11.1062 0.831789 10.0661 0.365038 8.96217 0.144002C7.85819 -0.0770348 6.71862 -0.0466847 5.62797 0.232801C4.53733 0.512286 3.5236 1.03373 2.66199 1.75847C1.80038 2.4832 1.11299 3.39262 0.650805 4.41927C0.188625 5.44592 -0.0364836 6.56345 -0.00782325 7.68897C0.0208371 8.81449 0.302531 9.91911 0.816364 10.9209C1.3302 11.9227 2.06298 12.796 2.96036 13.4759C3.85775 14.1558 4.8967 14.625 6.00015 14.8486V18.9996H4.00015C3.73494 18.9996 3.48058 19.105 3.29305 19.2925C3.10551 19.4801 3.00015 19.7344 3.00015 19.9996C3.00015 20.2648 3.10551 20.5192 3.29305 20.7067C3.48058 20.8943 3.73494 20.9996 4.00015 20.9996H6.00015V22.9996C6.00015 23.2648 6.10551 23.5192 6.29305 23.7067C6.48058 23.8943 6.73494 23.9996 7.00015 23.9996C7.26537 23.9996 7.51972 23.8943 7.70726 23.7067C7.8948 23.5192 8.00015 23.2648 8.00015 22.9996V20.9996H10.0002C10.2654 20.9996 10.5197 20.8943 10.7073 20.7067C10.8948 20.5192 11.0002 20.2648 11.0002 19.9996C11.0002 19.7344 10.8948 19.4801 10.7073 19.2925C10.5197 19.105 10.2654 18.9996 10.0002 18.9996H8.00015V14.9756C9.45168 14.8823 10.8441 14.3657 12.0052 13.4896C13.164 14.3628 14.5524 14.8789 16.0002 14.9746V18.9996H14.0002C13.7349 18.9996 13.4806 19.105 13.293 19.2925C13.1055 19.4801 13.0002 19.7344 13.0002 19.9996C13.0002 20.2648 13.1055 20.5192 13.293 20.7067C13.4806 20.8943 13.7349 20.9996 14.0002 20.9996H16.0002V22.9996C16.0002 23.2648 16.1055 23.5192 16.293 23.7067C16.4806 23.8943 16.7349 23.9996 17.0002 23.9996C17.2654 23.9996 17.5197 23.8943 17.7073 23.7067C17.8948 23.5192 18.0002 23.2648 18.0002 22.9996V20.9996H20.0002C20.2654 20.9996 20.5197 20.8943 20.7073 20.7067C20.8948 20.5192 21.0002 20.2648 21.0002 19.9996C21.0002 19.7344 20.8948 19.4801 20.7073 19.2925C20.5197 19.105 20.2654 18.9996 20.0002 18.9996H18.0002V14.8486C19.6929 14.5006 21.2139 13.5797 22.3069 12.241C23.3998 10.9023 23.9978 9.22779 24.0002 7.49963ZM22.0002 7.49963C22.0002 8.58743 21.6776 9.6508 21.0732 10.5553C20.4689 11.4597 19.6099 12.1647 18.6049 12.581C17.5999 12.9973 16.4941 13.1062 15.4272 12.894C14.3603 12.6817 13.3803 12.1579 12.6111 11.3887C11.8419 10.6195 11.3181 9.63953 11.1058 8.57263C10.8936 7.50573 11.0025 6.39987 11.4188 5.39487C11.8351 4.38988 12.54 3.5309 13.4445 2.92655C14.349 2.3222 15.4124 1.99963 16.5002 1.99963C17.9584 2.00122 19.3564 2.58119 20.3875 3.6123C21.4186 4.64341 21.9986 6.04143 22.0002 7.49963ZM2.00015 7.49963C1.99841 6.50261 2.26821 5.52393 2.78059 4.66863C3.29298 3.81334 4.02861 3.11373 4.90852 2.64489C5.78844 2.17604 6.77942 1.95567 7.7751 2.00742C8.77079 2.05917 9.73358 2.38109 10.5602 2.93863C9.54899 4.24402 9.00027 5.84842 9.00027 7.49963C9.00027 9.15084 9.54899 10.7552 10.5602 12.0606C9.73358 12.6182 8.77079 12.9401 7.7751 12.9918C6.77942 13.0436 5.78844 12.8232 4.90852 12.3544C4.02861 11.8855 3.29298 11.1859 2.78059 10.3306C2.26821 9.47534 1.99841 8.49666 2.00015 7.49963Z" fill="#374957"/>
</g>
<defs>
<clipPath id="clip0_1317_20392">
<rect width="24" height="24" fill="white"/>
</clipPath>
</defs>
</svg>
