<svg width="24" height="24" viewBox="0 0 24 24" fill="none" xmlns="http://www.w3.org/2000/svg">
<g clip-path="url(#clip0_1317_19942)">
<path d="M6.00027 6.20932C6.18763 6.39557 6.44108 6.50011 6.70527 6.50011C6.96945 6.50011 7.2229 6.39557 7.41026 6.20932L11.0003 2.57932V22.9993C11.0003 23.2646 11.1056 23.5189 11.2932 23.7064C11.4807 23.894 11.735 23.9993 12.0003 23.9993C12.2655 23.9993 12.5198 23.894 12.7074 23.7064C12.8949 23.5189 13.0003 23.2646 13.0003 22.9993V2.58932L16.6203 6.20932C16.7132 6.30305 16.8238 6.37744 16.9457 6.42821C17.0675 6.47898 17.1983 6.50512 17.3303 6.50512C17.4623 6.50512 17.593 6.47898 17.7148 6.42821C17.8367 6.37744 17.9473 6.30305 18.0403 6.20932C18.2265 6.02196 18.3311 5.76851 18.3311 5.50432C18.3311 5.24013 18.2265 4.98668 18.0403 4.79932L14.1303 0.879314C13.5678 0.317512 12.8053 0.00195312 12.0103 0.00195312C11.2153 0.00195312 10.4528 0.317512 9.89027 0.879314L6.00027 4.79932C5.81401 4.98668 5.70947 5.24013 5.70947 5.50432C5.70947 5.76851 5.81401 6.02196 6.00027 6.20932Z" fill="#374957"/>
</g>
<defs>
<clipPath id="clip0_1317_19942">
<rect width="24" height="24" fill="white"/>
</clipPath>
</defs>
</svg>
