<svg width="24" height="24" viewBox="0 0 24 24" fill="none" xmlns="http://www.w3.org/2000/svg">
<g clip-path="url(#clip0_1317_19915)">
<path d="M23.052 11.6532L21.233 7.56215C20.7616 6.50158 19.9927 5.6005 19.0195 4.96809C18.0463 4.33569 16.9106 3.99911 15.75 3.99915H14.4L13.74 1.35715C13.6427 0.969404 13.4186 0.625281 13.1033 0.379408C12.7881 0.133535 12.3998 0 12 0C11.6002 0 11.2119 0.133535 10.8967 0.379408C10.5814 0.625281 10.3573 0.969404 10.26 1.35715L9.6 3.99915H5C3.67441 4.00074 2.40356 4.52803 1.46622 5.46537C0.528882 6.40271 0.00158786 7.67356 0 8.99915L0 16.9992C0.0021456 17.6301 0.203551 18.2442 0.575468 18.7539C0.947384 19.2635 1.4708 19.6427 2.071 19.8372C2.02573 20.055 2.00195 20.2767 2 20.4992C2 21.4274 2.36875 22.3176 3.02513 22.974C3.6815 23.6304 4.57174 23.9992 5.5 23.9992C6.42826 23.9992 7.3185 23.6304 7.97487 22.974C8.63125 22.3176 9 21.4274 9 20.4992C8.99843 20.3317 8.98473 20.1646 8.959 19.9992H15.041C15.0153 20.1646 15.0016 20.3317 15 20.4992C15 21.4274 15.3687 22.3176 16.0251 22.974C16.6815 23.6304 17.5717 23.9992 18.5 23.9992C19.4283 23.9992 20.3185 23.6304 20.9749 22.974C21.6313 22.3176 22 21.4274 22 20.4992C21.998 20.2767 21.9743 20.055 21.929 19.8372C22.5292 19.6427 23.0526 19.2635 23.4245 18.7539C23.7964 18.2442 23.9979 17.6301 24 16.9992V16.1212C24.0022 14.5817 23.6791 13.0591 23.052 11.6532ZM19.406 8.37515L20.573 10.9992H17C16.7348 10.9992 16.4804 10.8938 16.2929 10.7063C16.1054 10.5187 16 10.2644 16 9.99915V6.01715C16.7289 6.06185 17.4316 6.30522 18.032 6.72088C18.6324 7.13655 19.1076 7.70865 19.406 8.37515ZM7 20.4992C7 20.897 6.84196 21.2785 6.56066 21.5598C6.27936 21.8411 5.89782 21.9992 5.5 21.9992C5.10218 21.9992 4.72064 21.8411 4.43934 21.5598C4.15804 21.2785 4 20.897 4 20.4992C4.00061 20.3282 4.03212 20.1589 4.093 19.9992H6.907C6.96788 20.1589 6.99939 20.3282 7 20.4992ZM18.5 21.9992C18.1022 21.9992 17.7206 21.8411 17.4393 21.5598C17.158 21.2785 17 20.897 17 20.4992C17.0006 20.3282 17.0321 20.1589 17.093 19.9992H19.907C19.9679 20.1589 19.9994 20.3282 20 20.4992C20 20.897 19.842 21.2785 19.5607 21.5598C19.2794 21.8411 18.8978 21.9992 18.5 21.9992ZM22 16.9992C22 17.2644 21.8946 17.5187 21.7071 17.7063C21.5196 17.8938 21.2652 17.9992 21 17.9992H3C2.73478 17.9992 2.48043 17.8938 2.29289 17.7063C2.10536 17.5187 2 17.2644 2 16.9992V8.99915C2 8.2035 2.31607 7.44044 2.87868 6.87783C3.44129 6.31522 4.20435 5.99915 5 5.99915H14V9.99915C14 10.7948 14.3161 11.5579 14.8787 12.1205C15.4413 12.6831 16.2044 12.9992 17 12.9992H21.429C21.8045 13.9973 21.9979 15.0547 22 16.1212V16.9992ZM11 11.9992C11 12.2644 10.8946 12.5187 10.7071 12.7063C10.5196 12.8938 10.2652 12.9992 10 12.9992H9V13.9992C9 14.2644 8.89464 14.5187 8.70711 14.7063C8.51957 14.8938 8.26522 14.9992 8 14.9992C7.73478 14.9992 7.48043 14.8938 7.29289 14.7063C7.10536 14.5187 7 14.2644 7 13.9992V12.9992H6C5.73478 12.9992 5.48043 12.8938 5.29289 12.7063C5.10536 12.5187 5 12.2644 5 11.9992C5 11.7339 5.10536 11.4796 5.29289 11.292C5.48043 11.1045 5.73478 10.9992 6 10.9992H7V9.99915C7 9.73394 7.10536 9.47958 7.29289 9.29205C7.48043 9.10451 7.73478 8.99915 8 8.99915C8.26522 8.99915 8.51957 9.10451 8.70711 9.29205C8.89464 9.47958 9 9.73394 9 9.99915V10.9992H10C10.2652 10.9992 10.5196 11.1045 10.7071 11.292C10.8946 11.4796 11 11.7339 11 11.9992Z" fill="#374957"/>
</g>
<defs>
<clipPath id="clip0_1317_19915">
<rect width="24" height="24" fill="white"/>
</clipPath>
</defs>
</svg>
