<svg width="24" height="24" viewBox="0 0 24 24" fill="none" xmlns="http://www.w3.org/2000/svg">
<g clip-path="url(#clip0_1317_20368)">
<path d="M15.0003 5C15.0003 5.26522 14.8949 5.51957 14.7074 5.70711C14.5198 5.89464 14.2655 6 14.0003 6H10.0003C9.73505 6 9.4807 5.89464 9.29316 5.70711C9.10562 5.51957 9.00027 5.26522 9.00027 5C9.00027 4.73478 9.10562 4.48043 9.29316 4.29289C9.4807 4.10536 9.73505 4 10.0003 4H14.0003C14.2655 4 14.5198 4.10536 14.7074 4.29289C14.8949 4.48043 15.0003 4.73478 15.0003 5ZM21.0003 5.72V16.177C20.9999 17.4335 20.5265 18.6437 19.6743 19.567L20.9243 22.621C20.974 22.7426 20.9992 22.8728 20.9986 23.0042C20.998 23.1355 20.9715 23.2655 20.9207 23.3866C20.8698 23.5078 20.7956 23.6177 20.7023 23.7102C20.609 23.8026 20.4984 23.8758 20.3768 23.9255C20.2552 23.9752 20.125 24.0005 19.9936 23.9999C19.8622 23.9992 19.7323 23.9728 19.6111 23.9219C19.49 23.8711 19.3801 23.7969 19.2876 23.7036C19.1951 23.6102 19.122 23.4996 19.0723 23.378L18.0003 20.745C16.1221 21.6154 14.0698 22.0447 12.0003 22C9.93076 22.0443 7.87851 21.6151 6.00027 20.745L4.92727 23.378C4.8788 23.5013 4.80633 23.6137 4.71405 23.7088C4.62176 23.8038 4.51152 23.8796 4.38971 23.9317C4.2679 23.9837 4.13696 24.0111 4.00449 24.0121C3.87202 24.0132 3.74066 23.9879 3.61805 23.9378C3.49543 23.8876 3.384 23.8136 3.29023 23.72C3.19645 23.6265 3.12221 23.5152 3.0718 23.3927C3.02139 23.2702 2.99583 23.1389 2.9966 23.0064C2.99737 22.8739 3.02444 22.7429 3.07627 22.621L4.32527 19.567C3.47339 18.6436 3.00035 17.4333 3.00027 16.177V5.72C2.99699 4.65944 3.33225 3.62551 3.95725 2.76867C4.58225 1.91183 5.46438 1.2768 6.47527 0.956C8.25715 0.356442 10.1205 0.0340187 12.0003 0C13.8801 0.0337401 15.7436 0.356516 17.5253 0.957C18.5362 1.27734 19.4185 1.91211 20.0436 2.76884C20.6686 3.62557 21.0038 4.6595 21.0003 5.72ZM19.0003 11.737C17.4473 14.065 15.0503 16 12.0003 16C8.95026 16 6.55327 14.065 5.00027 11.737V16.177C4.99552 16.7072 5.13336 17.2289 5.39936 17.6875C5.66536 18.1461 6.04973 18.5248 6.51227 18.784C8.21043 19.6439 10.0978 20.0621 12.0003 20C13.9024 20.0623 15.7895 19.6441 17.4873 18.784C17.9501 18.5251 18.3347 18.1464 18.6009 17.6878C18.8671 17.2291 19.005 16.7073 19.0003 16.177V11.737ZM19.0003 6V5.72C19.0025 5.08394 18.8016 4.46377 18.427 3.94974C18.0524 3.43571 17.5235 3.05465 16.9173 2.862C15.332 2.32489 13.6737 2.03418 12.0003 2C10.3269 2.03442 8.66873 2.32478 7.08327 2.861C6.47708 3.05397 5.94824 3.43526 5.57363 3.94943C5.19902 4.46359 4.99816 5.08384 5.00027 5.72V6C5.00027 8.443 7.64527 14 12.0003 14C16.3553 14 19.0003 8.443 19.0003 6ZM12.0003 17C11.8025 17 11.6091 17.0586 11.4447 17.1685C11.2802 17.2784 11.1521 17.4346 11.0764 17.6173C11.0007 17.8 10.9809 18.0011 11.0195 18.1951C11.0581 18.3891 11.1533 18.5673 11.2932 18.7071C11.433 18.847 11.6112 18.9422 11.8052 18.9808C11.9992 19.0194 12.2002 18.9996 12.3829 18.9239C12.5657 18.8482 12.7219 18.72 12.8317 18.5556C12.9416 18.3911 13.0003 18.1978 13.0003 18C13.0003 17.7348 12.8949 17.4804 12.7074 17.2929C12.5198 17.1054 12.2655 17 12.0003 17Z" fill="#374957"/>
</g>
<defs>
<clipPath id="clip0_1317_20368">
<rect width="24" height="24" fill="white"/>
</clipPath>
</defs>
</svg>
