<svg width="24" height="24" viewBox="0 0 24 24" fill="none" xmlns="http://www.w3.org/2000/svg">
<path d="M20.44 16.854L18.959 14.633C19.2015 14.4721 19.41 14.2649 19.5724 14.0234C19.7348 13.7819 19.848 13.5107 19.9055 13.2253C19.963 12.94 19.9636 12.6461 19.9074 12.3605C19.8513 12.075 19.7393 11.8033 19.578 11.561L17.487 8.42598C17.6701 8.25926 17.8242 8.06326 17.943 7.84599C18.1331 7.49712 18.2256 7.10346 18.2108 6.70645C18.196 6.30944 18.0745 5.92376 17.859 5.58999C17.834 5.55219 17.807 5.5158 17.778 5.48099L13.678 0.698994C13.453 0.476118 13.1858 0.300381 12.8921 0.182077C12.5983 0.063774 12.2839 0.00528369 11.9673 0.0100334C11.6506 0.014783 11.3381 0.0826771 11.048 0.209738C10.758 0.336799 10.4962 0.520471 10.278 0.749994L6.20598 5.47699C6.17639 5.51062 6.14932 5.54638 6.12498 5.58399C5.83752 6.02666 5.71782 6.55754 5.78751 7.08074C5.85719 7.60395 6.11167 8.08498 6.50498 8.43698L4.42198 11.561C4.26067 11.8033 4.14872 12.075 4.09252 12.3605C4.03632 12.6461 4.03699 12.94 4.09448 13.2253C4.15198 13.5107 4.26517 13.7819 4.42758 14.0234C4.58999 14.2649 4.79843 14.4721 5.04098 14.633L3.55998 16.854C3.22768 17.3522 3.03684 17.9313 3.0078 18.5295C2.97876 19.1277 3.11261 19.7226 3.39509 20.2507C3.67756 20.7788 4.09807 21.2203 4.61176 21.5282C5.12546 21.8361 5.71308 21.9988 6.31198 21.999H11V22.999C11 23.2642 11.1053 23.5185 11.2929 23.7061C11.4804 23.8936 11.7348 23.999 12 23.999C12.2652 23.999 12.5196 23.8936 12.7071 23.7061C12.8946 23.5185 13 23.2642 13 22.999V21.999H17.687C18.286 21.999 18.8737 21.8364 19.3876 21.5286C19.9014 21.2208 20.3221 20.7792 20.6046 20.2511C20.8872 19.723 21.0212 19.1281 20.9922 18.5298C20.9632 17.9315 20.7723 17.3523 20.44 16.854ZM18.84 19.308C18.7297 19.5179 18.5638 19.6933 18.3604 19.8152C18.1571 19.9371 17.9241 20.0007 17.687 19.999H6.31198C6.07517 19.9988 5.84285 19.9343 5.63978 19.8125C5.43671 19.6906 5.27049 19.516 5.15883 19.3071C5.04718 19.0983 4.99427 18.8631 5.00574 18.6266C5.01722 18.39 5.09264 18.161 5.22398 17.964L7.49998 14.554C7.60056 14.4032 7.65828 14.228 7.66698 14.047C7.67568 13.866 7.63504 13.686 7.54939 13.5263C7.46374 13.3666 7.3363 13.2332 7.18071 13.1403C7.02511 13.0474 6.8472 12.9986 6.66598 12.999H6.26098C6.2226 13.0003 6.18464 12.9905 6.15166 12.9708C6.11867 12.9512 6.09205 12.9224 6.07498 12.888C6.05571 12.8546 6.0465 12.8164 6.04845 12.7779C6.0504 12.7394 6.06343 12.7022 6.08598 12.671L8.83098 8.55398C8.92997 8.40245 8.98598 8.22688 8.99302 8.04602C9.00006 7.86515 8.95789 7.68576 8.87098 7.52699C8.7833 7.36709 8.65423 7.23371 8.4973 7.14082C8.34037 7.04792 8.16135 6.99894 7.97898 6.99899C7.9407 7.00039 7.90282 6.99077 7.86985 6.97127C7.83688 6.95177 7.8102 6.92321 7.79298 6.88899C7.7775 6.86219 7.76845 6.83217 7.76655 6.80128C7.76464 6.77039 7.76992 6.73949 7.78198 6.71099L11.744 2.11099C11.7708 2.07676 11.8041 2.04821 11.8421 2.02702C11.8801 2.00583 11.9219 1.99242 11.9651 1.98758C12.0083 1.98273 12.052 1.98656 12.0937 1.99882C12.1354 2.01108 12.1743 2.03154 12.208 2.05899L16.2 6.71199C16.212 6.74049 16.2173 6.77139 16.2154 6.80228C16.2135 6.83317 16.2045 6.86319 16.189 6.88999C16.1714 6.9245 16.1442 6.95318 16.1107 6.97253C16.0771 6.99188 16.0387 7.00107 16 6.99899C15.8189 6.99896 15.6413 7.04808 15.486 7.14111C15.3307 7.23414 15.2035 7.36759 15.1181 7.52722C15.0327 7.68685 14.9922 7.86667 15.001 8.0475C15.0098 8.22833 15.0675 8.40338 15.168 8.55398L17.913 12.671C17.9355 12.7022 17.9486 12.7394 17.9505 12.7779C17.9525 12.8164 17.9433 12.8546 17.924 12.888C17.9069 12.9224 17.8803 12.9512 17.8473 12.9708C17.8143 12.9905 17.7764 13.0003 17.738 12.999H17.333C17.1519 12.999 16.9743 13.0481 16.819 13.1411C16.6637 13.2341 16.5365 13.3676 16.4511 13.5272C16.3657 13.6868 16.3252 13.8667 16.334 14.0475C16.3428 14.2283 16.4005 14.4034 16.501 14.554L18.775 17.964C18.9087 18.1602 18.9856 18.3895 18.9973 18.6267C19.0089 18.8638 18.9548 19.0996 18.841 19.308H18.84Z" fill="#374957"/>
<path d="M9 18C9.55228 18 10 17.5523 10 17C10 16.4477 9.55228 16 9 16C8.44771 16 8 16.4477 8 17C8 17.5523 8.44771 18 9 18Z" fill="#374957"/>
<path d="M14 18C14.5523 18 15 17.5523 15 17C15 16.4477 14.5523 16 14 16C13.4477 16 13 16.4477 13 17C13 17.5523 13.4477 18 14 18Z" fill="#374957"/>
<path d="M11 14C11.5523 14 12 13.5523 12 13C12 12.4477 11.5523 12 11 12C10.4477 12 10 12.4477 10 13C10 13.5523 10.4477 14 11 14Z" fill="#374957"/>
<path d="M13 11C13.5523 11 14 10.5523 14 10C14 9.44771 13.5523 9 13 9C12.4477 9 12 9.44771 12 10C12 10.5523 12.4477 11 13 11Z" fill="#374957"/>
<path d="M11 8C11.5523 8 12 7.55228 12 7C12 6.44771 11.5523 6 11 6C10.4477 6 10 6.44771 10 7C10 7.55228 10.4477 8 11 8Z" fill="#374957"/>
</svg>
