<svg width="24" height="24" viewBox="0 0 24 24" fill="none" xmlns="http://www.w3.org/2000/svg">
<g clip-path="url(#clip0_1317_20037)">
<path d="M22 12.1835V10.9995C21.9974 10.3812 21.8039 9.77886 21.4459 9.27479C21.0879 8.77072 20.5829 8.38958 20 8.18349C20.0524 5.60413 19.4136 3.05774 18.15 0.808492C17.9576 0.536773 17.6987 0.318912 17.3981 0.175708C17.0975 0.0325035 16.7652 -0.0312644 16.433 -0.0095085C16.0871 0.0129886 15.7527 0.123452 15.4615 0.311408C15.1703 0.499364 14.9319 0.758584 14.769 1.06449C14 2.47549 13.24 2.99949 11.962 2.99949H10C8.53439 2.9257 7.09716 3.42241 5.98986 4.3854C4.88256 5.34839 4.19126 6.70282 4.061 8.16449C3.46364 8.36135 2.94326 8.74098 2.57342 9.24971C2.20359 9.75844 2.00299 10.3705 2 10.9995V12.1835C1.41709 12.3896 0.912091 12.7707 0.554088 13.2748C0.196084 13.7789 0.00256297 14.3812 0 14.9995L0 18.9995C0.00158786 20.3251 0.528882 21.5959 1.46622 22.5333C2.40356 23.4706 3.67441 23.9979 5 23.9995H19C20.3256 23.9979 21.5964 23.4706 22.5338 22.5333C23.4711 21.5959 23.9984 20.3251 24 18.9995V14.9995C23.9974 14.3812 23.8039 13.7789 23.4459 13.2748C23.0879 12.7707 22.5829 12.3896 22 12.1835ZM10 4.99949H11.962C12.9359 5.00059 13.8885 4.71449 14.7007 4.17697C15.5128 3.63945 16.1484 2.87439 16.528 1.97749C17.5203 3.82796 18.0267 5.89995 18 7.99949H6.131C6.29118 7.10973 6.77518 6.31079 7.48963 5.75681C8.20408 5.20283 9.09838 4.93304 10 4.99949ZM4 10.9995C4 10.7343 4.10536 10.4799 4.29289 10.2924C4.48043 10.1048 4.73478 9.99949 5 9.99949H19C19.2652 9.99949 19.5196 10.1048 19.7071 10.2924C19.8946 10.4799 20 10.7343 20 10.9995V11.9995H4V10.9995ZM22 18.9995C22 19.7951 21.6839 20.5582 21.1213 21.1208C20.5587 21.6834 19.7956 21.9995 19 21.9995H5C4.20435 21.9995 3.44129 21.6834 2.87868 21.1208C2.31607 20.5582 2 19.7951 2 18.9995V14.9995C2 14.7343 2.10536 14.4799 2.29289 14.2924C2.48043 14.1049 2.73478 13.9995 3 13.9995H21C21.2652 13.9995 21.5196 14.1049 21.7071 14.2924C21.8946 14.4799 22 14.7343 22 14.9995V18.9995Z" fill="#374957"/>
</g>
<defs>
<clipPath id="clip0_1317_20037">
<rect width="24" height="24" fill="white"/>
</clipPath>
</defs>
</svg>
