<svg width="24" height="24" viewBox="0 0 24 24" fill="none" xmlns="http://www.w3.org/2000/svg">
<g clip-path="url(#clip0_1317_20218)">
<path d="M2.88588 6.83567C3.04916 6.83619 3.21008 6.79673 3.35459 6.72073C3.49909 6.64473 3.62279 6.5345 3.71488 6.39967C4.4583 5.29922 5.41315 4.35763 6.52388 3.62967C6.63367 3.55744 6.72815 3.4643 6.80194 3.35555C6.87573 3.24681 6.92737 3.1246 6.95393 2.9959C6.98049 2.8672 6.98144 2.73452 6.95672 2.60546C6.932 2.47639 6.88211 2.35345 6.80988 2.24367C6.73765 2.13388 6.64451 2.0394 6.53577 1.96561C6.42703 1.89182 6.30482 1.84017 6.17611 1.81362C6.04741 1.78706 5.91474 1.78611 5.78567 1.81083C5.6566 1.83554 5.53367 1.88544 5.42388 1.95767C4.09383 2.8295 2.95034 3.95701 2.05988 5.27467C1.95806 5.42491 1.89906 5.60002 1.88918 5.78124C1.8793 5.96247 1.91893 6.14296 2.00381 6.30337C2.0887 6.46379 2.21564 6.59808 2.37102 6.69185C2.52641 6.78562 2.70439 6.83534 2.88588 6.83567Z" fill="#374957"/>
<path d="M2 11.9993C1.99982 11.3382 2.06446 10.6788 2.193 10.0303C2.22083 9.90074 2.22263 9.76693 2.19829 9.63667C2.17395 9.5064 2.12397 9.38226 2.05123 9.27148C1.9785 9.1607 1.88448 9.06548 1.77462 8.99136C1.66477 8.91724 1.54127 8.86569 1.41132 8.83971C1.28137 8.81374 1.14755 8.81385 1.01764 8.84004C0.887732 8.86624 0.764326 8.91799 0.654595 8.9923C0.544864 9.0666 0.450996 9.16198 0.378449 9.27288C0.305902 9.38378 0.256122 9.508 0.232002 9.63831C-0.0779852 11.1991 -0.0779852 12.8056 0.232002 14.3663C0.278108 14.5922 0.400839 14.7952 0.579422 14.941C0.758005 15.0868 0.981472 15.1664 1.212 15.1663C1.27913 15.1666 1.34612 15.1602 1.412 15.1473C1.67205 15.0952 1.90074 14.9419 2.04777 14.7212C2.19479 14.5004 2.24812 14.2304 2.196 13.9703C2.06625 13.3213 2.0006 12.6611 2 11.9993Z" fill="#374957"/>
<path d="M6.52809 20.3729C5.41713 19.6465 4.4619 18.7063 3.71809 17.6069C3.64435 17.4982 3.54992 17.405 3.44018 17.3328C3.33045 17.2605 3.20756 17.2106 3.07853 17.1859C2.81795 17.1359 2.54818 17.1915 2.32859 17.3404C2.10899 17.4893 1.95754 17.7194 1.90756 17.98C1.85758 18.2405 1.91317 18.5103 2.06209 18.7299C2.95436 20.0475 4.09995 21.1744 5.43209 22.0449C5.65381 22.1908 5.92439 22.2426 6.18432 22.189C6.44424 22.1353 6.67222 21.9806 6.81809 21.7589C6.96395 21.5372 7.01577 21.2666 6.96214 21.0067C6.9085 20.7467 6.75381 20.5188 6.53209 20.3729H6.52809Z" fill="#374957"/>
<path d="M12.0002 0C11.272 0.00124052 10.5453 0.0681785 9.82916 0.2C9.58335 0.244507 9.3631 0.379402 9.21176 0.578139C9.06041 0.776877 8.98892 1.02506 9.01137 1.27386C9.03382 1.52265 9.14857 1.75404 9.33304 1.92247C9.51752 2.09091 9.75836 2.18421 10.0082 2.184C10.0688 2.18355 10.1294 2.1782 10.1892 2.168C10.7865 2.05729 11.3927 2.00106 12.0002 2V22C11.3928 22.0003 10.7866 21.9454 10.1892 21.836C9.92819 21.7883 9.65894 21.8461 9.44065 21.9969C9.22235 22.1477 9.0729 22.379 9.02516 22.64C8.97742 22.901 9.03531 23.1702 9.18609 23.3885C9.33687 23.6068 9.56819 23.7563 9.82916 23.804C11.5598 24.1206 13.3389 24.053 15.0406 23.6062C16.7422 23.1593 18.325 22.344 19.6768 21.218C21.0286 20.092 22.1165 18.6827 22.8636 17.0898C23.6107 15.4969 23.9987 13.7594 24.0002 12C23.9967 8.81846 22.7313 5.76821 20.4816 3.51852C18.232 1.26883 15.1817 0.00344108 12.0002 0V0Z" fill="#374957"/>
</g>
<defs>
<clipPath id="clip0_1317_20218">
<rect width="24" height="24" fill="white"/>
</clipPath>
</defs>
</svg>
