<svg width="24" height="24" viewBox="0 0 24 24" fill="none" xmlns="http://www.w3.org/2000/svg">
<g clip-path="url(#clip0_1317_20267)">
<path d="M10.4203 20.6553C9.61663 20.6545 8.83424 20.397 8.18728 19.9203L1.54628 15.0503C1.06757 14.6987 0.678326 14.2395 0.410039 13.7096C0.141751 13.1797 0.00195313 12.5942 0.00195312 12.0003C0.00195313 11.4064 0.141751 10.8208 0.410039 10.2909C0.678326 9.76106 1.06757 9.30179 1.54628 8.95027L8.18728 4.08027C8.73195 3.68002 9.37392 3.43301 10.0464 3.36494C10.7189 3.29687 11.3973 3.41021 12.0112 3.69319C12.625 3.97617 13.1518 4.41844 13.5368 4.97401C13.9218 5.52958 14.1509 6.17815 14.2003 6.85227L17.9823 4.07827C18.5461 3.66582 19.2132 3.41752 19.9095 3.36088C20.6058 3.30425 21.3042 3.44148 21.9273 3.75739C22.5505 4.07329 23.074 4.55553 23.4398 5.15068C23.8057 5.74583 23.9997 6.43065 24.0003 7.12927V16.8693C24.0001 17.5684 23.8062 18.2538 23.4402 18.8494C23.0742 19.4451 22.5503 19.9277 21.9267 20.2437C21.303 20.5597 20.6041 20.6968 19.9073 20.6397C19.2105 20.5826 18.5431 20.3336 17.9793 19.9203L14.2003 17.1463C14.1294 18.0997 13.7008 18.9912 13.0003 19.6419C12.2999 20.2926 11.3794 20.6546 10.4233 20.6553H10.4203ZM13.2073 14.1803C13.4202 14.1802 13.6276 14.2482 13.7993 14.3743L19.1623 18.3073C19.4281 18.5019 19.7426 18.6192 20.071 18.646C20.3993 18.6728 20.7287 18.6082 21.0226 18.4593C21.3165 18.3104 21.5634 18.083 21.736 17.8023C21.9085 17.5217 22 17.1987 22.0003 16.8693V7.12927C21.9998 6.79979 21.9081 6.47687 21.7354 6.19627C21.5628 5.91568 21.3158 5.68836 21.0218 5.53948C20.7279 5.3906 20.3985 5.32598 20.0701 5.35277C19.7417 5.37956 19.4272 5.49672 19.1613 5.69127L13.8003 9.62427C13.6513 9.73371 13.4749 9.79971 13.2906 9.81493C13.1064 9.83016 12.9215 9.79401 12.7566 9.7105C12.5916 9.627 12.4531 9.49941 12.3563 9.3419C12.2595 9.18439 12.2083 9.00314 12.2083 8.81827V7.12927C12.2082 6.79964 12.1167 6.47649 11.9441 6.19567C11.7715 5.91485 11.5244 5.68734 11.2304 5.5384C10.9363 5.38945 10.6068 5.32489 10.2782 5.35187C9.94971 5.37886 9.63509 5.49633 9.36928 5.69127L2.72928 10.5613C2.50338 10.7269 2.31967 10.9434 2.19305 11.1932C2.06642 11.443 2.00043 11.7192 2.00043 11.9993C2.00043 12.2794 2.06642 12.5555 2.19305 12.8053C2.31967 13.0552 2.50338 13.2717 2.72928 13.4373L9.36928 18.3073C9.63509 18.5019 9.94961 18.6192 10.278 18.646C10.6063 18.6728 10.9357 18.6082 11.2296 18.4593C11.5235 18.3104 11.7704 18.083 11.943 17.8023C12.1155 17.5217 12.207 17.1987 12.2073 16.8693V15.1803C12.2073 14.915 12.3126 14.6607 12.5002 14.4732C12.6877 14.2856 12.9421 14.1803 13.2073 14.1803Z" fill="#374957"/>
</g>
<defs>
<clipPath id="clip0_1317_20267">
<rect width="24" height="24" fill="white"/>
</clipPath>
</defs>
</svg>
