<svg width="24" height="24" viewBox="0 0 24 24" fill="none" xmlns="http://www.w3.org/2000/svg">
<g clip-path="url(#clip0_1317_19953)">
<path d="M12.0034 -0.00195312C5.36579 -0.00195312 -0.0151367 5.37897 -0.0151367 12.0166C-0.0151367 18.6542 5.36579 24.0351 12.0034 24.0351C18.6411 24.0351 24.0219 18.6542 24.0219 12.0166C24.0219 5.37897 18.6411 -0.00195312 12.0034 -0.00195312ZM21.9431 10.9422L21.9381 10.9382C20.0023 10.7374 18.168 9.97244 16.6631 8.73827L19.7331 5.66828C20.97 7.17217 21.7383 9.00587 21.9431 10.9422ZM18.3151 4.25327L15.2491 7.32827C14.0146 5.82362 13.2495 3.98927 13.0492 2.05328C14.9816 2.25672 16.8123 3.02148 18.3151 4.25327ZM11.0531 2.04827C11.2626 4.51698 12.2352 6.85933 13.8361 8.75027L12.0001 10.5863L5.67614 4.26227C7.20821 3.00559 9.08044 2.23473 11.0531 2.04827ZM4.26169 5.67681L4.25714 5.67227L4.26216 5.67625C4.26197 5.67644 4.26183 5.67662 4.26169 5.67681L10.5862 12.0002L8.74918 13.8372C6.85936 12.2357 4.51754 11.2626 2.04919 11.0532C2.23529 9.08087 3.00568 7.20887 4.26169 5.67681ZM2.05716 13.0583V13.0543C3.99314 13.2546 5.8275 14.0197 7.33214 15.2543L4.26216 18.3242C3.0286 16.822 2.26205 14.9913 2.05716 13.0583ZM5.68013 19.7382L8.74613 16.6683C9.98072 18.1729 10.7458 20.0072 10.9461 21.9432C9.01313 21.7383 7.18243 20.9718 5.68013 19.7382ZM12.9472 21.9522C12.7381 19.4835 11.7649 17.1413 10.1632 15.2512L12.0001 13.4142L18.3241 19.7382C16.7923 20.9953 14.92 21.7662 12.9472 21.9522ZM19.7362 18.3242L13.4141 12.0002L15.2501 10.1642C17.1405 11.7648 19.4821 12.7375 21.9501 12.9473C21.7637 14.92 20.9928 16.7922 19.7362 18.3242Z" fill="#374957"/>
</g>
<defs>
<clipPath id="clip0_1317_19953">
<rect width="24" height="24" fill="white"/>
</clipPath>
</defs>
</svg>
