<svg width="24" height="24" viewBox="0 0 24 24" fill="none" xmlns="http://www.w3.org/2000/svg">
<path d="M20.467 17.2992C20.446 17.2692 18.91 15.4842 18.91 15.4842C19.4681 15.0731 19.8444 14.461 19.9594 13.7774C20.0744 13.0938 19.9189 12.3923 19.526 11.8212C19.501 11.7852 17.641 9.73024 17.641 9.73024C18.1063 9.49561 18.4857 9.12011 18.725 8.65724C18.9309 8.26076 19.0235 7.81516 18.9924 7.36948C18.9614 6.92381 18.8079 6.49534 18.549 6.13124C18.528 6.09924 13.886 0.845243 13.886 0.845243C13.6425 0.590434 13.3499 0.387624 13.0259 0.249062C12.7018 0.110501 12.353 0.0390625 12.0005 0.0390625C11.6481 0.0390625 11.2993 0.110501 10.9752 0.249062C10.6512 0.387624 10.3585 0.590434 10.115 0.845243C10.115 0.845243 5.47204 6.09924 5.45105 6.12924C5.19215 6.49334 5.03874 6.92181 5.00769 7.36748C4.97663 7.81316 5.06915 8.25876 5.27504 8.65524C5.51441 9.11811 5.89377 9.49361 6.35905 9.72824C6.35905 9.72824 4.50004 11.7832 4.47404 11.8192C4.08114 12.3903 3.92574 13.0918 4.04069 13.7754C4.15565 14.459 4.53196 15.0711 5.09004 15.4822C5.09004 15.4822 3.55404 17.2672 3.53304 17.2992C3.22349 17.7493 3.04271 18.2754 3.0102 18.8207C2.97769 19.366 3.09469 19.9098 3.34857 20.3935C3.60246 20.8772 3.98359 21.2824 4.45085 21.5654C4.91812 21.8483 5.45378 21.9984 6.00004 21.9992H11V22.9992C11 23.2645 11.1054 23.5188 11.2929 23.7064C11.4805 23.8939 11.7348 23.9992 12 23.9992C12.2653 23.9992 12.5196 23.8939 12.7072 23.7064C12.8947 23.5188 13 23.2645 13 22.9992V21.9992H18C18.5467 21.9991 19.0828 21.8496 19.5507 21.5669C20.0185 21.2842 20.4002 20.8791 20.6546 20.3953C20.9089 19.9115 21.0263 19.3674 20.9939 18.8217C20.9616 18.2761 20.7808 17.7496 20.471 17.2992H20.467ZM18.882 19.4662C18.7986 19.6279 18.672 19.7632 18.5163 19.8573C18.3606 19.9514 18.1819 20.0005 18 19.9992H6.00004C5.82152 19.9995 5.64619 19.9519 5.49225 19.8615C5.33831 19.7711 5.21139 19.6412 5.12464 19.4851C5.0379 19.3291 4.99451 19.1527 4.99898 18.9742C5.00345 18.7958 5.05561 18.6217 5.15004 18.4702L7.28504 15.9992H13C13.2653 15.9992 13.5196 15.8939 13.7072 15.7063C13.8947 15.5188 14 15.2645 14 14.9992C14 14.734 13.8947 14.4797 13.7072 14.2921C13.5196 14.1046 13.2653 13.9992 13 13.9992H6.67004C6.553 13.9993 6.43802 13.9685 6.33664 13.91C6.23527 13.8515 6.15107 13.7674 6.0925 13.666C6.03393 13.5647 6.00305 13.4497 6.00297 13.3327C6.00289 13.2157 6.03361 13.1007 6.09204 12.9992L8.81404 9.99924H12C12.2653 9.99924 12.5196 9.89389 12.7072 9.70635C12.8947 9.51881 13 9.26446 13 8.99924C13 8.73403 12.8947 8.47967 12.7072 8.29214C12.5196 8.1046 12.2653 7.99924 12 7.99924H7.50004C7.40758 8.00252 7.31608 7.97944 7.23623 7.9327C7.15638 7.88596 7.09146 7.81748 7.04904 7.73524C7.01367 7.67089 6.99596 7.59831 6.99771 7.5249C6.99947 7.45148 7.02063 7.37983 7.05904 7.31724L11.611 2.16824C11.6587 2.11233 11.718 2.06743 11.7847 2.03664C11.8514 2.00586 11.9241 1.98991 11.9975 1.98991C12.071 1.98991 12.1436 2.00586 12.2104 2.03664C12.2771 2.06743 12.3364 2.11233 12.384 2.16824L16.934 7.31624C16.9727 7.37871 16.9941 7.45032 16.996 7.52376C16.998 7.59719 16.9804 7.66983 16.945 7.73424C16.9032 7.81572 16.8393 7.88379 16.7606 7.93065C16.6819 7.97751 16.5916 8.00128 16.5 7.99924H15.632C15.4396 8.0019 15.2519 8.05973 15.0913 8.16586C14.9307 8.27199 14.8039 8.42197 14.726 8.598C14.6481 8.77403 14.6223 8.96872 14.6518 9.15895C14.6812 9.34919 14.7646 9.52699 14.892 9.67124L17.908 12.9992C17.9665 13.1007 17.9972 13.2157 17.9971 13.3327C17.997 13.4497 17.9662 13.5647 17.9076 13.666C17.849 13.7674 17.7648 13.8515 17.6634 13.91C17.5621 13.9685 17.4471 13.9993 17.33 13.9992H17.173C16.9828 14.0021 16.7973 14.0589 16.638 14.1629C16.4787 14.2669 16.3521 14.4139 16.2729 14.5868C16.1937 14.7598 16.1651 14.9517 16.1904 15.1402C16.2157 15.3288 16.294 15.5063 16.416 15.6522L18.846 18.4702C18.9403 18.6176 18.9934 18.7875 18.9997 18.9623C19.006 19.1371 18.9654 19.3105 18.882 19.4642V19.4662Z" fill="#374957"/>
</svg>
