<svg width="24" height="24" viewBox="0 0 24 24" fill="none" xmlns="http://www.w3.org/2000/svg">
<g clip-path="url(#clip0_1317_20023)">
<path d="M14.5 6.99924C13.5684 6.98475 12.6692 7.34085 12 7.98924C11.4856 7.50885 10.8405 7.1914 10.146 7.07686C9.45157 6.96231 8.73873 7.05578 8.09726 7.34551C7.4558 7.63524 6.91439 8.10827 6.5412 8.70505C6.16801 9.30182 5.97971 9.99568 6.00002 10.6992C6.00002 13.9552 10.874 17.4352 11.43 17.8202C11.5974 17.9364 11.7963 17.9986 12 17.9986C12.2038 17.9986 12.4026 17.9364 12.57 17.8202C13.126 17.4352 18 13.9552 18 10.6992C18.0248 9.74495 17.6703 8.81974 17.0143 8.12624C16.3583 7.43275 15.4542 7.02749 14.5 6.99924ZM12 15.7612C10.259 14.4312 8.00002 12.2012 8.00002 10.6992C7.92402 8.69324 10.913 8.29924 11 10.4532V10.9992C11 11.2645 11.1054 11.5188 11.2929 11.7063C11.4805 11.8939 11.7348 11.9992 12 11.9992C12.2652 11.9992 12.5196 11.8939 12.7071 11.7063C12.8947 11.5188 13 11.2645 13 10.9992V10.4532C13.087 8.30124 16.076 8.69324 16 10.6992C16 12.1992 13.741 14.4312 12 15.7612ZM12.836 0.0272399C11.1218 -0.0925521 9.40175 0.157241 7.79237 0.759722C6.183 1.3622 4.72179 2.30331 3.50761 3.51939C2.29343 4.73547 1.3546 6.19814 0.754635 7.80845C0.154667 9.41877 -0.0924423 11.1392 0.0300248 12.8532C0.470025 19.2072 6.08203 23.9992 13.083 23.9992H19C20.3256 23.9977 21.5965 23.4704 22.5338 22.533C23.4711 21.5957 23.9984 20.3248 24 18.9992V12.3392C24.0371 9.25675 22.9068 6.27433 20.8361 3.99066C18.7653 1.70698 15.9074 0.291105 12.836 0.0272399ZM22 18.9992C22 19.7949 21.684 20.558 21.1213 21.1206C20.5587 21.6832 19.7957 21.9992 19 21.9992H13.083C7.04903 21.9992 2.40002 18.0992 2.02502 12.7152C1.92236 11.2862 2.12795 9.85187 2.62787 8.50924C3.12779 7.16662 3.91038 5.94708 4.92263 4.93322C5.93488 3.91936 7.15316 3.13484 8.49499 2.63278C9.83682 2.13072 11.2709 1.92285 12.7 2.02324C15.2665 2.25028 17.6519 3.44015 19.3771 5.35379C21.1023 7.26744 22.0393 9.76306 22 12.3392V18.9992Z" fill="#374957"/>
</g>
<defs>
<clipPath id="clip0_1317_20023">
<rect width="24" height="24" fill="white"/>
</clipPath>
</defs>
</svg>
