<svg width="24" height="24" viewBox="0 0 24 24" fill="none" xmlns="http://www.w3.org/2000/svg">
<g clip-path="url(#clip0_1317_20401)">
<path d="M14.4998 13C14.2031 13 13.9131 12.9121 13.6664 12.7472C13.4198 12.5824 13.2275 12.3481 13.114 12.0741C13.0004 11.8 12.9707 11.4984 13.0286 11.2074C13.0865 10.9164 13.2293 10.6491 13.4391 10.4394C13.6489 10.2296 13.9162 10.0867 14.2071 10.0288C14.4981 9.97097 14.7997 10.0007 15.0738 10.1142C15.3479 10.2277 15.5822 10.42 15.747 10.6667C15.9118 10.9133 15.9998 11.2034 15.9998 11.5C15.9998 11.8979 15.8417 12.2794 15.5604 12.5607C15.2791 12.842 14.8976 13 14.4998 13ZM23.9248 18.144C24.0496 18.8622 24.0158 19.599 23.8259 20.3028C23.6359 21.0066 23.2944 21.6604 22.8252 22.2183C22.356 22.7762 21.7705 23.2247 21.1097 23.5325C20.4489 23.8403 19.7287 23.9999 18.9998 24H14.9998C14.7346 24 14.4802 23.8947 14.2927 23.7071C14.1051 23.5196 13.9998 23.2652 13.9998 23V20.737C13.347 20.9092 12.6749 20.9975 11.9998 21C11.3243 20.9966 10.652 20.9058 9.99978 20.73V23C9.99978 23.2652 9.89443 23.5196 9.70689 23.7071C9.51935 23.8947 9.265 24 8.99978 24H4.99979C4.27082 23.9999 3.5507 23.8403 2.88989 23.5325C2.22909 23.2247 1.64357 22.7762 1.17437 22.2183C0.705169 21.6604 0.363633 21.0066 0.173691 20.3028C-0.016251 19.599 -0.0500045 18.8622 0.0747952 18.144L0.374795 16.404C0.474553 15.8253 0.745389 15.2898 1.15238 14.8664C1.55937 14.4431 2.08384 14.1514 2.65818 14.0289C3.23251 13.9064 3.83036 13.9588 4.37463 14.1793C4.91891 14.3998 5.38465 14.7783 5.71179 15.266C6.97579 17.124 9.40878 19 11.9998 19C15.1298 19 18.2138 16.221 19.1298 13.624C19.2033 13.4288 19.3343 13.2605 19.5056 13.1414C19.6768 13.0223 19.8802 12.958 20.0888 12.957L20.5208 12.964C20.7144 12.9664 20.9066 12.9303 21.0861 12.8577C21.2656 12.7852 21.429 12.6777 21.5666 12.5415C21.7042 12.4053 21.8134 12.243 21.8877 12.0642C21.9621 11.8855 22.0002 11.6937 21.9998 11.5C21.9994 11.1493 21.8762 10.8098 21.6515 10.5405C21.4267 10.2712 21.1148 10.0892 20.7698 10.026C20.557 9.98743 20.3625 9.88091 20.2154 9.72244C20.0683 9.56396 19.9765 9.36207 19.9538 9.14703C19.7482 7.18232 18.821 5.36375 17.3516 4.04344C15.8822 2.72313 13.9752 1.995 11.9998 2.00003C6.42279 2.00003 4.89179 5.62803 3.66179 8.54403C3.43779 9.07103 3.22679 9.57403 2.99979 10.027C5.01058 9.9207 6.97128 9.36103 8.73521 8.38988C10.4991 7.41873 12.0206 6.06126 13.1858 4.41903C13.2621 4.31213 13.3587 4.22131 13.4701 4.15175C13.5815 4.08219 13.7055 4.03525 13.835 4.01361C13.9646 3.99198 14.0971 3.99607 14.225 4.02565C14.353 4.05523 14.4739 4.10973 14.5808 4.18603C14.6877 4.26233 14.7785 4.35893 14.8481 4.47033C14.9176 4.58173 14.9646 4.70573 14.9862 4.83527C15.0078 4.96481 15.0037 5.09734 14.9742 5.2253C14.9446 5.35325 14.8901 5.47413 14.8138 5.58103C13.5158 7.42119 11.8224 8.9475 9.85778 10.048C10.1573 10.1216 10.4268 10.2856 10.6297 10.5178C10.8326 10.75 10.959 11.0391 10.9917 11.3458C11.0244 11.6524 10.9618 11.9616 10.8124 12.2314C10.663 12.5012 10.4341 12.7184 10.1568 12.8534C9.87959 12.9884 9.56748 13.0347 9.26299 12.9859C8.9585 12.9371 8.67643 12.7957 8.45519 12.5809C8.23396 12.3661 8.08431 12.0883 8.02662 11.7854C7.96892 11.4825 8.006 11.1691 8.13279 10.888C5.83361 11.819 3.34759 12.1958 0.875794 11.988C0.669766 11.9604 0.477464 11.8693 0.325632 11.7273C0.1738 11.5853 0.0699855 11.3996 0.0286266 11.1959C-0.0127322 10.9921 0.0104205 10.7806 0.0948647 10.5907C0.179309 10.4007 0.320847 10.2418 0.499795 10.136C1.10433 9.45013 1.55418 8.64218 1.81879 7.76703C3.12379 4.67403 5.09979 2.80073e-05 11.9998 2.80073e-05C14.3541 -0.00554947 16.6346 0.822076 18.4373 2.33639C20.2401 3.85071 21.4489 5.95403 21.8498 8.27403C22.4861 8.54007 23.0297 8.98821 23.4122 9.56216C23.7947 10.1361 23.9991 10.8103 23.9998 11.5C23.9981 12.331 23.6946 13.1331 23.1458 13.757C23.1528 13.783 23.1708 13.804 23.1758 13.832L23.9248 18.144ZM7.99979 19.94C6.41804 19.0924 5.06566 17.8735 4.05879 16.388C3.9731 16.2585 3.85685 16.1521 3.7203 16.0781C3.58374 16.0042 3.43108 15.965 3.27579 15.964H3.25879C3.03985 15.9686 2.82931 16.0491 2.66315 16.1918C2.49699 16.3344 2.38552 16.5303 2.34779 16.746L2.04779 18.485C1.97273 18.9158 1.99274 19.3578 2.10643 19.78C2.22012 20.2023 2.42473 20.5945 2.70595 20.9294C2.98716 21.2642 3.33818 21.5336 3.73441 21.7185C4.13065 21.9034 4.56252 21.9995 4.99979 22H7.99979V19.94ZM21.9548 18.485L21.3268 14.872C21.1366 14.9174 20.9429 14.9461 20.7478 14.958C19.7389 17.0869 18.075 18.837 15.9998 19.952V22H18.9998C19.4372 21.9999 19.8693 21.9042 20.2658 21.7195C20.6623 21.5348 21.0137 21.2656 21.2952 20.9308C21.5767 20.5961 21.7816 20.2038 21.8956 19.7814C22.0095 19.3591 22.0297 18.917 21.9548 18.486V18.485Z" fill="#374957"/>
</g>
<defs>
<clipPath id="clip0_1317_20401">
<rect width="24" height="24" fill="white"/>
</clipPath>
</defs>
</svg>
