<svg width="24" height="24" viewBox="0 0 24 24" fill="none" xmlns="http://www.w3.org/2000/svg">
<g clip-path="url(#clip0_1317_20018)">
<path d="M2.99997 21.1242C2.79741 21.124 2.59969 21.0622 2.43297 20.9472C1.6406 20.4326 0.998016 19.718 0.570109 18.8757C0.142201 18.0333 -0.0558843 17.0929 -0.00414945 16.1495C0.0475854 15.2061 0.347309 14.2931 0.864762 13.5026C1.38221 12.712 2.09908 12.072 2.94297 11.6472C2.07473 10.0689 1.79142 8.23485 2.14297 6.46817C2.48483 4.7205 3.40003 3.13685 4.7436 1.96807C6.08717 0.799295 7.7823 0.112219 9.56048 0.0156763C11.3387 -0.0808662 13.0982 0.418645 14.5604 1.43509C16.0226 2.45153 17.1039 3.92678 17.633 5.62717C17.6833 5.79956 17.7756 5.95676 17.9016 6.08469C18.0276 6.21262 18.1834 6.30728 18.355 6.36017C19.6131 6.74561 20.7564 7.4361 21.6832 8.37021C22.61 9.30431 23.2915 10.453 23.667 11.7142C23.7365 11.9663 23.7045 12.2357 23.5778 12.4646C23.451 12.6934 23.2397 12.8635 22.989 12.9383C22.7384 13.0131 22.4684 12.9867 22.2369 12.8648C22.0055 12.7429 21.831 12.5352 21.751 12.2862C21.4691 11.3408 20.958 10.4797 20.2631 9.77939C19.5683 9.07912 18.7112 8.56137 17.768 8.27217C17.2861 8.12248 16.848 7.85741 16.4918 7.49999C16.1356 7.14256 15.872 6.70358 15.724 6.22117C15.4836 5.42012 15.0784 4.67817 14.5344 4.04293C13.9904 3.40769 13.3196 2.89319 12.5651 2.53246C11.8106 2.17172 10.9889 1.97271 10.153 1.9482C9.31698 1.92369 8.48511 2.07423 7.71073 2.39014C6.93635 2.70605 6.23657 3.18037 5.65629 3.78264C5.07602 4.38492 4.62806 5.10186 4.34118 5.88746C4.05429 6.67305 3.93481 7.50995 3.9904 8.34443C4.04599 9.17892 4.27542 9.99257 4.66397 10.7332C4.91172 11.1952 4.96752 11.7363 4.81929 12.2392C4.67106 12.7421 4.33073 13.1664 3.87197 13.4202C3.33318 13.6852 2.87497 14.0893 2.54475 14.5908C2.21453 15.0923 2.02428 15.6729 1.99369 16.2725C1.9631 16.8722 2.09328 17.4691 2.37076 18.0016C2.64824 18.534 3.06294 18.9827 3.57197 19.3012C3.74776 19.4225 3.88008 19.5969 3.94956 19.7989C4.01904 20.0009 4.02202 20.2198 3.95808 20.4236C3.89414 20.6273 3.76662 20.8053 3.59421 20.9314C3.42181 21.0575 3.21356 21.125 2.99997 21.1242ZM19.1 24.0012C19.4584 23.9844 19.8142 23.9315 20.162 23.8432C21.063 23.6341 21.8873 23.1766 22.5413 22.5225C23.1954 21.8685 23.6529 21.0442 23.862 20.1432C24.1644 18.877 23.9623 17.5427 23.2984 16.4229C22.6346 15.3031 21.561 14.4855 20.305 14.1432C20.305 14.1432 19.676 13.9982 19.539 13.6722C19.0552 12.5051 18.2154 11.5205 17.1393 10.8587C16.0631 10.1969 14.8055 9.89169 13.5457 9.98656C12.2859 10.0814 11.0882 10.5715 10.1233 11.387C9.15836 12.2025 8.47549 13.3018 8.17198 14.5282C7.95589 15.424 7.93644 16.3561 8.11497 17.2602C7.44895 17.5466 6.8883 18.0328 6.51049 18.6516C6.13268 19.2703 5.95635 19.9912 6.00586 20.7145C6.05537 21.4378 6.32827 22.1279 6.78687 22.6894C7.24547 23.2509 7.86713 23.6562 8.56598 23.8492C8.83744 23.9308 9.11718 23.9818 9.39997 24.0012H19.1ZM17.7 14.4452C17.8737 14.8769 18.1583 15.2552 18.5248 15.5419C18.8914 15.8286 19.3271 16.0135 19.788 16.0782C20.5437 16.2868 21.1887 16.7811 21.5866 17.4567C21.9844 18.1323 22.104 18.9361 21.92 19.6982C21.7907 20.2309 21.517 20.7177 21.1288 21.1048C20.7406 21.4919 20.2531 21.7644 19.72 21.8922C19.505 21.9415 19.2855 21.969 19.065 21.9742C17.4 22.0072 10.794 22.0122 9.46498 21.9742C9.33698 21.9701 9.20985 21.9516 9.08598 21.9192C8.84125 21.8526 8.6179 21.7239 8.4376 21.5455C8.2573 21.3671 8.12618 21.1452 8.05698 20.9012C7.95387 20.5498 7.9835 20.1728 8.14022 19.8418C8.29694 19.5109 8.56982 19.2491 8.90697 19.1062C9.3429 18.9215 9.69998 18.5894 9.91571 18.168C10.1314 17.7466 10.1921 17.2628 10.087 16.8012C9.96132 16.2092 9.97192 15.5964 10.118 15.0092C10.3217 14.1924 10.7779 13.4607 11.4216 12.9183C12.0653 12.3758 12.8637 12.0503 13.7032 11.988C14.5427 11.9258 15.3805 12.1299 16.0972 12.5715C16.8139 13.013 17.373 13.6694 17.695 14.4472L17.7 14.4452Z" fill="#374957"/>
</g>
<defs>
<clipPath id="clip0_1317_20018">
<rect width="24" height="24" fill="white"/>
</clipPath>
</defs>
</svg>
