<svg width="24" height="24" viewBox="0 0 24 24" fill="none" xmlns="http://www.w3.org/2000/svg">
<g clip-path="url(#clip0_1317_19965)">
<path d="M16.0003 16C16.0003 16.1978 15.9416 16.3911 15.8317 16.5556C15.7219 16.72 15.5657 16.8482 15.3829 16.9239C15.2002 16.9996 14.9992 17.0194 14.8052 16.9808C14.6112 16.9422 14.433 16.847 14.2932 16.7071C14.1533 16.5673 14.0581 16.3891 14.0195 16.1951C13.9809 16.0011 14.0007 15.8 14.0764 15.6173C14.1521 15.4346 14.2802 15.2784 14.4447 15.1685C14.6091 15.0586 14.8025 15 15.0003 15C15.2655 15 15.5198 15.1054 15.7074 15.2929C15.8949 15.4804 16.0003 15.7348 16.0003 16ZM19.0003 15C18.8025 15 18.6091 15.0586 18.4447 15.1685C18.2802 15.2784 18.1521 15.4346 18.0764 15.6173C18.0007 15.8 17.9809 16.0011 18.0195 16.1951C18.0581 16.3891 18.1533 16.5673 18.2932 16.7071C18.433 16.847 18.6112 16.9422 18.8052 16.9808C18.9992 17.0194 19.2002 16.9996 19.3829 16.9239C19.5657 16.8482 19.7219 16.72 19.8317 16.5556C19.9416 16.3911 20.0003 16.1978 20.0003 16C20.0003 15.7348 19.8949 15.4804 19.7074 15.2929C19.5198 15.1054 19.2655 15 19.0003 15ZM17.0003 12C16.8025 12 16.6091 12.0586 16.4447 12.1685C16.2802 12.2784 16.1521 12.4346 16.0764 12.6173C16.0007 12.8 15.9809 13.0011 16.0195 13.1951C16.0581 13.3891 16.1533 13.5673 16.2932 13.7071C16.433 13.847 16.6112 13.9422 16.8052 13.9808C16.9992 14.0194 17.2002 13.9996 17.3829 13.9239C17.5657 13.8482 17.7219 13.72 17.8317 13.5556C17.9416 13.3911 18.0003 13.1978 18.0003 13C18.0003 12.7348 17.8949 12.4804 17.7074 12.2929C17.5198 12.1054 17.2655 12 17.0003 12ZM24.0003 16C24.0022 17.5294 23.5652 19.0272 22.741 20.3156C21.9169 21.6039 20.7403 22.6287 19.351 23.2682C17.9618 23.9077 16.4181 24.135 14.9035 23.9231C13.3888 23.7112 11.9668 23.0691 10.8063 22.073C10.4499 22.6602 9.94851 23.1458 9.35029 23.4833C8.75206 23.8207 8.07711 23.9987 7.39026 24H4.61026C3.85008 24.0006 3.10547 23.7846 2.46364 23.3773C1.82181 22.9699 1.30934 22.3881 0.986264 21.7C0.317954 20.2243 -0.0186174 18.6199 0.000264418 17C0.120334 15.0638 0.716651 13.1873 1.73626 11.537C2.41789 10.4679 2.84992 9.25897 3.00026 8C2.88622 7.25882 2.70069 6.53042 2.44626 5.825C2.21818 5.23887 2.06822 4.62527 2.00026 4C2.00026 2.93913 2.42169 1.92172 3.17184 1.17157C3.92198 0.421427 4.9394 0 6.00026 0C7.06113 0 8.07855 0.421427 8.82869 1.17157C9.57884 1.92172 10.0003 2.93913 10.0003 4C9.93231 4.62527 9.78235 5.23887 9.55426 5.825C9.29984 6.53042 9.1143 7.25882 9.00026 8C9.08561 9.00243 9.39562 9.97276 9.90726 10.839C10.9635 9.58638 12.3794 8.68891 13.963 8.26831C15.5466 7.8477 17.2212 7.92432 18.7598 8.48776C20.2984 9.0512 21.6265 10.0742 22.5639 11.418C23.5013 12.7619 24.0028 14.3615 24.0003 16ZM4.00026 4C4.01626 4.15 4.21126 4.772 4.35426 5.226C4.69216 6.11777 4.90942 7.05069 5.00026 8H7.00026C7.09111 7.05069 7.30837 6.11777 7.64626 5.226C7.78685 4.81505 7.90503 4.39677 8.00026 3.973C7.99668 3.44257 7.78254 2.93528 7.40493 2.56274C7.02733 2.1902 6.5172 1.98292 5.98676 1.9865C5.45633 1.99008 4.94905 2.20423 4.57651 2.58183C4.20396 2.95944 3.99668 3.46957 4.00026 4ZM9.20026 20.856C9.74568 19.6446 10.0188 18.3284 10.0003 17C9.86752 15.3867 9.34896 13.829 8.48826 12.458C8.05519 11.6672 7.68085 10.8457 7.36826 10H4.63226C4.31968 10.8457 3.94534 11.6672 3.51226 12.458C2.65157 13.829 2.13301 15.3867 2.00026 17C1.98187 18.3287 2.25495 19.6452 2.80026 20.857C2.96266 21.1994 3.21902 21.4887 3.53947 21.691C3.85992 21.8934 4.23127 22.0006 4.61026 22H7.39026C7.76937 22.0005 8.14079 21.8932 8.46125 21.6906C8.78171 21.4881 9.03801 21.1986 9.20026 20.856ZM22.0003 16C22.002 14.6964 21.5785 13.4278 20.794 12.3866C20.0095 11.3455 18.9068 10.5886 17.6533 10.2309C16.3997 9.87315 15.0636 9.93407 13.8478 10.4044C12.632 10.8747 11.6028 11.7288 10.9163 12.837C11.586 14.1255 11.9566 15.5485 12.0003 17C12.0005 18.0332 11.8633 19.0619 11.5923 20.059C12.4089 20.9487 13.4753 21.5709 14.6517 21.8441C15.8281 22.1172 17.0596 22.0286 18.1847 21.5898C19.3099 21.151 20.2762 20.3825 20.9571 19.385C21.6379 18.3876 22.0015 17.2077 22.0003 16Z" fill="#374957"/>
</g>
<defs>
<clipPath id="clip0_1317_19965">
<rect width="24" height="24" fill="white"/>
</clipPath>
</defs>
</svg>
