<svg width="24" height="24" viewBox="0 0 24 24" fill="none" xmlns="http://www.w3.org/2000/svg">
<g clip-path="url(#clip0_1317_20335)">
<path d="M23.7071 5.29243L18.7071 0.292431C18.5185 0.110273 18.2659 0.00947813 18.0037 0.0117566C17.7415 0.014035 17.4907 0.119204 17.3053 0.304612C17.1199 0.49002 17.0147 0.740833 17.0124 1.00303C17.0101 1.26523 17.1109 1.51783 17.2931 1.70643L19.0861 3.49943L17.6001 4.98243C16.6397 4.27725 15.459 3.93821 14.2708 4.0264C13.0825 4.11458 11.9649 4.6242 11.1191 5.46343L5.05008 11.5354C4.39816 12.1839 3.8813 12.9551 3.52942 13.8046C3.17754 14.6541 2.99763 15.5649 3.00008 16.4844V19.5844L0.293081 22.2924C0.197571 22.3847 0.121389 22.495 0.0689798 22.617C0.0165708 22.739 -0.0110155 22.8702 -0.0121693 23.003C-0.0133231 23.1358 0.0119786 23.2675 0.0622595 23.3904C0.11254 23.5133 0.186794 23.6249 0.280686 23.7188C0.374579 23.8127 0.486231 23.887 0.609127 23.9373C0.732023 23.9875 0.863703 24.0128 0.996482 24.0117C1.12926 24.0105 1.26048 23.9829 1.38249 23.9305C1.50449 23.8781 1.61483 23.8019 1.70708 23.7064L4.41408 20.9994H7.51408C8.43356 21.0019 9.3444 20.822 10.1939 20.4701C11.0434 20.1182 11.8147 19.6014 12.4631 18.9494L18.5351 12.8774C19.375 12.0327 19.8852 10.9155 19.9736 9.72753C20.062 8.53959 19.7227 7.35918 19.0171 6.39943L20.5001 4.91343L22.2931 6.70643C22.4817 6.88859 22.7343 6.98938 22.9965 6.9871C23.2587 6.98483 23.5095 6.87966 23.6949 6.69425C23.8803 6.50884 23.9855 6.25803 23.9878 5.99583C23.99 5.73363 23.8892 5.48103 23.7071 5.29243ZM17.1221 11.4634L11.0501 17.5354C10.5869 18.001 10.036 18.3702 9.4292 18.6215C8.82243 18.8728 8.17183 19.0012 7.51508 18.9994H5.00008V16.4844C5.00039 16.1568 5.0322 15.83 5.09508 15.5084L6.29508 16.7084C6.38733 16.8039 6.49767 16.8801 6.61968 16.9325C6.74168 16.9849 6.8729 17.0125 7.00568 17.0137C7.13846 17.0148 7.27014 16.9895 7.39303 16.9393C7.51593 16.889 7.62758 16.8147 7.72148 16.7208C7.81537 16.6269 7.88962 16.5153 7.9399 16.3924C7.99018 16.2695 8.01549 16.1378 8.01433 16.005C8.01318 15.8722 7.98559 15.741 7.93318 15.619C7.88077 15.497 7.80459 15.3867 7.70908 15.2944L5.96808 13.5534C6.11881 13.3407 6.28599 13.1401 6.46808 12.9534L7.50008 11.9134L9.29308 13.7064C9.48168 13.8886 9.73429 13.9894 9.99648 13.9871C10.2587 13.9848 10.5095 13.8797 10.6949 13.6942C10.8803 13.5088 10.9855 13.258 10.9878 12.9958C10.99 12.7336 10.8892 12.481 10.7071 12.2924L8.91408 10.4994L10.5001 8.91343L12.2931 10.7064C12.4817 10.8886 12.7343 10.9894 12.9965 10.9871C13.2587 10.9848 13.5095 10.8797 13.6949 10.6942C13.8803 10.5088 13.9855 10.258 13.9878 9.99583C13.99 9.73363 13.8892 9.48103 13.7071 9.29243L11.9141 7.49943L12.5361 6.87743C13.1077 6.33225 13.8672 6.0281 14.6571 6.0281C15.447 6.0281 16.2065 6.33225 16.7781 6.87743L17.1221 7.22143C17.6845 7.78401 18.0004 8.54694 18.0004 9.34243C18.0004 10.1379 17.6845 10.9008 17.1221 11.4634Z" fill="#374957"/>
</g>
<defs>
<clipPath id="clip0_1317_20335">
<rect width="24" height="24" fill="white"/>
</clipPath>
</defs>
</svg>
