<svg width="24" height="24" viewBox="0 0 24 24" fill="none" xmlns="http://www.w3.org/2000/svg">
<g clip-path="url(#clip0_1317_20303)">
<path d="M7 22H5C4.20435 22 3.44129 21.6839 2.87868 21.1213C2.31607 20.5587 2 19.7956 2 19V5C2 4.20435 2.31607 3.44129 2.87868 2.87868C3.44129 2.31607 4.20435 2 5 2H7C7.26522 2 7.51957 1.89464 7.70711 1.70711C7.89464 1.51957 8 1.26522 8 1C8 0.734784 7.89464 0.48043 7.70711 0.292893C7.51957 0.105357 7.26522 0 7 0L5 0C3.67441 0.00158786 2.40356 0.528882 1.46622 1.46622C0.528882 2.40356 0.00158786 3.67441 0 5L0 19C0.00158786 20.3256 0.528882 21.5964 1.46622 22.5338C2.40356 23.4711 3.67441 23.9984 5 24H7C7.26522 24 7.51957 23.8946 7.70711 23.7071C7.89464 23.5196 8 23.2652 8 23C8 22.7348 7.89464 22.4804 7.70711 22.2929C7.51957 22.1054 7.26522 22 7 22Z" fill="#374957"/>
<path d="M23.0001 11.0006L7.22306 11.0326C7.31077 10.8697 7.42046 10.7196 7.54906 10.5866L11.4281 6.70757C11.5236 6.61532 11.5998 6.50498 11.6522 6.38297C11.7046 6.26097 11.7322 6.12975 11.7333 5.99697C11.7345 5.86419 11.7092 5.73251 11.6589 5.60962C11.6086 5.48672 11.5343 5.37507 11.4405 5.28117C11.3466 5.18728 11.2349 5.11303 11.112 5.06275C10.9891 5.01247 10.8574 4.98717 10.7247 4.98832C10.5919 4.98947 10.4607 5.01706 10.3387 5.06947C10.2167 5.12188 10.1063 5.19806 10.0141 5.29357L6.13306 9.17257C5.38318 9.92268 4.96191 10.9399 4.96191 12.0006C4.96191 13.0612 5.38318 14.0785 6.13306 14.8286L10.0121 18.7076C10.1043 18.8031 10.2147 18.8793 10.3367 18.9317C10.4587 18.9841 10.5899 19.0117 10.7227 19.0128C10.8554 19.014 10.9871 18.9887 11.11 18.9384C11.2329 18.8881 11.3446 18.8139 11.4385 18.72C11.5323 18.6261 11.6066 18.5144 11.6569 18.3915C11.7072 18.2686 11.7325 18.1369 11.7313 18.0042C11.7302 17.8714 11.7026 17.7402 11.6502 17.6182C11.5978 17.4962 11.5216 17.3858 11.4261 17.2936L7.54706 13.4146C7.43514 13.2993 7.33745 13.1711 7.25606 13.0326L23.0001 13.0006C23.2653 13.0006 23.5196 12.8952 23.7072 12.7077C23.8947 12.5201 24.0001 12.2658 24.0001 12.0006C24.0001 11.7354 23.8947 11.481 23.7072 11.2935C23.5196 11.1059 23.2653 11.0006 23.0001 11.0006Z" fill="#374957"/>
</g>
<defs>
<clipPath id="clip0_1317_20303">
<rect width="24" height="24" fill="white"/>
</clipPath>
</defs>
</svg>
