<svg width="24" height="24" viewBox="0 0 24 24" fill="none" xmlns="http://www.w3.org/2000/svg">
<g clip-path="url(#clip0_1317_20200)">
<path d="M18.7568 15.9997C18.0681 15.9981 17.386 16.1329 16.7497 16.3964C16.1134 16.6598 15.5357 17.0467 15.0498 17.5347C13.6378 18.9548 11.9582 20.0806 10.1081 20.847C8.25802 21.6135 6.27428 22.0052 4.27175 21.9997H3.12175C2.89986 22 2.68286 21.9345 2.49823 21.8114C2.31361 21.6883 2.16967 21.5132 2.08464 21.3082C1.99962 21.1033 1.97733 20.8777 2.02061 20.6601C2.06389 20.4424 2.17078 20.2425 2.32775 20.0857L3.02075 19.3927C4.94357 19.2936 6.76107 18.4839 8.12075 17.1207L12.4468 12.7997C12.8689 12.9132 13.3021 12.9802 13.7388 12.9997C13.8248 12.9997 13.9118 12.9997 13.9998 12.9997C15.5919 12.9985 17.1187 12.3663 18.2458 11.2417L19.2458 10.2417C19.8329 9.65347 20.2917 8.94985 20.5931 8.17529C20.8944 7.40074 21.0319 6.57209 20.9968 5.74171C20.9634 4.90767 20.7548 4.09 20.3845 3.34191C20.0143 2.59382 19.4907 1.93207 18.8478 1.39971C17.6466 0.448377 16.1349 -0.0227505 14.606 0.0777737C13.077 0.178298 11.64 0.843303 10.5738 1.94371L9.94075 2.57771C9.17572 3.34 8.61844 4.28535 8.32193 5.32383C8.02542 6.36232 7.99954 7.4594 8.24675 8.51071L3.87875 12.8787C2.51483 14.2379 1.70502 16.0557 1.60675 17.9787L0.913753 18.6717C0.477165 19.1082 0.179859 19.6645 0.0594466 20.27C-0.0609658 20.8755 0.000925079 21.5032 0.23729 22.0736C0.473655 22.6439 0.873873 23.1314 1.38732 23.4742C1.90076 23.8171 2.50436 24 3.12175 23.9997H4.27175C6.53692 24.0059 8.78081 23.5627 10.8736 22.6959C12.9663 21.829 14.8664 20.5558 16.4638 18.9497C16.9172 18.4963 17.495 18.1875 18.1239 18.0623C18.7529 17.9372 19.4048 18.0013 19.9973 18.2467C20.5898 18.492 21.0963 18.9074 21.4527 19.4405C21.8091 19.9736 21.9995 20.6004 21.9998 21.2417V22.9997C21.9998 23.2649 22.1051 23.5193 22.2926 23.7068C22.4802 23.8944 22.7345 23.9997 22.9998 23.9997C23.265 23.9997 23.5193 23.8944 23.7069 23.7068C23.8944 23.5193 23.9998 23.2649 23.9998 22.9997V21.2417C23.9979 19.8518 23.4449 18.5194 22.462 17.5367C21.4791 16.5541 20.1466 16.0013 18.7568 15.9997ZM11.3568 3.98771L11.9898 3.35371C12.8111 2.52837 13.9254 2.06109 15.0898 2.05371C15.9912 2.04492 16.8666 2.35562 17.5608 2.93071C17.9902 3.28535 18.3403 3.72638 18.5882 4.22514C18.8361 4.72389 18.9763 5.26923 18.9998 5.82571C19.0228 6.37923 18.9311 6.93153 18.7302 7.44785C18.5294 7.96416 18.2238 8.43329 17.8328 8.82571L16.8328 9.82571C16.4399 10.2186 15.9694 10.5254 15.4514 10.7264C14.9334 10.9274 14.3792 11.0183 13.8241 10.9933C13.269 10.9682 12.7253 10.8278 12.2274 10.581C11.7296 10.3342 11.2887 9.98638 10.9328 9.55971C10.3008 8.7435 9.99409 7.72186 10.0721 6.69254C10.15 5.66322 10.6071 4.69942 11.3548 3.98771H11.3568ZM5.29275 14.2927L9.12875 10.4557C9.21975 10.5857 9.29275 10.7257 9.39575 10.8487C9.72768 11.2408 10.1077 11.5896 10.5268 11.8867L6.70675 15.7067C5.88459 16.5315 4.83279 17.0891 3.68875 17.3067C3.90826 16.1636 4.46724 15.1133 5.29275 14.2927Z" fill="#374957"/>
</g>
<defs>
<clipPath id="clip0_1317_20200">
<rect width="24" height="24" fill="white"/>
</clipPath>
</defs>
</svg>
