<svg width="24" height="24" viewBox="0 0 24 24" fill="none" xmlns="http://www.w3.org/2000/svg">
<g clip-path="url(#clip0_1317_20301)">
<path d="M23.4214 16.583L20.1304 13.292C20.0386 13.1943 19.9282 13.1161 19.8057 13.0619C19.6831 13.0077 19.5509 12.9788 19.4169 12.9767C19.2829 12.9746 19.1499 12.9995 19.0257 13.0498C18.9016 13.1001 18.7888 13.1749 18.694 13.2697C18.5993 13.3645 18.5246 13.4773 18.4744 13.6016C18.4241 13.7258 18.3994 13.8588 18.4015 13.9928C18.4037 14.1268 18.4328 14.259 18.487 14.3815C18.5413 14.504 18.6196 14.6144 18.7174 14.706L21.0074 17C19.7625 17.0028 18.5296 16.7566 17.3814 16.2757C16.2332 15.7948 15.1927 15.0891 14.3214 14.2C14.2246 14.1109 14.1109 14.0421 13.9871 13.9978C13.8633 13.9535 13.7318 13.9345 13.6004 13.9419C13.4691 13.9494 13.3406 13.9832 13.2226 14.0413C13.1046 14.0993 12.9994 14.1805 12.9134 14.28L12.9004 14.3C12.7322 14.4956 12.6462 14.7486 12.6602 15.0061C12.6741 15.2636 12.7871 15.5058 12.9754 15.682C14.0252 16.7437 15.277 17.5843 16.6571 18.1542C18.0371 18.7241 19.5173 19.0117 21.0104 19L18.7174 21.293C18.6129 21.3829 18.5281 21.4934 18.4683 21.6176C18.4086 21.7418 18.3751 21.877 18.3701 22.0147C18.3651 22.1524 18.3886 22.2897 18.4391 22.4179C18.4897 22.5461 18.5662 22.6625 18.6639 22.7598C18.7615 22.857 18.8782 22.933 19.0067 22.983C19.1351 23.033 19.2725 23.0559 19.4102 23.0503C19.5479 23.0447 19.6829 23.0107 19.8069 22.9504C19.9308 22.8901 20.0409 22.8049 20.1304 22.7L23.4214 19.409C23.7957 19.034 24.0059 18.5259 24.0059 17.996C24.0059 17.4662 23.7957 16.958 23.4214 16.583Z" fill="#374957"/>
<path d="M21.0068 6.99935L18.7168 9.28935C18.6973 9.31567 18.6793 9.34305 18.6628 9.37135C18.5015 9.5681 18.4219 9.81934 18.4405 10.0731C18.4592 10.3269 18.5746 10.5638 18.763 10.7349C18.9514 10.9059 19.1983 10.998 19.4527 10.9922C19.7071 10.9863 19.9495 10.8829 20.1298 10.7034L21.8358 8.99935L23.4218 7.41435C23.69 7.14411 23.8754 6.80294 23.9564 6.43095C24.0373 6.05896 24.0104 5.67158 23.8788 5.31435C23.7817 5.0409 23.6253 4.7923 23.4208 4.58635L20.1298 1.29935C20.0385 1.20016 19.9281 1.12045 19.8053 1.06502C19.6824 1.00958 19.5495 0.979569 19.4148 0.976777C19.28 0.973985 19.146 0.998473 19.021 1.04877C18.8959 1.09907 18.7823 1.17413 18.6869 1.26946C18.5916 1.36478 18.5166 1.47839 18.4663 1.60347C18.416 1.72854 18.3915 1.8625 18.3943 1.99728C18.3971 2.13206 18.4271 2.26488 18.4825 2.38776C18.5379 2.51065 18.6176 2.62106 18.7168 2.71235L21.0098 5.00435C16.0768 5.01635 13.3728 7.67835 10.9208 10.4783C8.66885 7.93635 5.99985 5.39935 1.48686 5.04535L1.00586 4.99935C0.740642 4.99935 0.486288 5.10471 0.298752 5.29224C0.111216 5.47978 0.00585938 5.73413 0.00585938 5.99935C0.0109795 6.26296 0.11798 6.51435 0.304418 6.70079C0.490856 6.88723 0.742245 6.99423 1.00586 6.99935C1.07786 6.99935 1.29286 7.03235 1.29286 7.03235C5.18885 7.32735 7.42485 9.52135 9.59985 11.9993C7.43785 14.4653 5.21685 16.6993 1.35286 16.9593L0.952858 16.9804C0.689631 16.9968 0.443717 17.1171 0.269215 17.3149C0.0947126 17.5126 0.00591595 17.7716 0.0223594 18.0348C0.0388028 18.2981 0.159139 18.544 0.356896 18.7185C0.554653 18.893 0.813631 18.9818 1.07686 18.9653C1.23286 18.9583 1.48686 18.9524 1.61186 18.9424C6.63185 18.5554 9.35485 15.3424 11.7828 12.5333C14.2348 9.69935 16.5508 7.01735 21.0068 6.99935Z" fill="#374957"/>
</g>
<defs>
<clipPath id="clip0_1317_20301">
<rect width="24" height="24" fill="white"/>
</clipPath>
</defs>
</svg>
