<svg width="24" height="24" viewBox="0 0 24 24" fill="none" xmlns="http://www.w3.org/2000/svg">
<g clip-path="url(#clip0_1317_20055)">
<path d="M18.9997 2.00002H9.95572C9.19394 1.99767 8.44182 2.1706 7.75758 2.50545C7.07333 2.84029 6.47528 3.32806 6.00972 3.93102L0.209717 11.386C0.0731628 11.5616 -0.000976562 11.7776 -0.000976562 12C-0.000976563 12.2224 0.0731628 12.4385 0.209717 12.614L6.00972 20.069C6.47528 20.672 7.07333 21.1598 7.75758 21.4946C8.44182 21.8294 9.19394 22.0024 9.95572 22H18.9997C20.3253 21.9984 21.5962 21.4711 22.5335 20.5338C23.4708 19.5965 23.9981 18.3256 23.9997 17V7.00002C23.9981 5.67443 23.4708 4.40358 22.5335 3.46624C21.5962 2.52891 20.3253 2.00161 18.9997 2.00002ZM21.9997 17C21.9997 17.7957 21.6836 18.5587 21.121 19.1213C20.5584 19.684 19.7954 20 18.9997 20H9.95572C9.49862 20.0016 9.04729 19.898 8.63667 19.6972C8.22604 19.4964 7.86713 19.2038 7.58772 18.842L2.26672 12L7.58772 5.15802C7.86713 4.79627 8.22604 4.50366 8.63667 4.30286C9.04729 4.10205 9.49862 3.99843 9.95572 4.00002H18.9997C19.7954 4.00002 20.5584 4.31609 21.121 4.8787C21.6836 5.44131 21.9997 6.20437 21.9997 7.00002V17ZM17.2067 10.207L15.4137 12L17.2067 13.793C17.3022 13.8853 17.3784 13.9956 17.4308 14.1176C17.4832 14.2396 17.5108 14.3708 17.512 14.5036C17.5131 14.6364 17.4878 14.7681 17.4375 14.891C17.3873 15.0139 17.313 15.1255 17.2191 15.2194C17.1252 15.3133 17.0136 15.3876 16.8907 15.4378C16.7678 15.4881 16.6361 15.5134 16.5033 15.5123C16.3705 15.5111 16.2393 15.4835 16.1173 15.4311C15.9953 15.3787 15.885 15.3025 15.7927 15.207L13.9997 13.414L12.2067 15.207C12.0181 15.3892 11.7655 15.49 11.5033 15.4877C11.2411 15.4854 10.9903 15.3803 10.8049 15.1948C10.6195 15.0094 10.5143 14.7586 10.512 14.4964C10.5098 14.2342 10.6106 13.9816 10.7927 13.793L12.5857 12L10.7927 10.207C10.6106 10.0184 10.5098 9.76582 10.512 9.50362C10.5143 9.24143 10.6195 8.99061 10.8049 8.80521C10.9903 8.6198 11.2411 8.51463 11.5033 8.51235C11.7655 8.51007 12.0181 8.61087 12.2067 8.79302L13.9997 10.586L15.7927 8.79302C15.9813 8.61087 16.2339 8.51007 16.4961 8.51235C16.7583 8.51463 17.0091 8.6198 17.1945 8.80521C17.3799 8.99061 17.4851 9.24143 17.4874 9.50362C17.4897 9.76582 17.3889 10.0184 17.2067 10.207Z" fill="#374957"/>
</g>
<defs>
<clipPath id="clip0_1317_20055">
<rect width="24" height="24" fill="white"/>
</clipPath>
</defs>
</svg>
