<svg width="24" height="24" viewBox="0 0 24 24" fill="none" xmlns="http://www.w3.org/2000/svg">
<path d="M17 23.0003H7.00001C5.67441 22.9987 4.40356 22.4714 3.46623 21.534C2.52889 20.5967 2.00159 19.3259 2.00001 18.0003V10.4463C1.99198 10.2946 1.95318 10.1462 1.88596 10.01C1.81874 9.87389 1.72451 9.75284 1.60901 9.65426C1.00139 9.09444 0.542306 8.39248 0.27299 7.61141C0.00367296 6.83034 -0.0674502 5.99461 0.0660064 5.17926C0.482006 2.60026 2.85001 1.00026 6.24201 1.00026H18.848C20.0517 0.988154 21.2212 1.40037 22.1512 2.16456C23.0813 2.92875 23.7125 3.99609 23.934 5.17926C24.0675 5.99532 23.9961 6.83178 23.7263 7.61342C23.4564 8.39506 22.9966 9.09739 22.388 9.65726C22.2732 9.75561 22.1797 9.87627 22.113 10.0119C22.0463 10.1475 22.0078 10.2953 22 10.4463V18.0003C21.9984 19.3259 21.4711 20.5967 20.5338 21.534C19.5964 22.4714 18.3256 22.9987 17 23.0003ZM6.24201 3.00026C3.82801 3.00026 2.29701 3.91126 2.04201 5.50026C1.9578 5.9894 1.99832 6.49188 2.15983 6.9612C2.32134 7.43052 2.59862 7.85153 2.96601 8.18526C3.2864 8.46927 3.54389 8.81711 3.72196 9.20648C3.90002 9.59585 3.99473 10.0181 4.00001 10.4463V18.0003C4.00001 18.7959 4.31608 19.559 4.87869 20.1216C5.4413 20.6842 6.20436 21.0003 7.00001 21.0003H17C17.7957 21.0003 18.5587 20.6842 19.1213 20.1216C19.6839 19.559 20 18.7959 20 18.0003V10.4463C20.0046 10.018 20.099 9.59552 20.2771 9.20605C20.4552 8.81659 20.7131 8.46883 21.034 8.18526C21.4015 7.85158 21.6789 7.43061 21.8406 6.9613C22.0023 6.49199 22.043 5.98948 21.959 5.50026C21.8168 4.78447 21.427 4.14161 20.8582 3.68447C20.2893 3.22732 19.5776 2.98509 18.848 3.00026H6.24201ZM8.00001 12.0003C7.73479 12.0003 7.48044 12.1056 7.2929 12.2932C7.10536 12.4807 7.00001 12.735 7.00001 13.0003C7.00001 13.2655 7.10536 13.5198 7.2929 13.7074C7.48044 13.8949 7.73479 14.0003 8.00001 14.0003C8.26522 14.0003 8.51958 13.8949 8.70711 13.7074C8.89465 13.5198 9.00001 13.2655 9.00001 13.0003C9.00001 12.735 8.89465 12.4807 8.70711 12.2932C8.51958 12.1056 8.26522 12.0003 8.00001 12.0003ZM12 16.0003C11.7348 16.0003 11.4804 16.1056 11.2929 16.2932C11.1054 16.4807 11 16.735 11 17.0003C11 17.2655 11.1054 17.5198 11.2929 17.7074C11.4804 17.8949 11.7348 18.0003 12 18.0003C12.2652 18.0003 12.5196 17.8949 12.7071 17.7074C12.8946 17.5198 13 17.2655 13 17.0003C13 16.735 12.8946 16.4807 12.7071 16.2932C12.5196 16.1056 12.2652 16.0003 12 16.0003ZM8.00001 16.0003C7.73479 16.0003 7.48044 16.1056 7.2929 16.2932C7.10536 16.4807 7.00001 16.735 7.00001 17.0003C7.00001 17.2655 7.10536 17.5198 7.2929 17.7074C7.48044 17.8949 7.73479 18.0003 8.00001 18.0003C8.26522 18.0003 8.51958 17.8949 8.70711 17.7074C8.89465 17.5198 9.00001 17.2655 9.00001 17.0003C9.00001 16.735 8.89465 16.4807 8.70711 16.2932C8.51958 16.1056 8.26522 16.0003 8.00001 16.0003Z" fill="#374957"/>
</svg>
