<svg width="24" height="24" viewBox="0 0 24 24" fill="none" xmlns="http://www.w3.org/2000/svg">
<g clip-path="url(#clip0_1317_20398)">
<path d="M22.9999 21.0002H21.7209L20.3999 17.0512C20.201 16.4547 19.8197 15.9358 19.31 15.5678C18.8002 15.1998 18.1877 15.0012 17.5589 15.0002H13.9999C13.4695 15.0002 12.9608 14.7895 12.5857 14.4144C12.2106 14.0393 11.9999 13.5306 11.9999 13.0002H17.9999C18.2651 13.0002 18.5195 12.8948 18.707 12.7073C18.8945 12.5198 18.9999 12.2654 18.9999 12.0002C18.9999 11.735 18.8945 11.4806 18.707 11.2931C18.5195 11.1055 18.2651 11.0002 17.9999 11.0002H11.9999V8.00018C11.9939 7.95497 11.9849 7.9102 11.9729 7.86618C12.9196 7.62878 13.7468 7.05346 14.2987 6.24857C14.8507 5.44368 15.0894 4.46475 14.9698 3.49613C14.8502 2.52752 14.3805 1.63605 13.6494 0.989598C12.9182 0.343149 11.9759 -0.0136719 10.9999 -0.0136719C10.0239 -0.0136719 9.08163 0.343149 8.35045 0.989598C7.61927 1.63605 7.14966 2.52752 7.03005 3.49613C6.91045 4.46475 7.1491 5.44368 7.70107 6.24857C8.25305 7.05346 9.08025 7.62878 10.0269 7.86618C10.0149 7.9102 10.0059 7.95497 9.9999 8.00018V13.0002C10.002 14.0442 10.4122 15.0461 11.143 15.7918C11.8737 16.5375 12.8671 16.968 13.9109 16.9912C13.7281 18.0841 13.2463 19.105 12.5187 19.9409C11.7912 20.7767 10.8464 21.3947 9.78916 21.7264C8.73188 22.0581 7.6034 22.0905 6.52881 21.8201C5.45423 21.5497 4.47552 20.9869 3.70118 20.1943C2.92685 19.4017 2.38714 18.4101 2.14189 17.3295C1.89664 16.2489 1.95543 15.1214 2.31173 14.0722C2.66804 13.023 3.30795 12.0929 4.16052 11.3851C5.01309 10.6773 6.04502 10.2194 7.1419 10.0622C7.4046 10.0245 7.64158 9.88405 7.8007 9.67166C7.95983 9.45928 8.02806 9.19238 7.9904 8.92968C7.95274 8.66699 7.81227 8.43001 7.59988 8.27088C7.3875 8.11176 7.1206 8.04352 6.8579 8.08118C5.38187 8.29288 3.99438 8.91289 2.852 9.87125C1.70962 10.8296 0.857828 12.0882 0.392739 13.5049C-0.0723496 14.9217 -0.132221 16.4402 0.219881 17.8892C0.571984 19.3382 1.32204 20.6599 2.38542 21.7052C3.4488 22.7505 4.78317 23.4779 6.23796 23.8051C7.69274 24.1324 9.21003 24.0465 10.6186 23.5572C12.0272 23.068 13.271 22.1948 14.2097 21.0361C15.1483 19.8775 15.7445 18.4796 15.9309 17.0002H17.5589C17.7689 17.0001 17.9735 17.0662 18.1439 17.1889C18.3142 17.3117 18.4416 17.485 18.5079 17.6842L20.0519 22.3162C20.1182 22.5152 20.2454 22.6884 20.4155 22.8111C20.5857 22.9339 20.7901 23 20.9999 23.0002H22.9999C23.2651 23.0002 23.5195 22.8948 23.707 22.7073C23.8946 22.5198 23.9999 22.2654 23.9999 22.0002C23.9999 21.735 23.8946 21.4806 23.707 21.2931C23.5195 21.1055 23.2651 21.0002 22.9999 21.0002ZM8.9999 4.00018C8.9999 3.60462 9.1172 3.21794 9.33696 2.88904C9.55673 2.56014 9.86909 2.3038 10.2345 2.15242C10.6 2.00105 11.0021 1.96144 11.3901 2.03861C11.778 2.11578 12.1344 2.30626 12.4141 2.58597C12.6938 2.86567 12.8843 3.22204 12.9615 3.61C13.0386 3.99796 12.999 4.4001 12.8477 4.76555C12.6963 5.131 12.4399 5.44336 12.111 5.66312C11.7821 5.88288 11.3955 6.00018 10.9999 6.00018C10.4695 6.00018 9.96076 5.78947 9.58569 5.4144C9.21062 5.03932 8.9999 4.53062 8.9999 4.00018Z" fill="#374957"/>
</g>
<defs>
<clipPath id="clip0_1317_20398">
<rect width="24" height="24" fill="white"/>
</clipPath>
</defs>
</svg>
