<svg width="24" height="24" viewBox="0 0 24 24" fill="none" xmlns="http://www.w3.org/2000/svg">
<g clip-path="url(#clip0_1317_19947)">
<path d="M18.8482 11.53C19.5073 10.4632 19.8949 9.25123 19.9772 8C19.9772 7.73478 19.8718 7.48043 19.6843 7.29289C19.4968 7.10536 19.2424 7 18.9772 7C18.712 7 18.4576 7.10536 18.2701 7.29289C18.0825 7.48043 17.9772 7.73478 17.9772 8C17.896 8.87587 17.6137 9.72117 17.1522 10.47C17.0826 10.5816 17.0357 10.7059 17.0141 10.8356C16.9925 10.9654 16.9967 11.0981 17.0264 11.2263C17.0561 11.3544 17.1108 11.4754 17.1873 11.5825C17.2637 11.6895 17.3606 11.7804 17.4722 11.85C17.5838 11.9196 17.7081 11.9665 17.8378 11.9881C17.9676 12.0097 18.1003 12.0055 18.2285 11.9758C18.4873 11.9158 18.7116 11.7554 18.8522 11.53H18.8482Z" fill="#374957"/>
<path d="M8.9767 7C8.71148 7 8.45713 7.10536 8.26959 7.29289C8.08206 7.48043 7.9767 7.73478 7.9767 8C7.89555 8.87587 7.61322 9.72117 7.1517 10.47C7.01114 10.6954 6.96588 10.9675 7.02589 11.2263C7.08591 11.4851 7.24627 11.7094 7.4717 11.85C7.69713 11.9906 7.96917 12.0358 8.22797 11.9758C8.48677 11.9158 8.71113 11.7554 8.8517 11.53C9.50937 10.4629 9.89563 9.25089 9.9767 8C9.9767 7.73478 9.87134 7.48043 9.6838 7.29289C9.49627 7.10536 9.24191 7 8.9767 7Z" fill="#374957"/>
<path d="M19.5 18.5887C18.818 18.2267 18.114 17.8517 18.016 17.4267C17.97 17.2337 17.991 16.7987 18.531 15.9537C21.7 15.4997 24 11.0247 24 6.99967C24.0279 6.20421 23.8919 5.41152 23.6002 4.67092C23.3086 3.93033 22.8676 3.25769 22.3048 2.69487C21.742 2.13205 21.0693 1.6911 20.3287 1.39946C19.5882 1.10782 18.7955 0.971729 18 0.999666C17.033 0.97318 16.0745 1.18642 15.2099 1.62036C14.3453 2.0543 13.6016 2.69546 13.045 3.48667C12.2732 2.1551 11.0837 1.1153 9.6609 0.528427C8.2381 -0.0584447 6.66145 -0.159614 5.17532 0.240601C3.68918 0.640815 2.37656 1.52006 1.44089 2.74207C0.505216 3.96407 -0.00124407 5.46059 2.2949e-06 6.99967C2.2949e-06 10.9707 2.257 15.4847 5.39 16.6847C5.17323 17.0456 5.03997 17.4505 5 17.8697C5 19.4407 6.489 20.1367 7.576 20.6457C8.176 20.9257 9 21.3107 9 21.6087C8.91854 21.9192 8.77272 22.2091 8.572 22.4597C8.50109 22.5702 8.45265 22.6937 8.42945 22.823C8.40625 22.9523 8.40874 23.0849 8.43678 23.2132C8.46482 23.3415 8.51787 23.4631 8.59289 23.5709C8.66791 23.6788 8.76343 23.7708 8.874 23.8417C9.09731 23.9849 9.36837 24.0335 9.62755 23.9769C9.75588 23.9488 9.87743 23.8958 9.98526 23.8208C10.0931 23.7458 10.1851 23.6502 10.256 23.5397C10.6804 22.9787 10.9383 22.3094 11 21.6087C11 20.0377 9.511 19.3417 8.424 18.8337C7.824 18.5527 7 18.1677 6.991 17.9687C7.14303 17.6105 7.33348 17.2698 7.559 16.9527C9.911 16.6467 11.89 14.4527 13.011 11.7527C13.6406 13.42 14.8532 14.8027 16.424 15.6447C16.0514 16.3275 15.9257 17.1179 16.068 17.8827C16.374 19.1927 17.587 19.8377 18.562 20.3567C19.178 20.6847 19.875 21.0567 19.981 21.4247C20.0073 21.81 19.8956 22.1921 19.666 22.5027C19.5993 22.6164 19.5558 22.7423 19.5379 22.8729C19.52 23.0036 19.5282 23.1365 19.5619 23.264C19.5956 23.3915 19.6542 23.5111 19.7343 23.6158C19.8144 23.7206 19.9145 23.8085 20.0287 23.8744C20.1429 23.9404 20.269 23.9831 20.3998 24.0001C20.5306 24.0171 20.6634 24.008 20.7907 23.9735C20.918 23.9389 21.0371 23.8795 21.1414 23.7987C21.2456 23.7179 21.3328 23.6173 21.398 23.5027C21.6594 23.1236 21.8394 22.6944 21.9265 22.2422C22.0136 21.7901 22.0059 21.3247 21.904 20.8757C21.6813 20.3501 21.3531 19.8759 20.9395 19.4825C20.526 19.0891 20.036 18.7849 19.5 18.5887ZM7 14.9997C4.354 14.9997 2 10.5257 2 6.99967C2 5.67358 2.52679 4.40181 3.46447 3.46413C4.40215 2.52645 5.67392 1.99967 7 1.99967C8.32609 1.99967 9.59785 2.52645 10.5355 3.46413C11.4732 4.40181 12 5.67358 12 6.99967C12 10.5257 9.646 14.9997 7 14.9997ZM14 6.99967C13.9699 6.46648 14.0527 5.93294 14.243 5.43398C14.4334 4.93502 14.727 4.48189 15.1046 4.10427C15.4822 3.72665 15.9354 3.43305 16.4343 3.24269C16.9333 3.05234 17.4668 2.96952 18 2.99967C18.5332 2.96952 19.0667 3.05234 19.5657 3.24269C20.0646 3.43305 20.5178 3.72665 20.8954 4.10427C21.273 4.48189 21.5666 4.93502 21.757 5.43398C21.9473 5.93294 22.0301 6.46648 22 6.99967C22 10.3997 19.944 13.9997 18 13.9997C16.056 13.9997 14 10.3997 14 6.99967Z" fill="#374957"/>
</g>
<defs>
<clipPath id="clip0_1317_19947">
<rect width="24" height="24" fill="white"/>
</clipPath>
</defs>
</svg>
