<svg width="24" height="24" viewBox="0 0 24 24" fill="none" xmlns="http://www.w3.org/2000/svg">
<g clip-path="url(#clip0_1317_19928)">
<path d="M17.2459 6.19228C18.2398 5.10403 18.8499 3.72013 18.9829 2.25227C19.0214 1.94959 18.9902 1.6421 18.8916 1.35335C18.793 1.06459 18.6297 0.802217 18.414 0.586316C18.1984 0.370415 17.9363 0.20671 17.6477 0.107731C17.359 0.00875248 17.0516 -0.022875 16.7489 0.0152698C15.8384 0.0867716 14.9543 0.354802 14.1574 0.800895C13.3605 1.24699 12.6698 1.86054 12.1329 2.59927C11.7929 1.74864 11.3122 0.961306 10.7109 0.27027C10.5243 0.0852988 10.2724 -0.0188025 10.0096 -0.0195274C9.74687 -0.0202523 9.4944 0.0824575 9.30678 0.266396C9.11917 0.450335 9.01148 0.700724 9.007 0.963429C9.00252 1.22613 9.10162 1.48005 9.28286 1.67027C10.2742 2.9047 10.8543 4.41847 10.9419 5.99928H8.49986C6.18076 6.07015 3.98422 7.05701 2.39113 8.74381C0.798036 10.4306 -0.0618024 12.6799 -0.000142817 14.9993C-0.161143 20.5993 5.64386 25.7723 10.7499 23.3843C11.1398 23.1363 11.5931 23.0062 12.0552 23.0096C12.5173 23.013 12.9686 23.1497 13.3549 23.4033C14.0077 23.7807 14.7459 23.9858 15.4999 23.9993C25.7639 23.7153 27.0659 8.58128 17.2459 6.19228ZM14.2229 3.16727C14.9985 2.48897 15.9725 2.07931 16.9999 1.99927C16.9179 3.02443 16.5088 3.99615 15.8329 4.77128C15.0565 5.44916 14.0824 5.85875 13.0549 5.93928C13.1361 4.91374 13.5457 3.94169 14.2229 3.16727ZM15.4999 21.9993C15.0592 21.9824 14.6305 21.8511 14.2559 21.6183C13.5694 21.2218 12.7925 21.0087 11.9999 20.9993C11.2494 21.0167 10.515 21.2205 9.86286 21.5923C6.00486 23.2603 1.89986 19.1403 1.99986 14.9993C1.93819 13.2103 2.58733 11.4697 3.80536 10.158C5.02339 8.84624 6.71122 8.07012 8.49986 7.99928H15.4999C24.0999 8.32028 24.0999 21.6813 15.4999 21.9993Z" fill="#374957"/>
</g>
<defs>
<clipPath id="clip0_1317_19928">
<rect width="24" height="24" fill="white"/>
</clipPath>
</defs>
</svg>
