<svg width="24" height="24" viewBox="0 0 24 24" fill="none" xmlns="http://www.w3.org/2000/svg">
<g clip-path="url(#clip0_1317_20403)">
<path d="M22.6098 0.208546C22.3998 0.047475 22.1346 -0.0238123 21.8722 0.0103013C21.6097 0.044415 21.3715 0.181148 21.2098 0.390546L11.9998 12.3605L2.79175 0.390546C2.62742 0.187968 2.39044 0.0576179 2.13136 0.0273024C1.87228 -0.00301314 1.6116 0.0691054 1.40495 0.228274C1.19829 0.387443 1.062 0.621062 1.02516 0.879296C0.988324 1.13753 1.05385 1.39994 1.20775 1.61055L10.7378 14.0005H5.99975C5.73454 14.0005 5.48018 14.1059 5.29265 14.2934C5.10511 14.481 4.99975 14.7353 4.99975 15.0005C4.99975 15.2658 5.10511 15.5201 5.29265 15.7077C5.48018 15.8952 5.73454 16.0005 5.99975 16.0005H10.9998V18.0005H5.99975C5.73454 18.0005 5.48018 18.1059 5.29265 18.2934C5.10511 18.481 4.99975 18.7353 4.99975 19.0005C4.99975 19.2658 5.10511 19.5201 5.29265 19.7077C5.48018 19.8952 5.73454 20.0005 5.99975 20.0005H10.9998V23.0005C10.9998 23.2658 11.1051 23.5201 11.2926 23.7077C11.4802 23.8952 11.7345 24.0005 11.9998 24.0005C12.265 24.0005 12.5193 23.8952 12.7069 23.7077C12.8944 23.5201 12.9998 23.2658 12.9998 23.0005V20.0005H17.9998C18.265 20.0005 18.5193 19.8952 18.7069 19.7077C18.8944 19.5201 18.9998 19.2658 18.9998 19.0005C18.9998 18.7353 18.8944 18.481 18.7069 18.2934C18.5193 18.1059 18.265 18.0005 17.9998 18.0005H12.9998V16.0005H17.9998C18.265 16.0005 18.5193 15.8952 18.7069 15.7077C18.8944 15.5201 18.9998 15.2658 18.9998 15.0005C18.9998 14.7353 18.8944 14.481 18.7069 14.2934C18.5193 14.1059 18.265 14.0005 17.9998 14.0005H13.2618L22.7918 1.61055C22.9535 1.40046 23.0251 1.13477 22.991 0.87187C22.9569 0.608969 22.8197 0.370379 22.6098 0.208546Z" fill="#374957"/>
</g>
<defs>
<clipPath id="clip0_1317_20403">
<rect width="24" height="24" fill="white"/>
</clipPath>
</defs>
</svg>
