<svg width="24" height="24" viewBox="0 0 24 24" fill="none" xmlns="http://www.w3.org/2000/svg">
<g clip-path="url(#clip0_1317_20012)">
<path d="M11.6922 22.9989C11.2981 22.9999 10.9077 22.9227 10.5436 22.7718C10.1795 22.621 9.84901 22.3994 9.57116 22.1199L6.18416 18.6989C6.07747 18.6095 5.99062 18.4988 5.92916 18.3739C5.86771 18.249 5.83301 18.1126 5.82729 17.9735C5.82157 17.8344 5.84495 17.6957 5.89593 17.5662C5.94692 17.4366 6.02438 17.3192 6.12337 17.2213C6.22236 17.1234 6.34069 17.0473 6.47079 16.9978C6.60089 16.9483 6.7399 16.9265 6.87891 16.9338C7.01792 16.9411 7.15387 16.9773 7.27807 17.0402C7.40227 17.1031 7.51197 17.1912 7.60016 17.2989L10.9842 20.7129C11.1746 20.8936 11.4271 20.9943 11.6897 20.9943C11.9522 20.9943 12.2047 20.8936 12.3952 20.7129L17.8092 15.2989C17.9967 15.1112 18.251 15.0058 18.5163 15.0057C18.7816 15.0056 19.036 15.1109 19.2237 15.2984C19.4113 15.4859 19.5168 15.7403 19.5169 16.0055C19.517 16.2708 19.4117 16.5252 19.2242 16.7129L13.8092 22.1269C13.5313 22.4048 13.2012 22.6249 12.8379 22.7746C12.4745 22.9243 12.0851 23.0005 11.6922 22.9989ZM7.00016 21.9989C7.00016 21.7337 6.8948 21.4793 6.70727 21.2918C6.51973 21.1042 6.26538 20.9989 6.00016 20.9989H5.68316C4.82912 20.9825 4.00536 20.6796 3.34415 20.1388C2.68294 19.598 2.22264 18.8507 2.03716 18.0169C1.9285 17.3003 2.04707 16.5677 2.3762 15.922C2.70533 15.2763 3.22848 14.75 3.87216 14.4169C4.33065 14.1631 4.67079 13.739 4.81901 13.2363C4.96722 12.7336 4.9116 12.1928 4.66416 11.7309C4.27587 10.9903 4.04665 10.1768 3.99122 9.34247C3.93578 8.50813 4.05535 7.67143 4.34224 6.88601C4.62914 6.1006 5.07704 5.38383 5.6572 4.78167C6.23737 4.17951 6.93699 3.70527 7.71119 3.38936C8.48539 3.07345 9.31707 2.92285 10.1529 2.94722C10.9887 2.97159 11.8102 3.17039 12.5647 3.53088C13.3192 3.89136 13.99 4.40556 14.534 5.0405C15.0781 5.67543 15.4835 6.41709 15.7242 7.21788C15.8719 7.70066 16.1354 8.14004 16.4916 8.49784C16.8478 8.85563 17.286 9.121 17.7682 9.27088C19.0748 9.66822 20.2058 10.5015 20.9724 11.6317C21.7391 12.762 22.0951 14.1209 21.9812 15.4819C21.866 16.6639 21.3935 17.7828 20.6266 18.6897C19.8597 19.5965 18.8347 20.2481 17.6882 20.5579C17.4393 20.6431 17.234 20.8229 17.1168 21.0584C16.9996 21.2939 16.9799 21.5661 17.062 21.816C17.144 22.0659 17.3213 22.2734 17.5553 22.3936C17.7893 22.5137 18.0612 22.5368 18.3122 22.4579C19.9509 21.9902 21.3932 21.0026 22.4216 19.6437C23.45 18.2849 24.0088 16.6286 24.0138 14.9244C24.0188 13.2203 23.4696 11.5607 22.4491 10.1959C21.4286 8.83113 19.9921 7.83506 18.3562 7.35788C18.1845 7.3044 18.0288 7.20931 17.9028 7.08107C17.7769 6.95283 17.6846 6.79543 17.6342 6.62288C17.105 4.9225 16.0236 3.44728 14.5614 2.43092C13.0991 1.41455 11.3395 0.91514 9.56127 1.0118C7.78308 1.10846 6.08798 1.79566 4.74448 2.96454C3.40097 4.13342 2.48588 5.71716 2.14416 7.46488C1.79271 9.23188 2.07601 11.0662 2.94416 12.6449C1.93193 13.1668 1.10891 13.9931 0.590995 15.0074C0.0730838 16.0217 -0.113625 17.1729 0.0571606 18.2989C0.317812 19.6067 1.01797 20.786 2.04138 21.641C3.06478 22.4959 4.34984 22.9751 5.68316 22.9989H6.00016C6.26538 22.9989 6.51973 22.8935 6.70727 22.706C6.8948 22.5185 7.00016 22.2641 7.00016 21.9989Z" fill="#374957"/>
</g>
<defs>
<clipPath id="clip0_1317_20012">
<rect width="24" height="24" fill="white"/>
</clipPath>
</defs>
</svg>
