<svg width="24" height="24" viewBox="0 0 24 24" fill="none" xmlns="http://www.w3.org/2000/svg">
<g clip-path="url(#clip0_1317_20024)">
<path d="M13.5001 6.49931C13.5001 6.89714 13.342 7.27867 13.0607 7.55997C12.7794 7.84128 12.3979 7.99931 12.0001 7.99931C11.6022 7.99931 11.2207 7.84128 10.9394 7.55997C10.6581 7.27867 10.5001 6.89714 10.5001 6.49931C10.5001 6.10149 10.6581 5.71995 10.9394 5.43865C11.2207 5.15735 11.6022 4.99931 12.0001 4.99931C12.3979 4.99931 12.7794 5.15735 13.0607 5.43865C13.342 5.71995 13.5001 6.10149 13.5001 6.49931ZM24.0001 18.9993V12.3393C24.0374 9.25676 22.9072 6.2742 20.8364 3.99048C18.7656 1.70676 15.9075 0.290948 12.8361 0.0273102C11.1217 -0.0926321 9.40159 0.15705 7.79209 0.759463C6.18259 1.36188 4.72126 2.30297 3.50697 3.51906C2.29268 4.73515 1.35375 6.19788 0.753728 7.80827C0.153701 9.41866 -0.0934304 11.1391 0.0290532 12.8533C0.471053 19.2073 6.08205 23.9993 13.0831 23.9993H19.0001C20.3257 23.9977 21.5965 23.4704 22.5338 22.5331C23.4712 21.5958 23.9985 20.3249 24.0001 18.9993ZM12.7001 2.02331C15.2665 2.25035 17.652 3.44022 19.3771 5.35386C21.1023 7.26751 22.0394 9.76313 22.0001 12.3393V18.9993C22.0001 19.795 21.684 20.558 21.1214 21.1206C20.5588 21.6832 19.7957 21.9993 19.0001 21.9993H13.0831C7.04905 21.9993 2.40005 18.0993 2.02505 12.7153C1.92661 11.3439 2.11203 9.96691 2.56974 8.67038C3.02745 7.37385 3.74761 6.18564 4.68523 5.17998C5.62285 4.17432 6.75778 3.37282 8.01912 2.82556C9.28046 2.27829 10.6411 1.99702 12.0161 1.99931C12.2431 1.99931 12.4721 2.00831 12.7001 2.02331ZM14.0001 17.9993V11.9993C14.0001 11.4689 13.7893 10.9602 13.4143 10.5851C13.0392 10.21 12.5305 9.99931 12.0001 9.99931H11.0001C10.7348 9.99931 10.4805 10.1047 10.2929 10.2922C10.1054 10.4797 10.0001 10.7341 10.0001 10.9993C10.0001 11.2645 10.1054 11.5189 10.2929 11.7064C10.4805 11.894 10.7348 11.9993 11.0001 11.9993H12.0001V17.9993C12.0001 18.2645 12.1054 18.5189 12.2929 18.7064C12.4805 18.894 12.7348 18.9993 13.0001 18.9993C13.2653 18.9993 13.5196 18.894 13.7072 18.7064C13.8947 18.5189 14.0001 18.2645 14.0001 17.9993Z" fill="#374957"/>
</g>
<defs>
<clipPath id="clip0_1317_20024">
<rect width="24" height="24" fill="white"/>
</clipPath>
</defs>
</svg>
