<svg width="24" height="24" viewBox="0 0 24 24" fill="none" xmlns="http://www.w3.org/2000/svg">
<g clip-path="url(#clip0_1317_20039)">
<path d="M22.3752 3.7848C20.8793 2.93331 19.2339 2.37691 17.5282 2.1458C17.27 1.64888 16.9106 1.2115 16.4732 0.861799C16.0022 0.487228 15.452 0.22477 14.8645 0.0943079C14.277 -0.0361541 13.6675 -0.0311986 13.0822 0.108799C11.8312 0.424472 10.6179 0.874069 9.46321 1.4498C8.64353 1.06008 7.72799 0.917879 6.82871 1.04061C5.92944 1.16335 5.08548 1.54568 4.40021 2.1408C4.03321 2.4558 3.66421 2.7848 3.30021 3.1238C2.91821 3.4828 2.52921 3.8908 2.14121 4.3338C1.65505 4.88961 1.3081 5.55311 1.129 6.2695C0.949905 6.98588 0.943807 7.73459 1.11121 8.4538C1.18849 8.7933 1.30285 9.12328 1.45221 9.4378C0.872574 10.6006 0.419316 11.8223 0.100211 13.0818C-0.040387 13.6671 -0.0456438 14.2767 0.0848403 14.8643C0.215324 15.4519 0.478112 16.002 0.853211 16.4728C1.20655 16.9148 1.64964 17.2767 2.15321 17.5348C2.38493 19.238 2.94096 20.881 3.79121 22.3748C4.1211 22.9674 4.63246 23.4385 5.25009 23.7188C5.86771 23.9991 6.55898 24.0737 7.22221 23.9318C7.90826 23.7959 8.53241 23.443 9.00241 22.9251C9.47242 22.4071 9.76335 21.7518 9.83221 21.0558C10.0189 19.7684 10.3572 18.5077 10.8402 17.2998C10.8402 17.2998 11.3852 16.9638 11.6342 16.7608C12.2338 16.2579 12.6593 15.5787 12.8502 14.8198C13.3125 14.6667 13.7329 14.4083 14.0782 14.0648C14.4145 13.7225 14.6689 13.3085 14.8222 12.8538C15.5785 12.6619 16.2551 12.2368 16.7562 11.6388C16.9562 11.3898 17.2962 10.8438 17.2962 10.8438C18.5014 10.3478 19.7649 10.0074 21.0562 9.8308C21.7522 9.76194 22.4076 9.471 22.9255 9.001C23.4434 8.531 23.7963 7.90685 23.9322 7.2208C24.0765 6.5568 24.0029 5.86399 23.7224 5.24508C23.442 4.62617 22.9696 4.11411 22.3752 3.7848ZM7.83921 20.8328C7.81514 21.1086 7.70188 21.3691 7.51658 21.5748C7.33128 21.7804 7.08401 21.9202 6.81221 21.9728C6.5621 22.0297 6.30021 22.0028 6.06691 21.8962C5.83362 21.7896 5.64186 21.6092 5.52121 21.3828C4.91981 20.3295 4.48882 19.1878 4.24421 17.9998H8.14421C8.25321 17.9998 8.35921 17.9778 8.46721 17.9718C8.18121 18.8548 7.83921 20.8288 7.83921 20.8328ZM10.3692 15.2068C9.74135 15.7187 8.95632 15.9988 8.14621 15.9998H4.00021C3.69602 16.0005 3.39568 15.9317 3.12206 15.7988C2.84844 15.6659 2.60875 15.4723 2.42121 15.2328C2.23415 14.9984 2.10297 14.7245 2.03765 14.4318C1.97232 14.1392 1.97457 13.8355 2.04421 13.5438C2.24441 12.7365 2.51202 11.9474 2.84421 11.1848C3.15293 11.4264 3.49094 11.628 3.85021 11.7848L10.5272 14.7088C10.5892 14.7378 10.6552 14.7488 10.7182 14.7728C10.6287 14.9371 10.5105 15.0841 10.3692 15.2068ZM12.6542 12.6548C12.4871 12.8242 12.2716 12.9377 12.0374 12.9796C11.8031 13.0215 11.5617 12.9898 11.3462 12.8888L4.65321 9.9578C4.25415 9.78296 3.90234 9.5158 3.62677 9.17833C3.3512 8.84087 3.15976 8.44276 3.06821 8.0168C2.97116 7.6039 2.97368 7.17384 3.07557 6.76211C3.17746 6.35038 3.37579 5.96878 3.65421 5.6488C4.00021 5.2548 4.34221 4.8948 4.67721 4.5798C5.01221 4.2648 5.35921 3.9548 5.70421 3.6598C6.0226 3.3827 6.40183 3.18457 6.81113 3.08148C7.22043 2.97839 7.64827 2.97325 8.05993 3.06647C8.47159 3.15969 8.85548 3.34865 9.18043 3.61802C9.50539 3.88739 9.76227 4.22957 9.93021 4.6168L12.8942 11.3068C12.9934 11.5298 13.0235 11.7773 12.9807 12.0176C12.938 12.2578 12.8242 12.4798 12.6542 12.6548ZM16.0002 8.1458C15.9995 8.9558 15.7198 9.74084 15.2082 10.3688C15.0913 10.5042 14.9524 10.6188 14.7972 10.7078C14.7712 10.6378 14.7522 10.5658 14.7222 10.4968L11.7592 3.8078C11.6094 3.46819 11.4208 3.14705 11.1972 2.8508C11.956 2.51945 12.741 2.25186 13.5442 2.0508C13.8359 1.98101 14.1396 1.97869 14.4323 2.04402C14.725 2.10935 14.9989 2.24061 15.2332 2.4278C15.4733 2.61575 15.6672 2.85609 15.8001 3.13045C15.933 3.40481 16.0015 3.70593 16.0002 4.0108V8.1458ZM21.9732 6.8118C21.9206 7.0836 21.7809 7.33086 21.5752 7.51617C21.3695 7.70147 21.109 7.81473 20.8332 7.8388C20.8332 7.8388 18.8552 8.1808 17.9722 8.4688C17.9792 8.3608 18.0002 8.2548 18.0002 8.1458V4.2458C19.1882 4.4904 20.3299 4.9214 21.3832 5.5228C21.6088 5.64374 21.7887 5.83522 21.8952 6.06798C22.0017 6.30075 22.0291 6.56199 21.9732 6.8118Z" fill="#374957"/>
</g>
<defs>
<clipPath id="clip0_1317_20039">
<rect width="24" height="24" fill="white"/>
</clipPath>
</defs>
</svg>
