<svg width="24" height="24" viewBox="0 0 24 24" fill="none" xmlns="http://www.w3.org/2000/svg">
<path d="M22.0996 1.90083C18.6636 -1.53017 9.37163 -0.0661712 4.65163 4.65283C-0.0683732 9.37183 -1.53137 18.6648 1.89963 22.1008C3.50622 23.4502 5.57343 24.1241 7.66663 23.9808C12.0007 23.9425 16.1651 22.2912 19.3476 19.3488C24.0656 14.6298 25.5306 5.33683 22.0996 1.90083ZM16.3326 2.00083C17.8967 1.87548 19.4504 2.34471 20.6836 3.31483C21.6996 4.33183 22.1106 6.30083 21.9586 8.54583L15.4586 2.04583C15.7536 2.02683 16.0496 2.00083 16.3326 2.00083ZM3.31563 20.6848C2.29963 19.6698 1.88863 17.7008 2.04063 15.4558L8.54063 21.9558C6.29963 22.1108 4.33063 21.7008 3.31563 20.6848ZM17.9336 17.9348C15.9978 19.7588 13.6029 21.0228 11.0046 21.5918L2.40463 12.9918C2.97492 10.3944 4.24035 8.00079 6.06563 6.06683C8.00465 4.24341 10.4039 2.98291 13.0056 2.42083L21.5916 11.0068C21.0227 13.605 19.7583 15.9997 17.9336 17.9348ZM17.7066 11.7078C17.5191 11.8953 17.2648 12.0006 16.9996 12.0006C16.7345 12.0006 16.4802 11.8953 16.2926 11.7078L14.9996 10.4148L13.4136 12.0008L14.7066 13.2938C14.8021 13.3861 14.8783 13.4964 14.9307 13.6184C14.9831 13.7404 15.0107 13.8717 15.0119 14.0044C15.013 14.1372 14.9877 14.2689 14.9374 14.3918C14.8872 14.5147 14.8129 14.6263 14.719 14.7202C14.6251 14.8141 14.5135 14.8884 14.3906 14.9387C14.2677 14.9889 14.136 15.0142 14.0032 15.0131C13.8704 15.0119 13.7392 14.9843 13.6172 14.9319C13.4952 14.8795 13.3849 14.8033 13.2926 14.7078L11.9996 13.4148L10.4136 15.0008L11.7066 16.2938C11.8021 16.3861 11.8783 16.4964 11.9307 16.6184C11.9831 16.7404 12.0107 16.8716 12.0119 17.0044C12.013 17.1372 11.9877 17.2689 11.9374 17.3918C11.8872 17.5147 11.8129 17.6263 11.719 17.7202C11.6251 17.8141 11.5135 17.8884 11.3906 17.9387C11.2677 17.9889 11.136 18.0142 11.0032 18.0131C10.8704 18.0119 10.7392 17.9843 10.6172 17.9319C10.4952 17.8795 10.3849 17.8033 10.2926 17.7078L6.29263 13.7078C6.11047 13.5192 6.00967 13.2666 6.01195 13.0044C6.01423 12.7422 6.1194 12.4914 6.30481 12.306C6.49022 12.1206 6.74103 12.0154 7.00323 12.0132C7.26542 12.0109 7.51802 12.1117 7.70663 12.2938L8.99963 13.5868L10.5856 12.0008L9.29263 10.7078C9.11047 10.5192 9.00967 10.2666 9.01195 10.0044C9.01423 9.74223 9.1194 9.49142 9.30481 9.30601C9.49022 9.1206 9.74103 9.01543 10.0032 9.01316C10.2654 9.01088 10.518 9.11167 10.7066 9.29383L11.9996 10.5868L13.5856 9.00083L12.2926 7.70783C12.1105 7.51923 12.0097 7.26662 12.012 7.00443C12.0142 6.74223 12.1194 6.49142 12.3048 6.30601C12.4902 6.1206 12.741 6.01543 13.0032 6.01315C13.2654 6.01088 13.518 6.11167 13.7066 6.29383L17.7066 10.2938C17.8941 10.4814 17.9994 10.7357 17.9994 11.0008C17.9994 11.266 17.8941 11.5203 17.7066 11.7078Z" fill="#374957"/>
</svg>
