<svg width="24" height="24" viewBox="0 0 24 24" fill="none" xmlns="http://www.w3.org/2000/svg">
<path d="M19.9809 7.02349V1.02349C19.9809 0.758273 20.0863 0.503919 20.2738 0.316382C20.4614 0.128846 20.7157 0.023489 20.9809 0.023489C21.2462 0.023489 21.5005 0.128846 21.688 0.316382C21.8756 0.503919 21.9809 0.758273 21.9809 1.02349V7.02349C21.9809 7.28871 21.8756 7.54306 21.688 7.7306C21.5005 7.91813 21.2462 8.02349 20.9809 8.02349C20.7157 8.02349 20.4614 7.91813 20.2738 7.7306C20.0863 7.54306 19.9809 7.28871 19.9809 7.02349ZM16.9809 8.02349C17.2462 8.02349 17.5005 7.91813 17.688 7.7306C17.8756 7.54306 17.9809 7.28871 17.9809 7.02349V1.02349C17.9809 0.758273 17.8756 0.503919 17.688 0.316382C17.5005 0.128846 17.2462 0.023489 16.9809 0.023489C16.7157 0.023489 16.4614 0.128846 16.2738 0.316382C16.0863 0.503919 15.9809 0.758273 15.9809 1.02349V7.02349C15.9809 7.28871 16.0863 7.54306 16.2738 7.7306C16.4614 7.91813 16.7157 8.02349 16.9809 8.02349ZM23.0759 21.1395L22.1639 22.1895C13.9739 30.0295 -5.95606 10.1055 1.76394 1.88949L2.91394 0.889489C3.49576 0.325753 4.27626 0.0139486 5.08636 0.0216227C5.89645 0.0292969 6.67091 0.355832 7.24194 0.930489C7.27294 0.960489 9.12394 3.36749 9.12394 3.36749C9.67375 3.94481 9.98 4.71176 9.97907 5.50899C9.97814 6.30623 9.67009 7.07246 9.11894 7.64849L7.95894 9.10049C8.59978 10.658 9.54208 12.0735 10.7317 13.2657C11.9213 14.4579 13.3348 15.4033 14.8909 16.0475L16.3549 14.8825C16.9308 14.3308 17.6971 14.0222 18.4945 14.0209C19.292 14.0196 20.0593 14.3257 20.6369 14.8755C20.6369 14.8755 23.0439 16.7285 23.0749 16.7595C23.6552 17.3406 23.9812 18.1281 23.9814 18.9493C23.9816 19.7705 23.6559 20.5582 23.0759 21.1395ZM21.6999 18.2165C21.6999 18.2165 19.2999 16.3745 19.2749 16.3445C19.0664 16.1452 18.789 16.0339 18.5004 16.0339C18.2119 16.0339 17.9345 16.1452 17.7259 16.3445C17.6999 16.3715 15.6819 17.9795 15.6819 17.9795C15.5459 18.0875 15.3841 18.1582 15.2125 18.1847C15.0408 18.2112 14.8652 18.1925 14.7029 18.1305C12.6863 17.3804 10.8547 16.2052 9.33235 14.6848C7.81 13.1643 6.63256 11.3342 5.87994 9.31849C5.81423 9.15452 5.79312 8.97608 5.81877 8.8013C5.84441 8.62653 5.91589 8.46167 6.02594 8.32349C6.02594 8.32349 7.63294 6.30649 7.66094 6.27949C7.86551 6.07343 7.98032 5.79485 7.98032 5.50449C7.98032 5.21413 7.86551 4.93555 7.66094 4.72949C7.62894 4.70049 5.78794 2.30649 5.78794 2.30649C5.57897 2.11887 5.30614 2.01828 5.02539 2.02534C4.74463 2.03241 4.47722 2.14659 4.27794 2.34449L3.12694 3.34949C-2.51306 10.1285 14.7579 26.4425 20.6999 20.8265L21.6119 19.7765C21.8265 19.5789 21.9557 19.3055 21.9721 19.0143C21.9885 18.7231 21.8909 18.4369 21.6999 18.2165Z" fill="#374957"/>
</svg>
