<svg width="24" height="24" viewBox="0 0 24 24" fill="none" xmlns="http://www.w3.org/2000/svg">
<g clip-path="url(#clip0_1317_20096)">
<path d="M22.3269 18.4214C23.0549 19.4554 23.9999 20.6504 23.9999 21.4994C23.9999 22.1625 23.7365 22.7984 23.2677 23.2672C22.7988 23.736 22.163 23.9994 21.4999 23.9994C20.8369 23.9994 20.201 23.736 19.7322 23.2672C19.2633 22.7984 18.9999 22.1625 18.9999 21.4994C18.9999 20.7244 19.9609 19.4914 20.6919 18.4304C20.7835 18.2989 20.9054 18.1913 21.0472 18.1167C21.1891 18.0421 21.3468 18.0027 21.5071 18.0018C21.6674 18.001 21.8255 18.0386 21.9682 18.1116C22.1109 18.1847 22.2339 18.2909 22.3269 18.4214ZM21.4499 13.8634L12.7779 22.5354C11.8395 23.4716 10.568 23.9974 9.24242 23.9974C7.91684 23.9974 6.64538 23.4716 5.70692 22.5354L1.46492 18.2924C0.527259 17.3548 0.000488281 16.083 0.000488281 14.7569C0.000488281 13.4309 0.527259 12.1591 1.46492 11.2214L7.17392 5.51143L4.31792 2.62143C4.13654 2.43185 4.03693 2.17859 4.04057 1.91624C4.04421 1.6539 4.15081 1.40349 4.33738 1.21902C4.52395 1.03455 4.77555 0.93079 5.03792 0.930119C5.30028 0.929447 5.55241 1.03192 5.73992 1.21543L8.58792 4.09943L10.1359 2.54943L9.29292 1.70643C9.11076 1.51783 9.00997 1.26523 9.01225 1.00303C9.01453 0.740833 9.1197 0.49002 9.3051 0.304612C9.49051 0.119204 9.74132 0.014035 10.0035 0.0117566C10.2657 0.00947813 10.5183 0.110273 10.7069 0.292431L23.7069 13.2924C23.8024 13.3847 23.8786 13.495 23.931 13.617C23.9834 13.739 24.011 13.8703 24.0122 14.003C24.0133 14.1358 23.988 14.2675 23.9377 14.3904C23.8875 14.5133 23.8132 14.6249 23.7193 14.7188C23.6254 14.8127 23.5138 14.887 23.3909 14.9373C23.268 14.9875 23.1363 15.0128 23.0035 15.0117C22.8707 15.0105 22.7395 14.9829 22.6175 14.9305C22.4955 14.8781 22.3852 14.8019 22.2929 14.7064L21.4499 13.8634ZM20.0359 12.4494L11.5499 3.96343L9.99292 5.52143L14.7109 10.2994C14.8133 10.3904 14.896 10.5014 14.9537 10.6256C15.0114 10.7498 15.043 10.8845 15.0465 11.0214C15.0501 11.1583 15.0254 11.2945 14.9741 11.4215C14.9229 11.5485 14.846 11.6636 14.7484 11.7597C14.6509 11.8558 14.5346 11.9308 14.4068 11.9801C14.279 12.0294 14.1424 12.0519 14.0056 12.0463C13.8688 12.0406 13.7345 12.0069 13.6113 11.9473C13.488 11.8876 13.3783 11.8032 13.2889 11.6994L8.57992 6.93443L2.87992 12.6344C2.60129 12.913 2.38027 13.2438 2.22947 13.6078C2.07868 13.9718 2.00106 14.3619 2.00106 14.7559C2.00106 15.1499 2.07868 15.5401 2.22947 15.9041C2.38027 16.2681 2.60129 16.5989 2.87992 16.8774L7.12192 21.1204C7.68519 21.6819 8.44809 21.9972 9.24342 21.9972C10.0388 21.9972 10.8017 21.6819 11.3649 21.1204L20.0359 12.4494Z" fill="#374957"/>
</g>
<defs>
<clipPath id="clip0_1317_20096">
<rect width="24" height="24" fill="white"/>
</clipPath>
</defs>
</svg>
