<svg width="24" height="24" viewBox="0 0 24 24" fill="none" xmlns="http://www.w3.org/2000/svg">
<path d="M14.9802 7.02205V3.02205C14.9802 2.75684 15.0855 2.50248 15.2731 2.31495C15.4606 2.12741 15.715 2.02205 15.9802 2.02205C16.2454 2.02205 16.4998 2.12741 16.6873 2.31495C16.8748 2.50248 16.9802 2.75684 16.9802 3.02205V5.63305C17.6102 4.99905 21.6812 0.907054 22.2732 0.315054C22.3654 0.219544 22.4758 0.143361 22.5978 0.0909524C22.7198 0.0385434 22.851 0.0109572 22.9838 0.00980338C23.1166 0.00864957 23.2482 0.0339513 23.3711 0.0842322C23.494 0.134513 23.6057 0.208766 23.6996 0.302659C23.7935 0.396552 23.8677 0.508203 23.918 0.6311C23.9683 0.753996 23.9936 0.885676 23.9924 1.01846C23.9913 1.15123 23.9637 1.28245 23.9113 1.40446C23.8589 1.52646 23.7827 1.63681 23.6872 1.72905C23.0952 2.32105 19.0452 6.39405 18.4192 7.02205H20.9802C21.2454 7.02205 21.4998 7.12741 21.6873 7.31495C21.8748 7.50248 21.9802 7.75684 21.9802 8.02205C21.9802 8.28727 21.8748 8.54162 21.6873 8.72916C21.4998 8.9167 21.2454 9.02205 20.9802 9.02205H16.9802C16.4497 9.02205 15.941 8.81134 15.566 8.43627C15.1909 8.0612 14.9802 7.55249 14.9802 7.02205ZM23.0752 16.7611C23.6547 17.3422 23.9801 18.1294 23.9801 18.9501C23.9801 19.7707 23.6547 20.5579 23.0752 21.1391L22.1632 22.1891C13.9722 30.0271 -5.95582 10.1051 1.76318 1.88905L2.91318 0.889054C3.49482 0.325599 4.27491 0.0137927 5.08468 0.0210913C5.89445 0.0283899 6.66879 0.354207 7.24018 0.928054C7.27118 0.958054 9.12318 3.36605 9.12318 3.36605C9.6711 3.9446 9.97597 4.71143 9.97485 5.50825C9.97374 6.30507 9.66672 7.07105 9.11718 7.64805L7.95918 9.10405C8.60017 10.6611 9.54244 12.0761 10.7319 13.268C11.9213 14.4598 13.3345 15.4049 14.8902 16.0491L16.3552 14.8841C16.931 14.3331 17.697 14.025 18.494 14.0239C19.291 14.0228 20.0578 14.3287 20.6352 14.8781C20.6352 14.8781 23.0442 16.7311 23.0752 16.7611ZM21.7002 18.2151C21.7002 18.2151 19.3072 16.3731 19.2762 16.3431C19.0702 16.1388 18.7918 16.0242 18.5017 16.0242C18.2116 16.0242 17.9332 16.1388 17.7272 16.3431C17.7002 16.3691 15.6832 17.9771 15.6832 17.9771C15.5473 18.0852 15.3855 18.1562 15.2138 18.1828C15.0422 18.2095 14.8665 18.1909 14.7042 18.1291C12.6876 17.3788 10.8559 16.2037 9.33327 14.6835C7.81064 13.1633 6.63265 11.3334 5.87918 9.31805C5.81238 9.15351 5.7906 8.97414 5.81609 8.79839C5.84157 8.62264 5.9134 8.45685 6.02418 8.31805C6.02418 8.31805 7.63218 6.30405 7.65918 6.27805C7.86345 6.07204 7.97806 5.79367 7.97806 5.50355C7.97806 5.21344 7.86345 4.93507 7.65918 4.72905C7.62918 4.69905 5.78718 2.30405 5.78718 2.30405C5.57808 2.11656 5.30519 2.01615 5.02443 2.0234C4.74367 2.03065 4.47633 2.14502 4.27718 2.34305L3.12718 3.34305C-2.51482 10.1261 14.7572 26.4401 20.7002 20.8261L21.6122 19.7751C21.8272 19.5777 21.9567 19.3043 21.9731 19.0129C21.9896 18.7216 21.8916 18.4353 21.7002 18.2151Z" fill="#374957"/>
</svg>
