<svg width="24" height="24" viewBox="0 0 24 24" fill="none" xmlns="http://www.w3.org/2000/svg">
<path d="M23.7198 22.301L17.7594 16.3406C21.2558 12.0643 20.6237 5.76326 16.3474 2.26686C12.0711 -1.22955 5.77015 -0.597486 2.27369 3.67878C-1.22276 7.95505 -0.590602 14.2561 3.68566 17.7525C7.36901 20.7642 12.6641 20.7642 16.3474 17.7525L22.3078 23.7129C22.7045 24.096 23.3367 24.0851 23.7198 23.6884C24.0935 23.3014 24.0935 22.6879 23.7198 22.301ZM2.04401 10.0257C2.04401 5.61373 5.62057 2.03717 10.0325 2.03717C14.4444 2.03717 18.021 5.61373 18.021 10.0257C18.021 14.4376 14.4444 18.0141 10.0325 18.0141C5.62263 18.0092 2.04898 14.4355 2.04401 10.0257ZM12.0296 6.03139C11.2837 6.03476 10.5679 6.32675 10.0325 6.84622C9.49713 6.3268 8.7814 6.03476 8.03543 6.03139C6.32763 6.09055 4.98869 7.51873 5.03974 9.22676C5.03974 11.2239 7.07782 13.2839 8.78833 14.6589C9.51644 15.2388 10.5486 15.2388 11.2767 14.6589C12.9873 13.2839 15.0253 11.2239 15.0253 9.22676C15.0763 7.51873 13.7374 6.09055 12.0296 6.03139ZM10.0385 13.1012C8.18716 11.6134 7.0368 10.1255 7.0368 9.22681C6.98698 8.62184 7.4313 8.08859 8.03538 8.02855C8.63941 8.08859 9.08379 8.62184 9.03396 9.22681C9.03396 9.7783 9.48101 10.2254 10.0325 10.2254C10.584 10.2254 11.0311 9.77834 11.0311 9.22681C10.9813 8.62184 11.4256 8.08859 12.0297 8.02855C12.6337 8.08859 13.0781 8.62184 13.0283 9.22681C13.0282 10.1255 11.8779 11.6134 10.0385 13.1012Z" fill="#374957"/>
</svg>
