<svg width="24" height="24" viewBox="0 0 24 24" fill="none" xmlns="http://www.w3.org/2000/svg">
<path d="M8.33695 13.3227L10.6233 11.0364L8.33695 8.74999C7.94085 8.36744 7.92984 7.73618 8.31243 7.34008C8.69498 6.94399 9.32624 6.93297 9.72234 7.31557C9.73063 7.32358 9.73884 7.33178 9.74685 7.34008L12.0332 9.62646L14.3196 7.34008C14.7022 6.94399 15.3334 6.93302 15.7295 7.31561C16.1256 7.69821 16.1366 8.32942 15.754 8.72552C15.746 8.73382 15.7378 8.74197 15.7295 8.74999L13.4431 11.0364L15.7295 13.3227C16.1256 13.7053 16.1366 14.3365 15.754 14.7326C15.3714 15.1287 14.7402 15.1397 14.3441 14.7571C14.3358 14.7491 14.3276 14.7409 14.3196 14.7326L12.0332 12.4463L9.74685 14.7326C9.35076 15.1152 8.71954 15.1043 8.33695 14.7082C7.96373 14.3218 7.96373 13.7092 8.33695 13.3227ZM4.30565 18.8188C-0.0290211 14.5875 -0.112833 7.64332 4.11853 3.3086C8.34988 -1.02612 15.294 -1.10989 19.6287 3.12147C19.6826 3.17407 19.7359 3.22722 19.7887 3.28089C24.0718 7.56419 24.0718 14.5086 19.7887 18.7919L15.8083 22.4702C13.6961 24.5158 10.3391 24.5074 8.23724 22.4513L4.30565 18.8188ZM3.05929 11.0364C3.05278 13.4178 3.99923 15.7027 5.68767 17.382L9.61129 21.0074C10.9583 22.2948 13.0772 22.3031 14.4343 21.0264L18.4068 17.355C21.9039 13.8427 21.8917 8.16049 18.3794 4.66338C14.8671 1.16627 9.18482 1.1785 5.68771 4.6908C3.99918 6.37005 3.05278 8.65507 3.05929 11.0364Z" fill="#374957"/>
</svg>
