<svg width="24" height="24" viewBox="0 0 24 24" fill="none" xmlns="http://www.w3.org/2000/svg">
<g clip-path="url(#clip0_1317_20193)">
<path d="M22.514 10.972C22.1062 10.6072 21.6248 10.3342 21.1025 10.1714C20.5801 10.0085 20.0289 9.95962 19.486 10.028C17.2989 10.2924 15.1408 10.7577 13.039 11.418C13.359 8.913 15.75 8 18 8C18.7957 8 19.5587 7.68393 20.1213 7.12132C20.6839 6.55871 21 5.79565 21 5C21 4.20435 20.6839 3.44129 20.1213 2.87868C19.5587 2.31607 18.7957 2 18 2C17.0678 1.99978 16.145 2.18649 15.2862 2.54908C14.4274 2.91166 13.65 3.44277 13 4.111V1C13 0.734784 12.8947 0.48043 12.7071 0.292893C12.5196 0.105357 12.2652 0 12 0C11.7348 0 11.4804 0.105357 11.2929 0.292893C11.1054 0.48043 11 0.734784 11 1V4.11C10.3498 3.44214 9.57235 2.91133 8.71358 2.54893C7.8548 2.18653 6.93212 1.99988 6.00001 2C5.20437 2 4.4413 2.31607 3.87869 2.87868C3.31609 3.44129 3.00001 4.20435 3.00001 5C3.00001 5.79565 3.31609 6.55871 3.87869 7.12132C4.4413 7.68393 5.20437 8 6.00001 8C8.25002 8 10.641 8.913 10.961 11.418C8.85923 10.7578 6.70112 10.2925 4.51401 10.028C3.97116 9.96001 3.42004 10.0091 2.89773 10.1719C2.37543 10.3348 1.89406 10.6076 1.48601 10.972C1.01534 11.4032 0.641147 11.929 0.387979 12.5149C0.134812 13.1009 0.00839256 13.7337 0.0170147 14.372C0.0170147 23.062 4.85202 24 6.93102 24C8.05994 23.9395 9.14111 23.5249 10.021 22.815C10.581 22.3407 11.2704 22.0453 12 21.967C12.7297 22.0453 13.4191 22.3407 13.979 22.815C14.859 23.5247 15.9401 23.9393 17.069 24C19.148 24 23.983 23.062 23.983 14.375C23.9918 13.7363 23.8655 13.1029 23.6123 12.5165C23.3592 11.93 22.9849 11.4037 22.514 10.972ZM18 4C18.2652 4 18.5196 4.10536 18.7071 4.29289C18.8947 4.48043 19 4.73478 19 5C19 5.26522 18.8947 5.51957 18.7071 5.70711C18.5196 5.89464 18.2652 6 18 6C16.3152 5.94531 14.6571 6.43098 13.268 7.386C13.6056 6.39892 14.2432 5.54196 15.0915 4.93489C15.9399 4.32782 16.9568 4.00096 18 4ZM6.00001 6C5.7348 6 5.48044 5.89464 5.29291 5.70711C5.10537 5.51957 5.00001 5.26522 5.00001 5C5.00001 4.73478 5.10537 4.48043 5.29291 4.29289C5.48044 4.10536 5.7348 4 6.00001 4C7.0433 4.0012 8.06017 4.32814 8.90868 4.93516C9.75718 5.54218 10.395 6.399 10.733 7.386C9.34367 6.43077 7.68516 5.9451 6.00001 6ZM17.069 22C16.3394 21.9217 15.65 21.6263 15.09 21.152C14.2099 20.4426 13.1288 20.028 12 19.967C10.8712 20.028 9.79016 20.4426 8.91001 21.152C8.35006 21.6263 7.66067 21.9217 6.93102 22C3.76202 22 2.01701 19.292 2.01701 14.375C2.01071 14.019 2.07858 13.6656 2.21631 13.3373C2.35404 13.009 2.55862 12.7129 2.81701 12.468C3.01244 12.2897 3.24477 12.1567 3.49747 12.0784C3.75016 12.0001 4.01701 11.9784 4.27901 12.015C6.78941 12.3104 9.25676 12.8977 11.631 13.765C11.8698 13.8607 12.1362 13.8607 12.375 13.765C14.7488 12.8961 17.2163 12.3087 19.727 12.015C19.989 11.9789 20.2557 12.0008 20.5083 12.0791C20.761 12.1573 20.9933 12.2901 21.189 12.468C21.4476 12.7128 21.6523 13.0088 21.7901 13.3372C21.9278 13.6655 21.9956 14.019 21.989 14.375C21.983 19.292 20.238 22 17.069 22Z" fill="#374957"/>
<path d="M17.83 15.0222C15.309 15.5992 12 16.6472 12 16.6472C14.009 16.8602 16.056 18.6982 17.114 18.9922C18.223 19.3002 18.641 18.1482 18.981 16.2672C19.02 16.1042 19.0183 15.9341 18.9759 15.7719C18.9335 15.6097 18.8518 15.4604 18.738 15.3373C18.6242 15.2143 18.4818 15.1211 18.3234 15.0661C18.1651 15.0112 17.9956 14.9961 17.83 15.0222Z" fill="#374957"/>
<path d="M5.01875 16.2672C5.35875 18.1482 5.77675 19.3002 6.88576 18.9922C7.94376 18.6982 9.98576 16.8602 11.9998 16.6472C11.9998 16.6472 8.69076 15.5952 6.16975 15.0222C6.00417 14.9961 5.83469 15.0112 5.67631 15.0661C5.51794 15.1211 5.37555 15.2143 5.26175 15.3373C5.14795 15.4604 5.06625 15.6097 5.02386 15.7719C4.98148 15.9341 4.97972 16.1042 5.01875 16.2672Z" fill="#374957"/>
</g>
<defs>
<clipPath id="clip0_1317_20193">
<rect width="24" height="24" fill="white"/>
</clipPath>
</defs>
</svg>
