<svg width="24" height="24" viewBox="0 0 24 24" fill="none" xmlns="http://www.w3.org/2000/svg">
<g clip-path="url(#clip0_1317_20099)">
<path d="M5.972 22.2831C5.75341 22.283 5.54087 22.2113 5.3669 22.079C5.19292 21.9467 5.0671 21.761 5.00869 21.5503C4.95027 21.3397 4.96248 21.1157 5.04345 20.9127C5.12441 20.7097 5.26967 20.5387 5.457 20.4261C9 18.2981 9 13.7281 9 10.9981C9 10.2024 9.31607 9.43939 9.87868 8.87678C10.4413 8.31417 11.2044 7.9981 12 7.9981C12.7956 7.9981 13.5587 8.31417 14.1213 8.87678C14.6839 9.43939 15 10.2024 15 10.9981C15 11.2633 14.8946 11.5177 14.7071 11.7052C14.5196 11.8927 14.2652 11.9981 14 11.9981C13.7348 11.9981 13.4804 11.8927 13.2929 11.7052C13.1054 11.5177 13 11.2633 13 10.9981C13 10.7329 12.8946 10.4785 12.7071 10.291C12.5196 10.1035 12.2652 9.9981 12 9.9981C11.7348 9.9981 11.4804 10.1035 11.2929 10.291C11.1054 10.4785 11 10.7329 11 10.9981C11 13.9451 11 19.4321 6.486 22.1411C6.33068 22.2341 6.15303 22.2832 5.972 22.2831ZM10.935 23.7041C13.217 21.4041 14.55 18.1701 14.896 14.0831C14.9077 13.952 14.8933 13.8199 14.8538 13.6943C14.8143 13.5688 14.7504 13.4523 14.6658 13.3514C14.5811 13.2506 14.4774 13.1675 14.3606 13.1069C14.2438 13.0463 14.1161 13.0093 13.985 12.9981C13.8538 12.9846 13.7212 12.9977 13.5951 13.0366C13.4691 13.0755 13.3521 13.1393 13.2513 13.2243C13.1504 13.3093 13.0677 13.4137 13.008 13.5314C12.9483 13.649 12.913 13.7775 12.904 13.9091C12.593 17.5661 11.485 20.3091 9.516 22.2901C9.32902 22.4783 9.22445 22.733 9.2253 22.9983C9.22614 23.2636 9.33233 23.5176 9.5205 23.7046C9.70867 23.8916 9.96341 23.9961 10.2287 23.9953C10.494 23.9945 10.748 23.8883 10.935 23.7001V23.7041ZM16.135 23.5181C16.7416 22.5102 17.2467 21.4447 17.643 20.3371C17.7258 20.0894 17.7085 19.8191 17.5946 19.584C17.4808 19.3489 17.2794 19.1678 17.0337 19.0792C16.788 18.9906 16.5174 19.0017 16.2797 19.1101C16.0421 19.2184 15.8562 19.4155 15.762 19.6591C15.4099 20.6412 14.9617 21.5861 14.424 22.4801C14.3558 22.5924 14.3105 22.7171 14.2905 22.847C14.2705 22.9769 14.2763 23.1094 14.3076 23.237C14.3388 23.3647 14.3949 23.4849 14.4726 23.5909C14.5503 23.6968 14.6482 23.7864 14.7605 23.8546C14.9874 23.9922 15.2597 24.0341 15.5174 23.971C15.6451 23.9398 15.7653 23.8837 15.8713 23.806C15.9772 23.7283 16.0668 23.6304 16.135 23.5181ZM18.5 17.1891C18.8705 15.147 19.038 13.0732 19 10.9981C18.9991 9.5814 18.5683 8.19833 17.7646 7.03166C16.9609 5.86499 15.8221 4.96964 14.4987 4.46394C13.1753 3.95824 11.7297 3.86598 10.3528 4.19936C8.97584 4.53274 7.73248 5.27606 6.787 6.3311C6.69492 6.4281 6.62323 6.54259 6.57618 6.66779C6.52913 6.79299 6.50768 6.92635 6.51308 7.05999C6.51849 7.19363 6.55065 7.32483 6.60766 7.44582C6.66467 7.56681 6.74537 7.67513 6.84499 7.76438C6.94461 7.85362 7.06111 7.92198 7.18762 7.9654C7.31412 8.00882 7.44805 8.02643 7.58148 8.01717C7.7149 8.00791 7.84512 7.97198 7.96441 7.91151C8.08371 7.85104 8.18966 7.76725 8.276 7.6651C8.95128 6.91138 9.83937 6.3803 10.8229 6.14207C11.8064 5.90383 12.8391 5.96964 13.7845 6.3308C14.7298 6.69197 15.5433 7.33148 16.1174 8.16483C16.6916 8.99818 16.9993 9.98612 17 10.9981C17.0369 12.9449 16.8821 14.8906 16.538 16.8071C16.4875 17.0673 16.5423 17.3368 16.6905 17.5566C16.8386 17.7763 17.0679 17.9283 17.328 17.9791C17.3915 17.9918 17.4562 17.9982 17.521 17.9981C17.7526 17.9975 17.9769 17.9165 18.1554 17.769C18.334 17.6214 18.4558 17.4165 18.5 17.1891ZM7 10.9981C6.99971 10.719 7.02279 10.4404 7.069 10.1651C7.09886 10.0326 7.10141 9.89538 7.0765 9.76185C7.05158 9.62832 6.99972 9.50127 6.92409 9.38844C6.84845 9.27562 6.75062 9.17938 6.63657 9.10561C6.52251 9.03184 6.39462 8.98207 6.2607 8.95936C6.12678 8.93664 5.98963 8.94145 5.85763 8.97348C5.72563 9.00551 5.60154 9.0641 5.49293 9.14568C5.38431 9.22725 5.29346 9.3301 5.2259 9.44794C5.15835 9.56578 5.11551 9.69615 5.1 9.8311C5.03399 10.2166 5.00054 10.607 5 10.9981C5 15.6431 3.654 17.9981 1 17.9981C0.734784 17.9981 0.48043 18.1035 0.292893 18.291C0.105357 18.4785 0 18.7329 0 18.9981C0 19.2633 0.105357 19.5177 0.292893 19.7052C0.48043 19.8927 0.734784 19.9981 1 19.9981C4.869 19.9981 7 16.7981 7 10.9981ZM20.7 23.4121C22.3457 19.4862 23.13 15.253 23 10.9981C23.0046 9.33702 22.6283 7.697 21.9 6.2041C21.8425 6.08591 21.7624 5.98019 21.6641 5.89299C21.5658 5.80578 21.4512 5.73879 21.327 5.69584C21.2028 5.6529 21.0714 5.63483 20.9402 5.64268C20.809 5.65053 20.6807 5.68414 20.5625 5.7416C20.4443 5.79905 20.3386 5.87922 20.2514 5.97753C20.1642 6.07584 20.0972 6.19036 20.0542 6.31456C20.0113 6.43876 19.9932 6.5702 20.0011 6.70138C20.0089 6.83256 20.0425 6.96091 20.1 7.0791C20.695 8.29967 21.0029 9.64021 21 10.9981C21.1259 14.9669 20.4035 18.9168 18.881 22.5841C18.8268 22.7039 18.7967 22.8331 18.7925 22.9645C18.7883 23.0959 18.8101 23.2268 18.8565 23.3498C18.9029 23.4727 18.9732 23.5853 19.0632 23.6811C19.1532 23.777 19.2612 23.8541 19.381 23.9081C19.5105 23.9677 19.6514 23.9984 19.794 23.9981C19.9852 23.9973 20.1722 23.9416 20.3328 23.8378C20.4934 23.7339 20.6208 23.5862 20.7 23.4121ZM3 13.9981V10.9981C3.00265 8.61196 3.95171 6.32432 5.63896 4.63706C7.32622 2.94981 9.61386 2.00075 12 1.9981C13.9484 1.99161 15.8452 2.62388 17.4 3.7981C17.6122 3.95723 17.8789 4.02556 18.1414 3.98805C18.404 3.95054 18.6409 3.81027 18.8 3.5981C18.9591 3.38593 19.0275 3.11923 18.99 2.85668C18.9524 2.59413 18.8122 2.35723 18.6 2.1981C16.6994 0.76352 14.3812 -0.00918793 12 -0.00190207C9.08367 0.0015384 6.28778 1.16157 4.22563 3.22372C2.16347 5.28588 1.00344 8.08177 1 10.9981V13.9981C1 14.2633 1.10536 14.5177 1.29289 14.7052C1.48043 14.8927 1.73478 14.9981 2 14.9981C2.26522 14.9981 2.51957 14.8927 2.70711 14.7052C2.89464 14.5177 3 14.2633 3 13.9981Z" fill="#374957"/>
</g>
<defs>
<clipPath id="clip0_1317_20099">
<rect width="24" height="24" fill="white"/>
</clipPath>
</defs>
</svg>
