<svg width="24" height="24" viewBox="0 0 24 24" fill="none" xmlns="http://www.w3.org/2000/svg">
<g clip-path="url(#clip0_1317_20181)">
<path d="M23.229 0.771609C22.7564 0.301415 22.1234 0.0276428 21.4571 0.00537872C20.7908 -0.0168853 20.1409 0.214012 19.638 0.651609L5.472 13.1336C3.137 13.5736 0 14.8746 0 17.6006C0.00185286 19.2974 0.676732 20.9242 1.87656 22.124C3.07639 23.3239 4.70318 23.9988 6.4 24.0006C9.125 24.0006 10.427 20.8646 10.867 18.5296L23.352 4.35861C23.7887 3.8559 24.0188 3.20644 23.996 2.54092C23.9732 1.8754 23.6991 1.24322 23.229 0.771609ZM10.141 16.3276L7.673 13.8596L9.678 12.0926L11.908 14.3226L10.141 16.3276ZM6.4 22.0006C5.23345 21.9993 4.11507 21.5353 3.29019 20.7104C2.46532 19.8855 2.00132 18.7672 2 17.6006C2 16.0926 4.639 15.3136 6.049 15.0636L8.937 17.9506C8.686 19.3616 7.908 22.0006 6.4 22.0006ZM21.849 3.04061L13.233 12.8186L11.181 10.7676L20.956 2.15461C21.0764 2.05131 21.2312 1.99714 21.3897 2.00287C21.5482 2.00859 21.6988 2.07381 21.8114 2.18552C21.924 2.29723 21.9904 2.44725 21.9973 2.60571C22.0043 2.76416 21.9513 2.91944 21.849 3.04061Z" fill="#374957"/>
</g>
<defs>
<clipPath id="clip0_1317_20181">
<rect width="24" height="24" fill="white"/>
</clipPath>
</defs>
</svg>
