<svg width="24" height="24" viewBox="0 0 24 24" fill="none" xmlns="http://www.w3.org/2000/svg">
<path d="M18.4001 7.37889C18.2192 7.32729 18.0541 7.23128 17.9198 7.09959C17.7855 6.9679 17.6862 6.80472 17.6311 6.62489C17.3248 5.58693 16.8112 4.6219 16.1213 3.78818C15.4313 2.95447 14.5793 2.2694 13.617 1.77445C12.6546 1.27949 11.6018 0.984934 10.5223 0.908599C9.44286 0.832265 8.3591 0.975741 7.33666 1.33034C6.31422 1.68495 5.37436 2.24331 4.57394 2.97163C3.77352 3.69996 3.1292 4.58311 2.67995 5.56764C2.2307 6.55218 1.98588 7.61762 1.96029 8.6995C1.9347 9.78139 2.12888 10.8572 2.53107 11.8619C2.62347 12.0733 2.64336 12.3094 2.58766 12.5333C2.53195 12.7572 2.40377 12.9564 2.22307 13.0999C1.4268 13.6909 0.805119 14.4862 0.423825 15.4015C0.0425303 16.3169 -0.0841907 17.3184 0.0570735 18.2999C0.277527 19.6268 0.966398 20.8306 1.99866 21.693C3.03091 22.5553 4.33814 23.019 5.68307 22.9999H11.0001C11.2653 22.9999 11.5196 22.8945 11.7072 22.707C11.8947 22.5195 12.0001 22.2651 12.0001 21.9999C12.0001 21.7347 11.8947 21.4803 11.7072 21.2928C11.5196 21.1052 11.2653 20.9999 11.0001 20.9999H5.68307C4.81935 21.0208 3.9767 20.7317 3.30783 20.1848C2.63897 19.6379 2.18815 18.8696 2.03707 18.0189C1.94127 17.3936 2.01891 16.7541 2.26155 16.1699C2.50418 15.5857 2.90249 15.0793 3.41307 14.7059C3.94939 14.3051 4.33736 13.7374 4.51601 13.0921C4.69466 12.4468 4.65388 11.7605 4.40007 11.1409C3.89823 9.81559 3.87242 8.35711 4.32707 7.01489C4.69027 5.96346 5.34066 5.03477 6.20456 4.334C7.06846 3.63323 8.11134 3.18839 9.21507 3.04989C9.47109 3.01693 9.72894 3.00023 9.98707 2.99989C11.2801 2.99562 12.5398 3.41032 13.5774 4.18188C14.6151 4.95344 15.3749 6.04036 15.7431 7.27989C15.8868 7.75226 16.1458 8.18146 16.4966 8.52884C16.8475 8.87623 17.2793 9.13089 17.7531 9.26989C18.9126 9.61281 19.9396 10.3018 20.6968 11.2445C21.4539 12.1873 21.905 13.3388 21.9896 14.545C22.0742 15.7511 21.7883 16.9544 21.1702 17.9936C20.5522 19.0328 19.6313 19.8584 18.5311 20.3599C18.3682 20.4433 18.2321 20.5707 18.1382 20.7277C18.0443 20.8847 17.9965 21.065 18.0001 21.2479C17.9981 21.4134 18.0378 21.5767 18.1154 21.7228C18.193 21.869 18.3061 21.9933 18.4442 22.0844C18.5824 22.1755 18.7412 22.2304 18.9061 22.2441C19.071 22.2578 19.2368 22.2299 19.3881 22.1629C23.5221 20.1759 25.7681 14.9489 22.2681 9.89889C21.3044 8.64181 19.9394 7.75251 18.4001 7.37889Z" fill="#374957"/>
<path d="M18.7069 16.7065C18.8944 16.519 18.9997 16.2646 18.9997 15.9995C18.9997 15.7343 18.8944 15.48 18.7069 15.2925L17.1209 13.7065C16.5583 13.1441 15.7954 12.8281 14.9999 12.8281C14.2044 12.8281 13.4415 13.1441 12.8789 13.7065L11.2929 15.2925C11.1108 15.4811 11.01 15.7337 11.0122 15.9959C11.0145 16.2581 11.1197 16.5089 11.3051 16.6943C11.4905 16.8797 11.7413 16.9849 12.0035 16.9872C12.2657 16.9894 12.5183 16.8886 12.7069 16.7065L13.9999 15.4135V22.9995C13.9999 23.2647 14.1053 23.5191 14.2928 23.7066C14.4803 23.8941 14.7347 23.9995 14.9999 23.9995C15.2651 23.9995 15.5195 23.8941 15.707 23.7066C15.8946 23.5191 15.9999 23.2647 15.9999 22.9995V15.4135L17.2929 16.7065C17.4804 16.894 17.7348 16.9993 17.9999 16.9993C18.2651 16.9993 18.5194 16.894 18.7069 16.7065Z" fill="#374957"/>
</svg>
