<svg width="24" height="24" viewBox="0 0 24 24" fill="none" xmlns="http://www.w3.org/2000/svg">
<g clip-path="url(#clip0_1317_20071)">
<path d="M9.28804 13.0678C6.97104 13.5138 5.82304 16.0937 5.32504 17.7017C5.27808 17.8516 5.26708 18.0105 5.29294 18.1654C5.31881 18.3203 5.3808 18.467 5.4739 18.5935C5.567 18.72 5.68859 18.8228 5.82882 18.8935C5.96905 18.9643 6.12398 19.001 6.28104 19.0007H10C10.4172 19.0008 10.8297 18.9139 11.2113 18.7456C11.593 18.5772 11.9353 18.3312 12.2165 18.0231C12.4977 17.715 12.7115 17.3516 12.8444 16.9563C12.9772 16.5609 13.0261 16.1421 12.988 15.7267C12.9349 15.3023 12.7947 14.8935 12.5762 14.5258C12.3577 14.1581 12.0657 13.8394 11.7183 13.5898C11.371 13.3402 10.9758 13.165 10.5577 13.0752C10.1395 12.9853 9.70725 12.9828 9.28804 13.0678Z" fill="#374957"/>
<path d="M23 8.979C22.7348 8.979 22.4804 9.08436 22.2929 9.27189C22.1054 9.45943 22 9.71378 22 9.979V15H18C17.2044 15 16.4413 15.3161 15.8787 15.8787C15.3161 16.4413 15 17.2044 15 18V22H5C4.20435 22 3.44129 21.6839 2.87868 21.1213C2.31607 20.5587 2 19.7956 2 19V5C2 4.20435 2.31607 3.44129 2.87868 2.87868C3.44129 2.31607 4.20435 2 5 2H16.042C16.3072 2 16.5616 1.89464 16.7491 1.70711C16.9366 1.51957 17.042 1.26522 17.042 1C17.042 0.734784 16.9366 0.48043 16.7491 0.292893C16.5616 0.105357 16.3072 0 16.042 0L5 0C3.67441 0.00158786 2.40356 0.528882 1.46622 1.46622C0.528882 2.40356 0.00158786 3.67441 0 5L0 19C0.00158786 20.3256 0.528882 21.5964 1.46622 22.5338C2.40356 23.4711 3.67441 23.9984 5 24H16.343C16.9998 24.0019 17.6504 23.8734 18.2572 23.6221C18.8639 23.3708 19.4149 23.0017 19.878 22.536L22.536 19.878C23.0017 19.4149 23.3708 18.8639 23.6221 18.2572C23.8734 17.6504 24.0019 16.9998 24 16.343V9.979C24 9.71378 23.8946 9.45943 23.7071 9.27189C23.5196 9.08436 23.2652 8.979 23 8.979ZM18.464 21.122C18.0607 21.5208 17.5534 21.798 17 21.922V18C17 17.7348 17.1054 17.4804 17.2929 17.2929C17.4804 17.1054 17.7348 17 18 17H21.925C21.801 17.5534 21.5238 18.0607 21.125 18.464L18.464 21.122Z" fill="#374957"/>
<path d="M14.5661 14.1707C14.3684 14.1706 14.1751 14.112 14.0107 14.0021C13.8462 13.8922 13.7181 13.736 13.6424 13.5533C13.5668 13.3706 13.547 13.1696 13.5855 12.9757C13.6241 12.7817 13.7193 12.6035 13.8591 12.4637L21.7121 4.61069C21.7999 4.52309 21.8695 4.41905 21.917 4.30451C21.9646 4.18997 21.989 4.06719 21.989 3.94319C21.989 3.81918 21.9646 3.6964 21.917 3.58186C21.8695 3.46732 21.7999 3.36328 21.7121 3.27569C21.6228 3.18286 21.5147 3.11028 21.395 3.06284C21.2752 3.0154 21.1467 2.9942 21.0181 3.00069C20.8896 3.00348 20.763 3.03282 20.6463 3.08685C20.5296 3.14089 20.4254 3.21845 20.3401 3.31469L12.7401 11.7217C12.5623 11.9185 12.3136 12.0366 12.0487 12.05C11.7838 12.0634 11.5244 11.971 11.3276 11.7932C11.1308 11.6154 11.0127 11.3666 10.9993 11.1017C10.9859 10.8368 11.0783 10.5775 11.2561 10.3807L18.8561 1.98069C19.1226 1.68315 19.4468 1.44286 19.809 1.2744C20.1712 1.10594 20.5638 1.01282 20.9631 1.00069C21.363 0.992116 21.7606 1.06401 22.1321 1.21208C22.5037 1.36016 22.8417 1.58141 23.1261 1.86269C23.6774 2.41516 23.9869 3.16374 23.9869 3.94419C23.9869 4.72463 23.6774 5.47321 23.1261 6.02569L15.2731 13.8787C15.1804 13.9717 15.0702 14.0454 14.9489 14.0955C14.8275 14.1456 14.6974 14.1712 14.5661 14.1707Z" fill="#374957"/>
</g>
<defs>
<clipPath id="clip0_1317_20071">
<rect width="24" height="24" fill="white"/>
</clipPath>
</defs>
</svg>
