<svg width="24" height="24" viewBox="0 0 24 24" fill="none" xmlns="http://www.w3.org/2000/svg">
<g clip-path="url(#clip0_1317_20220)">
<path d="M23.1 0.899297C22.5163 0.34332 21.7411 0.0332031 20.935 0.0332031C20.1289 0.0332031 19.3537 0.34332 18.77 0.899297L7.56302 12.0993C7.21437 12.0322 6.86008 11.9987 6.50502 11.9993C5.78323 11.9972 5.06819 12.1384 4.40132 12.4145C3.73445 12.6907 3.129 13.0965 2.62002 13.6083C1.26802 14.9613 0.314022 18.5913 0.0310225 20.5623C-0.0317577 20.9887 -0.00192951 21.4236 0.118477 21.8374C0.238883 22.2512 0.44704 22.6342 0.728777 22.9604C1.01051 23.2865 1.35922 23.5481 1.75115 23.7274C2.14308 23.9067 2.56904 23.9994 3.00002 23.9993C3.14691 23.9993 3.29361 23.989 3.43902 23.9683C5.41002 23.6853 9.03902 22.7313 10.393 21.3793C11.0288 20.7417 11.4981 19.9576 11.7597 19.096C12.0212 18.2344 12.067 17.3217 11.893 16.4383L23.1 5.22929C23.6727 4.65429 23.9942 3.87582 23.9942 3.06429C23.9942 2.25277 23.6727 1.4743 23.1 0.899297ZM8.97702 19.9653C8.25202 20.6903 5.47702 21.6543 3.15302 21.9883C2.99771 22.0107 2.83931 21.9968 2.69026 21.9477C2.54121 21.8986 2.40558 21.8156 2.29402 21.7053C2.18286 21.5943 2.0994 21.4587 2.0504 21.3095C2.00141 21.1602 1.98826 21.0015 2.01202 20.8463C2.34502 18.5233 3.31202 15.7463 4.03402 15.0223C4.70027 14.4222 5.57139 14.1007 6.46772 14.1242C7.36404 14.1476 8.2172 14.5141 8.85122 15.1481C9.48523 15.7821 9.85174 16.6353 9.87515 17.5316C9.89856 18.4279 9.57708 19.299 8.97702 19.9653ZM21.688 3.81529L11.067 14.4373C10.6724 13.8398 10.1624 13.3271 9.56702 12.9293L20.184 2.3113C20.3861 2.11837 20.6547 2.01072 20.934 2.01072C21.2134 2.01072 21.482 2.11837 21.684 2.3113C21.7832 2.40969 21.862 2.52668 21.9159 2.65558C21.9698 2.78448 21.9978 2.92275 21.9981 3.06246C21.9985 3.20218 21.9713 3.34059 21.9181 3.46978C21.8649 3.59896 21.7867 3.71638 21.688 3.81529Z" fill="#374957"/>
</g>
<defs>
<clipPath id="clip0_1317_20220">
<rect width="24" height="24" fill="white"/>
</clipPath>
</defs>
</svg>
