<svg width="24" height="24" viewBox="0 0 24 24" fill="none" xmlns="http://www.w3.org/2000/svg">
<g clip-path="url(#clip0_1317_20221)">
<path d="M17.1153 8.0503C16.8286 8.12647 16.5709 8.28595 16.3749 8.50856C16.1788 8.73117 16.0531 9.00692 16.0138 9.30095C15.9744 9.59498 16.0231 9.89408 16.1537 10.1604C16.2843 10.4268 16.491 10.6484 16.7475 10.7973C17.0041 10.9462 17.2991 11.0157 17.5951 10.997C17.8912 10.9783 18.1751 10.8722 18.4108 10.6922C18.6466 10.5121 18.8237 10.2662 18.9197 9.98555C19.0158 9.70487 19.0264 9.40202 18.9503 9.11529C18.8998 8.92486 18.8122 8.74625 18.6927 8.58966C18.5731 8.43307 18.4239 8.30157 18.2534 8.20267C18.083 8.10377 17.8948 8.03941 17.6995 8.01326C17.5043 7.98712 17.3057 7.9997 17.1153 8.0503Z" fill="#374957"/>
<path d="M12.1148 5.0503C11.8281 5.12647 11.5704 5.28595 11.3744 5.50856C11.1783 5.73117 11.0526 6.00693 11.0133 6.30095C10.9739 6.59498 11.0226 6.89408 11.1532 7.16043C11.2838 7.42678 11.4905 7.64842 11.7471 7.79733C12.0036 7.94624 12.2986 8.01573 12.5946 7.99701C12.8907 7.97829 13.1746 7.87221 13.4103 7.69217C13.6461 7.51214 13.8232 7.26623 13.9192 6.98555C14.0153 6.70487 14.0259 6.40202 13.9498 6.1153C13.8993 5.92486 13.8117 5.74625 13.6922 5.58966C13.5726 5.43307 13.4234 5.30157 13.2529 5.20267C13.0825 5.10377 12.8943 5.03941 12.699 5.01327C12.5038 4.98712 12.3052 4.9997 12.1148 5.0503Z" fill="#374957"/>
<path d="M7.11531 8.0503C6.82861 8.12647 6.57093 8.28595 6.37486 8.50856C6.17878 8.73117 6.05312 9.00692 6.01375 9.30095C5.97439 9.59498 6.02309 9.89408 6.1537 10.1604C6.28432 10.4268 6.49097 10.6484 6.74754 10.7973C7.00411 10.9462 7.29907 11.0157 7.59513 10.997C7.89119 10.9783 8.17505 10.8722 8.41083 10.6922C8.6466 10.5121 8.82369 10.2662 8.91972 9.98555C9.01575 9.70487 9.02639 9.40202 8.95031 9.11529C8.89978 8.92486 8.81223 8.74625 8.69266 8.58966C8.57308 8.43307 8.42383 8.30157 8.25343 8.20267C8.08303 8.10377 7.89481 8.03941 7.69953 8.01326C7.50425 7.98712 7.30573 7.9997 7.11531 8.0503Z" fill="#374957"/>
<path d="M7.11531 14.0503C6.82861 14.1265 6.57093 14.2859 6.37486 14.5086C6.17878 14.7312 6.05312 15.0069 6.01375 15.301C5.97439 15.595 6.02309 15.8941 6.1537 16.1604C6.28432 16.4268 6.49097 16.6484 6.74754 16.7973C7.00411 16.9462 7.29907 17.0157 7.59513 16.997C7.89119 16.9783 8.17505 16.8722 8.41083 16.6922C8.6466 16.5121 8.82369 16.2662 8.91972 15.9856C9.01575 15.7049 9.02639 15.402 8.95031 15.1153C8.89978 14.9249 8.81223 14.7462 8.69266 14.5897C8.57308 14.4331 8.42383 14.3016 8.25343 14.2027C8.08303 14.1038 7.89481 14.0394 7.69953 14.0133C7.50425 13.9871 7.30573 13.9997 7.11531 14.0503Z" fill="#374957"/>
<path d="M12.5 0.00724798C10.89 -0.0487337 9.28519 0.220038 7.78128 0.79754C6.27736 1.37504 4.90512 2.24945 3.74637 3.36863C2.58762 4.48781 1.66609 5.82886 1.0367 7.31181C0.407318 8.79476 0.0829746 10.3893 0.0830078 12.0002C0.086713 15.1817 1.35219 18.2318 3.60182 20.4814C5.85145 22.7311 8.90155 23.9965 12.083 24.0002C12.421 24.0002 12.753 23.9782 13.083 23.9502C13.3334 23.9291 13.5667 23.8145 13.7364 23.6292C13.9061 23.4439 13.9999 23.2015 13.999 22.9502L13.967 19.3622C13.9589 18.6532 14.1623 17.9579 14.5512 17.365C14.9402 16.7721 15.497 16.3086 16.1506 16.0336C16.8042 15.7587 17.5249 15.6847 18.2207 15.8213C18.9165 15.9578 19.5558 16.2987 20.057 16.8002L20.157 16.9002C20.384 17.1292 20.6653 17.297 20.9745 17.3881C21.2838 17.4792 21.6111 17.4906 21.926 17.4212C22.2358 17.3562 22.5243 17.2144 22.7649 17.0087C23.0055 16.803 23.1906 16.5401 23.303 16.2442C23.8551 14.7945 24.1191 13.251 24.08 11.7002C23.9675 8.65426 22.7146 5.76173 20.5698 3.59598C18.425 1.43023 15.5448 0.14936 12.5 0.00724798ZM21.482 15.4072L21.468 15.3932C20.6864 14.6129 19.6902 14.0827 18.6064 13.8701C17.5225 13.6575 16.3999 13.7721 15.3814 14.1993C14.3629 14.6266 13.4945 15.3472 12.8866 16.2694C12.2788 17.1916 11.959 18.2738 11.968 19.3782L11.992 22.0002C9.33984 21.9883 6.80104 20.9233 4.93412 19.0395C3.0672 17.1557 2.02507 14.6074 2.03701 11.9552C2.04894 9.30308 3.11396 6.76429 4.99776 4.89736C6.88156 3.03044 9.42984 1.98831 12.082 2.00025C12.199 2.00025 12.317 2.00025 12.435 2.00625C14.9714 2.12538 17.3705 3.19299 19.1568 4.99751C20.9432 6.80204 21.9865 9.21179 22.08 11.7492C22.113 12.9928 21.9112 14.2315 21.485 15.4002L21.482 15.4072Z" fill="#374957"/>
</g>
<defs>
<clipPath id="clip0_1317_20221">
<rect width="24" height="24" fill="white"/>
</clipPath>
</defs>
</svg>
