<svg width="24" height="24" viewBox="0 0 24 24" fill="none" xmlns="http://www.w3.org/2000/svg">
<g clip-path="url(#clip0_1317_20394)">
<path d="M20 7.99845C20.0012 6.4586 19.558 4.95113 18.7235 3.65698C17.8891 2.36283 16.6989 1.33699 15.2958 0.702621C13.8927 0.0682472 12.3363 -0.147711 10.8135 0.0806694C9.29067 0.30905 7.86613 0.972063 6.71084 1.99012C5.55556 3.00818 4.71864 4.33803 4.30054 5.82003C3.88244 7.30203 3.90093 8.8732 4.35379 10.3449C4.80665 11.8167 5.67463 13.1265 6.85355 14.1171C8.03247 15.1077 9.47223 15.737 11 15.9294V18.9984H9C8.73478 18.9984 8.48043 19.1038 8.29289 19.2913C8.10535 19.4789 8 19.7332 8 19.9984C8 20.2637 8.10535 20.518 8.29289 20.7056C8.48043 20.8931 8.73478 20.9984 9 20.9984H11V22.9984C11 23.2637 11.1054 23.518 11.2929 23.7056C11.4804 23.8931 11.7348 23.9984 12 23.9984C12.2652 23.9984 12.5196 23.8931 12.7071 23.7056C12.8946 23.518 13 23.2637 13 22.9984V20.9984H15C15.2652 20.9984 15.5196 20.8931 15.7071 20.7056C15.8946 20.518 16 20.2637 16 19.9984C16 19.7332 15.8946 19.4789 15.7071 19.2913C15.5196 19.1038 15.2652 18.9984 15 18.9984H13V15.9294C14.9315 15.6844 16.7076 14.744 17.9959 13.2843C19.2843 11.8245 19.9968 9.94543 20 7.99845ZM6 7.99845C6 6.81176 6.35189 5.65172 7.01118 4.66503C7.67047 3.67833 8.60754 2.90929 9.7039 2.45517C10.8003 2.00104 12.0067 1.88222 13.1705 2.11373C14.3344 2.34525 15.4035 2.91669 16.2426 3.75581C17.0818 4.59492 17.6532 5.66402 17.8847 6.82791C18.1162 7.99179 17.9974 9.19819 17.5433 10.2945C17.0891 11.3909 16.3201 12.328 15.3334 12.9873C14.3467 13.6466 13.1867 13.9984 12 13.9984C10.4092 13.9969 8.88399 13.3642 7.75911 12.2393C6.63424 11.1145 6.00159 9.58926 6 7.99845Z" fill="#374957"/>
</g>
<defs>
<clipPath id="clip0_1317_20394">
<rect width="24" height="24" fill="white"/>
</clipPath>
</defs>
</svg>
