<svg width="24" height="24" viewBox="0 0 24 24" fill="none" xmlns="http://www.w3.org/2000/svg">
<g clip-path="url(#clip0_1317_20270)">
<path d="M21.4598 4.13401C21.2576 2.97525 20.6528 1.92511 19.7519 1.16878C18.8511 0.412449 17.7121 -0.00147549 16.5358 5.77515e-06H7.45083C6.27366 -0.00178403 5.13372 0.412492 4.23236 1.16966C3.331 1.92683 2.72622 2.97818 2.52484 4.13801L0.0758415 18.138C-0.0499222 18.8566 -0.0169291 19.594 0.172506 20.2984C0.361941 21.0029 0.703229 21.6574 1.17243 22.2159C1.64162 22.7745 2.22736 23.2237 2.88855 23.5319C3.54973 23.8401 4.27035 23.9998 4.99984 24H18.9998C19.7298 24.0001 20.4509 23.8403 21.1126 23.532C21.7742 23.2236 22.3603 22.7741 22.8297 22.215C23.2991 21.656 23.6403 21.0009 23.8295 20.2959C24.0187 19.5909 24.0512 18.8529 23.9248 18.134L21.4598 4.13401ZM21.2998 20.929C21.018 21.2647 20.666 21.5346 20.2686 21.7196C19.8712 21.9046 19.4382 22.0004 18.9998 22H4.99984C4.56201 22 4.12949 21.9042 3.73264 21.7193C3.33579 21.5343 2.98422 21.2648 2.70263 20.9295C2.42103 20.5943 2.21622 20.2015 2.10259 19.7786C1.98895 19.3558 1.96924 18.9133 2.04484 18.482L4.49384 4.48201C4.61577 3.78644 4.97917 3.15618 5.52006 2.70217C6.06095 2.24817 6.74466 1.99952 7.45083 2.00001H16.5358C17.2412 2.00014 17.924 2.24883 18.4642 2.70237C19.0044 3.15591 19.3676 3.78531 19.4898 4.48001L21.9528 18.48C22.0293 18.9111 22.0105 19.3538 21.8976 19.7769C21.7848 20.1999 21.5808 20.5932 21.2998 20.929ZM12.9998 5.00001V7.00001C12.9998 7.26522 12.8945 7.51958 12.7069 7.70711C12.5194 7.89465 12.265 8.00001 11.9998 8.00001C11.7346 8.00001 11.4803 7.89465 11.2927 7.70711C11.1052 7.51958 10.9998 7.26522 10.9998 7.00001V5.00001C10.9998 4.73479 11.1052 4.48044 11.2927 4.2929C11.4803 4.10536 11.7346 4.00001 11.9998 4.00001C12.265 4.00001 12.5194 4.10536 12.7069 4.2929C12.8945 4.48044 12.9998 4.73479 12.9998 5.00001ZM12.9998 11V13C12.9998 13.2652 12.8945 13.5196 12.7069 13.7071C12.5194 13.8946 12.265 14 11.9998 14C11.7346 14 11.4803 13.8946 11.2927 13.7071C11.1052 13.5196 10.9998 13.2652 10.9998 13V11C10.9998 10.7348 11.1052 10.4804 11.2927 10.2929C11.4803 10.1054 11.7346 10 11.9998 10C12.265 10 12.5194 10.1054 12.7069 10.2929C12.8945 10.4804 12.9998 10.7348 12.9998 11ZM12.9998 17V19C12.9998 19.2652 12.8945 19.5196 12.7069 19.7071C12.5194 19.8946 12.265 20 11.9998 20C11.7346 20 11.4803 19.8946 11.2927 19.7071C11.1052 19.5196 10.9998 19.2652 10.9998 19V17C10.9998 16.7348 11.1052 16.4804 11.2927 16.2929C11.4803 16.1054 11.7346 16 11.9998 16C12.265 16 12.5194 16.1054 12.7069 16.2929C12.8945 16.4804 12.9998 16.7348 12.9998 17Z" fill="#374957"/>
</g>
<defs>
<clipPath id="clip0_1317_20270">
<rect width="24" height="24" fill="white"/>
</clipPath>
</defs>
</svg>
