<svg width="24" height="24" viewBox="0 0 24 24" fill="none" xmlns="http://www.w3.org/2000/svg">
<g clip-path="url(#clip0_1317_20276)">
<path d="M23.1936 11.6C22.6623 10.8905 21.9073 10.3807 21.0506 10.153C21.4682 8.93921 21.7767 7.69061 21.9726 6.42202C22.0366 5.96089 21.9927 5.49119 21.8444 5.04991C21.696 4.60862 21.4472 4.2078 21.1176 3.87899C20.7881 3.55018 20.3867 3.30236 19.945 3.15505C19.5034 3.00773 19.0336 2.96493 18.5726 3.03002C18.4466 3.04702 18.0726 3.10202 17.5616 3.20102C17.878 2.50048 18.0279 1.73618 17.9996 0.968019C17.9954 0.836697 17.9654 0.707488 17.9112 0.587771C17.8571 0.468053 17.7799 0.360171 17.6841 0.270284C17.5883 0.180397 17.4757 0.110265 17.3527 0.063893C17.2298 0.0175208 17.0989 -0.00418387 16.9676 1.84318e-05C16.8363 0.00422073 16.7071 0.0342476 16.5874 0.0883848C16.4676 0.142522 16.3598 0.219709 16.2699 0.315539C16.18 0.411369 16.1099 0.523965 16.0635 0.646899C16.0171 0.769833 15.9954 0.900697 15.9996 1.03202C16.0167 1.51509 15.9176 1.99519 15.7106 2.43202C15.566 2.04167 15.3597 1.67705 15.0996 1.35202C14.6576 0.848915 14.0964 0.464669 13.4675 0.234422C12.8386 0.00417394 12.162 -0.0647276 11.4996 0.0340185C10.7733 0.0923195 10.0791 0.358215 9.49961 0.800019C8.84456 0.307212 8.05207 0.0310486 7.23261 0.0100185C6.1928 -0.0907611 5.15542 0.224588 4.34761 0.887019C3.93744 1.25219 3.60627 1.69738 3.37446 2.19522C3.14264 2.69307 3.01508 3.23306 2.99961 3.78202C2.97217 4.66104 3.2281 5.52559 3.72961 6.24802C3.11951 6.77112 2.64592 7.43487 2.34973 8.18195C2.05355 8.92903 1.94368 9.73698 2.02961 10.536C1.23877 10.9767 0.622454 11.6747 0.28302 12.514C-0.0564148 13.3533 -0.09855 14.2835 0.163611 15.15C0.84862 17.5335 2.12359 19.7058 3.87061 21.466C5.54662 23.1003 7.79776 24.0103 10.1386 24H13.8606C16.2012 24.0105 18.4521 23.1004 20.1276 21.466C21.8753 19.7062 23.1506 17.5338 23.8356 15.15C24.0141 14.5494 24.0491 13.9152 23.9376 13.2985C23.826 12.6819 23.5712 12.1001 23.1936 11.6ZM18.8506 5.01002C19.0054 4.98914 19.1629 5.00432 19.3108 5.05437C19.4587 5.10443 19.593 5.188 19.7033 5.29857C19.8136 5.40913 19.8968 5.54369 19.9465 5.69174C19.9961 5.83979 20.0109 5.99732 19.9896 6.15202C19.7799 7.46521 19.4399 8.75424 18.9746 10H16.4136L17.7066 8.70702C17.8888 8.51842 17.9896 8.26581 17.9873 8.00362C17.985 7.74142 17.8798 7.49061 17.6944 7.3052C17.509 7.11979 17.2582 7.01462 16.996 7.01235C16.7338 7.01007 16.4812 7.11086 16.2926 7.29302L13.5856 10H12.0366C11.9636 9.47407 12.0137 8.93834 12.1831 8.43508C12.3525 7.93182 12.6364 7.47479 13.0126 7.10002C13.4396 6.66902 15.0766 5.50002 18.8506 5.01002ZM4.99961 3.84902C5.00562 3.57372 5.06769 3.30253 5.18203 3.05202C5.29637 2.80151 5.46057 2.57694 5.66461 2.39202C6.07719 2.08706 6.58972 1.9492 7.09961 2.00602C7.34589 1.99589 7.59153 2.03797 7.82041 2.12948C8.04928 2.221 8.25621 2.35988 8.42761 2.53702C8.56254 2.68778 8.72777 2.80838 8.9125 2.89092C9.09722 2.97346 9.29729 3.01609 9.49961 3.01602C9.70147 3.01502 9.90086 2.9716 10.0849 2.88856C10.2688 2.80552 10.4333 2.68473 10.5676 2.53402C10.7168 2.37625 10.8957 2.24967 11.0942 2.1616C11.2926 2.07354 11.5066 2.02576 11.7236 2.02102C12.0542 1.96214 12.3942 1.98613 12.7132 2.09083C13.0322 2.19554 13.3203 2.3777 13.5516 2.62102C13.8552 3.00966 14.0136 3.49206 13.9996 3.98502C13.9996 4.05002 13.9996 4.19202 13.9996 4.19202C12.6721 4.67004 11.5381 5.57043 10.7716 6.75502C10.1402 6.00749 9.29999 5.46542 8.35865 5.1982C7.41731 4.93098 6.41764 4.95076 5.48761 5.25502C5.15576 4.86335 4.98177 4.36206 4.99961 3.84902ZM3.99961 10C3.99961 9.20437 4.31568 8.44131 4.87829 7.8787C5.4409 7.31609 6.20396 7.00002 6.99961 7.00002C7.79526 7.00002 8.55832 7.31609 9.12093 7.8787C9.68354 8.44131 9.99961 9.20437 9.99961 10H3.99961ZM21.9156 14.589C21.3181 16.6462 20.2185 18.5225 18.7156 20.049C17.4162 21.3115 15.6723 22.0123 13.8606 22H10.1386C8.32639 22.0119 6.58208 21.3112 5.28161 20.049C3.7787 18.5225 2.67903 16.6462 2.08161 14.589C1.99196 14.2863 1.97457 13.9667 2.03084 13.656C2.08711 13.3453 2.21547 13.0521 2.40561 12.8C2.5901 12.5512 2.83046 12.3491 3.10733 12.2102C3.3842 12.0712 3.68983 11.9992 3.99961 12H19.9996C20.3104 11.9983 20.6172 12.0698 20.8952 12.2088C21.1732 12.3478 21.4145 12.5503 21.5996 12.8C21.7884 13.0528 21.9153 13.3463 21.9702 13.657C22.0251 13.9677 22.0064 14.2869 21.9156 14.589Z" fill="#374957"/>
</g>
<defs>
<clipPath id="clip0_1317_20276">
<rect width="24" height="24" fill="white"/>
</clipPath>
</defs>
</svg>
