<svg width="24" height="24" viewBox="0 0 24 24" fill="none" xmlns="http://www.w3.org/2000/svg">
<g clip-path="url(#clip0_1317_20082)">
<path d="M23.2711 9.41934C22.3683 7.94106 21.2296 6.62059 19.9001 5.51034L22.7001 2.71034C22.8822 2.52173 22.983 2.26913 22.9807 2.00694C22.9784 1.74474 22.8733 1.49393 22.6879 1.30852C22.5025 1.12311 22.2516 1.01794 21.9895 1.01566C21.7273 1.01338 21.4747 1.11418 21.2861 1.29634L18.2411 4.34534C16.3534 3.22416 14.1955 2.6398 12.0001 2.65534C5.80905 2.65534 2.28105 6.89334 0.729051 9.41934C0.249579 10.1948 -0.00439453 11.0886 -0.00439453 12.0003C-0.00439453 12.9121 0.249579 13.8058 0.729051 14.5813C1.63181 16.0596 2.77054 17.3801 4.10005 18.4903L1.30005 21.2903C1.20454 21.3826 1.12836 21.4929 1.07595 21.6149C1.02354 21.7369 0.995955 21.8682 0.994801 22.0009C0.993647 22.1337 1.01895 22.2654 1.06923 22.3883C1.11951 22.5112 1.19376 22.6228 1.28766 22.7167C1.38155 22.8106 1.4932 22.8849 1.6161 22.9352C1.73899 22.9854 1.87067 23.0107 2.00345 23.0096C2.13623 23.0084 2.26745 22.9808 2.38946 22.9284C2.51146 22.876 2.6218 22.7998 2.71405 22.7043L5.76605 19.6523C7.65132 20.7733 9.80672 21.3587 12.0001 21.3453C18.1911 21.3453 21.7191 17.1073 23.2711 14.5813C23.7505 13.8058 24.0045 12.9121 24.0045 12.0003C24.0045 11.0886 23.7505 10.1948 23.2711 9.41934ZM2.43305 13.5343C2.14819 13.0734 1.9973 12.5422 1.9973 12.0003C1.9973 11.4585 2.14819 10.9273 2.43305 10.4663C3.76705 8.30034 6.78205 4.65534 12.0001 4.65534C13.6603 4.64604 15.2973 5.04617 16.7661 5.82034L14.7531 7.83334C13.793 7.19594 12.642 6.91033 11.4953 7.02498C10.3486 7.13963 9.27692 7.64748 8.46205 8.46234C7.64719 9.2772 7.13935 10.3489 7.0247 11.4956C6.91005 12.6422 7.19565 13.7933 7.83305 14.7533L5.52305 17.0633C4.29815 16.0731 3.25289 14.8793 2.43305 13.5343ZM15.0001 12.0003C15.0001 12.796 14.684 13.559 14.1214 14.1217C13.5588 14.6843 12.7957 15.0003 12.0001 15.0003C11.5546 14.9986 11.1152 14.896 10.7151 14.7003L14.7001 10.7153C14.8958 11.1155 14.9983 11.5548 15.0001 12.0003ZM9.00005 12.0003C9.00005 11.2047 9.31612 10.4416 9.87873 9.87902C10.4413 9.31641 11.2044 9.00034 12.0001 9.00034C12.4455 9.00206 12.8849 9.10463 13.2851 9.30034L9.30005 13.2853C9.10434 12.8851 9.00178 12.4458 9.00005 12.0003ZM21.5671 13.5343C20.2331 15.7003 17.2181 19.3453 12.0001 19.3453C10.3398 19.3546 8.70282 18.9545 7.23405 18.1803L9.24705 16.1673C10.2071 16.8047 11.3581 17.0903 12.5048 16.9757C13.6515 16.861 14.7232 16.3532 15.538 15.5383C16.3529 14.7235 16.8608 13.6518 16.9754 12.5051C17.0901 11.3584 16.8044 10.2074 16.1671 9.24734L18.4771 6.93734C19.7019 7.92762 20.7472 9.12138 21.5671 10.4663C21.8519 10.9273 22.0028 11.4585 22.0028 12.0003C22.0028 12.5422 21.8519 13.0734 21.5671 13.5343Z" fill="#374957"/>
</g>
<defs>
<clipPath id="clip0_1317_20082">
<rect width="24" height="24" fill="white"/>
</clipPath>
</defs>
</svg>
