<svg width="24" height="24" viewBox="0 0 24 24" fill="none" xmlns="http://www.w3.org/2000/svg">
<g clip-path="url(#clip0_1317_20289)">
<path d="M12 15.0007C11.7348 15.0007 11.4804 14.8954 11.2929 14.7078C11.1054 14.5203 11 14.2659 11 14.0007V6.00073C11 5.73551 11.1054 5.48116 11.2929 5.29362C11.4804 5.10608 11.7348 5.00073 12 5.00073C12.2652 5.00073 12.5196 5.10608 12.7071 5.29362C12.8946 5.48116 13 5.73551 13 6.00073V14.0007C13 14.2659 12.8946 14.5203 12.7071 14.7078C12.5196 14.8954 12.2652 15.0007 12 15.0007ZM12.793 23.7607C14.953 22.8927 22 19.4797 22 12.0437V6.87273C22.0011 5.82174 21.6706 4.7972 21.0554 3.94504C20.4403 3.09288 19.5719 2.45657 18.574 2.12673L12.315 0.0517262C12.1107 -0.0172421 11.8893 -0.0172421 11.685 0.0517262L5.426 2.12673C4.42811 2.45657 3.55975 3.09288 2.9446 3.94504C2.32946 4.7972 1.99889 5.82174 2 6.87273V12.0437C2 18.6057 9.005 22.6197 11.153 23.6937C11.4247 23.8234 11.7084 23.9262 12 24.0007C12.2712 23.9453 12.5366 23.8649 12.793 23.7607ZM17.944 4.02473C18.5425 4.22314 19.0633 4.6051 19.4324 5.11636C19.8015 5.62762 20.0001 6.24217 20 6.87273V12.0437C20 18.2267 13.913 21.1547 12.047 21.9047C10.159 20.9607 4 17.4597 4 12.0437V6.87273C3.99992 6.24217 4.19852 5.62762 4.56761 5.11636C4.93669 4.6051 5.45748 4.22314 6.056 4.02473L12 2.05473L17.944 4.02473ZM12 17.0007C11.8022 17.0007 11.6089 17.0594 11.4444 17.1693C11.28 17.2791 11.1518 17.4353 11.0761 17.618C11.0004 17.8008 10.9806 18.0018 11.0192 18.1958C11.0578 18.3898 11.153 18.568 11.2929 18.7078C11.4327 18.8477 11.6109 18.9429 11.8049 18.9815C11.9989 19.0201 12.2 19.0003 12.3827 18.9246C12.5654 18.8489 12.7216 18.7207 12.8315 18.5563C12.9414 18.3918 13 18.1985 13 18.0007C13 17.7355 12.8946 17.4812 12.7071 17.2936C12.5196 17.1061 12.2652 17.0007 12 17.0007Z" fill="#374957"/>
</g>
<defs>
<clipPath id="clip0_1317_20289">
<rect width="24" height="24" fill="white"/>
</clipPath>
</defs>
</svg>
