<svg width="24" height="24" viewBox="0 0 24 24" fill="none" xmlns="http://www.w3.org/2000/svg">
<path d="M10.4799 19.0008C10.2175 18.9997 9.96612 18.8955 9.77986 18.7108L5.18986 14.1208C4.62806 13.5583 4.3125 12.7958 4.3125 12.0008C4.3125 11.2058 4.62806 10.4433 5.18986 9.88079L9.77986 5.29079C9.96722 5.10454 10.2207 5 10.4849 5C10.749 5 11.0025 5.10454 11.1899 5.29079C11.2836 5.38376 11.358 5.49436 11.4088 5.61622C11.4595 5.73808 11.4857 5.86878 11.4857 6.00079C11.4857 6.1328 11.4595 6.26351 11.4088 6.38537C11.358 6.50723 11.2836 6.61783 11.1899 6.71079L6.59986 11.2908C6.50613 11.3838 6.43174 11.4944 6.38097 11.6162C6.3302 11.7381 6.30406 11.8688 6.30406 12.0008C6.30406 12.1328 6.3302 12.2635 6.38097 12.3854C6.43174 12.5072 6.50613 12.6178 6.59986 12.7108L11.1899 17.2908C11.2836 17.3838 11.358 17.4944 11.4088 17.6162C11.4595 17.7381 11.4857 17.8688 11.4857 18.0008C11.4857 18.1328 11.4595 18.2635 11.4088 18.3854C11.358 18.5072 11.2836 18.6178 11.1899 18.7108C11.0964 18.8035 10.9856 18.8768 10.8638 18.9266C10.7419 18.9763 10.6115 19.0016 10.4799 19.0008Z" fill="#374957"/>
<path d="M17.4797 19.0008C17.2173 18.9997 16.9659 18.8955 16.7797 18.7108L10.7797 12.7108C10.686 12.6178 10.6116 12.5072 10.5608 12.3854C10.51 12.2635 10.4839 12.1328 10.4839 12.0008C10.4839 11.8688 10.51 11.7381 10.5608 11.6162C10.6116 11.4944 10.686 11.3838 10.7797 11.2908L16.7797 5.29079C16.967 5.10454 17.2205 5 17.4847 5C17.7489 5 18.0023 5.10454 18.1897 5.29079C18.2834 5.38376 18.3578 5.49436 18.4086 5.61622C18.4593 5.73808 18.4855 5.86878 18.4855 6.00079C18.4855 6.1328 18.4593 6.26351 18.4086 6.38537C18.3578 6.50723 18.2834 6.61783 18.1897 6.71079L12.8997 12.0008L18.1897 17.2908C18.2834 17.3838 18.3578 17.4944 18.4086 17.6162C18.4593 17.7381 18.4855 17.8688 18.4855 18.0008C18.4855 18.1328 18.4593 18.2635 18.4086 18.3854C18.3578 18.5072 18.2834 18.6178 18.1897 18.7108C18.0962 18.8035 17.9854 18.8768 17.8636 18.9266C17.7417 18.9763 17.6113 19.0016 17.4797 19.0008Z" fill="#374957"/>
</svg>
