<svg width="24" height="24" viewBox="0 0 24 24" fill="none" xmlns="http://www.w3.org/2000/svg">
<path d="M15.0001 17.0006C15.0001 17.2658 14.8947 17.5201 14.7072 17.7077C14.5197 17.8952 14.2653 18.0006 14.0001 18.0006H10.0001C9.73486 18.0006 9.48051 17.8952 9.29297 17.7077C9.10544 17.5201 9.00008 17.2658 9.00008 17.0006C9.00008 16.7353 9.10544 16.481 9.29297 16.2934C9.48051 16.1059 9.73486 16.0006 10.0001 16.0006H14.0001C14.2653 16.0006 14.5197 16.1059 14.7072 16.2934C14.8947 16.481 15.0001 16.7353 15.0001 17.0006ZM14.7071 7.29357C14.5196 7.1061 14.2652 7.00078 14.0001 7.00078C13.7349 7.00078 13.4806 7.1061 13.2931 7.29357L12.0001 8.58657L10.7071 7.29357C10.6148 7.19806 10.5045 7.12188 10.3825 7.06947C10.2605 7.01706 10.1293 6.98947 9.99648 6.98832C9.8637 6.98717 9.73202 7.01247 9.60913 7.06275C9.48623 7.11303 9.37458 7.18728 9.28069 7.28117C9.18679 7.37507 9.11254 7.48672 9.06226 7.60961C9.01198 7.73251 8.98668 7.86419 8.98783 7.99697C8.98898 8.12975 9.01657 8.26097 9.06898 8.38297C9.12139 8.50498 9.19757 8.61532 9.29308 8.70757L10.5861 10.0006L9.29308 11.2936C9.19757 11.3858 9.12139 11.4962 9.06898 11.6182C9.01657 11.7402 8.98898 11.8714 8.98783 12.0042C8.98668 12.1369 9.01198 12.2686 9.06226 12.3915C9.11254 12.5144 9.18679 12.6261 9.28069 12.72C9.37458 12.8138 9.48623 12.8881 9.60913 12.9384C9.73202 12.9887 9.8637 13.014 9.99648 13.0128C10.1293 13.0117 10.2605 12.9841 10.3825 12.9317C10.5045 12.8793 10.6148 12.8031 10.7071 12.7076L12.0001 11.4146L13.2931 12.7076C13.4817 12.8897 13.7343 12.9905 13.9965 12.9882C14.2587 12.986 14.5095 12.8808 14.6949 12.6954C14.8803 12.51 14.9855 12.2592 14.9878 11.997C14.99 11.7348 14.8892 11.4822 14.7071 11.2936L13.4141 10.0006L14.7071 8.70757C14.8946 8.52004 14.9999 8.26573 14.9999 8.00057C14.9999 7.7354 14.8946 7.4811 14.7071 7.29357ZM22.0001 16.0006H18.0001C17.7349 16.0006 17.4805 16.1059 17.293 16.2934C17.1054 16.481 17.0001 16.7353 17.0001 17.0006C17.0001 17.2658 17.1054 17.5201 17.293 17.7077C17.4805 17.8952 17.7349 18.0006 18.0001 18.0006H22.0001C22.2653 18.0006 22.5197 17.8952 22.7072 17.7077C22.8947 17.5201 23.0001 17.2658 23.0001 17.0006C23.0001 16.7353 22.8947 16.481 22.7072 16.2934C22.5197 16.1059 22.2653 16.0006 22.0001 16.0006ZM21.4141 10.0006L22.7071 8.70757C22.8026 8.61532 22.8788 8.50498 22.9312 8.38297C22.9836 8.26097 23.0112 8.12975 23.0123 7.99697C23.0135 7.86419 22.9882 7.73251 22.9379 7.60961C22.8876 7.48672 22.8134 7.37507 22.7195 7.28117C22.6256 7.18728 22.5139 7.11303 22.391 7.06275C22.2681 7.01247 22.1365 6.98717 22.0037 6.98832C21.8709 6.98947 21.7397 7.01706 21.6177 7.06947C21.4957 7.12188 21.3853 7.19806 21.2931 7.29357L20.0001 8.58657L18.7071 7.29357C18.6148 7.19806 18.5045 7.12188 18.3825 7.06947C18.2605 7.01706 18.1293 6.98947 17.9965 6.98832C17.8637 6.98717 17.732 7.01247 17.6091 7.06275C17.4862 7.11303 17.3746 7.18728 17.2807 7.28117C17.1868 7.37507 17.1125 7.48672 17.0623 7.60961C17.012 7.73251 16.9867 7.86419 16.9878 7.99697C16.989 8.12975 17.0166 8.26097 17.069 8.38297C17.1214 8.50498 17.1976 8.61532 17.2931 8.70757L18.5861 10.0006L17.2931 11.2936C17.1976 11.3858 17.1214 11.4962 17.069 11.6182C17.0166 11.7402 16.989 11.8714 16.9878 12.0042C16.9867 12.1369 17.012 12.2686 17.0623 12.3915C17.1125 12.5144 17.1868 12.6261 17.2807 12.72C17.3746 12.8138 17.4862 12.8881 17.6091 12.9384C17.732 12.9887 17.8637 13.014 17.9965 13.0128C18.1293 13.0117 18.2605 12.9841 18.3825 12.9317C18.5045 12.8793 18.6148 12.8031 18.7071 12.7076L20.0001 11.4146L21.2931 12.7076C21.4817 12.8897 21.7343 12.9905 21.9965 12.9882C22.2587 12.986 22.5095 12.8808 22.6949 12.6954C22.8803 12.51 22.9855 12.2592 22.9878 11.997C22.99 11.7348 22.8892 11.4822 22.7071 11.2936L21.4141 10.0006ZM6.00008 16.0006H2.00008C1.73486 16.0006 1.48051 16.1059 1.29297 16.2934C1.10544 16.481 1.00008 16.7353 1.00008 17.0006C1.00008 17.2658 1.10544 17.5201 1.29297 17.7077C1.48051 17.8952 1.73486 18.0006 2.00008 18.0006H6.00008C6.2653 18.0006 6.51965 17.8952 6.70719 17.7077C6.89472 17.5201 7.00008 17.2658 7.00008 17.0006C7.00008 16.7353 6.89472 16.481 6.70719 16.2934C6.51965 16.1059 6.2653 16.0006 6.00008 16.0006ZM6.70708 7.29357C6.51955 7.1061 6.26525 7.00078 6.00008 7.00078C5.73492 7.00078 5.48061 7.1061 5.29308 7.29357L4.00008 8.58657L2.70708 7.29357C2.61483 7.19806 2.50449 7.12188 2.38249 7.06947C2.26048 7.01706 2.12926 6.98947 1.99648 6.98832C1.8637 6.98717 1.73202 7.01247 1.60913 7.06275C1.48623 7.11303 1.37458 7.18728 1.28069 7.28117C1.18679 7.37507 1.11254 7.48672 1.06226 7.60961C1.01198 7.73251 0.986677 7.86419 0.987831 7.99697C0.988985 8.12975 1.01657 8.26097 1.06898 8.38297C1.12139 8.50498 1.19757 8.61532 1.29308 8.70757L2.58608 10.0006L1.29308 11.2936C1.19757 11.3858 1.12139 11.4962 1.06898 11.6182C1.01657 11.7402 0.988985 11.8714 0.987831 12.0042C0.986677 12.1369 1.01198 12.2686 1.06226 12.3915C1.11254 12.5144 1.18679 12.6261 1.28069 12.72C1.37458 12.8138 1.48623 12.8881 1.60913 12.9384C1.73202 12.9887 1.8637 13.014 1.99648 13.0128C2.12926 13.0117 2.26048 12.9841 2.38249 12.9317C2.50449 12.8793 2.61483 12.8031 2.70708 12.7076L4.00008 11.4146L5.29308 12.7076C5.38533 12.8031 5.49567 12.8793 5.61768 12.9317C5.73968 12.9841 5.8709 13.0117 6.00368 13.0128C6.13646 13.014 6.26814 12.9887 6.39104 12.9384C6.51393 12.8881 6.62558 12.8138 6.71948 12.72C6.81337 12.6261 6.88762 12.5144 6.9379 12.3915C6.98818 12.2686 7.01349 12.1369 7.01233 12.0042C7.01118 11.8714 6.98359 11.7402 6.93118 11.6182C6.87877 11.4962 6.80259 11.3858 6.70708 11.2936L5.41408 10.0006L6.70708 8.70757C6.89455 8.52004 6.99987 8.26573 6.99987 8.00057C6.99987 7.7354 6.89455 7.4811 6.70708 7.29357Z" fill="#374957"/>
</svg>
