<svg width="24" height="24" viewBox="0 0 24 24" fill="none" xmlns="http://www.w3.org/2000/svg">
<g clip-path="url(#clip0_1317_20215)">
<path d="M23 19.9989H14.816C14.5135 19.1519 13.847 18.4854 13 18.1829V14.0209C14.344 14.0209 15.52 14.0089 16.095 13.9979C16.454 13.9911 16.8112 13.9472 17.161 13.8669C18.9986 13.4393 20.4334 12.0044 20.861 10.1669C21.489 7.53406 19.9136 4.87808 17.302 4.16689L17.13 4.12887C16.83 4.06189 16.6791 4.02889 16.542 3.69987C15.273 0.638795 11.7627 -0.813955 8.70159 0.455092C6.94144 1.1848 5.63255 2.7072 5.175 4.55684C4.95848 5.45267 4.93903 6.38478 5.118 7.28886C3.34237 8.05287 2.52234 10.1116 3.28631 11.8872C3.70566 12.8618 4.54448 13.5936 5.56697 13.8769C5.83908 13.9491 6.11855 13.9901 6.39998 13.9989C7.05497 14.0169 8.934 14.0249 10.894 14.0249H11V18.1839C10.1533 18.4862 9.48675 19.1523 9.18398 19.9989H0.999984C0.447703 19.9989 0 20.4466 0 20.9989C0 21.5511 0.447703 21.9988 0.999984 21.9988H9.18398C9.72581 23.5541 11.4258 24.3756 12.981 23.8338C13.8407 23.5343 14.5165 22.8585 14.816 21.9988H23C23.5522 21.9988 24 21.5511 24 20.9989C24 20.4466 23.5523 19.9989 23 19.9989ZM6.456 11.9989C6.32761 11.9943 6.20011 11.9751 6.07598 11.9419C5.58164 11.8032 5.19516 11.4171 5.05598 10.9228C4.84317 10.1939 5.20861 9.42097 5.907 9.12284C6.80508 8.74273 7.30205 7.77406 7.08698 6.82283C6.63108 4.66123 8.01384 2.53934 10.1754 2.08348C10.2476 2.06825 10.3201 2.05503 10.393 2.04383C10.588 2.015 10.7849 1.99995 10.982 1.99883C12.6069 1.9932 14.0748 2.96801 14.7 4.46783C15.053 5.34505 15.8476 5.96694 16.784 6.09884C18.3549 6.53389 19.2981 8.13617 18.916 9.72083C18.6527 10.8068 17.8029 11.6535 16.716 11.9128C16.5002 11.9634 16.2796 11.9909 16.058 11.9948C15.365 12.0079 7.21102 12.0189 6.456 11.9989ZM12 21.9988C11.4477 21.9988 11 21.5511 11 20.9989C11 20.4466 11.4477 19.9989 12 19.9989C12.5523 19.9989 13 20.4466 13 20.9989C13 21.5511 12.5523 21.9988 12 21.9988Z" fill="#374957"/>
</g>
<defs>
<clipPath id="clip0_1317_20215">
<rect width="24" height="24" fill="white"/>
</clipPath>
</defs>
</svg>
