<svg width="24" height="24" viewBox="0 0 24 24" fill="none" xmlns="http://www.w3.org/2000/svg">
<g clip-path="url(#clip0_1317_20007)">
<path d="M24 11.5005C23.9995 10.8108 23.7952 10.1367 23.4129 9.5628C23.0306 8.98886 22.4872 8.54065 21.851 8.27446C21.445 5.95682 20.2348 3.85656 18.4332 2.34313C16.6316 0.829688 14.354 0 12.001 0C9.64811 0 7.37053 0.829688 5.56892 2.34313C3.7673 3.85656 2.55706 5.95682 2.15105 8.27446C1.42505 8.57989 0.823296 9.12127 0.443092 9.81106C0.0628883 10.5008 -0.0735387 11.2987 0.0558719 12.0756C0.185283 12.8526 0.572965 13.5631 1.15623 14.0924C1.73949 14.6217 2.48424 14.9388 3.27005 14.9925C3.78654 16.0885 4.487 17.088 5.34105 17.9475C4.08963 19.3139 3.29544 21.0365 3.06905 22.8755C3.05266 23.0058 3.06211 23.1381 3.09687 23.2648C3.13163 23.3915 3.19101 23.5101 3.27162 23.6138C3.35222 23.7175 3.45248 23.8044 3.56666 23.8693C3.68083 23.9343 3.80669 23.9761 3.93705 23.9925C3.97819 23.9975 4.01959 24.0001 4.06105 24.0005C4.30441 24.0002 4.53933 23.9112 4.72176 23.7501C4.90419 23.589 5.02163 23.3669 5.05205 23.1255C5.23335 21.6756 5.86866 20.3203 6.86705 19.2535C8.35618 20.3527 10.1495 20.963 12 21.0005C13.8451 20.9627 15.6332 20.3549 17.119 19.2605C18.1131 20.3255 18.7458 21.6769 18.927 23.1225C18.9572 23.3641 19.0746 23.5864 19.257 23.7477C19.4395 23.909 19.6745 23.9981 19.918 23.9985C19.9598 23.9983 20.0016 23.9956 20.043 23.9905C20.3061 23.9575 20.5453 23.8214 20.7081 23.6122C20.8709 23.4029 20.9439 23.1375 20.911 22.8745C20.6863 21.0401 19.896 19.3213 18.65 17.9565C19.5088 17.0943 20.2131 16.0911 20.732 14.9905C21.6178 14.9316 22.4481 14.5384 23.0548 13.8904C23.6616 13.2425 23.9995 12.3882 24 11.5005ZM20.248 12.9735C20.0148 12.9307 19.774 12.9729 19.5691 13.0923C19.3642 13.2117 19.2088 13.4005 19.131 13.6245C18.215 16.2225 15.13 19.0005 12 19.0005C8.87005 19.0005 5.78505 16.2205 4.86905 13.6225C4.79108 13.3986 4.63567 13.2099 4.43084 13.0905C4.22602 12.9712 3.98527 12.9289 3.75205 12.9715C3.66894 12.9878 3.58468 12.9975 3.50005 13.0005C3.12883 12.996 2.77245 12.8541 2.49983 12.6021C2.22721 12.3501 2.05771 12.006 2.02412 11.6363C1.99053 11.2666 2.09524 10.8975 2.31799 10.6005C2.54074 10.3036 2.86571 10.0997 3.23005 10.0285C3.44266 9.98992 3.63707 9.88354 3.78417 9.72527C3.93127 9.56699 4.02315 9.36532 4.04605 9.15046C4.1796 7.87177 4.62085 6.64445 5.33207 5.57344C6.04329 4.50243 7.00331 3.61961 8.13005 3.00046C7.96631 3.63656 7.95876 4.30281 8.10805 4.94246C8.31135 5.78835 8.7849 6.5449 9.45691 7.09742C10.1289 7.64995 10.9627 7.96831 11.832 8.00427C12.7012 8.04022 13.5585 7.7918 14.2738 7.29667C14.9892 6.80153 15.5236 6.08667 15.796 5.26046C15.8405 5.11369 15.8497 4.95852 15.8231 4.80751C15.7964 4.6565 15.7346 4.51389 15.6425 4.39121C15.5505 4.26853 15.4309 4.16923 15.2934 4.10135C15.1559 4.03347 15.0044 3.9989 14.851 4.00046H14.7C14.5161 4.00648 14.3389 4.07088 14.194 4.18431C14.0491 4.29775 13.944 4.45436 13.894 4.63146C13.7778 4.98107 13.5673 5.29178 13.2856 5.52931C13.004 5.76684 12.6622 5.92196 12.298 5.97755C11.9338 6.03315 11.5613 5.98706 11.2216 5.84437C10.8819 5.70168 10.5883 5.46794 10.373 5.16893C10.1578 4.86992 10.0293 4.51727 10.0018 4.14987C9.97426 3.78247 10.0488 3.41461 10.2171 3.08686C10.3853 2.75912 10.6409 2.48423 10.9555 2.29253C11.2702 2.10082 11.6316 1.99975 12 2.00046C13.9759 1.99573 15.8832 2.72436 17.3526 4.04525C18.822 5.36613 19.749 7.18529 19.954 9.15046C19.9769 9.36532 20.0688 9.56699 20.2159 9.72527C20.363 9.88354 20.5574 9.98992 20.77 10.0285C21.1344 10.0997 21.4594 10.3036 21.6821 10.6005C21.9049 10.8975 22.0096 11.2666 21.976 11.6363C21.9424 12.006 21.7729 12.3501 21.5003 12.6021C21.2276 12.8541 20.8713 12.996 20.5 13.0005C20.4155 12.9981 20.3312 12.9891 20.248 12.9735Z" fill="#374957"/>
<path d="M9.5 13C10.3284 13 11 12.3284 11 11.5C11 10.6716 10.3284 10 9.5 10C8.67157 10 8 10.6716 8 11.5C8 12.3284 8.67157 13 9.5 13Z" fill="#374957"/>
<path d="M14.5 13C15.3284 13 16 12.3284 16 11.5C16 10.6716 15.3284 10 14.5 10C13.6716 10 13 10.6716 13 11.5C13 12.3284 13.6716 13 14.5 13Z" fill="#374957"/>
</g>
<defs>
<clipPath id="clip0_1317_20007">
<rect width="24" height="24" fill="white"/>
</clipPath>
</defs>
</svg>
