<svg width="24" height="24" viewBox="0 0 24 24" fill="none" xmlns="http://www.w3.org/2000/svg">
<g clip-path="url(#clip0_1317_20253)">
<path d="M13 23.9986C11.4092 23.997 9.88399 23.3644 8.75911 22.2395C7.63424 21.1146 7.00159 19.5894 7 17.9986C7 16.4386 8.2 13.9536 10.552 10.6106C10.8313 10.2216 11.1991 9.90473 11.6252 9.68613C12.0512 9.46753 12.5232 9.35352 13.002 9.35352C13.4808 9.35352 13.9528 9.46753 14.3788 9.68613C14.8049 9.90473 15.1727 10.2216 15.452 10.6106C17.805 13.9536 19 16.4386 19 17.9986C18.9984 19.5894 18.3658 21.1146 17.2409 22.2395C16.116 23.3644 14.5908 23.997 13 23.9986ZM13 11.3416C12.8404 11.3404 12.6829 11.3782 12.5412 11.4518C12.3995 11.5253 12.2779 11.6324 12.187 11.7636C9.311 15.8426 9 17.4826 9 17.9986C9 19.0595 9.42143 20.0769 10.1716 20.827C10.9217 21.5772 11.9391 21.9986 13 21.9986C14.0609 21.9986 15.0783 21.5772 15.8284 20.827C16.5786 20.0769 17 19.0595 17 17.9986C17 17.4826 16.689 15.8426 13.813 11.7636C13.7221 11.6324 13.6005 11.5253 13.4588 11.4518C13.3171 11.3782 13.1596 11.3404 13 11.3416Z" fill="#374957"/>
<path d="M5 11C3.67441 10.9984 2.40356 10.4711 1.46622 9.5338C0.528882 8.59646 0.00158786 7.32561 0 6.00002C0 4.74002 0.842 3.14502 2.574 1.12302C2.87441 0.773767 3.24669 0.493497 3.66538 0.301364C4.08408 0.109231 4.53932 0.00976563 5 0.00976562C5.46068 0.00976563 5.91592 0.109231 6.33462 0.301364C6.75331 0.493497 7.12559 0.773767 7.426 1.12302C9.158 3.14302 10 4.73802 10 6.00002C9.99841 7.32561 9.47112 8.59646 8.53378 9.5338C7.59644 10.4711 6.32559 10.9984 5 11ZM5 2.00002C4.8273 1.99917 4.65655 2.03647 4.49994 2.10924C4.34333 2.18202 4.20471 2.28848 4.094 2.42102C2.151 4.68902 2 5.73202 2 6.00002C2 6.79567 2.31607 7.55873 2.87868 8.12134C3.44129 8.68395 4.20435 9.00002 5 9.00002C5.79565 9.00002 6.55871 8.68395 7.12132 8.12134C7.68393 7.55873 8 6.79567 8 6.00002C8 5.73402 7.849 4.69102 5.906 2.42402C5.79567 2.29082 5.6572 2.18372 5.50055 2.11041C5.3439 2.0371 5.17296 1.9994 5 2.00002Z" fill="#374957"/>
<path d="M19.5 9.96392C18.3069 9.96259 17.1631 9.48806 16.3195 8.64444C15.4759 7.80081 15.0013 6.65699 15 5.46392C15 4.37292 15.7 2.95792 17.146 1.13792C17.429 0.785777 17.7874 0.501616 18.1948 0.306369C18.6022 0.111122 19.0482 0.00976563 19.5 0.00976562C19.9518 0.00976562 20.3978 0.111122 20.8052 0.306369C21.2126 0.501616 21.571 0.785777 21.854 1.13792C23.3 2.95792 24 4.37292 24 5.46392C23.9987 6.65699 23.5241 7.80081 22.6805 8.64444C21.8369 9.48806 20.6931 9.96259 19.5 9.96392ZM19.5 1.99992C19.3485 1.99968 19.199 2.03384 19.0627 2.09985C18.9263 2.16585 18.8068 2.26196 18.713 2.38092C17.123 4.38492 17 5.24692 17 5.46392C17 6.12696 17.2634 6.76285 17.7322 7.23169C18.2011 7.70053 18.837 7.96392 19.5 7.96392C20.163 7.96392 20.7989 7.70053 21.2678 7.23169C21.7366 6.76285 22 6.12696 22 5.46392C22 5.24692 21.877 4.38492 20.287 2.38192C20.1933 2.26277 20.0738 2.16647 19.9375 2.1003C19.8011 2.03412 19.6516 1.99979 19.5 1.99992Z" fill="#374957"/>
</g>
<defs>
<clipPath id="clip0_1317_20253">
<rect width="24" height="24" fill="white"/>
</clipPath>
</defs>
</svg>
