<svg width="24" height="24" viewBox="0 0 24 24" fill="none" xmlns="http://www.w3.org/2000/svg">
<g clip-path="url(#clip0_1317_20140)">
<path d="M17.5 1.91602C16.3739 1.93353 15.2724 2.24787 14.3067 2.82729C13.341 3.4067 12.5453 4.23068 12 5.21602C11.4546 4.23068 10.6589 3.4067 9.6932 2.82729C8.7275 2.24787 7.62601 1.93353 6.49996 1.91602C4.7049 1.99401 3.01366 2.77927 1.79574 4.10025C0.577818 5.42123 -0.0677922 7.17054 -4.17093e-05 8.96602C-4.17093e-05 13.513 4.78596 18.479 8.79996 21.846C9.69618 22.5991 10.8293 23.012 12 23.012C13.1706 23.012 14.3037 22.5991 15.2 21.846C19.214 18.479 24 13.513 24 8.96602C24.0677 7.17054 23.4221 5.42123 22.2042 4.10025C20.9863 2.77927 19.295 1.99401 17.5 1.91602ZM13.915 20.316C13.3789 20.7674 12.7007 21.0149 12 21.0149C11.2992 21.0149 10.621 20.7674 10.085 20.316C4.94696 16.005 1.99996 11.869 1.99996 8.96602C1.9316 7.70073 2.36632 6.45975 3.20932 5.51372C4.05232 4.56769 5.23519 3.99337 6.49996 3.91602C7.76472 3.99337 8.9476 4.56769 9.7906 5.51372C10.6336 6.45975 11.0683 7.70073 11 8.96602C11 9.23123 11.1053 9.48559 11.2929 9.67312C11.4804 9.86066 11.7347 9.96602 12 9.96602C12.2652 9.96602 12.5195 9.86066 12.7071 9.67312C12.8946 9.48559 13 9.23123 13 8.96602C12.9316 7.70073 13.3663 6.45975 14.2093 5.51372C15.0523 4.56769 16.2352 3.99337 17.5 3.91602C18.7647 3.99337 19.9476 4.56769 20.7906 5.51372C21.6336 6.45975 22.0683 7.70073 22 8.96602C22 11.869 19.053 16.005 13.915 20.312V20.316Z" fill="#374957"/>
</g>
<defs>
<clipPath id="clip0_1317_20140">
<rect width="24" height="24" fill="white"/>
</clipPath>
</defs>
</svg>
