<svg width="24" height="24" viewBox="0 0 24 24" fill="none" xmlns="http://www.w3.org/2000/svg">
<g clip-path="url(#clip0_1317_20036)">
<path d="M23.63 3.845C23.4429 3.584 23.1965 3.37125 22.911 3.22432C22.6254 3.07739 22.3091 3.0005 21.988 3H18.444C18.963 2.153 19.544 0.108 18 0C17.7348 0 17.4804 0.105357 17.2929 0.292893C17.1053 0.48043 17 0.734784 17 1C17 1.53043 16.7893 2.03914 16.4142 2.41421C16.0391 2.78929 15.5304 3 15 3H8.99997C8.46954 3 7.96083 2.78929 7.58576 2.41421C7.21069 2.03914 6.99997 1.53043 6.99997 1C6.99997 0.734784 6.89462 0.48043 6.70708 0.292893C6.51954 0.105357 6.26519 0 5.99997 0C4.45197 0.109 5.03797 2.152 5.55597 3H2.01197C1.69658 3.00037 1.38571 3.07503 1.10454 3.21794C0.823378 3.36084 0.57983 3.56796 0.393629 3.82253C0.207428 4.0771 0.0838111 4.37194 0.0327929 4.68319C-0.0182254 4.99443 0.00478989 5.31331 0.0999743 5.614C0.643607 7.08687 1.67328 8.33031 3.01897 9.139C3.01897 9.174 6.01897 21.204 6.01897 21.204C6.06915 21.961 6.40483 22.6707 6.95819 23.1898C7.51155 23.7088 8.24131 23.9984 8.99997 24H15C15.7589 23.9978 16.4888 23.7074 17.0418 23.1876C17.5948 22.6678 17.9298 21.9574 17.979 21.2C17.979 21.2 20.979 9.17 20.979 9.135C22.3245 8.32791 23.3549 7.08632 23.9 5.615C24.0007 5.32001 24.0288 5.00508 23.9818 4.69693C23.9348 4.38879 23.8141 4.09654 23.63 3.845ZM18.38 7.962C17.6925 7.92529 17.0047 8.02793 16.3579 8.26374C15.7111 8.49956 15.1187 8.8637 14.6161 9.33427C14.1136 9.80484 13.7114 10.3721 13.4337 11.0021C13.156 11.632 13.0084 12.3116 13 13V18H11V13C10.9915 12.3116 10.844 11.632 10.5663 11.0021C10.2885 10.3721 9.88633 9.80484 9.38381 9.33427C8.88129 8.8637 8.28884 8.49956 7.64204 8.26374C6.99524 8.02793 6.30744 7.92529 5.61997 7.962C6.31296 6.79446 7.23966 5.78265 8.34197 4.99L15.642 5C16.7499 5.78706 17.6823 6.7957 18.38 7.962ZM2.01197 5H5.33297C4.71786 5.67785 4.18114 6.42288 3.73297 7.221C2.94666 6.67305 2.34626 5.89822 2.01197 5ZM5.99997 10C6.35276 10.0029 6.7022 10.0686 7.03197 10.194C6.98314 10.4374 6.99519 10.6891 7.06706 10.9267C7.13893 11.1643 7.26838 11.3805 7.44392 11.5561C7.61946 11.7316 7.83564 11.861 8.07326 11.9329C8.31088 12.0048 8.56258 12.0168 8.80597 11.968C8.93134 12.2978 8.99703 12.6472 8.99997 13V18C8.43253 18.0015 7.87736 18.1652 7.39997 18.472L5.26297 9.929C5.50674 9.96942 5.75298 9.99314 5.99997 10ZM15 22H8.99997C8.73476 22 8.4804 21.8946 8.29287 21.7071C8.10533 21.5196 7.99997 21.2652 7.99997 21C7.99997 20.7348 8.10533 20.4804 8.29287 20.2929C8.4804 20.1054 8.73476 20 8.99997 20H15C15.2652 20 15.5195 20.1054 15.7071 20.2929C15.8946 20.4804 16 20.7348 16 21C16 21.2652 15.8946 21.5196 15.7071 21.7071C15.5195 21.8946 15.2652 22 15 22ZM16.6 18.472C16.1226 18.1652 15.5674 18.0015 15 18V13C15.0029 12.6472 15.0686 12.2978 15.194 11.968C15.4374 12.0168 15.6891 12.0048 15.9267 11.9329C16.1643 11.861 16.3805 11.7316 16.556 11.5561C16.7316 11.3805 16.861 11.1643 16.9329 10.9267C17.0048 10.6891 17.0168 10.4374 16.968 10.194C17.5455 10.0379 18.1391 9.94902 18.737 9.929L16.6 18.472ZM20.264 7.215C19.813 6.40909 19.2711 5.65752 18.649 4.975L22 4.97C21.662 5.87685 21.0566 6.65971 20.264 7.215Z" fill="#374957"/>
</g>
<defs>
<clipPath id="clip0_1317_20036">
<rect width="24" height="24" fill="white"/>
</clipPath>
</defs>
</svg>
