<svg width="24" height="24" viewBox="0 0 24 24" fill="none" xmlns="http://www.w3.org/2000/svg">
<g clip-path="url(#clip0_1317_20139)">
<path d="M22.9999 16.9994C22.7347 16.9994 22.4803 17.1048 22.2928 17.2923C22.1053 17.4799 21.9999 17.7342 21.9999 17.9994V20.5854L19.0059 17.5914C21.1999 15.2494 22.9999 12.5464 22.9999 9.98643C23.0552 8.46934 22.5077 6.99205 21.4771 5.87735C20.4466 4.76265 19.0167 4.10117 17.4999 4.03743C16.5979 4.04918 15.7132 4.28714 14.927 4.72952C14.1408 5.17189 13.4782 5.80452 12.9999 6.56943C12.5217 5.80452 11.8591 5.17189 11.0728 4.72952C10.2866 4.28714 9.40196 4.04918 8.49992 4.03743C7.65186 4.0399 6.81765 4.25258 6.07192 4.65643L1.70692 0.292431C1.51832 0.110273 1.26571 0.00947813 1.00352 0.0117566C0.741321 0.014035 0.490508 0.119204 0.3051 0.304612C0.119692 0.49002 0.0145233 0.740833 0.0122448 1.00303C0.00996641 1.26523 0.110761 1.51783 0.292919 1.70643L4.49992 5.91443C3.52478 7.0462 2.99199 8.49253 2.99992 9.98643C2.99992 13.7774 6.95092 17.8864 10.2649 20.6624C11.0306 21.3067 11.9992 21.66 12.9999 21.66C14.0006 21.66 14.9692 21.3067 15.7349 20.6624C16.3429 20.1524 16.9729 19.5974 17.5959 19.0084L20.5859 21.9994H17.9999C17.7347 21.9994 17.4803 22.1048 17.2928 22.2923C17.1053 22.4799 16.9999 22.7342 16.9999 22.9994C16.9999 23.2646 17.1053 23.519 17.2928 23.7065C17.4803 23.8941 17.7347 23.9994 17.9999 23.9994H21.9999C22.5304 23.9994 23.0391 23.7887 23.4141 23.4136C23.7892 23.0386 23.9999 22.5299 23.9999 21.9994V17.9994C23.9999 17.7342 23.8946 17.4799 23.707 17.2923C23.5195 17.1048 23.2651 16.9994 22.9999 16.9994ZM14.4499 19.1314C14.0391 19.4624 13.5275 19.6429 12.9999 19.6429C12.4724 19.6429 11.9607 19.4624 11.5499 19.1314C7.38692 15.6424 4.99992 12.3094 4.99992 9.98643C4.94512 8.99979 5.28208 8.03141 5.93751 7.29189C6.59294 6.55238 7.51384 6.10154 8.49992 6.03743C9.486 6.10154 10.4069 6.55238 11.0623 7.29189C11.7178 8.03141 12.0547 8.99979 11.9999 9.98643C11.9999 10.2516 12.1053 10.506 12.2928 10.6935C12.4804 10.8811 12.7347 10.9864 12.9999 10.9864C13.2651 10.9864 13.5195 10.8811 13.707 10.6935C13.8946 10.506 13.9999 10.2516 13.9999 9.98643C13.9451 8.99979 14.2821 8.03141 14.9375 7.29189C15.5929 6.55238 16.5138 6.10154 17.4999 6.03743C18.486 6.10154 19.4069 6.55238 20.0623 7.29189C20.7178 8.03141 21.0547 8.99979 20.9999 9.98643C20.9999 12.3084 18.6119 15.6414 14.4499 19.1314Z" fill="#374957"/>
</g>
<defs>
<clipPath id="clip0_1317_20139">
<rect width="24" height="24" fill="white"/>
</clipPath>
</defs>
</svg>
