<svg width="24" height="24" viewBox="0 0 24 24" fill="none" xmlns="http://www.w3.org/2000/svg">
<g clip-path="url(#clip0_1317_20136)">
<path d="M19.8001 4.41983C18.6278 2.83123 17.046 1.59089 15.2236 0.831258C13.4012 0.0716278 11.4067 -0.178762 9.45314 0.106828C7.55299 0.376977 5.75659 1.13959 4.24239 2.3189C2.7282 3.49821 1.54891 5.05318 0.821689 6.82933C0.0944667 8.60548 -0.155383 10.541 0.0969613 12.4436C0.349305 14.3462 1.09506 16.1497 2.26014 17.6748C2.75621 18.3585 3.01599 19.1853 3.00014 20.0298V21.0008C3.00014 21.7965 3.31621 22.5595 3.87882 23.1221C4.44143 23.6848 5.20449 24.0008 6.00014 24.0008H13.0001C13.7958 24.0008 14.5589 23.6848 15.1215 23.1221C15.6841 22.5595 16.0001 21.7965 16.0001 21.0008H16.4941C17.706 20.9979 18.8757 20.5562 19.787 19.7574C20.6983 18.9586 21.2895 17.8568 21.4511 16.6558L21.6701 15.0008H22.0001C22.2643 15.0064 22.5269 14.9585 22.7721 14.86C23.0173 14.7614 23.24 14.6143 23.4268 14.4275C23.6136 14.2406 23.7608 14.0179 23.8593 13.7728C23.9578 13.5276 24.0057 13.265 24.0001 13.0008C24.0001 11.5808 21.0681 5.98583 19.8001 4.41983ZM20.7931 13.0008C20.5507 13.0009 20.3165 13.0891 20.1342 13.249C19.9519 13.4088 19.8339 13.6295 19.8021 13.8698L19.4681 16.3948C19.371 17.1152 19.0162 17.7761 18.4695 18.2552C17.9228 18.7342 17.2211 18.9991 16.4941 19.0008H15.0001C14.7349 19.0008 14.4806 19.1062 14.293 19.2937C14.1055 19.4813 14.0001 19.7356 14.0001 20.0008V21.0008C14.0001 21.266 13.8948 21.5204 13.7072 21.7079C13.5197 21.8955 13.2654 22.0008 13.0001 22.0008H6.00014C5.73492 22.0008 5.48057 21.8955 5.29303 21.7079C5.1055 21.5204 5.00014 21.266 5.00014 21.0008V20.0298C5.01525 18.746 4.61115 17.4922 3.84914 16.4588C2.897 15.2116 2.28749 13.7371 2.08107 12.1816C1.87466 10.6261 2.07851 9.04368 2.6724 7.59128C3.2663 6.13889 4.2296 4.867 5.46675 3.90179C6.7039 2.93658 8.17191 2.3116 9.72514 2.08883C10.1493 2.02995 10.577 2.00055 11.0051 2.00083C12.4103 1.99893 13.7961 2.32825 15.0502 2.96207C16.3043 3.59588 17.3913 4.51636 18.2231 5.64883C19.8025 7.92122 21.0726 10.3936 22.0001 13.0008H20.7931ZM16.2001 8.01183C16.1347 7.89785 16.0475 7.79789 15.9434 7.71765C15.8393 7.63742 15.7205 7.57848 15.5936 7.54421C15.4668 7.50994 15.3344 7.50101 15.2041 7.51793C15.0737 7.53485 14.948 7.57729 14.8341 7.64283L13.8521 8.20683C13.3428 7.69061 12.7026 7.32279 12.0001 7.14283V6.00083C12.0001 5.73561 11.8948 5.48126 11.7072 5.29372C11.5197 5.10618 11.2654 5.00083 11.0001 5.00083C10.7349 5.00083 10.4806 5.10618 10.293 5.29372C10.1055 5.48126 10.0001 5.73561 10.0001 6.00083V7.14283C9.29659 7.32229 8.65527 7.69014 8.14514 8.20683L7.16314 7.64283C7.04929 7.57717 6.92361 7.53457 6.79329 7.51748C6.66298 7.50039 6.53057 7.50913 6.40363 7.54321C6.2767 7.57729 6.15771 7.63604 6.05348 7.7161C5.94925 7.79616 5.8618 7.89597 5.79614 8.00983C5.73048 8.12368 5.68789 8.24936 5.6708 8.37967C5.6537 8.50999 5.66245 8.6424 5.69653 8.76934C5.73061 8.89627 5.78935 9.01526 5.86941 9.11949C5.94948 9.22372 6.04929 9.31117 6.16314 9.37683L7.15614 9.94783C7.05672 10.2901 7.00424 10.6444 7.00014 11.0008C7.00522 11.3574 7.05871 11.7116 7.15914 12.0538L6.16614 12.6248C5.9362 12.7574 5.76835 12.976 5.69953 13.2323C5.6307 13.4887 5.66653 13.7619 5.79914 13.9918C5.93175 14.2218 6.15027 14.3896 6.40663 14.4584C6.663 14.5273 6.9362 14.4914 7.16614 14.3588L8.14814 13.7948C8.65744 14.311 9.29766 14.6789 10.0001 14.8588V16.0008C10.0001 16.266 10.1055 16.5204 10.293 16.7079C10.4806 16.8955 10.7349 17.0008 11.0001 17.0008C11.2654 17.0008 11.5197 16.8955 11.7072 16.7079C11.8948 16.5204 12.0001 16.266 12.0001 16.0008V14.8588C12.7037 14.6794 13.345 14.3115 13.8551 13.7948L14.8371 14.3588C14.951 14.4245 15.0767 14.4671 15.207 14.4842C15.3373 14.5013 15.4697 14.4925 15.5966 14.4584C15.7236 14.4244 15.8426 14.3656 15.9468 14.2856C16.051 14.2055 16.1385 14.1057 16.2041 13.9918C16.2698 13.878 16.3124 13.7523 16.3295 13.622C16.3466 13.4917 16.3378 13.3593 16.3038 13.2323C16.2697 13.1054 16.2109 12.9864 16.1309 12.8822C16.0508 12.7779 15.951 12.6905 15.8371 12.6248L14.8441 12.0538C14.9436 11.7115 14.996 11.3573 15.0001 11.0008C14.9951 10.6442 14.9416 10.29 14.8411 9.94783L15.8341 9.37683C16.0635 9.24422 16.2309 9.02598 16.2996 8.77005C16.3682 8.51412 16.3324 8.24142 16.2001 8.01183ZM11.0001 13.0008C10.6046 13.0008 10.2179 12.8835 9.889 12.6638C9.5601 12.444 9.30376 12.1316 9.15238 11.7662C9.00101 11.4007 8.9614 10.9986 9.03857 10.6106C9.11574 10.2227 9.30622 9.86632 9.58593 9.58661C9.86563 9.30691 10.222 9.11643 10.61 9.03926C10.9979 8.96209 11.4001 9.00169 11.7655 9.15307C12.131 9.30444 12.4433 9.56079 12.6631 9.88969C12.8828 10.2186 13.0001 10.6053 13.0001 11.0008C13.0001 11.5313 12.7894 12.04 12.4144 12.415C12.0393 12.7901 11.5306 13.0008 11.0001 13.0008Z" fill="#374957"/>
</g>
<defs>
<clipPath id="clip0_1317_20136">
<rect width="24" height="24" fill="white"/>
</clipPath>
</defs>
</svg>
