<svg width="24" height="24" viewBox="0 0 24 24" fill="none" xmlns="http://www.w3.org/2000/svg">
<g clip-path="url(#clip0_1317_20119)">
<path d="M23.1471 9.471L22.3601 8.4C21.8148 7.65793 21.1029 7.0542 20.2817 6.63736C19.4606 6.22052 18.553 6.00222 17.6321 6H6.38312C5.48114 6.00236 4.59175 6.21176 3.78347 6.61209C2.9752 7.01241 2.26962 7.59296 1.72112 8.309L0.900119 9.383C0.233601 10.2623 -0.0797726 11.3592 0.0216399 12.4579C0.123052 13.5566 0.63191 14.5776 1.44812 15.32L9.43812 23.027C10.1399 23.6528 11.0478 23.9979 11.9881 23.996C12.9483 23.9941 13.8741 23.638 14.5881 22.996L22.5241 15.363C23.345 14.6361 23.8642 13.6283 23.9795 12.5379C24.0948 11.4476 23.7978 10.3535 23.1471 9.471ZM20.7471 9.578L21.5341 10.652C21.6132 10.7619 21.6828 10.8783 21.7421 11H16.9511C16.8787 10.5211 16.754 10.0516 16.5791 9.6L15.9391 8H17.6321C18.2386 8.00115 18.8363 8.1445 19.3773 8.41856C19.9183 8.69261 20.3874 9.08973 20.7471 9.578ZM11.9901 20.088L9.22112 13.818C9.12097 13.5528 9.04532 13.279 8.99512 13H14.9471C14.9052 13.2199 14.8463 13.4362 14.7711 13.647L11.9901 20.088ZM9.10012 11C9.14194 10.8207 9.19437 10.6441 9.25712 10.471L10.2411 8H13.7851L14.7221 10.343C14.8044 10.5569 14.8712 10.7765 14.9221 11H9.10012ZM3.31112 9.521C3.67268 9.04935 4.13765 8.66695 4.67024 8.40326C5.20283 8.13957 5.78883 8.00161 6.38312 8H8.08312L7.40012 9.729C7.23533 10.1392 7.11238 10.5651 7.03312 11H2.24512C2.31371 10.8587 2.39647 10.7246 2.49212 10.6L3.31112 9.521ZM2.81112 13.854C2.55025 13.6174 2.34529 13.3257 2.21112 13H6.98312C7.04944 13.5388 7.17934 14.0678 7.37012 14.576L10.1971 20.976L2.81112 13.854ZM13.7711 21.014L16.6251 14.4C16.7908 13.9474 16.9061 13.4779 16.9691 13H21.8001C21.6586 13.3433 21.4423 13.6507 21.1671 13.9L13.7711 21.014Z" fill="#374957"/>
<path d="M12 4C12.2652 4 12.5196 3.89464 12.7071 3.70711C12.8947 3.51957 13 3.26522 13 3V1C13 0.734784 12.8947 0.48043 12.7071 0.292893C12.5196 0.105357 12.2652 0 12 0C11.7348 0 11.4804 0.105357 11.2929 0.292893C11.1054 0.48043 11 0.734784 11 1V3C11 3.26522 11.1054 3.51957 11.2929 3.70711C11.4804 3.89464 11.7348 4 12 4Z" fill="#374957"/>
<path d="M16.553 3.90042C16.6711 3.95978 16.7998 3.99515 16.9316 4.00449C17.0634 4.01383 17.1958 3.99695 17.321 3.95483C17.4463 3.9127 17.5619 3.84617 17.6613 3.75908C17.7607 3.67199 17.8419 3.56606 17.9001 3.44742L18.9001 1.44742C19.0186 1.21005 19.038 0.935308 18.954 0.683634C18.87 0.43196 18.6894 0.22397 18.4521 0.105418C18.2147 -0.013134 17.9399 -0.0325358 17.6883 0.0514805C17.4366 0.135497 17.2286 0.316049 17.1101 0.553418L16.11 2.55342C16.0503 2.67088 16.0144 2.79899 16.0044 2.93037C15.9943 3.06176 16.0104 3.19384 16.0515 3.31901C16.0927 3.44419 16.1582 3.55999 16.2443 3.65977C16.3303 3.75955 16.4353 3.84133 16.553 3.90042Z" fill="#374957"/>
<path d="M6.10481 3.44742C6.22336 3.68545 6.43162 3.86664 6.68376 3.95112C6.9359 4.03561 7.21128 4.01647 7.44931 3.89792C7.68734 3.77937 7.86853 3.57111 7.95302 3.31897C8.0375 3.06683 8.01836 2.79145 7.89981 2.55342L6.89981 0.553418C6.84111 0.435885 6.75984 0.331065 6.66063 0.244942C6.56141 0.158819 6.44621 0.0930811 6.3216 0.0514805C6.06992 -0.0325358 5.79518 -0.013134 5.55781 0.105418C5.32044 0.22397 5.13989 0.43196 5.05587 0.683634C4.97186 0.935308 4.99126 1.21005 5.10981 1.44742L6.10481 3.44742Z" fill="#374957"/>
</g>
<defs>
<clipPath id="clip0_1317_20119">
<rect width="24" height="24" fill="white"/>
</clipPath>
</defs>
</svg>
