<svg width="24" height="24" viewBox="0 0 24 24" fill="none" xmlns="http://www.w3.org/2000/svg">
<g clip-path="url(#clip0_1317_20347)">
<path d="M22.773 7.72235C22.3041 7.18196 21.7245 6.74863 21.0736 6.45171C20.4226 6.15479 19.7155 6.0012 19 6.00135H15.011L15.347 3.96035C15.4659 3.24162 15.3225 2.50409 14.9429 1.88229C14.5633 1.2605 13.9728 0.795867 13.2792 0.573146C12.5856 0.350425 11.835 0.384455 11.1644 0.669029C10.4938 0.953604 9.94777 1.46976 9.626 2.12335L7.712 6.00135H5C3.67441 6.00294 2.40356 6.53024 1.46622 7.46757C0.528882 8.40491 0.00158786 9.67576 0 11.0014L0 16.0014C0.00158786 17.327 0.528882 18.5978 1.46622 19.5351C2.40356 20.4725 3.67441 20.9998 5 21.0014H18.3C19.5035 20.9964 20.6652 20.5597 21.5738 19.7705C22.4824 18.9814 23.0776 17.8923 23.251 16.7014L23.956 11.7014C24.0553 10.9921 24.001 10.2698 23.7969 9.58328C23.5928 8.8968 23.2437 8.26217 22.773 7.72235ZM2 16.0014V11.0014C2 10.2057 2.31607 9.44264 2.87868 8.88003C3.44129 8.31742 4.20435 8.00135 5 8.00135H7V19.0014H5C4.20435 19.0014 3.44129 18.6853 2.87868 18.1227C2.31607 17.5601 2 16.797 2 16.0014ZM21.971 11.4204L21.265 16.4204C21.1618 17.1343 20.8057 17.7876 20.2616 18.2612C19.7175 18.7349 19.0214 18.9975 18.3 19.0014H9V7.73535C9.09424 7.65325 9.17226 7.55421 9.23 7.44335L11.419 3.00835C11.5011 2.86028 11.6171 2.73381 11.7576 2.63932C11.8981 2.54482 12.059 2.48502 12.2271 2.46481C12.3952 2.44461 12.5657 2.46458 12.7246 2.52308C12.8834 2.58159 13.0262 2.67696 13.141 2.80135C13.2392 2.9156 13.3111 3.05012 13.3513 3.19532C13.3916 3.34052 13.3994 3.49282 13.374 3.64135L12.846 6.84135C12.8228 6.98433 12.831 7.13064 12.8699 7.27016C12.9089 7.40967 12.9776 7.53907 13.0715 7.64938C13.1654 7.7597 13.2821 7.84831 13.4136 7.90908C13.545 7.96985 13.6882 8.00134 13.833 8.00135H19C19.4294 8.0013 19.8538 8.09342 20.2445 8.2715C20.6353 8.44958 20.9832 8.70946 21.2649 9.03359C21.5465 9.35771 21.7553 9.73853 21.8772 10.1503C21.999 10.562 22.031 10.9952 21.971 11.4204Z" fill="#374957"/>
</g>
<defs>
<clipPath id="clip0_1317_20347">
<rect width="24" height="24" fill="white"/>
</clipPath>
</defs>
</svg>
