<svg width="24" height="24" viewBox="0 0 24 24" fill="none" xmlns="http://www.w3.org/2000/svg">
<g clip-path="url(#clip0_1317_20161)">
<path d="M18.7597 16C18.071 15.998 17.3887 16.1326 16.7524 16.3961C16.1161 16.6596 15.5384 17.0467 15.0527 17.535C13.6405 18.955 11.9607 20.0809 10.1105 20.8473C8.26025 21.6137 6.27637 22.0055 4.2737 22H3.1227C2.90089 22.0001 2.68403 21.9345 2.49956 21.8113C2.31509 21.6881 2.17131 21.513 2.0864 21.3081C2.0015 21.1032 1.9793 20.8777 2.02261 20.6601C2.06592 20.4426 2.17279 20.2428 2.3297 20.086L5.5197 16.9L17.2877 13.762C18.3524 13.4773 19.2934 12.849 19.9646 11.9748C20.6358 11.1005 20.9997 10.0292 20.9997 8.927V5C20.9981 3.67441 20.4708 2.40356 19.5335 1.46622C18.5961 0.528882 17.3253 0.00158786 15.9997 0L12.0727 0C10.9712 0.000902057 9.90077 0.365146 9.02734 1.03627C8.1539 1.70739 7.52626 2.6479 7.2417 3.712L4.0997 15.485L0.915705 18.672C0.479177 19.1085 0.181893 19.6646 0.0614484 20.2701C-0.0589957 20.8755 0.0028108 21.5031 0.239051 22.0734C0.475292 22.6437 0.875355 23.1312 1.38864 23.4741C1.90193 23.817 2.50539 24 3.1227 24H4.2737C6.53913 24.0063 8.7833 23.5631 10.8763 22.6961C12.9692 21.8291 14.8694 20.5555 16.4667 18.949C16.9204 18.4965 17.4979 18.1886 18.1265 18.0641C18.755 17.9396 19.4063 18.0041 19.9983 18.2494C20.5902 18.4947 21.0962 18.9098 21.4524 19.4424C21.8086 19.9751 21.999 20.6013 21.9997 21.242V23C21.9997 23.2652 22.105 23.5196 22.2926 23.7071C22.4801 23.8946 22.7345 24 22.9997 24C23.2649 24 23.5192 23.8946 23.7068 23.7071C23.8943 23.5196 23.9997 23.2652 23.9997 23V21.242C23.9978 19.8527 23.4452 18.5207 22.463 17.5381C21.4808 16.5555 20.149 16.0024 18.7597 16ZM16.7717 11.826L8.3417 14.074L14.4997 7.915L17.8557 11.271C17.5364 11.5286 17.1674 11.7176 16.7717 11.826ZM18.9997 5V8.927C18.9976 9.12638 18.9754 9.32504 18.9337 9.52L15.9147 6.5L18.6997 3.716C18.8949 4.11603 18.9974 4.5549 18.9997 5ZM12.0727 2H15.9997C16.4457 2.00232 16.8856 2.10484 17.2867 2.3L14.4997 5.087L11.4797 2.066C11.6747 2.02424 11.8733 2.00213 12.0727 2ZM9.1727 4.228C9.281 3.83197 9.46995 3.46259 9.72769 3.143L13.0867 6.5L6.9247 12.663L9.1727 4.228Z" fill="#374957"/>
</g>
<defs>
<clipPath id="clip0_1317_20161">
<rect width="24" height="24" fill="white"/>
</clipPath>
</defs>
</svg>
