<svg width="24" height="24" viewBox="0 0 24 24" fill="none" xmlns="http://www.w3.org/2000/svg">
<g clip-path="url(#clip0_1317_20026)">
<path d="M23.9997 11.2476C23.855 8.90758 23.0288 6.66108 21.6229 4.78499C20.2169 2.9089 18.2927 1.48526 16.0874 0.689559C13.8821 -0.106139 11.4922 -0.239103 9.21222 0.307059C6.93229 0.853221 4.86201 2.05463 3.25662 3.76318C1.65122 5.47173 0.580905 7.61273 0.177606 9.92222C-0.225693 12.2317 0.0556603 14.6088 0.98698 16.7603C1.9183 18.9118 3.45887 20.7438 5.41877 22.0303C7.37867 23.3169 9.67222 24.0018 12.0167 24.0006H18.9997C20.3253 23.9992 21.5963 23.472 22.5337 22.5346C23.4711 21.5972 23.9983 20.3262 23.9997 19.0006V11.2476ZM21.9997 19.0006C21.9997 19.7962 21.6836 20.5593 21.121 21.1219C20.5584 21.6845 19.7953 22.0006 18.9997 22.0006H12.0167C10.6056 21.9999 9.21051 21.7019 7.92236 21.1259C6.63421 20.5499 5.48194 19.7088 4.54066 18.6576C3.59484 17.6068 2.88459 16.366 2.45756 15.0184C2.03052 13.6707 1.89656 12.2473 2.06466 10.8436C2.3301 8.62951 3.32485 6.56675 4.89211 4.98049C6.45936 3.39422 8.50997 2.37467 10.7207 2.08256C11.1519 2.02851 11.5861 2.00113 12.0207 2.00056C14.3511 1.99421 16.6095 2.80847 18.3997 4.30056C19.4452 5.16951 20.3034 6.24172 20.9222 7.45219C21.541 8.66267 21.9076 9.9862 21.9997 11.3426V19.0006Z" fill="#374957"/>
<path d="M8 9H12C12.2652 9 12.5196 8.89464 12.7071 8.7071C12.8946 8.51957 13 8.26521 13 8C13 7.73478 12.8946 7.48043 12.7071 7.29289C12.5196 7.10536 12.2652 7 12 7H8C7.73478 7 7.48043 7.10536 7.29289 7.29289C7.10536 7.48043 7 7.73478 7 8C7 8.26521 7.10536 8.51957 7.29289 8.7071C7.48043 8.89464 7.73478 9 8 9Z" fill="#374957"/>
<path d="M16 11H8C7.73478 11 7.48043 11.1054 7.29289 11.2929C7.10536 11.4804 7 11.7348 7 12C7 12.2652 7.10536 12.5196 7.29289 12.7071C7.48043 12.8947 7.73478 13 8 13H16C16.2652 13 16.5196 12.8947 16.7071 12.7071C16.8946 12.5196 17 12.2652 17 12C17 11.7348 16.8946 11.4804 16.7071 11.2929C16.5196 11.1054 16.2652 11 16 11Z" fill="#374957"/>
<path d="M16 15H8C7.73478 15 7.48043 15.1054 7.29289 15.2929C7.10536 15.4804 7 15.7348 7 16C7 16.2652 7.10536 16.5196 7.29289 16.7071C7.48043 16.8947 7.73478 17 8 17H16C16.2652 17 16.5196 16.8947 16.7071 16.7071C16.8946 16.5196 17 16.2652 17 16C17 15.7348 16.8946 15.4804 16.7071 15.2929C16.5196 15.1054 16.2652 15 16 15Z" fill="#374957"/>
</g>
<defs>
<clipPath id="clip0_1317_20026">
<rect width="24" height="24" fill="white"/>
</clipPath>
</defs>
</svg>
