<svg width="24" height="24" viewBox="0 0 24 24" fill="none" xmlns="http://www.w3.org/2000/svg">
<g clip-path="url(#clip0_1317_20266)">
<path d="M23.0001 3.00059H13.0001C12.7349 3.00059 12.4805 3.10595 12.293 3.29349C12.1054 3.48102 12.0001 3.73538 12.0001 4.00059V7.27059L9.60007 3.11059C9.42493 2.80517 9.17228 2.55139 8.86763 2.3749C8.56298 2.19841 8.21714 2.10547 7.86507 2.10547C7.51299 2.10547 7.16716 2.19841 6.86251 2.3749C6.55786 2.55139 6.3052 2.80517 6.13007 3.11059L0.130068 13.5006C0.0423 13.6526 -0.00390625 13.825 -0.00390625 14.0006C-0.00390625 14.1761 0.0423 14.3486 0.130068 14.5006C0.218173 14.6532 0.345037 14.7798 0.497814 14.8676C0.650592 14.9554 0.823858 15.0013 1.00007 15.0006H5.29007C5.09591 15.6494 4.9982 16.3233 5.00007 17.0006C5.00007 18.8571 5.73757 20.6376 7.05032 21.9503C8.36308 23.2631 10.1436 24.0006 12.0001 24.0006C13.8566 24.0006 15.6371 23.2631 16.9498 21.9503C18.2626 20.6376 19.0001 18.8571 19.0001 17.0006C19.0019 16.3233 18.9042 15.6494 18.7101 15.0006H23.0001C23.2653 15.0006 23.5196 14.8952 23.7072 14.7077C23.8947 14.5201 24.0001 14.2658 24.0001 14.0006V4.00059C24.0001 3.73538 23.8947 3.48102 23.7072 3.29349C23.5196 3.10595 23.2653 3.00059 23.0001 3.00059ZM2.73007 13.0006L7.86007 4.11059L11.2901 10.0006C10.29 10.1119 9.32568 10.4375 8.46283 10.9552C7.59998 11.4729 6.85889 12.1705 6.29007 13.0006H2.73007ZM12.0001 22.0006C11.0112 22.0006 10.0445 21.7073 9.22222 21.1579C8.39997 20.6085 7.75911 19.8276 7.38067 18.914C7.00223 18.0004 6.90322 16.995 7.09614 16.0251C7.28907 15.0552 7.76527 14.1643 8.46454 13.465C9.1638 12.7658 10.0547 12.2896 11.0246 12.0967C11.9945 11.9037 12.9999 12.0027 13.9135 12.3812C14.8271 12.7596 15.608 13.4005 16.1574 14.2227C16.7068 15.045 17.0001 16.0117 17.0001 17.0006C17.0001 18.3267 16.4733 19.5984 15.5356 20.5361C14.5979 21.4738 13.3262 22.0006 12.0001 22.0006ZM22.0001 13.0006H17.7401C16.8319 11.704 15.515 10.7498 14.0001 10.2906V5.00059H22.0001V13.0006Z" fill="#374957"/>
</g>
<defs>
<clipPath id="clip0_1317_20266">
<rect width="24" height="24" fill="white"/>
</clipPath>
</defs>
</svg>
