<svg width="24" height="24" viewBox="0 0 24 24" fill="none" xmlns="http://www.w3.org/2000/svg">
<path d="M23.98 2.02243V6.02243C23.98 6.28765 23.8747 6.542 23.6871 6.72954C23.4996 6.91708 23.2452 7.02243 22.98 7.02243C22.7148 7.02243 22.4605 6.91708 22.2729 6.72954C22.0854 6.542 21.98 6.28765 21.98 6.02243V3.45943L16.68 8.73143C16.4909 8.91313 16.238 9.01327 15.9758 9.01028C15.7136 9.00729 15.463 8.90141 15.2781 8.71545C15.0932 8.52949 14.9887 8.27833 14.9872 8.01609C14.9857 7.75385 15.0873 7.50151 15.27 7.31343L20.59 2.02243H17.98C17.7148 2.02243 17.4605 1.91708 17.2729 1.72954C17.0854 1.542 16.98 1.28765 16.98 1.02243C16.98 0.757216 17.0854 0.502862 17.2729 0.315326C17.4605 0.12779 17.7148 0.0224328 17.98 0.0224328H21.98C22.5105 0.0224328 23.0192 0.233147 23.3942 0.608219C23.7693 0.983292 23.98 1.492 23.98 2.02243ZM23.075 16.7614C23.6545 17.3425 23.98 18.1297 23.98 18.9504C23.98 19.7711 23.6545 20.5583 23.075 21.1394L22.163 22.1894C13.972 30.0274 -5.95697 10.1044 1.76303 1.88943L2.91203 0.889433C3.49412 0.326204 4.27437 0.0144937 5.08431 0.0216034C5.89426 0.0287131 6.66891 0.354072 7.24103 0.927433C7.27103 0.958433 9.12403 3.36643 9.12403 3.36643C9.6737 3.94388 9.97977 4.7109 9.97865 5.50813C9.97753 6.30537 9.66932 7.07153 9.11803 7.64743L7.95903 9.10443C8.59988 10.6615 9.54209 12.0767 10.7315 13.2685C11.921 14.4604 13.3342 15.4054 14.89 16.0494L16.355 14.8844C16.9309 14.3334 17.6968 14.0254 18.4938 14.0243C19.2908 14.0232 20.0576 14.3291 20.635 14.8784C20.635 14.8784 23.044 16.7314 23.075 16.7614ZM21.7 18.2154C21.7 18.2154 19.307 16.3734 19.276 16.3434C19.07 16.1392 18.7916 16.0246 18.5015 16.0246C18.2114 16.0246 17.933 16.1392 17.727 16.3434C17.7 16.3694 15.683 17.9774 15.683 17.9774C15.5471 18.0856 15.3853 18.1565 15.2137 18.1832C15.042 18.2098 14.8664 18.1913 14.704 18.1294C12.6872 17.3795 10.8554 16.2044 9.33288 14.6839C7.81035 13.1634 6.63275 11.3332 5.88003 9.31743C5.81418 9.15355 5.79291 8.97515 5.81837 8.80038C5.84384 8.62561 5.91515 8.4607 6.02503 8.32243C6.02503 8.32243 7.63203 6.30543 7.65903 6.27843C7.8633 6.07242 7.97791 5.79405 7.97791 5.50393C7.97791 5.21382 7.8633 4.93545 7.65903 4.72943C7.62903 4.69943 5.78703 2.30543 5.78703 2.30543C5.57805 2.11781 5.30523 2.01722 5.02448 2.02429C4.74372 2.03135 4.4763 2.14554 4.27703 2.34343L3.12803 3.34343C-2.51597 10.1254 14.757 26.4414 20.7 20.8254L21.612 19.7754C21.827 19.5781 21.9566 19.3047 21.973 19.0133C21.9894 18.7219 21.8915 18.4357 21.7 18.2154Z" fill="#374957"/>
</svg>
