<svg width="24" height="24" viewBox="0 0 24 24" fill="none" xmlns="http://www.w3.org/2000/svg">
<g clip-path="url(#clip0_1317_20235)">
<path d="M23.1998 0.799744C22.829 0.425757 22.3574 0.167656 21.8425 0.0568665C21.3276 -0.053923 20.7917 -0.0126209 20.2998 0.175744L3.15484 6.92874C2.03446 7.37182 1.1129 8.20633 0.561183 9.27739C0.00947124 10.3484 -0.134909 11.5833 0.154841 12.7527C0.881873 15.4065 2.28703 17.8254 4.23216 19.7716C6.17729 21.7178 8.59543 23.1243 11.2488 23.8527C12.4195 24.1407 13.6548 23.9944 14.7259 23.4412C15.797 22.8879 16.6311 21.9651 17.0738 20.8437L23.8318 3.67174C24.0141 3.18298 24.0514 2.65201 23.9392 2.14256C23.8271 1.63312 23.5704 1.16686 23.1998 0.799744ZM11.7458 21.9107C9.43687 21.2771 7.33251 20.0535 5.63955 18.3604C3.94659 16.6673 2.72328 14.5628 2.08984 12.2537C1.94376 11.658 1.98711 11.0315 2.21385 10.4615C2.44059 9.89148 2.83943 9.40639 3.35484 9.07374C3.45821 12.1094 4.71017 14.9927 6.8577 17.1408C9.00523 19.2889 11.8882 20.5416 14.9238 20.6457C14.5915 21.161 14.1068 21.5597 13.5371 21.7865C12.9675 22.0132 12.3413 22.0567 11.7458 21.9107ZM15.7728 18.6837C9.58183 18.5837 5.41783 14.4187 5.31683 8.22674L21.0098 2.04674C21.1409 1.99651 21.2838 1.98585 21.4208 2.01607C21.5579 2.04628 21.683 2.11606 21.7808 2.21674C21.8806 2.31003 21.9509 2.43045 21.983 2.56318C22.0152 2.69591 22.0078 2.83515 21.9618 2.96374L21.2998 4.64474C15.5418 2.66474 12.3578 10.8537 17.8868 13.3127L15.7728 18.6837ZM18.6198 11.4517C17.9926 11.1752 17.4967 10.6668 17.236 10.0329C16.9752 9.39898 16.9698 8.68877 17.2209 8.05099C17.4721 7.4132 17.9602 6.89729 18.5831 6.61131C19.206 6.32532 19.9155 6.29144 20.5628 6.51674L18.6198 11.4517Z" fill="#374957"/>
<path d="M11 9C10.4696 9 9.96086 9.21071 9.58579 9.58579C9.21071 9.96086 9 10.4696 9 11C9 11.5304 9.21071 12.0391 9.58579 12.4142C9.96086 12.7893 10.4696 13 11 13C11.5304 13 12.0391 12.7893 12.4142 12.4142C12.7893 12.0391 13 11.5304 13 11C13 10.4696 12.7893 9.96086 12.4142 9.58579C12.0391 9.21071 11.5304 9 11 9Z" fill="#374957"/>
</g>
<defs>
<clipPath id="clip0_1317_20235">
<rect width="24" height="24" fill="white"/>
</clipPath>
</defs>
</svg>
