<svg width="24" height="24" viewBox="0 0 24 24" fill="none" xmlns="http://www.w3.org/2000/svg">
<g clip-path="url(#clip0_1317_20005)">
<path d="M17 14C16.4696 14 15.9609 14.2107 15.5858 14.5858C15.2107 14.9609 15 15.4696 15 16C15 16.5304 15.2107 17.0391 15.5858 17.4142C15.9609 17.7893 16.4696 18 17 18C17.5304 18 18.0391 17.7893 18.4142 17.4142C18.7893 17.0391 19 16.5304 19 16C19 15.4696 18.7893 14.9609 18.4142 14.5858C18.0391 14.2107 17.5304 14 17 14Z" fill="#374957"/>
<path d="M7.99999 11C6.93913 11 5.92171 11.4214 5.17157 12.1716C4.42143 12.9217 4 13.9391 4 15C4 16.0609 4.42143 17.0783 5.17157 17.8284C5.92171 18.5786 6.93913 19 7.99999 19C9.06086 19 10.0783 18.5786 10.8284 17.8284C11.5786 17.0783 12 16.0609 12 15C12 13.9391 11.5786 12.9217 10.8284 12.1716C10.0783 11.4214 9.06086 11 7.99999 11ZM7.99999 17C7.46956 17 6.96085 16.7893 6.58578 16.4142C6.21071 16.0391 6 15.5304 6 15C6 14.4696 6.21071 13.9609 6.58578 13.5858C6.96085 13.2107 7.46956 13 7.99999 13C8.53043 13 9.03913 13.2107 9.4142 13.5858C9.78928 13.9609 9.99999 14.4696 9.99999 15C9.99999 15.5304 9.78928 16.0391 9.4142 16.4142C9.03913 16.7893 8.53043 17 7.99999 17Z" fill="#374957"/>
<path d="M21.589 6.70024L13.751 0.849235C12.9041 0.277344 11.9011 -0.0189312 10.8794 0.000937808C9.85766 0.0208068 8.86702 0.355849 8.04297 0.960235C4.80558 3.38291 2.38361 6.73488 1.09997 10.5692C1.08548 10.6204 1.07478 10.6725 1.06797 10.7252C0.957805 10.9412 0.86323 11.1648 0.784972 11.3942C-0.265564 14.3754 -0.265564 17.6261 0.784972 20.6072C1.12104 21.5974 1.7591 22.4573 2.60936 23.0659C3.45963 23.6746 4.47932 24.0013 5.52497 24.0002H9.14897C9.58265 23.9934 10.0028 23.8484 10.3485 23.5864C10.6941 23.3244 10.9472 22.9589 11.071 22.5432C11.1723 22.2446 11.3646 21.9852 11.6209 21.8015C11.8772 21.6178 12.1846 21.519 12.5 21.519C12.8153 21.519 13.1227 21.6178 13.379 21.8015C13.6353 21.9852 13.8277 22.2446 13.929 22.5432C14.0527 22.9589 14.3058 23.3244 14.6515 23.5864C14.9971 23.8484 15.4173 23.9934 15.851 24.0002H19C20.3256 23.9986 21.5964 23.4714 22.5338 22.534C23.4711 21.5967 23.9984 20.3258 24 19.0002V11.5072C23.9978 10.574 23.7788 9.65405 23.3604 8.81987C22.942 7.98568 22.3356 7.26008 21.589 6.70024ZM9.23997 2.56224C9.72469 2.20747 10.3064 2.00964 10.9069 1.99534C11.5074 1.98103 12.0979 2.15095 12.599 2.48224L19.989 8.00024H5.52597C5.13668 7.99985 4.7487 8.04516 4.36997 8.13524C5.59422 5.96345 7.25186 4.06652 9.23997 2.56224ZM22 19.0002C22 19.7959 21.6839 20.5589 21.1213 21.1216C20.5587 21.6842 19.7956 22.0002 19 22.0002L15.834 21.9342C15.5996 21.2288 15.1473 20.6159 14.5423 20.1839C13.9373 19.7519 13.2108 19.5231 12.4674 19.5305C11.7241 19.5378 11.0022 19.7809 10.4058 20.2248C9.80949 20.6686 9.3694 21.2903 9.14897 22.0002H5.52497C4.89748 22.0005 4.28569 21.8041 3.7757 21.4385C3.26571 21.0729 2.88319 20.5566 2.68197 19.9622C1.77447 17.3992 1.77447 14.6023 2.68197 12.0392C2.88385 11.445 3.26665 10.9289 3.77668 10.5632C4.28671 10.1976 4.8984 10.0007 5.52597 10.0002H21.7C21.8964 10.4785 21.9983 10.9902 22 11.5072V19.0002Z" fill="#374957"/>
</g>
<defs>
<clipPath id="clip0_1317_20005">
<rect width="24" height="24" fill="white"/>
</clipPath>
</defs>
</svg>
