<svg width="24" height="24" viewBox="0 0 24 24" fill="none" xmlns="http://www.w3.org/2000/svg">
<g clip-path="url(#clip0_1317_20105)">
<path d="M23.5349 14.7257C23.3278 14.4742 23.0621 14.2774 22.7612 14.1525C22.4602 14.0277 22.1333 13.9786 21.8089 14.0097C20.0666 14.1474 18.3754 14.6643 16.8537 15.5242C15.3321 16.3841 14.0168 17.5662 12.9999 18.9877V13.9107C14.3965 13.6734 15.6642 12.9502 16.5791 11.8687C17.4941 10.7873 17.9973 9.41724 17.9999 8.00069C17.9999 5.20769 16.0569 2.84869 14.1559 0.909694C13.5796 0.34654 12.8057 0.03125 11.9999 0.03125C11.1941 0.03125 10.4203 0.34654 9.84392 0.909694C7.94292 2.84869 5.99992 5.20769 5.99992 8.00069C6.00255 9.41724 6.50579 10.7873 7.42072 11.8687C8.33565 12.9502 9.60338 13.6734 10.9999 13.9107V18.9877C9.98304 17.5662 8.66774 16.3841 7.1461 15.5242C5.62447 14.6643 3.93328 14.1474 2.19092 14.0097C1.86661 13.9788 1.53967 14.0279 1.23876 14.1528C0.937845 14.2776 0.672138 14.4743 0.464924 14.7257C0.259037 14.9701 0.115684 15.261 0.0472195 15.5732C-0.0212449 15.8854 -0.0127663 16.2095 0.0719245 16.5177C2.11092 23.8557 11.5909 24.0007 11.9939 24.0007H12.0059C12.4059 24.0007 21.8899 23.8557 23.9289 16.5177C24.0131 16.2094 24.0213 15.8853 23.9527 15.5732C23.884 15.261 23.7407 14.9702 23.5349 14.7257ZM7.99992 8.00069C7.99992 5.34669 11.3179 2.28169 11.3379 2.26469C10.9729 3.20069 8.69292 8.90069 10.9999 9.00069C11.2651 9.00069 11.5195 8.89534 11.707 8.7078C11.8946 8.52026 11.9999 8.26591 11.9999 8.00069C12.0754 6.22213 12.5026 4.47616 13.2569 2.86369C14.6879 4.39369 15.9999 6.15469 15.9999 8.00069C15.9999 9.06156 15.5785 10.079 14.8284 10.8291C14.0782 11.5793 13.0608 12.0007 11.9999 12.0007C10.9391 12.0007 9.92164 11.5793 9.1715 10.8291C8.42135 10.079 7.99992 9.06156 7.99992 8.00069ZM2.00592 16.0007C3.80766 16.1466 5.53894 16.7656 7.02478 17.7951C8.51061 18.8246 9.69835 20.2281 10.4679 21.8637C7.97093 21.5177 3.19992 20.3007 2.00592 16.0007ZM13.5449 21.8617C14.3208 20.2306 15.5088 18.8303 16.9917 17.7991C18.4745 16.7678 20.2008 16.1414 21.9999 15.9817C20.8059 20.2837 16.0459 21.5117 13.5449 21.8617Z" fill="#374957"/>
</g>
<defs>
<clipPath id="clip0_1317_20105">
<rect width="24" height="24" fill="white"/>
</clipPath>
</defs>
</svg>
