<svg width="24" height="24" viewBox="0 0 24 24" fill="none" xmlns="http://www.w3.org/2000/svg">
<g clip-path="url(#clip0_1317_20022)">
<path d="M10.5001 16.9993C10.2371 16.9995 9.97668 16.9479 9.7337 16.8473C9.49073 16.7468 9.26997 16.5993 9.08405 16.4133L5.30005 12.7143C5.11042 12.5287 5.00231 12.2753 4.9995 12.0099C4.99669 11.7446 5.0994 11.4889 5.28505 11.2993C5.47071 11.1097 5.72408 11.0016 5.98945 10.9988C6.25481 10.9959 6.51042 11.0987 6.70005 11.2843L10.4931 14.9913L17.2991 8.29131C17.491 8.12244 17.7403 8.03348 17.9958 8.04272C18.2513 8.05196 18.4935 8.1587 18.6727 8.341C18.852 8.5233 18.9546 8.76731 18.9595 9.02291C18.9643 9.27851 18.8712 9.52628 18.6991 9.71531L11.9061 16.4223C11.7212 16.6062 11.5018 16.7518 11.2605 16.8509C11.0193 16.9499 10.7608 17.0003 10.5001 16.9993ZM24.0001 18.9993V12.3393C24.0374 9.25676 22.9072 6.2742 20.8364 3.99048C18.7656 1.70676 15.9075 0.290948 12.8361 0.0273102C11.1217 -0.0926321 9.40159 0.15705 7.79209 0.759463C6.18259 1.36188 4.72126 2.30297 3.50697 3.51906C2.29268 4.73515 1.35375 6.19788 0.753728 7.80827C0.153701 9.41866 -0.0934304 11.1391 0.0290532 12.8533C0.471053 19.2073 6.08205 23.9993 13.0831 23.9993H19.0001C20.3257 23.9977 21.5965 23.4704 22.5338 22.5331C23.4712 21.5958 23.9985 20.3249 24.0001 18.9993ZM12.7001 2.02331C15.2665 2.25035 17.652 3.44022 19.3771 5.35386C21.1023 7.26751 22.0394 9.76313 22.0001 12.3393V18.9993C22.0001 19.795 21.684 20.558 21.1214 21.1206C20.5588 21.6832 19.7957 21.9993 19.0001 21.9993H13.0831C7.04905 21.9993 2.40005 18.0993 2.02505 12.7153C1.92661 11.3439 2.11203 9.96691 2.56974 8.67038C3.02745 7.37385 3.74761 6.18564 4.68523 5.17998C5.62285 4.17432 6.75778 3.37282 8.01912 2.82556C9.28046 2.27829 10.6411 1.99702 12.0161 1.99931C12.2431 1.99931 12.4721 2.00831 12.7001 2.02331Z" fill="#374957"/>
</g>
<defs>
<clipPath id="clip0_1317_20022">
<rect width="24" height="24" fill="white"/>
</clipPath>
</defs>
</svg>
