<svg width="24" height="24" viewBox="0 0 24 24" fill="none" xmlns="http://www.w3.org/2000/svg">
<g clip-path="url(#clip0_1317_20135)">
<path d="M22.1392 17.7774L13.5922 5.53339C14.9965 4.65415 15.4222 2.80297 14.5429 1.39864C13.6637 -0.00568894 11.8125 -0.431361 10.4082 0.447921C9.00384 1.3272 8.57817 3.17834 9.45745 4.58267C9.69834 4.96742 10.0234 5.2925 10.4082 5.53339L1.86113 17.7774C0.930985 18.9954 0.753423 20.6289 1.40011 22.0184C2.16277 23.3357 3.60858 24.1042 5.12714 23.9994H18.8731C20.3917 24.1042 21.8375 23.3357 22.6001 22.0184C23.2468 20.6289 23.0693 18.9954 22.1392 17.7774ZM11.7311 21.9994L17.1891 14.1804L18.6001 16.2074L14.5611 21.9994H11.7311V21.9994ZM6.53916 21.9994L14.5932 10.4614L15.9692 12.4333L9.29213 21.9994H6.53916ZM3.17016 21.0934C2.87358 20.3636 3.00024 19.5301 3.50016 18.9214L12.0001 6.74637L13.3811 8.72436C13.3671 8.74236 13.3471 8.75136 13.3341 8.76936L4.20014 21.8584C3.76706 21.7541 3.39516 21.4778 3.17016 21.0934ZM20.8301 21.0934C20.4015 21.7411 19.6443 22.0917 18.8731 21.9994H17.0002L19.8222 17.9554L20.4972 18.9214C20.9981 19.5295 21.1259 20.3631 20.8301 21.0934Z" fill="#374957"/>
</g>
<defs>
<clipPath id="clip0_1317_20135">
<rect width="24" height="24" fill="white"/>
</clipPath>
</defs>
</svg>
