<svg width="24" height="24" viewBox="0 0 24 24" fill="none" xmlns="http://www.w3.org/2000/svg">
<g clip-path="url(#clip0_1317_20106)">
<path d="M12.0001 16.001C10.9392 16.001 9.92181 15.5795 9.17166 14.8294C8.42151 14.0792 8.00009 13.0618 8.00009 12.001C8.00009 10.9401 8.42151 9.92267 9.17166 9.17252C9.92181 8.42238 10.9392 8.00095 12.0001 8.00095C13.061 8.00095 14.0784 8.42238 14.8285 9.17252C15.5787 9.92267 16.0001 10.9401 16.0001 12.001C16.0001 13.0618 15.5787 14.0792 14.8285 14.8294C14.0784 15.5795 13.061 16.001 12.0001 16.001ZM12.0001 10.001C11.4697 10.001 10.9609 10.2117 10.5859 10.5867C10.2108 10.9618 10.0001 11.4705 10.0001 12.001C10.0001 12.5314 10.2108 13.0401 10.5859 13.4152C10.9609 13.7902 11.4697 14.001 12.0001 14.001C12.5305 14.001 13.0392 13.7902 13.4143 13.4152C13.7894 13.0401 14.0001 12.5314 14.0001 12.001C14.0001 11.4705 13.7894 10.9618 13.4143 10.5867C13.0392 10.2117 12.5305 10.001 12.0001 10.001ZM12.0001 24.001C10.9092 23.9998 9.84862 23.6425 8.97949 22.9833C8.11037 22.3241 7.48029 21.3991 7.18509 20.349C6.12976 20.582 5.02759 20.472 4.03915 20.0349C3.0507 19.5979 2.22763 18.8567 1.68983 17.9192C1.15203 16.9818 0.9276 15.8971 1.04924 14.8232C1.17088 13.7493 1.63223 12.7424 2.36609 11.949C-1.03391 8.43795 2.37509 2.34895 7.20009 3.59995C7.51132 2.56911 8.14614 1.66585 9.01062 1.02383C9.87509 0.381814 10.9233 0.0351562 12.0001 0.0351562C13.0769 0.0351562 14.1251 0.381814 14.9896 1.02383C15.854 1.66585 16.4889 2.56911 16.8001 3.59995C21.7001 2.38395 25.0001 8.41295 21.6291 11.992C25.0371 15.53 21.6401 21.434 16.8151 20.349C16.5199 21.3991 15.8898 22.3241 15.0207 22.9833C14.1516 23.6425 13.0909 23.9998 12.0001 24.001ZM8.00009 18.001C8.2653 18.001 8.51966 18.1063 8.70719 18.2938C8.89473 18.4814 9.00009 18.7357 9.00009 19.001C9.00009 19.7966 9.31616 20.5597 9.87877 21.1223C10.4414 21.6849 11.2044 22.001 12.0001 22.001C12.7957 22.001 13.5588 21.6849 14.1214 21.1223C14.684 20.5597 15.0001 19.7966 15.0001 19.001C15 18.8248 15.0465 18.6517 15.1348 18.4993C15.2231 18.3468 15.35 18.2204 15.5029 18.1328C15.6557 18.0453 15.829 17.9996 16.0052 18.0005C16.1813 18.0014 16.3541 18.0488 16.5061 18.138C19.9721 19.813 22.9061 14.956 19.5221 12.879C19.3659 12.7916 19.2359 12.6642 19.1454 12.5099C19.0549 12.3555 19.0072 12.1799 19.0072 12.001C19.0072 11.822 19.0549 11.6464 19.1454 11.492C19.2359 11.3377 19.3659 11.2103 19.5221 11.123C22.8351 9.11395 20.0441 3.90395 16.5031 5.86895C16.3508 5.95755 16.1779 6.00437 16.0018 6.00467C15.8256 6.00496 15.6525 5.95873 15.5 5.87063C15.3474 5.78254 15.2209 5.65572 15.1331 5.50301C15.0453 5.35029 14.9994 5.1771 15.0001 5.00095C15.0001 4.2053 14.684 3.44224 14.1214 2.87963C13.5588 2.31702 12.7957 2.00095 12.0001 2.00095C11.2044 2.00095 10.4414 2.31702 9.87877 2.87963C9.31616 3.44224 9.00009 4.2053 9.00009 5.00095C9.00043 5.17666 8.95448 5.34935 8.86686 5.50164C8.77923 5.65394 8.65302 5.78046 8.50094 5.86846C8.34887 5.95646 8.17629 6.00284 8.00058 6.00293C7.82488 6.00301 7.65225 5.9568 7.50009 5.86895C4.00009 3.90895 1.13809 9.08095 4.47809 11.071C4.63422 11.1584 4.76421 11.2859 4.85469 11.4403C4.94517 11.5948 4.99286 11.7705 4.99286 11.9495C4.99286 12.1284 4.94517 12.3041 4.85469 12.4586C4.76421 12.613 4.63422 12.7405 4.47809 12.828C1.13009 14.941 3.96409 19.801 7.49409 18.138C7.64757 18.0481 7.82224 18.0008 8.00009 18.001Z" fill="#374957"/>
</g>
<defs>
<clipPath id="clip0_1317_20106">
<rect width="24" height="24" fill="white"/>
</clipPath>
</defs>
</svg>
