<svg width="24" height="24" viewBox="0 0 24 24" fill="none" xmlns="http://www.w3.org/2000/svg">
<g clip-path="url(#clip0_1317_19986)">
<path d="M5.00471 23.9993H18.9997C19.8421 23.9992 20.6709 23.7862 21.409 23.3802C22.1471 22.9741 22.7707 22.3882 23.2218 21.6767C23.6729 20.9652 23.9369 20.1513 23.9893 19.3105C24.0418 18.4697 23.8809 17.6293 23.5217 16.8673L16.5347 2.89931C16.1342 2.03723 15.4963 1.30717 14.6957 0.794707C13.8951 0.282243 12.965 0.00860876 12.0145 0.00587999C11.0639 0.00315121 10.1323 0.271441 9.32875 0.7793C8.52523 1.28716 7.88313 2.01355 7.47771 2.87331L0.477705 16.8733L0.469705 16.8993C0.11721 17.661 -0.0378884 18.4991 0.0187062 19.3365C0.0753008 20.1738 0.341767 20.9835 0.793545 21.6908C1.24532 22.3981 1.86788 22.9803 2.60382 23.3837C3.33977 23.7872 4.16543 23.9989 5.00471 23.9993ZM8.40471 21.9993L11.1217 16.5613C11.1982 16.3929 11.3218 16.2502 11.4776 16.1504C11.6334 16.0507 11.8147 15.9982 11.9997 15.9993C12.1897 15.9994 12.3755 16.0552 12.5342 16.1597C12.6929 16.2642 12.8175 16.4128 12.8927 16.5873L15.5997 21.9993H8.40471ZM2.27771 17.7473L9.27771 3.73531C9.51966 3.21441 9.90606 2.77391 10.391 2.46615C10.8759 2.15839 11.439 1.99631 12.0134 1.99915C12.5877 2.00199 13.1492 2.16965 13.631 2.48219C14.1129 2.79474 14.4949 3.23904 14.7317 3.76231L21.7197 17.7353C21.9321 18.1924 22.0258 18.6956 21.9924 19.1985C21.9589 19.7014 21.7993 20.1878 21.5282 20.6127C21.2572 21.0376 20.8834 21.3874 20.4415 21.6297C19.9996 21.8721 19.5037 21.9992 18.9997 21.9993H17.8357L14.6997 15.7193C14.4623 15.2078 14.0842 14.7745 13.6097 14.4699C13.1351 14.1653 12.5837 14.002 12.0198 13.9992C11.4559 13.9964 10.9028 14.1541 10.4252 14.4539C9.94765 14.7537 9.56524 15.1832 9.32271 15.6923L6.16771 21.9993H5.00471C4.50169 21.9994 4.00672 21.8731 3.56532 21.6319C3.12391 21.3906 2.75025 21.0423 2.47869 20.6189C2.20714 20.1955 2.04641 19.7106 2.01129 19.2088C1.97617 18.707 2.06778 18.2044 2.27771 17.7473Z" fill="#374957"/>
</g>
<defs>
<clipPath id="clip0_1317_19986">
<rect width="24" height="24" fill="white"/>
</clipPath>
</defs>
</svg>
