<svg width="24" height="24" viewBox="0 0 24 24" fill="none" xmlns="http://www.w3.org/2000/svg">
<g clip-path="url(#clip0_1317_19927)">
<path d="M23.7102 16.2893L15.5402 8.11933C15.0757 7.6537 14.524 7.28427 13.9165 7.0322C13.3091 6.78014 12.6579 6.65039 12.0002 6.65039C11.3425 6.65039 10.6913 6.78014 10.0838 7.0322C9.4764 7.28427 8.92464 7.6537 8.46019 8.11933L0.290185 16.2893C0.101882 16.4776 -0.00390625 16.733 -0.00390625 16.9993C-0.00390625 17.2656 0.101882 17.521 0.290185 17.7093C0.478489 17.8976 0.733884 18.0034 1.00019 18.0034C1.26649 18.0034 1.52188 17.8976 1.71019 17.7093L9.88019 9.53933C10.4427 8.97753 11.2052 8.66197 12.0002 8.66197C12.7952 8.66197 13.5577 8.97753 14.1202 9.53933L22.2902 17.7093C22.3832 17.8031 22.4938 17.8775 22.6156 17.9282C22.7375 17.979 22.8682 18.0051 23.0002 18.0051C23.1322 18.0051 23.2629 17.979 23.3848 17.9282C23.5066 17.8775 23.6172 17.8031 23.7102 17.7093C23.8039 17.6164 23.8783 17.5058 23.9291 17.3839C23.9798 17.262 24.006 17.1313 24.006 16.9993C24.006 16.8673 23.9798 16.7366 23.9291 16.6148C23.8783 16.4929 23.8039 16.3823 23.7102 16.2893Z" fill="#374957"/>
</g>
<defs>
<clipPath id="clip0_1317_19927">
<rect width="24" height="24" fill="white"/>
</clipPath>
</defs>
</svg>
