<svg width="24" height="24" viewBox="0 0 24 24" fill="none" xmlns="http://www.w3.org/2000/svg">
<path d="M11.9998 23.9279C11.3432 23.9288 10.6928 23.8002 10.0861 23.5493C9.47928 23.2984 8.92798 22.9302 8.46376 22.4659L1.53376 15.5349C0.596401 14.5973 0.0698242 13.3257 0.0698242 11.9999C0.0698242 10.6741 0.596401 9.40253 1.53376 8.46489L8.46376 1.53389C9.40251 0.597881 10.6741 0.0722656 11.9998 0.0722656C13.3254 0.0722656 14.597 0.597881 15.5358 1.53389L22.4658 8.46489C23.4031 9.40253 23.9297 10.6741 23.9297 11.9999C23.9297 13.3257 23.4031 14.5973 22.4658 15.5349L15.5358 22.4659C15.0715 22.9302 14.5202 23.2984 13.9135 23.5493C13.3067 23.8002 12.6564 23.9288 11.9998 23.9279ZM11.9998 2.07089C11.6057 2.07015 11.2154 2.14724 10.8513 2.29774C10.4871 2.44824 10.1563 2.66918 9.87776 2.94789L2.94776 9.87889C2.38534 10.4415 2.0694 11.2044 2.0694 11.9999C2.0694 12.7954 2.38534 13.5583 2.94776 14.1209L9.87776 21.0519C10.1564 21.3307 10.4872 21.5518 10.8513 21.7027C11.2154 21.8536 11.6056 21.9313 11.9998 21.9313C12.3939 21.9313 12.7841 21.8536 13.1483 21.7027C13.5124 21.5518 13.8432 21.3307 14.1218 21.0519L21.0518 14.1209C21.6142 13.5583 21.9301 12.7954 21.9301 11.9999C21.9301 11.2044 21.6142 10.4415 21.0518 9.87889L14.1218 2.94789C13.8432 2.66918 13.5124 2.44824 13.1482 2.29774C12.7841 2.14724 12.3938 2.07015 11.9998 2.07089Z" fill="#374957"/>
</svg>
