<svg width="24" height="24" viewBox="0 0 24 24" fill="none" xmlns="http://www.w3.org/2000/svg">
<g clip-path="url(#clip0_1317_20260)">
<path d="M10.3569 2.92006L8.94085 5.22006C8.79501 5.43028 8.57413 5.5766 8.32368 5.62891C8.07323 5.68122 7.81226 5.63554 7.59446 5.50128C7.37666 5.36701 7.21862 5.15438 7.15284 4.90712C7.08706 4.65986 7.11856 4.3968 7.24085 4.17206L8.65685 1.87206C9.01193 1.30508 9.50527 0.83762 10.0905 0.513576C10.6758 0.189533 11.3339 0.0195312 12.0029 0.0195312C12.6718 0.0195312 13.3299 0.189533 13.9152 0.513576C14.5004 0.83762 14.9938 1.30508 15.3489 1.87206L19.5489 8.70606L19.9899 6.34106C20.0384 6.08022 20.1886 5.84935 20.4073 5.69922C20.6261 5.5491 20.8955 5.49203 21.1564 5.54056C21.4172 5.5891 21.6481 5.73926 21.7982 5.95802C21.9483 6.17679 22.0054 6.44622 21.9569 6.70706L21.4569 9.37706C21.3289 10.0644 20.9649 10.6855 20.4278 11.133C19.8906 11.5805 19.214 11.8264 18.5149 11.8281C18.3199 11.8281 15.2979 11.2521 15.2979 11.2521C15.042 11.1965 14.8182 11.0428 14.6745 10.824C14.5307 10.6052 14.4785 10.3387 14.529 10.0818C14.5796 9.82497 14.7288 9.59816 14.9447 9.45011C15.1607 9.30207 15.426 9.24461 15.6839 9.29006L17.8169 9.71106L13.6429 2.92006C13.4693 2.64059 13.2273 2.41001 12.9398 2.25012C12.6524 2.09023 12.3288 2.00631 11.9999 2.00631C11.6709 2.00631 11.3474 2.09023 11.0599 2.25012C10.7724 2.41001 10.5304 2.64059 10.3569 2.92006ZM23.4089 14.9791L22.4409 13.4071C22.3759 13.2877 22.2873 13.1829 22.1805 13.0989C22.0737 13.0149 21.9509 12.9536 21.8196 12.9186C21.6883 12.8837 21.5512 12.8759 21.4168 12.8957C21.2824 12.9155 21.1534 12.9625 21.0377 13.0338C20.922 13.1051 20.8221 13.1992 20.744 13.3104C20.666 13.4216 20.6114 13.5476 20.5836 13.6806C20.5558 13.8136 20.5554 13.9509 20.5825 14.084C20.6095 14.2172 20.6634 14.3434 20.7409 14.4551L21.7089 16.0271C21.8935 16.3228 21.9948 16.6629 22.002 17.0114C22.0092 17.36 21.9221 17.704 21.7499 18.0071C21.5842 18.3093 21.3398 18.5612 21.0426 18.7358C20.7454 18.9105 20.4065 19.0014 20.0619 18.9991H12.6759L13.9469 17.7301C14.1293 17.5417 14.2305 17.2893 14.2286 17.0271C14.2267 16.7648 14.1218 16.5139 13.9367 16.3282C13.7515 16.1425 13.5009 16.037 13.2387 16.0343C12.9765 16.0317 12.7237 16.1322 12.5349 16.3141L10.8429 17.9991C10.3148 18.5241 10.0124 19.2345 9.99985 19.9791C9.99985 19.9791 9.99985 19.9891 9.99985 19.9931C9.99985 19.9971 9.99985 20.0061 9.99985 20.0131C9.997 20.3979 10.0712 20.7793 10.218 21.135C10.3649 21.4907 10.5814 21.8134 10.8549 22.0841L12.5369 23.7361C12.6295 23.8327 12.7407 23.9097 12.8637 23.9625C12.9867 24.0154 13.119 24.043 13.2529 24.0438C13.3867 24.0445 13.5194 24.0184 13.643 23.9669C13.7666 23.9154 13.8786 23.8397 13.9723 23.7441C14.0661 23.6485 14.1397 23.5351 14.1888 23.4106C14.2379 23.286 14.2615 23.1529 14.2582 23.0191C14.2549 22.8853 14.2247 22.7535 14.1695 22.6315C14.1143 22.5095 14.0352 22.3999 13.9369 22.3091L12.6089 20.9991H20.0619C20.7634 20.9967 21.4516 20.8074 22.0557 20.4506C22.6598 20.0939 23.1579 19.5827 23.4988 18.9695C23.8397 18.3564 24.0111 17.6635 23.9953 16.9621C23.9795 16.2607 23.777 15.5762 23.4089 14.9791ZM6.77985 7.21206C6.45213 6.98889 6.08321 6.83326 5.69465 6.75428C5.3061 6.6753 4.9057 6.67454 4.51685 6.75206L1.88785 7.27006C1.75689 7.29315 1.63184 7.34213 1.52004 7.41413C1.40823 7.48614 1.31191 7.57972 1.23671 7.6894C1.16151 7.79908 1.10895 7.92265 1.08208 8.0529C1.05522 8.18314 1.05461 8.31743 1.08028 8.44791C1.10595 8.5784 1.15739 8.70245 1.23159 8.81281C1.30578 8.92317 1.40125 9.01762 1.51239 9.09064C1.62354 9.16366 1.74813 9.21378 1.87888 9.23806C2.00962 9.26235 2.1439 9.26031 2.27385 9.23206L4.38185 8.81706L0.590851 14.9791C0.222703 15.5762 0.0202856 16.2606 0.00442724 16.9618C-0.0114311 17.6631 0.159842 18.356 0.500624 18.9691C0.841406 19.5822 1.33939 20.0935 1.94334 20.4503C2.54729 20.807 3.23539 20.9965 3.93685 20.9991H7.07985C7.34507 20.9991 7.59942 20.8937 7.78696 20.7062C7.97449 20.5186 8.07985 20.2643 8.07985 19.9991C8.07985 19.7338 7.97449 19.4795 7.78696 19.292C7.59942 19.1044 7.34507 18.9991 7.07985 18.9991H3.93685C3.59284 19.0007 3.25477 18.9094 2.95836 18.7348C2.66194 18.5602 2.41819 18.3087 2.25285 18.0071C2.0806 17.704 1.99347 17.36 2.00069 17.0114C2.0079 16.6629 2.1092 16.3228 2.29385 16.0271L6.13185 9.78906L6.57785 12.1831C6.62665 12.4439 6.77707 12.6747 6.99602 12.8246C7.21497 12.9745 7.48451 13.0314 7.74535 12.9826C8.00619 12.9338 8.23696 12.7833 8.3869 12.5644C8.53683 12.3454 8.59365 12.0759 8.54485 11.8151L8.04485 9.14506C7.973 8.75498 7.82413 8.38312 7.60693 8.05123C7.38973 7.71933 7.10856 7.43406 6.77985 7.21206Z" fill="#374957"/>
</g>
<defs>
<clipPath id="clip0_1317_20260">
<rect width="24" height="24" fill="white"/>
</clipPath>
</defs>
</svg>
