<svg width="24" height="24" viewBox="0 0 24 24" fill="none" xmlns="http://www.w3.org/2000/svg">
<g clip-path="url(#clip0_1317_20354)">
<path d="M14.0003 17.9996C13.6597 17.9996 13.3215 18.0574 13.0003 18.1706V17.9996C13.0003 17.7343 13.1056 17.48 13.2932 17.2925C13.4807 17.1049 13.7351 16.9996 14.0003 16.9996C14.1424 16.9986 14.2829 17.0285 14.4124 17.087C14.5419 17.1455 14.6571 17.2313 14.7503 17.3386C14.836 17.4407 14.9413 17.5246 15.06 17.5855C15.1786 17.6463 15.3083 17.6828 15.4412 17.6928C15.5742 17.7028 15.7078 17.6861 15.8343 17.6437C15.9607 17.6013 16.0774 17.534 16.1774 17.4458C16.2774 17.3577 16.3588 17.2504 16.4168 17.1303C16.4748 17.0102 16.5081 16.8797 16.5149 16.7466C16.5217 16.6134 16.5018 16.4802 16.4563 16.3548C16.4109 16.2295 16.3408 16.1145 16.2503 16.0166C15.8473 15.5596 15.3148 15.2362 14.7235 15.0893C14.1322 14.9425 13.5102 14.9791 12.9402 15.1944C12.3703 15.4097 11.8794 15.7934 11.5329 16.2945C11.1863 16.7956 11.0006 17.3903 11.0003 17.9996V20.9996C11.0005 21.6509 11.2127 22.2845 11.6048 22.8046C11.9969 23.3246 12.5476 23.703 13.1737 23.8825C13.7998 24.0619 14.4674 24.0327 15.0754 23.7993C15.6835 23.5659 16.1991 23.1409 16.5443 22.5886C16.8227 22.1402 16.9802 21.6274 17.0015 21.1C17.0227 20.5727 16.9068 20.0488 16.6653 19.5796C16.412 19.0944 16.0284 18.6895 15.5576 18.4103C15.0868 18.1312 14.5475 17.989 14.0003 17.9996ZM14.8493 21.5286C14.7572 21.6763 14.6281 21.7974 14.4749 21.88C14.3216 21.9625 14.1494 22.0036 13.9754 21.9992C13.8014 21.9948 13.6315 21.9451 13.4826 21.8549C13.3337 21.7647 13.2109 21.6372 13.1264 21.485C13.0419 21.3328 12.9986 21.1612 13.0007 20.9871C13.0029 20.813 13.0505 20.6425 13.1388 20.4925C13.227 20.3425 13.3529 20.2181 13.504 20.1316C13.6552 20.0451 13.8262 19.9996 14.0003 19.9996C14.1723 19.9902 14.3436 20.0275 14.4961 20.1076C14.6485 20.1877 14.7765 20.3076 14.8663 20.4546C14.9586 20.6191 15.0056 20.8052 15.0026 20.9939C14.9997 21.1825 14.9467 21.367 14.8493 21.5286ZM21.0003 14.9996C20.2046 14.9996 19.4416 15.3156 18.879 15.8782C18.3164 16.4408 18.0003 17.2039 18.0003 17.9996V20.9996C18.0003 21.7952 18.3164 22.5583 18.879 23.1209C19.4416 23.6835 20.2046 23.9996 21.0003 23.9996C21.7959 23.9996 22.559 23.6835 23.1216 23.1209C23.6842 22.5583 24.0003 21.7952 24.0003 20.9996V17.9996C24.0003 17.2039 23.6842 16.4408 23.1216 15.8782C22.559 15.3156 21.7959 14.9996 21.0003 14.9996ZM22.0003 20.9996C22.0003 21.2648 21.8949 21.5191 21.7074 21.7067C21.5199 21.8942 21.2655 21.9996 21.0003 21.9996C20.7351 21.9996 20.4807 21.8942 20.2932 21.7067C20.1056 21.5191 20.0003 21.2648 20.0003 20.9996V17.9996C20.0003 17.7343 20.1056 17.48 20.2932 17.2925C20.4807 17.1049 20.7351 16.9996 21.0003 16.9996C21.2655 16.9996 21.5199 17.1049 21.7074 17.2925C21.8949 17.48 22.0003 17.7343 22.0003 17.9996V20.9996ZM12.0003 12.9996H8.00029C7.73507 12.9996 7.48072 12.8942 7.29318 12.7067C7.10565 12.5191 7.00029 12.2648 7.00029 11.9996C7.00029 11.7343 7.10565 11.48 7.29318 11.2925C7.48072 11.1049 7.73507 10.9996 8.00029 10.9996H11.0003V6.99956C11.0003 6.73434 11.1056 6.47999 11.2932 6.29245C11.4807 6.10492 11.7351 5.99956 12.0003 5.99956C12.2655 5.99956 12.5199 6.10492 12.7074 6.29245C12.8949 6.47999 13.0003 6.73434 13.0003 6.99956V11.9996C13.0003 12.2648 12.8949 12.5191 12.7074 12.7067C12.5199 12.8942 12.2655 12.9996 12.0003 12.9996ZM24.0003 2.99956V5.99956C24.0003 6.79521 23.6842 7.55827 23.1216 8.12088C22.559 8.68349 21.7959 8.99956 21.0003 8.99956H18.0003C17.7351 8.99956 17.4807 8.8942 17.2932 8.70667C17.1056 8.51913 17.0003 8.26478 17.0003 7.99956C17.0003 7.73434 17.1056 7.47999 17.2932 7.29245C17.4807 7.10492 17.7351 6.99956 18.0003 6.99956H20.6373C19.8371 5.61869 18.7178 4.4496 17.3731 3.59015C16.0283 2.73071 14.4972 2.20592 12.9079 2.05973C11.3187 1.91353 9.71757 2.15018 8.23858 2.74987C6.75958 3.34955 5.44576 4.29482 4.40711 5.50653C3.36846 6.71825 2.6352 8.16115 2.26872 9.71446C1.90224 11.2678 1.91319 12.8862 2.30068 14.4344C2.68816 15.9826 3.44089 17.4155 4.49585 18.613C5.55081 19.8106 6.87731 20.738 8.36429 21.3176C8.61147 21.4141 8.81018 21.6049 8.9167 21.8479C9.02322 22.091 9.02883 22.3664 8.93229 22.6136C8.83575 22.8607 8.64497 23.0595 8.40193 23.166C8.15888 23.2725 7.88347 23.2781 7.63629 23.1816C5.87894 22.4961 4.30795 21.406 3.05077 19.9997C1.79359 18.5934 0.885639 16.9105 0.400589 15.0877C-0.0844604 13.2648 -0.132947 11.3532 0.259064 9.50812C0.651075 7.663 1.47254 5.93628 2.65681 4.46806C3.84108 2.99985 5.35479 1.8315 7.07512 1.0578C8.79546 0.284113 10.674 -0.0731234 12.5582 0.0150807C14.4424 0.103285 16.2793 0.634445 17.9199 1.56546C19.5604 2.49648 20.9584 3.80113 22.0003 5.37356V2.99956C22.0003 2.73434 22.1056 2.47999 22.2932 2.29245C22.4807 2.10492 22.7351 1.99956 23.0003 1.99956C23.2655 1.99956 23.5199 2.10492 23.7074 2.29245C23.8949 2.47999 24.0003 2.73434 24.0003 2.99956Z" fill="#374957"/>
</g>
<defs>
<clipPath id="clip0_1317_20354">
<rect width="24" height="24" fill="white"/>
</clipPath>
</defs>
</svg>
