<svg width="24" height="24" viewBox="0 0 24 24" fill="none" xmlns="http://www.w3.org/2000/svg">
<g clip-path="url(#clip0_1317_19975)">
<path d="M17.9944 2.28638C16.7738 1.19592 15.279 0.45896 13.6707 0.154808C12.0625 -0.149344 10.4018 -0.00917345 8.86727 0.560236C7.33277 1.12964 5.98259 2.10673 4.96205 3.38635C3.9415 4.66596 3.28923 6.19966 3.07542 7.82238C2.8834 9.24522 3.03697 10.6934 3.52314 12.0443C4.0093 13.3952 4.81376 14.6092 5.86842 15.5834C6.52062 16.1553 7.0469 16.8565 7.4139 17.6425C7.7809 18.4285 7.98063 19.2821 8.00042 20.1494V20.3104C8.00148 21.2887 8.39058 22.2267 9.08236 22.9184C9.77414 23.6102 10.7121 23.9993 11.6904 24.0004H12.3104C13.2887 23.9993 14.2267 23.6102 14.9185 22.9184C15.6103 22.2267 15.9994 21.2887 16.0004 20.3104V19.7614C16.0154 18.9948 16.1958 18.2406 16.5292 17.5502C16.8627 16.8598 17.3413 16.2496 17.9324 15.7614C18.891 14.9218 19.6603 13.8882 20.1892 12.7289C20.7181 11.5696 20.9947 10.3111 21.0006 9.03685C21.0064 7.7626 20.7415 6.50165 20.2232 5.33753C19.7049 4.17342 18.9452 3.13272 17.9944 2.28438V2.28638ZM12.3104 22.0004H11.6904C11.2424 21.9998 10.8128 21.8216 10.496 21.5048C10.1792 21.188 10.0009 20.7584 10.0004 20.3104C10.0004 20.3104 9.99342 20.0504 9.99242 20.0004H14.0004V20.3104C13.9999 20.7584 13.8217 21.188 13.5048 21.5048C13.188 21.8216 12.7585 21.9998 12.3104 22.0004ZM16.6104 14.2594C15.4718 15.2469 14.6496 16.5481 14.2464 18.0004H13.0004V10.8164C13.5833 10.6103 14.0883 10.2291 14.4463 9.72508C14.8043 9.22101 14.9979 8.61864 15.0004 8.00038C15.0004 7.73516 14.8951 7.48081 14.7075 7.29327C14.52 7.10573 14.2656 7.00038 14.0004 7.00038C13.7352 7.00038 13.4808 7.10573 13.2933 7.29327C13.1058 7.48081 13.0004 7.73516 13.0004 8.00038C13.0004 8.26559 12.8951 8.51995 12.7075 8.70748C12.52 8.89502 12.2656 9.00038 12.0004 9.00038C11.7352 9.00038 11.4808 8.89502 11.2933 8.70748C11.1058 8.51995 11.0004 8.26559 11.0004 8.00038C11.0004 7.73516 10.8951 7.48081 10.7075 7.29327C10.52 7.10573 10.2656 7.00038 10.0004 7.00038C9.7352 7.00038 9.48085 7.10573 9.29331 7.29327C9.10577 7.48081 9.00042 7.73516 9.00042 8.00038C9.00298 8.61864 9.1965 9.22101 9.5545 9.72508C9.91251 10.2291 10.4175 10.6103 11.0004 10.8164V18.0004H9.67842C9.22741 16.5096 8.38153 15.1686 7.23042 14.1194C6.25337 13.209 5.55714 12.0381 5.22389 10.7449C4.89063 9.45165 4.93426 8.09009 5.34963 6.82087C5.76499 5.55165 6.53476 4.42773 7.56808 3.58174C8.60141 2.73575 9.85517 2.20301 11.1814 2.04638C11.4563 2.01569 11.7328 2.00033 12.0094 2.00038C13.727 1.99527 15.3851 2.629 16.6614 3.77838C17.4011 4.43797 17.9922 5.24726 18.3954 6.1526C18.7986 7.05794 19.0047 8.03864 19.0002 9.0297C18.9957 10.0208 18.7805 10.9995 18.369 11.9011C17.9576 12.8027 17.3591 13.6066 16.6134 14.2594H16.6104Z" fill="#374957"/>
</g>
<defs>
<clipPath id="clip0_1317_19975">
<rect width="24" height="24" fill="white"/>
</clipPath>
</defs>
</svg>
