<svg width="24" height="24" viewBox="0 0 24 24" fill="none" xmlns="http://www.w3.org/2000/svg">
<path d="M13.2902 18.5909L7.71023 13.0009C7.52398 12.8135 7.41943 12.5601 7.41943 12.2959C7.41943 12.0317 7.52398 11.7783 7.71023 11.5909L13.2902 6.00089C13.4301 5.85986 13.6088 5.76368 13.8035 5.72461C13.9983 5.68554 14.2003 5.70536 14.3837 5.78152C14.5672 5.85769 14.7238 5.98676 14.8336 6.15228C14.9434 6.3178 15.0014 6.51227 15.0002 6.71089V17.8809C15.0014 18.0795 14.9434 18.274 14.8336 18.4395C14.7238 18.605 14.5672 18.7341 14.3837 18.8103C14.2003 18.8864 13.9983 18.9062 13.8035 18.8672C13.6088 18.8281 13.4301 18.7319 13.2902 18.5909Z" fill="#374957"/>
</svg>
