<svg width="24" height="24" viewBox="0 0 24 24" fill="none" xmlns="http://www.w3.org/2000/svg">
<g clip-path="url(#clip0_1317_19993)">
<path d="M24.0001 11.9834C23.9979 11.1694 23.7471 10.3754 23.2812 9.70788C22.8152 9.04034 22.1565 8.53113 21.3931 8.24843L21.3551 8.15743C20.363 5.73086 18.4638 3.78681 16.0611 2.73843L15.7321 2.59443C15.4488 1.83334 14.9396 1.17709 14.2727 0.713697C13.6058 0.250307 12.8131 0.00195312 12.0011 0.00195312C11.189 0.00195312 10.3963 0.250307 9.72942 0.713697C9.06253 1.17709 8.5533 1.83334 8.27005 2.59443L7.85205 2.78243C5.4706 3.86408 3.59626 5.82005 2.61705 8.24543C1.8524 8.52402 1.19153 9.03033 0.723506 9.69612C0.255485 10.3619 0.00281307 11.1552 -0.000456152 11.969C-0.00372538 12.7828 0.242565 13.5781 0.705222 14.2476C1.16788 14.9171 1.82466 15.4287 2.58705 15.7134L2.71505 16.0134C3.7184 18.3423 5.5611 20.2086 7.87705 21.2414L8.27005 21.4174C8.5541 22.1774 9.06352 22.8325 9.73013 23.295C10.3967 23.7575 11.1887 24.0054 12.0001 24.0054C12.8114 24.0054 13.6034 23.7575 14.27 23.295C14.9366 22.8325 15.446 22.1774 15.7301 21.4174L16.0971 21.2544C18.5196 20.1712 20.4242 18.1859 21.4061 15.7204C22.1669 15.4348 22.8226 14.9242 23.286 14.2566C23.7494 13.589 23.9985 12.7961 24.0001 11.9834ZM12.0001 2.00043C12.3956 2.00043 12.7823 2.11773 13.1112 2.33749C13.4401 2.55725 13.6964 2.86961 13.8478 3.23506C13.9992 3.60051 14.0388 4.00265 13.9616 4.39061C13.8845 4.77857 13.694 5.13494 13.4143 5.41464C13.1346 5.69435 12.7782 5.88483 12.3902 5.962C12.0023 6.03917 11.6001 5.99956 11.2347 5.84819C10.8692 5.69681 10.5569 5.44047 10.3371 5.11157C10.1174 4.78267 10.0001 4.39599 10.0001 4.00043C10.0001 3.47 10.2108 2.96129 10.5858 2.58622C10.9609 2.21114 11.4696 2.00043 12.0001 2.00043ZM3.98805 9.98543L4.07005 10.0164L4.08005 9.99143C4.58115 10.0363 5.04439 10.2768 5.36934 10.6609C5.69429 11.045 5.85476 11.5416 5.81597 12.0432C5.77718 12.5449 5.54225 13.011 5.16211 13.3405C4.78197 13.6701 4.28726 13.8365 3.78523 13.8038C3.28319 13.771 2.81429 13.5417 2.48018 13.1656C2.14607 12.7895 1.97366 12.2968 2.00035 11.7944C2.02704 11.292 2.25066 10.8204 2.62274 10.4818C2.99482 10.1431 3.48538 9.9648 3.98805 9.98543ZM12.0001 22.0004C11.6045 22.0004 11.2178 21.8831 10.8889 21.6634C10.56 21.4436 10.3037 21.1313 10.1523 20.7658C10.0009 20.4003 9.96131 19.9982 10.0385 19.6103C10.1157 19.2223 10.3061 18.8659 10.5858 18.5862C10.8655 18.3065 11.2219 18.116 11.6099 18.0389C11.9978 17.9617 12.4 18.0013 12.7654 18.1527C13.1309 18.304 13.4432 18.5604 13.663 18.8893C13.8828 19.2182 14.0001 19.6049 14.0001 20.0004C14.0001 20.5309 13.7893 21.0396 13.4143 21.4146C13.0392 21.7897 12.5305 22.0004 12.0001 22.0004ZM15.8931 19.1144C15.694 18.2304 15.2 17.4405 14.4924 16.8745C13.7848 16.3086 12.9057 16.0002 11.9996 16.0002C11.0934 16.0002 10.2143 16.3086 9.50668 16.8745C8.79907 17.4405 8.30512 18.2304 8.10605 19.1144C6.74065 18.3693 5.61889 17.2465 4.87505 15.8804C5.75627 15.6813 6.54385 15.1891 7.10903 14.4843C7.67421 13.7795 7.98355 12.9038 7.98645 12.0004C7.98935 11.097 7.68565 10.2193 7.12501 9.51087C6.56438 8.80245 5.77997 8.3052 4.90005 8.10043C5.64663 6.75357 6.7578 5.64448 8.10605 4.90043C8.30595 5.78342 8.80013 6.57222 9.50745 7.13731C10.2148 7.70241 11.0932 8.01022 11.9986 8.01022C12.9039 8.01022 13.7823 7.70241 14.4897 7.13731C15.197 6.57222 15.6912 5.78342 15.8911 4.90043C17.2383 5.64365 18.3501 6.74989 19.1001 8.09343C18.2174 8.29502 17.4296 8.79072 16.8659 9.49913C16.3021 10.2075 15.996 11.0866 15.9977 11.9919C15.9995 12.8973 16.309 13.7751 16.8755 14.4814C17.4419 15.1876 18.2317 15.6802 19.1151 15.8784C18.3688 17.2402 17.2516 18.3623 15.8931 19.1144ZM20.0001 13.9834C19.6045 13.9834 19.2178 13.8661 18.8889 13.6464C18.56 13.4266 18.3037 13.1143 18.1523 12.7488C18.0009 12.3833 17.9613 11.9812 18.0385 11.5932C18.1157 11.2053 18.3061 10.8489 18.5858 10.5692C18.8655 10.2895 19.2219 10.099 19.6099 10.0219C19.9978 9.94469 20.4 9.9843 20.7654 10.1357C21.1309 10.287 21.4432 10.5434 21.663 10.8723C21.8828 11.2012 22.0001 11.5879 22.0001 11.9834C22.0001 12.5139 21.7893 13.0226 21.4143 13.3976C21.0392 13.7727 20.5305 13.9834 20.0001 13.9834Z" fill="#374957"/>
</g>
<defs>
<clipPath id="clip0_1317_19993">
<rect width="24" height="24" fill="white"/>
</clipPath>
</defs>
</svg>
