<svg width="24" height="24" viewBox="0 0 24 24" fill="none" xmlns="http://www.w3.org/2000/svg">
<g clip-path="url(#clip0_1317_20020)">
<path d="M23.0003 5C23.0003 4.20435 22.6842 3.44129 22.1216 2.87868C21.559 2.31607 20.7959 2 20.0003 2H19.8293C19.6217 1.41549 19.2384 0.909511 18.7319 0.551443C18.2254 0.193376 17.6205 0.000756748 17.0003 0L7.00026 0C6.37998 0.000756748 5.77513 0.193376 5.26864 0.551443C4.76216 0.909511 4.37884 1.41549 4.17126 2H4.00026C3.39412 2.00399 2.80342 2.1915 2.30595 2.53783C1.80849 2.88415 1.4276 3.37305 1.21346 3.94011C0.999326 4.50717 0.961986 5.1258 1.10636 5.7145C1.25074 6.3032 1.57006 6.83435 2.02226 7.238L3.57026 19.62C3.7228 20.8286 4.31076 21.9402 5.22398 22.7464C6.1372 23.5527 7.31304 23.9984 8.53126 24H15.4693C16.6874 23.9982 17.8631 23.5524 18.7763 22.7462C19.6895 21.94 20.2775 20.8285 20.4303 19.62L21.9783 7.238C22.2981 6.95918 22.5547 6.6153 22.7309 6.22935C22.9072 5.84341 22.999 5.42428 23.0003 5ZM19.1173 14H15.9173C15.0253 8.713 8.97026 8.716 8.07926 14H4.87926L4.12926 8H19.8673L19.1173 14ZM14.0003 15C13.8953 18.954 10.1053 18.953 10.0003 15C10.1053 11.046 13.9003 11.047 14.0003 15ZM4.00026 4H5.00026C5.26547 4 5.51983 3.89464 5.70736 3.70711C5.8949 3.51957 6.00026 3.26522 6.00026 3C6.00026 2.73478 6.10561 2.48043 6.29315 2.29289C6.48068 2.10536 6.73504 2 7.00026 2H17.0003C17.2655 2 17.5198 2.10536 17.7074 2.29289C17.8949 2.48043 18.0003 2.73478 18.0003 3C18.0003 3.26522 18.1056 3.51957 18.2931 3.70711C18.4807 3.89464 18.735 4 19.0003 4H20.0003C20.2655 4 20.5198 4.10536 20.7074 4.29289C20.8949 4.48043 21.0003 4.73478 21.0003 5C21.0003 5.26522 20.8949 5.51957 20.7074 5.70711C20.5198 5.89464 20.2655 6 20.0003 6H4.00026C3.73504 6 3.48068 5.89464 3.29315 5.70711C3.10561 5.51957 3.00026 5.26522 3.00026 5C3.00026 4.73478 3.10561 4.48043 3.29315 4.29289C3.48068 4.10536 3.73504 4 4.00026 4ZM18.4453 19.372C18.3546 20.0974 18.0022 20.7648 17.4542 21.2487C16.9062 21.7326 16.2003 21.9998 15.4693 22H8.53126C7.8 22 7.09392 21.733 6.54571 21.2491C5.99751 20.7651 5.64493 20.0976 5.55426 19.372L5.13326 16H8.08126C8.97326 21.287 15.0293 21.284 15.9193 16H18.8673L18.4453 19.372Z" fill="#374957"/>
</g>
<defs>
<clipPath id="clip0_1317_20020">
<rect width="24" height="24" fill="white"/>
</clipPath>
</defs>
</svg>
