<svg width="24" height="24" viewBox="0 0 24 24" fill="none" xmlns="http://www.w3.org/2000/svg">
<g clip-path="url(#clip0_1317_20013)">
<path d="M21.7812 20.3664C23.0572 19.1044 23.8378 17.4263 23.9812 15.6374C24.1322 13.823 23.6566 12.0116 22.6337 10.5054C21.6108 8.9992 20.1025 7.88917 18.3602 7.36043C18.1889 7.30698 18.0334 7.21201 17.9076 7.08395C17.7818 6.95589 17.6896 6.79872 17.6392 6.62643C17.2442 5.33153 16.5254 4.15878 15.5509 3.21906C14.5764 2.27934 13.3783 1.6037 12.0698 1.25603C10.7614 0.908355 9.38598 0.900134 8.07351 1.23214C6.76104 1.56415 5.55494 2.22542 4.56923 3.15343L1.70723 0.292431C1.51863 0.110273 1.26603 0.00947813 1.00383 0.0117566C0.741636 0.014035 0.490824 0.119204 0.305416 0.304612C0.120008 0.49002 0.0148387 0.740833 0.0125602 1.00303C0.0102818 1.26523 0.111076 1.51783 0.293234 1.70643L22.2932 23.7064C22.4818 23.8886 22.7344 23.9894 22.9966 23.9871C23.2588 23.9848 23.5096 23.8797 23.6951 23.6942C23.8805 23.5088 23.9856 23.258 23.9879 22.9958C23.9902 22.7336 23.8894 22.481 23.7072 22.2924L21.7812 20.3664ZM9.10024 3.06443C10.5189 2.84911 11.9678 3.15006 13.1834 3.91255C14.399 4.67505 15.3006 5.84846 15.7242 7.21943C15.8721 7.70203 16.1356 8.14121 16.4919 8.49882C16.8481 8.85643 17.2862 9.12164 17.7682 9.27143C19.0747 9.66874 20.2055 10.5019 20.9722 11.6319C21.7388 12.7619 22.095 14.1206 21.9812 15.4814C21.878 16.7937 21.2995 18.0233 20.3542 18.9394L5.98223 4.56743C6.84973 3.76861 7.93496 3.24549 9.10024 3.06443ZM16.9932 21.8274C17.0213 22.0909 16.9436 22.3547 16.7773 22.5609C16.611 22.7672 16.3696 22.899 16.1062 22.9274C15.6675 22.9746 15.2265 22.998 14.7852 22.9974H5.68523C4.35185 22.9742 3.06654 22.4955 2.04277 21.6409C1.01899 20.7863 0.318363 19.6072 0.0572343 18.2994C-0.112718 17.1748 0.0737376 16.0251 0.590436 15.0118C1.10713 13.9985 1.92814 13.1724 2.93823 12.6494C2.13843 11.1891 1.83717 9.5076 2.08023 7.86043C2.1171 7.59773 2.25681 7.36044 2.46863 7.20075C2.68046 7.04107 2.94704 6.97207 3.20973 7.00893C3.47243 7.0458 3.70972 7.18551 3.86941 7.39733C4.0291 7.60915 4.0981 7.87573 4.06123 8.13843C3.8836 9.36675 4.09333 10.6199 4.66123 11.7234C4.91154 12.1869 4.96886 12.7305 4.82076 13.236C4.67266 13.7416 4.33109 14.1683 3.87023 14.4234C3.22701 14.7568 2.7044 15.2834 2.37581 15.9291C2.04722 16.5748 1.92917 17.3072 2.03823 18.0234C2.22468 18.8561 2.68529 19.602 3.34623 20.1416C4.00716 20.6812 4.83014 20.9833 5.68323 20.9994H14.7832C15.153 20.9998 15.5226 20.9801 15.8902 20.9404C16.1539 20.9134 16.4176 20.9914 16.6242 21.1574C16.8309 21.3234 16.9638 21.5641 16.9942 21.8274H16.9932Z" fill="#374957"/>
</g>
<defs>
<clipPath id="clip0_1317_20013">
<rect width="24" height="24" fill="white"/>
</clipPath>
</defs>
</svg>
