<svg width="24" height="24" viewBox="0 0 24 24" fill="none" xmlns="http://www.w3.org/2000/svg">
<g clip-path="url(#clip0_1317_20113)">
<path d="M23.241 0.434865C23.0056 0.245788 22.73 0.112997 22.4354 0.0466207C22.1407 -0.0197551 21.8349 -0.0179614 21.541 0.051865C20.6052 0.3023 19.7421 0.770887 19.0223 1.41923C18.3025 2.06758 17.7466 2.87724 17.4 3.78187C15.6397 3.29686 13.8256 3.03415 12 2.99987C10.1745 3.03415 8.36035 3.29686 6.60004 3.78187C6.25314 2.87694 5.69673 2.0671 4.9764 1.41874C4.25608 0.77038 3.39236 0.301956 2.45604 0.051865C2.16223 -0.0180369 1.85632 -0.0198684 1.56169 0.0465102C1.26706 0.112889 0.991495 0.245722 0.756041 0.434865C0.519614 0.622672 0.328779 0.861574 0.197849 1.13365C0.0669187 1.40573 -0.00070798 1.70392 4.09331e-05 2.00587V9.85787C-0.00391442 11.303 0.278822 12.7345 0.831882 14.0696C1.38494 15.4047 2.19734 16.6169 3.22204 17.6359L7.87904 22.2929C8.97637 23.3776 10.4571 23.9859 12 23.9859C13.543 23.9859 15.0237 23.3776 16.121 22.2929L20.778 17.6359C21.8026 16.6167 22.6148 15.4046 23.1679 14.0695C23.7209 12.7344 24.0038 11.3029 24 9.85787V2.00587C24.0009 1.7036 23.933 1.40511 23.8015 1.13294C23.67 0.860781 23.4784 0.622073 23.241 0.434865ZM5.05104 5.31587C5.13481 5.56736 5.315 5.7753 5.55202 5.894C5.78903 6.0127 6.06348 6.03243 6.31504 5.94887C8.15719 5.3718 10.0703 5.05244 12 4.99987C13.9297 5.05257 15.8429 5.37193 17.685 5.94887C17.9365 6.03212 18.2107 6.01223 18.4474 5.89356C18.6842 5.77489 18.8643 5.56712 18.948 5.31587C19.565 3.46687 20.619 2.32087 22 2.00587V8.17287C19.572 8.73187 13 10.9839 13 18.9999V19.1839C12.355 18.9439 11.6451 18.9439 11 19.1839V18.9999C11 10.9849 4.42904 8.73187 2.00004 8.17287V1.99987C3.38104 2.32087 4.43504 3.46787 5.05104 5.31587ZM4.63604 16.2219C3.03526 14.6254 2.09965 12.4812 2.01804 10.2219C2.69958 10.4013 3.36307 10.6433 4.00004 10.9449V10.9999C4.1797 11.8278 4.63223 12.5714 5.28503 13.1114C5.93784 13.6515 6.7531 13.9566 7.60004 13.9779C8.56027 15.4734 9.04809 17.2233 9.00004 18.9999V20.5859L4.63604 16.2219ZM19.364 16.2219L15 20.5859V18.9999C14.952 17.2233 15.4398 15.4734 16.4 13.9779C17.2469 13.9562 18.062 13.651 18.7147 13.111C19.3674 12.5711 19.8201 11.8276 20 10.9999V10.9449C20.637 10.6436 21.3005 10.4019 21.982 10.2229C21.9002 12.4818 20.9646 14.6257 19.364 16.2219Z" fill="#374957"/>
</g>
<defs>
<clipPath id="clip0_1317_20113">
<rect width="24" height="24" fill="white"/>
</clipPath>
</defs>
</svg>
