<svg width="24" height="24" viewBox="0 0 24 24" fill="none" xmlns="http://www.w3.org/2000/svg">
<path d="M20.4847 3.51682C18.8069 1.84055 16.6698 0.699343 14.3435 0.23746C12.0172 -0.224423 9.60614 0.0137526 7.41518 0.921879C5.22421 1.83001 3.35167 3.36731 2.03425 5.33947C0.716825 7.31163 0.0136719 9.63011 0.0136719 12.0018C0.0136719 14.3735 0.716825 16.692 2.03425 18.6642C3.35167 20.6363 5.22421 22.1736 7.41518 23.0818C9.60614 23.9899 12.0172 24.2281 14.3435 23.7662C16.6698 23.3043 18.8069 22.1631 20.4847 20.4868C22.7318 18.2347 23.9938 15.1832 23.9938 12.0018C23.9938 8.82041 22.7318 5.76892 20.4847 3.51682ZM21.9337 10.9338C20.7346 11.0793 19.518 10.9501 18.3762 10.5559C17.2343 10.1618 16.1971 9.51307 15.343 8.65886C14.4889 7.80465 13.8402 6.76734 13.4462 5.62544C13.0522 4.48354 12.9231 3.26697 13.0687 2.06782C15.3385 2.30645 17.4574 3.31725 19.0711 4.93112C20.6848 6.545 21.6954 8.66406 21.9337 10.9338ZM2.06575 13.0698C3.26492 12.9243 4.48147 13.0536 5.62333 13.4477C6.76518 13.8418 7.80242 14.4906 8.65653 15.3448C9.51064 16.199 10.1592 17.2363 10.5533 18.3782C10.9473 19.5201 11.0764 20.7367 10.9307 21.9358C8.66102 21.6972 6.54207 20.6864 4.92838 19.0725C3.31468 17.4586 2.30412 15.3396 2.06575 13.0698ZM19.0707 19.0698C17.4278 20.7163 15.2599 21.735 12.9437 21.9488C13.0873 20.4821 12.9038 19.0018 12.4067 17.6144C11.9096 16.2271 11.1111 14.9672 10.0688 13.9254C9.02638 12.8836 7.76604 12.0858 6.37841 11.5895C4.99079 11.0931 3.51039 10.9105 2.04375 11.0548C2.26126 8.73911 3.28084 6.57211 4.92632 4.92827C6.57181 3.28443 8.73982 2.26701 11.0557 2.05182C10.9213 3.43837 11.0784 4.83772 11.517 6.15993C11.9556 7.48214 12.666 8.69796 13.6025 9.72923C14.5391 10.7605 15.681 11.5844 16.955 12.148C18.2289 12.7116 19.6067 13.0025 20.9997 13.0018C21.3167 13.0018 21.6347 12.9858 21.9527 12.9558C21.7355 15.2687 20.716 17.4327 19.0707 19.0728V19.0698Z" fill="#374957"/>
</svg>
