<svg width="24" height="24" viewBox="0 0 24 24" fill="none" xmlns="http://www.w3.org/2000/svg">
<g clip-path="url(#clip0_1317_19970)">
<path d="M23.7148 2.28564C23.5249 2.09646 23.2678 1.99023 22.9998 1.99023C22.7317 1.99023 22.4746 2.09646 22.2848 2.28564L17.5208 7.04963L17.2008 6.73663C16.3571 5.91259 15.2497 5.41272 14.0736 5.3251C12.8975 5.23747 11.7282 5.56771 10.7718 6.25763C9.39129 7.29863 7.85683 8.11782 6.22376 8.68563L4.14976 9.29363C3.4758 9.49146 2.85069 9.82809 2.31457 10.2819C1.77846 10.7357 1.3432 11.2966 1.03676 11.9286C0.735362 12.5521 0.567494 13.2316 0.543903 13.9237C0.520311 14.6157 0.641516 15.3051 0.899756 15.9476C1.87853 18.3504 3.55647 20.4038 5.71608 21.8416C7.87569 23.2794 10.4174 24.0354 13.0118 24.0116H13.9358C14.1425 24.0115 14.3442 23.9479 14.5138 23.8296C16.274 22.6806 17.7783 21.181 18.9328 19.4245C20.0873 17.6679 20.8672 15.6922 21.2238 13.6206C21.3478 12.8285 21.2806 12.0182 21.0278 11.2574C20.7751 10.4965 20.3441 9.80709 19.7708 9.24663L18.9708 8.46263L23.7178 3.71564C23.9065 3.52537 24.0122 3.26805 24.0117 3.00002C24.0111 2.73199 23.9043 2.47511 23.7148 2.28564ZM13.6078 21.9856H13.0078C11.5302 21.9876 10.0666 21.6999 8.69975 21.1386L8.71076 21.1326C10.4597 20.2551 11.9568 18.9475 13.0618 17.3326L13.5798 16.5716C13.7307 16.3502 13.7874 16.0778 13.7375 15.8145C13.6876 15.5512 13.5352 15.3185 13.3138 15.1676C13.0923 15.0167 12.82 14.96 12.5567 15.0098C12.2934 15.0597 12.0607 15.2122 11.9098 15.4336L11.3918 16.1946C10.479 17.5262 9.24301 18.6042 7.79976 19.3276L6.54876 19.9576C5.54787 19.2541 4.67435 18.3849 3.96576 17.3876C5.60473 16.8362 7.10005 15.9261 8.34276 14.7236C8.53451 14.5361 8.64392 14.2801 8.64692 14.0119C8.64992 13.7438 8.54626 13.4854 8.35876 13.2936C8.17125 13.1019 7.91525 12.9925 7.64707 12.9895C7.37889 12.9865 7.12051 13.0901 6.92876 13.2776C5.80964 14.362 4.44379 15.1582 2.94876 15.5976C2.88776 15.4626 2.82176 15.3306 2.76676 15.1916C2.61188 14.8113 2.53938 14.4024 2.55403 13.992C2.56868 13.5816 2.67015 13.179 2.85176 12.8106C3.03561 12.4324 3.29635 12.0967 3.61731 11.825C3.93827 11.5533 4.31239 11.3515 4.71576 11.2326L6.78876 10.6246C7.99171 10.2382 9.1424 9.70482 10.2148 9.03663L18.1298 16.7486C17.0781 18.8421 15.5246 20.6426 13.6078 21.9896V21.9856ZM19.2278 13.3026C19.1513 13.7705 19.0481 14.2336 18.9188 14.6896L11.9478 7.90063C12.4592 7.53306 13.073 7.33511 13.7028 7.33463C14.4818 7.33364 15.2302 7.63851 15.7868 8.18363L18.3558 10.6926C18.6987 11.0274 18.9568 11.4393 19.1085 11.894C19.2601 12.3486 19.301 12.833 19.2278 13.3066V13.3026Z" fill="#374957"/>
</g>
<defs>
<clipPath id="clip0_1317_19970">
<rect width="24" height="24" fill="white"/>
</clipPath>
</defs>
</svg>
