<svg width="24" height="24" viewBox="0 0 24 24" fill="none" xmlns="http://www.w3.org/2000/svg">
<g clip-path="url(#clip0_1317_19955)">
<path d="M19.5 9.00064H19V7.00064C19 6.73542 18.8946 6.48107 18.7071 6.29353C18.5196 6.10599 18.2652 6.00064 18 6.00064C18.0127 5.29132 17.8317 4.59196 17.4765 3.97788C17.1212 3.36379 16.6052 2.85823 15.984 2.51564C15.2657 2.11586 14.4437 1.94163 13.625 2.01564C13.5234 2.02824 13.4203 2.01433 13.3256 1.97525C13.231 1.93617 13.1481 1.87326 13.085 1.79264C12.6498 1.22245 12.0847 0.764325 11.4369 0.456326C10.7891 0.148326 10.0771 -0.000664167 9.36011 0.0217292C8.64313 0.0441225 7.94185 0.237253 7.31449 0.585081C6.68713 0.932908 6.15182 1.42539 5.753 2.02164C4.73854 2.08272 3.78555 2.52832 3.08823 3.26764C2.3909 4.00695 2.00173 4.98435 2 6.00064C1.73478 6.00064 1.48043 6.10599 1.29289 6.29353C1.10536 6.48107 1 6.73542 1 7.00064V19.0006C1.00159 20.3262 1.52888 21.5971 2.46622 22.5344C3.40356 23.4718 4.67441 23.9991 6 24.0006H14C15.3256 23.9991 16.5964 23.4718 17.5338 22.5344C18.4711 21.5971 18.9984 20.3262 19 19.0006H19.5C20.4283 19.0006 21.3185 18.6319 21.9749 17.9755C22.6313 17.3191 23 16.4289 23 15.5006V12.5006C23 11.5724 22.6313 10.6821 21.9749 10.0258C21.3185 9.36939 20.4283 9.00064 19.5 9.00064ZM6 4.00064C6.05751 4.00251 6.11474 4.00954 6.171 4.02164C6.38651 4.05668 6.60756 4.02023 6.80041 3.91784C6.99325 3.81546 7.14729 3.65278 7.239 3.45464C7.42183 3.06649 7.70148 2.73194 8.05104 2.48315C8.4006 2.23437 8.8083 2.07974 9.23492 2.03414C9.66153 1.98853 10.0927 2.05349 10.487 2.22276C10.8812 2.39203 11.2253 2.65991 11.486 3.00064C11.754 3.3566 12.1097 3.63696 12.5185 3.81434C12.9272 3.99171 13.375 4.06004 13.818 4.01264C14.2452 3.97899 14.6727 4.07334 15.046 4.28364C15.3436 4.45888 15.5889 4.71045 15.7566 5.01232C15.9244 5.31419 16.0084 5.6554 16 6.00064H12C11.2044 6.00064 10.4413 6.31671 9.87868 6.87932C9.31607 7.44193 9 8.20499 9 9.00064V12.0006C9 12.2659 8.89464 12.5202 8.70711 12.7077C8.51957 12.8953 8.26522 13.0006 8 13.0006C7.73478 13.0006 7.48043 12.8953 7.29289 12.7077C7.10536 12.5202 7 12.2659 7 12.0006V9.00064C7 8.20499 6.68393 7.44193 6.12132 6.87932C5.55871 6.31671 4.79565 6.00064 4 6.00064C4 5.4702 4.21071 4.9615 4.58579 4.58642C4.96086 4.21135 5.46957 4.00064 6 4.00064ZM17 19.0006C17 19.7963 16.6839 20.5593 16.1213 21.122C15.5587 21.6846 14.7956 22.0006 14 22.0006H6C5.20435 22.0006 4.44129 21.6846 3.87868 21.122C3.31607 20.5593 3 19.7963 3 19.0006V8.00064H4C4.26522 8.00064 4.51957 8.10599 4.70711 8.29353C4.89464 8.48107 5 8.73542 5 9.00064V12.0006C5 12.7963 5.31607 13.5593 5.87868 14.122C6.44129 14.6846 7.20435 15.0006 8 15.0006C8.79565 15.0006 9.55871 14.6846 10.1213 14.122C10.6839 13.5593 11 12.7963 11 12.0006V9.00064C11 8.73542 11.1054 8.48107 11.2929 8.29353C11.4804 8.10599 11.7348 8.00064 12 8.00064H17V19.0006ZM21 15.5006C21 15.8985 20.842 16.28 20.5607 16.5613C20.2794 16.8426 19.8978 17.0006 19.5 17.0006H19V11.0006H19.5C19.8978 11.0006 20.2794 11.1587 20.5607 11.44C20.842 11.7213 21 12.1028 21 12.5006V15.5006Z" fill="#374957"/>
</g>
<defs>
<clipPath id="clip0_1317_19955">
<rect width="24" height="24" fill="white"/>
</clipPath>
</defs>
</svg>
