<svg width="24" height="24" viewBox="0 0 24 24" fill="none" xmlns="http://www.w3.org/2000/svg">
<g clip-path="url(#clip0_1317_19957)">
<path d="M10.0003 7.99958C10.3958 7.99958 10.7825 8.11688 11.1114 8.33664C11.4403 8.55641 11.6966 8.86876 11.848 9.23422C11.9994 9.59967 12.039 10.0018 11.9618 10.3898C11.8847 10.7777 11.6942 11.1341 11.4145 11.4138C11.1348 11.6935 10.7784 11.884 10.3904 11.9612C10.0025 12.0383 9.60035 11.9987 9.23489 11.8473C8.86944 11.696 8.55708 11.4396 8.33732 11.1107C8.11756 10.7818 8.00026 10.3951 8.00026 9.99958C8.00026 9.46915 8.21097 8.96044 8.58605 8.58537C8.96112 8.2103 9.46983 7.99958 10.0003 7.99958ZM24.0003 9.99958C23.9902 13.2932 22.8412 16.482 20.7481 19.0249C18.6549 21.5679 15.7465 23.3086 12.5163 23.9516C12.0885 24.0297 11.6487 24.0123 11.2285 23.9007C10.8082 23.789 10.4178 23.5858 10.0853 23.3056C9.74561 23.0228 9.47234 22.6687 9.28483 22.2684C9.09732 21.8682 9.00017 21.4316 9.00026 20.9896V19.9486C7.31744 19.7806 5.70472 19.1885 4.31292 18.2278C2.92111 17.2671 1.7957 15.9691 1.04191 14.4552C0.288123 12.9413 -0.0694046 11.261 0.0027626 9.57132C0.0749298 7.88168 0.574434 6.23794 1.45456 4.79383C2.33469 3.34971 3.56669 2.1524 5.03534 1.31386C6.50399 0.475318 8.16132 0.0229452 9.85234 -0.000954314C11.5433 -0.0248539 13.2128 0.3805 14.7046 1.1772C16.1963 1.9739 17.4617 3.13592 18.3823 4.55458C18.4539 4.66502 18.5031 4.7885 18.527 4.91794C18.5509 5.04739 18.5491 5.18028 18.5217 5.30903C18.4942 5.43778 18.4417 5.55986 18.3671 5.66831C18.2925 5.77676 18.1972 5.86945 18.0868 5.94108C17.9763 6.01272 17.8528 6.0619 17.7234 6.08582C17.594 6.10974 17.4611 6.10793 17.3323 6.08049C17.2036 6.05305 17.0815 6.00052 16.973 5.9259C16.8646 5.85128 16.7719 5.75602 16.7003 5.64558C15.7611 4.19798 14.3791 3.09282 12.7604 2.49502C11.1417 1.89721 9.37314 1.8388 7.71853 2.3285C6.06392 2.8182 4.612 3.82976 3.5794 5.21224C2.5468 6.59473 1.98887 8.27403 1.98887 9.99958C1.98887 11.7251 2.5468 13.4044 3.5794 14.7869C4.612 16.1694 6.06392 17.181 7.71853 17.6707C9.37314 18.1604 11.1417 18.102 12.7604 17.5041C14.3791 16.9063 15.7611 15.8012 16.7003 14.3536C16.7719 14.2435 16.8645 14.1485 16.9728 14.0742C17.0812 13.9999 17.2031 13.9477 17.3316 13.9204C17.4601 13.8932 17.5927 13.8916 17.7219 13.9157C17.851 13.9397 17.9741 13.9889 18.0843 14.0606C18.1944 14.1322 18.2893 14.2248 18.3636 14.3332C18.4379 14.4415 18.4902 14.5634 18.5174 14.6919C18.5446 14.8204 18.5462 14.953 18.5222 15.0822C18.4981 15.2113 18.4489 15.3345 18.3773 15.4446C17.5637 16.6991 16.4781 17.7543 15.2011 18.5319C13.924 19.3095 12.4882 19.7896 11.0003 19.9366V20.9896C11.0004 21.1387 11.0333 21.286 11.0967 21.421C11.1602 21.556 11.2525 21.6753 11.3673 21.7706C11.4748 21.863 11.6017 21.9301 11.7386 21.9669C11.8755 22.0038 12.0189 22.0095 12.1583 21.9836C14.4347 21.5324 16.535 20.4408 18.2126 18.8372C19.8901 17.2335 21.0751 15.1844 21.6283 12.9306C21.422 12.976 21.2115 12.9991 21.0003 12.9996C20.4069 12.9996 19.8269 12.8236 19.3336 12.494C18.8402 12.1643 18.4557 11.6958 18.2286 11.1476C18.0016 10.5995 17.9422 9.99626 18.0579 9.41431C18.1737 8.83237 18.4594 8.29782 18.8789 7.87826C19.2985 7.45871 19.833 7.17298 20.415 7.05723C20.9969 6.94147 21.6001 7.00088 22.1483 7.22794C22.6965 7.45501 23.165 7.83952 23.4947 8.33287C23.8243 8.82622 24.0003 9.40624 24.0003 9.99958ZM22.0003 9.99958C22.0003 9.8018 21.9416 9.60846 21.8317 9.44401C21.7219 9.27956 21.5657 9.15139 21.3829 9.0757C21.2002 9.00002 20.9992 8.98021 20.8052 9.0188C20.6112 9.05738 20.433 9.15262 20.2932 9.29248C20.1533 9.43233 20.0581 9.61051 20.0195 9.80449C19.9809 9.99847 20.0007 10.1995 20.0764 10.3823C20.1521 10.565 20.2802 10.7212 20.4447 10.8311C20.6091 10.9409 20.8025 10.9996 21.0003 10.9996C21.2655 10.9996 21.5198 10.8942 21.7074 10.7067C21.8949 10.5192 22.0003 10.2648 22.0003 9.99958Z" fill="#374957"/>
</g>
<defs>
<clipPath id="clip0_1317_19957">
<rect width="24" height="24" fill="white"/>
</clipPath>
</defs>
</svg>
