<svg width="24" height="24" viewBox="0 0 24 24" fill="none" xmlns="http://www.w3.org/2000/svg">
<g clip-path="url(#clip0_1317_20019)">
<path d="M23.5172 2.087C23.1721 1.45559 22.6635 0.928655 22.0447 0.561458C21.4259 0.19426 20.7197 0.000328576 20.0002 0L4.00017 0C3.28063 0.000328576 2.57443 0.19426 1.95563 0.561458C1.33683 0.928655 0.828233 1.45559 0.483174 2.087C0.135266 2.7086 -0.036312 3.41341 -0.0130498 4.12537C0.0102124 4.83733 0.227432 5.52943 0.615174 6.127C1.78725 7.82675 3.33213 9.2363 5.13193 10.2481C6.93172 11.2598 8.93886 11.8471 11.0002 11.965V22H7.00018C6.73496 22 6.48061 22.1054 6.29307 22.2929C6.10553 22.4804 6.00018 22.7348 6.00018 23C6.00018 23.2652 6.10553 23.5196 6.29307 23.7071C6.48061 23.8946 6.73496 24 7.00018 24H17.0002C17.2654 24 17.5197 23.8946 17.7073 23.7071C17.8948 23.5196 18.0002 23.2652 18.0002 23C18.0002 22.7348 17.8948 22.4804 17.7073 22.2929C17.5197 22.1054 17.2654 22 17.0002 22H13.0002V11.965C15.0615 11.8471 17.0686 11.2598 18.8684 10.2481C20.6682 9.2363 22.2131 7.82675 23.3852 6.127C23.7729 5.52943 23.9901 4.83733 24.0134 4.12537C24.0367 3.41341 23.8651 2.7086 23.5172 2.087ZM4.00017 2H20.0002C20.5306 2 21.0393 2.21071 21.4144 2.58579C21.7895 2.96086 22.0002 3.46957 22.0002 4H2.00017C2.00017 3.46957 2.21089 2.96086 2.58596 2.58579C2.96103 2.21071 3.46974 2 4.00017 2ZM12.0002 10C10.3043 10.0059 8.62649 9.65253 7.07712 8.96308C5.52775 8.27363 4.14201 7.26377 3.01117 6H20.9892C19.8586 7.26406 18.4729 8.27413 16.9235 8.96361C15.374 9.65308 13.6961 10.0063 12.0002 10Z" fill="#374957"/>
</g>
<defs>
<clipPath id="clip0_1317_20019">
<rect width="24" height="24" fill="white"/>
</clipPath>
</defs>
</svg>
