<svg width="24" height="24" viewBox="0 0 24 24" fill="none" xmlns="http://www.w3.org/2000/svg">
<g clip-path="url(#clip0_1317_20209)">
<path d="M19.9998 8C18.939 8 17.9216 7.57857 17.1714 6.82843C16.4213 6.07828 15.9998 5.06087 15.9998 4C15.9998 2.93913 16.4213 1.92172 17.1714 1.17157C17.9216 0.421427 18.939 0 19.9998 0C21.0607 0 22.0781 0.421427 22.8283 1.17157C23.5784 1.92172 23.9998 2.93913 23.9998 4C23.9998 5.06087 23.5784 6.07828 22.8283 6.82843C22.0781 7.57857 21.0607 8 19.9998 8ZM19.9998 2C19.4694 2 18.9607 2.21071 18.5856 2.58579C18.2106 2.96086 17.9998 3.46957 17.9998 4C17.9998 4.53043 18.2106 5.03914 18.5856 5.41421C18.9607 5.78929 19.4694 6 19.9998 6C20.5303 6 21.039 5.78929 21.4141 5.41421C21.7891 5.03914 21.9998 4.53043 21.9998 4C21.9998 3.46957 21.7891 2.96086 21.4141 2.58579C21.039 2.21071 20.5303 2 19.9998 2ZM21.4518 24H12.5888C12.1405 24.004 11.6991 23.8895 11.3091 23.6683C10.9191 23.4471 10.5945 23.1269 10.3678 22.74C10.1458 22.3672 10.0261 21.9423 10.021 21.5084C10.0159 21.0745 10.1256 20.6469 10.3388 20.269L14.7748 12.31C15.0033 11.9155 15.3314 11.588 15.7263 11.3604C16.1212 11.1327 16.569 11.0129 17.0248 11.0129C17.4807 11.0129 17.9285 11.1327 18.3234 11.3604C18.7183 11.588 19.0464 11.9155 19.2748 12.31L23.6998 20.263C23.9135 20.6415 24.0235 21.0697 24.0185 21.5043C24.0136 21.9389 23.894 22.3645 23.6718 22.738C23.4453 23.1249 23.1209 23.4452 22.7311 23.6668C22.3414 23.8883 21.9001 24.0033 21.4518 24ZM17.0228 13C16.9217 12.9976 16.8218 13.0227 16.7338 13.0725C16.6457 13.1223 16.5729 13.1951 16.5228 13.283L12.0868 21.242C12.044 21.3159 12.0219 21.3999 12.0229 21.4853C12.024 21.5707 12.0482 21.6542 12.0928 21.727C12.1441 21.8131 12.2175 21.8839 12.3055 21.932C12.3934 21.98 12.4927 22.0035 12.5928 22H21.4558C21.5561 22.003 21.6554 21.979 21.7433 21.9307C21.8313 21.8823 21.9046 21.8113 21.9558 21.725C21.9998 21.651 22.0229 21.5665 22.0229 21.4805C22.0229 21.3945 21.9998 21.31 21.9558 21.236L17.5238 13.284C17.4741 13.1956 17.4011 13.1224 17.3128 13.0724C17.2245 13.0223 17.1243 12.9973 17.0228 13ZM7.99984 23C7.99984 22.7348 7.89448 22.4804 7.70695 22.2929C7.51941 22.1054 7.26506 22 6.99984 22H3.34984C3.11598 21.9999 2.88617 21.9389 2.68296 21.8232C2.47975 21.7074 2.31012 21.5408 2.19072 21.3397C2.07132 21.1387 2.00625 20.91 2.00188 20.6762C1.99752 20.4423 2.05402 20.2114 2.16584 20.006L8.81784 7.706C8.93161 7.49161 9.10192 7.31246 9.31029 7.18801C9.51866 7.06355 9.75714 6.99853 9.99984 7C10.2428 6.99801 10.4816 7.06281 10.6902 7.18731C10.8988 7.31181 11.0693 7.49124 11.1828 7.706L12.4098 9.973C12.4724 10.0886 12.557 10.1907 12.659 10.2735C12.761 10.3564 12.8783 10.4183 13.0042 10.4558C13.1301 10.4934 13.2622 10.5057 13.3928 10.4922C13.5235 10.4786 13.6503 10.4395 13.7658 10.377C13.8814 10.3145 13.9835 10.2298 14.0664 10.1279C14.1492 10.0259 14.2112 9.90859 14.2487 9.78267C14.2862 9.65675 14.2985 9.52468 14.285 9.39399C14.2715 9.26331 14.2324 9.13656 14.1698 9.021L12.9438 6.755C12.6573 6.22424 12.2325 5.78088 11.7145 5.47187C11.1965 5.16286 10.6045 4.99972 10.0013 4.99972C9.39816 4.99972 8.80622 5.16286 8.28821 5.47187C7.77019 5.78088 7.34541 6.22424 7.05884 6.755L0.405839 19.055C0.129943 19.5652 -0.00880904 20.1382 0.00315449 20.7181C0.015118 21.298 0.177388 21.8649 0.474091 22.3632C0.770795 22.8616 1.19177 23.2744 1.69585 23.5613C2.19992 23.8482 2.76984 23.9994 3.34984 24H6.99984C7.26506 24 7.51941 23.8946 7.70695 23.7071C7.89448 23.5196 7.99984 23.2652 7.99984 23Z" fill="#374957"/>
</g>
<defs>
<clipPath id="clip0_1317_20209">
<rect width="24" height="24" fill="white"/>
</clipPath>
</defs>
</svg>
