<svg width="24" height="24" viewBox="0 0 24 24" fill="none" xmlns="http://www.w3.org/2000/svg">
<g clip-path="url(#clip0_1317_20182)">
<path d="M14.5001 13C14.2034 13 13.9134 12.9121 13.6668 12.7472C13.4201 12.5824 13.2278 12.3481 13.1143 12.0741C13.0008 11.8 12.971 11.4984 13.0289 11.2074C13.0868 10.9164 13.2297 10.6491 13.4394 10.4394C13.6492 10.2296 13.9165 10.0867 14.2075 10.0288C14.4984 9.97097 14.8 10.0007 15.0741 10.1142C15.3482 10.2277 15.5825 10.42 15.7473 10.6667C15.9121 10.9133 16.0001 11.2034 16.0001 11.5C16.0001 11.8979 15.8421 12.2794 15.5608 12.5607C15.2795 12.842 14.8979 13 14.5001 13ZM21.8511 8.27403C21.4496 5.95412 20.2405 3.85101 18.4377 2.33677C16.6348 0.822542 14.3545 -0.00519135 12.0001 2.45003e-05C5.1001 2.45003e-05 3.1241 4.67403 1.8191 7.76703C1.55449 8.64218 1.10464 9.45013 0.500104 10.136C0.319513 10.2414 0.176474 10.4006 0.091097 10.5915C0.0057198 10.7823 -0.0177015 10.9951 0.0241261 11.1999C0.0659537 11.4048 0.170926 11.5913 0.324286 11.7334C0.477645 11.8755 0.671678 11.9659 0.879104 11.992C3.35091 12.1999 5.83693 11.8231 8.1361 10.892C8.00925 11.1732 7.97214 11.4865 8.02982 11.7895C8.0875 12.0925 8.23717 12.3703 8.45845 12.5852C8.67973 12.8 8.96186 12.9414 9.2664 12.9902C9.57095 13.0389 9.88311 12.9925 10.1604 12.8574C10.4376 12.7223 10.6665 12.5051 10.8158 12.2352C10.9651 11.9653 11.0277 11.656 10.9948 11.3493C10.962 11.0427 10.8355 10.7536 10.6324 10.5214C10.4294 10.2893 10.1597 10.1254 9.8601 10.052C11.8247 8.95147 13.5181 7.42516 14.8161 5.58502C14.8985 5.47864 14.9585 5.35672 14.9927 5.22657C15.0268 5.09643 15.0343 4.96073 15.0148 4.82761C14.9953 4.69448 14.9491 4.56667 14.879 4.45183C14.8089 4.33698 14.7163 4.23746 14.6068 4.15923C14.4974 4.081 14.3732 4.02567 14.2419 3.99654C14.1105 3.96742 13.9746 3.9651 13.8423 3.98973C13.7101 4.01436 13.5841 4.06543 13.4721 4.13988C13.36 4.21433 13.2641 4.31064 13.1901 4.42302C12.0239 6.06487 10.5016 7.42177 8.73701 8.39222C6.9724 9.36267 5.01119 9.92154 3.0001 10.027C3.2271 9.57403 3.4381 9.07103 3.6621 8.54403C4.8921 5.62803 6.4231 2.00002 12.0001 2.00002C13.9759 1.9953 15.8832 2.72393 17.3526 4.04481C18.8221 5.3657 19.749 7.18486 19.9541 9.15003C19.977 9.36489 20.0689 9.56656 20.216 9.72483C20.3631 9.88311 20.5575 9.98948 20.7701 10.028C21.1344 10.0993 21.4594 10.3031 21.6822 10.6001C21.9049 10.8971 22.0096 11.2661 21.976 11.6358C21.9424 12.0056 21.7729 12.3497 21.5003 12.6017C21.2277 12.8537 20.8713 12.9956 20.5001 13C20.4155 12.9977 20.3313 12.9887 20.2481 12.973C20.0149 12.9305 19.7741 12.9727 19.5693 13.0921C19.3645 13.2115 19.2091 13.4001 19.1311 13.624C18.2151 16.221 15.1321 19 12.0001 19C9.10011 19 6.4001 16.717 5.2341 14.461C5.11211 14.2255 4.90155 14.0481 4.64875 13.9678C4.39595 13.8876 4.12162 13.911 3.8861 14.033C3.65059 14.155 3.47319 14.3656 3.39292 14.6184C3.31266 14.8712 3.3361 15.1455 3.4581 15.381C4.49452 17.3149 6.07314 18.9039 8.0001 19.953V23C8.0001 23.2652 8.10546 23.5196 8.293 23.7071C8.48053 23.8947 8.73489 24 9.0001 24C9.26532 24 9.51968 23.8947 9.70721 23.7071C9.89475 23.5196 10.0001 23.2652 10.0001 23V20.738C11.3102 21.09 12.69 21.09 14.0001 20.738V23C14.0001 23.2652 14.1055 23.5196 14.293 23.7071C14.4805 23.8947 14.7349 24 15.0001 24C15.2653 24 15.5197 23.8947 15.7072 23.7071C15.8947 23.5196 16.0001 23.2652 16.0001 23V19.954C18.0642 18.8443 19.7216 17.1065 20.7321 14.992C21.5179 14.9384 22.2627 14.6213 22.8459 14.092C23.4292 13.5627 23.8169 12.8521 23.9463 12.0752C24.0757 11.2983 23.9393 10.5004 23.5591 9.81063C23.1789 9.12084 22.5771 8.57946 21.8511 8.27403Z" fill="#374957"/>
</g>
<defs>
<clipPath id="clip0_1317_20182">
<rect width="24" height="24" fill="white"/>
</clipPath>
</defs>
</svg>
