<svg width="24" height="24" viewBox="0 0 24 24" fill="none" xmlns="http://www.w3.org/2000/svg">
<g clip-path="url(#clip0_1317_20313)">
<path d="M22.7613 13.9701L20.3163 14.6161C19.9592 14.7114 19.6253 14.8789 19.3353 15.1081L16.7183 13.5861C17.0864 12.5601 17.0864 11.4381 16.7183 10.4121L19.3353 8.89012C19.6253 9.11938 19.9592 9.28682 20.3163 9.38212C20.3163 9.38212 22.9333 10.0611 23.0163 10.0611C23.2562 10.0571 23.4867 9.96703 23.6657 9.80722C23.8447 9.64742 23.9603 9.42858 23.9913 9.19064C24.0224 8.9527 23.9668 8.71153 23.8348 8.51115C23.7028 8.31076 23.5032 8.16452 23.2723 8.09912L20.8283 7.45212C20.6453 7.40353 20.489 7.28433 20.3938 7.12066C20.2986 6.957 20.2721 6.76224 20.3203 6.57912L20.9673 4.13512C21.0009 4.00813 21.0092 3.87576 20.9917 3.74558C20.9741 3.61539 20.9311 3.48993 20.8651 3.37637C20.7991 3.2628 20.7113 3.16335 20.6069 3.08369C20.5024 3.00404 20.3833 2.94574 20.2563 2.91212C20.1293 2.8785 19.997 2.87022 19.8668 2.88776C19.7366 2.9053 19.6111 2.9483 19.4976 3.01433C19.384 3.08035 19.2845 3.16809 19.2049 3.27255C19.1252 3.37701 19.0669 3.49613 19.0333 3.62312L18.3873 6.06712C18.2922 6.42585 18.2725 6.80038 18.3293 7.16712L15.7133 8.68312C15.0037 7.87612 14.0519 7.32044 13.0003 7.09912V4.09912C13.3448 3.96473 13.6577 3.76044 13.9193 3.49912L15.7073 1.71112C15.8955 1.52361 16.0015 1.26903 16.0019 1.00339C16.0024 0.737741 15.8973 0.482789 15.7098 0.294618C15.5223 0.106447 15.2677 0.000470405 15.0021 1.56222e-06C14.7364 -0.000467281 14.4815 0.10461 14.2933 0.292118L12.5053 2.08012C12.3709 2.21312 12.1894 2.28773 12.0003 2.28773C11.8112 2.28773 11.6297 2.21312 11.4953 2.08012L9.70732 0.292118C9.51871 0.10996 9.26611 0.00916585 9.00391 0.0114443C8.74172 0.0137227 8.49091 0.118892 8.3055 0.3043C8.12009 0.489708 8.01492 0.74052 8.01264 1.00272C8.01036 1.26491 8.11116 1.51752 8.29332 1.70612L10.0813 3.49912C10.3429 3.76044 10.6558 3.96473 11.0003 4.09912V7.09912C9.94871 7.32044 8.99697 7.87612 8.28732 8.68312L5.67132 7.16112C5.72815 6.79438 5.7084 6.41985 5.61332 6.06112L4.96732 3.61912C4.9337 3.49213 4.8754 3.37301 4.79574 3.26855C4.71608 3.16409 4.61663 3.07635 4.50307 3.01033C4.3895 2.9443 4.26404 2.9013 4.13386 2.88376C4.00367 2.86622 3.8713 2.8745 3.74432 2.90812C3.61733 2.94174 3.4982 3.00004 3.39375 3.07969C3.28929 3.15935 3.20155 3.2588 3.13552 3.37237C3.0695 3.48593 3.02649 3.61139 3.00896 3.74158C2.99142 3.87176 2.9997 4.00413 3.03332 4.13112L3.68032 6.57512C3.7285 6.75824 3.70207 6.953 3.60684 7.11666C3.5116 7.28033 3.35533 7.39953 3.17232 7.44812L0.728315 8.09912C0.4943 8.16174 0.290973 8.30718 0.156111 8.50842C0.0212494 8.70966 -0.035978 8.95301 -0.0049384 9.19326C0.0261013 9.43351 0.143297 9.65433 0.324876 9.81468C0.506454 9.97504 0.740069 10.064 0.982315 10.0651C1.06731 10.0651 3.68232 9.38612 3.68232 9.38612C4.03948 9.29082 4.37334 9.12338 4.66332 8.89412L7.28032 10.4161C6.91226 11.4421 6.91226 12.5641 7.28032 13.5901L4.66532 15.1081C4.37534 14.8789 4.04148 14.7114 3.68432 14.6161L1.23931 13.9701C0.990325 13.9217 0.732234 13.9697 0.517303 14.1044C0.302372 14.2391 0.146664 14.4504 0.0817097 14.6956C0.0167555 14.9408 0.0474092 15.2016 0.167464 15.425C0.287518 15.6485 0.488001 15.8179 0.728315 15.8991L3.17232 16.5461C3.35533 16.5947 3.5116 16.7139 3.60684 16.8776C3.70207 17.0412 3.7285 17.236 3.68032 17.4191L3.03332 19.8631C2.9997 19.9901 2.99142 20.1225 3.00896 20.2527C3.02649 20.3828 3.0695 20.5083 3.13552 20.6219C3.20155 20.7354 3.28929 20.8349 3.39375 20.9145C3.4982 20.9942 3.61733 21.0525 3.74432 21.0861C3.8713 21.1197 4.00367 21.128 4.13386 21.1105C4.26404 21.0929 4.3895 21.0499 4.50307 20.9839C4.61663 20.9179 4.71608 20.8301 4.79574 20.7257C4.8754 20.6212 4.9337 20.5021 4.96732 20.3751L5.61332 17.9311C5.7084 17.5724 5.72815 17.1979 5.67132 16.8311L8.28732 15.3091C8.9961 16.1183 9.94794 16.6762 11.0003 16.8991V19.8991C10.656 20.0339 10.3432 20.2381 10.0813 20.4991L8.29332 22.2921C8.11116 22.4807 8.01036 22.7333 8.01264 22.9955C8.01492 23.2577 8.12009 23.5085 8.3055 23.6939C8.49091 23.8793 8.74172 23.9845 9.00391 23.9868C9.26611 23.9891 9.51871 23.8883 9.70732 23.7061L11.5003 21.9181C11.6347 21.7851 11.8162 21.7105 12.0053 21.7105C12.1944 21.7105 12.3759 21.7851 12.5103 21.9181L14.2983 23.7061C14.4869 23.8883 14.7395 23.9891 15.0017 23.9868C15.2639 23.9845 15.5147 23.8793 15.7001 23.6939C15.8855 23.5085 15.9907 23.2577 15.993 22.9955C15.9953 22.7333 15.8945 22.4807 15.7123 22.2921L13.9243 20.5041C13.6615 20.2407 13.3468 20.0347 13.0003 19.8991V16.8991C14.0518 16.6781 15.0035 16.1227 15.7133 15.3161L18.3293 16.8381C18.2725 17.2049 18.2922 17.5794 18.3873 17.9381L19.0333 20.3821C19.1012 20.6386 19.2682 20.8576 19.4976 20.9909C19.7269 21.1242 19.9999 21.161 20.2563 21.0931C20.5128 21.0252 20.7318 20.8582 20.8651 20.6289C20.9984 20.3995 21.0352 20.1266 20.9673 19.8701L20.3203 17.4261C20.2721 17.243 20.2986 17.0482 20.3938 16.8846C20.489 16.7209 20.6453 16.6017 20.8283 16.5531L23.2723 15.9061C23.4021 15.8752 23.5243 15.8186 23.6319 15.7397C23.7394 15.6609 23.8301 15.5613 23.8986 15.4468C23.9671 15.3323 24.012 15.2053 24.0306 15.0733C24.0493 14.9412 24.0413 14.8067 24.0072 14.6778C23.9732 14.5488 23.9136 14.428 23.8321 14.3224C23.7506 14.2168 23.6488 14.1286 23.5327 14.0629C23.4167 13.9973 23.2886 13.9555 23.1561 13.9401C23.0236 13.9247 22.8894 13.9359 22.7613 13.9731V13.9701ZM12.0003 14.9991C11.2047 14.9991 10.4416 14.683 9.87899 14.1204C9.31639 13.5578 9.00032 12.7948 9.00032 11.9991C9.00032 11.2035 9.31639 10.4404 9.87899 9.8778C10.4416 9.31519 11.2047 8.99912 12.0003 8.99912C12.796 8.99912 13.559 9.31519 14.1216 9.8778C14.6842 10.4404 15.0003 11.2035 15.0003 11.9991C15.0003 12.7948 14.6842 13.5578 14.1216 14.1204C13.559 14.683 12.796 14.9991 12.0003 14.9991Z" fill="#374957"/>
</g>
<defs>
<clipPath id="clip0_1317_20313">
<rect width="24" height="24" fill="white"/>
</clipPath>
</defs>
</svg>
