<svg width="24" height="24" viewBox="0 0 24 24" fill="none" xmlns="http://www.w3.org/2000/svg">
<g clip-path="url(#clip0_1317_20191)">
<path d="M21.9998 6H18.9998C18.7346 6 18.4802 6.10536 18.2927 6.29289C18.1052 6.48043 17.9998 6.73478 17.9998 7C17.9998 7.26522 18.1052 7.51957 18.2927 7.70711C18.4802 7.89464 18.7346 8 18.9998 8H20.5858L17.1858 11.4C16.2337 10.6841 15.1135 10.225 13.9328 10.067C13.7744 8.887 13.3154 7.76752 12.5998 6.816L15.9998 3.416V5C15.9998 5.26522 16.1052 5.51957 16.2927 5.70711C16.4802 5.89464 16.7346 6 16.9998 6C17.265 6 17.5194 5.89464 17.7069 5.70711C17.8945 5.51957 17.9998 5.26522 17.9998 5V2C17.9998 1.46957 17.7891 0.960859 17.414 0.585787C17.039 0.210714 16.5303 0 15.9998 0L12.9998 0C12.7346 0 12.4802 0.105357 12.2927 0.292893C12.1052 0.48043 11.9998 0.734784 11.9998 1C11.9998 1.26522 12.1052 1.51957 12.2927 1.70711C12.4802 1.89464 12.7346 2 12.9998 2H14.5858L11.1858 5.4C10.3303 4.76013 9.33957 4.32478 8.28964 4.12736C7.2397 3.92994 6.1585 3.97571 5.129 4.26115C4.09951 4.54658 3.1491 5.0641 2.35073 5.77398C1.55235 6.48386 0.927235 7.36722 0.52336 8.35627C0.119485 9.34532 -0.0524117 10.4138 0.020864 11.4796C0.0941398 12.5454 0.41064 13.5802 0.946071 14.5047C1.4815 15.4292 2.22163 16.2187 3.10964 16.8126C3.99766 17.4066 5.00995 17.7891 6.06882 17.931C6.20671 18.9939 6.58683 20.0109 7.17987 20.9036C7.77291 21.7964 8.56303 22.5411 9.48933 23.0802C10.4156 23.6194 11.4534 23.9386 12.5225 24.0134C13.5917 24.0881 14.6638 23.9163 15.6561 23.5113C16.6484 23.1062 17.5344 22.4787 18.2459 21.6772C18.9573 20.8756 19.4752 19.9213 19.7597 18.888C20.0441 17.8546 20.0874 16.7698 19.8863 15.717C19.6852 14.6643 19.2451 13.6718 18.5998 12.816L21.9998 9.416V11C21.9998 11.2652 22.1052 11.5196 22.2927 11.7071C22.4802 11.8946 22.7346 12 22.9998 12C23.265 12 23.5194 11.8946 23.7069 11.7071C23.8945 11.5196 23.9998 11.2652 23.9998 11V8C23.9998 7.46957 23.7891 6.96086 23.414 6.58579C23.039 6.21071 22.5303 6 21.9998 6ZM1.99982 11C1.99982 10.0111 2.29306 9.0444 2.84247 8.22215C3.39188 7.3999 4.17277 6.75904 5.0864 6.3806C6.00003 6.00216 7.00537 5.90315 7.97527 6.09607C8.94518 6.289 9.83609 6.7652 10.5354 7.46447C11.2346 8.16373 11.7108 9.05464 11.9037 10.0245C12.0967 10.9945 11.9977 11.9998 11.6192 12.9134C11.2408 13.827 10.5999 14.6079 9.77767 15.1573C8.95542 15.7068 7.98873 16 6.99982 16C5.67422 15.9984 4.40338 15.4711 3.46604 14.5338C2.5287 13.5964 2.00141 12.3256 1.99982 11ZM12.9998 22C11.8325 21.9978 10.7027 21.5873 9.80628 20.8396C8.90987 20.0918 8.30334 19.054 8.09182 17.906C9.55002 17.6734 10.8974 16.9859 11.9416 15.9418C12.9857 14.8976 13.6732 13.5502 13.9058 12.092C15.1322 12.317 16.23 12.9925 16.9837 13.9858C17.7373 14.979 18.0923 16.2182 17.9787 17.4599C17.8652 18.7015 17.2914 19.8558 16.3701 20.6959C15.4488 21.536 14.2466 22.0012 12.9998 22Z" fill="#374957"/>
</g>
<defs>
<clipPath id="clip0_1317_20191">
<rect width="24" height="24" fill="white"/>
</clipPath>
</defs>
</svg>
