<svg width="24" height="24" viewBox="0 0 24 24" fill="none" xmlns="http://www.w3.org/2000/svg">
<g clip-path="url(#clip0_1317_20376)">
<path d="M19 5H16.9C16.6679 3.87141 16.0538 2.85735 15.1613 2.12872C14.2687 1.40009 13.1522 1.00145 12 1H5C3.67441 1.00159 2.40356 1.52888 1.46622 2.46622C0.528882 3.40356 0.00158786 4.67441 0 6L0 15C0.0025138 15.8956 0.305538 16.7645 0.860536 17.4675C1.41553 18.1704 2.19039 18.6668 3.061 18.877C2.96676 19.3775 2.98287 19.8924 3.10819 20.386C3.23351 20.8796 3.46503 21.3399 3.7866 21.7348C4.10816 22.1296 4.51202 22.4496 4.96999 22.6723C5.42796 22.895 5.92901 23.0151 6.43817 23.0241C6.94733 23.0332 7.45234 22.9311 7.91796 22.7248C8.38357 22.5186 8.79858 22.2133 9.13401 21.8301C9.46944 21.4469 9.71722 20.9952 9.86006 20.5064C10.0029 20.0176 10.0373 19.5035 9.961 19H14.043C14.0173 19.1655 14.0036 19.3326 14.002 19.5C14.002 20.4283 14.3707 21.3185 15.0271 21.9749C15.6835 22.6313 16.5737 23 17.502 23C18.4303 23 19.3205 22.6313 19.9769 21.9749C20.6333 21.3185 21.002 20.4283 21.002 19.5C21.0009 19.2909 20.9804 19.0824 20.941 18.877C21.8112 18.6664 22.5856 18.1699 23.1403 17.4669C23.6949 16.764 23.9976 15.8954 24 15V10C23.9984 8.67441 23.4711 7.40356 22.5338 6.46622C21.5964 5.52888 20.3256 5.00159 19 5ZM22 10V11H17V7H19C19.7956 7 20.5587 7.31607 21.1213 7.87868C21.6839 8.44129 22 9.20435 22 10ZM2 15V6C2 5.20435 2.31607 4.44129 2.87868 3.87868C3.44129 3.31607 4.20435 3 5 3H12C12.7956 3 13.5587 3.31607 14.1213 3.87868C14.6839 4.44129 15 5.20435 15 6V17H4C3.46957 17 2.96086 16.7893 2.58579 16.4142C2.21071 16.0391 2 15.5304 2 15ZM8 19.5C8 19.8978 7.84196 20.2794 7.56066 20.5607C7.27936 20.842 6.89782 21 6.5 21C6.10218 21 5.72064 20.842 5.43934 20.5607C5.15804 20.2794 5 19.8978 5 19.5C5.00061 19.3291 5.03212 19.1597 5.093 19H7.907C7.96788 19.1597 7.99939 19.3291 8 19.5ZM17.5 21C17.1022 21 16.7206 20.842 16.4393 20.5607C16.158 20.2794 16 19.8978 16 19.5C16.0004 19.3291 16.0319 19.1597 16.093 19H18.907C18.9681 19.1597 18.9996 19.3291 19 19.5C19 19.8978 18.842 20.2794 18.5607 20.5607C18.2794 20.842 17.8978 21 17.5 21ZM20 17H17V13H22V15C22 15.5304 21.7893 16.0391 21.4142 16.4142C21.0391 16.7893 20.5304 17 20 17Z" fill="#374957"/>
</g>
<defs>
<clipPath id="clip0_1317_20376">
<rect width="24" height="24" fill="white"/>
</clipPath>
</defs>
</svg>
