<svg width="24" height="24" viewBox="0 0 24 24" fill="none" xmlns="http://www.w3.org/2000/svg">
<g clip-path="url(#clip0_1317_20002)">
<path d="M22.4997 3.97656H19.4137C19.216 3.9766 19.0227 4.03528 18.8583 4.14516C18.6939 4.25505 18.5657 4.41121 18.49 4.59391C18.4144 4.77661 18.3946 4.97764 18.4331 5.17159C18.4717 5.36555 18.5669 5.54371 18.7067 5.68356L19.7927 6.76956L16.2067 10.3546C16.0162 10.5367 15.7628 10.6383 15.4992 10.6383C15.2357 10.6383 14.9823 10.5367 14.7917 10.3546L14.6217 10.1836C14.0503 9.63763 13.2905 9.33299 12.5002 9.33299C11.71 9.33299 10.9501 9.63763 10.3787 10.1836L5.27873 15.2836C5.09082 15.472 4.98547 15.7274 4.98584 15.9935C4.98622 16.2596 5.09229 16.5147 5.28073 16.7026C5.46916 16.8905 5.72453 16.9958 5.99064 16.9954C6.25675 16.9951 6.51182 16.889 6.69973 16.7006L11.7997 11.6006C11.9901 11.4182 12.2436 11.3165 12.5072 11.3165C12.7709 11.3165 13.0243 11.4182 13.2147 11.6006L13.3847 11.7716C13.9563 12.317 14.7161 12.6214 15.5062 12.6214C16.2963 12.6214 17.0561 12.317 17.6277 11.7716L21.2137 8.18556L22.2997 9.27156C22.44 9.40911 22.6178 9.50227 22.8107 9.53941C23.0037 9.57655 23.2033 9.55602 23.3847 9.48038C23.566 9.40475 23.7211 9.27736 23.8305 9.11413C23.9398 8.9509 23.9987 8.75906 23.9997 8.56256V5.47656C23.9997 5.07874 23.8417 4.69721 23.5604 4.4159C23.2791 4.1346 22.8976 3.97656 22.4997 3.97656Z" fill="#374957"/>
<path d="M23 21.976H5C4.20435 21.976 3.44129 21.6599 2.87868 21.0973C2.31607 20.5347 2 19.7716 2 18.976V1C2 0.734784 1.89464 0.48043 1.70711 0.292893C1.51957 0.105357 1.26522 0 1 0C0.734784 0 0.48043 0.105357 0.292893 0.292893C0.105357 0.48043 0 0.734784 0 1L0 18.976C0.00158786 20.3016 0.528882 21.5724 1.46622 22.5098C2.40356 23.4471 3.67441 23.9744 5 23.976H23C23.2652 23.976 23.5196 23.8706 23.7071 23.6831C23.8946 23.4956 24 23.2412 24 22.976C24 22.7108 23.8946 22.4564 23.7071 22.2689C23.5196 22.0814 23.2652 21.976 23 21.976Z" fill="#374957"/>
</g>
<defs>
<clipPath id="clip0_1317_20002">
<rect width="24" height="24" fill="white"/>
</clipPath>
</defs>
</svg>
