<svg width="24" height="24" viewBox="0 0 24 24" fill="none" xmlns="http://www.w3.org/2000/svg">
<g clip-path="url(#clip0_1317_20367)">
<path d="M19.99 15.0001H1C0.734784 15.0001 0.48043 15.1054 0.292893 15.293C0.105357 15.4805 0 15.7349 0 16.0001C0 16.2653 0.105357 16.5197 0.292893 16.7072C0.48043 16.8947 0.734784 17.0001 1 17.0001H19.99C20.618 17.0012 21.2375 16.8544 21.7982 16.5716C22.359 16.2888 22.8452 15.878 23.2177 15.3723C23.5901 14.8667 23.8383 14.2804 23.9421 13.661C24.0458 13.0416 24.0023 12.4065 23.815 11.8071C22.9307 8.95795 21.1556 6.46769 18.7508 4.7024C16.3459 2.93711 13.4382 1.98992 10.455 2.00008H1C0.734784 2.00008 0.48043 2.10544 0.292893 2.29297C0.105357 2.48051 0 2.73486 0 3.00008C0 3.2653 0.105357 3.51965 0.292893 3.70719C0.48043 3.89472 0.734784 4.00008 1 4.00008H4V7.00008H1C0.734784 7.00008 0.48043 7.10544 0.292893 7.29297C0.105357 7.48051 0 7.73487 0 8.00008C0 8.2653 0.105357 8.51965 0.292893 8.70719C0.48043 8.89472 0.734784 9.00008 1 9.00008H20.213C20.9545 10.0385 21.5263 11.1882 21.907 12.4061C22.0014 12.7042 22.0234 13.0205 21.9712 13.3288C21.9191 13.6371 21.7942 13.9286 21.607 14.1791C21.4217 14.4341 21.1785 14.6415 20.8973 14.7843C20.6162 14.927 20.3053 15.001 19.99 15.0001ZM9 7.00008H6V4.00008H9V7.00008ZM11 7.00008V4.02208C13.7373 4.13646 16.3523 5.18781 18.407 7.00008H11Z" fill="#374957"/>
<path d="M23 20H1C0.734784 20 0.48043 20.1054 0.292893 20.2929C0.105357 20.4804 0 20.7348 0 21C0 21.2652 0.105357 21.5196 0.292893 21.7071C0.48043 21.8947 0.734784 22 1 22H23C23.2652 22 23.5196 21.8947 23.7071 21.7071C23.8946 21.5196 24 21.2652 24 21C24 20.7348 23.8946 20.4804 23.7071 20.2929C23.5196 20.1054 23.2652 20 23 20Z" fill="#374957"/>
</g>
<defs>
<clipPath id="clip0_1317_20367">
<rect width="24" height="24" fill="white"/>
</clipPath>
</defs>
</svg>
