<svg width="24" height="24" viewBox="0 0 24 24" fill="none" xmlns="http://www.w3.org/2000/svg">
<g clip-path="url(#clip0_1317_20014)">
<path d="M18.7463 20.3348C18.8339 20.4328 18.9012 20.5472 18.9445 20.6713C18.9879 20.7954 19.0063 20.9268 18.9988 21.0581C18.9912 21.1893 18.9579 21.3178 18.9007 21.4361C18.8435 21.5545 18.7635 21.6604 18.6653 21.7478L17.0793 23.1618C16.8076 23.4308 16.4853 23.6434 16.1311 23.7874C15.7769 23.9314 15.3977 24.0039 15.0153 24.0008C14.6187 24.0016 14.2259 23.924 13.8594 23.7727C13.4928 23.6213 13.1598 23.3991 12.8793 23.1188L11.3353 21.7448C11.2372 21.6574 11.1573 21.5516 11.1001 21.4334C11.0428 21.3152 11.0095 21.1869 11.0019 21.0558C10.9865 20.791 11.0769 20.5309 11.2533 20.3328C11.4297 20.1347 11.6775 20.0147 11.9423 19.9993C12.0734 19.9917 12.2048 20.01 12.3288 20.0531C12.4529 20.0963 12.5672 20.1634 12.6653 20.2508L14.0003 21.4448V14.0008C14.0003 13.7356 14.1057 13.4812 14.2932 13.2937C14.4807 13.1061 14.7351 13.0008 15.0003 13.0008C15.2655 13.0008 15.5199 13.1061 15.7074 13.2937C15.8949 13.4812 16.0003 13.7356 16.0003 14.0008V21.4458L17.3353 20.2538C17.5332 20.0776 17.793 19.9871 18.0576 20.0023C18.3221 20.0175 18.5698 20.1371 18.7463 20.3348ZM18.3563 7.36177C18.1846 7.30845 18.0288 7.21341 17.9028 7.08515C17.7768 6.95688 17.6846 6.7994 17.6343 6.62677C17.1048 4.92686 16.0234 3.45216 14.5612 2.43618C13.0991 1.4202 11.3398 0.921014 9.562 1.01766C7.78416 1.1143 6.08937 1.80126 4.74598 2.96975C3.4026 4.13824 2.4874 5.72148 2.1453 7.46877C1.79429 9.23578 2.07757 11.07 2.9453 12.6488C1.93375 13.171 1.11121 13.997 0.593221 15.0108C0.075231 16.0245 -0.112183 17.175 0.0573047 18.3008C0.317956 19.6086 1.01812 20.7879 2.04152 21.6428C3.06492 22.4978 4.34999 22.977 5.6833 23.0008H8.0003C8.26552 23.0008 8.51987 22.8954 8.70741 22.7079C8.89495 22.5203 9.0003 22.266 9.0003 22.0008C9.0003 21.7356 8.89495 21.4812 8.70741 21.2937C8.51987 21.1061 8.26552 21.0008 8.0003 21.0008H5.6833C4.82926 20.9844 4.0055 20.6815 3.34429 20.1407C2.68308 19.5999 2.22278 18.8526 2.0373 18.0188C1.92872 17.3023 2.0472 16.5699 2.37613 15.9242C2.70506 15.2786 3.22791 14.7521 3.8713 14.4188C4.3299 14.1653 4.67023 13.7415 4.81865 13.239C4.96706 12.7364 4.91161 12.1957 4.6643 11.7338C4.27601 10.9932 4.0468 10.1797 3.99136 9.34535C3.93592 8.51102 4.05549 7.67431 4.34239 6.8889C4.62929 6.10349 5.07718 5.38671 5.65735 4.78456C6.23751 4.1824 6.93713 3.70816 7.71133 3.39225C8.48553 3.07634 9.31721 2.92574 10.153 2.95011C10.9888 2.97448 11.8103 3.17328 12.5648 3.53376C13.3193 3.89424 13.9901 4.40845 14.5342 5.04338C15.0783 5.67832 15.4837 6.41997 15.7243 7.22077C15.8723 7.70347 16.136 8.14273 16.4924 8.50035C16.8488 8.85797 17.2871 9.12312 17.7693 9.27277C19.0756 9.67026 20.2062 10.5035 20.9726 11.6335C21.7391 12.7635 22.0951 14.1221 21.9813 15.4828C21.906 16.5408 21.5195 17.5529 20.8703 18.3918C20.7087 18.6021 20.6372 18.868 20.6716 19.131C20.706 19.394 20.8435 19.6326 21.0538 19.7943C21.2641 19.9559 21.53 20.0274 21.7931 19.993C22.0561 19.9586 22.2947 19.8211 22.4563 19.6108C23.3373 18.4621 23.8654 17.0821 23.9763 15.6388C24.1273 13.8245 23.6519 12.0132 22.6292 10.507C21.6065 9.0008 20.0984 7.89069 18.3563 7.36177Z" fill="#374957"/>
</g>
<defs>
<clipPath id="clip0_1317_20014">
<rect width="24" height="24" fill="white"/>
</clipPath>
</defs>
</svg>
