<svg width="24" height="24" viewBox="0 0 24 24" fill="none" xmlns="http://www.w3.org/2000/svg">
<g clip-path="url(#clip0_1317_20250)">
<path d="M20.0357 24H3.96371C3.2879 24.0016 2.62295 23.83 2.03233 23.5015C1.4417 23.1731 0.945087 22.6987 0.589876 22.1238C0.234666 21.5489 0.0327064 20.8925 0.00326665 20.2173C-0.0261731 19.5422 0.117889 18.8707 0.421708 18.267L8.45871 2.18903C8.76509 1.56958 9.22932 1.04182 9.80463 0.658924C10.3799 0.276029 11.046 0.0515245 11.7357 0.00803057C12.5139 -0.0414931 13.2895 0.138848 13.966 0.526625C14.6425 0.914401 15.1901 1.4925 15.5407 2.18903L23.5777 18.267C23.8798 18.8709 24.0224 19.5419 23.9922 20.2164C23.962 20.891 23.7598 21.5465 23.4049 22.1209C23.05 22.6953 22.5542 23.1695 21.9645 23.4984C21.3749 23.8273 20.7109 23.9999 20.0357 24ZM1.99971 20.043C2.00391 20.562 2.2124 21.0584 2.58001 21.4247C2.94763 21.791 3.44476 21.9977 3.96371 22H20.0357C20.5547 21.9977 21.0518 21.791 21.4194 21.4247C21.787 21.0584 21.9955 20.562 21.9997 20.043C21.9992 19.7368 21.9266 19.435 21.7877 19.162L13.7527 3.08303C13.5902 2.7572 13.34 2.48312 13.0304 2.29154C12.7207 2.09997 12.3638 1.99849 11.9997 1.99849C11.6356 1.99849 11.2787 2.09997 10.969 2.29154C10.6594 2.48312 10.4092 2.7572 10.2467 3.08303L2.20971 19.162C2.07154 19.4351 1.9996 19.737 1.99971 20.043Z" fill="#374957"/>
</g>
<defs>
<clipPath id="clip0_1317_20250">
<rect width="24" height="24" fill="white"/>
</clipPath>
</defs>
</svg>
