<svg width="24" height="24" viewBox="0 0 24 24" fill="none" xmlns="http://www.w3.org/2000/svg">
<g clip-path="url(#clip0_1317_20399)">
<path d="M10.9999 22.9988C10.9999 22.8011 11.0585 22.6077 11.1684 22.4433C11.2783 22.2788 11.4345 22.1506 11.6172 22.075C11.7999 21.9993 12.001 21.9795 12.195 22.0181C12.389 22.0566 12.5671 22.1519 12.707 22.2917C12.8469 22.4316 12.9421 22.6098 12.9807 22.8037C13.0193 22.9977 12.9995 23.1988 12.9238 23.3815C12.8481 23.5642 12.7199 23.7204 12.5555 23.8303C12.391 23.9402 12.1977 23.9988 11.9999 23.9988C11.7347 23.9988 11.4803 23.8935 11.2928 23.7059C11.1052 23.5184 10.9999 23.2641 10.9999 22.9988ZM15.5349 20.8768C15.7224 20.6893 15.8277 20.435 15.8277 20.1698C15.8277 19.9047 15.7224 19.6504 15.5349 19.4628C14.5973 18.5255 13.3257 17.9989 11.9999 17.9989C10.6741 17.9989 9.40253 18.5255 8.46489 19.4628C8.28273 19.6514 8.18194 19.904 8.18422 20.1662C8.18649 20.4284 8.29166 20.6793 8.47707 20.8647C8.66248 21.0501 8.91329 21.1552 9.17549 21.1575C9.43769 21.1598 9.69029 21.059 9.87889 20.8768C10.4506 20.3319 11.2101 20.0279 11.9999 20.0279C12.7897 20.0279 13.5492 20.3319 14.1209 20.8768C14.3084 21.0643 14.5627 21.1696 14.8279 21.1696C15.0931 21.1696 15.3474 21.0643 15.5349 20.8768ZM18.3639 18.0488C18.5514 17.8613 18.6567 17.607 18.6567 17.3418C18.6567 17.0767 18.5514 16.8224 18.3639 16.6348C16.6748 14.9494 14.386 14.0029 11.9999 14.0029C9.61373 14.0029 7.32502 14.9494 5.63589 16.6348C5.45373 16.8234 5.35294 17.076 5.35522 17.3382C5.35749 17.6004 5.46266 17.8513 5.64807 18.0367C5.83348 18.2221 6.08429 18.3272 6.34649 18.3295C6.60869 18.3318 6.86129 18.231 7.04989 18.0488C8.36409 16.7386 10.1441 16.0029 11.9999 16.0029C13.8556 16.0029 15.6357 16.7386 16.9499 18.0488C17.1374 18.2363 17.3917 18.3416 17.6569 18.3416C17.9221 18.3416 18.1764 18.2363 18.3639 18.0488ZM5.98689 22.1598C6.00804 22.0302 6.00345 21.8977 5.97338 21.7699C5.94332 21.642 5.88837 21.5214 5.81166 21.4148C5.73496 21.3082 5.63801 21.2177 5.52635 21.1486C5.41469 21.0794 5.29051 21.033 5.16089 21.0118C4.40525 20.8923 3.7031 20.5481 3.14589 20.0239C2.58868 19.4996 2.20224 18.8198 2.03689 18.0728C1.92929 17.3586 2.04706 16.6286 2.37381 15.9844C2.70055 15.3402 3.22002 14.8139 3.85989 14.4788C4.32051 14.2261 4.66318 13.8022 4.81381 13.2989C4.96444 12.7955 4.91095 12.2531 4.66489 11.7888C4.27605 11.0483 4.04634 10.2347 3.9905 9.40011C3.93465 8.56556 4.05391 7.72856 4.34062 6.94282C4.62733 6.15708 5.07515 5.43996 5.65534 4.8375C6.23554 4.23504 6.93529 3.76054 7.70967 3.44445C8.48406 3.12837 9.31598 2.97768 10.152 3.00207C10.9881 3.02645 11.8098 3.22537 12.5645 3.58605C13.3191 3.94674 13.99 4.46122 14.5341 5.09647C15.0782 5.73173 15.4835 6.47373 15.7239 7.27484C15.8719 7.75755 16.1355 8.1968 16.4919 8.55442C16.8483 8.91204 17.2867 9.17719 17.7689 9.32684C19.0753 9.72453 20.2059 10.5579 20.9723 11.6881C21.7388 12.8183 22.0947 14.177 21.9809 15.5378C21.8915 16.5597 21.5273 17.5384 20.927 18.3703C20.3267 19.2021 19.5126 19.856 18.5709 20.2628C18.3377 20.3804 18.1597 20.5845 18.0751 20.8316C17.9904 21.0786 18.0058 21.349 18.1178 21.5849C18.2299 21.8208 18.4298 22.0035 18.6748 22.0939C18.9198 22.1843 19.1904 22.1753 19.4289 22.0688C20.6917 21.5154 21.7812 20.6305 22.5817 19.5079C23.3823 18.3854 23.864 17.0671 23.9759 15.6928C24.1269 13.8785 23.6514 12.0673 22.6288 10.5611C21.6061 9.05487 20.098 7.94476 18.3559 7.41584C18.1843 7.36254 18.0286 7.26762 17.9027 7.13955C17.7767 7.01149 17.6844 6.85424 17.6339 6.68184C17.1045 4.98192 16.0232 3.50718 14.5611 2.49113C13.099 1.47508 11.3398 0.975789 9.56198 1.07232C7.78415 1.16885 6.08933 1.85568 4.74588 3.02406C3.40242 4.19244 2.48712 5.7756 2.14489 7.52284C1.7953 9.29073 2.07029 11.1252 2.92289 12.7128C1.9179 13.2383 1.10175 14.0641 0.588062 15.0752C0.0743713 16.0862 -0.111302 17.2323 0.0568893 18.3538C0.285373 19.522 0.866154 20.5921 1.72109 21.4202C2.57602 22.2483 3.66409 22.7947 4.83889 22.9858C4.96851 23.007 5.10102 23.0024 5.22886 22.9723C5.3567 22.9423 5.47737 22.8873 5.58397 22.8106C5.69057 22.7339 5.78102 22.637 5.85016 22.5253C5.91929 22.4136 5.96575 22.2895 5.98689 22.1598Z" fill="#374957"/>
</g>
<defs>
<clipPath id="clip0_1317_20399">
<rect width="24" height="24" fill="white"/>
</clipPath>
</defs>
</svg>
