<svg width="24" height="24" viewBox="0 0 24 24" fill="none" xmlns="http://www.w3.org/2000/svg">
<g clip-path="url(#clip0_1317_20400)">
<path d="M0 11.9984C0 11.7332 0.105357 11.4789 0.292893 11.2913C0.48043 11.1038 0.734784 10.9984 1 10.9984H7C7.26522 10.9984 7.51957 11.1038 7.70711 11.2913C7.89464 11.4789 8 11.7332 8 11.9984C8 12.2637 7.89464 12.518 7.70711 12.7056C7.51957 12.8931 7.26522 12.9984 7 12.9984H1C0.734784 12.9984 0.48043 12.8931 0.292893 12.7056C0.105357 12.518 0 12.2637 0 11.9984ZM20.886 11.1054C21.3845 10.4826 21.7263 9.7493 21.8829 8.96706C22.0395 8.18482 22.0063 7.37644 21.786 6.60969C21.5657 5.84295 21.1648 5.1402 20.6169 4.56036C20.069 3.98053 19.39 3.54051 18.637 3.2772C17.8839 3.0139 17.0787 2.93498 16.2889 3.04707C15.499 3.15916 14.7476 3.45898 14.0975 3.92141C13.4474 4.38383 12.9177 4.99538 12.5528 5.70476C12.1878 6.41415 11.9983 7.20069 12 7.99845C12 8.26367 12.1054 8.51802 12.2929 8.70556C12.4804 8.89309 12.7348 8.99845 13 8.99845C13.2652 8.99845 13.5196 8.89309 13.7071 8.70556C13.8946 8.51802 14 8.26367 14 7.99845C14 7.4051 14.1759 6.82509 14.5056 6.33174C14.8352 5.83839 15.3038 5.45387 15.8519 5.22681C16.4001 4.99975 17.0033 4.94034 17.5853 5.05609C18.1672 5.17185 18.7018 5.45757 19.1213 5.87713C19.5409 6.29669 19.8266 6.83123 19.9424 7.41318C20.0581 7.99512 19.9987 8.59832 19.7716 9.1465C19.5446 9.69468 19.1601 10.1632 18.6667 10.4929C18.1734 10.8225 17.5933 10.9984 17 10.9984H11C10.7348 10.9984 10.4804 11.1038 10.2929 11.2913C10.1054 11.4789 10 11.7332 10 11.9984C10 12.2637 10.1054 12.518 10.2929 12.7056C10.4804 12.8931 10.7348 12.9984 11 12.9984H20C20.5304 12.9984 21.0391 13.2092 21.4142 13.5842C21.7893 13.9593 22 14.468 22 14.9984C21.991 17.3354 18.719 17.6465 17.943 15.6654C17.8547 15.4153 17.6706 15.2106 17.4313 15.0962C17.192 14.9818 16.9171 14.9671 16.667 15.0554C16.4169 15.1438 16.2121 15.3278 16.0977 15.5671C15.9833 15.8064 15.9687 16.0814 16.057 16.3314C17.615 20.4134 23.952 19.5774 24 14.9984C23.9983 14.0929 23.6893 13.2147 23.1236 12.5075C22.558 11.8003 21.7691 11.306 20.886 11.1054ZM11 15.9984H1C0.734784 15.9984 0.48043 16.1038 0.292893 16.2913C0.105357 16.4789 0 16.7332 0 16.9984C0 17.2637 0.105357 17.518 0.292893 17.7056C0.48043 17.8931 0.734784 17.9984 1 17.9984H11C11.5304 17.9984 12.0391 18.2092 12.4142 18.5842C12.7893 18.9593 13 19.468 13 19.9984C12.991 22.3354 9.719 22.6465 8.943 20.6654C8.89927 20.5416 8.83158 20.4276 8.74378 20.3299C8.65599 20.2323 8.54982 20.1528 8.43134 20.0962C8.31285 20.0395 8.18436 20.0068 8.05322 19.9998C7.92207 19.9928 7.79084 20.0117 7.667 20.0554C7.54316 20.0992 7.42915 20.1669 7.33148 20.2547C7.2338 20.3425 7.15438 20.4486 7.09773 20.5671C7.04109 20.6856 7.00834 20.8141 7.00135 20.9452C6.99436 21.0764 7.01327 21.2076 7.057 21.3314C8.615 25.4134 14.952 24.5774 15 19.9984C15 18.9376 14.5786 17.9202 13.8284 17.17C13.0783 16.4199 12.0609 15.9984 11 15.9984ZM1 7.99845H7C8.06087 7.99845 9.07828 7.57702 9.82843 6.82688C10.5786 6.07673 11 5.05932 11 3.99845C10.952 -0.582551 4.613 -1.41555 3.057 2.66545C2.96868 2.91555 2.98333 3.19049 3.09773 3.42978C3.21213 3.66908 3.4169 3.85313 3.667 3.94145C3.9171 4.02977 4.19204 4.01511 4.43133 3.90072C4.67063 3.78632 4.85468 3.58155 4.943 3.33145C5.72 1.34945 8.991 1.66145 9 3.99845C9 4.52888 8.78929 5.03759 8.41421 5.41266C8.03914 5.78774 7.53043 5.99845 7 5.99845H1C0.734784 5.99845 0.48043 6.10381 0.292893 6.29134C0.105357 6.47888 0 6.73323 0 6.99845C0 7.26367 0.105357 7.51802 0.292893 7.70556C0.48043 7.89309 0.734784 7.99845 1 7.99845Z" fill="#374957"/>
</g>
<defs>
<clipPath id="clip0_1317_20400">
<rect width="24" height="24" fill="white"/>
</clipPath>
</defs>
</svg>
