<svg width="24" height="24" viewBox="0 0 24 24" fill="none" xmlns="http://www.w3.org/2000/svg">
<g clip-path="url(#clip0_1317_20142)">
<path d="M21.8 5.5781L14.8 0.854096C13.9742 0.292493 12.9987 -0.0078125 12 -0.0078125C11.0014 -0.0078125 10.0258 0.292493 9.2 0.854096L2.2 5.5781C1.52215 6.03627 0.967097 6.65379 0.583525 7.37647C0.199953 8.09916 -0.000414419 8.90493 6.43539e-07 9.7231V18.9991C0.0015885 20.3247 0.528883 21.5955 1.46622 22.5329C2.40356 23.4702 3.67441 23.9975 5 23.9991H19C20.3256 23.9975 21.5964 23.4702 22.5338 22.5329C23.4711 21.5955 23.9984 20.3247 24 18.9991V9.7231C24.0004 8.90493 23.8001 8.09916 23.4165 7.37647C23.0329 6.65379 22.4778 6.03627 21.8 5.5781ZM22 18.9991C22 19.7947 21.6839 20.5578 21.1213 21.1204C20.5587 21.683 19.7957 21.9991 19 21.9991H5C4.20435 21.9991 3.44129 21.683 2.87868 21.1204C2.31607 20.5578 2 19.7947 2 18.9991V9.7231C1.99997 9.23201 2.1205 8.74844 2.351 8.31481C2.5815 7.88118 2.91492 7.51077 3.322 7.2361L10.322 2.5121C10.817 2.17582 11.4016 1.99602 12 1.99602C12.5984 1.99602 13.183 2.17582 13.678 2.5121L20.678 7.2361C21.0851 7.51077 21.4185 7.88118 21.649 8.31481C21.8795 8.74844 22 9.23201 22 9.7231V18.9991ZM12 7.0051C10.8122 7.00495 9.65116 7.35734 8.66384 8.01762C7.67652 8.6779 6.90739 9.61636 6.45387 10.7141C6.00035 11.8119 5.88285 13.0196 6.11626 14.1842C6.34966 15.3488 6.92347 16.4179 7.765 17.2561L9.589 19.0401C10.2353 19.666 11.0998 20.016 11.9995 20.016C12.8992 20.016 13.7637 19.666 14.41 19.0401L16.243 17.2481C17.0823 16.409 17.6538 15.3398 17.8854 14.1758C18.117 13.0119 17.9981 11.8053 17.544 10.7089C17.0898 9.61245 16.3206 8.67533 15.3338 8.01605C14.347 7.35677 13.1868 7.00495 12 7.0051ZM14.836 15.8261L13.011 17.6111C12.7398 17.8737 12.377 18.0206 11.9995 18.0206C11.622 18.0206 11.2592 17.8737 10.988 17.6111L9.171 15.8341C8.61196 15.275 8.23113 14.5628 8.07663 13.7874C7.92213 13.012 8.00088 12.2082 8.30294 11.4776C8.605 10.7469 9.11681 10.1222 9.77374 9.68221C10.4307 9.24227 11.2032 9.00687 11.9939 9.00576C12.7845 9.00464 13.5577 9.23785 14.2159 9.67594C14.8741 10.114 15.3876 10.7373 15.6918 11.4671C15.9959 12.1969 16.0769 13.0005 15.9246 13.7763C15.7723 14.5522 15.3935 15.2654 14.836 15.8261ZM13 12.9991C13 13.1969 12.9414 13.3902 12.8315 13.5547C12.7216 13.7191 12.5654 13.8473 12.3827 13.923C12.2 13.9987 11.9989 14.0185 11.8049 13.9799C11.6109 13.9413 11.4327 13.8461 11.2929 13.7062C11.153 13.5663 11.0578 13.3882 11.0192 13.1942C10.9806 13.0002 11.0004 12.7991 11.0761 12.6164C11.1518 12.4337 11.28 12.2775 11.4444 12.1676C11.6089 12.0577 11.8022 11.9991 12 11.9991C12.2652 11.9991 12.5196 12.1045 12.7071 12.292C12.8946 12.4795 13 12.7339 13 12.9991Z" fill="#374957"/>
</g>
<defs>
<clipPath id="clip0_1317_20142">
<rect width="24" height="24" fill="white"/>
</clipPath>
</defs>
</svg>
