<svg width="24" height="24" viewBox="0 0 24 24" fill="none" xmlns="http://www.w3.org/2000/svg">
<g clip-path="url(#clip0_1317_20121)">
<path d="M23.955 21.3193C23.916 21.1938 23.8527 21.0773 23.7687 20.9764C23.6847 20.8754 23.5816 20.792 23.4653 20.7309C23.3491 20.6698 23.2219 20.6322 23.0911 20.6203C22.9603 20.6083 22.8284 20.6222 22.703 20.6613L21.403 21.0613L20.472 18.3243C21.4499 17.7755 22.2127 16.9113 22.6356 15.8728C23.0584 14.8343 23.1164 13.683 22.8 12.6073L20.957 7.13225C20.7251 6.38481 20.2123 5.75645 19.5265 5.37934C18.8408 5.00223 18.0355 4.90578 17.28 5.11025L13.428 6.18425C12.8756 6.33796 12.3796 6.64849 12 7.07825C11.6205 6.64849 11.1244 6.33796 10.572 6.18425L6.71904 5.11025C5.96911 4.90339 5.1682 4.99512 4.48445 5.36617C3.80071 5.73722 3.28731 6.35874 3.05204 7.10025L1.18504 12.6573C0.881054 13.7322 0.949137 14.8783 1.37824 15.9096C1.80734 16.941 2.5723 17.7972 3.54904 18.3393L2.60504 21.0673L1.30004 20.6613C1.17462 20.6219 1.04268 20.6075 0.911737 20.6191C0.780795 20.6307 0.653418 20.668 0.536881 20.7288C0.420343 20.7897 0.316927 20.8728 0.232536 20.9736C0.148145 21.0744 0.0844321 21.1908 0.0450355 21.3163C0.00563893 21.4417 -0.00867006 21.5736 0.00292551 21.7046C0.0145211 21.8355 0.0517941 21.9629 0.112617 22.0794C0.173439 22.1959 0.256619 22.2994 0.357409 22.3838C0.458199 22.4681 0.574623 22.5319 0.700036 22.5713L2.86004 23.2423C2.87504 23.2423 2.88404 23.2593 2.89904 23.2653C2.91404 23.2713 2.95104 23.2713 2.97704 23.2783L5.15804 23.9553C5.41132 24.034 5.68552 24.009 5.92031 23.8856C6.15511 23.7622 6.33127 23.5505 6.41004 23.2973C6.48881 23.044 6.46373 22.7698 6.34033 22.535C6.21693 22.3002 6.00532 22.124 5.75204 22.0453L4.51604 21.6603L5.45104 18.9603C5.63647 18.9841 5.8231 18.9974 6.01004 19.0003C7.0912 18.9976 8.14238 18.6445 9.00597 17.9941C9.86956 17.3436 10.499 16.4307 10.8 15.3923L12 11.8363L13.183 15.3363C13.4746 16.3879 14.1023 17.3153 14.9702 17.9768C15.8382 18.6384 16.8987 18.9978 17.99 19.0003C18.1843 18.9984 18.3783 18.9851 18.571 18.9603L19.489 21.6603L18.245 22.0463C17.9918 22.125 17.7801 22.3012 17.6567 22.536C17.5333 22.7708 17.5083 23.045 17.587 23.2983C17.6658 23.5515 17.842 23.7632 18.0768 23.8866C18.3116 24.01 18.5858 24.035 18.839 23.9563L21.014 23.2813C21.04 23.2743 21.067 23.2813 21.093 23.2683C21.119 23.2553 21.119 23.2493 21.135 23.2433L23.297 22.5723C23.4226 22.5333 23.5392 22.4699 23.6402 22.3858C23.7412 22.3017 23.8247 22.1985 23.8858 22.0822C23.9469 21.9658 23.9845 21.8385 23.9964 21.7076C24.0083 21.5767 23.9942 21.4447 23.955 21.3193ZM13.357 8.59225C13.4207 8.47508 13.5073 8.37197 13.6118 8.28914C13.7163 8.20631 13.8364 8.14546 13.965 8.11025L17.816 7.03725C17.902 7.01319 17.9908 7.00075 18.08 7.00025C18.3 7.00258 18.5133 7.07572 18.6884 7.20884C18.8635 7.34195 18.991 7.52795 19.052 7.73925L19.813 10.0003H13.49L13.275 9.36325C13.2367 9.23575 13.2242 9.10188 13.2383 8.96948C13.2524 8.83709 13.2927 8.70884 13.357 8.59225ZM5.91804 7.00025C6.00758 7.00042 6.0967 7.01252 6.18304 7.03625L10.035 8.11025C10.2895 8.18044 10.5059 8.3484 10.6371 8.57751C10.7682 8.80662 10.8034 9.07828 10.735 9.33325L10.51 10.0003H4.18704L4.95704 7.71025C5.02058 7.50491 5.14811 7.32525 5.321 7.19752C5.49389 7.06979 5.70308 7.00067 5.91804 7.00025ZM8.89204 14.8003C8.73231 15.3711 8.40707 15.8818 7.95737 16.2679C7.50766 16.654 6.95365 16.8983 6.36525 16.9699C5.77686 17.0414 5.18044 16.9371 4.65128 16.67C4.12213 16.403 3.68394 15.9851 3.39204 15.4693C3.00556 14.7953 2.90062 13.9961 3.10004 13.2453L3.51404 12.0003H9.83604L8.89204 14.8003ZM16.524 16.6083C16.1736 16.4094 15.8665 16.1425 15.6208 15.8233C15.375 15.504 15.1956 15.1389 15.093 14.7493L14.164 12.0003H20.487L20.887 13.1943C21.0466 13.7661 21.033 14.3724 20.8478 14.9365C20.6626 15.5005 20.3142 15.997 19.8468 16.3629C19.3793 16.7289 18.8138 16.9479 18.2217 16.9923C17.6297 17.0367 17.0378 16.9044 16.521 16.6123L16.524 16.6083Z" fill="#374957"/>
<path d="M15.553 3.90042C15.6711 3.95978 15.7998 3.99515 15.9316 4.00449C16.0634 4.01383 16.1958 3.99695 16.321 3.95483C16.4463 3.9127 16.5619 3.84617 16.6613 3.75908C16.7607 3.67199 16.8419 3.56606 16.9001 3.44742L17.9001 1.44742C18.0186 1.21005 18.038 0.935308 17.954 0.683634C17.87 0.43196 17.6894 0.22397 17.4521 0.105418C17.2147 -0.013134 16.9399 -0.0325358 16.6883 0.0514805C16.4366 0.135497 16.2286 0.316049 16.1101 0.553418L15.11 2.55342C15.0503 2.67088 15.0144 2.79899 15.0044 2.93037C14.9943 3.06176 15.0104 3.19384 15.0515 3.31901C15.0927 3.44419 15.1582 3.55999 15.2443 3.65977C15.3303 3.75955 15.4353 3.84133 15.553 3.90042Z" fill="#374957"/>
<path d="M7.1053 3.44742C7.22385 3.68545 7.43211 3.86664 7.68425 3.95112C7.8091 3.99296 7.94096 4.00979 8.07232 4.00066C8.20367 3.99153 8.33194 3.95662 8.4498 3.89792C8.56766 3.83922 8.67281 3.75788 8.75923 3.65854C8.84566 3.5592 8.91167 3.44382 8.95351 3.31897C8.99534 3.19412 9.01217 3.06226 9.00304 2.9309C8.99391 2.79955 8.959 2.67128 8.9003 2.55342L7.9003 0.553418C7.8416 0.435885 7.76032 0.331065 7.66111 0.244942C7.5619 0.158819 7.4467 0.0930811 7.32208 0.0514805C7.07041 -0.0325358 6.79567 -0.013134 6.5583 0.105418C6.32093 0.22397 6.14038 0.43196 6.05636 0.683634C5.97235 0.935308 5.99175 1.21005 6.1103 1.44742L7.1053 3.44742Z" fill="#374957"/>
<path d="M12 4C12.2652 4 12.5196 3.89464 12.7071 3.70711C12.8947 3.51957 13 3.26522 13 3V1C13 0.734784 12.8947 0.48043 12.7071 0.292893C12.5196 0.105357 12.2652 0 12 0C11.7348 0 11.4804 0.105357 11.2929 0.292893C11.1054 0.48043 11 0.734784 11 1V3C11 3.26522 11.1054 3.51957 11.2929 3.70711C11.4804 3.89464 11.7348 4 12 4Z" fill="#374957"/>
</g>
<defs>
<clipPath id="clip0_1317_20121">
<rect width="24" height="24" fill="white"/>
</clipPath>
</defs>
</svg>
