<svg width="24" height="24" viewBox="0 0 24 24" fill="none" xmlns="http://www.w3.org/2000/svg">
<g clip-path="url(#clip0_1317_20290)">
<path d="M12 15.0007C11.7348 15.0007 11.4804 14.8954 11.2929 14.7078C11.1054 14.5203 11 14.2659 11 14.0007C11.0371 13.3473 11.2359 12.7133 11.5785 12.1557C11.9212 11.598 12.3969 11.1342 12.963 10.8057C13.3329 10.603 13.629 10.2881 13.8087 9.90649C13.9884 9.52483 14.0424 9.09602 13.963 8.68173C13.886 8.28601 13.6925 7.92232 13.4075 7.63726C13.1224 7.35219 12.7587 7.15875 12.363 7.08173C12.0741 7.02841 11.7771 7.03938 11.4929 7.11386C11.2088 7.18834 10.9445 7.32449 10.7189 7.51265C10.4933 7.70081 10.312 7.93635 10.1877 8.20252C10.0635 8.4687 9.99938 8.75898 10 9.05273C10 9.31794 9.89465 9.5723 9.70711 9.75983C9.51957 9.94737 9.26522 10.0527 9 10.0527C8.73479 10.0527 8.48043 9.94737 8.2929 9.75983C8.10536 9.5723 8 9.31794 8 9.05273C7.9999 8.46848 8.12779 7.8913 8.37467 7.36178C8.62155 6.83226 8.98143 6.36325 9.429 5.98773C9.85676 5.63013 10.3545 5.36591 10.8904 5.21201C11.4263 5.05811 11.9884 5.01794 12.5407 5.09407C13.0931 5.1702 13.6234 5.36095 14.0976 5.65409C14.5719 5.94722 14.9796 6.33626 15.2947 6.79625C15.6097 7.25623 15.8251 7.777 15.9271 8.32513C16.029 8.87327 16.0153 9.43667 15.8867 9.97917C15.7581 10.5217 15.5175 11.0313 15.1804 11.4754C14.8433 11.9194 14.417 12.2881 13.929 12.5577C13.6762 12.7135 13.4615 12.924 13.3007 13.1738C13.1399 13.4235 13.0372 13.7061 13 14.0007C13 14.2659 12.8946 14.5203 12.7071 14.7078C12.5196 14.8954 12.2652 15.0007 12 15.0007ZM12.793 23.7607C14.953 22.8927 22 19.4797 22 12.0437V6.87273C22.0011 5.82174 21.6706 4.7972 21.0554 3.94504C20.4403 3.09288 19.5719 2.45657 18.574 2.12673L12.315 0.0517262C12.1107 -0.0172421 11.8893 -0.0172421 11.685 0.0517262L5.426 2.12673C4.42811 2.45657 3.55975 3.09288 2.9446 3.94504C2.32946 4.7972 1.99889 5.82174 2 6.87273V12.0437C2 18.6057 9.005 22.6197 11.153 23.6937C11.4127 23.8502 11.7004 23.9544 12 24.0007C12.277 23.9707 12.5459 23.8893 12.793 23.7607ZM17.944 4.02473C18.5425 4.22314 19.0633 4.6051 19.4324 5.11636C19.8015 5.62762 20.0001 6.24217 20 6.87273V12.0437C20 18.2267 13.913 21.1547 12.047 21.9047C10.159 20.9607 4 17.4597 4 12.0437V6.87273C3.99992 6.24217 4.19852 5.62762 4.56761 5.11636C4.93669 4.6051 5.45748 4.22314 6.056 4.02473L12 2.05473L17.944 4.02473ZM12 17.0007C11.8022 17.0007 11.6089 17.0594 11.4444 17.1693C11.28 17.2791 11.1518 17.4353 11.0761 17.618C11.0004 17.8008 10.9806 18.0018 11.0192 18.1958C11.0578 18.3898 11.153 18.568 11.2929 18.7078C11.4327 18.8477 11.6109 18.9429 11.8049 18.9815C11.9989 19.0201 12.2 19.0003 12.3827 18.9246C12.5654 18.8489 12.7216 18.7207 12.8315 18.5563C12.9414 18.3918 13 18.1985 13 18.0007C13 17.7355 12.8946 17.4812 12.7071 17.2936C12.5196 17.1061 12.2652 17.0007 12 17.0007Z" fill="#374957"/>
</g>
<defs>
<clipPath id="clip0_1317_20290">
<rect width="24" height="24" fill="white"/>
</clipPath>
</defs>
</svg>
