<svg width="24" height="24" viewBox="0 0 24 24" fill="none" xmlns="http://www.w3.org/2000/svg">
<g clip-path="url(#clip0_1317_20293)">
<path d="M19.989 12.0002H18.653C17.69 9.73333 16.2074 7.72462 14.325 6.13625C13.4278 5.40267 12.3049 5.00139 11.146 5.00025H8.818L8.11 2.31525C8.00593 1.92062 7.82515 1.55036 7.57798 1.22561C7.33082 0.900851 7.0221 0.627957 6.66947 0.422507C6.31684 0.217058 5.9272 0.0830757 5.52279 0.0282109C5.11838 -0.026654 4.70712 -0.00132711 4.3125 0.102745C3.91788 0.206818 3.54762 0.387598 3.22286 0.634764C2.89811 0.88193 2.62521 1.19064 2.41976 1.54327C2.21431 1.8959 2.08033 2.28555 2.02547 2.68996C1.9706 3.09437 1.99593 3.50562 2.1 3.90025L2.394 5.00025H1C0.734784 5.00025 0.48043 5.1056 0.292893 5.29314C0.105357 5.48068 0 5.73503 0 6.00025C0 6.26546 0.105357 6.51982 0.292893 6.70735C0.48043 6.89489 0.734784 7.00025 1 7.00025H11.146C11.8438 7.00207 12.5195 7.24474 13.059 7.68725C14.4732 8.87782 15.626 10.3479 16.445 12.0052H15.625C15.0239 12.0008 14.4351 12.1748 13.933 12.5052L11.949 13.8272C11.7871 13.9378 11.5961 13.998 11.4 14.0002H1C0.734784 14.0002 0.48043 14.1056 0.292893 14.2931C0.105357 14.4807 0 14.735 0 15.0002C0 15.2655 0.105357 15.5198 0.292893 15.7074C0.48043 15.8949 0.734784 16.0002 1 16.0002H11.4C11.9919 16.0018 12.571 15.8278 13.064 15.5002L15.047 14.1782C15.2152 14.0618 15.4166 14.0028 15.621 14.0102H19.99C20.3294 14.009 20.6636 14.0942 20.961 14.2578C21.2584 14.4214 21.5093 14.6579 21.69 14.9452C21.8734 15.2264 21.9811 15.5501 22.0027 15.8851C22.0242 16.2201 21.9589 16.5549 21.813 16.8572C21.0792 18.3959 19.9249 19.6954 18.4836 20.6055C17.0422 21.5156 15.3727 21.9992 13.668 22.0002H1C0.734784 22.0002 0.48043 22.1056 0.292893 22.2931C0.105357 22.4807 0 22.735 0 23.0002C0 23.2655 0.105357 23.5198 0.292893 23.7074C0.48043 23.8949 0.734784 24.0002 1 24.0002H13.668C15.7517 23.996 17.7917 23.4021 19.552 22.2872C21.3124 21.1724 22.7214 19.5821 23.616 17.7002C23.9025 17.0902 24.0301 16.4176 23.9871 15.745C23.9441 15.0723 23.7318 14.4215 23.3699 13.8529C23.0081 13.2842 22.5085 12.8162 21.9174 12.4924C21.3263 12.1685 20.663 11.9992 19.989 12.0002ZM4.037 3.38825C3.97168 3.1077 4.01828 2.81274 4.16691 2.566C4.31555 2.31926 4.5545 2.14017 4.83304 2.06676C5.11158 1.99335 5.40777 2.0314 5.6587 2.17283C5.90964 2.31427 6.09557 2.54795 6.177 2.82425L6.75 5.00025H4.462L4.037 3.38825ZM0 10.0002C0 9.73503 0.105357 9.48067 0.292893 9.29314C0.48043 9.1056 0.734784 9.00025 1 9.00025H10C10.2652 9.00025 10.5196 9.1056 10.7071 9.29314C10.8946 9.48067 11 9.73503 11 10.0002C11 10.2655 10.8946 10.5198 10.7071 10.7074C10.5196 10.8949 10.2652 11.0002 10 11.0002H1C0.734784 11.0002 0.48043 10.8949 0.292893 10.7074C0.105357 10.5198 0 10.2655 0 10.0002ZM4 20.0002C3.80222 20.0002 3.60888 19.9416 3.44443 19.8317C3.27998 19.7218 3.15181 19.5657 3.07612 19.3829C3.00043 19.2002 2.98063 18.9991 3.01922 18.8052C3.0578 18.6112 3.15304 18.433 3.29289 18.2931C3.43275 18.1533 3.61093 18.058 3.80491 18.0195C3.99889 17.9809 4.19996 18.0007 4.38268 18.0764C4.56541 18.1521 4.72159 18.2802 4.83147 18.4447C4.94135 18.6091 5 18.8025 5 19.0002C5 19.2655 4.89464 19.5198 4.70711 19.7074C4.51957 19.8949 4.26522 20.0002 4 20.0002ZM8 20.0002C7.80222 20.0002 7.60888 19.9416 7.44443 19.8317C7.27998 19.7218 7.15181 19.5657 7.07612 19.3829C7.00043 19.2002 6.98063 18.9991 7.01922 18.8052C7.0578 18.6112 7.15304 18.433 7.29289 18.2931C7.43275 18.1533 7.61093 18.058 7.80491 18.0195C7.99889 17.9809 8.19996 18.0007 8.38268 18.0764C8.56541 18.1521 8.72159 18.2802 8.83147 18.4447C8.94135 18.6091 9 18.8025 9 19.0002C9 19.2655 8.89464 19.5198 8.70711 19.7074C8.51957 19.8949 8.26522 20.0002 8 20.0002ZM12 20.0002C11.8022 20.0002 11.6089 19.9416 11.4444 19.8317C11.28 19.7218 11.1518 19.5657 11.0761 19.3829C11.0004 19.2002 10.9806 18.9991 11.0192 18.8052C11.0578 18.6112 11.153 18.433 11.2929 18.2931C11.4327 18.1533 11.6109 18.058 11.8049 18.0195C11.9989 17.9809 12.2 18.0007 12.3827 18.0764C12.5654 18.1521 12.7216 18.2802 12.8315 18.4447C12.9414 18.6091 13 18.8025 13 19.0002C13 19.2655 12.8946 19.5198 12.7071 19.7074C12.5196 19.8949 12.2652 20.0002 12 20.0002Z" fill="#374957"/>
</g>
<defs>
<clipPath id="clip0_1317_20293">
<rect width="24" height="24" fill="white"/>
</clipPath>
</defs>
</svg>
