<svg width="24" height="24" viewBox="0 0 24 24" fill="none" xmlns="http://www.w3.org/2000/svg">
<g clip-path="url(#clip0_1317_20001)">
<path d="M22.2933 12.6996L21.2073 13.7856L17.6223 10.1996C17.0507 9.65439 16.2911 9.35023 15.5013 9.35023C14.7114 9.35023 13.9518 9.65439 13.3803 10.1996L13.2073 10.3726C13.0169 10.5546 12.7637 10.6562 12.5003 10.6562C12.2369 10.6562 11.9836 10.5546 11.7933 10.3726L6.72026 5.29357C6.62802 5.19806 6.51767 5.12188 6.39567 5.06947C6.27367 5.01706 6.14245 4.98947 6.00967 4.98832C5.87689 4.98717 5.74521 5.01247 5.62231 5.06275C5.49941 5.11303 5.38776 5.18728 5.29387 5.28117C5.19998 5.37507 5.12572 5.48672 5.07544 5.60962C5.02516 5.73251 4.99986 5.86419 5.00101 5.99697C5.00217 6.12975 5.02975 6.26097 5.08216 6.38297C5.13457 6.50498 5.21075 6.61532 5.30626 6.70757L10.3783 11.7806C10.9497 12.326 11.7093 12.6303 12.4993 12.6303C13.2892 12.6303 14.0488 12.326 14.6203 11.7806L14.7933 11.6076C14.9836 11.4255 15.2369 11.3239 15.5003 11.3239C15.7637 11.3239 16.0169 11.4255 16.2073 11.6076L19.7933 15.1996L18.7073 16.2856C18.5675 16.4254 18.4723 16.6036 18.4337 16.7975C18.3951 16.9915 18.4149 17.1925 18.4906 17.3752C18.5663 17.5579 18.6944 17.7141 18.8588 17.824C19.0232 17.9339 19.2165 17.9925 19.4143 17.9926H22.5003C22.8981 17.9926 23.2796 17.8345 23.5609 17.5532C23.8422 17.2719 24.0003 16.8904 24.0003 16.4926V13.3996C23.9988 13.2024 23.9392 13.0101 23.8288 12.8467C23.7184 12.6834 23.5621 12.5563 23.3797 12.4815C23.1973 12.4067 22.9968 12.3875 22.8035 12.4263C22.6102 12.4651 22.4327 12.5602 22.2933 12.6996Z" fill="#374957"/>
<path d="M23 21.976H5C4.20435 21.976 3.44129 21.6599 2.87868 21.0973C2.31607 20.5347 2 19.7716 2 18.976V1C2 0.734784 1.89464 0.48043 1.70711 0.292893C1.51957 0.105357 1.26522 0 1 0C0.734784 0 0.48043 0.105357 0.292893 0.292893C0.105357 0.48043 0 0.734784 0 1L0 18.976C0.00158786 20.3016 0.528882 21.5724 1.46622 22.5098C2.40356 23.4471 3.67441 23.9744 5 23.976H23C23.2652 23.976 23.5196 23.8706 23.7071 23.6831C23.8946 23.4956 24 23.2412 24 22.976C24 22.7108 23.8946 22.4564 23.7071 22.2689C23.5196 22.0814 23.2652 21.976 23 21.976Z" fill="#374957"/>
</g>
<defs>
<clipPath id="clip0_1317_20001">
<rect width="24" height="24" fill="white"/>
</clipPath>
</defs>
</svg>
