<svg width="24" height="24" viewBox="0 0 24 24" fill="none" xmlns="http://www.w3.org/2000/svg">
<path d="M23.1123 5.16583C23.3933 4.88491 23.6163 4.55138 23.7684 4.18427C23.9205 3.81717 23.9988 3.4237 23.9988 3.02633C23.9988 2.62896 23.9205 2.23549 23.7684 1.86838C23.6163 1.50128 23.3933 1.16774 23.1123 0.886828C22.5365 0.336451 21.7708 0.0292969 20.9743 0.0292969C20.1778 0.0292969 19.412 0.336451 18.8363 0.886828L16.4003 3.32483C15.3883 4.33783 13.2773 4.11383 11.8213 3.31183C11.2699 3.01334 10.6292 2.92415 10.0173 3.06068C9.40538 3.19721 8.86339 3.55026 8.49119 4.05481C8.11899 4.55936 7.94164 5.18141 7.99183 5.80638C8.04201 6.43135 8.31634 7.01713 8.76427 7.45583L10.1803 8.87183L2.02527 17.0258C1.48999 17.5554 1.14238 18.2454 1.03533 18.9907C0.928287 19.7361 1.06767 20.496 1.43227 21.1548L0.293275 22.2938C0.105804 22.4814 0.000488281 22.7357 0.000488281 23.0008C0.000488281 23.266 0.105804 23.5203 0.293275 23.7078C0.480802 23.8953 0.735111 24.0006 1.00027 24.0006C1.26544 24.0006 1.51975 23.8953 1.70727 23.7078L2.84627 22.5688C3.50511 22.9334 4.26502 23.0728 5.01037 22.9658C5.75571 22.8587 6.44568 22.5111 6.97527 21.9758L15.1293 13.8208L16.5453 15.2368C16.984 15.6848 17.5698 15.9591 18.1947 16.0093C18.8197 16.0595 19.4417 15.8821 19.9463 15.5099C20.4508 15.1377 20.8039 14.5957 20.9404 13.9838C21.077 13.3719 20.9878 12.7312 20.6893 12.1798C19.8893 10.7238 19.6643 8.61183 20.6763 7.59983L23.1123 5.16583ZM5.56027 20.5618C5.27455 20.8345 4.89475 20.9867 4.49977 20.9867C4.1048 20.9867 3.725 20.8345 3.43927 20.5618C3.15807 20.2805 3.00009 19.8991 3.00009 19.5013C3.00009 19.1036 3.15807 18.7221 3.43927 18.4408L11.5943 10.2868L13.7153 12.4078L5.56027 20.5618ZM19.2603 6.18583C17.5013 7.94483 17.7603 11.0178 18.9353 13.1438C18.991 13.2548 19.0095 13.3807 18.9881 13.503C18.9666 13.6253 18.9064 13.7374 18.8163 13.8228C18.7007 13.9335 18.5468 13.9953 18.3868 13.9953C18.2267 13.9953 18.0729 13.9335 17.9573 13.8228L10.1783 6.04183C10.0942 5.95634 10.0371 5.84805 10.0141 5.7304C9.99105 5.61276 10.0031 5.49093 10.0487 5.38005C10.0942 5.26917 10.1714 5.17413 10.2705 5.10671C10.3697 5.03929 10.4864 5.00248 10.6063 5.00083C10.6939 5.00043 10.7802 5.02209 10.8573 5.06383C12.9833 6.23383 16.0573 6.49783 17.8153 4.73883L20.2543 2.30083C20.4488 2.11441 20.7078 2.01035 20.9773 2.01035C21.2467 2.01035 21.5057 2.11441 21.7003 2.30083C21.7955 2.39593 21.871 2.50887 21.9226 2.63318C21.9741 2.7575 22.0006 2.89075 22.0006 3.02533C22.0006 3.1599 21.9741 3.29316 21.9226 3.41747C21.871 3.54179 21.7955 3.65473 21.7003 3.74983L19.2603 6.18583Z" fill="#374957"/>
</svg>
