<svg width="24" height="24" viewBox="0 0 24 24" fill="none" xmlns="http://www.w3.org/2000/svg">
<g clip-path="url(#clip0_1317_20188)">
<path d="M20.68 1.16645L20.659 1.15945L17.944 0.259456C17.0062 -0.0518881 15.9974 -0.0793706 15.044 0.180456L9.468 1.79945C8.78525 1.98039 8.06072 1.91671 7.42 1.61945L6.92 1.38745C6.16059 1.07163 5.335 0.948013 4.51639 1.02756C3.69779 1.10711 2.91144 1.38737 2.22705 1.8435C1.54266 2.29963 0.981356 2.91754 0.592883 3.64248C0.204411 4.36741 0.000767286 5.17699 0 5.99945L0 18.0744C0.0021016 19.1558 0.353792 20.2074 1.00259 21.0725C1.65139 21.9376 2.56251 22.5696 3.6 22.8744L6.469 23.7744C6.95302 23.9249 7.45713 24.0008 7.964 23.9994C8.41581 24.0052 8.866 23.9442 9.3 23.8184L15.1 22.2184C15.63 22.0747 16.1893 22.0792 16.717 22.2314L19.06 22.9074C19.6482 23.0496 20.261 23.0565 20.8523 22.9276C21.4436 22.7986 21.9979 22.5372 22.4735 22.163C22.9491 21.7888 23.3336 21.3115 23.598 20.7672C23.8624 20.2228 23.9999 19.6256 24 19.0204V5.87545C23.9985 4.84429 23.6788 3.83871 23.0847 2.99595C22.4905 2.15318 21.6507 1.51429 20.68 1.16645ZM4.176 20.9584C3.55031 20.7775 3.00009 20.3987 2.6078 19.8788C2.2155 19.3588 2.00225 18.7258 2 18.0744V5.99945C1.99514 5.50413 2.11496 5.01554 2.34842 4.57867C2.58189 4.14179 2.9215 3.77067 3.336 3.49945C3.8292 3.1723 4.40816 2.99833 5 2.99945C5.38166 2.99956 5.75955 3.075 6.112 3.22145C6.112 3.22145 6.857 3.54045 6.999 3.59145V21.8414L4.176 20.9584ZM9 21.8264V3.87845C9.33966 3.86043 9.67667 3.8085 10.006 3.72345L15 2.27245V20.1994L9 21.8264ZM22 19.0204C22.0002 19.32 21.9331 19.6157 21.8037 19.8859C21.6743 20.156 21.4859 20.3937 21.2524 20.5812C21.0188 20.7688 20.7461 20.9015 20.4544 20.9696C20.1627 21.0376 19.8594 21.0393 19.567 20.9744L17 20.2514V2.07445L20.018 3.05345C20.598 3.26361 21.0993 3.64713 21.4539 4.15197C21.8085 4.65682 21.9991 5.25853 22 5.87545V19.0204Z" fill="#374957"/>
</g>
<defs>
<clipPath id="clip0_1317_20188">
<rect width="24" height="24" fill="white"/>
</clipPath>
</defs>
</svg>
