<svg width="24" height="24" viewBox="0 0 24 24" fill="none" xmlns="http://www.w3.org/2000/svg">
<g clip-path="url(#clip0_1317_20324)">
<path d="M23.8357 8.79347C23.6312 8.14236 23.2225 7.57438 22.6702 7.1735C22.1178 6.77262 21.4511 6.56014 20.7687 6.56747H16.3997L15.0727 2.43147C14.864 1.78042 14.454 1.21248 13.9017 0.809531C13.3494 0.406583 12.6834 0.189453 11.9997 0.189453C11.316 0.189453 10.65 0.406583 10.0977 0.809531C9.54544 1.21248 9.13538 1.78042 8.9267 2.43147L7.5997 6.56747H3.2307C2.55045 6.56844 1.8879 6.78435 1.33768 7.18437C0.787473 7.58439 0.377745 8.14806 0.167026 8.79485C-0.0436933 9.44165 -0.044626 10.1385 0.164361 10.7859C0.373348 11.4332 0.781565 11.998 1.3307 12.3995L4.8867 14.9995L3.5347 19.1865C3.31622 19.8359 3.31345 20.5385 3.52681 21.1896C3.74018 21.8406 4.15825 22.4053 4.7187 22.7995C5.26956 23.2062 5.9371 23.4242 6.62186 23.4207C7.30662 23.4173 7.97195 23.1927 8.5187 22.7805L11.9997 20.2185L15.4817 22.7775C16.0316 23.1819 16.6955 23.4016 17.3781 23.4049C18.0606 23.4083 18.7267 23.1951 19.2805 22.796C19.8342 22.3969 20.2472 21.8325 20.46 21.1839C20.6728 20.5354 20.6744 19.836 20.4647 19.1865L19.1127 14.9995L22.6727 12.3995C23.2281 12.003 23.6411 11.4383 23.8506 10.7888C24.06 10.1394 24.0548 9.43972 23.8357 8.79347ZM21.4927 10.7845L17.3487 13.8135C17.1785 13.9376 17.0518 14.1124 16.9868 14.3128C16.9218 14.5132 16.9218 14.729 16.9867 14.9295L18.5617 19.7995C18.6414 20.0465 18.6407 20.3124 18.5598 20.559C18.4788 20.8056 18.3217 21.0201 18.1111 21.1718C17.9005 21.3235 17.6473 21.4046 17.3877 21.4032C17.1282 21.4019 16.8757 21.3183 16.6667 21.1645L12.5917 18.1645C12.4201 18.0384 12.2127 17.9704 11.9997 17.9704C11.7867 17.9704 11.5793 18.0384 11.4077 18.1645L7.3327 21.1645C7.12379 21.3204 6.87064 21.4057 6.60997 21.4081C6.3493 21.4104 6.09465 21.3297 5.88293 21.1776C5.67122 21.0255 5.51345 20.8099 5.4325 20.5622C5.35155 20.3144 5.35162 20.0472 5.4327 19.7995L7.0127 14.9295C7.07762 14.729 7.07757 14.5132 7.01257 14.3128C6.94756 14.1124 6.82092 13.9376 6.6507 13.8135L2.5067 10.7845C2.29801 10.6317 2.14294 10.4168 2.06365 10.1706C1.98435 9.92441 1.98489 9.65944 2.06519 9.41356C2.14548 9.16769 2.30143 8.95347 2.51075 8.80152C2.72006 8.64957 2.97205 8.56765 3.2307 8.56747H8.3307C8.54242 8.56746 8.74867 8.50026 8.91975 8.37554C9.09084 8.25082 9.21792 8.07503 9.2827 7.87347L10.8327 3.04247C10.9123 2.79525 11.0682 2.57966 11.2781 2.42672C11.488 2.27377 11.741 2.19137 12.0007 2.19137C12.2604 2.19137 12.5134 2.27377 12.7233 2.42672C12.9332 2.57966 13.0891 2.79525 13.1687 3.04247L14.7187 7.87347C14.7835 8.07503 14.9106 8.25082 15.0817 8.37554C15.2527 8.50026 15.459 8.56746 15.6707 8.56747H20.7707C21.0294 8.56765 21.2813 8.64957 21.4907 8.80152C21.7 8.95347 21.8559 9.16769 21.9362 9.41356C22.0165 9.65944 22.0171 9.92441 21.9378 10.1706C21.8585 10.4168 21.7034 10.6317 21.4947 10.7845H21.4927Z" fill="#374957"/>
</g>
<defs>
<clipPath id="clip0_1317_20324">
<rect width="24" height="24" fill="white"/>
</clipPath>
</defs>
</svg>
