<svg width="24" height="24" viewBox="0 0 24 24" fill="none" xmlns="http://www.w3.org/2000/svg">
<path d="M8.1744 22.4468C10.277 24.5037 13.6352 24.5121 15.7481 22.4658L19.7299 18.7861C24.0434 14.5301 24.09 7.58314 19.8339 3.2697C15.5778 -1.04374 8.63092 -1.09033 4.31748 3.16573C4.28261 3.20014 4.24792 3.23483 4.21351 3.2697C-0.0710038 7.55487 -0.0704412 14.502 4.21473 18.7865C4.22359 18.7954 4.2325 18.8042 4.2414 18.8131L8.1744 22.4468ZM5.62389 4.68012C9.12198 1.16661 14.806 1.15409 18.3195 4.65219C21.833 8.15028 21.8455 13.8343 18.3475 17.3478L14.3736 21.0205C13.0163 22.2979 10.8967 22.29 9.54887 21.0025L5.62389 17.3757C2.11811 13.87 2.11806 8.186 5.62379 4.68017C5.62384 4.68017 5.62389 4.68012 5.62389 4.68012ZM6.98443 11.0279C6.98443 10.4771 7.43101 10.0305 7.98189 10.0305H10.9742V7.03812C10.9742 6.48725 11.4208 6.04067 11.9717 6.04067C12.5226 6.04067 12.9692 6.48725 12.9692 7.03812V10.0305H15.9615C16.5124 10.0305 16.959 10.4771 16.959 11.0279C16.959 11.5788 16.5124 12.0254 15.9615 12.0254H12.9692V15.0177C12.9692 15.5686 12.5226 16.0152 11.9717 16.0152C11.4208 16.0152 10.9742 15.5686 10.9742 15.0177V12.0254H7.98189C7.43101 12.0254 6.98443 11.5788 6.98443 11.0279Z" fill="#374957"/>
</svg>
