<svg width="24" height="24" viewBox="0 0 24 24" fill="none" xmlns="http://www.w3.org/2000/svg">
<g clip-path="url(#clip0_1317_20327)">
<path d="M23.9667 10.4167C23.665 8.19396 22.7483 6.0997 21.3201 4.37004C19.8919 2.64037 18.0089 1.34408 15.8834 0.627317C13.7578 -0.0894478 11.4743 -0.198185 9.29034 0.313364C7.10633 0.824913 5.10865 1.93641 3.52253 3.52253C1.93641 5.10865 0.824913 7.10633 0.313364 9.29034C-0.198185 11.4743 -0.0894478 13.7578 0.627317 15.8834C1.34408 18.0089 2.64037 19.8919 4.37004 21.3201C6.0997 22.7483 8.19396 23.665 10.4167 23.9667C10.5788 23.9878 10.7422 23.9985 10.9057 23.9987C11.9604 23.99 12.9688 23.5643 13.7107 22.8147L22.8107 13.7147C23.2427 13.2899 23.5716 12.7718 23.772 12.2C23.9724 11.6283 24.039 11.0182 23.9667 10.4167ZM2.06669 10.8907C2.33565 8.51742 3.44237 6.31792 5.18789 4.68761C6.93341 3.0573 9.20325 2.10311 11.5893 1.99658C13.9754 1.89005 16.3213 2.63816 18.2051 4.10643C20.089 5.57471 21.3873 7.66683 21.8667 10.0067C18.7344 10.0445 15.7409 11.3051 13.5251 13.5194C11.3093 15.7337 10.0466 18.7264 10.0067 21.8587C7.54688 21.3627 5.36391 19.9589 3.89197 17.9266C2.42002 15.8944 1.76697 13.3825 2.06269 10.8907H2.06669ZM12.2997 21.3997C12.2135 21.4824 12.1205 21.5577 12.0217 21.6247C12.1188 19.108 13.162 16.7205 14.9428 14.9395C16.7237 13.1585 19.111 12.1151 21.6277 12.0177C21.5613 12.1171 21.4864 12.2104 21.4037 12.2967L12.2997 21.3997Z" fill="#374957"/>
</g>
<defs>
<clipPath id="clip0_1317_20327">
<rect width="24" height="24" fill="white"/>
</clipPath>
</defs>
</svg>
