<svg width="24" height="24" viewBox="0 0 24 24" fill="none" xmlns="http://www.w3.org/2000/svg">
<g clip-path="url(#clip0_1317_20174)">
<path d="M3.99981 6.00054C3.60556 6.00158 3.21502 5.92442 2.85078 5.77354C2.48655 5.62267 2.15584 5.40106 1.87781 5.12154L0.333807 3.74754C0.13569 3.57091 0.0158557 3.32281 0.000665257 3.05782C-0.0145252 2.79283 0.076173 2.53266 0.252807 2.33454C0.429441 2.13643 0.677543 2.01659 0.942531 2.0014C1.20752 1.98621 1.46769 2.07691 1.66581 2.25354L3.25081 3.66754C3.34154 3.76944 3.45217 3.85169 3.57588 3.90923C3.6996 3.96677 3.83378 3.99839 3.97016 4.00214C4.10655 4.00589 4.24227 3.98168 4.36895 3.93102C4.49564 3.88036 4.61061 3.8043 4.70681 3.70754L8.31081 0.276543C8.5046 0.104013 8.75787 0.0135621 9.01711 0.0242941C9.27635 0.0350261 9.52128 0.146101 9.70015 0.334058C9.87902 0.522015 9.97783 0.772137 9.97572 1.03159C9.9736 1.29105 9.87072 1.53953 9.68881 1.72454L6.09981 5.13854C5.82358 5.41316 5.49593 5.63064 5.1356 5.77855C4.77527 5.92646 4.38931 6.00189 3.99981 6.00054ZM23.9998 4.00054C23.9998 3.73533 23.8945 3.48097 23.7069 3.29344C23.5194 3.1059 23.265 3.00054 22.9998 3.00054H12.9998C12.7346 3.00054 12.4802 3.1059 12.2927 3.29344C12.1052 3.48097 11.9998 3.73533 11.9998 4.00054C11.9998 4.26576 12.1052 4.52011 12.2927 4.70765C12.4802 4.89519 12.7346 5.00054 12.9998 5.00054H22.9998C23.265 5.00054 23.5194 4.89519 23.7069 4.70765C23.8945 4.52011 23.9998 4.26576 23.9998 4.00054ZM6.09981 13.1385L9.68881 9.72454C9.78898 9.63536 9.87019 9.52694 9.9276 9.40574C9.98502 9.28453 10.0175 9.15301 10.023 9.01901C10.0286 8.88501 10.0071 8.75126 9.95989 8.62572C9.91269 8.50018 9.84072 8.38542 9.74827 8.28827C9.65581 8.19111 9.54475 8.11355 9.4217 8.06019C9.29866 8.00684 9.16613 7.97878 9.03202 7.97768C8.89791 7.97659 8.76495 8.00248 8.64105 8.05383C8.51715 8.10517 8.40484 8.18091 8.31081 8.27654L4.71081 11.7075C4.52044 11.8896 4.2672 11.9912 4.00381 11.9912C3.74042 11.9912 3.48717 11.8896 3.29681 11.7075L1.70681 10.1225C1.5182 9.94039 1.2656 9.83959 1.00341 9.84187C0.741209 9.84415 0.490397 9.94932 0.304989 10.1347C0.11958 10.3201 0.0144115 10.5709 0.0121331 10.8331C0.00985468 11.0953 0.110649 11.3479 0.292807 11.5365L1.87781 13.1215C2.43748 13.6813 3.19572 13.9973 3.98731 14.0004C4.77889 14.0036 5.53965 13.6938 6.10381 13.1385H6.09981ZM23.9998 12.0005C23.9998 11.7353 23.8945 11.481 23.7069 11.2934C23.5194 11.1059 23.265 11.0005 22.9998 11.0005H12.9998C12.7346 11.0005 12.4802 11.1059 12.2927 11.2934C12.1052 11.481 11.9998 11.7353 11.9998 12.0005C11.9998 12.2658 12.1052 12.5201 12.2927 12.7077C12.4802 12.8952 12.7346 13.0005 12.9998 13.0005H22.9998C23.265 13.0005 23.5194 12.8952 23.7069 12.7077C23.8945 12.5201 23.9998 12.2658 23.9998 12.0005ZM6.09981 21.1385L9.68481 17.7245C9.78498 17.6354 9.86619 17.5269 9.9236 17.4057C9.98102 17.2845 10.0135 17.153 10.019 17.019C10.0246 16.885 10.0031 16.7513 9.95589 16.6257C9.90869 16.5002 9.83672 16.3854 9.74427 16.2883C9.65181 16.1911 9.54075 16.1136 9.4177 16.0602C9.29466 16.0068 9.16214 15.9788 9.02802 15.9777C8.89391 15.9766 8.76095 16.0025 8.63704 16.0538C8.51314 16.1052 8.40084 16.1809 8.30681 16.2765L4.70681 19.7075C4.61061 19.8043 4.49564 19.8804 4.36895 19.931C4.24227 19.9817 4.10655 20.0059 3.97016 20.0021C3.83378 19.9984 3.6996 19.9668 3.57588 19.9092C3.45217 19.8517 3.34154 19.7694 3.25081 19.6675L1.66581 18.2535C1.46769 18.0769 1.20752 17.9862 0.942531 18.0014C0.677543 18.0166 0.429441 18.1364 0.252807 18.3345C0.076173 18.5327 -0.0145252 18.7928 0.000665257 19.0578C0.0158557 19.3228 0.13569 19.5709 0.333807 19.7475L1.87781 21.1215C2.43748 21.6813 3.19572 21.9973 3.98731 22.0004C4.77889 22.0036 5.53965 21.6938 6.10381 21.1385H6.09981ZM23.9998 20.0005C23.9998 19.7353 23.8945 19.481 23.7069 19.2934C23.5194 19.1059 23.265 19.0005 22.9998 19.0005H12.9998C12.7346 19.0005 12.4802 19.1059 12.2927 19.2934C12.1052 19.481 11.9998 19.7353 11.9998 20.0005C11.9998 20.2658 12.1052 20.5201 12.2927 20.7077C12.4802 20.8952 12.7346 21.0005 12.9998 21.0005H22.9998C23.265 21.0005 23.5194 20.8952 23.7069 20.7077C23.8945 20.5201 23.9998 20.2658 23.9998 20.0005Z" fill="#374957"/>
</g>
<defs>
<clipPath id="clip0_1317_20174">
<rect width="24" height="24" fill="white"/>
</clipPath>
</defs>
</svg>
