<svg width="24" height="24" viewBox="0 0 24 24" fill="none" xmlns="http://www.w3.org/2000/svg">
<g clip-path="url(#clip0_1317_20245)">
<path d="M15 3.84949C15.0031 4.04836 15.0643 4.24197 15.1761 4.40649C15.2879 4.57101 15.4453 4.69928 15.629 4.77549C17.2712 5.49807 18.66 6.695 19.617 8.2126C20.574 9.73019 21.0556 11.4992 21 13.2925C20.9613 15.6794 19.9759 17.9532 18.2607 19.6137C16.5455 21.2741 14.2409 22.1852 11.854 22.1465C9.46703 22.1078 7.19323 21.1224 5.53278 19.4072C3.87233 17.692 2.96126 15.3874 2.99998 13.0005C3.00229 11.2567 3.51113 9.55117 4.46463 8.09117C5.41814 6.63118 6.77525 5.47962 8.37098 4.77649C8.55477 4.69982 8.71219 4.57117 8.82392 4.40633C8.93565 4.24148 8.99684 4.04761 8.99998 3.84849C9.00024 3.6847 8.96026 3.52336 8.88356 3.37864C8.80686 3.23391 8.69578 3.11025 8.5601 3.01851C8.42441 2.92676 8.26827 2.86976 8.10539 2.85249C7.94251 2.83523 7.77788 2.85824 7.62598 2.91949C5.30526 3.92563 3.4022 5.70083 2.23734 7.94608C1.07249 10.1913 0.717009 12.7694 1.23079 15.2461C1.74457 17.7229 3.09621 19.9468 5.05805 21.5435C7.01989 23.1401 9.47204 24.0118 12.0015 24.0118C14.5309 24.0118 16.9831 23.1401 18.9449 21.5435C20.9067 19.9468 22.2584 17.7229 22.7722 15.2461C23.286 12.7694 22.9305 10.1913 21.7656 7.94608C20.6008 5.70083 18.6977 3.92563 16.377 2.91949C16.2248 2.85757 16.0598 2.83407 15.8964 2.85108C15.7331 2.86808 15.5764 2.92507 15.4403 3.017C15.3042 3.10893 15.1928 3.23298 15.116 3.37817C15.0392 3.52337 14.9994 3.68524 15 3.84949Z" fill="#374957"/>
<path d="M13 1C13 0.447715 12.5523 0 12 0C11.4477 0 11 0.447715 11 1V7C11 7.55228 11.4477 8 12 8C12.5523 8 13 7.55228 13 7V1Z" fill="#374957"/>
</g>
<defs>
<clipPath id="clip0_1317_20245">
<rect width="24" height="24" fill="white"/>
</clipPath>
</defs>
</svg>
