<svg width="24" height="24" viewBox="0 0 24 24" fill="none" xmlns="http://www.w3.org/2000/svg">
<g clip-path="url(#clip0_1317_20066)">
<path d="M21.3413 5.125C21.061 4.77324 20.7049 4.48935 20.2995 4.29454C19.8942 4.09973 19.45 3.99905 19.0003 4H14.6733L14.8003 2.89C14.8273 2.646 14.9431 2.42045 15.1257 2.25632C15.3082 2.0922 15.5448 2.00097 15.7903 2H20.0003C20.2655 2 20.5198 1.89464 20.7074 1.70711C20.8949 1.51957 21.0003 1.26522 21.0003 1C21.0003 0.734784 20.8949 0.48043 20.7074 0.292893C20.5198 0.105357 20.2655 0 20.0003 0L15.7903 0C15.0521 0.000168296 14.3398 0.272519 13.7898 0.764943C13.2398 1.25737 12.8907 1.93529 12.8093 2.669L12.6613 4H5.00027C4.56066 4.00408 4.12724 4.10409 3.73029 4.29305C3.33333 4.482 2.98242 4.75535 2.70206 5.09399C2.42171 5.43262 2.21867 5.82839 2.10712 6.25363C1.99558 6.67888 1.97822 7.12335 2.05627 7.556L3.56827 19.622C3.72147 20.8302 4.30968 21.9411 5.22281 22.747C6.13594 23.5528 7.31142 23.9982 8.52927 24H15.4703C16.6883 23.998 17.8639 23.5524 18.7772 22.7464C19.6905 21.9404 20.2789 20.8294 20.4323 19.621L21.9323 7.653C22.0307 7.21433 22.0287 6.75908 21.9263 6.32131C21.824 5.88354 21.624 5.47457 21.3413 5.125ZM19.0003 6C19.1502 5.99994 19.2983 6.03362 19.4335 6.09853C19.5687 6.16344 19.6875 6.25793 19.7813 6.375C19.8817 6.50662 19.9501 6.65979 19.9812 6.8224C20.0123 6.98502 20.0051 7.15263 19.9603 7.312L19.6223 10H14.0063L14.4513 6H19.0003ZM4.22127 6.374C4.31489 6.25738 4.43347 6.16324 4.56829 6.09851C4.7031 6.03379 4.85072 6.00012 5.00027 6H12.4373L11.9923 10H4.37427L4.02427 7.216C3.99149 7.06988 3.99219 6.91824 4.0263 6.77243C4.06042 6.62662 4.12707 6.49041 4.22127 6.374ZM18.4473 19.374C18.3551 20.0988 18.0021 20.7652 17.4541 21.2486C16.9062 21.7319 16.2009 21.999 15.4703 22H8.52927C7.7985 21.9999 7.0929 21.733 6.54495 21.2495C5.997 20.766 5.64437 20.0991 5.55327 19.374L4.62627 12H19.3713L18.4473 19.374ZM13.4383 15.11L12.9943 19.11C12.9798 19.2405 12.9398 19.3669 12.8765 19.482C12.8132 19.5971 12.7279 19.6986 12.6254 19.7806C12.5228 19.8627 12.4052 19.9238 12.279 19.9604C12.1529 19.997 12.0208 20.0084 11.8903 19.994C11.7597 19.9796 11.6333 19.9395 11.5183 19.8762C11.4032 19.8129 11.3017 19.7276 11.2196 19.6251C11.1375 19.5226 11.0764 19.4049 11.0398 19.2788C11.0032 19.1526 10.9918 19.0205 11.0063 18.89L11.4503 14.89C11.4829 14.6277 11.6167 14.3885 11.8231 14.2234C12.0295 14.0583 12.2922 13.9803 12.5553 14.006C12.8187 14.0354 13.0597 14.1682 13.2253 14.3752C13.3909 14.5822 13.4675 14.8465 13.4383 15.11Z" fill="#374957"/>
</g>
<defs>
<clipPath id="clip0_1317_20066">
<rect width="24" height="24" fill="white"/>
</clipPath>
</defs>
</svg>
