<svg width="24" height="24" viewBox="0 0 24 24" fill="none" xmlns="http://www.w3.org/2000/svg">
<g clip-path="url(#clip0_1317_20374)">
<path d="M19.9481 23.9999H4.05207C3.36103 24.0039 2.68056 23.8302 2.07604 23.4954C1.47151 23.1605 0.963252 22.6759 0.600072 22.0879C0.241383 21.5141 0.0362524 20.8577 0.00438072 20.1817C-0.027491 19.5058 0.114966 18.833 0.418072 18.2279L8.38007 4.21193C8.7227 3.5437 9.2436 2.98336 9.88509 2.59296C10.5266 2.20255 11.2636 1.99733 12.0145 2.00003C12.7655 2.00272 13.501 2.21322 14.1397 2.60821C14.7784 3.0032 15.2952 3.56727 15.6331 4.23793L23.5551 18.1789C23.8691 18.7884 24.0198 19.4689 23.9924 20.154C23.9651 20.8391 23.7607 21.5054 23.3991 22.0879C23.036 22.6757 22.5279 23.1603 21.9235 23.4951C21.3192 23.8299 20.6389 24.0038 19.9481 23.9999ZM12.0001 3.99993C11.6175 3.99359 11.241 4.09642 10.9148 4.29638C10.5885 4.49634 10.3261 4.78513 10.1581 5.12893L10.1321 5.17793L2.18407 19.1669C2.04253 19.4622 1.97888 19.7887 1.99918 20.1155C2.01949 20.4423 2.12307 20.7585 2.30007 21.0339C2.48483 21.3316 2.743 21.5768 3.0498 21.7459C3.35661 21.9151 3.70174 22.0026 4.05207 21.9999H19.9521C20.3024 22.0026 20.6475 21.9151 20.9543 21.7459C21.2611 21.5768 21.5193 21.3316 21.7041 21.0339C21.8841 20.7499 21.9871 20.4238 22.0029 20.0879C22.0187 19.7519 21.9467 19.4176 21.7941 19.1179L13.8681 5.17793C13.7027 4.82292 13.4386 4.52304 13.1074 4.31414C12.7761 4.10524 12.3917 3.99615 12.0001 3.99993Z" fill="#374957"/>
</g>
<defs>
<clipPath id="clip0_1317_20374">
<rect width="24" height="24" fill="white"/>
</clipPath>
</defs>
</svg>
