<svg width="24" height="24" viewBox="0 0 24 24" fill="none" xmlns="http://www.w3.org/2000/svg">
<g clip-path="url(#clip0_1317_19916)">
<path d="M11.9998 24.0002C11.8682 24.0009 11.7377 23.9757 11.6159 23.926C11.4941 23.8762 11.3833 23.8029 11.2898 23.7102L3.11982 15.5402C2.65418 15.0757 2.28476 14.524 2.03269 13.9165C1.78063 13.3091 1.65088 12.6579 1.65088 12.0002C1.65088 11.3425 1.78063 10.6913 2.03269 10.0838C2.28476 9.4764 2.65418 8.92464 3.11982 8.46019L11.2898 0.290185C11.4781 0.101882 11.7335 -0.00390625 11.9998 -0.00390625C12.2661 -0.00390625 12.5215 0.101882 12.7098 0.290185C12.8981 0.478489 13.0039 0.733884 13.0039 1.00019C13.0039 1.26649 12.8981 1.52188 12.7098 1.71019L4.53982 9.88019C3.97801 10.4427 3.66246 11.2052 3.66246 12.0002C3.66246 12.7952 3.97801 13.5577 4.53982 14.1202L12.7098 22.2902C12.8035 22.3831 12.8779 22.4937 12.9287 22.6156C12.9795 22.7375 13.0056 22.8682 13.0056 23.0002C13.0056 23.1322 12.9795 23.2629 12.9287 23.3848C12.8779 23.5066 12.8035 23.6172 12.7098 23.7102C12.6164 23.8029 12.5056 23.8762 12.3837 23.926C12.2619 23.9757 12.1314 24.0009 11.9998 24.0002Z" fill="#374957"/>
<path d="M21.9999 24.0002C21.8683 24.0009 21.7378 23.9757 21.616 23.926C21.4941 23.8762 21.3833 23.8029 21.2899 23.7102L11.7099 14.1202C11.1481 13.5577 10.8325 12.7952 10.8325 12.0002C10.8325 11.2052 11.1481 10.4427 11.7099 9.88019L21.2899 0.290185C21.4782 0.101882 21.7336 -0.00390625 21.9999 -0.00390625C22.2662 -0.00390625 22.5216 0.101882 22.7099 0.290185C22.8982 0.478489 23.004 0.733884 23.004 1.00019C23.004 1.26649 22.8982 1.52188 22.7099 1.71019L13.1199 11.2902C13.0262 11.3831 12.9518 11.4937 12.901 11.6156C12.8502 11.7375 12.8241 11.8682 12.8241 12.0002C12.8241 12.1322 12.8502 12.2629 12.901 12.3848C12.9518 12.5066 13.0262 12.6172 13.1199 12.7102L22.7099 22.2902C22.8036 22.3831 22.878 22.4937 22.9288 22.6156C22.9795 22.7375 23.0057 22.8682 23.0057 23.0002C23.0057 23.1322 22.9795 23.2629 22.9288 23.3848C22.878 23.5066 22.8036 23.6172 22.7099 23.7102C22.6164 23.8029 22.5056 23.8762 22.3838 23.926C22.2619 23.9757 22.1315 24.0009 21.9999 24.0002Z" fill="#374957"/>
</g>
<defs>
<clipPath id="clip0_1317_19916">
<rect width="24" height="24" fill="white"/>
</clipPath>
</defs>
</svg>
