<svg width="24" height="24" viewBox="0 0 24 24" fill="none" xmlns="http://www.w3.org/2000/svg">
<path d="M17.9997 15.5008C17.8681 15.5015 17.7376 15.4763 17.6158 15.4266C17.494 15.3768 17.3831 15.3035 17.2897 15.2108L12.7097 10.6208C12.6167 10.5271 12.5061 10.4527 12.3843 10.4019C12.2624 10.3511 12.1317 10.325 11.9997 10.325C11.8677 10.325 11.737 10.3511 11.6151 10.4019C11.4933 10.4527 11.3827 10.5271 11.2897 10.6208L6.7097 15.2108C6.52139 15.3991 6.266 15.5049 5.9997 15.5049C5.7334 15.5049 5.478 15.3991 5.2897 15.2108C5.10139 15.0225 4.99561 14.7671 4.99561 14.5008C4.99561 14.3689 5.02158 14.2384 5.07204 14.1165C5.1225 13.9947 5.19646 13.884 5.2897 13.7908L9.8797 9.21079C10.4496 8.66323 11.2093 8.35742 11.9997 8.35742C12.7901 8.35742 13.5498 8.66323 14.1197 9.21079L18.7097 13.7908C18.8034 13.8837 18.8778 13.9943 18.9286 14.1162C18.9794 14.2381 19.0055 14.3688 19.0055 14.5008C19.0055 14.6328 18.9794 14.7635 18.9286 14.8854C18.8778 15.0072 18.8034 15.1178 18.7097 15.2108C18.6163 15.3035 18.5054 15.3768 18.3836 15.4266C18.2618 15.4763 18.1313 15.5015 17.9997 15.5008Z" fill="#374957"/>
</svg>
