<svg width="24" height="24" viewBox="0 0 24 24" fill="none" xmlns="http://www.w3.org/2000/svg">
<path d="M17.7103 9.8794L13.4103 5.5894C13.0356 5.2169 12.5287 5.00781 12.0003 5.00781C11.4719 5.00781 10.965 5.2169 10.5903 5.5894L6.2903 9.8794C6.10405 10.0668 5.99951 10.3202 5.99951 10.5844C5.99951 10.8486 6.10405 11.102 6.2903 11.2894C6.38327 11.3831 6.49387 11.4575 6.61573 11.5083C6.73759 11.5591 6.86829 11.5852 7.0003 11.5852C7.13232 11.5852 7.26302 11.5591 7.38488 11.5083C7.50674 11.4575 7.61734 11.3831 7.7103 11.2894L11.0003 7.9994V18.9994C11.0003 19.2646 11.1057 19.519 11.2932 19.7065C11.4807 19.894 11.7351 19.9994 12.0003 19.9994C12.2655 19.9994 12.5199 19.894 12.7074 19.7065C12.8949 19.519 13.0003 19.2646 13.0003 18.9994V7.9994L16.2903 11.2894C16.4773 11.4777 16.7314 11.584 16.9968 11.585C17.2621 11.5859 17.517 11.4814 17.7053 11.2944C17.8936 11.1074 17.9999 10.8533 18.0009 10.5879C18.0018 10.3226 17.8973 10.0677 17.7103 9.8794Z" fill="#374957"/>
</svg>
