<svg width="24" height="24" viewBox="0 0 24 24" fill="none" xmlns="http://www.w3.org/2000/svg">
<g clip-path="url(#clip0_1317_20052)">
<path d="M23.9001 11.4366C23.5072 8.41199 21.9773 5.65051 19.6214 3.71341C17.2655 1.77632 14.2605 0.808982 11.217 1.00802C8.17347 1.20706 5.31996 2.55753 3.23644 4.78495C1.15291 7.01237 -0.00428024 9.94958 7.4054e-05 12.9996C-0.00569035 14.6321 0.325132 16.2483 0.971889 17.7472C1.61865 19.2462 2.56745 20.5957 3.75907 21.7116C4.67041 22.5553 5.87123 23.0165 7.11307 22.9996H16.8801C18.192 23.0027 19.4525 22.4893 20.3891 21.5706C21.7238 20.272 22.7364 18.6794 23.346 16.9198C23.9556 15.1602 24.1453 13.2825 23.9001 11.4366ZM18.9911 20.1366C18.4284 20.6909 17.6699 21.001 16.8801 20.9996H7.11307C6.38235 21.0146 5.67357 20.7495 5.13207 20.2586C4.13935 19.3287 3.3489 18.2042 2.81003 16.9553C2.27116 15.7064 1.99544 14.3598 2.00007 12.9996C2.00106 11.5918 2.29885 10.2001 2.87401 8.91518C3.44918 7.63027 4.28879 6.48108 5.33807 5.54257C7.16122 3.89848 9.53111 2.99194 11.9861 2.99957C12.3783 2.99974 12.7703 3.02177 13.1601 3.06557C15.0357 3.28341 16.8112 4.02813 18.281 5.21349C19.7508 6.39886 20.8547 7.97635 21.4649 9.76326C22.0751 11.5502 22.1666 13.4734 21.7287 15.3101C21.2909 17.1469 20.3417 18.8221 18.9911 20.1416V20.1366ZM7.80707 17.2846C7.9967 17.4702 8.10482 17.7236 8.10763 17.989C8.11044 18.2543 8.00773 18.5099 7.82207 18.6996C7.63642 18.8892 7.38304 18.9973 7.11768 19.0001C6.85232 19.0029 6.5967 18.9002 6.40707 18.7146C5.27203 17.6027 4.49377 16.1781 4.17148 14.6223C3.8492 13.0665 3.99749 11.4499 4.59746 9.97869C5.19743 8.50746 6.22189 7.24821 7.54027 6.36145C8.85865 5.47469 10.4112 5.00059 12.0001 4.99957C12.3825 4.99946 12.7645 5.02653 13.1431 5.08057C13.2731 5.09932 13.3982 5.1435 13.5111 5.21059C13.624 5.27768 13.7227 5.36637 13.8013 5.47158C13.88 5.5768 13.9371 5.69649 13.9695 5.8238C14.0019 5.95111 14.0089 6.08356 13.9901 6.21357C13.9729 6.3443 13.9297 6.47026 13.863 6.58406C13.7964 6.69785 13.7077 6.79717 13.6022 6.87618C13.4966 6.95519 13.3763 7.0123 13.2483 7.04413C13.1204 7.07597 12.9874 7.0819 12.8571 7.06157C11.6056 6.88281 10.3296 7.10393 9.21117 7.69338C8.09278 8.28282 7.18915 9.21046 6.62923 10.3439C6.06932 11.4774 5.88174 12.7588 6.09325 14.0051C6.30477 15.2515 6.90457 16.3993 7.80707 17.2846ZM19.9191 11.8566C19.9731 12.2352 20.0002 12.6171 20.0001 12.9996C20.0033 14.0652 19.7918 15.1206 19.378 16.1027C18.9643 17.0848 18.3569 17.9735 17.5921 18.7156C17.4022 18.9012 17.1463 19.0038 16.8808 19.0008C16.6152 18.9978 16.3617 18.8895 16.1761 18.6996C15.9904 18.5097 15.8878 18.2538 15.8908 17.9883C15.8938 17.7227 16.0022 17.4692 16.1921 17.2836C16.8677 16.625 17.378 15.8159 17.6811 14.9224C17.9842 14.0289 18.0716 13.0763 17.9361 12.1426C17.8981 11.8799 17.9661 11.6129 18.1251 11.4003C18.284 11.1877 18.5209 11.047 18.7836 11.0091C19.0463 10.9711 19.3133 11.0391 19.5258 11.1981C19.7384 11.357 19.8791 11.5939 19.9171 11.8566H19.9191ZM13.9261 12.4876C14.0464 12.9203 14.0201 13.3807 13.8511 13.7969C13.6821 14.2131 13.3801 14.5616 12.9922 14.7881C12.6043 15.0145 12.1523 15.1061 11.7068 15.0485C11.2613 14.9909 10.8475 14.7874 10.5298 14.4698C10.2122 14.1522 10.0087 13.7383 9.95117 13.2929C9.89359 12.8474 9.98516 12.3954 10.2116 12.0075C10.438 11.6195 10.7865 11.3175 11.2027 11.1485C11.6189 10.9796 12.0793 10.9532 12.5121 11.0736L16.2931 7.29257C16.3853 7.19706 16.4957 7.12088 16.6177 7.06847C16.7397 7.01606 16.8709 6.98848 17.0037 6.98732C17.1365 6.98617 17.2681 7.01147 17.391 7.06175C17.5139 7.11203 17.6256 7.18628 17.7195 7.28018C17.8134 7.37407 17.8876 7.48572 17.9379 7.60862C17.9882 7.73151 18.0135 7.86319 18.0123 7.99597C18.0112 8.12875 17.9836 8.25997 17.9312 8.38198C17.8788 8.50398 17.8026 8.61432 17.7071 8.70657L13.9261 12.4876Z" fill="#374957"/>
</g>
<defs>
<clipPath id="clip0_1317_20052">
<rect width="24" height="24" fill="white"/>
</clipPath>
</defs>
</svg>
