<svg width="24" height="24" viewBox="0 0 24 24" fill="none" xmlns="http://www.w3.org/2000/svg">
<g clip-path="url(#clip0_1317_20100)">
<path d="M6.00024 19C6.00024 19.2652 5.89489 19.5196 5.70735 19.7071C5.51981 19.8946 5.26546 20 5.00024 20C4.73503 20 4.48067 19.8946 4.29314 19.7071C4.1056 19.5196 4.00024 19.2652 4.00024 19C4.00024 18.7348 4.1056 18.4804 4.29314 18.2929C4.48067 18.1054 4.73503 18 5.00024 18C5.26546 18 5.51981 18.1054 5.70735 18.2929C5.89489 18.4804 6.00024 18.7348 6.00024 19ZM23.7302 7.625C23.5238 8.03936 23.2055 8.38771 22.8114 8.63069C22.4174 8.87367 21.9632 9.00159 21.5002 9H16.9812C16.9612 10.061 16.9182 11.071 16.8322 12H17.2002C17.6028 11.992 18.0023 12.0725 18.3703 12.2361C18.7382 12.3996 19.0658 12.642 19.3296 12.9462C19.5934 13.2504 19.7871 13.609 19.897 13.9964C20.0068 14.3838 20.0301 14.7906 19.9652 15.188C19.8514 15.9663 19.4623 16.678 18.8686 17.1939C18.2748 17.7099 17.5158 17.9958 16.7292 18H15.4002C13.6002 21.889 8.00024 24 3.98724 24C3.44147 23.9981 2.90184 23.8846 2.40159 23.6664C1.90134 23.4481 1.45104 23.1298 1.0784 22.7311C0.705764 22.3323 0.418676 21.8615 0.234806 21.3476C0.0509358 20.8337 -0.0258266 20.2877 0.00924304 19.743C0.0625795 17.0847 0.744874 14.4768 2.00024 12.133V11.6C2.00665 9.80172 2.64161 8.06227 3.79522 6.68276C4.94883 5.30325 6.54847 4.37051 8.31724 4.046C8.76507 3.96952 9.22421 3.99192 9.66247 4.11163C10.1007 4.23134 10.5075 4.44547 10.8542 4.739C11.2092 5.03723 11.4954 5.40873 11.6932 5.82801C11.891 6.2473 11.9958 6.70442 12.0002 7.168C12.9302 7.082 13.9412 7.039 15.0002 7.019V2.5C15.0002 2.03572 15.1295 1.58061 15.3736 1.18567C15.6177 0.790733 15.9669 0.471566 16.3822 0.263933C16.7975 0.056301 17.2624 -0.031592 17.7248 0.0101029C18.1872 0.0517978 18.6288 0.221433 19.0002 0.500001C19.8972 1.15254 20.544 2.09221 20.8332 3.163C21.9061 3.4525 22.8473 4.10083 23.5002 5C23.7792 5.37274 23.9485 5.81596 23.9892 6.27974C24.0298 6.74352 23.9401 7.20944 23.7302 7.625ZM4.38524 9.541C6.07085 8.41756 7.99184 7.69604 10.0002 7.432V7.2C10.0002 7.02216 9.96131 6.84647 9.88616 6.68529C9.811 6.5241 9.70147 6.38133 9.56524 6.267C9.44357 6.16041 9.29961 6.08237 9.14389 6.0386C8.98817 5.99482 8.82463 5.98642 8.66524 6.014C7.70755 6.18108 6.80964 6.59395 6.0594 7.2122C5.30916 7.83045 4.73229 8.6329 4.38524 9.541ZM8.78324 21.2C8.44014 19.746 7.69854 18.4163 6.64169 17.3603C5.58485 16.3044 4.25458 15.5639 2.80024 15.222C2.35095 16.7377 2.08242 18.3012 2.00024 19.88C1.98269 20.163 2.0255 20.4464 2.12583 20.7116C2.22616 20.9768 2.38172 21.2176 2.58219 21.4181C2.78267 21.6185 3.02347 21.7741 3.28864 21.8744C3.55381 21.9748 3.83727 22.0176 4.12024 22C5.70072 21.9185 7.26597 21.6499 8.78324 21.2ZM14.9922 9.008C8.75324 9.115 5.35324 10.272 3.59224 13.37C5.27619 13.8304 6.81108 14.7217 8.04559 15.956C9.28011 17.1904 10.1716 18.7251 10.6322 20.409C13.7282 18.646 14.8852 15.247 14.9922 9.008ZM16.5682 14C16.4565 14.6743 16.308 15.342 16.1232 16H16.7292C17.0355 15.9985 17.3311 15.8873 17.5624 15.6866C17.7938 15.4859 17.9455 15.209 17.9902 14.906C18.014 14.792 18.011 14.6741 17.9815 14.5614C17.9521 14.4487 17.8969 14.3444 17.8204 14.2567C17.7439 14.1689 17.648 14.1001 17.5405 14.0555C17.4329 14.011 17.3164 13.992 17.2002 14H16.5682ZM21.9002 6.189C21.6575 5.85839 21.3494 5.58125 20.995 5.37481C20.6406 5.16837 20.2476 5.03704 19.8402 4.989C19.635 4.95461 19.4456 4.85703 19.2984 4.70986C19.1512 4.56269 19.0536 4.37327 19.0192 4.168C18.9713 3.76066 18.84 3.36754 18.6336 3.01314C18.4271 2.65873 18.1499 2.35062 17.8192 2.108C17.7438 2.04937 17.6531 2.01359 17.5579 2.00491C17.4627 1.99622 17.3671 2.015 17.2822 2.059C17.1974 2.09701 17.1254 2.15901 17.0753 2.23736C17.0252 2.31572 16.9991 2.40701 17.0002 2.5V7H21.5002C21.5929 7.00267 21.6844 6.97827 21.7634 6.92979C21.8424 6.8813 21.9056 6.81083 21.9452 6.727C21.99 6.64242 22.0096 6.54677 22.0016 6.45141C21.9936 6.35604 21.9584 6.26497 21.9002 6.189Z" fill="#374957"/>
</g>
<defs>
<clipPath id="clip0_1317_20100">
<rect width="24" height="24" fill="white"/>
</clipPath>
</defs>
</svg>
