<svg width="24" height="24" viewBox="0 0 24 24" fill="none" xmlns="http://www.w3.org/2000/svg">
<path d="M19.7832 12.079C19.6192 11.493 19.4342 10.873 19.2282 10.206C18.6182 8.52422 18.2061 6.77712 18.0002 5C18.0002 4.73478 18.1056 4.48043 18.2931 4.29289C18.4807 4.10536 18.735 4 19.0002 4C19.2655 4 19.5198 4.10536 19.7073 4.29289C19.8949 4.48043 20.0002 4.73478 20.0002 5C20.0002 5.26522 20.1056 5.51957 20.2931 5.70711C20.4807 5.89464 20.735 6 21.0002 6C21.2655 6 21.5198 5.89464 21.7073 5.70711C21.8949 5.51957 22.0002 5.26522 22.0002 5C22.0002 4.20435 21.6842 3.44129 21.1216 2.87868C20.5589 2.31607 19.7959 2 19.0002 2C18.2046 2 17.4415 2.31607 16.8789 2.87868C16.3163 3.44129 16.0002 4.20435 16.0002 5C16.025 5.7636 16.132 6.52231 16.3192 7.263L11.5192 11L5.97124 7H9.00024C9.26545 7 9.51981 6.89464 9.70734 6.70711C9.89488 6.51957 10.0002 6.26522 10.0002 6C10.0002 5.73478 9.89488 5.48043 9.70734 5.29289C9.51981 5.10536 9.26545 5 9.00024 5H5.97124C5.5558 4.99987 5.15097 5.13115 4.81467 5.37505C4.47836 5.61894 4.22782 5.96296 4.09888 6.35788C3.96994 6.75279 3.96921 7.17838 4.09681 7.57373C4.2244 7.96909 4.47377 8.31396 4.80924 8.559L9.88024 12.271L8.44224 13.39C7.54903 12.549 6.37555 12.0694 5.149 12.044C3.92246 12.0185 2.73011 12.4491 1.8028 13.2523C0.875496 14.0555 0.279205 15.1743 0.129381 16.3919C-0.020444 17.6095 0.286855 18.8394 0.991781 19.8435C1.69671 20.8475 2.74911 21.5543 3.94523 21.827C5.14135 22.0997 6.3961 21.9188 7.46654 21.3195C8.53698 20.7201 9.34696 19.7449 9.73965 18.5826C10.1323 17.4204 10.0798 16.1538 9.59224 15.028L16.8812 9.359C17.0222 9.835 17.6082 11.743 17.7372 12.182C16.542 12.4941 15.5048 13.2381 14.8261 14.2703C14.1474 15.3025 13.8753 16.5497 14.0625 17.7708C14.2497 18.9918 14.8828 20.1002 15.8396 20.8817C16.7963 21.6632 18.0088 22.0624 19.2426 22.0021C20.4765 21.9418 21.6443 21.4263 22.5202 20.5552C23.3962 19.6841 23.9182 18.5193 23.9855 17.2858C24.0527 16.0522 23.6603 14.8376 22.8842 13.8765C22.1081 12.9154 21.0033 12.276 19.7832 12.082V12.079ZM5.00024 20C4.40689 20 3.82687 19.8241 3.33353 19.4944C2.84018 19.1648 2.45566 18.6962 2.2286 18.1481C2.00153 17.5999 1.94212 16.9967 2.05788 16.4147C2.17364 15.8328 2.45936 15.2982 2.87892 14.8787C3.29847 14.4591 3.83302 14.1734 4.41497 14.0576C4.99691 13.9419 5.60011 14.0013 6.14829 14.2284C6.69646 14.4554 7.165 14.8399 7.49464 15.3333C7.82429 15.8266 8.00024 16.4067 8.00024 17C8.00024 17.7956 7.68417 18.5587 7.12156 19.1213C6.55895 19.6839 5.79589 20 5.00024 20ZM19.0002 20C18.4069 20 17.8269 19.8241 17.3335 19.4944C16.8402 19.1648 16.4557 18.6962 16.2286 18.1481C16.0015 17.5999 15.9421 16.9967 16.0579 16.4147C16.1736 15.8328 16.4594 15.2982 16.8789 14.8787C17.2985 14.4591 17.833 14.1734 18.415 14.0576C18.9969 13.9419 19.6001 14.0013 20.1483 14.2284C20.6965 14.4554 21.165 14.8399 21.4946 15.3333C21.8243 15.8266 22.0002 16.4067 22.0002 17C22.0002 17.7956 21.6842 18.5587 21.1216 19.1213C20.5589 19.6839 19.7959 20 19.0002 20Z" fill="#374957"/>
</svg>
