<svg width="24" height="24" viewBox="0 0 24 24" fill="none" xmlns="http://www.w3.org/2000/svg">
<g clip-path="url(#clip0_1317_20145)">
<path d="M17.0003 24H7.00534C6.42695 23.9994 5.85549 23.8741 5.32998 23.6325C4.80448 23.3908 4.3373 23.0387 3.96034 22.6C3.58951 22.1705 3.31571 21.666 3.15763 21.121C2.99955 20.576 2.96091 20.0033 3.04434 19.442C3.58083 16.5173 5.14096 13.8792 7.44534 12C5.14093 10.1202 3.58112 7.48124 3.04534 4.556C2.96207 3.99509 3.0007 3.42283 3.1586 2.8782C3.3165 2.33357 3.58996 1.82939 3.96034 1.4C4.3373 0.961326 4.80448 0.60916 5.32998 0.367548C5.85549 0.125935 6.42695 0.000566288 7.00534 0L17.0003 0C17.5786 0.000512143 18.1499 0.125862 18.6753 0.367483C19.2006 0.609104 19.6676 0.9613 20.0443 1.4C20.4152 1.82895 20.6892 2.33285 20.8476 2.87732C21.0061 3.42179 21.0452 3.99403 20.9623 4.555C20.4207 7.48095 18.8574 10.1194 16.5513 12C18.8561 13.8822 20.4175 16.5217 20.9573 19.448C21.0403 20.0091 21.0012 20.5815 20.8428 21.1262C20.6843 21.6708 20.4103 22.1749 20.0393 22.604C19.6628 23.0413 19.1964 23.3924 18.672 23.6333C18.1476 23.8742 17.5774 23.9993 17.0003 24ZM17.0003 2H7.00534C6.71526 1.99976 6.42855 2.06218 6.16483 2.18299C5.9011 2.30381 5.66659 2.48016 5.47734 2.7C5.29243 2.91037 5.15587 3.15871 5.07726 3.42754C4.99865 3.69636 4.9799 3.97915 5.02234 4.256C5.39734 6.756 6.94433 9.096 9.62233 11.213C9.74058 11.3066 9.83611 11.4258 9.90179 11.5615C9.96746 11.6973 10.0016 11.8462 10.0016 11.997C10.0016 12.1478 9.96746 12.2967 9.90179 12.4325C9.83611 12.5682 9.74058 12.6874 9.62233 12.781C6.94433 14.9 5.40034 17.242 5.02234 19.741C4.97945 20.0183 4.99797 20.3017 5.07659 20.5711C5.15521 20.8404 5.29201 21.0893 5.47734 21.3C5.66659 21.5198 5.9011 21.6962 6.16483 21.817C6.42855 21.9378 6.71526 22.0002 7.00534 22H17.0003C17.2904 22.0002 17.5771 21.9378 17.8408 21.817C18.1046 21.6962 18.3391 21.5198 18.5283 21.3C18.7131 21.0899 18.8497 20.842 18.9285 20.5735C19.0073 20.3051 19.0263 20.0226 18.9843 19.746C18.6113 17.259 17.0643 14.917 14.3843 12.784C14.2668 12.6903 14.1719 12.5714 14.1067 12.436C14.0415 12.3006 14.0076 12.1523 14.0076 12.002C14.0076 11.8517 14.0415 11.7034 14.1067 11.568C14.1719 11.4326 14.2668 11.3137 14.3843 11.22C17.0653 9.087 18.6123 6.745 18.9843 4.257C19.0262 3.97955 19.0066 3.69629 18.9269 3.42725C18.8473 3.1582 18.7095 2.90994 18.5233 2.7C18.3346 2.4808 18.1009 2.30482 17.8381 2.18403C17.5753 2.06324 17.2896 2.00047 17.0003 2Z" fill="#374957"/>
</g>
<defs>
<clipPath id="clip0_1317_20145">
<rect width="24" height="24" fill="white"/>
</clipPath>
</defs>
</svg>
