<svg width="24" height="24" viewBox="0 0 24 24" fill="none" xmlns="http://www.w3.org/2000/svg">
<path d="M23.4132 18.2392L15.5932 2.27424C15.2641 1.60198 14.7529 1.03557 14.1178 0.639397C13.4827 0.243228 12.7492 0.0332031 12.0007 0.0332031C11.2522 0.0332031 10.5187 0.243228 9.88362 0.639397C9.24854 1.03557 8.73736 1.60198 8.40821 2.27424L0.587209 18.2392C0.288405 18.8491 0.149781 19.5249 0.184401 20.2032C0.21902 20.8814 0.425743 21.5396 0.78509 22.1158C1.14444 22.6921 1.64458 23.1673 2.23838 23.4968C2.83219 23.8263 3.50011 23.9992 4.17921 23.9992H19.8202C20.4994 23.9994 21.1674 23.8266 21.7614 23.4972C22.3553 23.1678 22.8556 22.6925 23.2151 22.1163C23.5745 21.54 23.7813 20.8817 23.816 20.2034C23.8507 19.5251 23.7121 18.8491 23.4132 18.2392ZM19.6002 14.9992H4.40021L6.85021 9.99924H17.1502L19.6002 14.9992ZM10.2002 3.15424C10.3648 2.81825 10.6204 2.53517 10.9379 2.33718C11.2554 2.13919 11.622 2.03423 11.9962 2.03423C12.3704 2.03423 12.737 2.13919 13.0545 2.33718C13.372 2.53517 13.6276 2.81825 13.7922 3.15424L16.1692 7.99924H7.83021L10.2002 3.15424ZM21.5142 21.0542C21.3369 21.3452 21.087 21.5851 20.7889 21.7503C20.4908 21.9154 20.1549 22.0002 19.8142 21.9962H4.17921C3.83932 21.9969 3.50487 21.911 3.20742 21.7465C2.90997 21.582 2.65935 21.3445 2.47921 21.0562C2.29906 20.768 2.19535 20.4386 2.17785 20.0992C2.16036 19.7598 2.22966 19.4215 2.37921 19.1162L3.42121 16.9992H20.5782L21.6162 19.1192C21.7694 19.423 21.8409 19.7614 21.8237 20.1012C21.8065 20.441 21.7013 20.7705 21.5182 21.0572L21.5142 21.0542Z" fill="#374957"/>
</svg>
