<svg width="24" height="24" viewBox="0 0 24 24" fill="none" xmlns="http://www.w3.org/2000/svg">
<g clip-path="url(#clip0_1317_20333)">
<path d="M19.9996 0.00992631C16.1876 0.00992631 11.8746 2.04793 8.46064 5.46093C5.02735 8.86476 2.26648 12.8853 0.322644 17.3119C0.00480685 18.0472 -0.0840018 18.8612 0.0678075 19.6477C0.219617 20.4343 0.604993 21.1567 1.17364 21.7209L2.27964 22.8259C2.84274 23.3933 3.56359 23.7779 4.34836 23.9299C5.13313 24.0819 5.94547 23.9941 6.67964 23.6779C11.109 21.7369 15.1311 18.9754 18.5336 15.5389C21.9516 12.1259 23.9896 7.81293 23.9896 3.99993C24.0459 3.46214 23.9813 2.91858 23.8007 2.40892C23.62 1.89926 23.3279 1.43637 22.9455 1.05402C22.5632 0.671676 22.1003 0.379524 21.5906 0.198889C21.081 0.0182551 20.5374 -0.0463032 19.9996 0.00992631ZM17.1246 14.1249C13.9025 17.3809 10.094 19.9986 5.89964 21.8399C5.56614 21.9765 5.20198 22.0208 4.84547 21.968C4.48896 21.9152 4.15325 21.7673 3.87364 21.5399L16.7066 8.70693C16.8022 8.61468 16.8783 8.50433 16.9307 8.38233C16.9832 8.26033 17.0107 8.12911 17.0119 7.99633C17.013 7.86355 16.9877 7.73187 16.9375 7.60897C16.8872 7.48608 16.8129 7.37442 16.719 7.28053C16.6251 7.18664 16.5135 7.11239 16.3906 7.0621C16.2677 7.01182 16.136 6.98652 16.0032 6.98768C15.8705 6.98883 15.7392 7.01642 15.6172 7.06882C15.4952 7.12123 15.3849 7.19742 15.2926 7.29293L2.45664 20.1289C2.22898 19.8491 2.08097 19.513 2.02817 19.1561C1.97538 18.7992 2.01976 18.4347 2.15664 18.1009C4.00074 13.907 6.61915 10.0985 9.87464 6.87493C13.4626 3.28793 17.4576 2.00993 19.9996 2.00993C21.4506 2.00993 21.9896 2.54893 21.9896 3.99993C21.9896 6.54293 20.7116 10.5379 17.1246 14.1249Z" fill="#374957"/>
</g>
<defs>
<clipPath id="clip0_1317_20333">
<rect width="24" height="24" fill="white"/>
</clipPath>
</defs>
</svg>
