<svg width="24" height="24" viewBox="0 0 24 24" fill="none" xmlns="http://www.w3.org/2000/svg">
<g clip-path="url(#clip0_1317_20076)">
<path d="M22.459 8.10109L15.535 1.46509C14.5966 0.536589 13.3307 0.0145368 12.0106 0.0117301C10.6905 0.00892343 9.4223 0.525588 8.48 1.45009L1.54 8.10109C1.05461 8.56859 0.668162 9.12889 0.403609 9.74871C0.139055 10.3685 0.00180022 11.0352 0 11.7091L0 19.0011C0.00158786 20.3267 0.528882 21.5975 1.46622 22.5349C2.40356 23.4722 3.67441 23.9995 5 24.0011H19C20.3256 23.9995 21.5964 23.4722 22.5338 22.5349C23.4711 21.5975 23.9984 20.3267 24 19.0011V11.7091C23.9982 11.0351 23.8609 10.3683 23.5962 9.74849C23.3314 9.12865 22.9447 8.5684 22.459 8.10109ZM9.879 2.87909C10.446 2.31709 11.213 2.00311 12.0113 2.00611C12.8097 2.00911 13.5742 2.32884 14.137 2.89509L20.884 9.35909L14.121 16.1231C13.5493 16.668 12.7898 16.972 12 16.972C11.2102 16.972 10.4507 16.668 9.879 16.1231L3.115 9.35909L9.879 2.87909ZM22 19.0011C22 19.7967 21.6839 20.5598 21.1213 21.1224C20.5587 21.685 19.7956 22.0011 19 22.0011H5C4.20435 22.0011 3.44129 21.685 2.87868 21.1224C2.31607 20.5598 2 19.7967 2 19.0011V11.7091C2.00101 11.515 2.02077 11.3214 2.059 11.1311L8.465 17.5371C9.40572 18.4686 10.6761 18.9912 12 18.9912C13.3239 18.9912 14.5943 18.4686 15.535 17.5371L21.941 11.1311C21.9792 11.3214 21.999 11.515 22 11.7091V19.0011Z" fill="#374957"/>
</g>
<defs>
<clipPath id="clip0_1317_20076">
<rect width="24" height="24" fill="white"/>
</clipPath>
</defs>
</svg>
