<svg width="24" height="24" viewBox="0 0 24 24" fill="none" xmlns="http://www.w3.org/2000/svg">
<g clip-path="url(#clip0_1317_20185)">
<path d="M8.17405 22.4532C10.278 24.5114 13.6383 24.5198 15.7525 22.4722L19.7369 18.7902C24.0531 14.5315 24.0996 7.58018 19.841 3.26397C15.5823 -1.05223 8.63089 -1.09882 4.31469 3.15991C4.27977 3.19437 4.24508 3.22905 4.21063 3.26397C-0.0765604 7.55187 -0.0759978 14.5034 4.21189 18.7906C4.2208 18.7995 4.22966 18.8083 4.23861 18.8171L8.17405 22.4532ZM5.62194 4.67524C9.12224 1.15924 14.8101 1.14649 18.3261 4.64679C21.8421 8.14708 21.8548 13.8349 18.3545 17.3509L14.3772 21.0259C13.019 22.3041 10.898 22.2963 9.54941 21.0079L5.62194 17.3789C2.11391 13.8709 2.11391 8.18332 5.62185 4.67529C5.62189 4.67529 5.62189 4.67529 5.62194 4.67524ZM6.98333 11.0271C6.98333 10.4758 7.43019 10.029 7.98144 10.029H15.9661C16.5174 10.029 16.9642 10.4758 16.9642 11.0271C16.9642 11.5783 16.5174 12.0252 15.9661 12.0252H7.98144C7.43019 12.0251 6.98333 11.5783 6.98333 11.0271Z" fill="#374957"/>
</g>
<defs>
<clipPath id="clip0_1317_20185">
<rect width="24" height="24" fill="white"/>
</clipPath>
</defs>
</svg>
