<svg width="24" height="24" viewBox="0 0 24 24" fill="none" xmlns="http://www.w3.org/2000/svg">
<g clip-path="url(#clip0_1317_20396)">
<path d="M12.0034 -0.00195312C5.36579 -0.00195312 -0.0151367 5.37897 -0.0151367 12.0166C-0.0151367 18.6542 5.36579 24.0351 12.0034 24.0351C18.6411 24.0351 24.0219 18.6542 24.0219 12.0166C24.0219 5.37897 18.6411 -0.00195312 12.0034 -0.00195312ZM21.8752 10.5002V10.5033C20.968 11.0681 19.976 11.4837 18.9372 11.7342C18.7218 8.53113 17.663 5.44202 15.8682 2.78022C19.0762 4.13453 21.3508 7.05775 21.8752 10.5002ZM12.0001 2.00027C12.2531 2.00027 12.5002 2.01925 12.7492 2.03828C15.244 4.77784 16.7261 8.28869 16.9492 11.9873C15.5826 12.034 14.2211 11.7992 12.9492 11.2973C12.7501 7.91589 11.1349 4.77508 8.50018 2.64625C9.61833 2.2217 10.8041 2.00284 12.0001 2.00027ZM6.48713 3.66527C7.42655 4.27787 8.25638 5.04386 8.94211 5.93125C5.94464 7.9413 3.61032 10.7949 2.23416 14.1312C1.34396 10.0982 3.03605 5.9342 6.48713 3.66527ZM3.35616 17.0052C4.35441 13.1868 6.70735 9.86186 9.97618 7.65025C10.5681 8.86633 10.9059 10.1903 10.9692 11.5412C8.24011 13.6151 6.52496 16.7544 6.25416 20.1713C5.0716 19.3368 4.08305 18.2568 3.35616 17.0052ZM12.0001 22.0002C10.7064 21.9999 9.42511 21.7472 8.22816 21.2562C8.20613 19.9663 8.43432 18.6843 8.90016 17.4813C12.1871 18.9404 15.8373 19.3756 19.3752 18.7302C17.4878 20.8113 14.8096 21.9988 12.0001 22.0002ZM9.80016 15.6903C10.4341 14.7078 11.2359 13.8446 12.1692 13.1403C13.5827 13.7118 15.0924 14.0081 16.6172 14.0133C18.4722 14.0131 20.3023 13.5853 21.9652 12.7632C21.8715 13.9855 21.5518 15.1797 21.0222 16.2852C17.3297 17.4273 13.3511 17.2164 9.80016 15.6903Z" fill="#374957"/>
</g>
<defs>
<clipPath id="clip0_1317_20396">
<rect width="24" height="24" fill="white"/>
</clipPath>
</defs>
</svg>
