<svg width="24" height="24" viewBox="0 0 24 24" fill="none" xmlns="http://www.w3.org/2000/svg">
<g clip-path="url(#clip0_1317_20028)">
<path d="M7.29292 2.09043L5.39992 3.98443L1.70692 0.292431C1.51832 0.110273 1.26571 0.00947813 1.00352 0.0117566C0.741321 0.014035 0.490508 0.119204 0.3051 0.304612C0.119692 0.49002 0.0145233 0.740833 0.0122448 1.00303C0.00996641 1.26523 0.110761 1.51783 0.292919 1.70643L3.98492 5.39943L2.09092 7.29243C1.95099 7.4324 1.85574 7.61075 1.81724 7.80489C1.77873 7.99903 1.7987 8.20023 1.87462 8.38301C1.95054 8.56579 2.07899 8.72194 2.24371 8.83167C2.40842 8.9414 2.602 8.99978 2.79992 8.99943H7.56392C7.94477 8.99943 8.31002 8.84814 8.57932 8.57884C8.84863 8.30953 8.99992 7.94428 8.99992 7.56343V2.79943C9.00027 2.60151 8.94189 2.40794 8.83216 2.24322C8.72242 2.0785 8.56628 1.95005 8.3835 1.87413C8.20072 1.79822 7.99952 1.77824 7.80538 1.81675C7.61124 1.85525 7.43289 1.9505 7.29292 2.09043Z" fill="#374957"/>
<path d="M20.015 18.6L21.909 16.706C22.0486 16.566 22.1435 16.3877 22.1818 16.1937C22.2201 15.9998 22.2001 15.7988 22.1242 15.6162C22.0483 15.4337 21.92 15.2777 21.7555 15.168C21.591 15.0583 21.3977 14.9998 21.2 15H16.436C16.0552 15 15.6899 15.1513 15.4206 15.4206C15.1513 15.6899 15 16.0552 15 16.436V21.2C14.9998 21.3978 15.0584 21.5913 15.1682 21.7558C15.278 21.9204 15.4341 22.0487 15.6169 22.1245C15.7996 22.2003 16.0007 22.2202 16.1948 22.1816C16.3888 22.1431 16.5671 22.0479 16.707 21.908L18.6 20.015L22.292 23.707C22.4806 23.8892 22.7332 23.99 22.9954 23.9877C23.2576 23.9854 23.5084 23.8802 23.6938 23.6948C23.8792 23.5094 23.9844 23.2586 23.9867 22.9964C23.989 22.7342 23.8882 22.4816 23.706 22.293L20.015 18.6Z" fill="#374957"/>
<path d="M16.436 8.9997H21.2C21.3978 8.99986 21.5913 8.94133 21.7558 8.83152C21.9204 8.72171 22.0487 8.56556 22.1245 8.38282C22.2003 8.20008 22.2201 7.99896 22.1816 7.80492C22.1431 7.61087 22.0478 7.43261 21.908 7.2927L20.015 5.3997L23.707 1.7077C23.8946 1.52019 24.0001 1.26583 24.0002 1.00056C24.0003 0.735286 23.895 0.480843 23.7075 0.293203C23.52 0.105562 23.2656 9.38327e-05 23.0003 6.25804e-08C22.7351 -9.37076e-05 22.4806 0.105195 22.293 0.292703L18.6 3.9847L16.707 2.0907C16.567 1.95077 16.3887 1.85552 16.1945 1.81702C16.0004 1.77852 15.7992 1.79849 15.6164 1.87441C15.4336 1.95032 15.2775 2.07877 15.1678 2.24349C15.058 2.40821 14.9996 2.60178 15 2.7997V7.5637C15 7.94455 15.1513 8.30981 15.4206 8.57911C15.6899 8.84841 16.0551 8.9997 16.436 8.9997Z" fill="#374957"/>
<path d="M7.56408 15H2.80008C2.60225 14.9998 2.40881 15.0584 2.24425 15.1682C2.07968 15.278 1.95139 15.4341 1.87559 15.6169C1.7998 15.7996 1.77991 16.0007 1.81845 16.1948C1.85698 16.3888 1.95221 16.5671 2.09208 16.707L3.98508 18.6L0.293081 22.293C0.197571 22.3852 0.121389 22.4956 0.0689798 22.6176C0.0165708 22.7396 -0.0110155 22.8708 -0.0121693 23.0036C-0.0133231 23.1364 0.0119786 23.268 0.0622595 23.3909C0.11254 23.5138 0.186794 23.6255 0.280686 23.7194C0.374579 23.8133 0.486231 23.8875 0.609127 23.9378C0.732023 23.9881 0.863703 24.0134 0.996482 24.0122C1.12926 24.0111 1.26048 23.9835 1.38249 23.9311C1.50449 23.8787 1.61483 23.8025 1.70708 23.707L5.40008 20.015L7.29408 21.909C7.43411 22.0486 7.61237 22.1435 7.80633 22.1818C8.0003 22.2201 8.20127 22.2001 8.38385 22.1242C8.56643 22.0483 8.72241 21.92 8.8321 21.7555C8.94178 21.591 9.00024 21.3977 9.00008 21.2V16.436C9.00008 16.0551 8.84879 15.6899 8.57949 15.4206C8.31018 15.1513 7.94493 15 7.56408 15Z" fill="#374957"/>
</g>
<defs>
<clipPath id="clip0_1317_20028">
<rect width="24" height="24" fill="white"/>
</clipPath>
</defs>
</svg>
