<svg width="24" height="24" viewBox="0 0 24 24" fill="none" xmlns="http://www.w3.org/2000/svg">
<g clip-path="url(#clip0_1317_20269)">
<path d="M15.9999 8.00042C14.8696 8.00138 13.7525 8.2426 12.7226 8.70809C11.6926 9.17358 10.7734 9.8527 10.0259 10.7004C9.54936 10.4688 9.0477 10.293 8.53086 10.1764L9.89986 7.44742C9.97586 7.29527 10.0118 7.12625 10.0043 6.95634C9.99674 6.78644 9.94601 6.62126 9.85686 6.47642C9.53942 6.01375 9.1124 5.63684 8.61389 5.3793C8.11539 5.12176 7.56089 4.9916 6.99986 5.00042C6.43967 4.99243 5.88619 5.12299 5.38862 5.38049C4.89106 5.638 4.46484 6.01446 4.14786 6.47642C4.05872 6.62126 4.00798 6.78644 4.00046 6.95634C3.99293 7.12625 4.02887 7.29527 4.10486 7.44742L5.46886 10.1744C4.43983 10.401 3.47523 10.857 2.64698 11.5083C1.81874 12.1597 1.14822 12.9896 0.685432 13.9362C0.222644 14.8828 -0.0204727 15.9217 -0.0257898 16.9753C-0.0311069 18.029 0.201513 19.0703 0.654724 20.0215C1.10793 20.9727 1.77004 21.8094 2.59167 22.4691C3.4133 23.1287 4.37325 23.5944 5.39995 23.8314C6.42664 24.0683 7.49358 24.0704 8.5212 23.8376C9.54883 23.6047 10.5106 23.1428 11.3349 22.4864C12.3582 23.2253 13.5419 23.7116 14.7892 23.9055C16.0365 24.0993 17.3119 23.9953 18.5113 23.6019C19.7107 23.2085 20.7999 22.5369 21.6901 21.642C22.5802 20.747 23.2459 19.6541 23.6329 18.4527C24.0198 17.2512 24.1169 15.9752 23.9163 14.729C23.7157 13.4828 23.223 12.3017 22.4786 11.2824C21.7342 10.263 20.7591 9.43423 19.6331 8.86383C18.5071 8.29343 17.2621 7.99756 15.9999 8.00042ZM11.2339 19.6304C10.5698 18.7676 10.1554 17.739 10.0359 16.6568C9.91629 15.5746 10.0962 14.4804 10.5559 13.4934C11.3482 14.2878 11.8469 15.328 11.9701 16.4431C12.0933 17.5583 11.8337 18.6822 11.2339 19.6304ZM1.99986 17.0004C1.99775 16.1807 2.19773 15.3731 2.58209 14.6491C2.96645 13.9251 3.52335 13.3071 4.20351 12.8496C4.88366 12.3921 5.6661 12.1093 6.48158 12.0262C7.29706 11.9432 8.12045 12.0624 8.87886 12.3734C8.16531 13.7628 7.87641 15.3314 8.04819 16.8838C8.21997 18.4362 8.84482 19.9037 9.84486 21.1034C9.09605 21.6258 8.21826 21.9327 7.30709 21.9908C6.39592 22.0488 5.48629 21.8558 4.67724 21.4326C3.86819 21.0095 3.19074 20.3725 2.71866 19.591C2.24657 18.8095 1.99795 17.9134 1.99986 17.0004ZM15.9999 22.0004C14.8348 22.0008 13.6952 21.6597 12.7219 21.0194C13.7064 19.6277 14.1462 17.9231 13.9579 16.2287C13.7695 14.5343 12.9661 12.9679 11.6999 11.8264C12.3894 11.1144 13.2446 10.5842 14.1891 10.2834C15.1336 9.9826 16.1378 9.92045 17.1122 10.1025C18.0865 10.2846 19.0006 10.7052 19.7727 11.3268C20.5448 11.9484 21.1508 12.7516 21.5367 13.6646C21.9226 14.5776 22.0763 15.572 21.984 16.5589C21.8917 17.5458 21.5564 18.4945 21.008 19.3202C20.4595 20.1458 19.7151 20.8228 18.8412 21.2905C17.9673 21.7582 16.9911 22.0021 15.9999 22.0004Z" fill="#374957"/>
<path d="M10.553 4.89542C10.6707 4.95495 10.7991 4.9906 10.9307 5.00029C11.0623 5.00998 11.1946 4.99353 11.3198 4.95188C11.445 4.91024 11.5607 4.84422 11.6603 4.75764C11.7599 4.67106 11.8413 4.56563 11.9 4.44742L12.9 2.44742C13.0185 2.21005 13.0379 1.93531 12.9539 1.68363C12.8699 1.43196 12.6894 1.22397 12.452 1.10542C12.3345 1.04672 12.2065 1.01174 12.0755 1.00249C11.9444 0.993231 11.8128 1.00988 11.6882 1.05148C11.4365 1.1355 11.2285 1.31605 11.11 1.55342L10.11 3.55342C9.99096 3.79016 9.97076 4.06446 10.0538 4.31608C10.1369 4.5677 10.3164 4.77606 10.553 4.89542Z" fill="#374957"/>
<path d="M2.10481 4.44742C2.22336 4.68545 2.43162 4.86664 2.68376 4.95112C2.80861 4.99296 2.94047 5.00979 3.07183 5.00066C3.20318 4.99153 3.33145 4.95662 3.44931 4.89792C3.56717 4.83922 3.67232 4.75788 3.75875 4.65854C3.84517 4.5592 3.91119 4.44382 3.95302 4.31897C3.99485 4.19412 4.01168 4.06226 4.00255 3.9309C3.99343 3.79955 3.95851 3.67128 3.89981 3.55342L2.89981 1.55342C2.78126 1.31605 2.57327 1.1355 2.3216 1.05148C2.06992 0.967464 1.79518 0.986866 1.55781 1.10542C1.32044 1.22397 1.13989 1.43196 1.05588 1.68363C0.971859 1.93531 0.991261 2.21005 1.10981 2.44742L2.10481 4.44742Z" fill="#374957"/>
<path d="M7 4C7.26521 4 7.51957 3.89464 7.7071 3.70711C7.89464 3.51957 8 3.26522 8 3V1C8 0.734784 7.89464 0.48043 7.7071 0.292893C7.51957 0.105357 7.26521 0 7 0C6.73478 0 6.48043 0.105357 6.29289 0.292893C6.10536 0.48043 6 0.734784 6 1V3C6 3.26522 6.10536 3.51957 6.29289 3.70711C6.48043 3.89464 6.73478 4 7 4Z" fill="#374957"/>
</g>
<defs>
<clipPath id="clip0_1317_20269">
<rect width="24" height="24" fill="white"/>
</clipPath>
</defs>
</svg>
