<svg width="24" height="24" viewBox="0 0 24 24" fill="none" xmlns="http://www.w3.org/2000/svg">
<g clip-path="url(#clip0_1317_20006)">
<path d="M20.0249 22.0268H19.0249V20.3718C19.0228 19.8357 18.9133 19.3055 18.7029 18.8124C18.4925 18.3193 18.1854 17.8733 17.7999 17.5008C15.8759 15.6418 15.0909 13.5118 15.0339 10.0248H16.0219C16.2871 10.0248 16.5414 9.91946 16.729 9.73193C16.9165 9.54439 17.0219 9.29004 17.0219 9.02482C17.0219 8.7596 16.9165 8.50525 16.729 8.31771C16.5414 8.13018 16.2871 8.02482 16.0219 8.02482H15.4659C15.8263 7.41967 16.0182 6.72914 16.0219 6.02482C16.0219 4.64982 14.8599 2.30782 14.1289 1.15482C13.9028 0.801368 13.5914 0.510503 13.2233 0.309029C12.8553 0.107555 12.4425 0.00195312 12.0229 0.00195312C11.6033 0.00195312 11.1905 0.107555 10.8224 0.309029C10.4544 0.510503 10.143 0.801368 9.91688 1.15482C9.18488 2.30882 8.02288 4.65482 8.02288 6.02582C8.02702 6.73007 8.21896 7.42047 8.57888 8.02582H8.02588C7.76066 8.02582 7.50631 8.13118 7.31877 8.31871C7.13124 8.50625 7.02588 8.7606 7.02588 9.02582C7.02588 9.29104 7.13124 9.54539 7.31877 9.73293C7.50631 9.92046 7.76066 10.0258 8.02588 10.0258H9.01488C8.95688 13.5128 8.17088 15.6418 6.24888 17.5008C5.86402 17.8735 5.55757 18.3194 5.34754 18.8123C5.13751 19.3052 5.02815 19.8351 5.02588 20.3708V22.0258H4.02588C3.76066 22.0258 3.50631 22.1312 3.31877 22.3187C3.13124 22.5063 3.02588 22.7606 3.02588 23.0258C3.02588 23.291 3.13124 23.5454 3.31877 23.7329C3.50631 23.9205 3.76066 24.0258 4.02588 24.0258H20.0259C20.2911 24.0258 20.5455 23.9205 20.733 23.7329C20.9205 23.5454 21.0259 23.291 21.0259 23.0258C21.0259 22.7606 20.9205 22.5063 20.733 22.3187C20.5455 22.1312 20.2911 22.0258 20.0259 22.0258L20.0249 22.0268ZM11.6079 2.22682C11.6534 2.15771 11.7154 2.10099 11.7883 2.06174C11.8611 2.02249 11.9426 2.00195 12.0254 2.00195C12.1081 2.00195 12.1896 2.02249 12.2625 2.06174C12.3354 2.10099 12.3973 2.15771 12.4429 2.22682C13.21 3.37979 13.7472 4.67009 14.0249 6.02682C14.0249 6.55725 13.8142 7.06596 13.4391 7.44104C13.064 7.81611 12.5553 8.02682 12.0249 8.02682C11.4944 8.02682 10.9857 7.81611 10.6107 7.44104C10.2356 7.06596 10.0249 6.55725 10.0249 6.02682C10.3033 4.67045 10.8408 3.38054 11.6079 2.22782V2.22682ZM13.0379 10.0268C13.0919 13.5428 13.8379 15.9778 15.5599 18.0268H8.49088C10.2109 15.9778 10.9589 13.5418 11.0139 10.0268H13.0379ZM7.02588 20.3718C7.02736 20.256 7.03941 20.1405 7.06188 20.0268H16.9899C17.0115 20.1406 17.0232 20.256 17.0249 20.3718V22.0268H7.02488L7.02588 20.3718Z" fill="#374957"/>
</g>
<defs>
<clipPath id="clip0_1317_20006">
<rect width="24" height="24" fill="white"/>
</clipPath>
</defs>
</svg>
