<svg width="24" height="24" viewBox="0 0 24 24" fill="none" xmlns="http://www.w3.org/2000/svg">
<g clip-path="url(#clip0_1317_20229)">
<path d="M22.9998 16.6528L20.6598 14.8528C20.0823 14.3031 19.3153 13.9971 18.5181 13.9982C17.7208 13.9993 16.9547 14.3075 16.3788 14.8588L14.9098 16.0268C13.3539 15.3828 11.9407 14.4377 10.7513 13.2459C9.56183 12.054 8.61961 10.6389 7.97876 9.0818L9.13676 7.6258C9.68848 7.04997 9.99706 6.28368 9.99836 5.4862C9.99967 4.68873 9.69359 3.92143 9.14376 3.3438L7.34576 0.999801C7.31935 0.964591 7.29062 0.931183 7.25976 0.899801C6.68868 0.325986 5.9147 -1.57347e-06 5.10517 -0.00767395C4.29564 -0.0153463 3.51562 0.295913 2.93376 0.858801L1.78376 1.8588C-5.93524 10.0688 13.9838 30.0038 22.1838 22.1588L23.0938 21.1098C23.6733 20.5287 23.9987 19.7415 23.9987 18.9208C23.9987 18.1001 23.6733 17.3129 23.0938 16.7318C23.0639 16.7038 23.0325 16.6774 22.9998 16.6528ZM21.6358 19.7528L20.7248 20.8028C14.7878 26.4178 -2.50024 10.1138 3.14676 3.3248L4.29676 2.3248C4.49591 2.12676 4.76326 2.0124 5.04401 2.00515C5.32477 1.9979 5.59766 2.09831 5.80676 2.2858L7.59276 4.6088C7.61895 4.64419 7.64769 4.67762 7.67876 4.7088C7.88303 4.91481 7.99764 5.19318 7.99764 5.4833C7.99764 5.77342 7.88303 6.05179 7.67876 6.2578C7.65063 6.28334 7.62423 6.31073 7.59976 6.3398L6.04376 8.2998C5.93298 8.4386 5.86115 8.60439 5.83567 8.78014C5.81018 8.95589 5.83196 9.13526 5.89876 9.2998C6.65191 11.3149 7.82943 13.1445 9.35153 14.6647C10.8736 16.1849 12.7047 17.3602 14.7208 18.1108C14.8831 18.1727 15.0587 18.1912 15.2304 18.1646C15.4021 18.1379 15.5638 18.067 15.6998 17.9588L17.6598 16.3998C17.6892 16.3761 17.7172 16.3507 17.7438 16.3238C17.8551 16.2164 17.9872 16.133 18.1321 16.0788C18.277 16.0247 18.4315 16.0009 18.5859 16.009C18.7404 16.017 18.8916 16.0568 19.03 16.1257C19.1685 16.1947 19.2913 16.2914 19.3908 16.4098L21.7168 18.1968C21.9074 18.4166 22.0052 18.7019 21.9893 18.9925C21.9735 19.2831 21.8452 19.5561 21.6318 19.7538L21.6358 19.7528ZM23.7068 6.2928C23.8889 6.4814 23.9897 6.734 23.9874 6.9962C23.9852 7.2584 23.88 7.50921 23.6946 7.69462C23.5092 7.88003 23.2584 7.9852 22.9962 7.98747C22.734 7.98975 22.4814 7.88896 22.2928 7.7068L19.9998 5.4138L17.7068 7.7068C17.5182 7.88896 17.2656 7.98975 17.0034 7.98747C16.7412 7.9852 16.4904 7.88003 16.3049 7.69462C16.1195 7.50921 16.0144 7.2584 16.0121 6.9962C16.0098 6.734 16.1106 6.4814 16.2928 6.2928L18.5858 3.9998L16.2928 1.7068C16.1106 1.5182 16.0098 1.2656 16.0121 1.0034C16.0144 0.741203 16.1195 0.49039 16.3049 0.304982C16.4904 0.119574 16.7412 0.0144052 17.0034 0.0121268C17.2656 0.00984839 17.5182 0.110643 17.7068 0.292801L19.9998 2.5858L22.2928 0.292801C22.4814 0.110643 22.734 0.00984839 22.9962 0.0121268C23.2584 0.0144052 23.5092 0.119574 23.6946 0.304982C23.88 0.49039 23.9852 0.741203 23.9874 1.0034C23.9897 1.2656 23.8889 1.5182 23.7068 1.7068L21.4138 3.9998L23.7068 6.2928Z" fill="#374957"/>
</g>
<defs>
<clipPath id="clip0_1317_20229">
<rect width="24" height="24" fill="white"/>
</clipPath>
</defs>
</svg>
