<svg width="24" height="24" viewBox="0 0 24 24" fill="none" xmlns="http://www.w3.org/2000/svg">
<path d="M22.2075 5.02869C21.3112 3.53492 19.7178 2.53906 17.9253 2.53906H5.97511C4.18256 2.53906 2.58923 3.53492 1.69294 5.02869C0.597516 7.02041 0 9.2113 0 11.5018C0 16.9789 2.19089 21.4602 4.97925 21.4602C6.47302 21.4602 7.66805 20.066 8.5643 17.1781C8.66386 16.7797 9.0622 16.481 9.56016 16.481H14.4398C14.8382 16.481 15.2365 16.7797 15.4357 17.1781C16.332 20.066 17.527 21.4602 19.0208 21.4602C21.8091 21.4602 24 16.9789 24 11.5018C23.9004 9.2113 23.3029 7.02041 22.2075 5.02869ZM18.9211 19.4685C18.6224 19.4685 17.9253 18.6718 17.2282 16.5806C16.8299 15.286 15.6348 14.4893 14.3402 14.4893H9.56016C8.26556 14.4893 7.07053 15.3855 6.67219 16.5806C5.97511 18.6718 5.27798 19.4685 4.97925 19.4685C3.98339 19.4685 1.99172 16.3814 1.99172 11.5018C1.99172 9.60964 2.48962 7.71753 3.38592 6.02459C3.98344 5.12834 4.9793 4.53083 5.97516 4.53083H17.9254C18.9212 4.53083 19.9171 5.12834 20.5146 6.02459C21.4109 7.71753 21.9088 9.60964 21.9088 11.5018C21.9087 16.3814 19.917 19.4685 18.9211 19.4685Z" fill="#374957"/>
<path d="M8.99993 8.99996H7.99994V7.99998C7.99994 7.39998 7.59996 7 6.99996 7C6.39996 7 5.99997 7.39998 5.99997 7.99998V8.99996H4.99999C4.39998 8.99996 4 9.39995 4 9.99995C4 10.5999 4.39998 10.9999 4.99999 10.9999H5.99992V12C5.99992 12.6 6.39991 12.9999 6.99991 12.9999C7.59991 12.9999 7.9999 12.6 7.9999 12V11H8.99993C9.59993 11 9.99991 10.6 9.99991 9.99999C9.99991 9.39995 9.59993 8.99996 8.99993 8.99996Z" fill="#374957"/>
<path d="M18.5 10C19.3284 10 20 9.32843 20 8.5C20 7.67157 19.3284 7 18.5 7C17.6716 7 17 7.67157 17 8.5C17 9.32843 17.6716 10 18.5 10Z" fill="#374957"/>
<path d="M15.5 13C16.3284 13 17 12.3284 17 11.5C17 10.6716 16.3284 10 15.5 10C14.6716 10 14 10.6716 14 11.5C14 12.3284 14.6716 13 15.5 13Z" fill="#374957"/>
</svg>
