<svg width="24" height="24" viewBox="0 0 24 24" fill="none" xmlns="http://www.w3.org/2000/svg">
<g clip-path="url(#clip0_1317_20154)">
<path d="M23.7071 22.2918L22.6301 21.2148L20.9001 19.4878L23.6891 16.6988C23.8078 16.5799 23.8947 16.433 23.9416 16.2716C23.9886 16.1103 23.9941 15.9398 23.9577 15.7757C23.9214 15.6117 23.8442 15.4595 23.7335 15.3331C23.6228 15.2068 23.482 15.1103 23.3241 15.0528L14.3551 11.7988C13.9979 11.6696 13.6112 11.6449 13.2404 11.7275C12.8696 11.8101 12.53 11.9966 12.2614 12.2652C11.9927 12.5338 11.8061 12.8733 11.7233 13.244C11.6406 13.6148 11.6651 14.0015 11.7941 14.3588L15.0571 23.3278C15.1144 23.4858 15.2106 23.6268 15.3368 23.7377C15.463 23.8487 15.6151 23.9261 15.7791 23.9628C15.8504 23.9783 15.9232 23.986 15.9961 23.9858C16.2613 23.9857 16.5156 23.8803 16.7031 23.6928L19.4891 20.8988L21.2161 22.6258L22.2931 23.7028C22.4817 23.8849 22.7343 23.9857 22.9965 23.9834C23.2587 23.9812 23.5095 23.876 23.6949 23.6906C23.8803 23.5052 23.9855 23.2544 23.9878 22.9922C23.9901 22.73 23.8893 22.4774 23.7071 22.2888V22.2918ZM16.4001 21.1638L13.6761 13.6738L21.1661 16.3978L16.4001 21.1638Z" fill="#374957"/>
<path d="M10 20C8.02219 20 6.08879 19.4135 4.4443 18.3147C2.79981 17.2159 1.51809 15.6541 0.761209 13.8268C0.00433284 11.9996 -0.193701 9.98891 0.192152 8.0491C0.578004 6.10929 1.53041 4.32746 2.92894 2.92894C4.32746 1.53041 6.10929 0.578004 8.0491 0.192152C9.98891 -0.193701 11.9996 0.00433284 13.8268 0.761209C15.6541 1.51809 17.2159 2.79981 18.3147 4.4443C19.4135 6.08879 20 8.02219 20 10C20 10.2652 19.8946 10.5196 19.7071 10.7071C19.5196 10.8946 19.2652 11 19 11C18.7348 11 18.4804 10.8946 18.2929 10.7071C18.1054 10.5196 18 10.2652 18 10C18 8.41775 17.5308 6.87104 16.6518 5.55544C15.7727 4.23985 14.5233 3.21447 13.0615 2.60897C11.5997 2.00347 9.99113 1.84504 8.43928 2.15372C6.88743 2.4624 5.46197 3.22433 4.34315 4.34315C3.22433 5.46197 2.4624 6.88743 2.15372 8.43928C1.84504 9.99113 2.00347 11.5997 2.60897 13.0615C3.21447 14.5233 4.23985 15.7727 5.55544 16.6518C6.87104 17.5308 8.41775 18 10 18C10.2652 18 10.5196 18.1054 10.7071 18.2929C10.8946 18.4804 11 18.7348 11 19C11 19.2652 10.8946 19.5196 10.7071 19.7071C10.5196 19.8946 10.2652 20 10 20Z" fill="#374957"/>
<path d="M8.08403 15.621C7.95261 15.621 7.82247 15.5952 7.70103 15.545C6.78989 15.1665 5.98612 14.5693 5.36092 13.806C4.73572 13.0428 4.30837 12.1372 4.11672 11.1694C3.92508 10.2016 3.97505 9.20141 4.26222 8.25752C4.54938 7.31363 5.06488 6.45512 5.76305 5.75802C6.46122 5.06092 7.32052 4.54674 8.26485 4.26102C9.20918 3.9753 10.2094 3.92685 11.1769 4.11998C12.1444 4.3131 13.0494 4.74184 13.8117 5.36821C14.574 5.99458 15.17 6.79926 15.547 7.71098C15.5999 7.83279 15.6279 7.9639 15.6296 8.09667C15.6312 8.22944 15.6064 8.36121 15.5566 8.48428C15.5067 8.60735 15.4329 8.71927 15.3393 8.8135C15.2458 8.90773 15.1344 8.98239 15.0117 9.03312C14.889 9.08385 14.7574 9.10963 14.6246 9.10897C14.4919 9.1083 14.3605 9.0812 14.2384 9.02925C14.1162 8.97729 14.0055 8.90152 13.9129 8.80636C13.8203 8.7112 13.7476 8.59854 13.699 8.47498C13.4471 7.86771 13.0494 7.33191 12.541 6.91498C12.0327 6.49805 11.4294 6.21285 10.7846 6.08462C10.1397 5.95638 9.47326 5.98906 8.84407 6.17978C8.21489 6.37049 7.64241 6.71334 7.1773 7.17801C6.71219 7.64268 6.36879 8.21482 6.17747 8.84382C5.98616 9.47282 5.95284 10.1393 6.08046 10.7842C6.20808 11.4292 6.4927 12.0327 6.90914 12.5415C7.32559 13.0502 7.86101 13.4485 8.46803 13.701C8.68196 13.7895 8.85854 13.9495 8.96764 14.1537C9.07675 14.3579 9.11162 14.5937 9.0663 14.8207C9.02099 15.0477 8.8983 15.252 8.71917 15.3987C8.54003 15.5454 8.31555 15.6253 8.08403 15.625V15.621Z" fill="#374957"/>
</g>
<defs>
<clipPath id="clip0_1317_20154">
<rect width="24" height="24" fill="white"/>
</clipPath>
</defs>
</svg>
