<svg width="24" height="24" viewBox="0 0 24 24" fill="none" xmlns="http://www.w3.org/2000/svg">
<path d="M20.5271 4.21787L14.5001 0.737874C13.7396 0.300495 12.8775 0.0703125 12.0001 0.0703125C11.1228 0.0703125 10.2607 0.300495 9.50014 0.737874L3.47314 4.21787C2.71402 4.65779 2.08362 5.2892 1.64492 6.04902C1.20622 6.80885 0.974581 7.6705 0.973145 8.54787V15.5079C0.974607 16.3854 1.20625 17.2472 1.64494 18.0071C2.08362 18.7671 2.71401 19.3987 3.47314 19.8389L9.50014 23.3179C10.2606 23.7555 11.1227 23.9859 12.0001 23.9859C12.8776 23.9859 13.7397 23.7555 14.5001 23.3179L20.5271 19.8389C21.2863 19.3987 21.9167 18.7671 22.3554 18.0071C22.794 17.2472 23.0257 16.3854 23.0271 15.5079V8.54787C23.0257 7.6705 22.7941 6.80885 22.3554 6.04902C21.9167 5.2892 21.2863 4.65779 20.5271 4.21787ZM10.5001 2.47087C10.9562 2.20757 11.4735 2.06895 12.0001 2.06895C12.5268 2.06895 13.0441 2.20757 13.5001 2.47087L19.5271 5.94987C19.68 6.04647 19.8236 6.15694 19.9561 6.27987L13.7631 9.85487C13.227 10.164 12.619 10.3266 12.0001 10.3266C11.3813 10.3266 10.7733 10.164 10.2371 9.85487L4.04414 6.27987C4.17671 6.15694 4.32032 6.04647 4.47314 5.94987L10.5001 2.47087ZM4.47314 18.1059C4.01735 17.8418 3.6389 17.4626 3.37566 17.0063C3.11242 16.5501 2.97362 16.0326 2.97314 15.5059V8.54787C2.98009 8.36772 3.00386 8.18861 3.04414 8.01287L9.23715 11.5879C9.78409 11.899 10.3804 12.1138 11.0001 12.2229V21.7919C10.8274 21.739 10.66 21.67 10.5001 21.5859L4.47314 18.1059ZM21.0271 15.5059C21.0267 16.0326 20.8879 16.5501 20.6246 17.0063C20.3614 17.4626 19.9829 17.8418 19.5271 18.1059L13.5001 21.5859C13.3403 21.67 13.1729 21.739 13.0001 21.7919V12.2229C13.6199 12.1138 14.2162 11.899 14.7631 11.5879L20.9561 8.01287C20.9964 8.18861 21.0202 8.36772 21.0271 8.54787V15.5059Z" fill="#374957"/>
</svg>
