<svg width="24" height="24" viewBox="0 0 24 24" fill="none" xmlns="http://www.w3.org/2000/svg">
<g clip-path="url(#clip0_1317_20134)">
<path d="M23 7.00015H18.191L18.991 1.13515C19.0087 1.00501 19.0007 0.872656 18.9672 0.745638C18.9338 0.61862 18.8757 0.499428 18.7962 0.39487C18.7167 0.290311 18.6174 0.202432 18.504 0.136251C18.3905 0.0700693 18.2651 0.0268815 18.135 0.00915302C18.0049 -0.00857543 17.8725 -0.000497315 17.7455 0.0329261C17.6185 0.0663496 17.4993 0.124464 17.3947 0.203951C17.2902 0.283438 17.2023 0.382741 17.1361 0.49619C17.0699 0.609639 17.0267 0.735013 17.009 0.865153L16.173 7.00015H9.191L9.991 1.13515C10.0087 1.00501 10.0007 0.872656 9.96723 0.745638C9.9338 0.61862 9.87569 0.499428 9.7962 0.39487C9.71672 0.290311 9.61741 0.202432 9.50396 0.136251C9.39051 0.0700693 9.26514 0.0268815 9.135 0.00915305C9.00486 -0.00857541 8.8725 -0.000497289 8.74548 0.0329262C8.61847 0.0663496 8.49928 0.124464 8.39472 0.203951C8.29016 0.283438 8.20228 0.382741 8.1361 0.49619C8.06992 0.609639 8.02673 0.735013 8.009 0.865153L7.173 7.00015H2C1.73478 7.00015 1.48043 7.10551 1.29289 7.29305C1.10536 7.48058 1 7.73494 1 8.00015C1 8.26537 1.10536 8.51972 1.29289 8.70726C1.48043 8.8948 1.73478 9.00015 2 9.00015H6.9L6.082 15.0002H1C0.734784 15.0002 0.48043 15.1055 0.292893 15.293C0.105357 15.4806 0 15.7349 0 16.0002C0 16.2654 0.105357 16.5197 0.292893 16.7073C0.48043 16.8948 0.734784 17.0002 1 17.0002H5.809L5.009 22.8652C4.9732 23.128 5.04327 23.3943 5.2038 23.6054C5.36433 23.8166 5.60217 23.9553 5.865 23.9912C6.12783 24.027 6.39412 23.9569 6.60528 23.7964C6.81645 23.6358 6.9552 23.398 6.991 23.1352L7.827 17.0002H14.809L14.009 22.8652C13.9732 23.128 14.0433 23.3943 14.2038 23.6054C14.3643 23.8166 14.6022 23.9553 14.865 23.9912C15.1278 24.027 15.3941 23.9569 15.6053 23.7964C15.8165 23.6358 15.9552 23.398 15.991 23.1352L16.827 17.0002H22C22.2652 17.0002 22.5196 16.8948 22.7071 16.7073C22.8946 16.5197 23 16.2654 23 16.0002C23 15.7349 22.8946 15.4806 22.7071 15.293C22.5196 15.1055 22.2652 15.0002 22 15.0002H17.1L17.918 9.00015H23C23.2652 9.00015 23.5196 8.8948 23.7071 8.70726C23.8946 8.51972 24 8.26537 24 8.00015C24 7.73494 23.8946 7.48058 23.7071 7.29305C23.5196 7.10551 23.2652 7.00015 23 7.00015ZM15.082 15.0002H8.1L8.918 9.00015H15.9L15.082 15.0002Z" fill="#374957"/>
</g>
<defs>
<clipPath id="clip0_1317_20134">
<rect width="24" height="24" fill="white"/>
</clipPath>
</defs>
</svg>
