<svg width="24" height="24" viewBox="0 0 24 24" fill="none" xmlns="http://www.w3.org/2000/svg">
<g clip-path="url(#clip0_1317_20208)">
<path d="M14.9997 23.9991C13.3192 23.9978 11.6576 23.6442 10.1222 22.9611C8.58683 22.278 7.21173 21.2805 6.08567 20.0331C4.9511 18.7842 4.09508 17.3084 3.57441 15.7034C3.05374 14.0985 2.88032 12.4012 3.06566 10.7241C3.36447 8.11412 4.50306 5.67184 6.31003 3.76496C8.11699 1.85808 10.4945 0.589816 13.0847 0.15111C14.7591 -0.107515 16.4678 -0.037888 18.1157 0.35611C18.5472 0.466969 18.9412 0.691114 19.257 1.00535C19.5728 1.31959 19.7988 1.7125 19.9118 2.14343C20.0248 2.57437 20.0206 3.02766 19.8996 3.45642C19.7786 3.88517 19.5453 4.27381 19.2237 4.58211C14.6637 8.74811 15.0597 15.2261 20.0307 18.9921C20.3821 19.268 20.6533 19.633 20.8158 20.0492C20.9784 20.4654 21.0264 20.9175 20.955 21.3586C20.8835 21.7997 20.6951 22.2135 20.4095 22.5571C20.1238 22.9006 19.7513 23.1614 19.3307 23.3121C17.9325 23.7689 16.4706 24.0008 14.9997 23.9991ZM15.0757 1.99911C14.5142 1.99776 13.9535 2.04022 13.3987 2.12611C11.2422 2.49082 9.26253 3.54615 7.75768 5.13324C6.25283 6.72033 5.30423 8.75329 5.05466 10.9261C4.89867 12.3262 5.04243 13.7434 5.47641 15.0836C5.91038 16.4238 6.62462 17.6562 7.57167 18.6991C8.958 20.1788 10.7439 21.2243 12.7128 21.7089C14.6817 22.1935 16.7489 22.0963 18.6637 21.4291C18.7462 21.3982 18.8191 21.346 18.875 21.2778C18.9308 21.2097 18.9677 21.1279 18.9818 21.0409C18.9959 20.9539 18.9868 20.8648 18.9553 20.7824C18.9239 20.7001 18.8712 20.6275 18.8027 20.5721C12.8737 16.0941 12.4027 8.08611 17.8547 3.12311C17.9172 3.06502 17.9623 2.99064 17.985 2.90832C18.0076 2.826 18.0068 2.739 17.9827 2.65711C17.9619 2.57019 17.9177 2.49062 17.855 2.42699C17.7922 2.36336 17.7133 2.3181 17.6267 2.29611C16.7914 2.09464 15.9349 1.99491 15.0757 1.99911Z" fill="#374957"/>
</g>
<defs>
<clipPath id="clip0_1317_20208">
<rect width="24" height="24" fill="white"/>
</clipPath>
</defs>
</svg>
