<svg width="24" height="24" viewBox="0 0 24 24" fill="none" xmlns="http://www.w3.org/2000/svg">
<g clip-path="url(#clip0_1317_20231)">
<path d="M23.7002 0.306859C23.5127 0.119693 23.2586 0.0145717 22.9937 0.0145717C22.7287 0.0145717 22.4746 0.119693 22.2872 0.306859L10.0932 12.4939C9.23135 11.4632 8.52026 10.3154 7.98116 9.08486L9.13916 7.63086C9.68941 7.05528 9.99707 6.29004 9.99837 5.49376C9.99968 4.69748 9.69452 3.93123 9.14616 3.35386C9.14616 3.35386 7.29416 0.949859 7.26416 0.919859C6.69408 0.345597 5.92092 0.0187426 5.11179 0.00994779C4.30267 0.00115295 3.52258 0.311125 2.94016 0.872859L1.79116 1.87286C-2.22484 6.32086 1.15316 12.5869 5.34016 17.2439L0.300159 22.2799C0.125408 22.4697 0.0308162 22.7198 0.0361613 22.9778C0.0415064 23.2358 0.146374 23.4817 0.32884 23.6642C0.511306 23.8466 0.757243 23.9515 1.01523 23.9569C1.27322 23.9622 1.52329 23.8676 1.71316 23.6929L23.7002 1.71986C23.8873 1.53237 23.9924 1.27828 23.9924 1.01336C23.9924 0.748439 23.8873 0.494346 23.7002 0.306859ZM2.00716 6.24486C1.99166 5.1622 2.4034 4.11705 3.15316 3.33586L4.30216 2.33586C4.50125 2.13811 4.7684 2.02393 5.04891 2.01668C5.32943 2.00943 5.60212 2.10966 5.81116 2.29686C5.81116 2.29686 7.65216 4.68586 7.68216 4.71586C7.88728 4.92102 8.00251 5.19925 8.00251 5.48936C8.00251 5.77947 7.88728 6.0577 7.68216 6.26286C7.65616 6.28886 6.04816 8.29986 6.04816 8.29986C5.93688 8.43837 5.86451 8.60402 5.8385 8.77978C5.81248 8.95554 5.83377 9.13506 5.90016 9.29986C6.5614 10.9811 7.496 12.5415 8.66616 13.9179L6.75216 15.8329C3.80916 12.6739 2.00716 9.08686 2.00716 6.24486ZM23.0852 16.7329C23.6631 17.3138 23.9876 18.0999 23.9876 18.9194C23.9876 19.7388 23.6631 20.525 23.0852 21.1059L22.1752 22.1539C18.3002 25.6809 13.6002 23.6179 9.20016 20.6449C9.0951 20.5661 9.00659 20.4674 8.93968 20.3544C8.87278 20.2414 8.82878 20.1163 8.81021 19.9863C8.7727 19.7237 8.84103 19.457 9.00016 19.2449C9.15929 19.0327 9.39619 18.8924 9.65874 18.8549C9.92129 18.8174 10.188 18.8857 10.4002 19.0449C13.9092 21.3599 17.7322 23.3869 20.7202 20.7939L21.6312 19.7449C21.8456 19.5475 21.9745 19.2742 21.9904 18.9831C22.0063 18.6921 21.9079 18.4064 21.7162 18.1869C21.7162 18.1869 19.3242 16.3469 19.2942 16.3169C19.0882 16.1129 18.81 15.9985 18.5202 15.9985C18.2303 15.9985 17.9521 16.1129 17.7462 16.3169C17.7192 16.3439 15.7032 17.9499 15.7032 17.9499C15.5696 18.0568 15.4107 18.1274 15.2418 18.1549C15.0729 18.1824 14.8998 18.1659 14.7392 18.1069C14.0825 17.8571 13.4437 17.5627 12.8272 17.2259C12.614 17.0914 12.4594 16.8815 12.3944 16.638C12.3293 16.3945 12.3586 16.1354 12.4764 15.9126C12.5942 15.6898 12.7918 15.5197 13.0296 15.4363C13.2675 15.3529 13.528 15.3624 13.7592 15.4629C14.1302 15.6629 14.5152 15.8539 14.9152 16.0239L16.3772 14.8609C16.9529 14.3105 17.7184 14.0028 18.515 14.0017C19.3115 14.0006 20.0779 14.3061 20.6552 14.8549C20.6552 14.8549 23.0542 16.6999 23.0852 16.7329Z" fill="#374957"/>
</g>
<defs>
<clipPath id="clip0_1317_20231">
<rect width="24" height="24" fill="white"/>
</clipPath>
</defs>
</svg>
