<svg width="24" height="24" viewBox="0 0 24 24" fill="none" xmlns="http://www.w3.org/2000/svg">
<g clip-path="url(#clip0_1317_19943)">
<path d="M20.5367 12.7004L19.4067 12.0004L20.5377 11.3004C21.323 10.8335 21.9311 10.1191 22.2667 9.26935C22.4768 8.7075 22.5551 8.10492 22.4956 7.50803C22.4361 6.91115 22.2403 6.33589 21.9235 5.82657C21.6066 5.31725 21.177 4.88747 20.6679 4.57033C20.1587 4.25319 19.5836 4.05717 18.9867 3.99735C18.0761 3.92287 17.1665 4.1529 16.4007 4.65135L15.9997 4.90035V4.17235C16.0166 3.15711 15.6576 2.17144 14.9918 1.40483C14.326 0.638224 13.4003 0.144779 12.3927 0.0193533C11.8369 -0.0355153 11.2759 0.0265982 10.7456 0.201695C10.2153 0.376792 9.7275 0.660992 9.31368 1.036C8.89987 1.41101 8.56916 1.86851 8.34285 2.37906C8.11655 2.88961 7.99966 3.44189 7.9997 4.00035V4.90035L7.5997 4.65035C6.83411 4.15049 5.92404 3.91937 5.01271 3.99335C4.41575 4.05264 3.84037 4.24822 3.33094 4.56501C2.82151 4.8818 2.39163 5.31134 2.07443 5.82052C1.75723 6.32969 1.5612 6.90491 1.50143 7.50182C1.44166 8.09873 1.51976 8.70139 1.72971 9.26335C2.06534 10.1134 2.67388 10.8278 3.45971 11.2944L4.59271 12.0004L3.4617 12.7004C2.67641 13.1673 2.06828 13.8816 1.73271 14.7314C1.52235 15.2936 1.44402 15.8968 1.50377 16.4941C1.56352 17.0915 1.75975 17.6671 2.07731 18.1766C2.39487 18.6861 2.82527 19.1158 3.33527 19.4325C3.84527 19.7493 4.42124 19.9446 5.01871 20.0034C5.92735 20.0776 6.83498 19.8487 7.5997 19.3524L7.9997 19.1004V20.0004C7.9997 21.0612 8.42113 22.0786 9.17128 22.8288C9.92142 23.5789 10.9388 24.0004 11.9997 24.0004C13.0606 24.0004 14.078 23.5789 14.8281 22.8288C15.5783 22.0786 15.9997 21.0612 15.9997 20.0004V19.1004L16.3997 19.3514C17.164 19.848 18.0712 20.0776 18.9797 20.0044C19.577 19.9453 20.1527 19.7498 20.6625 19.4329C21.1722 19.1161 21.6024 18.6864 21.9197 18.1769C22.2371 17.6675 22.4331 17.0919 22.4928 16.4947C22.5524 15.8974 22.474 15.2945 22.2637 14.7324C21.9287 13.8826 21.3213 13.168 20.5367 12.7004ZM20.2257 17.1184C19.957 17.5495 19.528 17.8563 19.0331 17.9713C18.5382 18.0863 18.018 18 17.5867 17.7314L15.5277 16.4494C15.3762 16.3551 15.2022 16.3032 15.0237 16.2989C14.8453 16.2946 14.669 16.3381 14.5131 16.425C14.3572 16.5118 14.2274 16.6388 14.1371 16.7927C14.0468 16.9466 13.9994 17.1219 13.9997 17.3004V20.0004C13.9997 20.5308 13.789 21.0395 13.4139 21.4146C13.0388 21.7896 12.5301 22.0004 11.9997 22.0004C11.4693 22.0004 10.9606 21.7896 10.5855 21.4146C10.2104 21.0395 9.99971 20.5308 9.99971 20.0004V17.3004C9.99966 17.1221 9.95196 16.947 9.86153 16.7934C9.7711 16.6397 9.64124 16.5131 9.4854 16.4265C9.32955 16.3399 9.15339 16.2965 8.97516 16.3009C8.79693 16.3053 8.62311 16.3572 8.4717 16.4514L6.4127 17.7354C6.19918 17.8683 5.96155 17.9579 5.71339 17.9991C5.46523 18.0402 5.2114 18.032 4.9664 17.9751C4.72139 17.9181 4.49 17.8134 4.28544 17.667C4.08089 17.5206 3.90717 17.3354 3.7742 17.1219C3.64124 16.9083 3.55164 16.6707 3.51051 16.4225C3.46938 16.1744 3.47754 15.9206 3.5345 15.6755C3.59147 15.4305 3.69614 15.1992 3.84253 14.9946C3.98893 14.79 4.17418 14.6163 4.38771 14.4834L7.0127 12.8494C7.15741 12.7597 7.27683 12.6345 7.35964 12.4858C7.44246 12.337 7.48592 12.1696 7.48592 11.9994C7.48592 11.8291 7.44246 11.6617 7.35964 11.5129C7.27683 11.3642 7.15741 11.239 7.0127 11.1494L4.38771 9.51635C3.95646 9.24782 3.64956 8.81898 3.5345 8.32416C3.41945 7.82935 3.50567 7.3091 3.7742 6.87785C4.04274 6.44661 4.47158 6.13971 4.9664 6.02465C5.46121 5.9096 5.98146 5.99582 6.4127 6.26435L8.4717 7.54635C8.6229 7.64036 8.79644 7.69229 8.97441 7.69679C9.15239 7.7013 9.32834 7.65821 9.48409 7.57197C9.63984 7.48574 9.76975 7.35949 9.86039 7.20626C9.95103 7.05303 9.99913 6.87838 9.99971 6.70035V4.10735C9.98891 3.6205 10.1497 3.14536 10.4539 2.7651C10.7581 2.38484 11.1864 2.12369 11.6637 2.02735C11.9508 1.97843 12.2451 1.99279 12.526 2.06941C12.8069 2.14604 13.0677 2.28309 13.2902 2.47099C13.5127 2.65889 13.6914 2.8931 13.814 3.15726C13.9365 3.42142 13.9999 3.70915 13.9997 4.00035V6.70035C13.9999 6.87855 14.0478 7.05346 14.1383 7.20697C14.2288 7.36047 14.3586 7.48701 14.5145 7.57348C14.6703 7.65996 14.8464 7.70322 15.0245 7.6988C15.2026 7.69439 15.3764 7.64244 15.5277 7.54835L17.5867 6.26735C17.8002 6.13439 18.0379 6.04479 18.286 6.00366C18.5342 5.96253 18.788 5.97068 19.033 6.02765C19.278 6.08462 19.5094 6.18929 19.714 6.33568C19.9185 6.48208 20.0922 6.66732 20.2252 6.88085C20.3582 7.09438 20.4478 7.33201 20.4889 7.58017C20.53 7.82833 20.5219 8.08216 20.4649 8.32716C20.4079 8.57217 20.3033 8.80356 20.1569 9.00811C20.0105 9.21267 19.8252 9.38639 19.6117 9.51935L16.9867 11.1534C16.842 11.243 16.7226 11.3682 16.6398 11.5169C16.557 11.6657 16.5135 11.8331 16.5135 12.0034C16.5135 12.1736 16.557 12.341 16.6398 12.4898C16.7226 12.6385 16.842 12.7637 16.9867 12.8534L19.6117 14.4874C19.8254 14.6201 20.0107 14.7937 20.1572 14.9982C20.3038 15.2027 20.4085 15.4341 20.4655 15.6791C20.5226 15.9241 20.5307 16.1779 20.4896 16.4261C20.4484 16.6743 20.3588 16.9119 20.2257 17.1254V17.1184Z" fill="#374957"/>
</g>
<defs>
<clipPath id="clip0_1317_19943">
<rect width="24" height="24" fill="white"/>
</clipPath>
</defs>
</svg>
