<svg width="24" height="24" viewBox="0 0 24 24" fill="none" xmlns="http://www.w3.org/2000/svg">
<g clip-path="url(#clip0_1317_20222)">
<path d="M23.1188 0.881404C22.7602 0.518531 22.3142 0.254259 21.8237 0.11412C21.3332 -0.0260189 20.8149 -0.0372872 20.3188 0.0814036L4.31877 3.4514C3.39734 3.57777 2.5295 3.95888 1.81297 4.55182C1.09644 5.14475 0.559679 5.92596 0.263141 6.80747C-0.0333971 7.68898 -0.0779367 8.63577 0.134538 9.54122C0.347013 10.4467 0.808063 11.2748 1.46577 11.9324L3.18377 13.6494C3.27675 13.7424 3.35049 13.8527 3.40077 13.9742C3.45104 14.0957 3.47687 14.2259 3.47677 14.3574V17.5254C3.47897 17.9708 3.58151 18.41 3.77677 18.8104L3.76877 18.8174L3.79477 18.8434C4.08778 19.4325 4.56635 19.909 5.15677 20.1994L5.18277 20.2254L5.18977 20.2174C5.59013 20.4127 6.02934 20.5152 6.47477 20.5174H9.64277C9.90782 20.5172 10.1621 20.6222 10.3498 20.8094L12.0668 22.5264C12.5273 22.992 13.0754 23.3619 13.6795 23.6147C14.2837 23.8675 14.9319 23.9983 15.5868 23.9994C16.1325 23.9987 16.6745 23.9096 17.1918 23.7354C18.0652 23.4486 18.8411 22.9234 19.432 22.2191C20.0229 21.5148 20.4052 20.6594 20.5358 19.7494L23.9108 3.7144C24.0356 3.21404 24.0283 2.68982 23.8894 2.19317C23.7506 1.69651 23.485 1.24447 23.1188 0.881404ZM4.59977 12.2374L2.88077 10.5204C2.48049 10.1298 2.19994 9.63305 2.07205 9.08856C1.94417 8.54407 1.97425 7.9744 2.15877 7.4464C2.33766 6.90473 2.66837 6.42583 3.11156 6.06667C3.55475 5.7075 4.09178 5.48319 4.65877 5.4204L20.4998 2.0854L5.47477 17.1124V14.3574C5.47628 13.9637 5.39973 13.5737 5.24954 13.2098C5.09935 12.8459 4.8785 12.5154 4.59977 12.2374ZM18.5708 19.4074C18.494 19.9597 18.2648 20.4797 17.9089 20.909C17.553 21.3383 17.0844 21.6599 16.5559 21.8378C16.0274 22.0156 15.4597 22.0425 14.9167 21.9156C14.3737 21.7888 13.8768 21.513 13.4818 21.1194L11.7618 19.3994C11.4841 19.1202 11.1539 18.8989 10.7902 18.7482C10.4265 18.5975 10.0365 18.5204 9.64277 18.5214H6.88777L21.9148 3.4994L18.5708 19.4074Z" fill="#374957"/>
</g>
<defs>
<clipPath id="clip0_1317_20222">
<rect width="24" height="24" fill="white"/>
</clipPath>
</defs>
</svg>
