<svg width="24" height="24" viewBox="0 0 24 24" fill="none" xmlns="http://www.w3.org/2000/svg">
<g clip-path="url(#clip0_1317_20225)">
<path d="M8.16431 7.99917C7.58505 7.9901 7.02693 7.78014 6.58532 7.40517C5.66418 6.56039 5.10613 5.39161 5.02832 4.14417C4.78532 1.65117 6.14532 0.18017 7.61432 0.0161698C7.96827 -0.0230736 8.3265 0.00929109 8.66768 0.111338C9.00887 0.213384 9.32604 0.383027 9.60032 0.61017C10.0095 0.979004 10.3417 1.4251 10.5779 1.92279C10.814 2.42048 10.9494 2.95995 10.9763 3.51017C11.2003 5.83417 10.1283 7.99917 8.16431 7.99917ZM7.83632 1.99917C7.25932 2.06317 6.91532 2.88217 7.01932 3.94517C7.04829 4.6593 7.34286 5.33688 7.84531 5.84517C7.94051 5.93868 8.067 5.99355 8.20031 5.99917C8.55131 5.96017 9.11631 5.05817 8.98331 3.69917C8.64131 1.83317 7.86132 1.99917 7.83632 2.00417V1.99917ZM3.16432 13.9992C2.58506 13.9901 2.02693 13.7801 1.58532 13.4052C0.664177 12.5604 0.106128 11.3916 0.0283151 10.1442C-0.214685 7.65117 1.14532 6.18017 2.61432 6.01617C2.96825 5.97739 3.32636 6.00997 3.66748 6.112C4.00861 6.21402 4.3258 6.38342 4.60032 6.61017C5.00949 6.979 5.34171 7.4251 5.57785 7.92279C5.814 8.42048 5.94942 8.95995 5.97632 9.51017C6.20031 11.8342 5.07732 13.9992 3.16432 13.9992ZM2.83632 7.99917C2.25932 8.06317 1.91532 8.88217 2.01932 9.94517C2.04829 10.6593 2.34286 11.3369 2.84532 11.8452C2.94144 11.9373 3.06738 11.9919 3.20032 11.9992C3.55132 11.9602 4.11632 11.0582 3.98332 9.69917C3.71832 7.87117 2.86132 7.99917 2.83632 8.00417V7.99917ZM15.8363 7.99917C14.1283 8.01117 12.8023 5.83317 13.0293 3.50717C13.0562 2.95695 13.1916 2.41748 13.4278 1.91979C13.6639 1.4221 13.9961 0.976004 14.4053 0.60717C14.6793 0.381389 14.9958 0.212773 15.336 0.111269C15.6763 0.00976569 16.0334 -0.02257 16.3863 0.0161698C17.8553 0.18017 19.2153 1.65117 18.9723 4.14417C18.8948 5.39196 18.3367 6.56115 17.4153 7.40617C16.9736 7.78078 16.4155 7.99038 15.8363 7.99917ZM15.0203 3.69917C14.8873 5.05417 15.4523 5.95617 15.8033 5.99917C15.9341 5.99402 16.0588 5.94264 16.1553 5.85417C16.6578 5.34588 16.9523 4.6683 16.9813 3.95417C17.1913 1.33317 15.2003 1.50417 15.0203 3.69917ZM20.8363 13.9992C18.9743 13.9992 17.8023 11.8332 18.0293 9.50717C18.0562 8.95695 18.1916 8.41748 18.4278 7.91979C18.6639 7.4221 18.9961 6.976 19.4053 6.60717C19.6789 6.38057 19.9953 6.21122 20.3356 6.10919C20.6758 6.00715 21.0332 5.9745 21.3863 6.01317C22.8553 6.17717 24.2153 7.64817 23.9723 10.1412C23.8948 11.389 23.3367 12.5581 22.4153 13.4032C21.974 13.7789 21.4158 13.9895 20.8363 13.9992ZM20.0203 9.69917C19.8873 11.0542 20.4523 11.9562 20.8033 11.9992C20.9337 11.9923 21.0579 11.9411 21.1553 11.8542C21.6578 11.3459 21.9523 10.6683 21.9813 9.95417C22.0813 8.89117 21.7413 8.07217 21.1643 8.00817C21.1393 7.99917 20.1153 7.91017 20.0203 9.69917ZM16.0003 23.9992C15.1455 24.0163 14.3014 23.8072 13.5533 23.3932C13.0745 23.1409 12.5415 23.0091 12.0003 23.0091C11.4591 23.0091 10.9261 23.1409 10.4473 23.3932C7.43431 25.0822 3.92232 23.2262 4.00032 18.9992C4.00032 14.3642 8.50731 9.99917 12.0003 9.99917C15.4933 9.99917 20.0003 14.3632 20.0003 18.9992C20.0003 21.9432 18.3553 23.9992 16.0003 23.9992ZM12.0003 20.9992C12.855 20.9824 13.699 21.191 14.4473 21.6042C16.6843 22.8222 18.0353 21.1712 18.0003 18.9992C18.0003 15.6192 14.4793 11.9992 12.0003 11.9992C9.52131 11.9992 6.00032 15.6192 6.00032 18.9992C5.96832 21.1682 7.30832 22.8222 9.55332 21.6042C10.3017 21.191 11.1457 20.9824 12.0003 20.9992Z" fill="#374957"/>
</g>
<defs>
<clipPath id="clip0_1317_20225">
<rect width="24" height="24" fill="white"/>
</clipPath>
</defs>
</svg>
