<svg width="24" height="24" viewBox="0 0 24 24" fill="none" xmlns="http://www.w3.org/2000/svg">
<path d="M18.7127 12.0008H13.9997C13.4692 12.0008 12.9605 11.7901 12.5855 11.415C12.2104 11.0399 11.9997 10.5312 11.9997 10.0008V5.27478C12.001 4.81476 11.8966 4.36059 11.6944 3.94738C11.4922 3.53418 11.1977 3.173 10.8337 2.89178C10.4887 2.61859 10.0856 2.42835 9.65537 2.33576C9.22519 2.24317 8.77947 2.2507 8.35266 2.35778C5.92832 2.95959 3.78199 4.37084 2.26864 6.35814C0.755278 8.34544 -0.0344602 10.7898 0.0300253 13.2868C0.0945107 15.7839 1.00936 18.1842 2.62327 20.0908C4.23718 21.9973 6.45349 23.2959 8.90566 23.7718C11.6628 24.2995 14.5173 23.7532 16.8847 22.2447C19.2521 20.7362 20.9532 18.3797 21.6397 15.6578C21.7471 15.2304 21.755 14.7841 21.6626 14.3532C21.5701 13.9223 21.3799 13.5185 21.1067 13.1728C20.8221 12.8092 20.4589 12.5149 20.0442 12.3119C19.6296 12.1089 19.1743 12.0025 18.7127 12.0008ZM19.7007 15.1688C19.3178 16.7106 18.5322 18.1231 17.4243 19.2618C16.3164 20.4004 14.926 21.2244 13.3952 21.6494C11.8644 22.0743 10.2482 22.0851 8.71187 21.6805C7.17556 21.2759 5.77428 20.4704 4.65137 19.3466C3.52846 18.2228 2.72421 16.8208 2.32089 15.2842C1.91756 13.7475 1.92963 12.1313 2.35586 10.6009C2.7821 9.07043 3.60719 7.68066 4.74677 6.57372C5.88634 5.46677 7.29948 4.68238 8.84166 4.30078C8.9736 4.26781 9.11142 4.2662 9.24409 4.29607C9.37675 4.32594 9.50058 4.38646 9.60566 4.47278C9.72976 4.56738 9.83039 4.6893 9.89976 4.82908C9.96912 4.96886 10.0054 5.12273 10.0057 5.27878V10.0008C10.0057 11.0616 10.4271 12.0791 11.1772 12.8292C11.9274 13.5793 12.9448 14.0008 14.0057 14.0008H18.7177C18.8751 14.0014 19.0303 14.0377 19.1716 14.107C19.313 14.1763 19.4367 14.2767 19.5337 14.4008C19.6187 14.5073 19.6779 14.6321 19.7067 14.7653C19.7355 14.8985 19.7331 15.0366 19.6997 15.1688H19.7007Z" fill="#374957"/>
<path d="M23.651 7.44687C23.1906 5.75434 22.2963 4.21137 21.0564 2.97065C19.8166 1.72993 18.2742 0.834463 16.582 0.372872C16.4046 0.325181 16.2217 0.300974 16.038 0.300872C15.7738 0.298361 15.5117 0.348239 15.2668 0.447624C15.022 0.547009 14.7993 0.69393 14.6115 0.879898C14.4238 1.06587 14.2748 1.28719 14.1731 1.53109C14.0714 1.77499 14.019 2.03662 14.019 2.30087V7.00087C14.019 7.79652 14.3351 8.55958 14.8977 9.12219C15.4603 9.6848 16.2234 10.0009 17.019 10.0009H21.738C22.0467 9.9979 22.3505 9.92381 22.6259 9.78435C22.9013 9.64489 23.1408 9.44382 23.3259 9.19676C23.5109 8.9497 23.6365 8.6633 23.6929 8.35981C23.7493 8.05632 23.735 7.74392 23.651 7.44687ZM21.153 8.00087H17.015C16.7498 8.00087 16.4955 7.89551 16.3079 7.70798C16.1204 7.52044 16.015 7.26609 16.015 7.00087L16.007 2.30787C16.0144 2.30258 16.023 2.29946 16.032 2.29887H16.058C17.4201 2.66996 18.6611 3.39178 19.6571 4.39231C20.653 5.39285 21.3692 6.63709 21.734 8.00087H21.153Z" fill="#374957"/>
</svg>
