<svg width="24" height="24" viewBox="0 0 24 24" fill="none" xmlns="http://www.w3.org/2000/svg">
<g clip-path="url(#clip0_1317_20110)">
<path d="M12.0034 -0.00195312C5.36579 -0.00195312 -0.0151367 5.37897 -0.0151367 12.0166C-0.0151367 18.6542 5.36579 24.0351 12.0034 24.0351C18.6411 24.0351 24.0219 18.6542 24.0219 12.0166C24.0219 5.37897 18.6411 -0.00195312 12.0034 -0.00195312ZM19.4521 8.83825L20.2282 6.32927C21.2738 7.84497 21.878 9.6213 21.9732 11.4602L19.8312 9.95125C19.477 9.70155 19.324 9.2522 19.4521 8.83825ZM14.6002 2.35323H14.5921L12.5921 3.80922C12.2416 4.06408 11.7667 4.06408 11.4161 3.80922L9.41611 2.35323C11.1121 1.88261 12.9042 1.88261 14.6002 2.35323ZM3.77213 6.33025L4.54814 8.83825C4.6763 9.2522 4.52325 9.70155 4.16916 9.95125L2.02716 11.4602C2.12236 9.62162 2.72649 7.84558 3.77213 6.33025ZM4.00716 17.9843L6.75418 17.9933C7.18782 17.9942 7.57149 18.2744 7.70419 18.6873L8.56819 21.3803C6.75211 20.7118 5.16811 19.5325 4.00716 17.9843ZM15.4331 21.3803L16.2961 18.6873C16.4287 18.2747 16.8119 17.9946 17.2451 17.9933L19.9931 17.9843C18.8328 19.5326 17.2491 20.7121 15.4331 21.3803ZM21.1691 15.9803L17.2391 15.9932C15.9379 15.9949 14.787 16.8374 14.3921 18.0773L13.1571 21.9272C12.3888 22.0246 11.6114 22.0246 10.8431 21.9272L9.60811 18.0762C9.21277 16.8364 8.06143 15.9944 6.76013 15.9932L2.83111 15.9813C2.52872 15.2836 2.30761 14.5534 2.1721 13.8053L5.32111 11.5863C6.38555 10.8392 6.84554 9.49 6.4591 8.24823L5.32411 4.57623C5.89768 4.05503 6.52993 3.60231 7.20811 3.22722L10.2361 5.4272C11.2871 6.19398 12.7131 6.19398 13.7641 5.4272L16.7921 3.22722C17.4701 3.60255 18.1023 4.05522 18.6761 4.57623L17.5411 8.24823C17.1547 9.48995 17.6146 10.8391 18.6791 11.5863L21.8281 13.8053C21.6927 14.5532 21.4716 15.283 21.1691 15.9803Z" fill="#374957"/>
<path d="M15.3862 9.22477L13.4692 7.83277C12.594 7.19377 11.4062 7.19377 10.5312 7.83277L8.61417 9.22477C7.73399 9.86072 7.36673 10.9933 7.70615 12.0248L8.43815 14.2778C8.7727 15.307 9.73289 16.003 10.8151 16.0007H13.1851C14.2685 16.0008 15.2286 15.3032 15.5632 14.2727L16.2942 12.0197C16.6315 10.9898 16.2644 9.85983 15.3862 9.22477ZM14.3921 11.4017L13.6611 13.6547C13.5943 13.8611 13.402 14.0009 13.1851 14.0007H10.8151C10.5985 14.0004 10.4068 13.8608 10.3401 13.6547L9.60815 11.4008C9.54079 11.1944 9.61434 10.9681 9.79017 10.8407L11.7062 9.45075C11.8815 9.32335 12.1189 9.32335 12.2942 9.45075L14.2112 10.8428C14.3861 10.9703 14.4592 11.1959 14.3921 11.4017Z" fill="#374957"/>
</g>
<defs>
<clipPath id="clip0_1317_20110">
<rect width="24" height="24" fill="white"/>
</clipPath>
</defs>
</svg>
