<svg width="24" height="24" viewBox="0 0 24 24" fill="none" xmlns="http://www.w3.org/2000/svg">
<g clip-path="url(#clip0_1317_20051)">
<path d="M20.0003 1.38919e-05H18.2433C17.7177 -0.00137567 17.197 0.101493 16.7114 0.302666C16.2258 0.503839 15.7849 0.799322 15.4143 1.17201L12.1723 4.41401C11.4241 5.16534 11.0029 6.18171 11.0003 7.24201V10.705C7.73427 13.12 3.41927 16.338 2.87927 16.879C2.44417 17.317 2.15517 17.8789 2.05187 18.4876C1.94857 19.0962 2.03604 19.722 2.30227 20.279L0.293275 22.293C0.105804 22.4805 0.000488281 22.7348 0.000488281 23C0.000488281 23.2652 0.105804 23.5195 0.293275 23.707C0.480802 23.8945 0.735111 23.9998 1.00027 23.9998C1.26544 23.9998 1.51975 23.8945 1.70727 23.707L3.71427 21.7C4.27142 21.9718 4.89973 22.0621 5.51085 21.9582C6.12197 21.8543 6.68518 21.5616 7.12127 21.121C7.66227 20.58 10.8803 16.266 13.3003 13H16.7623C17.2879 13.0014 17.8086 12.8985 18.2942 12.6974C18.7798 12.4962 19.2206 12.2007 19.5913 11.828L22.8333 8.58601C23.5796 7.83387 23.999 6.8176 24.0003 5.75801V4.00001C24.0003 2.93915 23.5788 1.92173 22.8287 1.17159C22.0786 0.421441 21.0611 1.38919e-05 20.0003 1.38919e-05ZM5.70727 19.707C5.51714 19.8895 5.26381 19.9914 5.00027 19.9914C4.73674 19.9914 4.48341 19.8895 4.29327 19.707C4.1058 19.5195 4.00049 19.2652 4.00049 19C4.00049 18.7348 4.1058 18.4805 4.29327 18.293C4.63227 17.957 7.29327 15.95 10.2413 13.759C8.04927 16.706 6.04227 19.369 5.70727 19.707ZM22.0003 5.75801C21.999 6.28816 21.7884 6.79635 21.4143 7.17201L18.1723 10.414C17.9868 10.6003 17.7663 10.748 17.5234 10.8486C17.2805 10.9492 17.0201 11.0006 16.7573 11H14.7713L15.7623 9.65201L19.7073 5.70701C19.8028 5.61477 19.879 5.50442 19.9314 5.38242C19.9838 5.26041 20.0114 5.12919 20.0125 4.99642C20.0137 4.86364 19.9884 4.73196 19.9381 4.60906C19.8878 4.48616 19.8136 4.37451 19.7197 4.28062C19.6258 4.18673 19.5141 4.11247 19.3912 4.06219C19.2683 4.01191 19.1367 3.98661 19.0039 3.98776C18.8711 3.98892 18.7399 4.0165 18.6179 4.06891C18.4959 4.12132 18.3855 4.1975 18.2933 4.29301L14.3493 8.23701L13.0003 9.22901V7.24201C13.0016 6.71186 13.2122 6.20368 13.5863 5.82801L16.8283 2.58601C17.0137 2.39972 17.2343 2.25202 17.4771 2.15144C17.72 2.05086 17.9804 1.99939 18.2433 2.00001H20.0003C20.5307 2.00001 21.0394 2.21073 21.4145 2.5858C21.7896 2.96087 22.0003 3.46958 22.0003 4.00001V5.75801Z" fill="#374957"/>
</g>
<defs>
<clipPath id="clip0_1317_20051">
<rect width="24" height="24" fill="white"/>
</clipPath>
</defs>
</svg>
