<svg width="24" height="24" viewBox="0 0 24 24" fill="none" xmlns="http://www.w3.org/2000/svg">
<g clip-path="url(#clip0_1317_20232)">
<path d="M22.5631 1.43814C20.1891 -0.935855 16.6441 -0.356856 12.0001 3.13814C7.35711 -0.356856 3.81311 -0.936855 1.43711 1.43814C-0.93889 3.81314 -0.35789 7.35713 3.13711 12.0011C-0.35789 16.6441 -0.937891 20.1891 1.43711 22.5641C1.8824 23.0258 2.4175 23.3915 3.00946 23.6387C3.60141 23.8858 4.23769 24.0092 4.87911 24.0011C6.85011 24.0011 9.23011 22.9491 12.0001 20.8651C14.7691 22.9491 17.1491 24.0011 19.1211 24.0011C19.7625 24.0092 20.3988 23.8858 20.9908 23.6387C21.5827 23.3915 22.1178 23.0258 22.5631 22.5641C24.9381 20.1891 24.3631 16.6451 20.8631 12.0011C24.3581 7.35713 24.9381 3.81314 22.5631 1.43814ZM19.0851 2.02914C19.4673 2.01763 19.8477 2.08435 20.2032 2.22518C20.5586 2.36602 20.8815 2.57801 21.1521 2.84814C22.8981 4.59514 21.6081 7.56113 19.5641 10.3871C18.7261 9.39913 17.7821 8.37213 16.7061 7.29514C15.6301 6.21814 14.6001 5.27414 13.6121 4.43514C15.5101 3.06214 17.4721 2.02914 19.0851 2.02914ZM18.3111 12.0011C17.3001 13.2211 16.2291 14.3621 15.2951 15.3011C14.3611 16.2401 13.2201 17.3011 12.0001 18.3121C10.7801 17.3011 9.63911 16.2301 8.70511 15.3011C7.77111 14.3721 6.70011 13.2211 5.68911 12.0011C6.70011 10.7811 7.77111 9.63913 8.70511 8.70613C9.63911 7.77313 10.7801 6.70114 12.0001 5.68914C13.2201 6.69914 14.3611 7.77213 15.3001 8.70613C16.2391 9.64013 17.3001 10.7811 18.3111 12.0011ZM2.84811 2.84914C3.11838 2.57854 3.44122 2.36618 3.79672 2.22515C4.15222 2.08412 4.53284 2.01741 4.91511 2.02914C6.52811 2.02914 8.49011 3.06214 10.3881 4.43514C9.40011 5.27414 8.37211 6.21814 7.29411 7.29514C6.21611 8.37213 5.27411 9.39513 4.43511 10.3871C2.39211 7.56113 1.10011 4.59514 2.84811 2.84914ZM2.84811 21.1491C1.10211 19.4031 2.39211 16.4361 4.43511 13.6111C5.27411 14.5991 6.21811 15.6261 7.29411 16.7031C8.37011 17.7801 9.39411 18.7261 10.3831 19.5641C7.55811 21.6101 4.59211 22.9011 2.84811 21.1531V21.1491ZM21.1481 21.1491C19.4031 22.8931 16.4381 21.6061 13.6131 19.5641C14.5991 18.7261 15.6271 17.7771 16.7021 16.7031C17.7771 15.6291 18.7221 14.6031 19.5601 13.6111C21.6081 16.4411 22.9001 19.4071 21.1521 21.1531L21.1481 21.1491Z" fill="#374957"/>
<path d="M12 14C13.1046 14 14 13.1046 14 12C14 10.8954 13.1046 10 12 10C10.8954 10 10 10.8954 10 12C10 13.1046 10.8954 14 12 14Z" fill="#374957"/>
</g>
<defs>
<clipPath id="clip0_1317_20232">
<rect width="24" height="24" fill="white"/>
</clipPath>
</defs>
</svg>
