<svg width="24" height="24" viewBox="0 0 24 24" fill="none" xmlns="http://www.w3.org/2000/svg">
<g clip-path="url(#clip0_1178_19831)">
<path d="M18.3559 7.35917C18.1846 7.30623 18.0291 7.21166 17.9032 7.08393C17.7774 6.95619 17.6852 6.79926 17.6349 6.62717C17.1058 4.92678 16.0245 3.45153 14.5623 2.43509C13.1001 1.41864 11.3405 0.919134 9.56237 1.01568C7.7842 1.11222 6.08907 1.7993 4.74549 2.96807C3.40192 4.13685 2.48672 5.7205 2.14487 7.46817C1.79342 9.23518 2.07672 11.0695 2.94487 12.6482C1.9333 13.1701 1.1107 13.9959 0.592692 15.0095C0.0746812 16.0231 -0.112705 17.1736 0.0568679 18.2992C0.31769 19.6069 1.0179 20.7861 2.04127 21.641C3.06463 22.496 4.3496 22.9752 5.68287 22.9992H14.7829C19.8559 22.9992 23.6349 19.9712 23.9729 15.6372C24.1239 13.8231 23.6489 12.0121 22.6268 10.5059C21.6047 8.99959 20.0974 7.88902 18.3559 7.35917V7.35917ZM19.2279 14.7062L13.8129 20.1202C13.2503 20.6826 12.4874 20.9985 11.6919 20.9985C10.8964 20.9985 10.1335 20.6826 9.57087 20.1202L6.18387 16.6992C6.07717 16.6098 5.99032 16.4991 5.92887 16.3742C5.86742 16.2493 5.83272 16.1129 5.827 15.9738C5.82128 15.8347 5.84466 15.696 5.89564 15.5665C5.94662 15.4369 6.02409 15.3195 6.12308 15.2216C6.22207 15.1237 6.3404 15.0476 6.4705 14.9981C6.6006 14.9486 6.7396 14.9268 6.87861 14.9341C7.01762 14.9414 7.15358 14.9776 7.27778 15.0405C7.40197 15.1034 7.51168 15.1915 7.59987 15.2992L10.9839 18.7132C11.1743 18.8939 11.4268 18.9946 11.6894 18.9946C11.9519 18.9946 12.2044 18.8939 12.3949 18.7132L17.8089 13.2992C17.9964 13.1115 18.2507 13.0061 18.516 13.006C18.7813 13.0059 19.0357 13.1112 19.2234 13.2987C19.411 13.4862 19.5165 13.7405 19.5166 14.0058C19.5167 14.2711 19.4114 14.5255 19.2239 14.7132L19.2279 14.7062Z" fill="#374957"/>
</g>
<defs>
<clipPath id="clip0_1178_19831">
<rect width="24" height="24" fill="white"/>
</clipPath>
</defs>
</svg>
