<svg width="24" height="24" viewBox="0 0 24 24" fill="none" xmlns="http://www.w3.org/2000/svg">
<g clip-path="url(#clip0_1178_19774)">
<path d="M4 6.00061H2C2.00002 4.98045 2.38984 3.99884 3.0897 3.25659C3.78957 2.51434 4.74659 2.06755 5.765 2.00761C6.16565 1.4148 6.70163 0.925837 7.32864 0.581145C7.95565 0.236453 8.65569 0.0459259 9.3709 0.0253098C10.0861 0.00469372 10.796 0.15458 11.4418 0.462583C12.0876 0.770585 12.6509 1.22786 13.085 1.79661C13.1481 1.87724 13.231 1.94015 13.3256 1.97923C13.4203 2.01831 13.5234 2.03222 13.625 2.01961C14.4437 1.94561 15.2657 2.11984 15.984 2.51961C16.6046 2.86189 17.1202 3.36682 17.4754 3.98014C17.8306 4.59345 18.012 5.29197 18 6.00061H12C11.2044 6.00061 10.4413 6.31669 9.87868 6.87929C9.31607 7.4419 9 8.20497 9 9.00062V13.0006C9 13.2658 8.89464 13.5202 8.70711 13.7077C8.51957 13.8953 8.26522 14.0006 8 14.0006C7.73478 14.0006 7.48043 13.8953 7.29289 13.7077C7.10536 13.5202 7 13.2658 7 13.0006V9.00062C7 8.20497 6.68393 7.4419 6.12132 6.87929C5.55871 6.31669 4.79565 6.00061 4 6.00061ZM23 13.5006V16.5006C23 17.4289 22.6313 18.3191 21.9749 18.9755C21.3185 19.6319 20.4283 20.0006 19.5 20.0006H18.9C18.6679 21.1292 18.0538 22.1433 17.1613 22.8719C16.2687 23.6005 15.1522 23.9992 14 24.0006H6C4.6744 23.999 3.40356 23.4717 2.46622 22.5344C1.52888 21.5971 1.00159 20.3262 1 19.0006V9.00062C1 8.7354 1.10536 8.48104 1.29289 8.29351C1.48043 8.10597 1.73478 8.00062 2 8.00062H4C4.26522 8.00062 4.51957 8.10597 4.70711 8.29351C4.89464 8.48104 5 8.7354 5 9.00062V13.0006C5 13.7963 5.31607 14.5593 5.87868 15.1219C6.44129 15.6845 7.20435 16.0006 8 16.0006C8.79565 16.0006 9.55871 15.6845 10.1213 15.1219C10.6839 14.5593 11 13.7963 11 13.0006V9.00062C11 8.7354 11.1054 8.48104 11.2929 8.29351C11.4804 8.10597 11.7348 8.00062 12 8.00062H18C18.2652 8.00062 18.5196 8.10597 18.7071 8.29351C18.8946 8.48104 19 8.7354 19 9.00062V10.0006H19.5C20.4283 10.0006 21.3185 10.3694 21.9749 11.0257C22.6313 11.6821 23 12.5724 23 13.5006ZM21 13.5006C21 13.1028 20.842 12.7213 20.5607 12.44C20.2794 12.1587 19.8978 12.0006 19.5 12.0006H19V18.0006H19.5C19.8978 18.0006 20.2794 17.8426 20.5607 17.5613C20.842 17.28 21 16.8984 21 16.5006V13.5006Z" fill="#374957"/>
</g>
<defs>
<clipPath id="clip0_1178_19774">
<rect width="24" height="24" fill="white"/>
</clipPath>
</defs>
</svg>
