<svg width="24" height="24" viewBox="0 0 24 24" fill="none" xmlns="http://www.w3.org/2000/svg">
<g clip-path="url(#clip0_1178_20053)">
<path d="M11 4.4996C10.9997 3.28199 10.6548 2.08934 10.005 1.0596C11.8189 0.118017 13.8838 -0.226605 15.9051 0.0749057C17.9264 0.376417 19.8009 1.30865 21.261 2.7386C22.1765 3.6567 22.8924 4.75411 23.3638 5.96196C23.8351 7.16982 24.0517 8.46206 24 9.7576C23.9082 12.4418 22.7913 14.9887 20.879 16.8746C20.1055 17.6538 19.2217 18.3152 18.256 18.8376L8.787 9.3726C9.4816 8.76477 10.0383 8.01559 10.42 7.1752C10.8017 6.33481 10.9994 5.42259 11 4.4996V4.4996ZM9 4.4996C9 3.60958 8.73608 2.73955 8.24162 1.99953C7.74715 1.25951 7.04435 0.682734 6.22208 0.342139C5.39981 0.00154505 4.49501 -0.08757 3.6221 0.0860635C2.74918 0.259697 1.94736 0.688281 1.31802 1.31762C0.688685 1.94695 0.260102 2.74878 0.0864683 3.62169C-0.0871652 4.49461 0.00194979 5.39941 0.342544 6.22167C0.683139 7.04394 1.25991 7.74675 1.99994 8.24121C2.73996 8.73568 3.60999 8.9996 4.5 8.9996C5.69307 8.99828 6.83689 8.52374 7.68052 7.68012C8.52415 6.83649 8.99868 5.69267 9 4.4996V4.4996ZM7.059 10.4726C6.25078 10.8206 5.37998 11 4.5 10.9996C4.342 10.9996 4.186 10.9866 4.031 10.9756C4.07969 11.8432 4.24794 12.7 4.531 13.5216C4.67449 14.0282 4.85841 14.5224 5.081 14.9996C5.1324 15.0916 5.1523 15.1979 5.13768 15.3022C5.12306 15.4066 5.07471 15.5033 5 15.5776L1.186 18.2416V18.2556C0.832228 18.5455 0.5439 18.9072 0.340009 19.3166C0.136119 19.7261 0.0212935 20.1741 0.00309693 20.6311C-0.0150997 21.0882 0.0637454 21.5439 0.234439 21.9683C0.405132 22.3926 0.663799 22.776 0.993403 23.0932C1.32301 23.4103 1.71607 23.6541 2.14669 23.8083C2.57731 23.9625 3.03573 24.0238 3.49174 23.988C3.94775 23.9523 4.39101 23.8203 4.79232 23.6008C5.19363 23.3813 5.54388 23.0793 5.82 22.7146L5.83 22.7206L8.4 18.9996C8.47273 18.9161 8.5711 18.8592 8.67968 18.8376C8.78827 18.8161 8.90093 18.8312 9 18.8806C10.3975 19.5979 11.9433 19.9786 13.514 19.9926C14.4341 20.0143 15.3524 19.8997 16.239 19.6526L7.059 10.4726Z" fill="#374957"/>
</g>
<defs>
<clipPath id="clip0_1178_20053">
<rect width="24" height="24" fill="white"/>
</clipPath>
</defs>
</svg>
