<svg width="24" height="24" viewBox="0 0 24 24" fill="none" xmlns="http://www.w3.org/2000/svg">
<g clip-path="url(#clip0_1178_20078)">
<path d="M18.5 5H5.5C4.0418 5.00159 2.64377 5.58156 1.61267 6.61267C0.581561 7.64377 0.00158817 9.0418 0 10.5L0 13.5C0.00158817 14.9582 0.581561 16.3562 1.61267 17.3873C2.64377 18.4184 4.0418 18.9984 5.5 19H18.5C19.9582 18.9984 21.3562 18.4184 22.3873 17.3873C23.4184 16.3562 23.9984 14.9582 24 13.5V10.5C23.9984 9.0418 23.4184 7.64377 22.3873 6.61267C21.3562 5.58156 19.9582 5.00159 18.5 5ZM21 13.5C21 14.163 20.7366 14.7989 20.2678 15.2678C19.7989 15.7366 19.163 16 18.5 16H5.5C4.83696 16 4.20107 15.7366 3.73223 15.2678C3.26339 14.7989 3 14.163 3 13.5V10.5C3 9.83696 3.26339 9.20107 3.73223 8.73223C4.20107 8.26339 4.83696 8 5.5 8H18.5C19.163 8 19.7989 8.26339 20.2678 8.73223C20.7366 9.20107 21 9.83696 21 10.5V13.5Z" fill="#374957"/>
</g>
<defs>
<clipPath id="clip0_1178_20078">
<rect width="24" height="24" fill="white"/>
</clipPath>
</defs>
</svg>
