<svg width="24" height="24" viewBox="0 0 24 24" fill="none" xmlns="http://www.w3.org/2000/svg">
<g clip-path="url(#clip0_1178_20102)">
<path d="M23.7198 22.3088L17.7594 16.3484C21.2558 12.0721 20.6237 5.77112 16.3474 2.27467C12.0711 -1.22178 5.77015 -0.589625 2.27369 3.68664C-1.22276 7.96291 -0.590602 14.2639 3.68566 17.7603C7.36901 20.772 12.6641 20.772 16.3474 17.7603L22.3078 23.7207C22.7045 24.1038 23.3366 24.0929 23.7198 23.6962C24.0935 23.3092 24.0935 22.6958 23.7198 22.3088ZM11.2767 14.6658C10.5486 15.2457 9.5164 15.2457 8.78829 14.6658C7.07777 13.2918 5.03969 11.2317 5.03969 9.23462C4.98865 7.52655 6.32758 6.09836 8.03538 6.03925C8.78135 6.04262 9.49708 6.33461 10.0325 6.85408C10.5679 6.33466 11.2836 6.04262 12.0296 6.03925C13.7374 6.09841 15.0763 7.52659 15.0253 9.23462C15.0253 11.2317 12.9873 13.2918 11.2767 14.6658ZM13.0282 9.23462C13.0282 10.1333 11.8778 11.6212 10.0385 13.109C8.18716 11.6212 7.0368 10.1333 7.0368 9.23462C6.98698 8.62966 7.4313 8.09641 8.03538 8.03636C8.63941 8.09641 9.08379 8.62966 9.03396 9.23462C9.03396 9.78611 9.48101 10.2332 10.0325 10.2332C10.584 10.2332 11.0311 9.78616 11.0311 9.23462C10.9813 8.62966 11.4256 8.09641 12.0297 8.03636C12.6337 8.09641 13.078 8.62966 13.0282 9.23462Z" fill="#374957"/>
</g>
<defs>
<clipPath id="clip0_1178_20102">
<rect width="24" height="24" fill="white"/>
</clipPath>
</defs>
</svg>
