<svg width="24" height="24" viewBox="0 0 24 24" fill="none" xmlns="http://www.w3.org/2000/svg">
<g clip-path="url(#clip0_1178_20047)">
<path d="M22.9998 10.9998C22.7346 10.9998 22.4802 10.8945 22.2927 10.7069C22.1052 10.5194 21.9998 10.265 21.9998 9.99981C21.9977 7.87873 21.1542 5.84512 19.6543 4.34529C18.1545 2.84546 16.1209 2.00192 13.9998 1.99981C13.7346 1.99981 13.4802 1.89445 13.2927 1.70691C13.1052 1.51938 12.9998 1.26502 12.9998 0.999807C12.9998 0.73459 13.1052 0.480236 13.2927 0.2927C13.4802 0.105163 13.7346 -0.000193459 13.9998 -0.000193459C16.6511 0.00271814 19.1929 1.05722 21.0677 2.93195C22.9424 4.80669 23.9969 7.34854 23.9998 9.99981C23.9998 10.265 23.8945 10.5194 23.7069 10.7069C23.5194 10.8945 23.265 10.9998 22.9998 10.9998ZM19.9998 9.99981C19.9998 8.40851 19.3677 6.88239 18.2424 5.75717C17.1172 4.63195 15.5911 3.99981 13.9998 3.99981C13.7346 3.99981 13.4802 4.10516 13.2927 4.2927C13.1052 4.48024 12.9998 4.73459 12.9998 4.99981C12.9998 5.26502 13.1052 5.51938 13.2927 5.70691C13.4802 5.89445 13.7346 5.99981 13.9998 5.99981C15.0607 5.99981 16.0781 6.42123 16.8282 7.17138C17.5784 7.92153 17.9998 8.93894 17.9998 9.99981C17.9998 10.265 18.1052 10.5194 18.2927 10.7069C18.4802 10.8945 18.7346 10.9998 18.9998 10.9998C19.265 10.9998 19.5194 10.8945 19.7069 10.7069C19.8945 10.5194 19.9998 10.265 19.9998 9.99981ZM22.1828 22.1638L23.0928 21.1148C23.672 20.5337 23.9973 19.7468 23.9973 18.9263C23.9973 18.1059 23.672 17.3189 23.0928 16.7378C23.0618 16.7068 20.6558 14.8558 20.6558 14.8558C20.0784 14.3061 19.3113 14.0001 18.5141 14.0012C17.7169 14.0023 16.9507 14.3105 16.3748 14.8618L14.4688 16.4678C12.913 15.8239 11.4997 14.879 10.3101 13.6873C9.12049 12.4957 8.17802 11.0807 7.53681 9.52381L9.13681 7.62381C9.68852 7.04798 9.9971 6.28168 9.99841 5.48421C9.99971 4.68674 9.69364 3.91943 9.14381 3.34181C9.14381 3.34181 7.29081 0.938807 7.25981 0.907807C6.68926 0.333555 5.91569 0.00682856 5.10623 -0.00177868C4.29678 -0.0103859 3.51644 0.299817 2.93381 0.861807L1.78381 1.86181C-5.01019 9.74381 9.61981 24.2608 17.7618 23.9998C18.584 24.0046 19.3988 23.8446 20.1581 23.5292C20.9174 23.2139 21.6059 22.7496 22.1828 22.1638V22.1638Z" fill="#374957"/>
</g>
<defs>
<clipPath id="clip0_1178_20047">
<rect width="24" height="24" fill="white"/>
</clipPath>
</defs>
</svg>
