<svg width="24" height="24" viewBox="0 0 24 24" fill="none" xmlns="http://www.w3.org/2000/svg">
<g clip-path="url(#clip0_1178_19777)">
<path d="M7.42383 21C7.81149 21.8914 8.45106 22.6502 9.26398 23.1831C10.0769 23.716 11.0278 23.9999 11.9998 23.9999C12.9719 23.9999 13.9228 23.716 14.7357 23.1831C15.5486 22.6502 16.1882 21.8914 16.5758 21H7.42383Z" fill="#374957"/>
<path d="M22.3923 12.5497L20.6563 6.82666C20.1004 4.82501 18.8917 3.06644 17.2222 1.83016C15.5526 0.593891 13.518 -0.0492201 11.4412 0.00294028C9.36444 0.0551007 7.36462 0.799543 5.75927 2.11807C4.15391 3.43659 3.03504 5.25362 2.5803 7.28066L1.2323 12.8177C1.05313 13.5534 1.04342 14.3203 1.20391 15.0603C1.36439 15.8004 1.69087 16.4943 2.15872 17.0897C2.62656 17.6852 3.22354 18.1666 3.90461 18.4976C4.58568 18.8287 5.33304 19.0007 6.0903 19.0007H17.6073C18.388 19.0007 19.1579 18.8179 19.8553 18.4669C20.5527 18.1159 21.1582 17.6065 21.6233 16.9794C22.0884 16.3523 22.4003 15.6251 22.5338 14.8558C22.6673 14.0866 22.6189 13.2968 22.3923 12.5497V12.5497Z" fill="#374957"/>
</g>
<defs>
<clipPath id="clip0_1178_19777">
<rect width="24" height="24" fill="white"/>
</clipPath>
</defs>
</svg>
