<svg width="24" height="24" viewBox="0 0 24 24" fill="none" xmlns="http://www.w3.org/2000/svg">
<g clip-path="url(#clip0_1178_20154)">
<path d="M23.7071 5.29243L18.7071 0.292431C18.5185 0.110273 18.2659 0.00947813 18.0037 0.0117566C17.7415 0.014035 17.4907 0.119204 17.3053 0.304612C17.1199 0.49002 17.0147 0.740833 17.0124 1.00303C17.0101 1.26523 17.1109 1.51783 17.2931 1.70643L19.0861 3.49943L16.6111 5.97443C15.8222 5.39945 14.8823 5.06797 13.9072 5.02088C12.9322 4.97379 11.9647 5.21315 11.1241 5.70943L13.7071 8.29243C13.8026 8.38468 13.8788 8.49502 13.9312 8.61703C13.9836 8.73903 14.0112 8.87025 14.0123 9.00303C14.0135 9.13581 13.9882 9.26749 13.9379 9.39038C13.8876 9.51328 13.8134 9.62493 13.7195 9.71883C13.6256 9.81272 13.5139 9.88697 13.391 9.93725C13.2681 9.98753 13.1365 10.0128 13.0037 10.0117C12.8709 10.0105 12.7397 9.98294 12.6177 9.93053C12.4957 9.87812 12.3853 9.80194 12.2931 9.70643L9.58608 6.99943L8.00008 8.58543L10.7071 11.2924C10.8026 11.3847 10.8788 11.495 10.9312 11.617C10.9836 11.739 11.0112 11.8703 11.0123 12.003C11.0135 12.1358 10.9882 12.2675 10.9379 12.3904C10.8876 12.5133 10.8134 12.6249 10.7195 12.7188C10.6256 12.8127 10.5139 12.887 10.391 12.9373C10.2681 12.9875 10.1365 13.0128 10.0037 13.0117C9.8709 13.0105 9.73968 12.9829 9.61768 12.9305C9.49567 12.8781 9.38533 12.8019 9.29308 12.7064L6.58608 9.99943L5.00008 11.5874L7.70508 14.2924C7.80059 14.3847 7.87677 14.495 7.92918 14.617C7.98159 14.739 8.00918 14.8703 8.01033 15.003C8.01148 15.1358 7.98618 15.2675 7.9359 15.3904C7.88562 15.5133 7.81137 15.6249 7.71748 15.7188C7.62358 15.8127 7.51193 15.887 7.38904 15.9373C7.26614 15.9875 7.13446 16.0128 7.00168 16.0117C6.8689 16.0105 6.73768 15.9829 6.61568 15.9305C6.49367 15.8781 6.38333 15.8019 6.29108 15.7064L3.80608 13.2194C3.27468 14.2256 2.99794 15.3466 3.00008 16.4844V19.5844L0.293081 22.2924C0.197571 22.3847 0.121389 22.495 0.0689798 22.617C0.0165708 22.739 -0.0110155 22.8702 -0.0121693 23.003C-0.0133231 23.1358 0.0119786 23.2675 0.0622595 23.3904C0.11254 23.5133 0.186793 23.6249 0.280686 23.7188C0.374579 23.8127 0.486231 23.887 0.609127 23.9373C0.732024 23.9875 0.863703 24.0128 0.996482 24.0117C1.12926 24.0105 1.26048 23.9829 1.38249 23.9305C1.50449 23.8781 1.61483 23.8019 1.70708 23.7064L4.41408 20.9994H7.51408C8.43356 21.0019 9.3444 20.822 10.1939 20.4701C11.0434 20.1182 11.8147 19.6014 12.4631 18.9494L17.5351 13.8774C18.375 13.0327 18.8852 11.9155 18.9736 10.7275C19.062 9.53958 18.7227 8.35918 18.0171 7.39943L20.5001 4.91343L22.2931 6.70643C22.4817 6.88859 22.7343 6.98938 22.9965 6.9871C23.2587 6.98483 23.5095 6.87966 23.6949 6.69425C23.8803 6.50884 23.9855 6.25803 23.9878 5.99583C23.99 5.73364 23.8892 5.48103 23.7071 5.29243V5.29243Z" fill="#374957"/>
</g>
<defs>
<clipPath id="clip0_1178_20154">
<rect width="24" height="24" fill="white"/>
</clipPath>
</defs>
</svg>
