<svg width="24" height="24" viewBox="0 0 24 24" fill="none" xmlns="http://www.w3.org/2000/svg">
<g clip-path="url(#clip0_1178_20026)">
<path d="M19 4H5C3.6744 4.00159 2.40356 4.52888 1.46622 5.46622C0.528882 6.40356 0.00158786 7.6744 0 9L0 15C0.00158786 16.3256 0.528882 17.5964 1.46622 18.5338C2.40356 19.4711 3.6744 19.9984 5 20H19C20.3256 19.9984 21.5964 19.4711 22.5338 18.5338C23.4711 17.5964 23.9984 16.3256 24 15V9C23.9984 7.6744 23.4711 6.40356 22.5338 5.46622C21.5964 4.52888 20.3256 4.00159 19 4V4ZM4 17C3.80222 17 3.60888 16.9414 3.44443 16.8315C3.27998 16.7216 3.15181 16.5654 3.07612 16.3827C3.00043 16.2 2.98063 15.9989 3.01921 15.8049C3.0578 15.6109 3.15304 15.4327 3.29289 15.2929C3.43275 15.153 3.61093 15.0578 3.80491 15.0192C3.99889 14.9806 4.19996 15.0004 4.38268 15.0761C4.56541 15.1518 4.72159 15.28 4.83147 15.4444C4.94135 15.6089 5 15.8022 5 16C5 16.2652 4.89464 16.5196 4.70711 16.7071C4.51957 16.8946 4.26522 17 4 17ZM4 9C3.80222 9 3.60888 8.94135 3.44443 8.83147C3.27998 8.72159 3.15181 8.56541 3.07612 8.38268C3.00043 8.19996 2.98063 7.99889 3.01921 7.80491C3.0578 7.61093 3.15304 7.43275 3.29289 7.29289C3.43275 7.15304 3.61093 7.0578 3.80491 7.01921C3.99889 6.98063 4.19996 7.00043 4.38268 7.07612C4.56541 7.15181 4.72159 7.27998 4.83147 7.44443C4.94135 7.60888 5 7.80222 5 8C5 8.26522 4.89464 8.51957 4.70711 8.70711C4.51957 8.89464 4.26522 9 4 9ZM12 16C11.2089 16 10.4355 15.7654 9.77772 15.3259C9.11992 14.8864 8.60723 14.2616 8.30448 13.5307C8.00173 12.7998 7.92252 11.9956 8.07686 11.2196C8.2312 10.4437 8.61216 9.73098 9.17157 9.17157C9.73098 8.61216 10.4437 8.2312 11.2196 8.07686C11.9956 7.92252 12.7998 8.00173 13.5307 8.30448C14.2616 8.60723 14.8864 9.11992 15.3259 9.77772C15.7654 10.4355 16 11.2089 16 12C16 13.0609 15.5786 14.0783 14.8284 14.8284C14.0783 15.5786 13.0609 16 12 16ZM20 17C19.8022 17 19.6089 16.9414 19.4444 16.8315C19.28 16.7216 19.1518 16.5654 19.0761 16.3827C19.0004 16.2 18.9806 15.9989 19.0192 15.8049C19.0578 15.6109 19.153 15.4327 19.2929 15.2929C19.4327 15.153 19.6109 15.0578 19.8049 15.0192C19.9989 14.9806 20.2 15.0004 20.3827 15.0761C20.5654 15.1518 20.7216 15.28 20.8315 15.4444C20.9414 15.6089 21 15.8022 21 16C21 16.2652 20.8946 16.5196 20.7071 16.7071C20.5196 16.8946 20.2652 17 20 17ZM20 9C19.8022 9 19.6089 8.94135 19.4444 8.83147C19.28 8.72159 19.1518 8.56541 19.0761 8.38268C19.0004 8.19996 18.9806 7.99889 19.0192 7.80491C19.0578 7.61093 19.153 7.43275 19.2929 7.29289C19.4327 7.15304 19.6109 7.0578 19.8049 7.01921C19.9989 6.98063 20.2 7.00043 20.3827 7.07612C20.5654 7.15181 20.7216 7.27998 20.8315 7.44443C20.9414 7.60888 21 7.80222 21 8C21 8.26522 20.8946 8.51957 20.7071 8.70711C20.5196 8.89464 20.2652 9 20 9ZM14 12C14 12.3956 13.8827 12.7822 13.6629 13.1111C13.4432 13.44 13.1308 13.6964 12.7654 13.8478C12.3999 13.9991 11.9978 14.0387 11.6098 13.9616C11.2219 13.8844 10.8655 13.6939 10.5858 13.4142C10.3061 13.1345 10.1156 12.7781 10.0384 12.3902C9.96126 12.0022 10.0009 11.6001 10.1522 11.2346C10.3036 10.8692 10.56 10.5568 10.8889 10.3371C11.2178 10.1173 11.6044 10 12 10C12.5304 10 13.0391 10.2107 13.4142 10.5858C13.7893 10.9609 14 11.4696 14 12Z" fill="#374957"/>
</g>
<defs>
<clipPath id="clip0_1178_20026">
<rect width="24" height="24" fill="white"/>
</clipPath>
</defs>
</svg>
