<svg width="24" height="24" viewBox="0 0 24 24" fill="none" xmlns="http://www.w3.org/2000/svg">
<g clip-path="url(#clip0_1178_20044)">
<path d="M8.16363 7.99933C7.58421 7.9911 7.02581 7.78103 6.58463 7.40533C5.66341 6.56062 5.10534 5.39179 5.02763 4.14433C4.78463 1.65033 6.14463 0.180333 7.61363 0.0163329C7.96759 -0.0231408 8.32587 0.00911342 8.66709 0.11117C9.00831 0.213227 9.32547 0.382993 9.59963 0.610333C10.0089 0.979096 10.3412 1.42517 10.5773 1.92288C10.8135 2.42059 10.9488 2.96009 10.9756 3.51033C11.1996 5.83333 9.96162 7.99933 8.16363 7.99933ZM2.85263 13.9993C2.32051 13.9872 1.81248 13.7751 1.42964 13.4053C0.583129 12.524 0.0856094 11.3651 0.0296369 10.1443C-0.190363 7.65033 1.03564 6.18033 2.36063 6.01633C2.68362 5.97943 3.01077 6.01347 3.31924 6.11606C3.62772 6.21866 3.91008 6.38734 4.14663 6.61033C4.90741 7.38846 5.35002 8.42275 5.38763 9.51033C5.58863 11.8333 4.35863 13.9993 2.85263 13.9993ZM15.8356 7.99933C14.0256 7.99933 12.8016 5.83333 13.0286 3.50733C13.0554 2.95709 13.1908 2.41759 13.4269 1.91988C13.6631 1.42217 13.9954 0.976096 14.4046 0.607333C14.6785 0.381307 14.9949 0.212539 15.3352 0.111023C15.6755 0.0095067 16.0327 -0.0226922 16.3856 0.0163329C17.8546 0.180333 19.2146 1.65033 18.9716 4.14433C18.8939 5.39207 18.3358 6.56118 17.4146 7.40633C16.9731 7.78138 16.4148 7.99104 15.8356 7.99933V7.99933ZM21.0526 13.9993C19.1666 13.9993 18.2256 11.8333 18.4376 9.50733C18.4797 8.41279 18.9378 7.37556 19.7186 6.60733C19.9663 6.38268 20.2591 6.21348 20.5775 6.11104C20.8958 6.00861 21.2324 5.97529 21.5646 6.01333C22.9326 6.17733 24.1996 7.64733 23.9736 10.1413C23.9101 11.3707 23.3931 12.5329 22.5226 13.4033C22.1222 13.7754 21.5991 13.9875 21.0526 13.9993V13.9993ZM15.9996 23.9993C15.145 24.0161 14.301 23.8075 13.5526 23.3943C13.0738 23.1421 12.5408 23.0103 11.9996 23.0103C11.4584 23.0103 10.9254 23.1421 10.4466 23.3943C7.43363 25.0813 3.92163 23.2263 3.99963 18.9993C3.99963 14.3633 8.50663 9.99933 11.9996 9.99933C15.4926 9.99933 19.9996 14.3633 19.9996 18.9993C19.9996 21.9433 18.3546 23.9993 15.9996 23.9993Z" fill="#374957"/>
</g>
<defs>
<clipPath id="clip0_1178_20044">
<rect width="24" height="24" fill="white"/>
</clipPath>
</defs>
</svg>
