<svg width="24" height="24" viewBox="0 0 24 24" fill="none" xmlns="http://www.w3.org/2000/svg">
<g clip-path="url(#clip0_1178_19985)">
<path d="M22.485 10.9745L12 17.2665L1.515 10.9745C1.28758 10.8381 1.01526 10.7976 0.757962 10.8619C0.500662 10.9262 0.279453 11.0901 0.143 11.3175C0.00654566 11.545 -0.0339759 11.8173 0.030349 12.0746C0.094674 12.3319 0.258576 12.5531 0.486 12.6895L11.486 19.2895C11.6415 19.383 11.8196 19.4324 12.001 19.4324C12.1824 19.4324 12.3605 19.383 12.516 19.2895L23.516 12.6895C23.7434 12.5531 23.9073 12.3319 23.9717 12.0746C24.036 11.8173 23.9955 11.545 23.859 11.3175C23.7225 11.0901 23.5013 10.9262 23.244 10.8619C22.9867 10.7976 22.7144 10.8381 22.487 10.9745H22.485Z" fill="#374957"/>
<path d="M22.485 15.5429L12 21.8339L1.515 15.5429C1.40239 15.4753 1.27757 15.4306 1.14768 15.4113C1.01779 15.392 0.885361 15.3984 0.757959 15.4303C0.630557 15.4621 0.510676 15.5187 0.405161 15.5969C0.299645 15.6751 0.210562 15.7733 0.142997 15.8859C0.0754315 15.9985 0.0307078 16.1233 0.0113792 16.2532C-0.00794938 16.3831 -0.00150444 16.5155 0.0303461 16.6429C0.094671 16.9002 0.258573 17.1215 0.485997 17.2579L11.486 23.8579C11.6415 23.9514 11.8196 24.0007 12.001 24.0007C12.1824 24.0007 12.3605 23.9514 12.516 23.8579L23.516 17.2579C23.7434 17.1215 23.9073 16.9002 23.9717 16.6429C24.036 16.3856 23.9955 16.1133 23.859 15.8859C23.7225 15.6585 23.5013 15.4946 23.244 15.4303C22.9867 15.3659 22.7144 15.4064 22.487 15.5429H22.485Z" fill="#374957"/>
<path d="M0.484684 8.35803L10.4687 14.349C10.9309 14.6271 11.4602 14.7741 11.9997 14.7741C12.5391 14.7741 13.0684 14.6271 13.5307 14.349L23.5147 8.35803C23.6625 8.26913 23.7849 8.14349 23.8698 7.99332C23.9547 7.84315 23.9994 7.67356 23.9994 7.50103C23.9994 7.32851 23.9547 7.15892 23.8698 7.00875C23.7849 6.85858 23.6625 6.73294 23.5147 6.64403L13.5307 0.653032C13.0683 0.375261 12.5391 0.228516 11.9997 0.228516C11.4603 0.228516 10.9311 0.375261 10.4687 0.653032L0.484684 6.64403C0.336831 6.73294 0.214494 6.85858 0.129564 7.00875C0.0446343 7.15892 0 7.32851 0 7.50103C0 7.67356 0.0446343 7.84315 0.129564 7.99332C0.214494 8.14349 0.336831 8.26913 0.484684 8.35803V8.35803Z" fill="#374957"/>
</g>
<defs>
<clipPath id="clip0_1178_19985">
<rect width="24" height="24" fill="white"/>
</clipPath>
</defs>
</svg>
