<svg width="24" height="24" viewBox="0 0 24 24" fill="none" xmlns="http://www.w3.org/2000/svg">
<g clip-path="url(#clip0_1178_19841)">
<path d="M12.8361 0.0273152C11.1217 -0.0926437 9.40148 0.157061 7.7919 0.759532C6.18233 1.362 4.72095 2.30319 3.50664 3.51939C2.29233 4.73559 1.35343 6.19845 0.75347 7.80896C0.153511 9.41947 -0.093509 11.1401 0.0291251 12.8543C0.470125 19.2073 6.08213 23.9993 13.0831 23.9993H19.0001C20.3257 23.9977 21.5966 23.4704 22.5339 22.5331C23.4712 21.5958 23.9985 20.3249 24.0001 18.9993V12.3393C24.0374 9.25676 22.9072 6.27421 20.8364 3.99049C18.7657 1.70676 15.9076 0.290953 12.8361 0.0273152V0.0273152ZM18.7001 9.71132L11.9071 16.4183C11.5323 16.7917 11.0247 17.0014 10.4956 17.0014C9.96652 17.0014 9.45898 16.7917 9.08413 16.4183L5.30013 12.7143C5.1105 12.5287 5.00238 12.2753 4.99957 12.0099C4.99676 11.7446 5.09947 11.4889 5.28513 11.2993C5.47078 11.1097 5.72415 11.0016 5.98952 10.9988C6.25488 10.9959 6.5105 11.0987 6.70013 11.2843L10.4931 14.9913L17.2991 8.29132C17.4911 8.12244 17.7404 8.03349 17.9959 8.04273C18.2513 8.05197 18.4936 8.1587 18.6728 8.341C18.852 8.5233 18.9546 8.76732 18.9595 9.02292C18.9644 9.27852 18.8712 9.52629 18.6991 9.71532L18.7001 9.71132Z" fill="#374957"/>
</g>
<defs>
<clipPath id="clip0_1178_19841">
<rect width="24" height="24" fill="white"/>
</clipPath>
</defs>
</svg>
