<svg width="24" height="24" viewBox="0 0 24 24" fill="none" xmlns="http://www.w3.org/2000/svg">
<g clip-path="url(#clip0_1178_20195)">
<path d="M15 18H4C2.93913 18 1.92172 17.5786 1.17157 16.8284C0.421427 16.0783 0 15.0609 0 14V6C0 4.67392 0.526784 3.40215 1.46447 2.46447C2.40215 1.52678 3.67392 1 5 1H10C10.6566 1 11.3068 1.12933 11.9134 1.3806C12.52 1.63188 13.0712 2.00017 13.5355 2.46447C13.9998 2.92876 14.3681 3.47995 14.6194 4.08658C14.8707 4.69321 15 5.34339 15 6V18ZM24 11V10C24 9.34339 23.8707 8.69321 23.6194 8.08658C23.3681 7.47996 22.9998 6.92876 22.5355 6.46447C22.0712 6.00017 21.52 5.63188 20.9134 5.3806C20.3068 5.12933 19.6566 5 19 5H17V11H24ZM17 13V18H20C21.0609 18 22.0783 17.5786 22.8284 16.8284C23.5786 16.0783 24 15.0609 24 14V13H17ZM4.058 20C4.02137 20.1642 4.00193 20.3318 4 20.5C4 21.163 4.26339 21.7989 4.73223 22.2678C5.20107 22.7366 5.83696 23 6.5 23C7.16304 23 7.79893 22.7366 8.26777 22.2678C8.73661 21.7989 9 21.163 9 20.5C8.99807 20.3318 8.97863 20.1642 8.942 20H4.058ZM15.058 20C15.0214 20.1642 15.0019 20.3318 15 20.5C15 21.163 15.2634 21.7989 15.7322 22.2678C16.2011 22.7366 16.837 23 17.5 23C18.163 23 18.7989 22.7366 19.2678 22.2678C19.7366 21.7989 20 21.163 20 20.5C19.9981 20.3318 19.9786 20.1642 19.942 20H15.058Z" fill="#374957"/>
</g>
<defs>
<clipPath id="clip0_1178_20195">
<rect width="24" height="24" fill="white"/>
</clipPath>
</defs>
</svg>
