<svg width="24" height="24" viewBox="0 0 24 24" fill="none" xmlns="http://www.w3.org/2000/svg">
<path d="M17.9209 1.50459C17.9206 1.90228 17.7623 2.28355 17.4809 2.56459L9.80895 10.2366C9.57673 10.4687 9.39252 10.7444 9.26684 11.0477C9.14117 11.3511 9.07648 11.6762 9.07648 12.0046C9.07648 12.3329 9.14117 12.6581 9.26684 12.9614C9.39252 13.2648 9.57673 13.5404 9.80895 13.7726L17.4709 21.4346C17.7442 21.7175 17.8954 22.0964 17.892 22.4897C17.8885 22.883 17.7308 23.2592 17.4527 23.5373C17.1746 23.8154 16.7983 23.9732 16.405 23.9766C16.0118 23.98 15.6329 23.8288 15.3499 23.5556L7.68795 15.8996C6.65771 14.8673 6.0791 13.4685 6.0791 12.0101C6.0791 10.5517 6.65771 9.15285 7.68795 8.12059L15.3599 0.443587C15.5697 0.233671 15.8371 0.0907003 16.1281 0.0327662C16.4192 -0.0251679 16.7209 0.00453824 16.9951 0.118126C17.2692 0.231713 17.5036 0.424077 17.6684 0.670876C17.8332 0.917674 17.9211 1.20782 17.9209 1.50459V1.50459Z" fill="#374957"/>
</svg>
