<svg width="24" height="24" viewBox="0 0 24 24" fill="none" xmlns="http://www.w3.org/2000/svg">
<g clip-path="url(#clip0_1178_20171)">
<path d="M22.7073 22.7083C22.3173 23.0983 21.6833 23.0983 21.2933 22.7083L19.8793 21.2943L18.4643 22.7083C18.0803 23.1053 17.4473 23.1163 17.0503 22.7333C16.6533 22.3493 16.6423 21.7163 17.0253 21.3193C17.0333 21.3113 17.0413 21.3023 17.0503 21.2943L18.4643 19.8803L17.0503 18.4653C16.6533 18.0813 16.6423 17.4482 17.0253 17.0512C17.4093 16.6542 18.0423 16.6432 18.4393 17.0262C18.4473 17.0342 18.4563 17.0422 18.4643 17.0512L19.8793 18.4653L21.2933 17.0512C21.6773 16.6542 22.3103 16.6432 22.7073 17.0262C23.1043 17.4102 23.1153 18.0432 22.7323 18.4402C22.7243 18.4482 22.7163 18.4573 22.7073 18.4653L21.2933 19.8803L22.7073 21.2943C23.0993 21.6833 23.1043 22.3133 22.7153 22.7053C22.7133 22.7073 22.7123 22.7093 22.7073 22.7083Z" fill="#374957"/>
<path d="M14.035 20.0145C14.031 16.7175 16.7 14.0415 19.996 14.0365C21.279 14.0345 22.529 14.4465 23.559 15.2115C25.332 8.82655 21.593 2.21355 15.209 0.440545C8.82499 -1.33245 2.21299 2.40555 0.439986 8.79055C-1.33301 15.1755 2.40599 21.7895 8.78999 23.5625C10.89 24.1455 13.109 24.1455 15.209 23.5625C14.447 22.5365 14.035 21.2925 14.035 20.0145ZM13 12.0215C13 12.2875 12.894 12.5415 12.706 12.7295L9.70099 15.7355C9.30299 16.1195 8.66899 16.1085 8.28499 15.7105C7.90999 15.3225 7.90999 14.7065 8.28499 14.3185L10.997 11.6065V7.01255C10.997 6.45955 11.445 6.01055 11.999 6.01055C12.552 6.01055 13 6.45955 13 7.01255V12.0215Z" fill="#374957"/>
</g>
<defs>
<clipPath id="clip0_1178_20171">
<rect width="24" height="24" fill="white"/>
</clipPath>
</defs>
</svg>
