<svg width="24" height="24" viewBox="0 0 24 24" fill="none" xmlns="http://www.w3.org/2000/svg">
<path d="M16 13C15.5343 13.621 14.9303 14.125 14.2361 14.4721C13.5418 14.8193 12.7762 15 12 15C11.2238 15 10.4582 14.8193 9.76393 14.4721C9.06966 14.125 8.46574 13.621 8 13C7.60803 13.5284 7.11479 13.9734 6.54903 14.3092C5.98328 14.6449 5.35634 14.8647 4.70477 14.9556C4.0532 15.0466 3.39005 15.0069 2.75398 14.8388C2.11791 14.6708 1.52166 14.3778 1 13.977V19C1.00159 20.3256 1.52888 21.5964 2.46622 22.5338C3.40356 23.4711 4.6744 23.9984 6 24H18C19.3256 23.9984 20.5964 23.4711 21.5338 22.5338C22.4711 21.5964 22.9984 20.3256 23 19V13.974C22.4785 14.375 21.8824 14.6682 21.2465 14.8364C20.6105 15.0047 19.9474 15.0446 19.2959 14.954C18.6443 14.8633 18.0173 14.6439 17.4515 14.3084C16.8856 13.9729 16.3922 13.5281 16 13V13Z" fill="#374957"/>
<path d="M21.7 3.13107C21.5064 2.24016 21.0125 1.44287 20.301 0.872829C19.5895 0.302789 18.7037 -0.00534718 17.792 7.02328e-05H17V3.00007C17 3.26529 16.8946 3.51964 16.7071 3.70718C16.5196 3.89471 16.2652 4.00007 16 4.00007C15.7348 4.00007 15.4804 3.89471 15.2929 3.70718C15.1054 3.51964 15 3.26529 15 3.00007V7.02328e-05H9V3.00007C9 3.26529 8.89464 3.51964 8.70711 3.70718C8.51957 3.89471 8.26522 4.00007 8 4.00007C7.73478 4.00007 7.48043 3.89471 7.29289 3.70718C7.10536 3.51964 7 3.26529 7 3.00007V7.02328e-05H6.208C5.29619 -0.00529826 4.41025 0.30298 3.69872 0.873217C2.9872 1.44345 2.49336 2.24098 2.3 3.13207L1.022 8.90007L1 10.0201C1.00131 10.414 1.08021 10.8039 1.23219 11.1674C1.38417 11.5308 1.60625 11.8608 1.88575 12.1385C2.45024 12.6992 3.21435 13.0127 4.01 13.0101C4.40397 13.0088 4.79381 12.9299 5.15729 12.7779C5.52076 12.6259 5.85074 12.4038 6.12839 12.1243C6.40604 11.8448 6.62591 11.5134 6.77547 11.1489C6.92502 10.7844 7.00131 10.394 7 10.0001C7 9.73485 7.10536 9.4805 7.29289 9.29296C7.48043 9.10543 7.73478 9.00007 8 9.00007C8.26522 9.00007 8.51957 9.10543 8.70711 9.29296C8.89464 9.4805 9 9.73485 9 10.0001C9 10.7957 9.31607 11.5588 9.87868 12.1214C10.4413 12.684 11.2044 13.0001 12 13.0001C12.7956 13.0001 13.5587 12.684 14.1213 12.1214C14.6839 11.5588 15 10.7957 15 10.0001C15 9.73485 15.1054 9.4805 15.2929 9.29296C15.4804 9.10543 15.7348 9.00007 16 9.00007C16.2652 9.00007 16.5196 9.10543 16.7071 9.29296C16.8946 9.4805 17 9.73485 17 10.0001C17 10.7957 17.3161 11.5588 17.8787 12.1214C18.4413 12.684 19.2044 13.0001 20 13.0001C20.7956 13.0001 21.5587 12.684 22.1213 12.1214C22.6839 11.5588 23 10.7957 23 10.0001V9.10707L21.7 3.13107Z" fill="#374957"/>
</svg>
