<svg width="24" height="24" viewBox="0 0 24 24" fill="none" xmlns="http://www.w3.org/2000/svg">
<g clip-path="url(#clip0_1178_19949)">
<path d="M14 11.0012C13.8022 11.0011 13.6089 10.9425 13.4445 10.8326C13.2801 10.7227 13.152 10.5665 13.0763 10.3838C13.0006 10.2011 12.9808 10.0001 13.0194 9.80616C13.058 9.6122 13.1532 9.43404 13.293 9.29419L16.259 6.32819C15.1612 5.43665 13.7794 4.96956 12.3658 5.01215C10.9523 5.05474 9.60113 5.60417 8.559 6.56019C8.39923 6.71916 8.25055 6.88889 8.114 7.06819C7.93491 7.32637 7.70445 7.54481 7.43706 7.70983C7.16966 7.87484 6.87107 7.98288 6.56 8.02719C4.8634 8.142 3.26537 8.86573 2.06 10.0652C-0.896004 13.0222 -0.640004 18.0902 2.635 21.3652C4.26505 23.0264 6.48679 23.9742 8.814 24.0012C9.7615 24.0138 10.7021 23.8383 11.5813 23.4849C12.4605 23.1314 13.2608 22.6071 13.936 21.9422C15.1354 20.7368 15.8592 19.1388 15.974 17.4422C16.0183 17.1311 16.1263 16.8325 16.2914 16.5651C16.4564 16.2977 16.6748 16.0673 16.933 15.8882C17.1123 15.7516 17.282 15.603 17.441 15.4432C18.3959 14.4005 18.9445 13.0495 18.9871 11.6363C19.0297 10.223 18.5634 8.84151 17.673 7.74319L14.707 10.7092C14.5193 10.8964 14.265 11.0014 14 11.0012ZM7.707 19.7082C7.51947 19.8957 7.26516 20.001 7 20.001C6.73483 20.001 6.48052 19.8957 6.293 19.7082L4.293 17.7082C4.11084 17.5196 4.01004 17.267 4.01232 17.0048C4.0146 16.7426 4.11977 16.4918 4.30518 16.3064C4.49059 16.121 4.7414 16.0158 5.00359 16.0135C5.26579 16.0112 5.51839 16.112 5.707 16.2942L7.707 18.2942C7.89447 18.4817 7.99978 18.736 7.99978 19.0012C7.99978 19.2664 7.89447 19.5207 7.707 19.7082ZM10 17.0012C9.40665 17.0012 8.82663 16.8252 8.33329 16.4956C7.83994 16.166 7.45542 15.6974 7.22836 15.1492C7.00129 14.6011 6.94188 13.9979 7.05764 13.4159C7.1734 12.834 7.45912 12.2994 7.87868 11.8799C8.29823 11.4603 8.83278 11.1746 9.41473 11.0588C9.99667 10.9431 10.5999 11.0025 11.148 11.2295C11.6962 11.4566 12.1648 11.8411 12.4944 12.3345C12.824 12.8278 13 13.4078 13 14.0012C13 14.7968 12.6839 15.5599 12.1213 16.1225C11.5587 16.6851 10.7956 17.0012 10 17.0012V17.0012ZM11 14.0012C11 14.199 10.9413 14.3923 10.8315 14.5568C10.7216 14.7212 10.5654 14.8494 10.3827 14.9251C10.2 15.0008 9.99889 15.0206 9.80491 14.982C9.61092 14.9434 9.43274 14.8481 9.29289 14.7083C9.15304 14.5684 9.0578 14.3903 9.01921 14.1963C8.98063 14.0023 9.00043 13.8012 9.07612 13.6185C9.1518 13.4358 9.27998 13.2796 9.44443 13.1697C9.60887 13.0598 9.80221 13.0012 10 13.0012C10.2652 13.0012 10.5196 13.1065 10.7071 13.2941C10.8946 13.4816 11 13.736 11 14.0012ZM23.482 3.01919L23.268 3.23319C22.5397 3.95943 21.6378 4.48747 20.648 4.76719L17.673 7.74219C17.4785 7.46924 17.2639 7.21119 17.031 6.97019C16.79 6.73728 16.5319 6.52269 16.259 6.32819L19.234 3.35319C19.5137 2.3634 20.0418 1.46153 20.768 0.733187L20.982 0.519187C21.3153 0.196507 21.7621 0.0177764 22.2261 0.0215427C22.69 0.025309 23.1338 0.211271 23.4619 0.53932C23.7899 0.867368 23.9759 1.31122 23.9796 1.77513C23.9834 2.23905 23.8047 2.68585 23.482 3.01919Z" fill="#374957"/>
</g>
<defs>
<clipPath id="clip0_1178_19949">
<rect width="24" height="24" fill="white"/>
</clipPath>
</defs>
</svg>
