<svg width="24" height="24" viewBox="0 0 24 24" fill="none" xmlns="http://www.w3.org/2000/svg">
<g clip-path="url(#clip0_1178_19888)">
<path d="M4 7.93786V3.17286C4 1.97286 4.634 0.00585938 7.673 0.00585938C8.06903 0.00995683 8.4643 0.0413647 8.856 0.0998594C9.47301 0.27935 10.0153 0.653796 10.4018 1.16718C10.7883 1.68056 10.9981 2.30527 11 2.94786V10.8729C11.6559 11.0422 12.3441 11.0422 13 10.8729V2.94786C13.0019 2.30527 13.2117 1.68056 13.5982 1.16718C13.9847 0.653796 14.527 0.27935 15.144 0.0998594C15.5358 0.0427036 15.9311 0.0126322 16.327 0.00985937C19.366 0.00585937 20 1.97286 20 3.17286V7.93786C19.9976 8.8062 19.7136 9.65033 19.1907 10.3436C18.6678 11.0369 17.9342 11.5419 17.1 11.7829L13.649 12.7699C12.5705 13.0773 11.4275 13.0773 10.349 12.7699L6.9 11.7829C6.06577 11.5419 5.33218 11.0369 4.8093 10.3436C4.28642 9.65033 4.00245 8.8062 4 7.93786V7.93786ZM22 4.02586V7.93786C21.9961 9.2408 21.5697 10.5073 20.7848 11.5473C19.9999 12.5874 18.8989 13.3448 17.647 13.7059L14.198 14.6919C12.762 15.102 11.24 15.102 9.804 14.6919L6.352 13.7049C5.10053 13.3435 3.99994 12.5861 3.21529 11.5463C2.43065 10.5066 2.00423 9.24046 2 7.93786V4.02586C1.38121 4.48772 0.878367 5.08722 0.531247 5.77695C0.184127 6.46668 0.00224946 7.22771 0 7.99986L0 14.9999C0.00158786 16.3255 0.528882 17.5963 1.46622 18.5336C2.40356 19.471 3.6744 19.9983 5 19.9999H11V21.9999H8C7.73478 21.9999 7.48043 22.1052 7.29289 22.2928C7.10536 22.4803 7 22.7346 7 22.9999C7 23.2651 7.10536 23.5194 7.29289 23.707C7.48043 23.8945 7.73478 23.9999 8 23.9999H16C16.2652 23.9999 16.5196 23.8945 16.7071 23.707C16.8946 23.5194 17 23.2651 17 22.9999C17 22.7346 16.8946 22.4803 16.7071 22.2928C16.5196 22.1052 16.2652 21.9999 16 21.9999H13V19.9999H19C20.3256 19.9983 21.5964 19.471 22.5338 18.5336C23.4711 17.5963 23.9984 16.3255 24 14.9999V7.99986C23.9978 7.22771 23.8159 6.46668 23.4688 5.77695C23.1216 5.08722 22.6188 4.48772 22 4.02586V4.02586Z" fill="#374957"/>
</g>
<defs>
<clipPath id="clip0_1178_19888">
<rect width="24" height="24" fill="white"/>
</clipPath>
</defs>
</svg>
