<svg width="24" height="24" viewBox="0 0 24 24" fill="none" xmlns="http://www.w3.org/2000/svg">
<g clip-path="url(#clip0_1178_20209)">
<path d="M21 16.001V12.001C20.9997 10.6575 20.698 9.33123 20.1172 8.11978C19.5364 6.90833 18.6912 5.84258 17.644 5.00102H20.277C20.4986 5.37863 20.8385 5.67266 21.2441 5.8376C21.6497 6.00254 22.0983 6.02918 22.5206 5.9134C22.9429 5.79763 23.3152 5.54589 23.5799 5.19716C23.8447 4.84842 23.9871 4.42215 23.9851 3.98431C23.9831 3.54647 23.8369 3.1215 23.569 2.77516C23.3011 2.42883 22.9266 2.18045 22.5033 2.06848C22.08 1.95651 21.6316 1.98718 21.2275 2.15577C20.8235 2.32435 20.4862 2.62142 20.268 3.00102H15.858C15.6397 2.14343 15.1419 1.38302 14.4433 0.83991C13.7446 0.296799 12.8849 0.00195313 12 0.00195312C11.1151 0.00195313 10.2554 0.296799 9.55672 0.83991C8.85806 1.38302 8.36027 2.14343 8.142 3.00102H3.723C3.50139 2.6234 3.16148 2.32937 2.75589 2.16443C2.3503 1.9995 1.90166 1.97286 1.4794 2.08863C1.05714 2.20441 0.684827 2.45615 0.42008 2.80488C0.155333 3.15361 0.0129225 3.57989 0.0148928 4.01772C0.0168631 4.45556 0.163104 4.88054 0.430979 5.22687C0.698853 5.57321 1.07342 5.82159 1.4967 5.93356C1.91999 6.04553 2.36837 6.01485 2.77246 5.84627C3.17655 5.67769 3.51379 5.38061 3.732 5.00102H6.356C5.30876 5.84258 4.46362 6.90833 3.88281 8.11978C3.30201 9.33123 3.00033 10.6575 3 12.001V16.001C2.20435 16.001 1.44129 16.3171 0.87868 16.8797C0.31607 17.4423 0 18.2054 0 19.001L0 21.001C0 21.7967 0.31607 22.5597 0.87868 23.1223C1.44129 23.6849 2.20435 24.001 3 24.001H5C5.79565 24.001 6.55871 23.6849 7.12132 23.1223C7.68393 22.5597 8 21.7967 8 21.001V19.001C8 18.2054 7.68393 17.4423 7.12132 16.8797C6.55871 16.3171 5.79565 16.001 5 16.001V12.001C5.00163 10.7697 5.32801 9.56064 5.94621 8.49578C6.5644 7.43093 7.45254 6.54797 8.521 5.93602C8.86194 6.56099 9.36493 7.08258 9.97712 7.44598C10.5893 7.80937 11.2881 8.00114 12 8.00114C12.7119 8.00114 13.4107 7.80937 14.0229 7.44598C14.6351 7.08258 15.1381 6.56099 15.479 5.93602C16.5475 6.54797 17.4356 7.43093 18.0538 8.49578C18.672 9.56064 18.9984 10.7697 19 12.001V16.001C18.2044 16.001 17.4413 16.3171 16.8787 16.8797C16.3161 17.4423 16 18.2054 16 19.001V21.001C16 21.7967 16.3161 22.5597 16.8787 23.1223C17.4413 23.6849 18.2044 24.001 19 24.001H21C21.7956 24.001 22.5587 23.6849 23.1213 23.1223C23.6839 22.5597 24 21.7967 24 21.001V19.001C24 18.2054 23.6839 17.4423 23.1213 16.8797C22.5587 16.3171 21.7956 16.001 21 16.001Z" fill="#374957"/>
</g>
<defs>
<clipPath id="clip0_1178_20209">
<rect width="24" height="24" fill="white"/>
</clipPath>
</defs>
</svg>
