<svg width="24" height="24" viewBox="0 0 24 24" fill="none" xmlns="http://www.w3.org/2000/svg">
<path d="M13.4138 11.9994L23.7068 1.70643C23.8889 1.51783 23.9897 1.26523 23.9875 1.00303C23.9852 0.740833 23.88 0.49002 23.6946 0.304612C23.5092 0.119204 23.2584 0.014035 22.9962 0.0117566C22.734 0.00947813 22.4814 0.110273 22.2928 0.292431L11.9998 10.5854L1.70679 0.292431C1.51818 0.110273 1.26558 0.00947813 1.00339 0.0117566C0.741189 0.014035 0.490376 0.119204 0.304968 0.304612C0.11956 0.49002 0.0143908 0.740833 0.0121124 1.00303C0.00983399 1.26523 0.110628 1.51783 0.292786 1.70643L10.5858 11.9994L0.292786 22.2924C0.105315 22.48 0 22.7343 0 22.9994C0 23.2646 0.105315 23.5189 0.292786 23.7064V23.7064C0.480314 23.8939 0.734622 23.9992 0.999786 23.9992C1.26495 23.9992 1.51926 23.8939 1.70679 23.7064L11.9998 13.4134L22.2928 23.7064C22.4803 23.8939 22.7346 23.9992 22.9998 23.9992C23.265 23.9992 23.5193 23.8939 23.7068 23.7064C23.8943 23.5189 23.9996 23.2646 23.9996 22.9994C23.9996 22.7343 23.8943 22.48 23.7068 22.2924L13.4138 11.9994Z" fill="#374957"/>
</svg>
