<svg width="24" height="24" viewBox="0 0 24 24" fill="none" xmlns="http://www.w3.org/2000/svg">
<g clip-path="url(#clip0_1178_20019)">
<path d="M9.34024 10.7921C8.38875 9.59083 7.91762 8.07881 8.01834 6.54964C8.11905 5.02048 8.78441 3.5833 9.88524 2.51716L10.5182 1.88316C11.5845 0.782755 13.0215 0.117751 14.5504 0.0172269C16.0794 -0.0832972 17.5911 0.387829 18.7922 1.33916C19.4347 1.87191 19.9578 2.53394 20.3276 3.2822C20.6973 4.03046 20.9054 4.84818 20.9382 5.68215C20.9734 6.51253 20.8359 7.34118 20.5345 8.11574C20.2332 8.89029 19.7744 9.59391 19.1872 10.1821L18.1872 11.1821C17.0602 12.3067 15.5334 12.9389 13.9412 12.9401C13.8552 12.9401 13.7692 12.9381 13.6832 12.9341C12.8496 12.9015 12.0322 12.694 11.284 12.325C10.5358 11.9559 9.87353 11.4337 9.34024 10.7921V10.7921ZM18.7572 15.9991C18.0686 15.9975 17.3864 16.1323 16.7502 16.3958C16.1139 16.6593 15.5361 17.0462 15.0502 17.5341C13.6383 18.9542 11.9586 20.08 10.1086 20.8465C8.25851 21.6129 6.27477 22.0047 4.27224 21.9991H3.12224C2.90034 21.9995 2.68334 21.9339 2.49872 21.8108C2.3141 21.6877 2.17016 21.5126 2.08513 21.3077C2.00011 21.1027 1.97782 20.8771 2.0211 20.6595C2.06438 20.4419 2.17127 20.242 2.32824 20.0851L3.02824 19.3851C4.76451 19.2686 6.39928 18.5252 7.62824 17.2931L10.6822 14.2391C9.57313 13.7464 8.59067 13.0077 7.80924 12.0791C7.37251 11.5555 7.00855 10.9753 6.72724 10.3541L3.70024 13.3781C2.46784 14.6068 1.72431 16.2418 1.60824 17.9781L0.908239 18.6781C0.473688 19.1154 0.178364 19.6716 0.0595214 20.2765C-0.0593214 20.8814 0.00363955 21.5079 0.240462 22.0771C0.477285 22.6463 0.877362 23.1325 1.39023 23.4746C1.90309 23.8167 2.50577 23.9992 3.12224 23.9991H4.27224C6.5374 24.0053 8.7813 23.5621 10.8741 22.6953C12.9668 21.8285 14.8669 20.5552 16.4642 18.9491C16.9177 18.4957 17.4954 18.1869 18.1244 18.0618C18.7533 17.9366 19.4053 18.0008 19.9978 18.2461C20.5903 18.4914 21.0968 18.9069 21.4532 19.44C21.8096 19.9731 22 20.5999 22.0002 21.2411V22.9991C22.0002 23.2643 22.1056 23.5187 22.2931 23.7062C22.4807 23.8938 22.735 23.9991 23.0002 23.9991C23.2655 23.9991 23.5198 23.8938 23.7073 23.7062C23.8949 23.5187 24.0002 23.2643 24.0002 22.9991V21.2411C23.9984 19.8513 23.4454 18.5189 22.4625 17.5362C21.4796 16.5535 20.1471 16.0007 18.7572 15.9991Z" fill="#374957"/>
</g>
<defs>
<clipPath id="clip0_1178_20019">
<rect width="24" height="24" fill="white"/>
</clipPath>
</defs>
</svg>
