<svg width="24" height="24" viewBox="0 0 24 24" fill="none" xmlns="http://www.w3.org/2000/svg">
<g clip-path="url(#clip0_1178_20164)">
<path d="M19 17.0002C19.0016 18.1488 18.7206 19.2801 18.1818 20.2944C17.6429 21.3087 16.8627 22.1748 15.91 22.8164C14.9574 23.4579 13.8615 23.8552 12.719 23.9732C11.5765 24.0911 10.4225 23.9262 9.35887 23.4928C8.2952 23.0595 7.35451 22.371 6.61976 21.4882C5.885 20.6055 5.37875 19.5554 5.14566 18.4308C4.91257 17.3061 4.9598 16.1414 5.28319 15.0393C5.60657 13.9372 6.19617 12.9316 6.99999 12.1112V5.00024C7.21099 -1.60875 16.791 -1.59975 17 5.00024V12.1112C18.2789 13.4176 18.9966 15.1721 19 17.0002ZM15 17.0002C14.9999 16.3799 14.8075 15.7749 14.4494 15.2684C14.0912 14.762 13.5848 14.379 13 14.1722V8.00024C13 7.73503 12.8946 7.48067 12.7071 7.29314C12.5196 7.1056 12.2652 7.00024 12 7.00024C11.7348 7.00024 11.4804 7.1056 11.2929 7.29314C11.1054 7.48067 11 7.73503 11 8.00024V14.1722C10.4814 14.3556 10.0233 14.6779 9.67555 15.1041C9.32783 15.5303 9.10397 16.0438 9.02843 16.5886C8.95288 17.1334 9.02856 17.6885 9.2472 18.1932C9.46583 18.6979 9.81901 19.1327 10.2681 19.4503C10.7172 19.7678 11.245 19.9557 11.7937 19.9936C12.3424 20.0314 12.891 19.9176 13.3794 19.6647C13.8678 19.4118 14.2773 19.0295 14.5631 18.5596C14.8489 18.0897 15.0001 17.5502 15 17.0002V17.0002Z" fill="#374957"/>
</g>
<defs>
<clipPath id="clip0_1178_20164">
<rect width="24" height="24" fill="white"/>
</clipPath>
</defs>
</svg>
