<svg width="24" height="24" viewBox="0 0 24 24" fill="none" xmlns="http://www.w3.org/2000/svg">
<path d="M1.00135 4.75073H3.73708C4.27702 6.73737 6.32521 7.91016 8.31186 7.37022C9.58781 7.02342 10.5846 6.02668 10.9313 4.75073H22.9991C23.5514 4.75073 23.999 4.30307 23.999 3.75084C23.999 3.19862 23.5514 2.75096 22.9991 2.75096H10.9313C10.3914 0.764267 8.34321 -0.408523 6.35657 0.131424C5.08062 0.478217 4.08387 1.47496 3.73708 2.75091H1.00135C0.449123 2.75091 0.00146484 3.19857 0.00146484 3.7508C0.00146484 4.30302 0.449123 4.75073 1.00135 4.75073Z" fill="#374957"/>
<path d="M22.9991 10.9999H20.2634C19.7245 9.01358 17.6775 7.84013 15.6911 8.37896C14.4141 8.72537 13.4166 9.72292 13.0701 10.9999H1.00135C0.449123 10.9999 0.00146484 11.4476 0.00146484 11.9998C0.00146484 12.5521 0.449123 12.9997 1.00135 12.9997H13.0701C13.609 14.9861 15.6561 16.1595 17.6424 15.6207C18.9194 15.2743 19.917 14.2767 20.2634 12.9997H22.9991C23.5514 12.9997 23.999 12.5521 23.999 11.9998C23.999 11.4476 23.5514 10.9999 22.9991 10.9999Z" fill="#374957"/>
<path d="M22.9991 19.249H10.9313C10.3914 17.2623 8.34321 16.0895 6.35657 16.6295C5.08062 16.9763 4.08387 17.973 3.73708 19.249H1.00135C0.449123 19.249 0.00146484 19.6966 0.00146484 20.2488C0.00146484 20.8011 0.449123 21.2487 1.00135 21.2487H3.73708C4.27702 23.2354 6.32521 24.4081 8.31186 23.8682C9.58781 23.5214 10.5846 22.5247 10.9313 21.2487H22.9991C23.5514 21.2487 23.999 20.8011 23.999 20.2488C23.999 19.6966 23.5514 19.249 22.9991 19.249Z" fill="#374957"/>
</svg>
