<svg width="24" height="24" viewBox="0 0 24 24" fill="none" xmlns="http://www.w3.org/2000/svg">
<g clip-path="url(#clip0_1178_20058)">
<path d="M23.8 8.15504L20.387 18.555C20.1717 19.2783 19.7938 19.9427 19.2821 20.4974C18.7704 21.0521 18.1386 21.4823 17.435 21.755C17.8087 20.8843 18.001 19.9466 18 18.999V8.99904C17.9979 7.14318 17.2597 5.36393 15.9474 4.05163C14.6351 2.73934 12.8559 2.00116 11 1.99904H9.335C9.9525 1.18217 10.8052 0.573864 11.7786 0.255845C12.7519 -0.0621751 13.7993 -0.0746688 14.78 0.220042L20.466 1.96604C21.7212 2.35598 22.7735 3.22257 23.3968 4.37973C24.0202 5.53689 24.1649 6.89234 23.8 8.15504V8.15504ZM16 8.99904V18.999C15.9984 20.3246 15.4711 21.5955 14.5338 22.5328C13.5964 23.4702 12.3256 23.9975 11 23.999H5C3.6744 23.9975 2.40356 23.4702 1.46622 22.5328C0.528882 21.5955 0.00158786 20.3246 0 18.999L0 8.99904C0.00158786 7.67345 0.528882 6.4026 1.46622 5.46526C2.40356 4.52792 3.6744 4.00063 5 3.99904H11C12.3256 4.00063 13.5964 4.52792 14.5338 5.46526C15.4711 6.4026 15.9984 7.67345 16 8.99904ZM12 12.999C12 12.4686 11.7893 11.9599 11.4142 11.5848C11.0391 11.2098 10.5304 10.999 10 10.999C9.46957 10.999 8.96086 11.2098 8.58579 11.5848C8.21071 11.9599 8 12.4686 8 12.999C8 12.4686 7.78929 11.9599 7.41421 11.5848C7.03914 11.2098 6.53043 10.999 6 10.999C5.46957 10.999 4.96086 11.2098 4.58579 11.5848C4.21071 11.9599 4 12.4686 4 12.999C4 14.449 5.544 16.39 6.714 17.377C7.07348 17.6812 7.52912 17.8481 8 17.8481C8.47088 17.8481 8.92652 17.6812 9.286 17.377C10.456 16.39 12 14.449 12 12.999V12.999Z" fill="#374957"/>
</g>
<defs>
<clipPath id="clip0_1178_20058">
<rect width="24" height="24" fill="white"/>
</clipPath>
</defs>
</svg>
