<svg width="24" height="24" viewBox="0 0 24 24" fill="none" xmlns="http://www.w3.org/2000/svg">
<g clip-path="url(#clip0_1178_19845)">
<path d="M19.6751 2.75729C18.4081 1.70294 16.9364 0.92245 15.3529 0.464988C13.7693 0.00752527 12.1081 -0.11699 10.4741 0.0992888C7.45114 0.492007 4.69096 2.02046 2.754 4.3743C0.817033 6.72813 -0.151521 9.73091 0.0450001 12.7729C0.241521 15.8149 1.58838 18.6681 3.81211 20.7531C6.03584 22.8382 8.96974 23.9988 12.0181 23.9993H19.0001C20.3257 23.9977 21.5965 23.4704 22.5339 22.5331C23.4712 21.5957 23.9985 20.3249 24.0001 18.9993V11.3083V11.2453C23.8942 9.61073 23.4561 8.01494 22.7125 6.5555C21.9688 5.09606 20.9353 3.80365 19.6751 2.75729V2.75729ZM8.00008 6.99929H12.0001C12.2653 6.99929 12.5196 7.10465 12.7072 7.29218C12.8947 7.47972 13.0001 7.73407 13.0001 7.99929C13.0001 8.26451 12.8947 8.51886 12.7072 8.7064C12.5196 8.89393 12.2653 8.99929 12.0001 8.99929H8.00008C7.73486 8.99929 7.48051 8.89393 7.29297 8.7064C7.10543 8.51886 7.00008 8.26451 7.00008 7.99929C7.00008 7.73407 7.10543 7.47972 7.29297 7.29218C7.48051 7.10465 7.73486 6.99929 8.00008 6.99929V6.99929ZM16.0001 16.9993H8.00008C7.73486 16.9993 7.48051 16.8939 7.29297 16.7064C7.10543 16.5189 7.00008 16.2645 7.00008 15.9993C7.00008 15.7341 7.10543 15.4797 7.29297 15.2922C7.48051 15.1046 7.73486 14.9993 8.00008 14.9993H16.0001C16.2653 14.9993 16.5196 15.1046 16.7072 15.2922C16.8947 15.4797 17.0001 15.7341 17.0001 15.9993C17.0001 16.2645 16.8947 16.5189 16.7072 16.7064C16.5196 16.8939 16.2653 16.9993 16.0001 16.9993ZM16.0001 12.9993H8.00008C7.73486 12.9993 7.48051 12.8939 7.29297 12.7064C7.10543 12.5189 7.00008 12.2645 7.00008 11.9993C7.00008 11.7341 7.10543 11.4797 7.29297 11.2922C7.48051 11.1046 7.73486 10.9993 8.00008 10.9993H16.0001C16.2653 10.9993 16.5196 11.1046 16.7072 11.2922C16.8947 11.4797 17.0001 11.7341 17.0001 11.9993C17.0001 12.2645 16.8947 12.5189 16.7072 12.7064C16.5196 12.8939 16.2653 12.9993 16.0001 12.9993Z" fill="#374957"/>
</g>
<defs>
<clipPath id="clip0_1178_19845">
<rect width="24" height="24" fill="white"/>
</clipPath>
</defs>
</svg>
