<svg width="24" height="24" viewBox="0 0 24 24" fill="none" xmlns="http://www.w3.org/2000/svg">
<g clip-path="url(#clip0_1178_19801)">
<path d="M14.9998 6.99981V2.99981C14.9998 2.73459 15.1051 2.48024 15.2927 2.2927C15.4802 2.10516 15.7345 1.99981 15.9998 1.99981C16.265 1.99981 16.5193 2.10516 16.7069 2.2927C16.8944 2.48024 16.9998 2.73459 16.9998 2.99981V5.61281C17.6298 4.98081 21.6998 0.886807 22.2928 0.299807C22.4814 0.117648 22.734 0.0168541 22.9962 0.0191325C23.2584 0.0214109 23.5092 0.12658 23.6946 0.311988C23.88 0.497396 23.9852 0.748209 23.9874 1.01041C23.9897 1.2726 23.8889 1.5252 23.7068 1.71381C23.1148 2.29981 19.0638 6.37281 18.4388 6.99981H20.9998C21.265 6.99981 21.5193 7.10516 21.7069 7.2927C21.8944 7.48024 21.9998 7.73459 21.9998 7.99981C21.9998 8.26502 21.8944 8.51938 21.7069 8.70691C21.5193 8.89445 21.265 8.99981 20.9998 8.99981H16.9998C16.4693 8.99981 15.9606 8.78909 15.5856 8.41402C15.2105 8.03895 14.9998 7.53024 14.9998 6.99981ZM20.6548 14.8548C20.0774 14.3054 19.3106 13.9995 18.5136 14.0007C17.7166 14.0018 16.9506 14.3098 16.3748 14.8608L14.4688 16.4668C12.913 15.823 11.4998 14.8783 10.3102 13.6868C9.12061 12.4953 8.17809 11.0806 7.53677 9.52381L9.13676 7.62381C9.6863 7.0468 9.99332 6.28083 9.99444 5.484C9.99555 4.68718 9.69068 3.92035 9.14276 3.34181C9.14276 3.34181 7.29077 0.938807 7.25977 0.907807C6.68922 0.333555 5.91565 0.00682856 5.10619 -0.00177868C4.29674 -0.0103859 3.51639 0.299817 2.93376 0.861807L1.78376 1.86181C-5.93524 10.0718 13.9838 29.9998 22.1838 22.1618L23.0958 21.1118C23.675 20.5307 24.0002 19.7437 24.0002 18.9233C24.0002 18.1029 23.675 17.3159 23.0958 16.7348C23.0628 16.7078 20.6548 14.8558 20.6548 14.8558V14.8548Z" fill="#374957"/>
</g>
<defs>
<clipPath id="clip0_1178_19801">
<rect width="24" height="24" fill="white"/>
</clipPath>
</defs>
</svg>
