<svg width="24" height="24" viewBox="0 0 24 24" fill="none" xmlns="http://www.w3.org/2000/svg">
<path d="M21.0003 12.9998C20.7351 12.9998 20.4807 12.8944 20.2932 12.7069C20.1056 12.5194 20.0003 12.265 20.0003 11.9998C20.0003 11.7346 20.1056 11.4802 20.2932 11.2927C20.4807 11.1051 20.7351 10.9998 21.0003 10.9998H23.9493C23.7099 8.17612 22.4795 5.52814 20.4757 3.52435C18.4719 1.52056 15.8239 0.290139 13.0003 0.0507812V3.03878C13.0003 3.304 12.8949 3.55835 12.7074 3.74589C12.5198 3.93342 12.2655 4.03878 12.0003 4.03878C11.7351 4.03878 11.4807 3.93342 11.2932 3.74589C11.1056 3.55835 11.0003 3.304 11.0003 3.03878V0.0507812C8.17661 0.290139 5.52863 1.52056 3.52484 3.52435C1.52105 5.52814 0.290627 8.17612 0.0512695 10.9998H3.00027C3.26549 10.9998 3.51984 11.1051 3.70738 11.2927C3.89491 11.4802 4.00027 11.7346 4.00027 11.9998C4.00027 12.265 3.89491 12.5194 3.70738 12.7069C3.51984 12.8944 3.26549 12.9998 3.00027 12.9998H0.0512695C0.290627 15.8234 1.52105 18.4714 3.52484 20.4752C5.52863 22.479 8.17661 23.7094 11.0003 23.9488V20.9998C11.0003 20.7346 11.1056 20.4802 11.2932 20.2927C11.4807 20.1051 11.7351 19.9998 12.0003 19.9998C12.2655 19.9998 12.5198 20.1051 12.7074 20.2927C12.8949 20.4802 13.0003 20.7346 13.0003 20.9998V23.9488C15.8239 23.7094 18.4719 22.479 20.4757 20.4752C22.4795 18.4714 23.7099 15.8234 23.9493 12.9998H21.0003ZM15.0003 12.9998H13.0003V14.9998C13.0003 15.265 12.8949 15.5194 12.7074 15.7069C12.5198 15.8944 12.2655 15.9998 12.0003 15.9998C11.7351 15.9998 11.4807 15.8944 11.2932 15.7069C11.1056 15.5194 11.0003 15.265 11.0003 14.9998V12.9998H9.00027C8.73505 12.9998 8.4807 12.8944 8.29316 12.7069C8.10563 12.5194 8.00027 12.265 8.00027 11.9998C8.00027 11.7346 8.10563 11.4802 8.29316 11.2927C8.4807 11.1051 8.73505 10.9998 9.00027 10.9998H11.0003V8.99978C11.0003 8.73457 11.1056 8.48021 11.2932 8.29268C11.4807 8.10514 11.7351 7.99978 12.0003 7.99978C12.2655 7.99978 12.5198 8.10514 12.7074 8.29268C12.8949 8.48021 13.0003 8.73457 13.0003 8.99978V10.9998H15.0003C15.2655 10.9998 15.5198 11.1051 15.7074 11.2927C15.8949 11.4802 16.0003 11.7346 16.0003 11.9998C16.0003 12.265 15.8949 12.5194 15.7074 12.7069C15.5198 12.8944 15.2655 12.9998 15.0003 12.9998Z" fill="#374957"/>
</svg>
