<svg width="24" height="24" viewBox="0 0 24 24" fill="none" xmlns="http://www.w3.org/2000/svg">
<g clip-path="url(#clip0_1178_20203)">
<path d="M23 11H21V8.99998C21 8.4477 20.5523 8 20 8C19.4477 8 19 8.4477 19 8.99998V11H17C16.4477 11 16 11.4477 16 12C16 12.5523 16.4477 13 17 13H19V15C19 15.5523 19.4477 16 20 16C20.5523 16 21 15.5523 21 15V13H23C23.5523 13 24 12.5523 24 12C24 11.4477 23.5523 11 23 11Z" fill="#374957"/>
<path d="M9 12C12.3137 12 15 9.31371 15 6C15 2.68629 12.3137 0 9 0C5.68629 0 3 2.68629 3 6C3 9.31371 5.68629 12 9 12Z" fill="#374957"/>
<path d="M9 14C4.03172 14.0055 0.00553125 18.0317 0 23C0 23.5523 0.447703 24 0.999984 24H17C17.5522 24 18 23.5523 18 23C17.9945 18.0317 13.9683 14.0055 9 14Z" fill="#374957"/>
</g>
<defs>
<clipPath id="clip0_1178_20203">
<rect width="24" height="24" fill="white"/>
</clipPath>
</defs>
</svg>
