<svg width="24" height="24" viewBox="0 0 24 24" fill="none" xmlns="http://www.w3.org/2000/svg">
<g clip-path="url(#clip0_1178_20081)">
<path d="M17.244 3.99964C16.9643 3.72002 16.608 3.5296 16.2201 3.45247C15.8322 3.37533 15.4301 3.41494 15.0647 3.56628C14.6993 3.71762 14.387 3.9739 14.1672 4.30272C13.9474 4.63154 13.8301 5.01813 13.83 5.41363V6.99963H9C6.61386 7.00228 4.32622 7.95134 2.63896 9.63859C0.951708 11.3258 0.00264685 13.6135 0 15.9996L0 22.9996C0 23.2648 0.105357 23.5192 0.292893 23.7067C0.48043 23.8943 0.734784 23.9996 1 23.9996C1.26522 23.9996 1.51957 23.8943 1.70711 23.7067C1.89464 23.5192 2 23.2648 2 22.9996C2.00159 21.4088 2.63424 19.8836 3.75911 18.7587C4.88399 17.6339 6.40919 17.0012 8 16.9996H13.83V18.5856C13.8301 18.9811 13.9474 19.3677 14.1672 19.6965C14.387 20.0253 14.6993 20.2816 15.0647 20.433C15.4301 20.5843 15.8322 20.6239 16.2201 20.5468C16.608 20.4696 16.9643 20.2792 17.244 19.9996L23.123 14.1206C23.6854 13.558 24.0014 12.7951 24.0014 11.9996C24.0014 11.2041 23.6854 10.4412 23.123 9.87863L17.244 3.99964Z" fill="#374957"/>
</g>
<defs>
<clipPath id="clip0_1178_20081">
<rect width="24" height="24" fill="white"/>
</clipPath>
</defs>
</svg>
