<svg width="24" height="24" viewBox="0 0 24 24" fill="none" xmlns="http://www.w3.org/2000/svg">
<path d="M9.0003 23.9127C8.5513 23.9527 8.1003 23.9807 7.6693 23.9807C5.57544 24.1245 3.5074 23.4506 1.9003 22.1007C0.382304 20.5787 -0.173696 17.9097 0.0833041 15.0007L9.0003 23.9127ZM23.9453 8.53169C24.1003 5.80669 23.5353 3.33969 22.1003 1.90069C20.6653 0.461688 18.2003 -0.0993119 15.4713 0.0536881L23.9453 8.53169ZM23.6093 11.0237C23.001 14.1445 21.524 17.0301 19.3483 19.3487C17.134 21.4296 14.3952 22.8687 11.4253 23.5117L0.475304 12.5617C1.126 9.59584 2.56968 6.86229 4.6523 4.65269C6.97086 2.477 9.85652 1.00002 12.9773 0.391688L23.6093 11.0237ZM17.7093 10.2937L13.7093 6.29369C13.5207 6.11153 13.2681 6.01074 13.0059 6.01301C12.7437 6.01529 12.4929 6.12046 12.3075 6.30587C12.1221 6.49128 12.0169 6.74209 12.0146 7.00429C12.0124 7.26648 12.1131 7.51909 12.2953 7.70769L13.5863 9.00069L12.0003 10.5867L10.7073 9.29369C10.5187 9.11153 10.2661 9.01074 10.0039 9.01301C9.74171 9.01529 9.49089 9.12046 9.30549 9.30587C9.12008 9.49128 9.01491 9.74209 9.01263 10.0043C9.01035 10.2665 9.11115 10.5191 9.2933 10.7077L10.5863 12.0007L9.0003 13.5867L7.7073 12.2937C7.5187 12.1115 7.2661 12.0107 7.0039 12.013C6.74171 12.0153 6.49089 12.1205 6.30549 12.3059C6.12008 12.4913 6.01491 12.7421 6.01263 13.0043C6.01035 13.2665 6.11115 13.5191 6.2933 13.7077L10.2933 17.7077C10.4819 17.8898 10.7345 17.9906 10.9967 17.9884C11.2589 17.9861 11.5097 17.8809 11.6951 17.6955C11.8805 17.5101 11.9857 17.2593 11.988 16.9971C11.9903 16.7349 11.8895 16.4823 11.7073 16.2937L10.4143 15.0007L12.0003 13.4147L13.2933 14.7077C13.4819 14.8898 13.7345 14.9906 13.9967 14.9884C14.2589 14.9861 14.5097 14.8809 14.6951 14.6955C14.8805 14.5101 14.9857 14.2593 14.988 13.9971C14.9903 13.7349 14.8895 13.4823 14.7073 13.2937L13.4143 12.0007L15.0003 10.4147L16.2933 11.7077C16.4819 11.8898 16.7345 11.9906 16.9967 11.9884C17.2589 11.9861 17.5097 11.8809 17.6951 11.6955C17.8805 11.5101 17.9857 11.2593 17.988 10.9971C17.9903 10.7349 17.8895 10.4823 17.7073 10.2937H17.7093Z" fill="#374957"/>
</svg>
