<svg width="24" height="24" viewBox="0 0 24 24" fill="none" xmlns="http://www.w3.org/2000/svg">
<g clip-path="url(#clip0_1178_20180)">
<path d="M14.1812 0.206609C14.037 0.180072 13.8887 0.185566 13.7469 0.222701C13.6051 0.259836 13.4731 0.327704 13.3605 0.421498C13.2478 0.515292 13.1571 0.632716 13.0948 0.765454C13.0326 0.898192 13.0003 1.043 13.0002 1.18961V4.06861C11.7894 3.90798 10.5579 4.02834 9.40115 4.42036C8.24438 4.81238 7.19343 5.46554 6.32978 6.32919C5.46613 7.19284 4.81297 8.24379 4.42095 9.40056C4.02893 10.5573 3.90857 11.7888 4.0692 12.9996H1.1902C1.04359 12.9997 0.898782 13.032 0.766044 13.0942C0.633306 13.1565 0.515881 13.2472 0.422088 13.3599C0.328294 13.4726 0.260426 13.6045 0.223291 13.7463C0.186156 13.8882 0.180662 14.0364 0.207199 14.1806C0.60321 16.3321 1.57983 18.3344 3.03147 19.9711C4.48311 21.6077 6.35452 22.8164 8.44337 23.4664C10.5322 24.1164 12.759 24.1831 14.883 23.6591C17.007 23.1352 18.9473 22.0405 20.4942 20.4936C22.0411 18.9467 23.1357 17.0064 23.6597 14.8824C24.1836 12.7584 24.117 10.5316 23.467 8.44278C22.817 6.35393 21.6083 4.48252 19.9717 3.03088C18.335 1.57924 16.3327 0.60262 14.1812 0.206609V0.206609ZM12.0002 13.9996C11.6505 13.9986 11.3073 13.9057 11.0049 13.7302C10.7024 13.5547 10.4515 13.3027 10.2772 12.9996H8.0002C7.73498 12.9996 7.48063 12.8943 7.29309 12.7067C7.10556 12.5192 7.0002 12.2648 7.0002 11.9996C7.0002 11.7344 7.10556 11.48 7.29309 11.2925C7.48063 11.105 7.73498 10.9996 8.0002 10.9996H10.2772C10.4515 10.7 10.7006 10.4509 11.0002 10.2766V6.99961C11.0002 6.73439 11.1056 6.48004 11.2931 6.2925C11.4806 6.10497 11.735 5.99961 12.0002 5.99961C12.2654 5.99961 12.5198 6.10497 12.7073 6.2925C12.8948 6.48004 13.0002 6.73439 13.0002 6.99961V10.2766C13.3816 10.4957 13.6799 10.8348 13.8486 11.2411C14.0172 11.6474 14.0468 12.098 13.9327 12.5229C13.8186 12.9477 13.5672 13.3229 13.2177 13.59C12.8681 13.8571 12.4401 14.0011 12.0002 13.9996V13.9996ZM9.9722 0.0996094C10.17 0.0996094 10.3633 0.158258 10.5278 0.26814C10.6922 0.378021 10.8204 0.5342 10.8961 0.716926C10.9718 0.899652 10.9916 1.10072 10.953 1.2947C10.9144 1.48868 10.8192 1.66686 10.6793 1.80672C10.5395 1.94657 10.3613 2.04181 10.1673 2.08039C9.97331 2.11898 9.77224 2.09918 9.58952 2.02349C9.40679 1.9478 9.25061 1.81963 9.14073 1.65518C9.03085 1.49073 8.9722 1.29739 8.9722 1.09961C8.9722 0.834393 9.07756 0.580039 9.26509 0.392503C9.45263 0.204966 9.70698 0.0996094 9.9722 0.0996094V0.0996094ZM5.8722 1.85561C6.06998 1.85561 6.26332 1.91426 6.42777 2.02414C6.59222 2.13402 6.72039 2.2902 6.79608 2.47293C6.87177 2.65565 6.89157 2.85672 6.85298 3.0507C6.8144 3.24468 6.71916 3.42286 6.57931 3.56272C6.43945 3.70257 6.26127 3.79781 6.06729 3.83639C5.87331 3.87498 5.67224 3.85518 5.48952 3.77949C5.30679 3.7038 5.15061 3.57563 5.04073 3.41118C4.93085 3.24673 4.8722 3.05339 4.8722 2.85561C4.87167 2.59057 4.97638 2.33615 5.16332 2.14827C5.35027 1.96039 5.60416 1.8544 5.8692 1.85361L5.8722 1.85561ZM2.7792 4.84061C2.97698 4.84061 3.17032 4.89926 3.33477 5.00914C3.49922 5.11902 3.62739 5.2752 3.70308 5.45793C3.77877 5.64065 3.79857 5.84172 3.75998 6.0357C3.7214 6.22968 3.62616 6.40786 3.48631 6.54772C3.34645 6.68757 3.16827 6.78281 2.97429 6.82139C2.78031 6.85998 2.57924 6.84018 2.39652 6.76449C2.21379 6.6888 2.05761 6.56063 1.94773 6.39618C1.83785 6.23173 1.7792 6.03839 1.7792 5.84061C1.7792 5.57539 1.88456 5.32104 2.07209 5.1335C2.25963 4.94597 2.51398 4.84061 2.7792 4.84061V4.84061ZM1.1792 9.00761C1.37698 9.00761 1.57032 9.06626 1.73477 9.17614C1.89922 9.28602 2.02739 9.4422 2.10308 9.62493C2.17877 9.80765 2.19857 10.0087 2.15998 10.2027C2.1214 10.3967 2.02616 10.5749 1.88631 10.7147C1.74645 10.8546 1.56827 10.9498 1.37429 10.9884C1.18031 11.027 0.979242 11.0072 0.796516 10.9315C0.61379 10.8558 0.457611 10.7276 0.34773 10.5632C0.237848 10.3987 0.179199 10.2054 0.179199 10.0076C0.179199 9.74274 0.284281 9.48869 0.471385 9.30121C0.658489 9.11373 0.912329 9.00814 1.1772 9.00761H1.1792Z" fill="#374957"/>
</g>
<defs>
<clipPath id="clip0_1178_20180">
<rect width="24" height="24" fill="white"/>
</clipPath>
</defs>
</svg>
