<svg width="24" height="24" viewBox="0 0 24 24" fill="none" xmlns="http://www.w3.org/2000/svg">
<g clip-path="url(#clip0_1178_19747)">
<path d="M19.9229 7.28328C19.63 7.08075 19.2763 6.9853 18.9214 7.01299C18.5664 7.04067 18.2318 7.1898 17.9739 7.43528C16.8033 8.30215 15.4223 8.84039 13.9739 8.99428C13.714 8.98753 13.4671 8.87988 13.2852 8.69414C13.1034 8.50841 13.0011 8.25919 12.9999 7.99928V6.96428C14.532 6.96995 16.0079 6.38711 17.1227 5.33609C18.2375 4.28506 18.9063 2.8461 18.9909 1.31627C19.0127 1.13927 18.994 0.959609 18.936 0.790955C18.878 0.6223 18.7823 0.469091 18.6561 0.34298C18.53 0.216868 18.3768 0.121174 18.2082 0.0631743C18.0395 0.00517492 17.8599 -0.0136026 17.6829 0.00826979C15.8279 0.0852699 13.0999 1.52827 12.5319 3.70827C12.1917 2.43968 11.5692 1.26439 10.7109 0.27027C10.5243 0.0852988 10.2724 -0.0188025 10.0096 -0.0195274C9.74687 -0.0202523 9.4944 0.0824575 9.30678 0.266396C9.11917 0.450335 9.01148 0.700724 9.007 0.963429C9.00252 1.22613 9.10162 1.48005 9.28286 1.67027C10.2792 2.90243 10.8621 4.41709 10.9489 5.99928H8.49986C6.18076 6.07015 3.98422 7.05701 2.39113 8.74381C0.798036 10.4306 -0.0618024 12.6799 -0.000142817 14.9993C-0.161143 20.5993 5.64386 25.7723 10.7499 23.3843C11.1398 23.1363 11.5931 23.0062 12.0552 23.0096C12.5173 23.013 12.9686 23.1497 13.3549 23.4033C14.0077 23.7807 14.7459 23.9858 15.4999 23.9993C24.2129 23.9213 27.0639 11.8733 19.9229 7.28328Z" fill="#374957"/>
</g>
<defs>
<clipPath id="clip0_1178_19747">
<rect width="24" height="24" fill="white"/>
</clipPath>
</defs>
</svg>
