<svg width="24" height="24" viewBox="0 0 24 24" fill="none" xmlns="http://www.w3.org/2000/svg">
<g clip-path="url(#clip0_1178_20186)">
<path d="M23 22H1C0.734784 22 0.48043 21.8946 0.292893 21.7071C0.105357 21.5196 0 21.2652 0 21C0 20.7348 0.105357 20.4804 0.292893 20.2929C0.48043 20.1054 0.734784 20 1 20H23C23.2652 20 23.5196 20.1054 23.7071 20.2929C23.8946 20.4804 24 20.7348 24 21C24 21.2652 23.8946 21.5196 23.7071 21.7071C23.5196 21.8946 23.2652 22 23 22ZM12 2.094V6H20.267C18.0295 3.80469 15.1167 2.42848 12 2.094V2.094ZM6 2V6H10V2H6ZM21.949 8H0V16C0 16.2652 0.105357 16.5196 0.292893 16.7071C0.48043 16.8946 0.734784 17 1 17H19.99C20.618 17.0011 21.2375 16.8543 21.7982 16.5715C22.359 16.2887 22.8452 15.8779 23.2177 15.3722C23.5901 14.8666 23.8383 14.2803 23.9421 13.6609C24.0458 13.0416 24.0023 12.4064 23.815 11.807C23.3891 10.4509 22.76 9.16731 21.949 8V8ZM4 6V2H1C0.734784 2 0.48043 2.10536 0.292893 2.29289C0.105357 2.48043 0 2.73478 0 3L0 6H4Z" fill="#374957"/>
</g>
<defs>
<clipPath id="clip0_1178_20186">
<rect width="24" height="24" fill="white"/>
</clipPath>
</defs>
</svg>
