<svg width="24" height="24" viewBox="0 0 24 24" fill="none" xmlns="http://www.w3.org/2000/svg">
<path d="M22.5004 18.0009C22.3033 18.0009 22.1082 17.962 21.9261 17.8865C21.7441 17.811 21.5787 17.7003 21.4394 17.5609L13.7684 9.88991C13.5362 9.65769 13.2606 9.47349 12.9572 9.34781C12.6539 9.22213 12.3287 9.15744 12.0004 9.15744C11.672 9.15744 11.3469 9.22213 11.0435 9.34781C10.7402 9.47349 10.4645 9.65769 10.2324 9.88991L2.57039 17.5519C2.28748 17.8251 1.90858 17.9763 1.51529 17.9729C1.12199 17.9695 0.745772 17.8117 0.46766 17.5336C0.189548 17.2555 0.0317946 16.8793 0.028377 16.486C0.0249594 16.0927 0.176151 15.7138 0.449388 15.4309L8.11139 7.76891C9.14348 6.73874 10.5421 6.16016 12.0004 6.16016C13.4586 6.16016 14.8573 6.73874 15.8894 7.76891L23.5614 15.4409C23.771 15.6507 23.9136 15.918 23.9714 16.2089C24.0291 16.4998 23.9993 16.8012 23.8858 17.0752C23.7722 17.3492 23.58 17.5833 23.3334 17.7481C23.0868 17.9129 22.797 18.0008 22.5004 18.0009Z" fill="#374957"/>
</svg>
