<svg width="24" height="24" viewBox="0 0 24 24" fill="none" xmlns="http://www.w3.org/2000/svg">
<path d="M18.7133 12.0008H14.0003C12.8957 12.0008 12.0003 11.1053 12.0003 10.0008V5.27479C12.003 4.34245 11.5721 3.46176 10.8343 2.89181C10.1351 2.33812 9.21829 2.14078 8.35326 2.35781C2.47373 3.81731 -1.10944 9.76683 0.350107 15.6464C1.3784 19.7888 4.71628 22.9587 8.90629 23.7718C14.6302 24.8674 20.2152 21.3087 21.6403 15.6578C21.8581 14.7916 21.6612 13.8734 21.1073 13.1728C20.5308 12.4363 19.6486 12.0044 18.7133 12.0008Z" fill="#374957"/>
<path d="M23.6509 7.44678C23.4227 6.59825 23.0827 5.7838 22.6399 5.0248C21.3082 2.7402 19.1328 1.06972 16.5819 0.372781C16.4139 0.327453 16.0379 0.300781 16.0379 0.300781C15.9036 0.300828 15.3249 0.300781 14.8669 0.671797C14.1938 1.20153 14.0879 1.80378 14.0779 1.8508C14.043 1.99827 14.0249 2.14925 14.0239 2.3008V7.00081C14.0239 8.65766 15.3671 10.0008 17.0239 10.0008H21.7429C22.369 10.0026 22.9583 9.70536 23.329 9.2008C23.6031 8.83119 23.7441 8.37969 23.7289 7.9198C23.721 7.75967 23.6948 7.60095 23.6509 7.44678Z" fill="#374957"/>
</svg>
