<svg width="24" height="24" viewBox="0 0 24 24" fill="none" xmlns="http://www.w3.org/2000/svg">
<g clip-path="url(#clip0_1178_20184)">
<path d="M17.9998 0.000246562C16.6707 0.000627502 15.3499 0.208117 14.0848 0.615247C13.4132 0.848146 12.7102 0.977952 11.9998 1.00025C11.2893 0.977952 10.5863 0.848146 9.91476 0.615247C8.6496 0.208244 7.32877 0.000757737 5.99976 0.000246562C5.20373 -0.0299311 4.41004 0.10462 3.66843 0.39547C2.92682 0.686319 2.25328 1.1272 1.68999 1.69048C1.12671 2.25376 0.685831 2.92731 0.394981 3.66892C0.104132 4.41053 -0.0304194 5.20422 -0.000241719 6.00025C-0.000241719 12.4432 3.35476 18.7862 5.76776 22.8852C6.02194 23.314 6.40992 23.6475 6.87206 23.8343C7.3342 24.0212 7.84491 24.051 8.32568 23.9194C8.80645 23.7877 9.23067 23.5018 9.53312 23.1056C9.83558 22.7093 9.99952 22.2247 9.99976 21.7262V15.1072C9.98896 14.6204 10.1497 14.1453 10.4539 13.765C10.7582 13.3847 11.1864 13.1236 11.6638 13.0272C11.9508 12.9783 12.2451 12.9927 12.526 13.0693C12.807 13.1459 13.0678 13.283 13.2903 13.4709C13.5127 13.6588 13.6915 13.893 13.814 14.1572C13.9366 14.4213 14 14.709 13.9998 15.0002V21.7262C14 22.2247 14.1639 22.7093 14.4664 23.1056C14.7689 23.5018 15.1931 23.7877 15.6738 23.9194C16.1546 24.051 16.6653 24.0212 17.1275 23.8343C17.5896 23.6475 17.9776 23.314 18.2318 22.8852C20.6458 18.7852 23.9998 12.4422 23.9998 6.00025C24.0299 5.20422 23.8954 4.41053 23.6045 3.66892C23.3137 2.92731 22.8728 2.25376 22.3095 1.69048C21.7462 1.1272 21.0727 0.686319 20.3311 0.39547C19.5895 0.10462 18.7958 -0.0299311 17.9998 0.000246562V0.000246562Z" fill="#374957"/>
</g>
<defs>
<clipPath id="clip0_1178_20184">
<rect width="24" height="24" fill="white"/>
</clipPath>
</defs>
</svg>
