<svg width="24" height="24" viewBox="0 0 24 24" fill="none" xmlns="http://www.w3.org/2000/svg">
<path d="M0.587209 18.24C0.288405 18.8498 0.149781 19.5257 0.184401 20.2039C0.21902 20.8821 0.425743 21.5404 0.78509 22.1166C1.14444 22.6928 1.64458 23.1681 2.23838 23.4976C2.83219 23.8271 3.50011 24 4.17921 24H19.8202C20.4994 24.0001 21.1674 23.8274 21.7614 23.4979C22.3553 23.1685 22.8556 22.6933 23.2151 22.117C23.5745 21.5407 23.7813 20.8824 23.816 20.2042C23.8507 19.5259 23.712 18.8499 23.4132 18.24L22.8062 17H1.19421L0.587209 18.24Z" fill="#374957"/>
<path d="M19.3768 10H4.62283L2.17383 15H21.8258L19.3768 10Z" fill="#374957"/>
<path d="M15.5931 2.27424C15.2639 1.60198 14.7528 1.03557 14.1177 0.639397C13.4826 0.243228 12.7491 0.0332031 12.0006 0.0332031C11.2521 0.0332031 10.5186 0.243228 9.88351 0.639397C9.24843 1.03557 8.73725 1.60198 8.4081 2.27424L5.6001 7.99924H18.4001L15.5931 2.27424Z" fill="#374957"/>
</svg>
