<svg width="24" height="24" viewBox="0 0 24 24" fill="none" xmlns="http://www.w3.org/2000/svg">
<g clip-path="url(#clip0_1178_20032)">
<path d="M5 23C6.3256 22.9984 7.59644 22.4711 8.53378 21.5338C9.47112 20.5964 9.99841 19.3256 10 18V6C10 5.20435 10.3161 4.44129 10.8787 3.87868C11.4413 3.31607 12.2044 3 13 3H19C19.7956 3 20.5587 3.31607 21.1213 3.87868C21.6839 4.44129 22 5.20435 22 6V14.026C21.1396 13.3642 20.0855 13.0037 19 13C18.0111 13 17.0444 13.2932 16.2221 13.8427C15.3999 14.3921 14.759 15.173 14.3806 16.0866C14.0022 17.0002 13.9031 18.0055 14.0961 18.9755C14.289 19.9454 14.7652 20.8363 15.4645 21.5355C16.1637 22.2348 17.0546 22.711 18.0245 22.9039C18.9945 23.0969 19.9998 22.9978 20.9134 22.6194C21.827 22.241 22.6079 21.6001 23.1573 20.7779C23.7068 19.9556 24 18.9889 24 18V6C23.9984 4.6744 23.4711 3.40356 22.5338 2.46622C21.5964 1.52888 20.3256 1.00159 19 1H13C11.6744 1.00159 10.4036 1.52888 9.46622 2.46622C8.52888 3.40356 8.00159 4.6744 8 6V14.026C7.13961 13.3642 6.08547 13.0037 5 13C3.67392 13 2.40215 13.5268 1.46447 14.4645C0.526784 15.4021 0 16.6739 0 18C0 19.3261 0.526784 20.5979 1.46447 21.5355C2.40215 22.4732 3.67392 23 5 23V23Z" fill="#374957"/>
</g>
<defs>
<clipPath id="clip0_1178_20032">
<rect width="24" height="24" fill="white"/>
</clipPath>
</defs>
</svg>
