<svg width="24" height="24" viewBox="0 0 24 24" fill="none" xmlns="http://www.w3.org/2000/svg">
<g clip-path="url(#clip0_1178_20201)">
<path d="M8.08096 5.50529L11.0069 2.57832L10.9999 18.0161C10.9999 18.5683 11.4476 19.016 11.9999 19.016C12.5522 19.016 12.9999 18.5683 12.9999 18.0161L13.0068 2.59533L15.9188 5.50829C16.3161 5.89195 16.9491 5.88099 17.3328 5.48373C17.7071 5.09622 17.7071 4.48184 17.3328 4.09433L14.1218 0.879361C12.9506 -0.292589 11.0512 -0.293198 9.87925 0.878002C9.87878 0.878471 9.87836 0.878893 9.87789 0.879361L6.66695 4.09133C6.28328 4.48859 6.29425 5.12162 6.69151 5.50529C7.07902 5.87958 7.6934 5.87958 8.08096 5.50529Z" fill="#374957"/>
<path d="M22.9996 16C22.4473 16 21.9996 16.4477 21.9996 17V20.9999C21.9996 21.5522 21.5519 21.9999 20.9996 21.9999H2.99991C2.44763 21.9999 1.99994 21.5522 1.99994 20.9999V17C1.99994 16.4477 1.55224 16 0.999969 16C0.447696 16 0 16.4477 0 17V20.9999C0 22.6567 1.34314 23.9999 2.99995 23.9999H20.9997C22.6565 23.9999 23.9996 22.6567 23.9996 20.9999V17C23.9995 16.4477 23.5518 16 22.9996 16Z" fill="#374957"/>
</g>
<defs>
<clipPath id="clip0_1178_20201">
<rect width="24" height="24" fill="white"/>
</clipPath>
</defs>
</svg>
