<svg width="24" height="24" viewBox="0 0 24 24" fill="none" xmlns="http://www.w3.org/2000/svg">
<g clip-path="url(#clip0_1178_20166)">
<path d="M22.773 7.72235C22.3041 7.18196 21.7245 6.74863 21.0736 6.45171C20.4226 6.15479 19.7155 6.0012 19 6.00135H15.011L15.347 3.96035C15.4659 3.24162 15.3225 2.50409 14.9429 1.88229C14.5633 1.2605 13.9728 0.795867 13.2792 0.573146C12.5856 0.350425 11.835 0.384455 11.1644 0.669029C10.4938 0.953604 9.94777 1.46976 9.626 2.12335L8 5.41835V21.0014H18.3C19.5035 20.9964 20.6652 20.5597 21.5738 19.7705C22.4824 18.9814 23.0776 17.8923 23.251 16.7014L23.956 11.7014C24.0557 10.9921 24.0016 10.2697 23.7975 9.58311C23.5934 8.89657 23.244 8.26196 22.773 7.72235Z" fill="#374957"/>
<path d="M0 11V16C0.00158786 17.3256 0.528882 18.5964 1.46622 19.5338C2.40356 20.4711 3.6744 20.9984 5 21H6V6H5C3.6744 6.00159 2.40356 6.52888 1.46622 7.46622C0.528882 8.40356 0.00158786 9.6744 0 11H0Z" fill="#374957"/>
</g>
<defs>
<clipPath id="clip0_1178_20166">
<rect width="24" height="24" fill="white"/>
</clipPath>
</defs>
</svg>
