<svg width="24" height="24" viewBox="0 0 24 24" fill="none" xmlns="http://www.w3.org/2000/svg">
<g clip-path="url(#clip0_1178_19922)">
<path d="M10.2067 0.0675533H10.1997C9.97566 0.0169427 9.74105 0.0449831 9.53527 0.146962C9.32949 0.248942 9.16508 0.418645 9.06967 0.627553L0.374673 19.7586C0.167051 20.2155 0.0773928 20.7172 0.113908 21.2178C0.150423 21.7184 0.311944 22.2018 0.583679 22.6238C0.855415 23.0458 1.22868 23.3928 1.66929 23.6332C2.1099 23.8735 2.60377 23.9995 3.10567 23.9996H9.99967C10.2649 23.9996 10.5192 23.8942 10.7068 23.7067C10.8943 23.5191 10.9997 23.2648 10.9997 22.9996V1.04555C10.9978 0.81683 10.9183 0.595527 10.7742 0.417861C10.6302 0.240195 10.4301 0.116689 10.2067 0.0675533V0.0675533ZM8.99967 21.9996H3.10567C2.93827 21.9997 2.77352 21.9578 2.62652 21.8777C2.47952 21.7976 2.35498 21.6819 2.26431 21.5412C2.17365 21.4004 2.11976 21.2392 2.10759 21.0722C2.09543 20.9053 2.12537 20.7379 2.19467 20.5856L8.99967 5.61555V21.9996Z" fill="#374957"/>
<path d="M23.625 19.7589L14.93 0.627929C14.8301 0.417823 14.6614 0.248106 14.452 0.146829C14.2425 0.0455515 14.0047 0.0187765 13.778 0.0709293C13.557 0.12124 13.3597 0.245117 13.2183 0.422259C13.077 0.599401 13 0.819303 13 1.04593V22.9999C13 23.2651 13.1054 23.5195 13.2929 23.707C13.4804 23.8946 13.7348 23.9999 14 23.9999H20.894C21.3959 23.9999 21.8898 23.8739 22.3304 23.6336C22.771 23.3932 23.1442 23.0461 23.416 22.6242C23.6877 22.2022 23.8492 21.7188 23.8858 21.2182C23.9223 20.7176 23.8326 20.2159 23.625 19.7589Z" fill="#374957"/>
</g>
<defs>
<clipPath id="clip0_1178_19922">
<rect width="24" height="24" fill="white"/>
</clipPath>
</defs>
</svg>
