<svg width="24" height="24" viewBox="0 0 24 24" fill="none" xmlns="http://www.w3.org/2000/svg">
<path d="M14.762 11.5866C14.2154 11.8978 13.6194 12.1129 13 12.2226V23.8736C13.527 23.771 14.0337 23.5828 14.5 23.3166L20.527 19.8376C21.2861 19.3974 21.9165 18.7658 22.3552 18.0058C22.7939 17.2458 23.0255 16.3841 23.027 15.5066V8.54656C23.0238 8.01237 22.9343 7.48221 22.762 6.97656L14.762 11.5866Z" fill="#374957"/>
<path d="M10.242 9.85787C10.7775 10.1659 11.3846 10.3281 12.0025 10.3281C12.6203 10.3281 13.2274 10.1659 13.763 9.85787L21.763 5.24787C21.4086 4.84075 20.9905 4.4939 20.525 4.22087L14.5 0.737874C13.7394 0.300495 12.8773 0.0703125 12 0.0703125C11.1226 0.0703125 10.2605 0.300495 9.49995 0.737874L3.47295 4.21787C3.024 4.48077 2.61908 4.81247 2.27295 5.20087L10.242 9.85787Z" fill="#374957"/>
<path d="M11.0001 12.2238C10.3804 12.1144 9.78404 11.8993 9.23715 11.5878L1.25714 6.92383C1.07247 7.44551 0.976477 7.99444 0.973145 8.54783V15.5078C0.974607 16.3853 1.20625 17.2471 1.64494 18.0071C2.08362 18.7671 2.71401 19.3987 3.47314 19.8388L9.50014 23.3178C9.96642 23.5841 10.4731 23.7722 11.0001 23.8748V12.2238Z" fill="#374957"/>
</svg>
