<svg width="24" height="24" viewBox="0 0 24 24" fill="none" xmlns="http://www.w3.org/2000/svg">
<g clip-path="url(#clip0_1178_20072)">
<path d="M13 23.9986C11.4092 23.997 9.88399 23.3644 8.75911 22.2395C7.63424 21.1146 7.00159 19.5894 7 17.9986C7 16.4386 8.2 13.9536 10.552 10.6106C10.8313 10.2216 11.1991 9.90473 11.6252 9.68613C12.0512 9.46753 12.5232 9.35352 13.002 9.35352C13.4808 9.35352 13.9528 9.46753 14.3788 9.68613C14.8049 9.90473 15.1727 10.2216 15.452 10.6106C17.805 13.9536 19 16.4386 19 17.9986C18.9984 19.5894 18.3658 21.1146 17.2409 22.2395C16.116 23.3644 14.5908 23.997 13 23.9986V23.9986Z" fill="#374957"/>
<path d="M5 11C3.6744 10.9984 2.40356 10.4711 1.46622 9.5338C0.528882 8.59646 0.00158786 7.32561 0 6.00002C0 4.74002 0.842 3.14502 2.574 1.12302C2.87441 0.773767 3.24669 0.493497 3.66538 0.301364C4.08408 0.109231 4.53932 0.00976563 5 0.00976562C5.46068 0.00976563 5.91592 0.109231 6.33462 0.301364C6.75331 0.493497 7.12559 0.773767 7.426 1.12302C9.158 3.14302 10 4.73802 10 6.00002C9.99841 7.32561 9.47112 8.59646 8.53378 9.5338C7.59644 10.4711 6.3256 10.9984 5 11V11Z" fill="#374957"/>
<path d="M19.5 9.96392C18.3069 9.9626 17.1631 9.48806 16.3195 8.64444C15.4759 7.80081 15.0013 6.65699 15 5.46392C15 4.37292 15.7 2.95792 17.146 1.13792C17.429 0.785777 17.7874 0.501616 18.1948 0.306369C18.6022 0.111122 19.0482 0.00976563 19.5 0.00976562C19.9518 0.00976562 20.3978 0.111122 20.8052 0.306369C21.2126 0.501616 21.571 0.785777 21.854 1.13792C23.3 2.95792 24 4.37292 24 5.46392C23.9987 6.65699 23.5241 7.80081 22.6805 8.64444C21.8369 9.48806 20.6931 9.9626 19.5 9.96392Z" fill="#374957"/>
</g>
<defs>
<clipPath id="clip0_1178_20072">
<rect width="24" height="24" fill="white"/>
</clipPath>
</defs>
</svg>
