<svg width="24" height="24" viewBox="0 0 24 24" fill="none" xmlns="http://www.w3.org/2000/svg">
<g clip-path="url(#clip0_1178_19835)">
<path d="M18.3851 7.37289C18.2082 7.31928 18.0472 7.22302 17.9162 7.09259C17.7853 6.96216 17.6884 6.80155 17.6341 6.62489C17.3278 5.58693 16.8142 4.6219 16.1242 3.78818C15.4343 2.95447 14.5823 2.2694 13.62 1.77445C12.6576 1.27949 11.6048 0.984934 10.5253 0.908599C9.44586 0.832265 8.3621 0.975741 7.33966 1.33034C6.31722 1.68495 5.37736 2.24331 4.57694 2.97163C3.77652 3.69996 3.1322 4.58311 2.68295 5.56764C2.2337 6.55218 1.98888 7.61762 1.96329 8.6995C1.9377 9.78139 2.13188 10.8572 2.53407 11.8619C2.62614 12.0736 2.64556 12.3099 2.58931 12.5338C2.53305 12.7578 2.40428 12.9568 2.22307 13.0999C1.4268 13.6909 0.805119 14.4862 0.423825 15.4015C0.0425303 16.3169 -0.0841907 17.3184 0.0570735 18.2999C0.277527 19.6268 0.966398 20.8306 1.99866 21.693C3.03091 22.5553 4.33814 23.019 5.68307 22.9999H14.0001V15.4139L12.7071 16.7069C12.5185 16.889 12.2659 16.9898 12.0037 16.9876C11.7415 16.9853 11.4907 16.8801 11.3053 16.6947C11.1198 16.5093 11.0147 16.2585 11.0124 15.9963C11.0101 15.7341 11.1109 15.4815 11.2931 15.2929L12.8791 13.7069C13.4417 13.1445 14.2046 12.8285 15.0001 12.8285C15.7956 12.8285 16.5585 13.1445 17.1211 13.7069L18.7071 15.2929C18.8026 15.3851 18.8788 15.4955 18.9312 15.6175C18.9836 15.7395 19.0112 15.8707 19.0123 16.0035C19.0135 16.1363 18.9882 16.2679 18.9379 16.3908C18.8876 16.5137 18.8134 16.6254 18.7195 16.7193C18.6256 16.8132 18.5139 16.8874 18.391 16.9377C18.2681 16.988 18.1365 17.0133 18.0037 17.0121C17.8709 17.011 17.7397 16.9834 17.6177 16.931C17.4957 16.8786 17.3853 16.8024 17.2931 16.7069L16.0001 15.4139V22.9869C17.9905 22.9471 19.8982 22.1828 21.3655 20.8373C22.8329 19.4918 23.7593 17.6574 23.9711 15.6779C24.13 13.8635 23.6622 12.0495 22.6457 10.5382C21.6292 9.02697 20.1255 7.90977 18.3851 7.37289V7.37289Z" fill="#374957"/>
</g>
<defs>
<clipPath id="clip0_1178_19835">
<rect width="24" height="24" fill="white"/>
</clipPath>
</defs>
</svg>
