<svg width="24" height="24" viewBox="0 0 24 24" fill="none" xmlns="http://www.w3.org/2000/svg">
<g clip-path="url(#clip0_1178_19769)">
<path d="M0.291147 8.55157C0.075669 8.15189 -0.0241587 7.70007 0.00286712 7.24682C0.0298929 6.79356 0.182703 6.35681 0.444147 5.98557C0.871405 5.35868 1.44359 4.84413 2.11215 4.48557L9.61315 0.581567C10.3504 0.198198 11.1692 -0.00195313 12.0001 -0.00195312C12.8311 -0.00195313 13.6499 0.198198 14.3871 0.581567L21.8871 4.48857C22.5557 4.84713 23.1279 5.36168 23.5551 5.98857C23.8166 6.35981 23.9694 6.79656 23.9964 7.24982C24.0235 7.70307 23.9236 8.15489 23.7081 8.55457C23.4762 8.9934 23.1282 9.36017 22.7022 9.61496C22.2762 9.86974 21.7885 10.0028 21.2921 9.99957H2.70815C2.21131 10.0027 1.72315 9.86928 1.29694 9.61393C0.870718 9.35859 0.522805 8.99111 0.291147 8.55157V8.55157ZM23.0001 21.9996C23.0001 21.4691 22.7894 20.9604 22.4144 20.5854C22.0393 20.2103 21.5306 19.9996 21.0001 19.9996V11.9996H19.0001V19.9996H16.0001V11.9996H14.0001V19.9996H10.0001V11.9996H8.00015V19.9996H5.00015V11.9996H3.00015V19.9996C2.46971 19.9996 1.96101 20.2103 1.58593 20.5854C1.21086 20.9604 1.00015 21.4691 1.00015 21.9996C0.73493 21.9996 0.480576 22.1049 0.29304 22.2925C0.105504 22.48 0.000146694 22.7344 0.000146694 22.9996C0.000146694 23.2648 0.105504 23.5191 0.29304 23.7067C0.480576 23.8942 0.73493 23.9996 1.00015 23.9996H23.0001C23.2654 23.9996 23.5197 23.8942 23.7073 23.7067C23.8948 23.5191 24.0001 23.2648 24.0001 22.9996C24.0001 22.7344 23.8948 22.48 23.7073 22.2925C23.5197 22.1049 23.2654 21.9996 23.0001 21.9996Z" fill="#374957"/>
</g>
<defs>
<clipPath id="clip0_1178_19769">
<rect width="24" height="24" fill="white"/>
</clipPath>
</defs>
</svg>
