<svg width="24" height="24" viewBox="0 0 24 24" fill="none" xmlns="http://www.w3.org/2000/svg">
<g clip-path="url(#clip0_1178_19735)">
<path d="M12.0001 24.0001C11.8032 24.0005 11.6082 23.9619 11.4263 23.8865C11.2444 23.8112 11.0791 23.7006 10.9401 23.5611L3.26414 15.8891C2.23275 14.8577 1.65332 13.4588 1.65332 12.0001C1.65332 10.5415 2.23275 9.14257 3.26414 8.11113L10.9361 0.439127C11.2175 0.157865 11.5991 -9.37265e-05 11.997 4.17235e-08C12.3948 9.38099e-05 12.7764 0.158232 13.0576 0.439627C13.3389 0.721022 13.4969 1.10262 13.4968 1.50048C13.4967 1.89834 13.3385 2.27987 13.0571 2.56113L5.38514 10.2321C5.15293 10.4643 4.96872 10.7399 4.84304 11.0433C4.71736 11.3466 4.65268 11.6718 4.65268 12.0001C4.65268 12.3285 4.71736 12.6536 4.84304 12.957C4.96872 13.2603 5.15293 13.536 5.38514 13.7681L13.0571 21.4391C13.2668 21.6487 13.4097 21.9156 13.4678 22.2063C13.5258 22.497 13.4965 22.7984 13.3834 23.0724C13.2703 23.3464 13.0785 23.5808 12.8323 23.7459C12.5862 23.911 12.2966 23.9995 12.0001 24.0001V24.0001Z" fill="#374957"/>
<path d="M21.5421 23.9998C21.3451 23.9999 21.15 23.9612 20.968 23.8859C20.7859 23.8105 20.6205 23.7001 20.4811 23.5608L11.4001 14.4748C10.7449 13.8178 10.377 12.9277 10.377 11.9998C10.377 11.0719 10.7449 10.1819 11.4001 9.52483L20.4811 0.438833C20.7651 0.17062 21.1425 0.0237511 21.533 0.0294571C21.9236 0.0351631 22.2965 0.192993 22.5725 0.469387C22.8485 0.745782 23.0059 1.11894 23.011 1.50951C23.0162 1.90008 22.8688 2.27725 22.6001 2.56083L13.5141 11.6458C13.4676 11.6923 13.4306 11.7475 13.4054 11.8082C13.3802 11.8689 13.3672 11.9341 13.3672 11.9998C13.3672 12.0656 13.3802 12.1307 13.4054 12.1915C13.4306 12.2522 13.4676 12.3074 13.5141 12.3538L22.6001 21.4388C22.8099 21.6484 22.9528 21.9155 23.0108 22.2063C23.0688 22.4971 23.0394 22.7985 22.9262 23.0726C22.813 23.3466 22.6211 23.581 22.3747 23.746C22.1284 23.911 21.8387 23.9994 21.5421 23.9998V23.9998Z" fill="#374957"/>
</g>
<defs>
<clipPath id="clip0_1178_19735">
<rect width="24" height="24" fill="white"/>
</clipPath>
</defs>
</svg>
