<svg width="24" height="24" viewBox="0 0 24 24" fill="none" xmlns="http://www.w3.org/2000/svg">
<g clip-path="url(#clip0_1178_20109)">
<path d="M18.581 2.14024L12.316 0.0512408C12.1109 -0.0170803 11.8891 -0.0170803 11.684 0.0512408L5.418 2.14024C4.42209 2.47129 3.55582 3.10774 2.94224 3.95918C2.32866 4.81062 1.99897 5.83375 2 6.88324V12.0002C2 19.5632 11.2 23.7402 11.594 23.9142C11.7218 23.971 11.8601 24.0004 12 24.0004C12.1399 24.0004 12.2782 23.971 12.406 23.9142C12.8 23.7402 22 19.5632 22 12.0002V6.88324C22.001 5.83363 21.6711 4.8104 21.0574 3.95895C20.4436 3.1075 19.5771 2.47112 18.581 2.14024V2.14024ZM12 19.0002C11.8022 19.0002 11.6089 18.9416 11.4444 18.8317C11.28 18.7218 11.1518 18.5657 11.0761 18.3829C11.0004 18.2002 10.9806 17.9991 11.0192 17.8052C11.0578 17.6112 11.153 17.433 11.2929 17.2931C11.4327 17.1533 11.6109 17.058 11.8049 17.0195C11.9989 16.9809 12.2 17.0007 12.3827 17.0764C12.5654 17.1521 12.7216 17.2802 12.8315 17.4447C12.9414 17.6091 13 17.8025 13 18.0002C13 18.2655 12.8946 18.5198 12.7071 18.7074C12.5196 18.8949 12.2652 19.0002 12 19.0002ZM13.928 12.5572C13.6753 12.7132 13.4608 12.9237 13.3002 13.1734C13.1396 13.4231 13.0371 13.7057 13 14.0002C13 14.2655 12.8946 14.5198 12.7071 14.7073C12.5196 14.8949 12.2652 15.0002 12 15.0002C11.7348 15.0002 11.4804 14.8949 11.2929 14.7073C11.1054 14.5198 11 14.2655 11 14.0002C11.0371 13.3468 11.2359 12.7128 11.5785 12.1552C11.9212 11.5975 12.3969 11.1337 12.963 10.8052C13.3329 10.6025 13.629 10.2877 13.8087 9.90601C13.9884 9.52435 14.0424 9.09554 13.963 8.68124C13.886 8.28553 13.6925 7.92183 13.4075 7.63677C13.1224 7.35171 12.7587 7.15827 12.363 7.08124C12.0741 7.02793 11.7771 7.0389 11.4929 7.11337C11.2088 7.18785 10.9445 7.32401 10.7189 7.51217C10.4933 7.70032 10.312 7.93586 10.1877 8.20204C10.0635 8.46821 9.99938 8.75849 10 9.05224C10 9.31746 9.89465 9.57181 9.70711 9.75935C9.51957 9.94689 9.26522 10.0522 9 10.0522C8.73479 10.0522 8.48043 9.94689 8.2929 9.75935C8.10536 9.57181 8 9.31746 8 9.05224C7.9999 8.468 8.12779 7.89082 8.37467 7.3613C8.62155 6.83178 8.98143 6.36277 9.429 5.98724C9.85676 5.62965 10.3545 5.36542 10.8904 5.21152C11.4263 5.05763 11.9884 5.01745 12.5407 5.09358C13.0931 5.16972 13.6234 5.36047 14.0976 5.6536C14.5719 5.94674 14.9796 6.33578 15.2947 6.79576C15.6097 7.25575 15.8251 7.77652 15.9271 8.32465C16.029 8.87279 16.0153 9.43618 15.8867 9.97869C15.7581 10.5212 15.5175 11.0308 15.1804 11.4749C14.8432 11.9189 14.417 12.2876 13.929 12.5572H13.928Z" fill="#374957"/>
</g>
<defs>
<clipPath id="clip0_1178_20109">
<rect width="24" height="24" fill="white"/>
</clipPath>
</defs>
</svg>
