<svg width="24" height="24" viewBox="0 0 24 24" fill="none" xmlns="http://www.w3.org/2000/svg">
<g clip-path="url(#clip0_1178_20034)">
<path d="M23 20.0001H14.816C14.6666 19.5819 14.4262 19.202 14.1122 18.888C13.7981 18.5739 13.4182 18.3335 13 18.1841V14.0201C14.344 14.0201 15.52 14.0081 16.1 13.9971C16.4586 13.9901 16.8154 13.9462 17.165 13.8661C18.0657 13.6564 18.8897 13.1987 19.5436 12.5447C20.1975 11.8908 20.6553 11.0668 20.865 10.1661C21.1673 8.8995 20.9648 7.56494 20.3003 6.44503C19.6358 5.32512 18.5616 4.5078 17.305 4.16612L17.129 4.12312C16.829 4.05612 16.677 4.02312 16.541 3.69512C16.0573 2.52803 15.2176 1.54338 14.1415 0.881513C13.0654 0.219646 11.8079 -0.0856649 10.5481 0.00909347C9.2883 0.103852 8.09057 0.593844 7.12559 1.40923C6.16062 2.22463 5.47764 3.32381 5.174 4.55012C4.95775 5.44633 4.93864 6.37881 5.118 7.28312C4.45228 7.56947 3.89186 8.0554 3.51409 8.67385C3.13633 9.29229 2.95985 10.0127 3.00902 10.7358C3.05819 11.4588 3.33058 12.1487 3.78859 12.7103C4.2466 13.2719 4.86764 13.6775 5.566 13.8711C5.83814 13.9459 6.11798 13.9892 6.4 14.0001C7.053 14.0181 8.949 14.0261 10.921 14.0261H11V18.1871C10.5821 18.3362 10.2024 18.5761 9.88837 18.8897C9.57435 19.2032 9.33378 19.5824 9.184 20.0001H1C0.734784 20.0001 0.48043 20.1055 0.292893 20.293C0.105357 20.4806 0 20.7349 0 21.0001C0 21.2653 0.105357 21.5197 0.292893 21.7072C0.48043 21.8948 0.734784 22.0001 1 22.0001H9.184C9.38765 22.5847 9.76815 23.0914 10.2727 23.4499C10.7773 23.8084 11.381 24.0011 12 24.0011C12.619 24.0011 13.2227 23.8084 13.7273 23.4499C14.2318 23.0914 14.6124 22.5847 14.816 22.0001H23C23.2652 22.0001 23.5196 21.8948 23.7071 21.7072C23.8946 21.5197 24 21.2653 24 21.0001C24 20.7349 23.8946 20.4806 23.7071 20.293C23.5196 20.1055 23.2652 20.0001 23 20.0001Z" fill="#374957"/>
</g>
<defs>
<clipPath id="clip0_1178_20034">
<rect width="24" height="24" fill="white"/>
</clipPath>
</defs>
</svg>
