<svg width="24" height="24" viewBox="0 0 24 24" fill="none" xmlns="http://www.w3.org/2000/svg">
<g clip-path="url(#clip0_1178_19750)">
<path d="M7 0H4C1.79086 0 0 1.79086 0 4V7C0 9.20914 1.79086 11 4 11H7C9.20914 11 11 9.20914 11 7V4C11 1.79086 9.20914 0 7 0Z" fill="#374957"/>
<path d="M7 13H4C1.79086 13 0 14.7909 0 17V20C0 22.2092 1.79086 24 4 24H7C9.20914 24 11 22.2092 11 20V17C11 14.7909 9.20914 13 7 13Z" fill="#374957"/>
<path d="M22.2931 19.1254L20.0001 21.4154V2.58341L22.2931 4.87341C22.386 4.96625 22.4963 5.03989 22.6176 5.09011C22.739 5.14033 22.8691 5.16616 23.0004 5.16611C23.1318 5.16606 23.2618 5.14015 23.3831 5.08984C23.5045 5.03953 23.6147 4.96582 23.7076 4.87291C23.8004 4.78 23.874 4.66971 23.9243 4.54834C23.9745 4.42697 24.0003 4.2969 24.0003 4.16555C24.0002 4.0342 23.9743 3.90415 23.924 3.78282C23.8737 3.66149 23.8 3.55125 23.7071 3.45841L21.1201 0.875407C20.5576 0.313605 19.7951 -0.00195313 19.0001 -0.00195312C18.2051 -0.00195312 17.4426 0.313605 16.8801 0.875407L14.2931 3.45841C14.2002 3.55125 14.1264 3.66149 14.0761 3.78282C14.0258 3.90415 13.9999 4.0342 13.9999 4.16555C13.9998 4.2969 14.0256 4.42697 14.0759 4.54834C14.1261 4.66971 14.1997 4.78 14.2926 4.87291C14.3854 4.96582 14.4956 5.03953 14.617 5.08984C14.7383 5.14015 14.8684 5.16606 14.9997 5.16611C15.1311 5.16616 15.2611 5.14033 15.3825 5.09011C15.5039 5.03989 15.6142 4.96625 15.7071 4.87341L18.0001 2.58341V21.4154L15.7071 19.1254C15.6141 19.0326 15.5037 18.9589 15.3823 18.9087C15.2609 18.8585 15.1308 18.8328 14.9994 18.8329C14.868 18.8329 14.7379 18.8589 14.6165 18.9093C14.4952 18.9597 14.3849 19.0334 14.2921 19.1264C14.1992 19.2194 14.1256 19.3297 14.0754 19.4512C14.0252 19.5726 13.9994 19.7027 13.9995 19.8341C13.9996 19.9655 14.0256 20.0956 14.0759 20.217C14.1263 20.3383 14.2001 20.4486 14.2931 20.5414L16.8801 23.1244C17.4433 23.6847 18.2055 23.9993 19.0001 23.9993C19.7946 23.9993 20.5568 23.6847 21.1201 23.1244L23.7071 20.5414C23.8948 20.3539 24.0004 20.0995 24.0006 19.8341C24.0008 19.5688 23.8956 19.3142 23.7081 19.1264C23.5205 18.9386 23.2661 18.833 23.0008 18.8329C22.7354 18.8327 22.4808 18.9379 22.2931 19.1254V19.1254Z" fill="#374957"/>
</g>
<defs>
<clipPath id="clip0_1178_19750">
<rect width="24" height="24" fill="white"/>
</clipPath>
</defs>
</svg>
