<svg width="24" height="24" viewBox="0 0 24 24" fill="none" xmlns="http://www.w3.org/2000/svg">
<g clip-path="url(#clip0_1178_20110)">
<path d="M18.581 2.14024L12.316 0.0512408C12.1109 -0.0170803 11.8891 -0.0170803 11.684 0.0512408L5.419 2.14024C4.42291 2.47112 3.55642 3.1075 2.94265 3.95895C2.32887 4.8104 1.99904 5.83363 2 6.88324V12.0002C2 19.5632 11.2 23.7402 11.594 23.9142C11.7218 23.971 11.8601 24.0004 12 24.0004C12.1399 24.0004 12.2782 23.971 12.406 23.9142C12.8 23.7402 22 19.5632 22 12.0002V6.88324C22.001 5.83363 21.6711 4.8104 21.0574 3.95895C20.4436 3.1075 19.5771 2.47112 18.581 2.14024V2.14024ZM15 12.0002H13V14.0002C13 14.2655 12.8946 14.5198 12.7071 14.7073C12.5196 14.8949 12.2652 15.0002 12 15.0002C11.7348 15.0002 11.4804 14.8949 11.2929 14.7073C11.1054 14.5198 11 14.2655 11 14.0002V12.0002H9C8.73479 12.0002 8.48043 11.8949 8.2929 11.7073C8.10536 11.5198 8 11.2655 8 11.0002C8 10.735 8.10536 10.4807 8.2929 10.2931C8.48043 10.1056 8.73479 10.0002 9 10.0002H11V8.00024C11 7.73503 11.1054 7.48067 11.2929 7.29314C11.4804 7.1056 11.7348 7.00024 12 7.00024C12.2652 7.00024 12.5196 7.1056 12.7071 7.29314C12.8946 7.48067 13 7.73503 13 8.00024V10.0002H15C15.2652 10.0002 15.5196 10.1056 15.7071 10.2931C15.8946 10.4807 16 10.735 16 11.0002C16 11.2655 15.8946 11.5198 15.7071 11.7073C15.5196 11.8949 15.2652 12.0002 15 12.0002Z" fill="#374957"/>
</g>
<defs>
<clipPath id="clip0_1178_20110">
<rect width="24" height="24" fill="white"/>
</clipPath>
</defs>
</svg>
