<svg width="24" height="24" viewBox="0 0 24 24" fill="none" xmlns="http://www.w3.org/2000/svg">
<path d="M14.181 0.208459C14.0368 0.181922 13.8885 0.187416 13.7467 0.224551C13.6049 0.261686 13.4729 0.329554 13.3603 0.423348C13.2476 0.517141 13.1569 0.634566 13.0946 0.767304C13.0324 0.900042 13.0001 1.04485 13 1.19146V4.07046C11.3317 3.85045 9.63633 4.15859 8.15213 4.9516C6.66793 5.74461 5.46943 6.98264 4.72499 8.49179C3.98056 10.0009 3.72758 11.7054 4.00161 13.3657C4.27563 15.026 5.06289 16.5588 6.25279 17.7487C7.44269 18.9386 8.97545 19.7258 10.6358 19.9998C12.2961 20.2739 14.0005 20.0209 15.5097 19.2765C17.0188 18.532 18.2568 17.3335 19.0499 15.8493C19.8429 14.3651 20.151 12.6698 19.931 11.0015H22.817C22.9636 11.0014 23.1084 10.9691 23.2412 10.9068C23.3739 10.8446 23.4913 10.7539 23.5851 10.6412C23.6789 10.5285 23.7468 10.3966 23.7839 10.2547C23.821 10.1129 23.8265 9.96465 23.8 9.82046C23.3511 7.43597 22.1927 5.2426 20.4764 3.52752C18.76 1.81244 16.5658 0.655597 14.181 0.208459V0.208459ZM16 13.0015H13.723C13.5703 13.2667 13.3586 13.4932 13.1042 13.6635C12.8499 13.8337 12.5598 13.9431 12.2564 13.9833C11.953 14.0234 11.6444 13.9931 11.3546 13.8948C11.0647 13.7966 10.8014 13.6329 10.585 13.4164C10.3686 13.2 10.2049 12.9367 10.1066 12.6469C10.0083 12.357 9.97806 12.0485 10.0182 11.7451C10.0583 11.4416 10.1677 11.1515 10.338 10.8972C10.5083 10.6429 10.7348 10.4312 11 10.2785V7.00146C11 6.73624 11.1054 6.48189 11.2929 6.29435C11.4804 6.10682 11.7348 6.00146 12 6.00146C12.2652 6.00146 12.5196 6.10682 12.7071 6.29435C12.8946 6.48189 13 6.73624 13 7.00146V10.2785C13.2996 10.4527 13.5487 10.7019 13.723 11.0015H16C16.2652 11.0015 16.5196 11.1068 16.7071 11.2944C16.8946 11.4819 17 11.7362 17 12.0015C17 12.2667 16.8946 12.521 16.7071 12.7086C16.5196 12.8961 16.2652 13.0015 16 13.0015V13.0015ZM2.986 4.96946C3.18011 5.00636 3.35894 5.09995 3.49991 5.2384C3.64089 5.37685 3.73769 5.55396 3.77809 5.74738C3.81849 5.9408 3.80069 6.14185 3.72693 6.32516C3.65317 6.50847 3.52676 6.66581 3.36365 6.77734C3.20054 6.88887 3.00805 6.94958 2.81047 6.9518C2.61289 6.95402 2.41908 6.89766 2.25351 6.78983C2.08793 6.682 1.95801 6.52754 1.88014 6.34594C1.80228 6.16434 1.77995 5.96374 1.816 5.76946C1.84002 5.63997 1.88938 5.51651 1.96125 5.40615C2.03312 5.29579 2.12608 5.20071 2.23479 5.12638C2.3435 5.05205 2.46583 4.99992 2.59474 4.97299C2.72365 4.94606 2.85662 4.94486 2.986 4.96946ZM1.386 8.95646C1.58011 8.99336 1.75894 9.08695 1.89991 9.2254C2.04089 9.36385 2.13769 9.54096 2.17809 9.73438C2.21849 9.9278 2.20069 10.1289 2.12693 10.3122C2.05317 10.4955 1.92676 10.6528 1.76365 10.7643C1.60054 10.8759 1.40805 10.9366 1.21047 10.9388C1.01289 10.941 0.819082 10.8847 0.653505 10.7768C0.487929 10.669 0.358008 10.5145 0.280142 10.3329C0.202275 10.1513 0.179954 9.95074 0.215995 9.75646C0.240035 9.62728 0.289299 9.5041 0.360971 9.39396C0.432644 9.28383 0.525319 9.1889 0.633699 9.1146C0.74208 9.04031 0.86404 8.9881 0.992609 8.96096C1.12118 8.93383 1.25383 8.9323 1.383 8.95646H1.386ZM10.128 21.8245C10.3223 21.8616 10.5012 21.9556 10.642 22.0944C10.7829 22.2332 10.8795 22.4107 10.9195 22.6044C10.9595 22.7981 10.9411 22.9994 10.8668 23.1826C10.7924 23.3659 10.6653 23.523 10.5017 23.6341C10.338 23.7452 10.1451 23.8052 9.94728 23.8066C9.74949 23.808 9.55572 23.7508 9.39048 23.6421C9.22524 23.5333 9.09596 23.3781 9.01898 23.1959C8.94199 23.0137 8.92077 22.8127 8.958 22.6185C9.00793 22.3587 9.15877 22.1292 9.3775 21.9804C9.59623 21.8316 9.86501 21.7755 10.125 21.8245H10.128ZM6.008 1.90146C6.20211 1.93836 6.38094 2.03195 6.52191 2.1704C6.66289 2.30885 6.75969 2.48596 6.80009 2.67938C6.84049 2.8728 6.82269 3.07385 6.74893 3.25716C6.67517 3.44047 6.54876 3.59782 6.38565 3.70934C6.22254 3.82087 6.03005 3.88158 5.83247 3.8838C5.63489 3.88602 5.44108 3.82966 5.27551 3.72183C5.10993 3.614 4.98001 3.45954 4.90214 3.27794C4.82428 3.09634 4.80195 2.89574 4.838 2.70146C4.86202 2.57197 4.91138 2.44851 4.98325 2.33815C5.05512 2.22779 5.14808 2.13271 5.25679 2.05838C5.3655 1.98405 5.48783 1.93192 5.61674 1.90499C5.74565 1.87806 5.87862 1.87686 6.008 1.90146V1.90146ZM10.182 0.210459C10.3758 0.250818 10.5533 0.347789 10.6919 0.489091C10.8306 0.630392 10.9241 0.809664 10.9608 1.0042C10.9975 1.19873 10.9756 1.39978 10.8979 1.58186C10.8202 1.76394 10.6903 1.91887 10.5245 2.02703C10.3587 2.13518 10.1645 2.19169 9.96653 2.18939C9.76858 2.18709 9.57577 2.1261 9.41251 2.01413C9.24926 1.90216 9.12291 1.74426 9.04948 1.56042C8.97604 1.37659 8.95882 1.17509 9 0.981459C9.05501 0.722758 9.21027 0.496386 9.43179 0.351889C9.65332 0.207391 9.92306 0.156538 10.182 0.210459V0.210459ZM0.233995 14.0475C0.270901 13.8533 0.364486 13.6745 0.502937 13.5335C0.641389 13.3926 0.818501 13.2958 1.01192 13.2554C1.20534 13.215 1.40639 13.2328 1.58969 13.3065C1.773 13.3803 1.93035 13.5067 2.04188 13.6698C2.15341 13.8329 2.21411 14.0254 2.21633 14.223C2.21856 14.4206 2.1622 14.6144 2.05437 14.7799C1.94654 14.9455 1.79208 15.0754 1.61047 15.1533C1.42887 15.2312 1.22827 15.2535 1.034 15.2175C0.904508 15.1934 0.781042 15.1441 0.670684 15.0722C0.560326 15.0003 0.465251 14.9074 0.390918 14.7987C0.316584 14.69 0.264456 14.5676 0.237527 14.4387C0.210598 14.3098 0.209398 14.1768 0.233995 14.0475V14.0475ZM1.915 18.0105C1.9519 17.8163 2.04549 17.6375 2.18394 17.4965C2.32239 17.3556 2.4995 17.2588 2.69292 17.2184C2.88633 17.178 3.08739 17.1958 3.27069 17.2695C3.454 17.3433 3.61135 17.4697 3.72288 17.6328C3.8344 17.7959 3.89511 17.9884 3.89733 18.186C3.89956 18.3836 3.8432 18.5774 3.73537 18.7429C3.62754 18.9085 3.47308 19.0384 3.29147 19.1163C3.10987 19.1942 2.90927 19.2165 2.715 19.1805C2.58551 19.1564 2.46204 19.1071 2.35168 19.0352C2.24133 18.9633 2.14625 18.8704 2.07192 18.7617C1.99758 18.653 1.94546 18.5306 1.91853 18.4017C1.8916 18.2728 1.8904 18.1398 1.915 18.0105V18.0105ZM4.967 21.0015C5.0039 20.8073 5.09749 20.6285 5.23594 20.4875C5.37439 20.3466 5.5515 20.2498 5.74492 20.2094C5.93833 20.169 6.13939 20.1868 6.32269 20.2605C6.506 20.3343 6.66335 20.4607 6.77488 20.6238C6.8864 20.7869 6.94711 20.9794 6.94933 21.177C6.95156 21.3746 6.8952 21.5684 6.78737 21.7339C6.67954 21.8995 6.52508 22.0294 6.34347 22.1073C6.16187 22.1852 5.96127 22.2075 5.767 22.1715C5.63751 22.1474 5.51404 22.0981 5.40368 22.0262C5.29333 21.9543 5.19825 21.8614 5.12392 21.7527C5.04958 21.644 4.99746 21.5216 4.97053 21.3927C4.9436 21.2638 4.9424 21.1308 4.967 21.0015V21.0015ZM21.014 19.0345C20.8199 18.9976 20.6411 18.904 20.5001 18.7655C20.3591 18.6271 20.2623 18.45 20.2219 18.2565C20.1815 18.0631 20.1993 17.8621 20.2731 17.6788C20.3468 17.4955 20.4732 17.3381 20.6363 17.2266C20.7994 17.115 20.9919 17.0543 21.1895 17.0521C21.3871 17.0499 21.5809 17.1063 21.7465 17.2141C21.9121 17.3219 22.042 17.4764 22.1199 17.658C22.1977 17.8396 22.22 18.0402 22.184 18.2345C22.1599 18.3639 22.1104 18.4872 22.0385 18.5975C21.9666 18.7077 21.8736 18.8027 21.7649 18.8769C21.6562 18.9511 21.5339 19.0032 21.4051 19.03C21.2762 19.0569 21.1433 19.0581 21.014 19.0335V19.0345ZM17.992 22.1015C17.7979 22.0646 17.6191 21.971 17.4781 21.8325C17.3371 21.6941 17.2403 21.517 17.1999 21.3235C17.1595 21.1301 17.1773 20.9291 17.2511 20.7458C17.3248 20.5625 17.4512 20.4051 17.6143 20.2936C17.7774 20.1821 17.9699 20.1213 18.1675 20.1191C18.3651 20.1169 18.5589 20.1733 18.7245 20.2811C18.8901 20.3889 19.02 20.5434 19.0978 20.725C19.1757 20.9066 19.198 21.1072 19.162 21.3015C19.138 21.4309 19.0886 21.5544 19.0167 21.6648C18.9449 21.7751 18.8519 21.8702 18.7432 21.9445C18.6345 22.0189 18.5122 22.071 18.3833 22.0979C18.2543 22.1249 18.1214 22.1261 17.992 22.1015V22.1015ZM14.053 23.7575C13.8587 23.7203 13.6799 23.6265 13.539 23.4877C13.3981 23.3489 13.3015 23.1715 13.2614 22.9778C13.2214 22.7842 13.2396 22.583 13.3139 22.3997C13.3881 22.2164 13.5151 22.0593 13.6787 21.9481C13.8422 21.837 14.0351 21.7768 14.2328 21.7753C14.4306 21.7737 14.6244 21.8308 14.7897 21.9394C14.955 22.048 15.0844 22.2031 15.1615 22.3852C15.2386 22.5673 15.26 22.7682 15.223 22.9625C15.1724 23.2223 15.0208 23.4515 14.8015 23.5998C14.5822 23.7481 14.313 23.8033 14.053 23.7535V23.7575ZM23.712 14.0015C23.712 14.1992 23.6533 14.3926 23.5435 14.557C23.4336 14.7215 23.2774 14.8497 23.0947 14.9253C22.912 15.001 22.7109 15.0208 22.5169 14.9822C22.3229 14.9437 22.1447 14.8484 22.0049 14.7086C21.865 14.5687 21.7698 14.3905 21.7312 14.1965C21.6926 14.0026 21.7124 13.8015 21.7881 13.6188C21.8638 13.436 21.992 13.2799 22.1564 13.17C22.3209 13.0601 22.5142 13.0015 22.712 13.0015C22.9772 13.0015 23.2316 13.1068 23.4191 13.2944C23.6066 13.4819 23.712 13.7362 23.712 14.0015Z" fill="#374957"/>
</svg>
