<svg width="24" height="24" viewBox="0 0 24 24" fill="none" xmlns="http://www.w3.org/2000/svg">
<path d="M13.1179 0.0598281C15.9017 0.316344 18.508 1.53902 20.4849 3.51584C22.4617 5.49267 23.6844 8.09897 23.9409 10.8828C22.4687 11.1021 20.9657 10.9738 19.5521 10.5081C18.1384 10.0423 16.8534 9.25219 15.7999 8.20083C14.7483 7.14748 13.9579 5.86249 13.4922 4.4488C13.0265 3.0351 12.8983 1.53198 13.1179 0.0598281V0.0598281ZM22.5519 13.0008C20.9173 13.0016 19.3012 12.6547 17.8109 11.9833C16.3206 11.3118 14.9901 10.3312 13.9077 9.10633C12.8253 7.88149 12.0157 6.44049 11.5327 4.87892C11.0496 3.31735 10.9041 1.67091 11.1059 0.0488281C8.23786 0.254181 5.54026 1.48752 3.50863 3.52226C1.47701 5.55701 0.247822 8.2565 0.046875 11.1248C1.78812 10.8831 3.56169 11.0483 5.22834 11.6075C6.89498 12.1666 8.40931 13.1045 9.65241 14.3475C10.8955 15.5906 11.8335 17.1048 12.3928 18.7714C12.9521 20.438 13.1175 22.2116 12.8759 23.9528C15.7422 23.7526 18.4401 22.5254 20.4745 20.4963C22.5088 18.4673 23.7432 15.7726 23.9509 12.9068C23.4869 12.9664 23.0197 12.9978 22.5519 13.0008V13.0008ZM8.23888 15.7618C7.18162 14.7067 5.88846 13.9184 4.46626 13.462C3.04407 13.0055 1.53366 12.8941 0.059875 13.1368C0.321188 15.9128 1.54298 18.5106 3.51456 20.4821C5.48614 22.4537 8.08391 23.6755 10.8599 23.9368C11.1029 22.464 10.9919 20.9544 10.5362 19.5329C10.0804 18.1114 9.29299 16.8188 8.23888 15.7618V15.7618Z" fill="#374957"/>
</svg>
