<svg width="24" height="24" viewBox="0 0 24 24" fill="none" xmlns="http://www.w3.org/2000/svg">
<g clip-path="url(#clip0_1178_20009)">
<path d="M12 0.0429688C9.35398 0.0458798 6.81712 1.09824 4.94598 2.9692C3.07484 4.84015 2.02222 7.37691 2.01904 10.023C2.01904 12.593 4.00904 16.615 7.93404 21.977C8.4013 22.6171 9.0131 23.1379 9.71964 23.4969C10.4262 23.8559 11.2075 24.043 12 24.043C12.7926 24.043 13.5739 23.8559 14.2804 23.4969C14.987 23.1379 15.5988 22.6171 16.066 21.977C19.991 16.615 21.981 12.593 21.981 10.023C21.9779 7.37691 20.9252 4.84015 19.0541 2.9692C17.183 1.09824 14.6461 0.0458798 12 0.0429688V0.0429688ZM12 14.001C11.2089 14.001 10.4356 13.7664 9.77776 13.3268C9.11997 12.8873 8.60727 12.2626 8.30452 11.5317C8.00177 10.8008 7.92256 9.99653 8.0769 9.22061C8.23124 8.44468 8.61221 7.73195 9.17162 7.17254C9.73103 6.61313 10.4438 6.23217 11.2197 6.07783C11.9956 5.92349 12.7999 6.0027 13.5308 6.30545C14.2617 6.6082 14.8864 7.12089 15.3259 7.77869C15.7654 8.43649 16 9.20984 16 10.001C16 11.0618 15.5786 12.0793 14.8285 12.8294C14.0783 13.5795 13.0609 14.001 12 14.001Z" fill="#374957"/>
</g>
<defs>
<clipPath id="clip0_1178_20009">
<rect width="24" height="24" fill="white"/>
</clipPath>
</defs>
</svg>
