<svg width="24" height="24" viewBox="0 0 24 24" fill="none" xmlns="http://www.w3.org/2000/svg">
<g clip-path="url(#clip0_1178_19814)">
<path d="M21.018 13.4267C20.2467 13.4268 19.5058 13.7274 18.9524 14.2646L17.7755 13.6761C18.7362 10.5255 16.9609 7.19263 13.8102 6.23197C12.6577 5.88059 11.4258 5.8865 10.2768 6.24889L9.58691 5.00338C10.6942 3.79091 10.6089 1.91038 9.39645 0.803141C8.18398 -0.30414 6.3035 -0.218875 5.19622 0.993594C4.08894 2.20606 4.1742 4.08655 5.38667 5.19383C5.9367 5.69614 6.65525 5.97369 7.40009 5.97153C7.54306 5.96745 7.68556 5.95316 7.82651 5.92878L8.51037 7.16431C5.92011 9.08652 5.33881 12.7254 7.20125 15.3589L4.3047 18.1421C2.76805 17.4539 0.964483 18.1417 0.276311 19.6784C-0.411861 21.215 0.275936 23.0186 1.81259 23.7068C3.34925 24.395 5.15281 23.7072 5.84098 22.1705C6.22442 21.3143 6.19231 20.3293 5.75398 19.4999L8.59287 16.7713C11.2456 18.6927 14.9534 18.1014 16.877 15.4503L18.0698 16.0467C18.0509 16.1665 18.0397 16.2873 18.036 16.4085C18.036 18.0554 19.3711 19.3906 21.018 19.3906C22.665 19.3906 24 18.0556 24 16.4087C24 14.7618 22.6649 13.4267 21.018 13.4267Z" fill="#374957"/>
</g>
<defs>
<clipPath id="clip0_1178_19814">
<rect width="24" height="24" fill="white"/>
</clipPath>
</defs>
</svg>
