<svg width="24" height="24" viewBox="0 0 24 24" fill="none" xmlns="http://www.w3.org/2000/svg">
<g clip-path="url(#clip0_1178_19960)">
<path d="M16.2432 10.7635C15.118 9.6382 13.5918 9.00595 12.0005 9.00586C10.4092 9.00577 8.88297 9.63783 7.75765 10.763C6.63234 11.8882 6.00009 13.4143 6 15.0057C5.99991 16.597 6.63197 18.1232 7.75715 19.2485L11.2642 22.6785C11.4609 22.8708 11.7251 22.9784 12.0002 22.9784C12.2752 22.9784 12.5394 22.8708 12.7362 22.6785L16.2432 19.2485C17.3683 18.1233 18.0004 16.5972 18.0004 15.006C18.0004 13.4148 17.3683 11.8887 16.2432 10.7635ZM12.0002 16.9935C11.6046 16.9935 11.2179 16.8762 10.889 16.6565C10.5601 16.4367 10.3038 16.1243 10.1524 15.7589C10.001 15.3934 9.96141 14.9913 10.0386 14.6033C10.1158 14.2154 10.3062 13.859 10.5859 13.5793C10.8656 13.2996 11.222 13.1091 11.61 13.0319C11.9979 12.9548 12.4001 12.9944 12.7655 13.1458C13.131 13.2971 13.4433 13.5535 13.6631 13.8824C13.8829 14.2113 14.0002 14.598 14.0002 14.9935C14.0002 15.5239 13.7894 16.0327 13.4144 16.4077C13.0393 16.7828 12.5306 16.9935 12.0002 16.9935Z" fill="#374957"/>
<path d="M21.8 5.57963L14.8 0.855631C13.9741 0.294288 12.9986 -0.00585937 12 -0.00585938C11.0014 -0.00585937 10.0259 0.294288 9.2 0.855631L2.2 5.57963C1.52172 6.03736 0.966334 6.65479 0.582708 7.37757C0.199083 8.10036 -0.00102096 8.90635 3.91707e-06 9.72463V19.0006C0.00159177 20.3262 0.528886 21.5971 1.46622 22.5344C2.40356 23.4718 3.67441 23.999 5 24.0006H9.754L6.359 20.6796C5.60791 19.9394 5.01058 19.058 4.60136 18.0861C4.19215 17.1141 3.97914 16.0709 3.97458 15.0163C3.97001 13.9618 4.17399 12.9167 4.57477 11.9413C4.97556 10.9659 5.56524 10.0793 6.3099 9.33262C7.05456 8.58592 7.93951 7.99381 8.91384 7.59035C9.88816 7.1869 10.9326 6.98006 11.9872 6.98173C13.0418 6.9834 14.0856 7.19356 15.0586 7.6001C16.0317 8.00665 16.9147 8.60157 17.657 9.35063V9.35063C19.1571 10.8509 19.9998 12.8856 19.9998 15.0071C19.9998 17.1287 19.1571 19.1634 17.657 20.6636L14.245 24.0006H19C20.3256 23.999 21.5964 23.4718 22.5338 22.5344C23.4711 21.5971 23.9984 20.3262 24 19.0006V9.72463C24.0004 8.90646 23.8001 8.10069 23.4165 7.37801C23.0329 6.65532 22.4779 6.03781 21.8 5.57963V5.57963Z" fill="#374957"/>
</g>
<defs>
<clipPath id="clip0_1178_19960">
<rect width="24" height="24" fill="white"/>
</clipPath>
</defs>
</svg>
