<svg width="24" height="24" viewBox="0 0 24 24" fill="none" xmlns="http://www.w3.org/2000/svg">
<g clip-path="url(#clip0_1178_19818)">
<path d="M11.9671 9.73136C13.9782 8.21242 16.5792 7.71002 19.0113 8.37067C19.0283 8.17159 19.0472 7.9825 19.0472 7.78441C19.0476 3.86317 15.8692 0.684063 11.948 0.683594C8.02679 0.683125 4.84768 3.86153 4.84717 7.78272V7.78441C4.84717 7.98348 4.86611 8.18256 4.88401 8.38164C7.32667 7.70978 9.94276 8.20825 11.9671 9.73136Z" fill="#374957"/>
<path d="M11.2188 13.8353C11.7148 13.8948 12.2163 13.8928 12.7118 13.8294C12.517 13.3645 12.2659 12.9253 11.9643 12.5215C11.6632 12.9274 11.4128 13.3687 11.2188 13.8353Z" fill="#374957"/>
<path d="M21.0449 10.4718C20.655 10.1909 20.2376 9.95036 19.7991 9.75391C19.1751 12.2004 17.4503 14.2182 15.1308 15.2155C15.1728 15.5387 15.1947 15.8641 15.1965 16.19C15.2009 18.3693 14.3204 20.457 12.7568 21.9751C15.9334 24.2637 20.3638 23.544 22.6525 20.3674C24.9412 17.191 24.2215 12.7605 21.0449 10.4718Z" fill="#374957"/>
<path d="M8.74024 16.1912C8.7415 15.8717 8.76245 15.5526 8.80295 15.2357C6.47186 14.2539 4.73172 12.2414 4.09684 9.79297C0.54447 11.4417 -0.998749 15.6579 0.649938 19.2102C2.29858 22.7625 6.51484 24.3057 10.0672 22.6571C10.4646 22.4727 10.8441 22.2517 11.2008 21.9972C9.62425 20.4777 8.73564 18.3809 8.74024 16.1912Z" fill="#374957"/>
<path d="M13.1906 15.7832C12.3807 15.9089 11.5565 15.9113 10.7459 15.7902C10.736 15.9246 10.731 16.0589 10.731 16.1883C10.7277 17.5185 11.1625 18.8128 11.9682 19.8712C12.7741 18.8129 13.2089 17.5186 13.2055 16.1883C13.2055 16.057 13.2005 15.9196 13.1906 15.7832Z" fill="#374957"/>
<path d="M9.28471 13.2802C9.58321 12.503 9.99988 11.7764 10.52 11.1262C9.28072 10.2801 7.77383 9.91877 6.28564 10.111C6.86371 11.4988 7.93082 12.6265 9.28471 13.2802Z" fill="#374957"/>
<path d="M13.4155 11.1269C13.9322 11.772 14.3465 12.4928 14.6438 13.264C15.9785 12.6052 17.0291 11.4849 17.601 10.1107C16.1287 9.92824 14.6403 10.2896 13.4155 11.1269Z" fill="#374957"/>
</g>
<defs>
<clipPath id="clip0_1178_19818">
<rect width="24" height="24" fill="white"/>
</clipPath>
</defs>
</svg>
