<svg width="24" height="24" viewBox="0 0 24 24" fill="none" xmlns="http://www.w3.org/2000/svg">
<path d="M17.7918 7.21123C17.3475 5.30051 16.2165 3.61967 14.614 2.48821C13.0114 1.35675 11.049 0.853546 9.09978 1.07425C7.15052 1.29494 5.3503 2.22416 4.0413 3.68527C2.7323 5.14638 2.00578 7.03753 1.99984 8.99923C1.99898 10.2776 2.30778 11.5372 2.89984 12.6702C1.82097 13.2484 0.966239 14.1705 0.471458 15.29C-0.0233229 16.4096 -0.129776 17.6624 0.16901 18.8494C0.467797 20.0364 1.15469 21.0894 2.12054 21.8413C3.0864 22.5932 4.27582 23.0008 5.49984 22.9992H15.9998C17.9589 22.9901 19.8466 22.2625 21.3049 20.9543C22.7632 19.646 23.6907 17.8482 23.9117 15.9016C24.1326 13.9549 23.6316 11.9949 22.5036 10.3931C21.3756 8.79136 19.6991 7.65916 17.7918 7.21123V7.21123Z" fill="#374957"/>
</svg>
