<svg width="24" height="24" viewBox="0 0 24 24" fill="none" xmlns="http://www.w3.org/2000/svg">
<g clip-path="url(#clip0_1178_20049)">
<path d="M19.9999 7.00062V1.00062C19.9999 0.735403 20.1053 0.481049 20.2928 0.293512C20.4804 0.105976 20.7347 0.000619045 20.9999 0.000619045C21.2652 0.000619045 21.5195 0.105976 21.7071 0.293512C21.8946 0.481049 21.9999 0.735403 21.9999 1.00062V7.00062C21.9999 7.26584 21.8946 7.52019 21.7071 7.70773C21.5195 7.89526 21.2652 8.00062 20.9999 8.00062C20.7347 8.00062 20.4804 7.89526 20.2928 7.70773C20.1053 7.52019 19.9999 7.26584 19.9999 7.00062ZM16.9999 8.00062C17.2652 8.00062 17.5195 7.89526 17.7071 7.70773C17.8946 7.52019 17.9999 7.26584 17.9999 7.00062V1.00062C17.9999 0.735403 17.8946 0.481049 17.7071 0.293512C17.5195 0.105976 17.2652 0.000619045 16.9999 0.000619045C16.7347 0.000619045 16.4804 0.105976 16.2928 0.293512C16.1053 0.481049 15.9999 0.735403 15.9999 1.00062V7.00062C15.9999 7.26584 16.1053 7.52019 16.2928 7.70773C16.4804 7.89526 16.7347 8.00062 16.9999 8.00062ZM23.0939 16.7386C23.0639 16.7076 20.6569 14.8556 20.6569 14.8556C20.0793 14.3055 19.3118 13.9992 18.514 14.0005C17.7163 14.0018 16.9498 14.3106 16.3739 14.8626L14.4739 16.4686C12.917 15.8253 11.5026 14.8805 10.3121 13.6886C9.12162 12.4968 8.17848 11.0813 7.53695 9.52362L9.13695 7.62362C9.6878 7.04763 9.99566 6.28162 9.99659 5.48462C9.99752 4.68762 9.69146 3.92089 9.14195 3.34362C9.14195 3.34362 7.29195 0.940619 7.25995 0.909619C6.68975 0.334454 5.91595 0.00702546 5.10609 -0.00177121C4.29624 -0.0105679 3.5155 0.299976 2.93295 0.862619L1.78395 1.86262C-5.93705 10.0716 13.9839 30.0016 22.1839 22.1626L23.0959 21.1126C23.6737 20.5314 23.9978 19.7452 23.9974 18.9257C23.997 18.1062 23.6722 17.3203 23.0939 16.7396V16.7386Z" fill="#374957"/>
</g>
<defs>
<clipPath id="clip0_1178_20049">
<rect width="24" height="24" fill="white"/>
</clipPath>
</defs>
</svg>
