<svg width="24" height="24" viewBox="0 0 24 24" fill="none" xmlns="http://www.w3.org/2000/svg">
<g clip-path="url(#clip0_1178_19982)">
<path d="M15.848 16C15.5573 16 15.2701 16.0633 15.0064 16.1855C14.7427 16.3078 14.5088 16.4861 14.321 16.708L14.074 17H9.925L9.679 16.708C9.49111 16.486 9.25705 16.3076 8.99315 16.1853C8.72925 16.0631 8.44185 15.9998 8.151 16H2.5C1.83696 16 1.20107 16.2634 0.732233 16.7322C0.263392 17.2011 0 17.837 0 18.5H0C0 19.163 0.263392 19.7989 0.732233 20.2678C1.20107 20.7366 1.83696 21 2.5 21H21.5C21.8283 21 22.1534 20.9353 22.4567 20.8097C22.76 20.6841 23.0356 20.4999 23.2678 20.2678C23.4999 20.0356 23.6841 19.76 23.8097 19.4567C23.9353 19.1534 24 18.8283 24 18.5V18.5C24 18.1717 23.9353 17.8466 23.8097 17.5433C23.6841 17.24 23.4999 16.9644 23.2678 16.7322C23.0356 16.5001 22.76 16.3159 22.4567 16.1903C22.1534 16.0647 21.8283 16 21.5 16H15.848Z" fill="#374957"/>
<path d="M3 14H8.151C9.12651 13.9986 10.0688 14.3543 10.8 15H13.2C13.931 14.3553 14.8723 13.9997 15.847 14H21C21.3362 14.0023 21.6713 14.0392 22 14.11V8C21.9984 6.6744 21.4711 5.40356 20.5338 4.46622C19.5964 3.52888 18.3256 3.00159 17 3H7C5.6744 3.00159 4.40356 3.52888 3.46622 4.46622C2.52888 5.40356 2.00159 6.6744 2 8V14.11C2.32869 14.0392 2.66378 14.0023 3 14V14Z" fill="#374957"/>
</g>
<defs>
<clipPath id="clip0_1178_19982">
<rect width="24" height="24" fill="white"/>
</clipPath>
</defs>
</svg>
