<svg width="24" height="24" viewBox="0 0 24 24" fill="none" xmlns="http://www.w3.org/2000/svg">
<g clip-path="url(#clip0_1178_20137)">
<path d="M12 6C18.841 6 24 8.579 24 12C24 8.8174 22.7357 5.76516 20.4853 3.51472C18.2348 1.26428 15.1826 0 12 0C8.8174 0 5.76516 1.26428 3.51472 3.51472C1.26428 5.76516 0 8.8174 0 12C0 8.579 5.159 6 12 6Z" fill="#374957"/>
<path d="M12 16C17.5228 16 22 14.2091 22 12C22 9.79086 17.5228 8 12 8C6.47715 8 2 9.79086 2 12C2 14.2091 6.47715 16 12 16Z" fill="#374957"/>
<path d="M12 18C5.159 18 0 15.421 0 12C0 15.1826 1.26428 18.2348 3.51472 20.4853C5.76516 22.7357 8.8174 24 12 24C15.1826 24 18.2348 22.7357 20.4853 20.4853C22.7357 18.2348 24 15.1826 24 12C24 15.421 18.841 18 12 18Z" fill="#374957"/>
</g>
<defs>
<clipPath id="clip0_1178_20137">
<rect width="24" height="24" fill="white"/>
</clipPath>
</defs>
</svg>
