<svg width="24" height="24" viewBox="0 0 24 24" fill="none" xmlns="http://www.w3.org/2000/svg">
<g clip-path="url(#clip0_1178_19812)">
<path d="M24.0001 11.9834C23.9979 11.1694 23.7471 10.3754 23.2812 9.70788C22.8152 9.04034 22.1565 8.53113 21.3931 8.24843L21.3551 8.15743C20.363 5.73086 18.4638 3.78681 16.0611 2.73843L15.7321 2.59443C15.4488 1.83334 14.9396 1.17709 14.2727 0.713697C13.6058 0.250307 12.8131 0.00195312 12.0011 0.00195312C11.189 0.00195312 10.3963 0.250307 9.72942 0.713697C9.06253 1.17709 8.5533 1.83334 8.27005 2.59443L7.85205 2.78243C5.4706 3.86408 3.59626 5.82005 2.61705 8.24543C1.8524 8.52402 1.19153 9.03033 0.723506 9.69612C0.255485 10.3619 0.00281307 11.1552 -0.000456152 11.969C-0.00372538 12.7828 0.242565 13.5781 0.705222 14.2476C1.16788 14.9171 1.82466 15.4287 2.58705 15.7134L2.71505 16.0134C3.7184 18.3423 5.5611 20.2086 7.87705 21.2414L8.27005 21.4174C8.5541 22.1774 9.06352 22.8325 9.73013 23.295C10.3967 23.7575 11.1887 24.0054 12.0001 24.0054C12.8114 24.0054 13.6034 23.7575 14.27 23.295C14.9366 22.8325 15.446 22.1774 15.7301 21.4174L16.0971 21.2544C18.5196 20.1712 20.4242 18.1859 21.4061 15.7204C22.1669 15.4348 22.8226 14.9242 23.286 14.2566C23.7494 13.589 23.9985 12.7961 24.0001 11.9834ZM15.8931 19.1144C15.694 18.2304 15.2 17.4405 14.4924 16.8745C13.7848 16.3086 12.9057 16.0002 11.9996 16.0002C11.0934 16.0002 10.2143 16.3086 9.50668 16.8745C8.79907 17.4405 8.30512 18.2304 8.10605 19.1144C6.74065 18.3693 5.61889 17.2465 4.87505 15.8804C5.75627 15.6813 6.54385 15.1891 7.10903 14.4843C7.67421 13.7795 7.98355 12.9038 7.98645 12.0004C7.98935 11.097 7.68565 10.2193 7.12501 9.51087C6.56438 8.80245 5.77997 8.3052 4.90005 8.10043C5.64663 6.75357 6.7578 5.64448 8.10605 4.90043C8.30595 5.78343 8.80013 6.57222 9.50745 7.13731C10.2148 7.70241 11.0932 8.01022 11.9986 8.01022C12.9039 8.01022 13.7823 7.70241 14.4897 7.13731C15.197 6.57222 15.6912 5.78343 15.8911 4.90043C17.2383 5.64365 18.3501 6.74989 19.1001 8.09343C18.2174 8.29502 17.4296 8.79072 16.8659 9.49913C16.3021 10.2075 15.996 11.0866 15.9977 11.9919C15.9995 12.8973 16.309 13.7751 16.8755 14.4814C17.4419 15.1876 18.2317 15.6802 19.1151 15.8784C18.3688 17.2402 17.2516 18.3623 15.8931 19.1144Z" fill="#374957"/>
</g>
<defs>
<clipPath id="clip0_1178_19812">
<rect width="24" height="24" fill="white"/>
</clipPath>
</defs>
</svg>
