<svg width="24" height="24" viewBox="0 0 24 24" fill="none" xmlns="http://www.w3.org/2000/svg">
<path d="M20.4673 17.2992C20.4463 17.2692 18.9103 15.4842 18.9103 15.4842C19.4683 15.0731 19.8447 14.461 19.9596 13.7774C20.0746 13.0938 19.9192 12.3923 19.5263 11.8212C19.5013 11.7852 17.6413 9.73024 17.6413 9.73024C18.1065 9.49561 18.4859 9.12011 18.7253 8.65724C18.9312 8.26076 19.0237 7.81516 18.9926 7.36948C18.9616 6.92381 18.8082 6.49534 18.5493 6.13124C18.5283 6.09924 13.8863 0.845243 13.8863 0.845243C13.6428 0.590434 13.3501 0.387624 13.0261 0.249062C12.702 0.110501 12.3532 0.0390625 12.0008 0.0390625C11.6483 0.0390625 11.2995 0.110501 10.9755 0.249062C10.6514 0.387624 10.3588 0.590434 10.1153 0.845243C10.1153 0.845243 5.47326 6.09924 5.45126 6.12924C5.13674 6.55299 4.9775 7.07201 5.00026 7.59924C5.00264 7.97154 5.15227 8.32777 5.41647 8.5901C5.68067 8.85242 6.03795 8.99951 6.41026 8.99924H12.0003C12.2655 8.99924 12.5198 9.1046 12.7074 9.29214C12.8949 9.47967 13.0003 9.73403 13.0003 9.99924C13.0003 10.2645 12.8949 10.5188 12.7074 10.7063C12.5198 10.8939 12.2655 10.9992 12.0003 10.9992H5.20626C5.20626 10.9992 4.49926 11.7832 4.47426 11.8192C4.17125 12.2855 4.00687 12.8282 4.00026 13.3842C3.99385 13.5627 4.02485 13.7405 4.09126 13.9062C4.23987 14.2413 4.48518 14.5244 4.79573 14.7191C5.10627 14.9139 5.46791 15.0114 5.83426 14.9992H13.0003C13.2655 14.9992 13.5198 15.1046 13.7074 15.2921C13.8949 15.4797 14.0003 15.734 14.0003 15.9992C14.0003 16.2645 13.8949 16.5188 13.7074 16.7064C13.5198 16.8939 13.2655 16.9992 13.0003 16.9992H3.78226C3.78226 16.9992 3.55426 17.2672 3.53326 17.2992C3.10353 17.9268 2.92659 18.6935 3.03784 19.4459C3.14909 20.1983 3.54032 20.8809 4.13326 21.3572C4.65791 21.7822 5.31516 22.0095 5.99026 21.9992H11.0003V22.9992C11.0003 23.2645 11.1056 23.5188 11.2932 23.7064C11.4807 23.8939 11.735 23.9992 12.0003 23.9992C12.2655 23.9992 12.5198 23.8939 12.7074 23.7064C12.8949 23.5188 13.0003 23.2645 13.0003 22.9992V21.9992H18.0103C18.6873 22.0099 19.3465 21.7819 19.8723 21.3552C20.4637 20.8781 20.8534 20.1955 20.9637 19.4437C21.074 18.6919 20.8967 17.9261 20.4673 17.2992Z" fill="#374957"/>
</svg>
