<svg width="24" height="24" viewBox="0 0 24 24" fill="none" xmlns="http://www.w3.org/2000/svg">
<g clip-path="url(#clip0_1178_19987)">
<path d="M23.1191 0.871791C22.8065 0.55998 22.4287 0.321381 22.0128 0.173187C21.5969 0.0249938 21.1534 -0.0291044 20.7141 0.014791C17.9211 0.284791 8.52809 1.44779 4.90009 5.07179C3.16586 6.81075 2.13749 9.13062 2.01356 11.5834C1.88964 14.0362 2.67896 16.4479 4.22909 18.3528L15.2891 7.29279C15.4777 7.11063 15.7303 7.00984 15.9925 7.01212C16.2547 7.0144 16.5055 7.11957 16.6909 7.30497C16.8763 7.49038 16.9815 7.74119 16.9837 8.00339C16.986 8.26559 16.8852 8.51819 16.7031 8.70679L5.64709 19.7668C7.55131 21.3179 9.96283 22.1082 12.4157 21.985C14.8686 21.8618 17.1888 20.8339 18.9281 19.0998C22.6041 15.4228 23.7281 6.05879 23.9871 3.27679C24.0294 2.83666 23.9735 2.39262 23.8234 1.97672C23.6733 1.56082 23.4327 1.18343 23.1191 0.871791V0.871791ZM4.90009 19.0998C5.13876 19.3378 5.38642 19.5615 5.64309 19.7708L1.70309 23.7108C1.51399 23.8925 1.26108 23.9926 0.99885 23.9896C0.736621 23.9866 0.48606 23.8808 0.301149 23.6948C0.116238 23.5088 0.011777 23.2577 0.0102704 22.9954C0.00876389 22.7332 0.110333 22.4809 0.293095 22.2928L4.23309 18.3528C4.44242 18.6088 4.66476 18.8578 4.90009 19.0998Z" fill="#374957"/>
</g>
<defs>
<clipPath id="clip0_1178_19987">
<rect width="24" height="24" fill="white"/>
</clipPath>
</defs>
</svg>
