<svg width="24" height="24" viewBox="0 0 24 24" fill="none" xmlns="http://www.w3.org/2000/svg">
<path d="M19.061 13.4385L14.475 8.85352C13.8084 8.21669 12.9219 7.86133 12 7.86133C11.0781 7.86133 10.1916 8.21669 9.52499 8.85352L4.93899 13.4385C4.6576 13.7199 4.49951 14.1016 4.49951 14.4995C4.49951 14.8975 4.6576 15.2791 4.93899 15.5605C5.22039 15.8419 5.60204 16 5.99999 16C6.39794 16 6.7796 15.8419 7.06099 15.5605L11.647 10.9745C11.7408 10.8808 11.8679 10.8281 12.0005 10.8281C12.1331 10.8281 12.2602 10.8808 12.354 10.9745L16.939 15.5605C17.2204 15.8419 17.602 16 18 16C18.3979 16 18.7796 15.8419 19.061 15.5605C19.3424 15.2791 19.5005 14.8975 19.5005 14.4995C19.5005 14.1016 19.3424 13.7199 19.061 13.4385Z" fill="#374957"/>
</svg>
