<svg width="24" height="24" viewBox="0 0 24 24" fill="none" xmlns="http://www.w3.org/2000/svg">
<g clip-path="url(#clip0_1178_20095)">
<path d="M24 14.9994C24 20.0764 17 23.9994 15 23.9994H9C7 23.9994 0 20.0764 0 14.9994C0.00842079 14.2015 0.331028 13.4391 0.897865 12.8775C1.4647 12.3159 2.23007 12.0004 3.028 11.9994H20.972C21.7698 12.0009 22.5348 12.3166 23.1016 12.8781C23.6683 13.4396 23.9911 14.2017 24 14.9994V14.9994ZM19.714 3.01939C19.366 3.06739 18.987 3.13539 18.599 3.21239C18.894 2.33639 19.599 0.112387 17.999 -0.000612544C17.7338 -0.000612544 17.4794 0.104744 17.2919 0.292281C17.1044 0.479817 16.999 0.734171 16.999 0.999388C17.0107 1.56952 16.8997 2.13551 16.6735 2.65899C16.4473 3.18246 16.1112 3.65119 15.688 4.03339C14.8119 4.32317 14.002 4.78371 13.305 5.38839C12.7134 5.98001 12.3001 6.72616 12.1125 7.54155C11.9248 8.35695 11.9704 9.20868 12.244 9.99939H13.586L16.293 7.29239C16.4816 7.11023 16.7342 7.00944 16.9964 7.01171C17.2586 7.01399 17.5094 7.11916 17.6948 7.30457C17.8802 7.48998 17.9854 7.74079 17.9877 8.00299C17.99 8.26518 17.8892 8.51779 17.707 8.70639L16.414 9.99939H20.665C21.2857 8.48498 21.7273 6.90327 21.981 5.28639C22.0243 4.97857 21.9955 4.6649 21.8969 4.37011C21.7983 4.07532 21.6325 3.80746 21.4127 3.58766C21.1929 3.36785 20.9251 3.20211 20.6303 3.1035C20.3355 3.00488 20.0218 2.97609 19.714 3.01939V3.01939ZM10 9.99939C9.866 4.72239 2.133 4.72639 2 9.99939H10ZM10.5 6.06739C10.8704 5.19163 11.4239 4.40525 12.1233 3.76105C12.8227 3.11684 13.6518 2.62972 14.555 2.33239C14.8111 2.01834 14.9622 1.63186 14.987 1.22739C14.5433 0.764506 13.9952 0.414577 13.3885 0.206855C12.7819 -0.000868021 12.1343 -0.0603479 11.5 0.0333875C10.7737 0.0916885 10.0794 0.357584 9.5 0.799388C8.84525 0.306718 8.05313 0.030558 7.234 0.00938746C6.19391 -0.0911095 5.15632 0.224193 4.348 0.886388C3.81074 1.35773 3.41105 1.9657 3.19133 2.6458C2.97161 3.32591 2.94005 4.0528 3.1 4.74939C4.29911 4.09333 5.68629 3.86636 7.03196 4.10603C8.37763 4.34571 9.60114 5.03766 10.5 6.06739V6.06739Z" fill="#374957"/>
</g>
<defs>
<clipPath id="clip0_1178_20095">
<rect width="24" height="24" fill="white"/>
</clipPath>
</defs>
</svg>
