<svg width="24" height="24" viewBox="0 0 24 24" fill="none" xmlns="http://www.w3.org/2000/svg">
<g clip-path="url(#clip0_1178_19761)">
<path d="M18.4268 4.91119L14.5078 0.992195C13.8412 0.355365 12.9548 0 12.0328 0C11.1109 0 10.2245 0.355365 9.55784 0.992195L5.63884 4.91119C5.3656 5.19409 5.21441 5.573 5.21783 5.96629C5.22125 6.35959 5.379 6.7358 5.65711 7.01392C5.93523 7.29203 6.31144 7.44978 6.70474 7.4532C7.09803 7.45662 7.47694 7.30542 7.75984 7.03219L10.5398 4.25219L10.5628 22.5022C10.5628 22.9 10.7209 23.2815 11.0022 23.5628C11.2835 23.8441 11.665 24.0022 12.0628 24.0022V24.0022C12.4607 24.0022 12.8422 23.8441 13.1235 23.5628C13.4048 23.2815 13.5628 22.9 13.5628 22.5022L13.5398 4.26619L16.3058 7.03219C16.4442 7.17545 16.6097 7.28973 16.7927 7.36834C16.9757 7.44695 17.1726 7.48833 17.3717 7.49006C17.5709 7.49179 17.7684 7.45384 17.9528 7.37842C18.1371 7.303 18.3046 7.19162 18.4454 7.05078C18.5863 6.90994 18.6977 6.74246 18.7731 6.55812C18.8485 6.37378 18.8864 6.17626 18.8847 5.97709C18.883 5.77792 18.8416 5.58109 18.763 5.39808C18.6844 5.21508 18.5701 5.04956 18.4268 4.91119V4.91119Z" fill="#374957"/>
</g>
<defs>
<clipPath id="clip0_1178_19761">
<rect width="24" height="24" fill="white"/>
</clipPath>
</defs>
</svg>
