<svg width="24" height="24" viewBox="0 0 24 24" fill="none" xmlns="http://www.w3.org/2000/svg">
<g clip-path="url(#clip0_1178_19837)">
<path d="M9.39984 23.9998C9.11794 23.9822 8.83889 23.9332 8.56784 23.8538C7.869 23.6608 7.24734 23.2555 6.78874 22.694C6.33014 22.1325 6.05723 21.4424 6.00773 20.7191C5.95822 19.9958 6.13455 19.2749 6.51236 18.6562C6.89017 18.0374 7.45081 17.5512 8.11684 17.2648C7.93831 16.3607 7.95775 15.4286 8.17384 14.5328C8.47735 13.3064 9.16023 12.2071 10.1251 11.3917C11.0901 10.5762 12.2878 10.086 13.5476 9.99117C14.8074 9.8963 16.065 10.2015 17.1411 10.8633C18.2173 11.5251 19.0571 12.5097 19.5408 13.6768V13.6768C19.6229 13.8096 19.7349 13.9215 19.8679 14.0032C20.0009 14.085 20.1513 14.1345 20.3068 14.1478C21.5629 14.4901 22.6364 15.3077 23.3003 16.4275C23.9642 17.5474 24.1663 18.8816 23.8638 20.1478C23.6548 21.0488 23.1972 21.8731 22.5432 22.5271C21.8892 23.1812 21.0648 23.6387 20.1638 23.8478C19.8152 23.9342 19.4587 23.9852 19.0998 23.9998H9.39984ZM5.99984 16.2298C5.98032 15.4998 6.05766 14.7704 6.22984 14.0608C6.61874 12.4797 7.4808 11.055 8.70087 9.97686C9.92094 8.89872 11.4409 8.21852 13.0578 8.02712C14.6747 7.83571 16.3115 8.14221 17.7496 8.90568C19.1876 9.66915 20.3585 10.8532 21.1058 12.2998C22.2014 12.6483 23.195 13.2598 23.9998 14.0808C24.0236 12.3558 23.4859 10.6699 22.4679 9.27726C21.4499 7.88458 20.0066 6.86063 18.3558 6.35979C18.1843 6.30673 18.0286 6.21202 17.9026 6.08412C17.7766 5.95621 17.6843 5.79909 17.6338 5.62679C17.1047 3.92641 16.0233 2.45119 14.561 1.43482C13.0987 0.418456 11.3391 -0.0809538 9.56095 0.0157043C7.78276 0.112362 6.08766 0.799562 4.74416 1.96845C3.40065 3.13733 2.48556 4.72107 2.14384 6.46879C1.79229 8.23546 2.0756 10.0695 2.94384 11.6478C1.93229 12.17 1.10975 12.996 0.591756 14.0098C0.0737661 15.0235 -0.113648 16.1741 0.0558399 17.2998C0.259803 18.351 0.750819 19.3253 1.47449 20.1146C2.19815 20.9039 3.12621 21.4775 4.15584 21.7718C3.91177 20.7681 3.95528 19.7159 4.2814 18.7358C4.60752 17.7557 5.20307 16.8872 5.99984 16.2298V16.2298Z" fill="#374957"/>
</g>
<defs>
<clipPath id="clip0_1178_19837">
<rect width="24" height="24" fill="white"/>
</clipPath>
</defs>
</svg>
