<svg width="24" height="24" viewBox="0 0 24 24" fill="none" xmlns="http://www.w3.org/2000/svg">
<g clip-path="url(#clip0_1178_20086)">
<path d="M10.4203 20.6553C9.61663 20.6545 8.83424 20.397 8.18728 19.9203L1.54628 15.0503C1.06757 14.6987 0.678326 14.2395 0.410039 13.7096C0.141751 13.1797 0.00195313 12.5942 0.00195312 12.0003C0.00195313 11.4064 0.141751 10.8208 0.410039 10.2909C0.678326 9.76106 1.06757 9.30179 1.54628 8.95027L8.18728 4.08027C8.73195 3.68002 9.37392 3.43301 10.0464 3.36494C10.7189 3.29687 11.3973 3.41021 12.0112 3.69319C12.625 3.97617 13.1518 4.41844 13.5368 4.97401C13.9218 5.52958 14.1509 6.17815 14.2003 6.85227L17.9823 4.07827C18.5461 3.66582 19.2132 3.41752 19.9095 3.36088C20.6058 3.30425 21.3042 3.44148 21.9273 3.75739C22.5505 4.07329 23.074 4.55553 23.4398 5.15068C23.8057 5.74583 23.9997 6.43065 24.0003 7.12927V16.8693C24.0001 17.5684 23.8062 18.2538 23.4402 18.8494C23.0742 19.4451 22.5503 19.9277 21.9267 20.2437C21.303 20.5597 20.6041 20.6968 19.9073 20.6397C19.2105 20.5826 18.5431 20.3336 17.9793 19.9203L14.2003 17.1463C14.1294 18.0997 13.7008 18.9912 13.0003 19.6419C12.2999 20.2926 11.3794 20.6546 10.4233 20.6553H10.4203Z" fill="#374957"/>
</g>
<defs>
<clipPath id="clip0_1178_20086">
<rect width="24" height="24" fill="white"/>
</clipPath>
</defs>
</svg>
