<svg width="24" height="24" viewBox="0 0 24 24" fill="none" xmlns="http://www.w3.org/2000/svg">
<g clip-path="url(#clip0_1178_19991)">
<path d="M13.8456 17.2654L10.584 20.527C8.59423 22.4635 5.41137 22.4204 3.47482 20.4307C1.57562 18.4794 1.5752 15.3707 3.47383 13.4189L6.73544 10.1543C7.12586 9.76356 7.12562 9.13035 6.73492 8.73993C6.34422 8.34951 5.71101 8.34974 5.32059 8.74045L2.05997 12.005C-0.683726 14.7501 -0.682601 19.1996 2.06245 21.9434C4.80751 24.6871 9.25706 24.6859 12.0008 21.9409L15.2624 18.6793C15.646 18.2821 15.635 17.6491 15.2378 17.2655C14.8504 16.8912 14.2361 16.8912 13.8486 17.2655H13.8456V17.2654Z" fill="#374957"/>
<path d="M21.9434 2.06078C20.6292 0.737517 18.84 -0.00461525 16.975 2.4836e-05C15.111 -0.00494333 13.3224 0.735642 12.0076 2.0568L8.74093 5.31939C8.35023 5.70981 8.35 6.34302 8.74042 6.73372C9.13084 7.12442 9.76405 7.12466 10.1548 6.73424L13.4194 3.47263C14.3596 2.52671 15.6392 1.99638 16.973 1.99981C19.7495 2.00074 21.9996 4.25231 21.9987 7.02886C21.9983 8.36145 21.4687 9.6394 20.5265 10.5818L17.2649 13.8434C16.8742 14.2341 16.8742 14.8675 17.2649 15.2583C17.6556 15.649 18.289 15.649 18.6798 15.2583L21.9414 11.9986C24.6812 9.25282 24.6821 4.80762 21.9434 2.06078Z" fill="#374957"/>
<path d="M14.2933 8.29237L8.29402 14.2917C7.8968 14.6753 7.88583 15.3083 8.26946 15.7055C8.65308 16.1026 9.2861 16.1137 9.68327 15.73C9.69162 15.722 9.69977 15.7138 9.70783 15.7055L15.7071 9.70619C16.0907 9.30897 16.0797 8.676 15.6825 8.29237C15.2951 7.91817 14.6808 7.91817 14.2933 8.29237Z" fill="#374957"/>
</g>
<defs>
<clipPath id="clip0_1178_19991">
<rect width="24" height="24" fill="white"/>
</clipPath>
</defs>
</svg>
