<svg width="24" height="24" viewBox="0 0 24 24" fill="none" xmlns="http://www.w3.org/2000/svg">
<g clip-path="url(#clip0_1178_20216)">
<path d="M20.7998 4.29258C20.609 4.12255 20.3604 4.03199 20.105 4.03949C19.8495 4.047 19.6067 4.15201 19.4262 4.33296C19.2458 4.51391 19.1415 4.75707 19.1347 5.01251C19.1279 5.26796 19.2192 5.51631 19.3898 5.70658C21.056 7.37706 21.9917 9.64017 21.9917 11.9996C21.9917 14.359 21.056 16.6221 19.3898 18.2926C19.2882 18.3831 19.2062 18.4934 19.1488 18.6167C19.0913 18.74 19.0596 18.8737 19.0556 19.0097C19.0516 19.1457 19.0754 19.281 19.1255 19.4075C19.1756 19.5339 19.251 19.6488 19.3471 19.7452C19.4431 19.8415 19.5578 19.9172 19.6841 19.9677C19.8105 20.0182 19.9457 20.0423 20.0817 20.0387C20.2177 20.0351 20.3515 20.0038 20.475 19.9467C20.5984 19.8896 20.709 19.8079 20.7998 19.7066C22.8409 17.661 23.9873 14.8893 23.9873 11.9996C23.9873 9.10984 22.8409 6.33812 20.7998 4.29258Z" fill="#374957"/>
<path d="M18.0933 7.29357C18.0011 7.19806 17.8907 7.12188 17.7687 7.06947C17.6467 7.01706 17.5155 6.98947 17.3827 6.98832C17.2499 6.98717 17.1183 7.01247 16.9954 7.06275C16.8725 7.11303 16.7608 7.18728 16.6669 7.28117C16.573 7.37507 16.4988 7.48672 16.4485 7.60961C16.3982 7.73251 16.3729 7.86419 16.3741 7.99697C16.3752 8.12975 16.4028 8.26097 16.4552 8.38297C16.5076 8.50498 16.5838 8.61532 16.6793 8.70757C17.551 9.58183 18.0404 10.766 18.0404 12.0006C18.0404 13.2351 17.551 14.4193 16.6793 15.2936C16.5838 15.3858 16.5076 15.4961 16.4552 15.6182C16.4028 15.7402 16.3752 15.8714 16.3741 16.0042C16.3729 16.1369 16.3982 16.2686 16.4485 16.3915C16.4988 16.5144 16.573 16.6261 16.6669 16.7199C16.7608 16.8138 16.8725 16.8881 16.9954 16.9384C17.1183 16.9887 17.2499 17.014 17.3827 17.0128C17.5155 17.0117 17.6467 16.9841 17.7687 16.9317C17.8907 16.8792 18.0011 16.8031 18.0933 16.7076C19.3397 15.4581 20.0396 13.7654 20.0396 12.0006C20.0396 10.2358 19.3397 8.54302 18.0933 7.29357Z" fill="#374957"/>
<path d="M13.819 0.20597C10.7805 0.776295 8.0773 2.49217 6.268 4.99897H5C3.67441 5.00056 2.40356 5.52785 1.46622 6.46519C0.528882 7.40253 0.00158786 8.67338 0 9.99897L0 13.999C0.00158786 15.3246 0.528882 16.5954 1.46622 17.5328C2.40356 18.4701 3.67441 18.9974 5 18.999H6.269C8.07777 21.5059 10.7807 23.2218 13.819 23.792C13.9632 23.8185 14.1115 23.813 14.2533 23.7759C14.3951 23.7387 14.5271 23.6709 14.6397 23.5771C14.7524 23.4833 14.8431 23.3659 14.9054 23.2331C14.9676 23.1004 14.9999 22.9556 15 22.809V1.18897C14.9999 1.04236 14.9676 0.897553 14.9054 0.764815C14.8431 0.632077 14.7524 0.514652 14.6397 0.420859C14.5271 0.327065 14.3951 0.259197 14.2533 0.222062C14.1115 0.184927 13.9632 0.179433 13.819 0.20597Z" fill="#374957"/>
</g>
<defs>
<clipPath id="clip0_1178_20216">
<rect width="24" height="24" fill="white"/>
</clipPath>
</defs>
</svg>
