<svg width="24" height="24" viewBox="0 0 24 24" fill="none" xmlns="http://www.w3.org/2000/svg">
<g clip-path="url(#clip0_1178_20006)">
<path d="M14.0001 6.99927C14.0001 7.39484 13.8828 7.78152 13.663 8.11041C13.4432 8.43931 13.1309 8.69566 12.7654 8.84703C12.4 8.99841 11.9978 9.03801 11.6099 8.96084C11.2219 8.88367 10.8656 8.69319 10.5858 8.41349C10.3061 8.13378 10.1157 7.77742 10.0385 7.38945C9.96132 7.00149 10.0009 6.59936 10.1523 6.23391C10.3037 5.86845 10.56 5.5561 10.8889 5.33633C11.2178 5.11657 11.6045 4.99927 12.0001 4.99927C12.5305 4.99927 13.0392 5.20999 13.4143 5.58506C13.7893 5.96013 14.0001 6.46884 14.0001 6.99927ZM16.9581 12.1833L13.9001 15.2143C13.6519 15.4644 13.3567 15.663 13.0315 15.7985C12.7063 15.934 12.3574 16.0038 12.0051 16.0038C11.6527 16.0038 11.3039 15.934 10.9786 15.7985C10.6534 15.663 10.3582 15.4644 10.1101 15.2143L7.05406 12.1993C5.74182 10.8464 5.00693 9.03642 5.00469 7.1517C5.00245 5.26699 5.73304 3.45523 7.04206 2.09927C7.68543 1.43456 8.45588 0.906005 9.30762 0.545034C10.1594 0.184063 11.075 -0.00195312 12.0001 -0.00195312C12.9251 -0.00195312 13.8408 0.184063 14.6925 0.545034C15.5442 0.906005 16.3147 1.43456 16.9581 2.09927C18.2651 3.45231 18.9956 5.26003 18.9956 7.14127C18.9956 9.02251 18.2651 10.8302 16.9581 12.1833V12.1833ZM16.0001 6.99927C16.0001 6.20815 15.7655 5.43479 15.3259 4.77699C14.8864 4.1192 14.2617 3.60651 13.5308 3.30375C12.7999 3.001 11.9956 2.92179 11.2197 3.07613C10.4438 3.23047 9.73104 3.61144 9.17163 4.17085C8.61222 4.73026 8.23126 5.44299 8.07692 6.21891C7.92258 6.99484 8.00179 7.7991 8.30454 8.53001C8.60729 9.26091 9.11998 9.88563 9.77778 10.3252C10.4356 10.7647 11.2089 10.9993 12.0001 10.9993C13.0609 10.9993 14.0783 10.5778 14.8285 9.8277C15.5786 9.07756 16.0001 8.06014 16.0001 6.99927V6.99927ZM20.7531 9.19927C20.3881 10.852 19.5694 12.3702 18.3891 13.5833L15.3111 16.6363C14.878 17.0704 14.3637 17.4149 13.7975 17.6501C13.2312 17.8854 12.6242 18.0067 12.0111 18.0073V18.0073C11.3982 18.0075 10.7914 17.887 10.2252 17.6526C9.65893 17.4182 9.14444 17.0746 8.71106 16.6413L5.64806 13.6183C4.4832 12.4225 3.66567 10.9322 3.28306 9.30727C2.63355 9.54535 2.03968 9.91392 1.53806 10.3903C1.04911 10.8551 0.660436 11.4151 0.39594 12.0358C0.131445 12.6564 -0.00327713 13.3246 6.05319e-05 13.9993V18.0743C0.00216213 19.1556 0.353853 20.2073 1.00265 21.0723C1.65145 21.9374 2.56257 22.5695 3.60006 22.8743L6.47006 23.7743C6.95212 23.9243 7.45419 24.0002 7.95906 23.9993C8.41705 23.9987 8.87285 23.9361 9.31406 23.8133L15.0941 22.1033C15.6089 21.9622 16.1522 21.9622 16.6671 22.1033L19.0541 22.9033C19.6424 23.0465 20.2555 23.0542 20.8472 22.926C21.439 22.7978 21.9939 22.5369 22.4701 22.163C22.9464 21.7891 23.3315 21.312 23.5965 20.7676C23.8616 20.2232 23.9995 19.6257 24.0001 19.0203V13.8713C23.9966 12.8551 23.6842 11.864 23.1043 11.0295C22.5243 10.1951 21.7043 9.55673 20.7531 9.19927V9.19927Z" fill="#374957"/>
</g>
<defs>
<clipPath id="clip0_1178_20006">
<rect width="24" height="24" fill="white"/>
</clipPath>
</defs>
</svg>
