<svg width="24" height="24" viewBox="0 0 24 24" fill="none" xmlns="http://www.w3.org/2000/svg">
<g clip-path="url(#clip0_1178_20085)">
<path d="M21.4998 2.00063H13.4998C12.8368 2.00063 12.2009 2.26402 11.7321 2.73286C11.2632 3.2017 10.9998 3.83758 10.9998 4.50062V4.80062L9.73484 2.60663C9.57505 2.31139 9.35824 2.05082 9.09697 1.84002C8.8357 1.62922 8.53518 1.47239 8.21284 1.37863C7.67669 1.22775 7.10552 1.26024 6.58993 1.47093C6.07435 1.68162 5.64389 2.05845 5.36684 2.54163L0.374849 11.1876C0.199725 11.4737 0.0830439 11.7916 0.0315508 12.1231C-0.0199424 12.4545 -0.00522575 12.7929 0.0748498 13.1186C0.212273 13.6573 0.525318 14.1348 0.964496 14.4756C1.40367 14.8165 1.94393 15.0012 2.49985 15.0006H5.19984C4.89791 16.0537 4.84467 17.1624 5.04432 18.2396C5.24397 19.3167 5.69105 20.3327 6.35033 21.2076C7.00962 22.0825 7.86308 22.7923 8.84346 23.2811C9.82385 23.7699 10.9044 24.0243 11.9998 24.0243C13.0953 24.0243 14.1758 23.7699 15.1562 23.2811C16.1366 22.7923 16.9901 22.0825 17.6493 21.2076C18.3086 20.3327 18.7557 19.3167 18.9554 18.2396C19.155 17.1624 19.1018 16.0537 18.7998 15.0006H21.4998C21.8281 15.0006 22.1532 14.9359 22.4565 14.8103C22.7598 14.6847 23.0354 14.5005 23.2676 14.2684C23.4997 14.0362 23.6839 13.7606 23.8095 13.4573C23.9352 13.154 23.9998 12.8289 23.9998 12.5006V4.50062C23.9998 4.17232 23.9352 3.84723 23.8095 3.54392C23.6839 3.2406 23.4997 2.96501 23.2676 2.73286C23.0354 2.50071 22.7598 2.31656 22.4565 2.19093C22.1532 2.06529 21.8281 2.00063 21.4998 2.00063V2.00063ZM3.36985 12.0006L7.53184 4.79162L10.5418 10.0006C9.16492 10.2918 7.90662 10.9884 6.92884 12.0006H3.36985ZM11.9998 21.0006C11.1941 21.0006 10.4064 20.7617 9.73645 20.314C9.06648 19.8664 8.54431 19.2301 8.23595 18.4857C7.9276 17.7412 7.84693 16.9221 8.00412 16.1318C8.16132 15.3415 8.54933 14.6156 9.11909 14.0459C9.68885 13.4761 10.4148 13.0881 11.205 12.9309C11.9953 12.7737 12.8145 12.8544 13.5589 13.1627C14.3033 13.4711 14.9396 13.9933 15.3872 14.6632C15.8349 15.3332 16.0738 16.1208 16.0738 16.9266C16.0725 18.0067 15.6429 19.0422 14.8791 19.8059C14.1154 20.5696 13.0799 20.9993 11.9998 21.0006V21.0006ZM20.9998 12.0006H17.0708C16.2137 11.1395 15.1596 10.5004 13.9998 10.1386V5.00062H20.9998V12.0006Z" fill="#374957"/>
</g>
<defs>
<clipPath id="clip0_1178_20085">
<rect width="24" height="24" fill="white"/>
</clipPath>
</defs>
</svg>
