<svg width="24" height="24" viewBox="0 0 24 24" fill="none" xmlns="http://www.w3.org/2000/svg">
<g clip-path="url(#clip0_1178_20211)">
<path d="M11.0001 20.0005C11.0001 20.2657 10.8947 20.5201 10.7072 20.7076C10.5197 20.8952 10.2653 21.0005 10.0001 21.0005H8.00008V23.0005C8.00008 23.2657 7.89473 23.5201 7.70719 23.7076C7.51965 23.8952 7.2653 24.0005 7.00008 24.0005C6.73487 24.0005 6.48051 23.8952 6.29298 23.7076C6.10544 23.5201 6.00008 23.2657 6.00008 23.0005V21.0005H4.00008C3.73487 21.0005 3.48051 20.8952 3.29298 20.7076C3.10544 20.5201 3.00008 20.2657 3.00008 20.0005C3.00008 19.7353 3.10544 19.4809 3.29298 19.2934C3.48051 19.1059 3.73487 19.0005 4.00008 19.0005H6.00008V14.8495C4.9845 14.6451 4.02228 14.2325 3.17407 13.6377C2.32586 13.043 1.61007 12.2789 1.07181 11.3938C0.533554 10.5087 0.184504 9.52161 0.0466656 8.49487C-0.0911725 7.46813 -0.0148093 6.42397 0.270941 5.42821C0.556692 4.43245 1.04563 3.50668 1.70694 2.70927C2.36825 1.91186 3.18759 1.26009 4.1133 0.795063C5.03901 0.330034 6.05102 0.0618244 7.08554 0.00734168C8.12006 -0.0471411 9.15464 0.113285 10.1241 0.478506C9.14072 1.36497 8.3545 2.4481 7.81636 3.65774C7.27822 4.86738 7.00014 6.17656 7.00014 7.50051C7.00014 8.82445 7.27822 10.1336 7.81636 11.3433C8.3545 12.5529 9.14072 13.636 10.1241 14.5225C9.44183 14.7762 8.72637 14.9294 8.00008 14.9775V19.0005H10.0001C10.2653 19.0005 10.5197 19.1059 10.7072 19.2934C10.8947 19.4809 11.0001 19.7353 11.0001 20.0005ZM24.0001 7.50051C24.0017 6.03809 23.5757 4.60711 22.7746 3.38365C21.9735 2.16019 20.8322 1.19763 19.4911 0.614413C18.15 0.0312001 16.6677 -0.147217 15.2265 0.101117C13.7853 0.349451 12.4482 1.0137 11.3797 2.01213C10.3111 3.01055 9.55776 4.29959 9.21232 5.72062C8.86688 7.14165 8.94443 8.63267 9.43541 10.0102C9.92639 11.3877 10.8094 12.5917 11.9757 13.4739C13.1421 14.3561 14.5409 14.878 16.0001 14.9755V19.0005H14.0001C13.7349 19.0005 13.4805 19.1059 13.293 19.2934C13.1054 19.4809 13.0001 19.7353 13.0001 20.0005C13.0001 20.2657 13.1054 20.5201 13.293 20.7076C13.4805 20.8952 13.7349 21.0005 14.0001 21.0005H16.0001V23.0005C16.0001 23.2657 16.1054 23.5201 16.293 23.7076C16.4805 23.8952 16.7349 24.0005 17.0001 24.0005C17.2653 24.0005 17.5197 23.8952 17.7072 23.7076C17.8947 23.5201 18.0001 23.2657 18.0001 23.0005V21.0005H20.0001C20.2653 21.0005 20.5197 20.8952 20.7072 20.7076C20.8947 20.5201 21.0001 20.2657 21.0001 20.0005C21.0001 19.7353 20.8947 19.4809 20.7072 19.2934C20.5197 19.1059 20.2653 19.0005 20.0001 19.0005H18.0001V14.8495C19.6928 14.5015 21.2139 13.5805 22.3068 12.2419C23.3997 10.9032 23.9978 9.22867 24.0001 7.50051Z" fill="#374957"/>
</g>
<defs>
<clipPath id="clip0_1178_20211">
<rect width="24" height="24" fill="white"/>
</clipPath>
</defs>
</svg>
