<svg width="24" height="24" viewBox="0 0 24 24" fill="none" xmlns="http://www.w3.org/2000/svg">
<g clip-path="url(#clip0_1178_19794)">
<path d="M5.86842 15.5828C4.81376 14.6086 4.0093 13.3947 3.52314 12.0438C3.03697 10.6928 2.8834 9.24465 3.07542 7.82181C3.26528 6.37907 3.80215 5.00388 4.64001 3.81412C5.47786 2.62435 6.59171 1.65549 7.8861 0.990577C9.18048 0.325661 10.6168 -0.0154801 12.0719 -0.00360659C13.527 0.00826692 14.9576 0.372801 16.241 1.05875C17.5243 1.7447 18.6222 2.73161 19.4405 3.93489C20.2589 5.13817 20.7732 6.52193 20.9395 7.96757C21.1058 9.41322 20.9191 10.8776 20.3954 12.2353C19.8716 13.5929 19.0265 14.8034 17.9324 15.7628C17.2279 16.3685 16.6809 17.1361 16.3384 17.9998H13.0004V10.8158C13.5833 10.6097 14.0883 10.2286 14.4463 9.72451C14.8043 9.22044 14.9979 8.61807 15.0004 7.99981C15.0004 7.73459 14.8951 7.48024 14.7075 7.2927C14.52 7.10516 14.2656 6.99981 14.0004 6.99981C13.7352 6.99981 13.4808 7.10516 13.2933 7.2927C13.1058 7.48024 13.0004 7.73459 13.0004 7.99981C13.0004 8.26502 12.8951 8.51938 12.7075 8.70691C12.52 8.89445 12.2656 8.99981 12.0004 8.99981C11.7352 8.99981 11.4808 8.89445 11.2933 8.70691C11.1058 8.51938 11.0004 8.26502 11.0004 7.99981C11.0004 7.73459 10.8951 7.48024 10.7075 7.2927C10.52 7.10516 10.2656 6.99981 10.0004 6.99981C9.7352 6.99981 9.48085 7.10516 9.29331 7.2927C9.10577 7.48024 9.00042 7.73459 9.00042 7.99981C9.00298 8.61807 9.1965 9.22044 9.5545 9.72451C9.91251 10.2286 10.4175 10.6097 11.0004 10.8158V17.9998H7.56342C7.18111 17.0804 6.60264 16.2555 5.86842 15.5828V15.5828ZM8.00042 19.9998V20.3098C8.00148 21.2881 8.39058 22.2261 9.08236 22.9179C9.77414 23.6096 10.7121 23.9987 11.6904 23.9998H12.3104C13.2887 23.9987 14.2267 23.6096 14.9185 22.9179C15.6103 22.2261 15.9994 21.2881 16.0004 20.3098V19.9998H8.00042Z" fill="#374957"/>
</g>
<defs>
<clipPath id="clip0_1178_19794">
<rect width="24" height="24" fill="white"/>
</clipPath>
</defs>
</svg>
