<svg width="24" height="24" viewBox="0 0 24 24" fill="none" xmlns="http://www.w3.org/2000/svg">
<g clip-path="url(#clip0_1178_20146)">
<path d="M23.7816 12.1722C23.5794 12.7512 23.2492 13.2773 22.8156 13.7112L13.7156 22.8112C13.2813 23.2404 12.755 23.5653 12.1766 23.7612C12.0165 22.8193 11.9883 21.8598 12.0926 20.9102C12.3535 18.6593 13.3674 16.5627 14.9697 14.9606C16.572 13.3585 18.6688 12.3448 20.9196 12.0842C21.873 11.9795 22.8364 12.0091 23.7816 12.1722V12.1722ZM10.0996 20.6992C10.4117 17.9956 11.6288 15.4771 13.5532 13.5527C15.4776 11.6284 17.9961 10.4113 20.6996 10.0992C21.7744 9.98385 22.8596 10.0101 23.9276 10.1772C23.5852 7.98228 22.642 5.92502 21.2023 4.23322C19.7627 2.54143 17.8829 1.28113 15.7711 0.591907C13.6593 -0.0973113 11.3979 -0.188547 9.23749 0.328306C7.07704 0.845159 5.10181 1.94993 3.53057 3.52025C1.95934 5.09057 0.853418 7.06516 0.335308 9.22531C-0.182801 11.3855 -0.0928819 13.6469 0.595107 15.7591C1.2831 17.8713 2.5423 19.7518 4.23326 21.1924C5.92422 22.633 7.98093 23.5775 10.1756 23.9212C10.0091 22.8551 9.98358 21.7718 10.0996 20.6992V20.6992Z" fill="#374957"/>
</g>
<defs>
<clipPath id="clip0_1178_20146">
<rect width="24" height="24" fill="white"/>
</clipPath>
</defs>
</svg>
