<svg width="24" height="24" viewBox="0 0 24 24" fill="none" xmlns="http://www.w3.org/2000/svg">
<g clip-path="url(#clip0_1178_20048)">
<path d="M23.7091 7.30008C23.8908 7.48918 23.9909 7.74209 23.9879 8.00432C23.985 8.26655 23.8791 8.51711 23.6931 8.70202C23.5072 8.88693 23.256 8.99139 22.9938 8.9929C22.7315 8.99441 22.4792 8.89284 22.2911 8.71008L19.5001 5.91508L16.7001 8.71508C16.6089 8.81659 16.4978 8.89836 16.3738 8.95533C16.2497 9.01231 16.1154 9.04329 15.9789 9.04637C15.8424 9.04945 15.7068 9.02456 15.5803 8.97324C15.4539 8.92192 15.3392 8.84524 15.2435 8.74795C15.1478 8.65065 15.073 8.53479 15.0237 8.40749C14.9745 8.2802 14.9518 8.14417 14.9571 8.00778C14.9624 7.87139 14.9956 7.73753 15.0546 7.61444C15.1135 7.49135 15.1971 7.38165 15.3001 7.29208L18.0861 4.50007L15.2911 1.70707C15.1911 1.61572 15.1107 1.505 15.0548 1.38163C14.9988 1.25826 14.9686 1.12482 14.9658 0.989394C14.963 0.85397 14.9877 0.71939 15.0385 0.593818C15.0893 0.468246 15.165 0.354301 15.2612 0.258895C15.3573 0.163489 15.4719 0.0886121 15.5978 0.038806C15.7238 -0.0110001 15.8586 -0.0346966 15.994 -0.0308458C16.1294 -0.026995 16.2626 0.00432283 16.3855 0.0612076C16.5084 0.118092 16.6185 0.199358 16.7091 0.300075L19.5001 3.08808L22.3001 0.293075C22.4915 0.125312 22.7397 0.0368472 22.994 0.0457063C23.2484 0.0545654 23.4898 0.160082 23.6691 0.340754C23.8484 0.521426 23.952 0.763656 23.9589 1.01808C23.9657 1.27251 23.8753 1.51998 23.7061 1.71007L20.9141 4.50007L23.7091 7.30008ZM20.6551 14.8601C20.0777 14.3107 19.3109 14.0048 18.5139 14.0059C17.7169 14.007 16.951 14.3151 16.3751 14.8661L14.4691 16.4721C12.9128 15.8279 11.4992 14.8824 10.3096 13.69C9.11995 12.4976 8.17773 11.0818 7.5371 9.52408L9.1371 7.62408C9.68809 7.04822 9.99613 6.28227 9.99724 5.48528C9.99836 4.68828 9.69248 3.92147 9.1431 3.34408C9.1431 3.34408 7.2911 0.939075 7.2611 0.907075C6.69008 0.332935 5.91622 0.00632098 5.10652 -0.00228494C4.29682 -0.0108909 3.51619 0.299201 2.9331 0.861075L1.7841 1.86107C-5.9359 10.0701 13.9841 29.9991 22.1841 22.1611L23.0961 21.1121C23.6756 20.531 24.001 19.7438 24.001 18.9231C24.001 18.1024 23.6756 17.3152 23.0961 16.7341C23.0631 16.7081 20.6551 14.8561 20.6551 14.8561V14.8601Z" fill="#374957"/>
</g>
<defs>
<clipPath id="clip0_1178_20048">
<rect width="24" height="24" fill="white"/>
</clipPath>
</defs>
</svg>
