<svg width="24" height="24" viewBox="0 0 24 24" fill="none" xmlns="http://www.w3.org/2000/svg">
<g clip-path="url(#clip0_1178_20001)">
<path d="M24 11.5C23.9999 12.3881 23.6622 13.2429 23.0554 13.8913C22.4486 14.5397 21.618 14.9332 20.732 14.992C19.7214 17.1065 18.0641 18.8443 16 19.954V23C16 23.2652 15.8946 23.5196 15.7071 23.7071C15.5195 23.8947 15.2652 24 15 24H8.99995C8.73473 24 8.48038 23.8947 8.29284 23.7071C8.10531 23.5196 7.99995 23.2652 7.99995 23V19.953C6.07299 18.9039 4.49436 17.3149 3.45795 15.381C3.33595 15.1455 3.31251 14.8712 3.39277 14.6184C3.47304 14.3656 3.65044 14.155 3.88595 14.033C4.12146 13.911 4.39579 13.8876 4.64859 13.9678C4.90139 14.0481 5.11195 14.2255 5.23395 14.461C6.39995 16.717 9.09995 19 12 19C15.129 19 18.212 16.221 19.128 13.624C19.2059 13.4001 19.3613 13.2115 19.5662 13.0921C19.771 12.9727 20.0117 12.9305 20.245 12.973C20.3291 12.9888 20.4144 12.9978 20.5 13C20.8712 12.9956 21.2275 12.8537 21.5002 12.6017C21.7728 12.3497 21.9423 12.0056 21.9759 11.6358C22.0095 11.2661 21.9048 10.8971 21.682 10.6001C21.4593 10.3031 21.1343 10.0993 20.77 10.028C20.5573 9.98948 20.3629 9.88311 20.2158 9.72483C20.0687 9.56656 19.9768 9.36489 19.954 9.15003C19.8217 7.88511 19.3883 6.67029 18.6901 5.60726C17.9919 4.54423 17.0492 3.66392 15.941 3.04002C15.6583 3.92547 15.2801 4.77749 14.813 5.58102C13.5149 7.42116 11.8216 8.94747 9.85695 10.048C10.1565 10.1214 10.4262 10.2853 10.6292 10.5174C10.8323 10.7496 10.9589 11.0387 10.9917 11.3453C11.0245 11.652 10.962 11.9613 10.8127 12.2312C10.6634 12.5011 10.4345 12.7183 10.1572 12.8534C9.87996 12.9885 9.5678 13.0349 9.26325 12.9862C8.9587 12.9374 8.67658 12.796 8.4553 12.5812C8.23402 12.3663 8.08435 12.0885 8.02666 11.7855C7.96898 11.4825 8.0061 11.1691 8.13295 10.888C5.83378 11.8191 3.34775 12.1959 0.875952 11.988C0.669923 11.9604 0.477621 11.8693 0.325789 11.7273C0.173956 11.5853 0.0701419 11.3996 0.028783 11.1959C-0.0125758 10.9921 0.0105769 10.7806 0.0950212 10.5907C0.179466 10.4007 0.321004 10.2418 0.499952 10.136C1.10448 9.45013 1.55433 8.64218 1.81895 7.76703C3.12395 4.67403 5.09995 2.45003e-05 12 2.45003e-05C14.3543 -0.00519135 16.6347 0.822542 18.4375 2.33677C20.2403 3.85101 21.4495 5.95412 21.851 8.27403C22.4871 8.54022 23.0305 8.98842 23.4128 9.56236C23.7952 10.1363 23.9994 10.8104 24 11.5V11.5ZM16 11.5C16 11.2034 15.912 10.9133 15.7472 10.6667C15.5823 10.42 15.3481 10.2277 15.074 10.1142C14.7999 10.0007 14.4983 9.97097 14.2073 10.0288C13.9163 10.0867 13.6491 10.2296 13.4393 10.4394C13.2295 10.6491 13.0867 10.9164 13.0288 11.2074C12.9709 11.4984 13.0006 11.8 13.1141 12.0741C13.2277 12.3481 13.4199 12.5824 13.6666 12.7472C13.9133 12.9121 14.2033 13 14.5 13C14.8978 13 15.2793 12.842 15.5606 12.5607C15.8419 12.2794 16 11.8979 16 11.5Z" fill="#374957"/>
</g>
<defs>
<clipPath id="clip0_1178_20001">
<rect width="24" height="24" fill="white"/>
</clipPath>
</defs>
</svg>
