<svg width="24" height="24" viewBox="0 0 24 24" fill="none" xmlns="http://www.w3.org/2000/svg">
<g clip-path="url(#clip0_1178_20097)">
<path d="M0.142 4C0.363049 3.14386 0.861548 2.38508 1.55957 1.8423C2.25759 1.29951 3.11579 1.00331 4 1H15C15.8842 1.00331 16.7424 1.29951 17.4404 1.8423C18.1385 2.38508 18.637 3.14386 18.858 4H0.142ZM8.942 20C8.97863 20.1642 8.99807 20.3318 9 20.5C9 21.163 8.73661 21.7989 8.26777 22.2678C7.79893 22.7366 7.16304 23 6.5 23C5.83696 23 5.20107 22.7366 4.73223 22.2678C4.26339 21.7989 4 21.163 4 20.5C4.00193 20.3318 4.02137 20.1642 4.058 20H8.942ZM19.942 20C19.9786 20.1642 19.9981 20.3318 20 20.5C20 21.163 19.7366 21.7989 19.2678 22.2678C18.7989 22.7366 18.163 23 17.5 23C16.837 23 16.2011 22.7366 15.7322 22.2678C15.2634 21.7989 15 21.163 15 20.5C15.0019 20.3318 15.0214 20.1642 15.058 20H19.942ZM10 18H13V6H10V18ZM19 10V6H15V10H19ZM8 10V6H5V10H8ZM20 12H15V18H22C22.5304 18 23.0391 17.7893 23.4142 17.4142C23.7893 17.0391 24 16.5304 24 16C24 14.9391 23.5786 13.9217 22.8284 13.1716C22.0783 12.4214 21.0609 12 20 12V12ZM3 10V6H0V10H3ZM8 12H0V15C0 15.7956 0.31607 16.5587 0.87868 17.1213C1.44129 17.6839 2.20435 18 3 18H8V12Z" fill="#374957"/>
</g>
<defs>
<clipPath id="clip0_1178_20097">
<rect width="24" height="24" fill="white"/>
</clipPath>
</defs>
</svg>
