<svg width="24" height="24" viewBox="0 0 24 24" fill="none" xmlns="http://www.w3.org/2000/svg">
<path d="M23.934 5.17926C23.7124 3.99609 23.0813 2.92875 22.1512 2.16456C21.2212 1.40037 20.0517 0.988154 18.848 1.00026H6.24201C2.85001 1.00026 0.482006 2.60026 0.0660064 5.17926C-0.0674502 5.99461 0.00367296 6.83034 0.27299 7.61141C0.542306 8.39248 1.00139 9.09444 1.60901 9.65426C1.72451 9.75284 1.81874 9.87389 1.88596 10.01C1.95318 10.1462 1.99198 10.2946 2.00001 10.4463V18.0003C2.00159 19.3259 2.52889 20.5967 3.46623 21.534C4.40356 22.4714 5.67441 22.9987 7.00001 23.0003H17C18.3256 22.9987 19.5964 22.4714 20.5338 21.534C21.4711 20.5967 21.9984 19.3259 22 18.0003V10.4463C22.0078 10.2953 22.0463 10.1475 22.113 10.0119C22.1797 9.87627 22.2732 9.75561 22.388 9.65726C22.9966 9.09739 23.4564 8.39506 23.7263 7.61342C23.9961 6.83178 24.0675 5.99532 23.934 5.17926ZM8.00001 18.0003C7.73479 18.0003 7.48044 17.8949 7.2929 17.7074C7.10536 17.5198 7.00001 17.2655 7.00001 17.0003C7.00001 16.735 7.10536 16.4807 7.2929 16.2932C7.48044 16.1056 7.73479 16.0003 8.00001 16.0003C8.26522 16.0003 8.51958 16.1056 8.70711 16.2932C8.89465 16.4807 9.00001 16.735 9.00001 17.0003C9.00001 17.2655 8.89465 17.5198 8.70711 17.7074C8.51958 17.8949 8.26522 18.0003 8.00001 18.0003V18.0003ZM8.00001 14.0003C7.73479 14.0003 7.48044 13.8949 7.2929 13.7074C7.10536 13.5198 7.00001 13.2655 7.00001 13.0003C7.00001 12.735 7.10536 12.4807 7.2929 12.2932C7.48044 12.1056 7.73479 12.0003 8.00001 12.0003C8.26522 12.0003 8.51958 12.1056 8.70711 12.2932C8.89465 12.4807 9.00001 12.735 9.00001 13.0003C9.00001 13.2655 8.89465 13.5198 8.70711 13.7074C8.51958 13.8949 8.26522 14.0003 8.00001 14.0003V14.0003ZM12 18.0003C11.7348 18.0003 11.4804 17.8949 11.2929 17.7074C11.1054 17.5198 11 17.2655 11 17.0003C11 16.735 11.1054 16.4807 11.2929 16.2932C11.4804 16.1056 11.7348 16.0003 12 16.0003C12.2652 16.0003 12.5196 16.1056 12.7071 16.2932C12.8946 16.4807 13 16.735 13 17.0003C13 17.2655 12.8946 17.5198 12.7071 17.7074C12.5196 17.8949 12.2652 18.0003 12 18.0003Z" fill="#374957"/>
</svg>
