<svg width="24" height="24" viewBox="0 0 24 24" fill="none" xmlns="http://www.w3.org/2000/svg">
<g clip-path="url(#clip0_1178_20132)">
<path d="M22.7613 13.9701L20.3163 14.6161C19.9581 14.7105 19.6232 14.8777 19.3323 15.1071L16.7383 13.5991C17.0858 12.5607 17.0858 11.4375 16.7383 10.3991L19.3323 8.89012C19.6232 9.11956 19.9581 9.28669 20.3163 9.38112C20.3163 9.38112 22.9333 10.0601 23.0163 10.0601C23.2556 10.0554 23.4853 9.96492 23.6636 9.80521C23.842 9.6455 23.9571 9.42712 23.988 9.18976C24.019 8.9524 23.9638 8.7118 23.8325 8.51166C23.7012 8.31153 23.5024 8.16515 23.2723 8.09912L20.8283 7.45212C20.6453 7.40353 20.489 7.28433 20.3938 7.12066C20.2986 6.957 20.2721 6.76224 20.3203 6.57912L20.9673 4.13512C21.0009 4.00813 21.0092 3.87576 20.9917 3.74558C20.9741 3.61539 20.9311 3.48993 20.8651 3.37637C20.7991 3.2628 20.7113 3.16335 20.6069 3.08369C20.5024 3.00404 20.3833 2.94574 20.2563 2.91212C20.1293 2.8785 19.997 2.87022 19.8668 2.88776C19.7366 2.9053 19.6111 2.9483 19.4976 3.01433C19.384 3.08035 19.2845 3.16809 19.2049 3.27255C19.1252 3.37701 19.0669 3.49613 19.0333 3.62312L18.3873 6.06712C18.2916 6.4257 18.2708 6.80016 18.3263 7.16712L15.7263 8.67712C15.0114 7.87117 14.0553 7.3177 13.0003 7.09912V4.09912C13.3444 3.96397 13.6572 3.75977 13.9193 3.49912L15.7073 1.71112C15.8955 1.52361 16.0015 1.26903 16.0019 1.00339C16.0024 0.737741 15.8973 0.482789 15.7098 0.294618C15.5223 0.106447 15.2677 0.000470405 15.0021 1.56222e-06C14.7364 -0.000467281 14.4815 0.10461 14.2933 0.292118L12.5053 2.08012C12.3709 2.21312 12.1894 2.28773 12.0003 2.28773C11.8112 2.28773 11.6297 2.21312 11.4953 2.08012L9.70732 0.292118C9.51871 0.10996 9.26611 0.00916585 9.00391 0.0114443C8.74172 0.0137227 8.49091 0.118892 8.3055 0.3043C8.12009 0.489708 8.01492 0.74052 8.01264 1.00272C8.01036 1.26491 8.11116 1.51752 8.29332 1.70612L10.0813 3.49912C10.3435 3.75977 10.6562 3.96397 11.0003 4.09912V7.09912C9.94445 7.31581 8.98687 7.86791 8.27032 8.67312L5.67032 7.16312C5.7258 6.79616 5.70503 6.4217 5.60932 6.06312L4.96732 3.61912C4.9337 3.49213 4.8754 3.37301 4.79574 3.26855C4.71608 3.16409 4.61663 3.07635 4.50307 3.01033C4.3895 2.9443 4.26404 2.9013 4.13386 2.88376C4.00367 2.86622 3.8713 2.8745 3.74432 2.90812C3.61733 2.94174 3.4982 3.00004 3.39375 3.07969C3.28929 3.15935 3.20155 3.2588 3.13552 3.37237C3.0695 3.48593 3.02649 3.61139 3.00896 3.74158C2.99142 3.87176 2.9997 4.00413 3.03332 4.13112L3.68032 6.57512C3.7285 6.75824 3.70207 6.953 3.60684 7.11666C3.5116 7.28033 3.35533 7.39953 3.17232 7.44812L0.728315 8.09912C0.4943 8.16174 0.290973 8.30718 0.156111 8.50842C0.0212494 8.70966 -0.035978 8.95301 -0.0049384 9.19326C0.0261012 9.43351 0.143297 9.65433 0.324876 9.81468C0.506454 9.97504 0.740069 10.064 0.982315 10.0651C1.06731 10.0651 3.68232 9.38612 3.68232 9.38612C4.04053 9.29169 4.37547 9.12456 4.66632 8.89512L7.26232 10.3991C6.91485 11.4375 6.91485 12.5607 7.26232 13.5991L4.66832 15.1071C4.37747 14.8777 4.04253 14.7105 3.68432 14.6161L1.23931 13.9701C0.990325 13.9217 0.732234 13.9697 0.517303 14.1044C0.302372 14.2391 0.146664 14.4504 0.0817097 14.6956C0.0167555 14.9408 0.0474092 15.2016 0.167464 15.425C0.287518 15.6485 0.488001 15.8179 0.728315 15.8991L3.17232 16.5461C3.35533 16.5947 3.5116 16.7139 3.60684 16.8776C3.70207 17.0412 3.7285 17.236 3.68032 17.4191L3.03332 19.8631C2.9997 19.9901 2.99142 20.1225 3.00896 20.2527C3.02649 20.3828 3.0695 20.5083 3.13552 20.6219C3.20155 20.7354 3.28929 20.8349 3.39375 20.9145C3.4982 20.9942 3.61733 21.0525 3.74432 21.0861C3.8713 21.1197 4.00367 21.128 4.13386 21.1105C4.26404 21.0929 4.3895 21.0499 4.50307 20.9839C4.61663 20.9179 4.71608 20.8301 4.79574 20.7257C4.8754 20.6212 4.9337 20.5021 4.96732 20.3751L5.61332 17.9311C5.70903 17.5725 5.7298 17.1981 5.67432 16.8311L8.27432 15.3211C8.98925 16.1271 9.94537 16.6805 11.0003 16.8991V19.8991C10.6562 20.0343 10.3435 20.2385 10.0813 20.4991L8.29332 22.2921C8.11116 22.4807 8.01036 22.7333 8.01264 22.9955C8.01492 23.2577 8.12009 23.5085 8.3055 23.6939C8.49091 23.8793 8.74172 23.9845 9.00391 23.9868C9.26611 23.9891 9.51871 23.8883 9.70732 23.7061L11.5003 21.9181C11.6347 21.7851 11.8162 21.7105 12.0053 21.7105C12.1944 21.7105 12.3759 21.7851 12.5103 21.9181L14.2983 23.7061C14.4869 23.8883 14.7395 23.9891 15.0017 23.9868C15.2639 23.9845 15.5147 23.8793 15.7001 23.6939C15.8855 23.5085 15.9907 23.2577 15.993 22.9955C15.9953 22.7333 15.8945 22.4807 15.7123 22.2921L13.9243 20.5041C13.6612 20.2411 13.3466 20.0351 13.0003 19.8991V16.8991C14.0561 16.6827 15.0136 16.131 15.7303 15.3261L18.3303 16.8361C18.2748 17.2031 18.2956 17.5775 18.3913 17.9361L19.0373 20.3801C19.1052 20.6366 19.2722 20.8556 19.5016 20.9889C19.7309 21.1222 20.0039 21.159 20.2603 21.0911C20.5168 21.0232 20.7358 20.8562 20.8691 20.6269C21.0024 20.3975 21.0392 20.1246 20.9713 19.8681L20.3243 17.4241C20.2761 17.241 20.3026 17.0462 20.3978 16.8826C20.493 16.7189 20.6493 16.5997 20.8323 16.5511L23.2763 15.9041C23.4061 15.8732 23.5283 15.8166 23.6359 15.7377C23.7434 15.6589 23.8341 15.5593 23.9026 15.4448C23.9711 15.3303 24.016 15.2033 24.0346 15.0713C24.0533 14.9392 24.0453 14.8047 24.0112 14.6758C23.9772 14.5468 23.9176 14.426 23.8361 14.3204C23.7546 14.2148 23.6528 14.1266 23.5367 14.0609C23.4207 13.9953 23.2926 13.9535 23.1601 13.9381C23.0276 13.9227 22.8934 13.9339 22.7653 13.9711L22.7613 13.9701Z" fill="#374957"/>
</g>
<defs>
<clipPath id="clip0_1178_20132">
<rect width="24" height="24" fill="white"/>
</clipPath>
</defs>
</svg>
