<svg width="24" height="24" viewBox="0 0 24 24" fill="none" xmlns="http://www.w3.org/2000/svg">
<g clip-path="url(#clip0_1178_19826)">
<path d="M24 11.5005C23.9995 10.8108 23.7952 10.1367 23.4129 9.5628C23.0306 8.98886 22.4872 8.54065 21.851 8.27446C21.445 5.95682 20.2348 3.85656 18.4332 2.34313C16.6316 0.829688 14.354 0 12.001 0C9.64811 0 7.37053 0.829688 5.56892 2.34313C3.7673 3.85656 2.55706 5.95682 2.15105 8.27446C1.42505 8.57989 0.823296 9.12127 0.443092 9.81106C0.0628883 10.5008 -0.0735387 11.2987 0.0558719 12.0756C0.185283 12.8526 0.572965 13.5631 1.15623 14.0924C1.73949 14.6217 2.48424 14.9388 3.27005 14.9925C3.78654 16.0885 4.487 17.088 5.34105 17.9475C4.08963 19.3139 3.29544 21.0365 3.06905 22.8755C3.05132 23.0161 3.06372 23.159 3.1054 23.2945C3.14708 23.43 3.2171 23.5551 3.31082 23.6615C3.40454 23.7679 3.5198 23.8531 3.64897 23.9115C3.77815 23.97 3.91827 24.0003 4.06005 24.0005H19.919C20.0608 24.0004 20.2009 23.9702 20.3302 23.9119C20.4594 23.8536 20.5747 23.7685 20.6685 23.6622C20.7623 23.5559 20.8325 23.4309 20.8743 23.2954C20.9161 23.1599 20.9286 23.0171 20.911 22.8765C20.6863 21.0421 19.896 19.3233 18.65 17.9585C19.5088 17.0963 20.2131 16.0931 20.732 14.9925C21.6181 14.9336 22.4487 14.5401 23.0555 13.8917C23.6623 13.2433 24 12.3885 24 11.5005ZM20.248 12.9735C20.0148 12.9307 19.774 12.9729 19.5691 13.0923C19.3642 13.2117 19.2088 13.4005 19.131 13.6245C18.215 16.2225 15.13 19.0005 12 19.0005C8.87005 19.0005 5.78505 16.2205 4.86905 13.6225C4.79108 13.3986 4.63567 13.2099 4.43084 13.0905C4.22602 12.9712 3.98527 12.9289 3.75205 12.9715C3.66894 12.9878 3.58468 12.9975 3.50005 13.0005C3.12883 12.996 2.77245 12.8541 2.49983 12.6021C2.22721 12.3501 2.05771 12.006 2.02412 11.6363C1.99053 11.2666 2.09524 10.8975 2.31799 10.6005C2.54074 10.3036 2.86571 10.0997 3.23005 10.0285C3.44266 9.98992 3.63707 9.88354 3.78417 9.72527C3.93127 9.56699 4.02315 9.36532 4.04605 9.15046C4.19136 7.76244 4.69877 6.43695 5.51749 5.30673C6.3362 4.1765 7.43748 3.28119 8.71105 2.71046C8.50041 3.24629 8.42388 3.82546 8.4881 4.39761C8.55233 4.96976 8.75538 5.51756 9.07957 5.99335C9.40377 6.46914 9.8393 6.85852 10.3483 7.12761C10.8573 7.39671 11.4243 7.53737 12 7.53737C12.5758 7.53737 13.1428 7.39671 13.6518 7.12761C14.1608 6.85852 14.5963 6.46914 14.9205 5.99335C15.2447 5.51756 15.4478 4.96976 15.512 4.39761C15.5762 3.82546 15.4997 3.24629 15.289 2.71046C16.5626 3.28119 17.6639 4.1765 18.4826 5.30673C19.3013 6.43695 19.8087 7.76244 19.954 9.15046C19.9769 9.36532 20.0688 9.56699 20.2159 9.72527C20.363 9.88354 20.5574 9.98992 20.77 10.0285C21.1344 10.0997 21.4593 10.3036 21.6821 10.6005C21.9049 10.8975 22.0096 11.2666 21.976 11.6363C21.9424 12.006 21.7729 12.3501 21.5003 12.6021C21.2276 12.8541 20.8713 12.996 20.5 13.0005C20.4155 12.9981 20.3312 12.9891 20.248 12.9735V12.9735Z" fill="#374957"/>
<path d="M9.5 13C10.3284 13 11 12.3284 11 11.5C11 10.6716 10.3284 10 9.5 10C8.67157 10 8 10.6716 8 11.5C8 12.3284 8.67157 13 9.5 13Z" fill="#374957"/>
<path d="M14.5 13C15.3284 13 16 12.3284 16 11.5C16 10.6716 15.3284 10 14.5 10C13.6716 10 13 10.6716 13 11.5C13 12.3284 13.6716 13 14.5 13Z" fill="#374957"/>
</g>
<defs>
<clipPath id="clip0_1178_19826">
<rect width="24" height="24" fill="white"/>
</clipPath>
</defs>
</svg>
