<svg width="24" height="24" viewBox="0 0 24 24" fill="none" xmlns="http://www.w3.org/2000/svg">
<g clip-path="url(#clip0_1178_20089)">
<path d="M23.9238 18.134L21.4598 4.13401C21.2576 2.97525 20.6528 1.92511 19.7519 1.16878C18.8511 0.412449 17.7121 -0.00147549 16.5358 5.77515e-06H7.45083C6.27366 -0.00178403 5.13372 0.412492 4.23236 1.16966C3.331 1.92683 2.72622 2.97818 2.52484 4.13801L0.0758415 18.138C-0.0499222 18.8566 -0.0169291 19.594 0.172506 20.2984C0.361941 21.0029 0.703229 21.6574 1.17243 22.2159C1.64162 22.7745 2.22736 23.2237 2.88855 23.5319C3.54973 23.8401 4.27035 23.9998 4.99984 24H18.9998C19.7298 24.0001 20.4509 23.8403 21.1126 23.532C21.7742 23.2236 22.3603 22.7741 22.8297 22.215C23.2991 21.656 23.6403 21.0009 23.8295 20.2959C24.0187 19.5909 24.0512 18.8529 23.9248 18.134H23.9238ZM12.9998 20C12.9998 20.2652 12.8945 20.5196 12.7069 20.7071C12.5194 20.8946 12.265 21 11.9998 21C11.7346 21 11.4803 20.8946 11.2927 20.7071C11.1052 20.5196 10.9998 20.2652 10.9998 20V18C10.9998 17.7348 11.1052 17.4804 11.2927 17.2929C11.4803 17.1054 11.7346 17 11.9998 17C12.265 17 12.5194 17.1054 12.7069 17.2929C12.8945 17.4804 12.9998 17.7348 12.9998 18V20ZM12.9998 13C12.9998 13.2652 12.8945 13.5196 12.7069 13.7071C12.5194 13.8946 12.265 14 11.9998 14C11.7346 14 11.4803 13.8946 11.2927 13.7071C11.1052 13.5196 10.9998 13.2652 10.9998 13V11C10.9998 10.7348 11.1052 10.4804 11.2927 10.2929C11.4803 10.1054 11.7346 10 11.9998 10C12.265 10 12.5194 10.1054 12.7069 10.2929C12.8945 10.4804 12.9998 10.7348 12.9998 11V13ZM12.9998 6.00001C12.9998 6.26522 12.8945 6.51958 12.7069 6.70711C12.5194 6.89465 12.265 7.00001 11.9998 7.00001C11.7346 7.00001 11.4803 6.89465 11.2927 6.70711C11.1052 6.51958 10.9998 6.26522 10.9998 6.00001V4.00001C10.9998 3.73479 11.1052 3.48044 11.2927 3.2929C11.4803 3.10536 11.7346 3.00001 11.9998 3.00001C12.265 3.00001 12.5194 3.10536 12.7069 3.2929C12.8945 3.48044 12.9998 3.73479 12.9998 4.00001V6.00001Z" fill="#374957"/>
</g>
<defs>
<clipPath id="clip0_1178_20089">
<rect width="24" height="24" fill="white"/>
</clipPath>
</defs>
</svg>
