<svg width="24" height="24" viewBox="0 0 24 24" fill="none" xmlns="http://www.w3.org/2000/svg">
<g clip-path="url(#clip0_1178_20198)">
<path d="M22.535 8.4607C22.0715 7.99572 21.5205 7.62726 20.9137 7.37666C20.3069 7.12605 19.6565 6.99827 19 7.0007V7.0007H2.79997L7.09997 2.7007C7.28721 2.51266 7.39209 2.25794 7.39152 1.99258C7.39096 1.72721 7.285 1.47294 7.09697 1.2857C6.90893 1.09846 6.65421 0.99358 6.38884 0.994143C6.12348 0.994705 5.86921 1.10066 5.68197 1.2887L0.731966 6.2377C0.263288 6.70652 0 7.34229 0 8.0052C0 8.66811 0.263288 9.30388 0.731966 9.7727L5.68197 14.7237C5.77481 14.8168 5.88508 14.8907 6.00649 14.9412C6.1279 14.9917 6.25806 15.0178 6.38955 15.018C6.52104 15.0181 6.65128 14.9924 6.77283 14.9423C6.89438 14.8921 7.00486 14.8185 7.09797 14.7257C7.19107 14.6329 7.26498 14.5226 7.31547 14.4012C7.36596 14.2798 7.39204 14.1496 7.39223 14.0181C7.39242 13.8866 7.3667 13.7564 7.31655 13.6348C7.26641 13.5133 7.19281 13.4028 7.09997 13.3097L2.78797 9.0007H19C19.7956 9.0007 20.5587 9.31677 21.1213 9.87938C21.6839 10.442 22 11.205 22 12.0007V19.0007C22 19.7963 21.6839 20.5594 21.1213 21.122C20.5587 21.6846 19.7956 22.0007 19 22.0007H4.99997C4.73475 22.0007 4.4804 22.1061 4.29286 22.2936C4.10532 22.4811 3.99997 22.7355 3.99997 23.0007C3.99997 23.2659 4.10532 23.5203 4.29286 23.7078C4.4804 23.8953 4.73475 24.0007 4.99997 24.0007H19C20.3256 23.9991 21.5964 23.4718 22.5337 22.5345C23.4711 21.5971 23.9984 20.3263 24 19.0007V12.0007C24.0022 11.3431 23.8738 10.6915 23.6224 10.0838C23.3709 9.47616 23.0013 8.92445 22.535 8.4607Z" fill="#374957"/>
</g>
<defs>
<clipPath id="clip0_1178_20198">
<rect width="24" height="24" fill="white"/>
</clipPath>
</defs>
</svg>
