<svg width="24" height="24" viewBox="0 0 24 24" fill="none" xmlns="http://www.w3.org/2000/svg">
<g clip-path="url(#clip0_1178_19834)">
<path d="M12.9996 21.9992H5.6826C4.34933 21.9752 3.06436 21.496 2.041 20.641C1.01763 19.7861 0.317418 18.6069 0.0565963 17.2992C-0.113234 16.1739 0.073707 15.0237 0.59116 14.0101C1.10861 12.9966 1.93058 12.1706 2.9416 11.6482C2.07345 10.0695 1.79015 8.23518 2.1416 6.46817C2.48345 4.7205 3.39865 3.13685 4.74222 1.96807C6.0858 0.799296 7.78093 0.112219 9.5591 0.0156763C11.3373 -0.0808663 13.0968 0.418645 14.559 1.43509C16.0213 2.45153 17.1025 3.92678 17.6316 5.62717C17.6819 5.79926 17.7741 5.95619 17.9 6.08393C18.0258 6.21167 18.1813 6.30623 18.3526 6.35917C19.4546 6.69668 20.471 7.26763 21.3326 8.03317C21.2226 8.02517 21.1146 7.99917 20.9996 7.99917C19.8291 8.00075 18.6961 8.4122 17.7974 9.16207C16.8986 9.91195 16.2908 10.9529 16.0796 12.1042L15.2326 12.5282C14.5399 12.1795 13.7751 11.9983 12.9996 11.9992C11.6735 11.9992 10.4017 12.526 9.46406 13.4636C8.52638 14.4013 7.9996 15.6731 7.9996 16.9992C7.9996 18.3253 8.52638 19.597 9.46406 20.5347C10.4017 21.4724 11.6735 21.9992 12.9996 21.9992V21.9992ZM20.9996 15.9992C21.5929 15.9992 22.173 15.8232 22.6663 15.4936C23.1597 15.1639 23.5442 14.6954 23.7712 14.1472C23.9983 13.599 24.0577 12.9958 23.942 12.4139C23.8262 11.832 23.5405 11.2974 23.1209 10.8779C22.7014 10.4583 22.1668 10.1726 21.5849 10.0568C21.0029 9.94106 20.3997 10.0005 19.8515 10.2275C19.3034 10.4546 18.8348 10.8391 18.5052 11.3325C18.1755 11.8258 17.9996 12.4058 17.9996 12.9992C18.0043 13.1208 18.0167 13.2421 18.0366 13.3622L15.0766 14.8432C14.6532 14.4335 14.1186 14.1576 13.5394 14.0498C12.9602 13.942 12.3621 14.0072 11.8197 14.2371C11.2773 14.467 10.8146 14.8516 10.4893 15.3428C10.164 15.8339 9.99053 16.41 9.99053 16.9992C9.99053 17.5883 10.164 18.1644 10.4893 18.6556C10.8146 19.1468 11.2773 19.5313 11.8197 19.7613C12.3621 19.9912 12.9602 20.0563 13.5394 19.9485C14.1186 19.8408 14.6532 19.5648 15.0766 19.1552L18.0366 20.6362C18.0167 20.7563 18.0043 20.8775 17.9996 20.9992C17.9961 21.6949 18.2334 22.3705 18.6711 22.9113C19.1089 23.4521 19.7203 23.8249 20.4015 23.9663C21.0827 24.1078 21.792 24.0093 22.4089 23.6876C23.0258 23.3658 23.5124 22.8405 23.7862 22.2009C24.0601 21.5613 24.1043 20.8466 23.9113 20.1781C23.7183 19.5096 23.3001 18.9285 22.7275 18.5332C22.1549 18.1379 21.4632 17.9528 20.7697 18.0093C20.0762 18.0658 19.4236 18.3604 18.9226 18.8432L15.9626 17.3622C15.9825 17.2421 15.9949 17.1208 15.9996 16.9992C15.9949 16.8775 15.9825 16.7563 15.9626 16.6362L18.9226 15.1552C19.479 15.6956 20.2239 15.9983 20.9996 15.9992Z" fill="#374957"/>
</g>
<defs>
<clipPath id="clip0_1178_19834">
<rect width="24" height="24" fill="white"/>
</clipPath>
</defs>
</svg>
