<svg width="24" height="24" viewBox="0 0 24 24" fill="none" xmlns="http://www.w3.org/2000/svg">
<g clip-path="url(#clip0_1178_20091)">
<path d="M24 21.9993C24 22.2645 23.8946 22.5189 23.7071 22.7064C23.5196 22.8939 23.2652 22.9993 23 22.9993H1C0.734784 22.9993 0.48043 22.8939 0.292893 22.7064C0.105357 22.5189 0 22.2645 0 21.9993C0 21.7341 0.105357 21.4797 0.292893 21.2922C0.48043 21.1046 0.734784 20.9993 1 20.9993H23C23.2652 20.9993 23.5196 21.1046 23.7071 21.2922C23.8946 21.4797 24 21.7341 24 21.9993ZM2 18.9993H22C22.2652 18.9993 22.5196 18.8939 22.7071 18.7064C22.8946 18.5189 23 18.2645 23 17.9993V16.9993C22.9964 14.2566 21.9692 11.614 20.1196 9.58891C18.27 7.56377 15.7311 6.30188 13 6.05029V4.72229C13.3813 4.50215 13.6793 4.16236 13.8478 3.7556C14.0162 3.34885 14.0458 2.89786 13.9319 2.4726C13.8179 2.04733 13.5668 1.67155 13.2175 1.40353C12.8682 1.13551 12.4403 0.990234 12 0.990234C11.5597 0.990234 11.1318 1.13551 10.7825 1.40353C10.4332 1.67155 10.1821 2.04733 10.0681 2.4726C9.9542 2.89786 9.98376 3.34885 10.1522 3.7556C10.3207 4.16236 10.6187 4.50215 11 4.72229V6.05029C8.26889 6.30188 5.73002 7.56377 3.88041 9.58891C2.03079 11.614 1.00363 14.2566 1 16.9993V17.9993C1 18.2645 1.10536 18.5189 1.29289 18.7064C1.48043 18.8939 1.73478 18.9993 2 18.9993Z" fill="#374957"/>
</g>
<defs>
<clipPath id="clip0_1178_20091">
<rect width="24" height="24" fill="white"/>
</clipPath>
</defs>
</svg>
