<svg width="24" height="24" viewBox="0 0 24 24" fill="none" xmlns="http://www.w3.org/2000/svg">
<g clip-path="url(#clip0_1178_19842)">
<path d="M15.9996 10.6993C15.9996 12.1993 13.7406 14.4313 11.9996 15.7613C10.2586 14.4313 7.99964 12.2013 7.99964 10.6993C7.92364 8.69332 10.9126 8.29932 10.9996 10.4533V10.9993C10.9996 11.2645 11.105 11.5189 11.2925 11.7064C11.4801 11.894 11.7344 11.9993 11.9996 11.9993C12.2649 11.9993 12.5192 11.894 12.7067 11.7064C12.8943 11.5189 12.9996 11.2645 12.9996 10.9993V10.4533C13.0866 8.29932 16.0756 8.69332 15.9996 10.6993ZM23.9996 12.3393V18.9993C23.9978 20.3248 23.4704 21.5955 22.5331 22.5328C21.5958 23.4701 20.3252 23.9975 18.9996 23.9993H13.0836C6.08164 23.9993 0.469637 19.2073 0.0286368 12.8543C-0.0939973 11.1401 0.153023 9.41947 0.752982 7.80896C1.35294 6.19845 2.29184 4.73559 3.50615 3.51939C4.72046 2.30319 6.18184 1.362 7.79142 0.759532C9.40099 0.157061 11.1212 -0.0926437 12.8356 0.0273152C15.9071 0.290953 18.7652 1.70676 20.836 3.99049C22.9067 6.27421 24.0369 9.25676 23.9996 12.3393V12.3393ZM17.9996 10.6993C18.02 9.99575 17.8317 9.3019 17.4585 8.70512C17.0853 8.10834 16.5439 7.63531 15.9024 7.34558C15.2609 7.05586 14.5481 6.96238 13.8536 7.07693C13.1591 7.19148 12.5141 7.50893 11.9996 7.98932C11.4852 7.50893 10.8401 7.19148 10.1457 7.07693C9.45118 6.96238 8.73834 7.05586 8.09688 7.34558C7.45541 7.63531 6.914 8.10834 6.54081 8.70512C6.16762 9.3019 5.97932 9.99575 5.99964 10.6993C5.99964 13.9553 10.8736 17.4353 11.4296 17.8213C11.597 17.9374 11.7959 17.9997 11.9996 17.9997C12.2034 17.9997 12.4022 17.9374 12.5696 17.8213C13.1256 17.4353 17.9996 13.9553 17.9996 10.6993Z" fill="#374957"/>
</g>
<defs>
<clipPath id="clip0_1178_19842">
<rect width="24" height="24" fill="white"/>
</clipPath>
</defs>
</svg>
