<svg width="24" height="24" viewBox="0 0 24 24" fill="none" xmlns="http://www.w3.org/2000/svg">
<g clip-path="url(#clip0_1178_19938)">
<path d="M16.5851 9.61642L15.2101 6.00042H17.6321C18.553 6.00263 19.4605 6.22094 20.2817 6.63778C21.1029 7.05461 21.8148 7.65835 22.3601 8.40042L23.1471 9.47542C23.4825 9.93297 23.7269 10.4507 23.8671 11.0004H16.9521C16.8811 10.527 16.758 10.0628 16.5851 9.61642ZM12.0001 4.00042C12.2653 4.00042 12.5197 3.89506 12.7072 3.70752C12.8947 3.51999 13.0001 3.26563 13.0001 3.00042V1.00042C13.0001 0.735201 12.8947 0.480847 12.7072 0.293311C12.5197 0.105775 12.2653 0.000417791 12.0001 0.000417791C11.7349 0.000417791 11.4805 0.105775 11.293 0.293311C11.1055 0.480847 11.0001 0.735201 11.0001 1.00042V3.00042C11.0001 3.26563 11.1055 3.51999 11.293 3.70752C11.4805 3.89506 11.7349 4.00042 12.0001 4.00042ZM14.7221 10.3434L13.0711 6.00042H10.9381L9.26009 10.4524C9.19573 10.6317 9.1423 10.8147 9.10009 11.0004H14.9211C14.8711 10.7768 14.8046 10.5572 14.7221 10.3434V10.3434ZM16.5531 3.90042C16.6712 3.95978 16.7998 3.99515 16.9316 4.00449C17.0634 4.01383 17.1958 3.99695 17.3211 3.95483C17.4463 3.9127 17.562 3.84617 17.6614 3.75908C17.7608 3.67199 17.8419 3.56606 17.9001 3.44742L18.9001 1.44742C19.0186 1.21005 19.038 0.935308 18.954 0.683634C18.87 0.43196 18.6895 0.22397 18.4521 0.105418C18.2147 -0.013134 17.94 -0.0325358 17.6883 0.0514805C17.4366 0.135497 17.2286 0.316049 17.1101 0.553418L16.1101 2.55342C16.0504 2.67088 16.0145 2.79899 16.0044 2.93037C15.9944 3.06176 16.0104 3.19384 16.0516 3.31901C16.0927 3.44419 16.1582 3.55999 16.2443 3.65977C16.3304 3.75955 16.4353 3.84133 16.5531 3.90042V3.90042ZM11.9881 18.8874L14.7741 13.6344C14.8448 13.4273 14.9006 13.2155 14.9411 13.0004H9.00009C9.04505 13.258 9.11196 13.5112 9.20009 13.7574L11.9881 18.8874ZM7.40009 9.72942L8.80009 6.00042H6.38309C5.48112 6.00277 4.59172 6.21218 3.78345 6.6125C2.97517 7.01283 2.2696 7.59338 1.72109 8.30942L0.900094 9.38342C0.538358 9.86435 0.27995 10.4149 0.141094 11.0004H7.04109C7.11796 10.5658 7.23823 10.14 7.40009 9.72942V9.72942ZM16.9691 13.0004C16.9061 13.4783 16.7907 13.9478 16.6251 14.4004C16.6101 14.4404 12.8691 21.4744 12.8661 21.4754C12.7846 21.6337 12.6613 21.7665 12.5096 21.8596C12.3578 21.9526 12.1835 22.0022 12.0055 22.003C11.8275 22.0039 11.6527 21.9558 11.5002 21.8642C11.3476 21.7726 11.223 21.6409 11.1401 21.4834C11.1401 21.4834 7.36609 14.5714 7.35009 14.5284C7.17097 14.0351 7.05145 13.5221 6.99409 13.0004H0.121094C0.306032 13.8952 0.771184 14.7078 1.44909 15.3204L9.43909 23.0274C10.1409 23.6533 11.0488 23.9983 11.9891 23.9964C12.9493 23.9945 13.8751 23.6385 14.5891 22.9964L22.5251 15.3634C23.2205 14.7415 23.6988 13.9135 23.8901 13.0004H16.9691ZM6.10509 3.44742C6.22365 3.68545 6.4319 3.86664 6.68404 3.95112C6.93619 4.03561 7.21156 4.01647 7.44959 3.89792C7.68763 3.77937 7.86881 3.57111 7.9533 3.31897C8.03778 3.06683 8.01865 2.79145 7.90009 2.55342L6.90009 0.553418C6.84139 0.435885 6.76012 0.331065 6.66091 0.244942C6.5617 0.158819 6.44649 0.0930811 6.32188 0.0514805C6.0702 -0.0325358 5.79546 -0.013134 5.55809 0.105418C5.32073 0.22397 5.14017 0.43196 5.05616 0.683634C4.97214 0.935308 4.99154 1.21005 5.11009 1.44742L6.10509 3.44742Z" fill="#374957"/>
</g>
<defs>
<clipPath id="clip0_1178_19938">
<rect width="24" height="24" fill="white"/>
</clipPath>
</defs>
</svg>
