<svg width="24" height="24" viewBox="0 0 24 24" fill="none" xmlns="http://www.w3.org/2000/svg">
<g clip-path="url(#clip0_1178_19820)">
<path d="M22.2928 12.6996L21.2068 13.7856L17.6218 10.1996C17.0502 9.65439 16.2907 9.35024 15.5008 9.35024C14.7109 9.35024 13.9513 9.65439 13.3798 10.1996L13.2068 10.3726C13.0164 10.5546 12.7632 10.6562 12.4998 10.6562C12.2364 10.6562 11.9831 10.5546 11.7928 10.3726L6.71978 5.29357C6.62753 5.19806 6.51718 5.12188 6.39518 5.06947C6.27318 5.01706 6.14196 4.98947 6.00918 4.98832C5.8764 4.98717 5.74472 5.01247 5.62182 5.06275C5.49893 5.11303 5.38727 5.18728 5.29338 5.28117C5.19949 5.37507 5.12524 5.48672 5.07495 5.60962C5.02467 5.73251 4.99937 5.86419 5.00053 5.99697C5.00168 6.12975 5.02927 6.26097 5.08168 6.38297C5.13408 6.50498 5.21027 6.61532 5.30578 6.70757L10.3778 11.7806C10.9492 12.326 11.7088 12.6303 12.4988 12.6303C13.2887 12.6303 14.0483 12.326 14.6198 11.7806L14.7928 11.6076C14.9831 11.4255 15.2364 11.3239 15.4998 11.3239C15.7632 11.3239 16.0164 11.4255 16.2068 11.6076L19.7928 15.1996L18.7068 16.2856C18.567 16.4254 18.4718 16.6036 18.4332 16.7975C18.3946 16.9915 18.4144 17.1925 18.4901 17.3752C18.5658 17.5579 18.6939 17.7141 18.8583 17.824C19.0227 17.9339 19.216 17.9925 19.4138 17.9926H22.4998C22.8976 17.9926 23.2791 17.8345 23.5604 17.5532C23.8417 17.2719 23.9998 16.8904 23.9998 16.4926V13.3996C23.9984 13.2024 23.9387 13.0101 23.8283 12.8467C23.7179 12.6834 23.5616 12.5563 23.3792 12.4815C23.1968 12.4067 22.9963 12.3875 22.803 12.4263C22.6097 12.4651 22.4322 12.5602 22.2928 12.6996V12.6996Z" fill="#374957"/>
<path d="M23 21.976H5C4.20435 21.976 3.44129 21.6599 2.87868 21.0973C2.31607 20.5347 2 19.7716 2 18.976V1C2 0.734784 1.89464 0.48043 1.70711 0.292893C1.51957 0.105357 1.26522 0 1 0C0.734784 0 0.48043 0.105357 0.292893 0.292893C0.105357 0.48043 0 0.734784 0 1L0 18.976C0.00158786 20.3016 0.528882 21.5724 1.46622 22.5098C2.40356 23.4471 3.6744 23.9744 5 23.976H23C23.2652 23.976 23.5196 23.8706 23.7071 23.6831C23.8946 23.4956 24 23.2412 24 22.976C24 22.7108 23.8946 22.4564 23.7071 22.2689C23.5196 22.0814 23.2652 21.976 23 21.976Z" fill="#374957"/>
</g>
<defs>
<clipPath id="clip0_1178_19820">
<rect width="24" height="24" fill="white"/>
</clipPath>
</defs>
</svg>
