<svg width="24" height="24" viewBox="0 0 24 24" fill="none" xmlns="http://www.w3.org/2000/svg">
<g clip-path="url(#clip0_1178_19756)">
<path d="M19.1218 18.3936L23.0408 14.4746C23.6772 13.8078 24.0322 12.9214 24.0322 11.9996C24.0322 11.0779 23.6772 10.1915 23.0408 9.52464L19.1218 5.60564C18.8405 5.32425 18.459 5.16611 18.0611 5.16602C17.6633 5.16592 17.2817 5.32388 17.0003 5.60514C16.7189 5.88641 16.5608 6.26793 16.5607 6.66579C16.5606 7.06365 16.7185 7.44525 16.9998 7.72664L19.7798 10.5076L1.52979 10.5306C1.13196 10.5306 0.75043 10.6887 0.469125 10.97C0.18782 11.2513 0.0297852 11.6328 0.0297852 12.0306V12.0306C0.0297852 12.4285 0.18782 12.81 0.469125 13.0913C0.75043 13.3726 1.13196 13.5306 1.52979 13.5306L19.7608 13.5076L16.9998 16.2726C16.7265 16.5556 16.5754 16.9345 16.5788 17.3278C16.5822 17.721 16.7399 18.0973 17.0181 18.3754C17.2962 18.6535 17.6724 18.8112 18.0657 18.8147C18.459 18.8181 18.8379 18.6669 19.1208 18.3936H19.1218Z" fill="#374957"/>
</g>
<defs>
<clipPath id="clip0_1178_19756">
<rect width="24" height="24" fill="white"/>
</clipPath>
</defs>
</svg>
