<svg width="24" height="24" viewBox="0 0 24 24" fill="none" xmlns="http://www.w3.org/2000/svg">
<g clip-path="url(#clip0_1178_20170)">
<path d="M18.951 23.0009H18.918C18.407 22.9929 17.921 22.7759 17.574 22.4009L15.656 20.5199C15.272 20.1229 15.281 19.4899 15.678 19.1059C15.679 19.1049 15.68 19.1039 15.681 19.1029C16.078 18.7219 16.708 18.7329 17.091 19.1269L18.952 20.9499L22.293 17.6089C22.683 17.2189 23.317 17.2189 23.707 17.6089C24.097 17.9989 24.097 18.6329 23.707 19.0229L20.286 22.4439C19.934 22.8009 19.453 23.0019 18.951 23.0009V23.0009Z" fill="#374957"/>
<path d="M14.035 20.0145C14.031 16.7175 16.7 14.0415 19.996 14.0365C21.279 14.0345 22.529 14.4465 23.559 15.2115C25.332 8.82655 21.593 2.21355 15.209 0.440545C8.82499 -1.33245 2.21299 2.40555 0.439986 8.79055C-1.33301 15.1755 2.40599 21.7895 8.78999 23.5625C10.89 24.1455 13.109 24.1455 15.209 23.5625C14.447 22.5365 14.035 21.2925 14.035 20.0145ZM13 12.0215C13 12.2875 12.894 12.5415 12.706 12.7295L9.70099 15.7355C9.30299 16.1195 8.66899 16.1085 8.28499 15.7105C7.90999 15.3225 7.90999 14.7065 8.28499 14.3185L10.997 11.6065V7.01255C10.997 6.45955 11.445 6.01055 11.999 6.01055C12.552 6.01055 13 6.45955 13 7.01255V12.0215Z" fill="#374957"/>
</g>
<defs>
<clipPath id="clip0_1178_20170">
<rect width="24" height="24" fill="white"/>
</clipPath>
</defs>
</svg>
