<svg width="24" height="24" viewBox="0 0 24 24" fill="none" xmlns="http://www.w3.org/2000/svg">
<g clip-path="url(#clip0_1178_19844)">
<path d="M12.0001 7.94643C12.8412 7.94643 13.5231 7.26454 13.5231 6.42341C13.5231 5.58228 12.8412 4.90039 12.0001 4.90039C11.1589 4.90039 10.4771 5.58228 10.4771 6.42341C10.4771 7.26454 11.1589 7.94643 12.0001 7.94643Z" fill="#374957"/>
<path d="M20.0001 0H4.00006C1.77635 0.0175781 -0.0132387 1.83225 7.37985e-05 4.056V16.226C-0.0132387 18.4499 1.77621 20.2648 4.00006 20.283H6.92304L10.671 23.483C11.4134 24.1614 12.5479 24.1714 13.302 23.506L17.147 20.282H20C22.2239 20.2638 24.0133 18.4489 24 16.225V4.056C24.0134 1.83225 22.2238 0.0175781 20.0001 0ZM12.0001 3.042C16.6151 3.16402 16.6141 10.019 12.0001 10.142C7.38509 10.019 7.38607 3.16697 12.0001 3.042ZM16.2491 17.208C15.7139 17.3445 15.1694 17.0214 15.0329 16.4863C15.0323 16.4838 15.0317 16.4814 15.0311 16.479C14.5192 14.8048 12.747 13.8624 11.0728 14.3743C10.065 14.6824 9.27617 15.4712 8.96806 16.479C8.82832 17.0136 8.28167 17.3337 7.74706 17.194C7.21245 17.0543 6.89234 16.5076 7.03207 15.973C7.80532 13.229 10.6566 11.6313 13.4007 12.4046C15.1301 12.8919 16.4817 14.2435 16.9691 15.973C17.1083 16.5124 16.7871 17.0633 16.2491 17.208Z" fill="#374957"/>
</g>
<defs>
<clipPath id="clip0_1178_19844">
<rect width="24" height="24" fill="white"/>
</clipPath>
</defs>
</svg>
