<svg width="24" height="24" viewBox="0 0 24 24" fill="none" xmlns="http://www.w3.org/2000/svg">
<g clip-path="url(#clip0_1178_20027)">
<path d="M15.0002 23.9991C13.3197 23.9978 11.6581 23.6442 10.1227 22.9611C8.58732 22.278 7.21222 21.2805 6.08615 20.0331C4.95159 18.7842 4.09557 17.3084 3.5749 15.7034C3.05423 14.0985 2.88081 12.4012 3.06615 10.7241C3.36496 8.11412 4.50355 5.67184 6.31051 3.76496C8.11748 1.85808 10.495 0.589816 13.0852 0.15111C14.7596 -0.107515 16.4683 -0.037888 18.1162 0.35611C18.5476 0.466969 18.9417 0.691114 19.2575 1.00535C19.5732 1.31959 19.7993 1.7125 19.9123 2.14343C20.0253 2.57437 20.0211 3.02766 19.9001 3.45642C19.7791 3.88517 19.5457 4.27381 19.2242 4.58211C14.6642 8.74811 15.0602 15.2261 20.0312 18.9921C20.3826 19.268 20.6538 19.633 20.8163 20.0492C20.9789 20.4654 21.0269 20.9175 20.9554 21.3586C20.884 21.7997 20.6956 22.2135 20.4099 22.5571C20.1243 22.9006 19.7518 23.1614 19.3312 23.3121C17.933 23.7689 16.4711 24.0008 15.0002 23.9991V23.9991Z" fill="#374957"/>
</g>
<defs>
<clipPath id="clip0_1178_20027">
<rect width="24" height="24" fill="white"/>
</clipPath>
</defs>
</svg>
