<svg width="24" height="24" viewBox="0 0 24 24" fill="none" xmlns="http://www.w3.org/2000/svg">
<g clip-path="url(#clip0_1178_19937)">
<path d="M6 9H9.99999C9.99999 8.46956 9.78928 7.96086 9.41421 7.58579C9.03913 7.21071 8.53043 7 8 7C7.46956 7 6.96086 7.21071 6.58579 7.58579C6.21071 7.96086 6 8.46956 6 9V9Z" fill="#374957"/>
<path d="M8 5C8.45723 5.00463 8.91022 5.08819 9.339 5.247L11.293 3.293C11.3852 3.19749 11.4956 3.12131 11.6176 3.0689C11.7396 3.01649 11.8708 2.9889 12.0036 2.98775C12.1364 2.9866 12.2681 3.0119 12.391 3.06218C12.5139 3.11246 12.6255 3.18671 12.7194 3.28061C12.8133 3.3745 12.8875 3.48615 12.9378 3.60905C12.9881 3.73194 13.0134 3.86362 13.0123 3.9964C13.0111 4.12918 12.9835 4.2604 12.9311 4.3824C12.8787 4.50441 12.8025 4.61475 12.707 4.707L11.014 6.4C11.6459 7.11913 11.9962 8.04269 12 9H16V5C15.9984 3.6744 15.4711 2.40356 14.5338 1.46622C13.5964 0.528882 12.3256 0.00158786 11 0L5 0C3.6744 0.00158786 2.40356 0.528882 1.46622 1.46622C0.528882 2.40356 0.00158786 3.6744 0 5L0 9H4C4 7.93913 4.42143 6.92172 5.17157 6.17157C5.92172 5.42143 6.93913 5 8 5V5Z" fill="#374957"/>
<path d="M23.681 3.2674C23.4935 3.07992 23.2392 2.97461 22.974 2.97461C22.7088 2.97461 22.4545 3.07992 22.267 3.2674L19.293 6.24039C19.1054 6.42788 19.0001 6.6822 19 6.94739V18.0004C19 18.2656 18.8946 18.5199 18.7071 18.7075C18.5196 18.895 18.2652 19.0004 18 19.0004H16V11.0004H0V19.0004C0.00158786 20.326 0.528882 21.5968 1.46622 22.5341C2.40356 23.4715 3.6744 23.9988 5 24.0004H11C11.9718 23.9991 12.9221 23.7147 13.7348 23.1819C14.5475 22.6491 15.1873 21.891 15.576 21.0004H18C18.7956 21.0004 19.5587 20.6843 20.1213 20.1217C20.6839 19.5591 21 18.796 21 18.0004V7.36139L23.681 4.68139C23.8685 4.49387 23.9738 4.23956 23.9738 3.97439C23.9738 3.70923 23.8685 3.45492 23.681 3.2674V3.2674Z" fill="#374957"/>
</g>
<defs>
<clipPath id="clip0_1178_19937">
<rect width="24" height="24" fill="white"/>
</clipPath>
</defs>
</svg>
