<svg width="24" height="24" viewBox="0 0 24 24" fill="none" xmlns="http://www.w3.org/2000/svg">
<g clip-path="url(#clip0_1178_20172)">
<path d="M10 23C10 23.2652 9.89464 23.5196 9.70711 23.7071C9.51957 23.8946 9.26522 24 9 24H1C0.734784 24 0.48043 23.8946 0.292893 23.7071C0.105357 23.5196 0 23.2652 0 23C0 22.7348 0.105357 22.4804 0.292893 22.2929C0.48043 22.1054 0.734784 22 1 22H9C9.26522 22 9.51957 22.1054 9.70711 22.2929C9.89464 22.4804 10 22.7348 10 23Z" fill="#374957"/>
<path d="M1 20H7C7.26522 20 7.51957 19.8947 7.70711 19.7071C7.89464 19.5196 8 19.2652 8 19C8 18.7348 7.89464 18.4804 7.70711 18.2929C7.51957 18.1054 7.26522 18 7 18H1C0.734784 18 0.48043 18.1054 0.292893 18.2929C0.105357 18.4804 0 18.7348 0 19C0 19.2652 0.105357 19.5196 0.292893 19.7071C0.48043 19.8947 0.734784 20 1 20V20Z" fill="#374957"/>
<path d="M1 16H5C5.26522 16 5.51957 15.8947 5.70711 15.7071C5.89464 15.5196 6 15.2652 6 15C6 14.7348 5.89464 14.4804 5.70711 14.2929C5.51957 14.1054 5.26522 14 5 14H1C0.734784 14 0.48043 14.1054 0.292893 14.2929C0.105357 14.4804 0 14.7348 0 15C0 15.2652 0.105357 15.5196 0.292893 15.7071C0.48043 15.8947 0.734784 16 1 16V16Z" fill="#374957"/>
<path d="M12 0C8.8174 0 5.76516 1.26428 3.51472 3.51472C1.26428 5.76516 0 8.8174 0 12C0 12.061 0.008 12.12 0.009 12.181C0.326596 12.0646 0.661762 12.0034 1 12H5C5.4909 11.9983 5.97465 12.1176 6.40855 12.3472C6.84245 12.5768 7.21315 12.9097 7.48791 13.3165C7.76267 13.7233 7.93305 14.1915 7.98399 14.6797C8.03493 15.168 7.96487 15.6612 7.78 16.116C8.18945 16.2234 8.57125 16.417 8.8999 16.6838C9.22855 16.9506 9.49648 17.2845 9.68579 17.6631C9.87509 18.0417 9.98143 18.4564 9.99767 18.8794C10.0139 19.3024 9.93971 19.724 9.78 20.116C10.1799 20.218 10.554 20.4028 10.878 20.6585C11.2019 20.9142 11.4687 21.235 11.6609 21.6003C11.853 21.9655 11.9664 22.367 11.9937 22.7788C12.0209 23.1907 11.9614 23.6036 11.819 23.991C11.88 23.991 11.939 24 12 24C15.1826 24 18.2348 22.7357 20.4853 20.4853C22.7357 18.2348 24 15.1826 24 12C24 8.8174 22.7357 5.76516 20.4853 3.51472C18.2348 1.26428 15.1826 0 12 0V0ZM15.707 15.707C15.5195 15.8945 15.2652 15.9998 15 15.9998C14.7348 15.9998 14.4805 15.8945 14.293 15.707L11.293 12.707C11.1055 12.5195 11.0001 12.2652 11 12V7C11 6.73478 11.1054 6.48043 11.2929 6.29289C11.4804 6.10536 11.7348 6 12 6C12.2652 6 12.5196 6.10536 12.7071 6.29289C12.8946 6.48043 13 6.73478 13 7V11.586L15.707 14.293C15.8945 14.4805 15.9998 14.7348 15.9998 15C15.9998 15.2652 15.8945 15.5195 15.707 15.707V15.707Z" fill="#374957"/>
</g>
<defs>
<clipPath id="clip0_1178_20172">
<rect width="24" height="24" fill="white"/>
</clipPath>
</defs>
</svg>
