<svg width="24" height="24" viewBox="0 0 24 24" fill="none" xmlns="http://www.w3.org/2000/svg">
<g clip-path="url(#clip0_1178_19955)">
<path d="M12.9999 11.0004C12.9999 11.3959 12.8826 11.7826 12.6629 12.1115C12.4431 12.4404 12.1308 12.6968 11.7653 12.8481C11.3999 12.9995 10.9977 13.0391 10.6098 12.962C10.2218 12.8848 9.86544 12.6943 9.58573 12.4146C9.30603 12.1349 9.11555 11.7785 9.03838 11.3906C8.96121 11.0026 9.00081 10.6005 9.15219 10.235C9.30356 9.86957 9.55991 9.55721 9.88881 9.33745C10.2177 9.11768 10.6044 9.00038 10.9999 9.00038C11.5304 9.00038 12.0391 9.2111 12.4142 9.58617C12.7892 9.96124 12.9999 10.47 12.9999 11.0004ZM23.9999 13.0004C24.0055 13.2646 23.9576 13.5271 23.8591 13.7723C23.7606 14.0175 23.6134 14.2402 23.4266 14.427C23.2398 14.6139 23.0171 14.761 22.7719 14.8595C22.5267 14.9581 22.2641 15.006 21.9999 15.0004H21.6699L21.4509 16.6554C21.2893 17.8564 20.6981 18.9582 19.7868 19.7569C18.8755 20.5557 17.7058 20.9974 16.4939 21.0004H15.9999C15.9999 21.796 15.6839 22.5591 15.1213 23.1217C14.5587 23.6843 13.7956 24.0004 12.9999 24.0004H5.99995C5.2043 24.0004 4.44124 23.6843 3.87863 23.1217C3.31602 22.5591 2.99995 21.796 2.99995 21.0004V20.0294C3.01579 19.1848 2.75602 18.3581 2.25995 17.6744C1.37448 16.5239 0.725674 15.2094 0.350973 13.8068C-0.0237278 12.4042 -0.116897 10.9413 0.0768436 9.50254C0.270584 8.06375 0.747397 6.67758 1.47976 5.42407C2.21212 4.17055 3.18551 3.07451 4.34376 2.19922C5.502 1.32394 6.82215 0.686739 8.22799 0.324419C9.63382 -0.0379021 11.0975 -0.118171 12.5345 0.0882473C13.9716 0.294665 15.3535 0.783681 16.6005 1.52706C17.8475 2.27044 18.9349 3.25347 19.7999 4.41938C21.0679 5.98538 23.9999 11.5804 23.9999 13.0004ZM14.8409 9.94738L15.8339 9.37638C16.0639 9.24378 16.2317 9.02525 16.3006 8.76889C16.3694 8.51253 16.3336 8.23933 16.2009 8.00938C16.0683 7.77944 15.8498 7.6116 15.5935 7.54277C15.3371 7.47394 15.0639 7.50978 14.8339 7.64238L13.8519 8.20638C13.3427 7.69017 12.7024 7.32235 11.9999 7.14238V6.00038C11.9999 5.73517 11.8946 5.48081 11.7071 5.29328C11.5195 5.10574 11.2652 5.00038 10.9999 5.00038C10.7347 5.00038 10.4804 5.10574 10.2928 5.29328C10.1053 5.48081 9.99995 5.73517 9.99995 6.00038V7.14238C9.2964 7.32185 8.65507 7.6897 8.14495 8.20638L7.16295 7.64238C7.04909 7.57672 6.92342 7.53413 6.7931 7.51704C6.66278 7.49995 6.53038 7.50869 6.40344 7.54277C6.2765 7.57685 6.15752 7.6356 6.05329 7.71566C5.94905 7.79572 5.86161 7.89553 5.79595 8.00938C5.73029 8.12324 5.68769 8.24891 5.6706 8.37923C5.65351 8.50955 5.66225 8.64195 5.69633 8.76889C5.73041 8.89583 5.78916 9.01481 5.86922 9.11905C5.94928 9.22328 6.04909 9.31072 6.16295 9.37638L7.15595 9.94738C7.05653 10.2897 7.00405 10.6439 6.99995 11.0004C7.00502 11.357 7.05851 11.7112 7.15895 12.0534L6.16595 12.6244C5.936 12.757 5.76816 12.9755 5.69933 13.2319C5.63051 13.4882 5.66634 13.7614 5.79895 13.9914C5.93156 14.2213 6.15008 14.3892 6.40644 14.458C6.6628 14.5268 6.936 14.491 7.16595 14.3584L8.14795 13.7944C8.65724 14.3106 9.29747 14.6784 9.99995 14.8584V16.0004C9.99995 16.2656 10.1053 16.52 10.2928 16.7075C10.4804 16.895 10.7347 17.0004 10.9999 17.0004C11.2652 17.0004 11.5195 16.895 11.7071 16.7075C11.8946 16.52 11.9999 16.2656 11.9999 16.0004V14.8584C12.7035 14.6789 13.3448 14.3111 13.8549 13.7944L14.8369 14.3584C14.9508 14.424 15.0765 14.4666 15.2068 14.4837C15.3371 14.5008 15.4695 14.4921 15.5965 14.458C15.7234 14.4239 15.8424 14.3652 15.9466 14.2851C16.0508 14.205 16.1383 14.1052 16.2039 13.9914C16.2696 13.8775 16.3122 13.7519 16.3293 13.6215C16.3464 13.4912 16.3376 13.3588 16.3036 13.2319C16.2695 13.1049 16.2107 12.986 16.1307 12.8817C16.0506 12.7775 15.9508 12.69 15.8369 12.6244L14.8439 12.0534C14.9434 11.7111 14.9958 11.3568 14.9999 11.0004C14.9949 10.6438 14.9414 10.2896 14.8409 9.94738V9.94738Z" fill="#374957"/>
</g>
<defs>
<clipPath id="clip0_1178_19955">
<rect width="24" height="24" fill="white"/>
</clipPath>
</defs>
</svg>
