<svg width="24" height="24" viewBox="0 0 24 24" fill="none" xmlns="http://www.w3.org/2000/svg">
<g clip-path="url(#clip0_1178_20069)">
<path d="M20.0357 24H3.96371C3.2879 24.0016 2.62295 23.83 2.03233 23.5015C1.4417 23.1731 0.945087 22.6987 0.589876 22.1238C0.234666 21.5489 0.0327064 20.8925 0.00326665 20.2173C-0.0261731 19.5422 0.117889 18.8707 0.421708 18.267L8.45871 2.18903C8.76509 1.56958 9.22932 1.04182 9.80463 0.658924C10.3799 0.276029 11.046 0.0515245 11.7357 0.00803057C12.5139 -0.0414931 13.2895 0.138848 13.966 0.526625C14.6425 0.914401 15.1901 1.4925 15.5407 2.18903L23.5777 18.267C23.8798 18.8709 24.0224 19.5419 23.9922 20.2164C23.962 20.891 23.7598 21.5465 23.4049 22.1209C23.05 22.6953 22.5542 23.1695 21.9645 23.4984C21.3749 23.8273 20.7109 23.9999 20.0357 24V24Z" fill="#374957"/>
</g>
<defs>
<clipPath id="clip0_1178_20069">
<rect width="24" height="24" fill="white"/>
</clipPath>
</defs>
</svg>
