<svg width="24" height="24" viewBox="0 0 24 24" fill="none" xmlns="http://www.w3.org/2000/svg">
<g clip-path="url(#clip0_1178_20064)">
<path d="M14.997 3.84721C15.0034 4.25338 15.2504 4.61701 15.6256 4.77269C18.9832 6.25002 21.1073 9.61827 20.9935 13.2847C20.9129 18.2524 16.8205 22.2141 11.8528 22.1335C6.88517 22.0529 2.92342 17.9605 3.00405 12.9928C3.00878 9.43214 5.11349 6.20941 8.37187 4.77367C8.74726 4.61706 8.9941 4.25287 9.00052 3.84623C9.00141 3.29427 8.55463 2.84613 8.00267 2.84524C7.87407 2.84505 7.7466 2.86965 7.62733 2.91776C2.05674 5.33284 -0.501268 11.8065 1.91386 17.3771C4.32899 22.9477 10.8026 25.5057 16.3732 23.0906C21.9438 20.6755 24.5017 14.2018 22.0867 8.63124C20.9765 6.07055 18.9339 4.02795 16.3732 2.91776C15.8619 2.70966 15.2788 2.95543 15.0707 3.46663C15.0215 3.58749 14.9965 3.71674 14.997 3.84721Z" fill="#374957"/>
<path d="M11.9989 0C12.5509 0 12.9983 0.44744 12.9983 0.999397V6.99587C12.9983 7.54783 12.5509 7.99527 11.9989 7.99527C11.447 7.99527 10.9995 7.54783 10.9995 6.99587V0.999397C10.9995 0.44744 11.447 0 11.9989 0Z" fill="#374957"/>
</g>
<defs>
<clipPath id="clip0_1178_20064">
<rect width="24" height="24" fill="white"/>
</clipPath>
</defs>
</svg>
