<svg width="24" height="24" viewBox="0 0 24 24" fill="none" xmlns="http://www.w3.org/2000/svg">
<g clip-path="url(#clip0_1178_19803)">
<path d="M23.9996 2.00058V6.00058C23.9996 6.2658 23.8943 6.52015 23.7067 6.70769C23.5192 6.89522 23.2648 7.00058 22.9996 7.00058C22.7344 7.00058 22.48 6.89522 22.2925 6.70769C22.105 6.52015 21.9996 6.2658 21.9996 6.00058V3.43958L16.6996 8.71058C16.6097 8.81599 16.4989 8.90157 16.3742 8.96189C16.2495 9.02222 16.1136 9.05598 15.9752 9.06102C15.8367 9.06607 15.6987 9.0423 15.57 8.99121C15.4412 8.94013 15.3245 8.86284 15.2271 8.76426C15.1298 8.66568 15.054 8.54795 15.0046 8.41854C14.9551 8.28913 14.9331 8.15086 14.9399 8.01249C14.9468 7.87413 14.9822 7.73869 15.0442 7.61476C15.1061 7.49083 15.1931 7.38112 15.2996 7.29258L20.6096 2.00058H17.9996C17.7344 2.00058 17.48 1.89522 17.2925 1.70769C17.105 1.52015 16.9996 1.2658 16.9996 1.00058C16.9996 0.735364 17.105 0.48101 17.2925 0.293474C17.48 0.105938 17.7344 0.000580812 17.9996 0.000580812H21.9996C22.53 0.000580812 23.0388 0.211295 23.4138 0.586367C23.7889 0.96144 23.9996 1.47015 23.9996 2.00058ZM20.6546 14.8566C20.0772 14.3072 19.3104 14.0013 18.5134 14.0024C17.7164 14.0036 16.9505 14.3116 16.3746 14.8626L14.4686 16.4686C12.9127 15.8248 11.4993 14.88 10.3097 13.6883C9.1201 12.4966 8.17768 11.0816 7.53661 9.52458L9.13661 7.62458C9.6876 7.04872 9.99564 6.28278 9.99676 5.48578C9.99787 4.68879 9.69199 3.92198 9.14261 3.34458C9.14261 3.34458 7.29061 0.939581 7.26061 0.907581C6.68959 0.333441 5.91574 0.00682725 5.10603 -0.00177867C4.29633 -0.0103846 3.5157 0.299708 2.93261 0.861581L1.78361 1.86158C-5.93639 10.0706 13.9836 29.9996 22.1836 22.1616L23.0956 21.1126C23.6751 20.5315 24.0006 19.7443 24.0006 18.9236C24.0006 18.1029 23.6751 17.3157 23.0956 16.7346C23.0626 16.7086 20.6546 14.8566 20.6546 14.8566Z" fill="#374957"/>
</g>
<defs>
<clipPath id="clip0_1178_19803">
<rect width="24" height="24" fill="white"/>
</clipPath>
</defs>
</svg>
