<svg width="24" height="24" viewBox="0 0 24 24" fill="none" xmlns="http://www.w3.org/2000/svg">
<path d="M19.7835 3.25475C15.5148 -1.05391 8.56145 -1.0863 4.25279 3.18247C-0.0558627 7.45123 -0.0882534 14.4045 4.18051 18.7132C4.21379 18.7467 4.24726 18.7801 4.28097 18.8133L8.21753 22.4483C10.3216 24.5079 13.6832 24.5168 15.7981 22.4683L19.7836 18.7853C24.0721 14.4966 24.0721 7.54348 19.7835 3.25475ZM18.0084 13.516C18.0084 14.8944 16.891 16.0119 15.5125 16.0119H8.524C7.14554 16.0119 6.02809 14.8944 6.02809 13.516V10.1495C6.02809 9.16765 6.50926 8.24815 7.31598 7.68851L10.3111 5.61092C11.3385 4.90095 12.698 4.90095 13.7255 5.61092L16.7206 7.68851C17.5273 8.24815 18.0084 9.16765 18.0084 10.1495V13.516ZM16.0117 10.1495V13.5159C16.0117 13.7916 15.7882 14.0151 15.5125 14.0151H14.015V12.0184C14.015 11.467 13.568 11.02 13.0166 11.02H11.0199C10.4685 11.02 10.0216 11.467 10.0216 12.0184V14.0151H8.524C8.24832 14.0151 8.02483 13.7916 8.02483 13.5159V10.1495C8.02473 9.82208 8.18514 9.51542 8.45411 9.32881L11.4492 7.25122C11.7919 7.01553 12.2446 7.01553 12.5873 7.25122L15.5824 9.32881C15.8514 9.51542 16.0118 9.82208 16.0117 10.1495Z" fill="#374957"/>
</svg>
