<svg width="24" height="24" viewBox="0 0 24 24" fill="none" xmlns="http://www.w3.org/2000/svg">
<g clip-path="url(#clip0_1178_19929)">
<path d="M0.0239258 11.523C0.122193 8.89974 1.082 6.38195 2.75493 4.35898L3.86093 7.95898C3.92332 8.1612 3.91995 8.378 3.85131 8.57818C3.78266 8.77836 3.65228 8.9516 3.47893 9.07298L0.0239258 11.523ZM11.4139 2.81098C11.5846 2.93475 11.7901 3.00139 12.0009 3.00139C12.2118 3.00139 12.4172 2.93475 12.5879 2.81098L15.6269 0.562981C13.2583 -0.19106 10.7135 -0.187564 8.34693 0.572981L11.4139 2.81098ZM20.5139 9.06698L23.9709 11.523C23.8727 8.89974 22.9128 6.38195 21.2399 4.35898L20.1399 7.95298C20.0772 8.15489 20.0801 8.37147 20.1482 8.57163C20.2163 8.77178 20.3461 8.9452 20.5189 9.06698H20.5139ZM6.69993 18.683C6.63461 18.4827 6.50768 18.3081 6.33726 18.1842C6.16684 18.0603 5.96163 17.9933 5.75093 17.993L1.61193 17.986C3.07578 20.5168 5.4097 22.4292 8.17893 23.367L6.69993 18.683ZM18.2409 17.993C18.0299 17.9938 17.8245 18.0614 17.6543 18.1861C17.484 18.3107 17.3575 18.4861 17.2929 18.687L15.7679 23.387C18.5579 22.4543 20.9106 20.5337 22.3829 17.987L18.2409 17.993ZM13.6579 13.654L14.3889 11.401C14.4216 11.3006 14.4217 11.1925 14.3892 11.0921C14.3567 10.9917 14.2932 10.9041 14.2079 10.842L12.2939 9.44998C12.2085 9.38787 12.1056 9.35441 11.9999 9.35441C11.8943 9.35441 11.7914 9.38787 11.7059 9.44998L9.78993 10.842C9.70424 10.9041 9.64045 10.9917 9.60775 11.0923C9.57504 11.193 9.57511 11.3014 9.60793 11.402L10.3399 13.654C10.3724 13.7544 10.4359 13.842 10.5212 13.9041C10.6066 13.9663 10.7094 13.9998 10.8149 14H13.1849C13.2907 14 13.3937 13.9666 13.4792 13.9044C13.5647 13.8423 13.6284 13.7546 13.6609 13.654H13.6579ZM13.4999 23.9C13.0025 23.965 12.5015 23.9985 11.9999 24C11.4793 23.9963 10.9596 23.9585 10.4439 23.887L8.60793 18.076C8.4152 17.4716 8.03535 16.9441 7.52325 16.5697C7.01115 16.1953 6.3933 15.9933 5.75893 15.993L0.693926 15.984C0.452861 15.2996 0.274789 14.5947 0.161926 13.878L4.63393 10.7C5.15223 10.3361 5.54169 9.81719 5.74619 9.21786C5.9507 8.61853 5.95971 7.96976 5.77193 7.36498L4.35593 2.75798C4.93466 2.27909 5.55705 1.85557 6.21493 1.49298L10.2359 4.42698C10.7492 4.80104 11.3678 5.00258 12.0029 5.00258C12.638 5.00258 13.2567 4.80104 13.7699 4.42698L17.7569 1.48098C18.4251 1.84757 19.057 2.27683 19.6439 2.76298L18.2279 7.36398C18.0396 7.96859 18.048 8.61736 18.252 9.21687C18.456 9.81638 18.845 10.3357 19.3629 10.7L23.8379 13.878C23.7252 14.5944 23.5471 15.299 23.3059 15.983L18.2389 15.993C17.6054 15.9936 16.9884 16.1953 16.4769 16.5692C15.9655 16.943 15.5859 17.4696 15.3929 18.073L13.4999 23.9ZM13.1849 16C13.713 16 14.2275 15.8328 14.6547 15.5224C15.0819 15.212 15.3999 14.7742 15.5629 14.272L16.2939 12.019C16.4583 11.517 16.459 10.9758 16.2958 10.4734C16.1326 9.97102 15.814 9.5335 15.3859 9.22398L13.4689 7.83198C13.0424 7.52055 12.528 7.35273 11.9999 7.35273C11.4718 7.35273 10.9574 7.52055 10.5309 7.83198L8.61393 9.22398C8.18499 9.53391 7.86581 9.97229 7.70257 10.4757C7.53933 10.979 7.54051 11.5213 7.70593 12.024L8.43793 14.277C8.601 14.7787 8.91894 15.2157 9.34604 15.5253C9.77315 15.8349 10.2874 16.0011 10.8149 16H13.1849Z" fill="#374957"/>
</g>
<defs>
<clipPath id="clip0_1178_19929">
<rect width="24" height="24" fill="white"/>
</clipPath>
</defs>
</svg>
