<svg width="24" height="24" viewBox="0 0 24 24" fill="none" xmlns="http://www.w3.org/2000/svg">
<g clip-path="url(#clip0_1178_19739)">
<path d="M1.50996 6.07824C1.70694 6.07798 1.90203 6.11673 2.08396 6.19224C2.26589 6.26776 2.43107 6.37856 2.56996 6.51824L10.243 14.1902C10.4751 14.4225 10.7507 14.6067 11.0541 14.7323C11.3575 14.858 11.6826 14.9227 12.011 14.9227C12.3393 14.9227 12.6645 14.858 12.9678 14.7323C13.2712 14.6067 13.5468 14.4225 13.779 14.1902L21.44 6.52824C21.5783 6.38498 21.7438 6.27071 21.9269 6.19209C22.1099 6.11348 22.3067 6.0721 22.5059 6.07037C22.705 6.06864 22.9025 6.10659 23.0869 6.18201C23.2712 6.25743 23.4387 6.36881 23.5795 6.50965C23.7204 6.65049 23.8318 6.81797 23.9072 7.00231C23.9826 7.18666 24.0206 7.38418 24.0188 7.58334C24.0171 7.78251 23.9757 7.97934 23.8971 8.16235C23.8185 8.34535 23.7042 8.51087 23.561 8.64924L15.9 16.3112C14.8679 17.3414 13.4692 17.92 12.011 17.92C10.5527 17.92 9.15405 17.3414 8.12196 16.3112L0.448958 8.63924C0.239042 8.42946 0.0960714 8.16213 0.0381373 7.87106C-0.0197968 7.58 0.00990933 7.2783 0.123497 7.00413C0.237084 6.72995 0.429448 6.49564 0.676247 6.33082C0.923045 6.16601 1.21319 6.07811 1.50996 6.07824V6.07824Z" fill="#374957"/>
</g>
<defs>
<clipPath id="clip0_1178_19739">
<rect width="24" height="24" fill="white"/>
</clipPath>
</defs>
</svg>
