<svg width="24" height="24" viewBox="0 0 24 24" fill="none" xmlns="http://www.w3.org/2000/svg">
<g clip-path="url(#clip0_1178_19954)">
<path d="M20.4301 15.3309L14.3191 24.0009H10.4051L18.4761 12.5309L20.4301 15.3309ZM15.2651 7.93092L4.04608 23.8909C4.40183 23.9636 4.76398 24.0005 5.12708 24.0009H7.96108L17.2611 10.7869L15.2651 7.93092ZM21.6471 17.0749L16.7661 24.0009H18.8731C19.6174 24.0523 20.3612 23.8939 21.0201 23.5437C21.6789 23.1936 22.2263 22.6656 22.6001 22.0199C22.9168 21.3379 23.0409 20.5821 22.959 19.8346C22.877 19.087 22.5921 18.3762 22.1351 17.7789L21.6471 17.0749ZM15.0001 3.00092C15.0016 2.47849 14.8667 1.96473 14.6086 1.51047C14.3506 1.05621 13.9784 0.677204 13.5289 0.41097C13.0794 0.144735 12.5682 0.000498604 12.0458 -0.00746395C11.5234 -0.0154265 11.0081 0.113161 10.5506 0.365571C10.0932 0.617982 9.70968 0.985465 9.43792 1.43165C9.16617 1.87783 9.01564 2.38725 9.00123 2.90948C8.98683 3.43171 9.10905 3.94865 9.35581 4.40913C9.60256 4.86962 9.96528 5.25768 10.4081 5.53492L1.86108 17.7789C1.40472 18.3765 1.12054 19.0876 1.03928 19.8351C0.95802 20.5827 1.08279 21.3382 1.40008 22.0199C1.60379 22.4045 1.87985 22.7461 2.21308 23.0259L14.0461 6.18492L13.5921 5.53492C14.0225 5.26668 14.3775 4.89334 14.6238 4.45004C14.8702 4.00674 14.9996 3.50806 15.0001 3.00092V3.00092Z" fill="#374957"/>
</g>
<defs>
<clipPath id="clip0_1178_19954">
<rect width="24" height="24" fill="white"/>
</clipPath>
</defs>
</svg>
