<svg width="24" height="24" viewBox="0 0 24 24" fill="none" xmlns="http://www.w3.org/2000/svg">
<path d="M1.3267 12.3995L4.88671 14.9995L3.53471 19.1865C3.31622 19.8359 3.31345 20.5385 3.52681 21.1896C3.74018 21.8406 4.15825 22.4053 4.7187 22.7995C5.26956 23.2062 5.9371 23.4242 6.62186 23.4207C7.30662 23.4173 7.97195 23.1927 8.51871 22.7805L11.9997 20.2185L15.4817 22.7775C16.0316 23.1819 16.6955 23.4016 17.3781 23.4049C18.0607 23.4083 18.7267 23.1951 19.2805 22.796C19.8342 22.3969 20.2472 21.8325 20.46 21.1839C20.6728 20.5354 20.6744 19.836 20.4647 19.1865L19.1127 14.9995L22.6727 12.3995C23.2218 11.998 23.6301 11.4332 23.8391 10.7859C24.048 10.1385 24.0471 9.44165 23.8364 8.79485C23.6257 8.14806 23.2159 7.58439 22.6657 7.18437C22.1155 6.78435 21.453 6.56844 20.7727 6.56747H16.3997L15.0727 2.43147C14.864 1.78042 14.454 1.21248 13.9017 0.809531C13.3494 0.406583 12.6834 0.189453 11.9997 0.189453C11.316 0.189453 10.65 0.406583 10.0977 0.809531C9.54544 1.21248 9.13538 1.78042 8.92671 2.43147L7.59971 6.56747H3.2307C2.55045 6.56844 1.8879 6.78435 1.33768 7.18437C0.787473 7.58439 0.377745 8.14806 0.167026 8.79485C-0.0436933 9.44165 -0.044626 10.1385 0.164361 10.7859C0.373348 11.4332 0.781566 11.998 1.3307 12.3995H1.3267Z" fill="#374957"/>
</svg>
