<svg width="24" height="24" viewBox="0 0 24 24" fill="none" xmlns="http://www.w3.org/2000/svg">
<g clip-path="url(#clip0_1178_19979)">
<path d="M19 6H13V3C13 2.73478 12.8946 2.48043 12.7071 2.29289C12.5196 2.10536 12.2652 2 12 2C11.7348 2 11.4804 2.10536 11.2929 2.29289C11.1054 2.48043 11 2.73478 11 3V6H5C3.6744 6.00159 2.40356 6.52888 1.46622 7.46622C0.528882 8.40356 0.00158786 9.6744 0 11L0 15C0.00158786 16.3256 0.528882 17.5964 1.46622 18.5338C2.40356 19.4711 3.6744 19.9984 5 20H19C20.3256 19.9984 21.5964 19.4711 22.5338 18.5338C23.4711 17.5964 23.9984 16.3256 24 15V11C23.9984 9.6744 23.4711 8.40356 22.5338 7.46622C21.5964 6.52888 20.3256 6.00159 19 6V6ZM10 10H11C11.2652 10 11.5196 10.1054 11.7071 10.2929C11.8946 10.4804 12 10.7348 12 11C12 11.2652 11.8946 11.5196 11.7071 11.7071C11.5196 11.8946 11.2652 12 11 12H10C9.73478 12 9.48043 11.8946 9.29289 11.7071C9.10536 11.5196 9 11.2652 9 11C9 10.7348 9.10536 10.4804 9.29289 10.2929C9.48043 10.1054 9.73478 10 10 10V10ZM5 16C4.80222 16 4.60888 15.9414 4.44443 15.8315C4.27998 15.7216 4.15181 15.5654 4.07612 15.3827C4.00043 15.2 3.98063 14.9989 4.01921 14.8049C4.0578 14.6109 4.15304 14.4327 4.29289 14.2929C4.43275 14.153 4.61093 14.0578 4.80491 14.0192C4.99889 13.9806 5.19996 14.0004 5.38268 14.0761C5.56541 14.1518 5.72159 14.28 5.83147 14.4444C5.94135 14.6089 6 14.8022 6 15C6 15.2652 5.89464 15.5196 5.70711 15.7071C5.51957 15.8946 5.26522 16 5 16ZM6 12H5C4.73478 12 4.48043 11.8946 4.29289 11.7071C4.10536 11.5196 4 11.2652 4 11C4 10.7348 4.10536 10.4804 4.29289 10.2929C4.48043 10.1054 4.73478 10 5 10H6C6.26522 10 6.51957 10.1054 6.70711 10.2929C6.89464 10.4804 7 10.7348 7 11C7 11.2652 6.89464 11.5196 6.70711 11.7071C6.51957 11.8946 6.26522 12 6 12ZM15 16H9C8.73478 16 8.48043 15.8946 8.29289 15.7071C8.10536 15.5196 8 15.2652 8 15C8 14.7348 8.10536 14.4804 8.29289 14.2929C8.48043 14.1054 8.73478 14 9 14H15C15.2652 14 15.5196 14.1054 15.7071 14.2929C15.8946 14.4804 16 14.7348 16 15C16 15.2652 15.8946 15.5196 15.7071 15.7071C15.5196 15.8946 15.2652 16 15 16ZM19 16C18.8022 16 18.6089 15.9414 18.4444 15.8315C18.28 15.7216 18.1518 15.5654 18.0761 15.3827C18.0004 15.2 17.9806 14.9989 18.0192 14.8049C18.0578 14.6109 18.153 14.4327 18.2929 14.2929C18.4327 14.153 18.6109 14.0578 18.8049 14.0192C18.9989 13.9806 19.2 14.0004 19.3827 14.0761C19.5654 14.1518 19.7216 14.28 19.8315 14.4444C19.9414 14.6089 20 14.8022 20 15C20 15.2652 19.8946 15.5196 19.7071 15.7071C19.5196 15.8946 19.2652 16 19 16ZM19 12H15C14.7348 12 14.4804 11.8946 14.2929 11.7071C14.1054 11.5196 14 11.2652 14 11C14 10.7348 14.1054 10.4804 14.2929 10.2929C14.4804 10.1054 14.7348 10 15 10H19C19.2652 10 19.5196 10.1054 19.7071 10.2929C19.8946 10.4804 20 10.7348 20 11C20 11.2652 19.8946 11.5196 19.7071 11.7071C19.5196 11.8946 19.2652 12 19 12Z" fill="#374957"/>
</g>
<defs>
<clipPath id="clip0_1178_19979">
<rect width="24" height="24" fill="white"/>
</clipPath>
</defs>
</svg>
