<svg width="24" height="24" viewBox="0 0 24 24" fill="none" xmlns="http://www.w3.org/2000/svg">
<g clip-path="url(#clip0_1178_20040)">
<path d="M20.057 16.8002L20.157 16.9002C20.384 17.1292 20.6653 17.297 20.9745 17.3881C21.2838 17.4792 21.6111 17.4906 21.926 17.4212C22.2358 17.3562 22.5243 17.2144 22.7649 17.0087C23.0055 16.803 23.1906 16.5401 23.303 16.2442C23.8551 14.7945 24.1191 13.251 24.08 11.7002C23.9675 8.65426 22.7146 5.76173 20.5698 3.59598C18.425 1.43023 15.5448 0.14936 12.5 0.00724798C10.89 -0.0487337 9.28519 0.220038 7.78128 0.79754C6.27736 1.37504 4.90512 2.24945 3.74637 3.36863C2.58762 4.48782 1.66609 5.82886 1.0367 7.31181C0.407318 8.79476 0.0829746 10.3893 0.0830078 12.0002C0.086713 15.1817 1.35219 18.2318 3.60182 20.4814C5.85145 22.7311 8.90155 23.9965 12.083 24.0002C12.421 24.0002 12.753 23.9782 13.083 23.9502C13.3334 23.9291 13.5667 23.8145 13.7364 23.6292C13.9061 23.4439 13.9999 23.2015 13.999 22.9502L13.967 19.3622C13.9589 18.6532 14.1623 17.9579 14.5512 17.365C14.9402 16.7721 15.497 16.3086 16.1506 16.0336C16.8042 15.7587 17.5249 15.6847 18.2207 15.8213C18.9165 15.9578 19.5558 16.2987 20.057 16.8002V16.8002ZM17.115 8.05025C17.4017 7.97417 17.7046 7.98481 17.9853 8.08084C18.2659 8.17687 18.5118 8.35396 18.6919 8.58973C18.8719 8.82551 18.978 9.10937 18.9967 9.40543C19.0154 9.70149 18.946 9.99645 18.797 10.253C18.6481 10.5096 18.4265 10.7162 18.1601 10.8469C17.8938 10.9775 17.5947 11.0262 17.3007 10.9868C17.0066 10.9474 16.7309 10.8218 16.5083 10.6257C16.2857 10.4296 16.1262 10.172 16.05 9.88525C15.9994 9.69483 15.9868 9.49631 16.013 9.30103C16.0391 9.10575 16.1035 8.91753 16.2024 8.74713C16.3013 8.57673 16.4328 8.42748 16.5894 8.3079C16.746 8.18833 16.9246 8.10078 17.115 8.05025V8.05025ZM7.88501 16.9502C7.59828 17.0263 7.29543 17.0157 7.01475 16.9197C6.73407 16.8236 6.48817 16.6465 6.30813 16.4108C6.12809 16.175 6.02201 15.8911 6.00329 15.5951C5.98457 15.299 6.05406 15.004 6.20297 14.7475C6.35188 14.4909 6.57352 14.2842 6.83987 14.1536C7.10622 14.023 7.40532 13.9743 7.69935 14.0137C7.99338 14.053 8.26913 14.1787 8.49174 14.3748C8.71436 14.5709 8.87383 14.8285 8.95001 15.1152C9.0006 15.3057 9.01318 15.5042 8.98704 15.6995C8.96089 15.8947 8.89653 16.083 8.79764 16.2534C8.69874 16.4238 8.56724 16.573 8.41065 16.6926C8.25405 16.8122 8.07544 16.8997 7.88501 16.9502V16.9502ZM7.88501 10.9502C7.59828 11.0263 7.29543 11.0157 7.01475 10.9197C6.73407 10.8236 6.48817 10.6465 6.30813 10.4108C6.12809 10.175 6.02201 9.89113 6.00329 9.59507C5.98457 9.299 6.05406 9.00404 6.20297 8.74747C6.35188 8.4909 6.57352 8.28425 6.83987 8.15363C7.10622 8.02302 7.40532 7.97432 7.69935 8.01368C7.99338 8.05305 8.26913 8.17871 8.49174 8.37479C8.71436 8.57086 8.87383 8.82854 8.95001 9.11525C9.0006 9.30566 9.01318 9.50418 8.98704 9.69946C8.96089 9.89475 8.89653 10.083 8.79764 10.2534C8.69874 10.4238 8.56724 10.573 8.41065 10.6926C8.25405 10.8122 8.07544 10.8997 7.88501 10.9502V10.9502ZM12.885 7.95025C12.5983 8.02633 12.2954 8.01568 12.0147 7.91966C11.7341 7.82363 11.4882 7.64653 11.3081 7.41076C11.1281 7.17499 11.022 6.89113 11.0033 6.59507C10.9846 6.299 11.0541 6.00404 11.203 5.74747C11.3519 5.4909 11.5735 5.28425 11.8399 5.15363C12.1062 5.02302 12.4053 4.97432 12.6993 5.01368C12.9934 5.05305 13.2691 5.17871 13.4917 5.37479C13.7144 5.57086 13.8738 5.82854 13.95 6.11525C14.0006 6.30566 14.0132 6.50418 13.987 6.69946C13.9609 6.89475 13.8965 7.08296 13.7976 7.25337C13.6987 7.42377 13.5672 7.57302 13.4106 7.69259C13.2541 7.81217 13.0754 7.89972 12.885 7.95025V7.95025Z" fill="#374957"/>
</g>
<defs>
<clipPath id="clip0_1178_20040">
<rect width="24" height="24" fill="white"/>
</clipPath>
</defs>
</svg>
