<svg width="24" height="24" viewBox="0 0 24 24" fill="none" xmlns="http://www.w3.org/2000/svg">
<path d="M6.20469 5.79297H5.3667L5.3727 7.51698H6.20469C6.67967 7.51722 7.06489 7.13237 7.06512 6.65739C7.06536 6.18241 6.68051 5.79719 6.20553 5.79695C6.20525 5.79695 6.20497 5.79695 6.20469 5.79695V5.79297Z" fill="#374957"/>
<path d="M17.0177 5.87305H16.1997V9.72603C16.5057 9.72603 16.8487 9.72603 17.0437 9.71703C18.0147 9.70105 18.4487 8.74302 18.4487 7.80102C18.4487 6.85902 18.0767 5.87305 17.0177 5.87305Z" fill="#374957"/>
<path d="M18 19V23.54C18.925 23.1907 19.7653 22.6487 20.465 21.95L21.949 20.465C22.6485 19.7658 23.1909 18.9255 23.54 18H19C18.4477 18 18 18.4478 18 19Z" fill="#374957"/>
<path d="M18.9999 0H5.00001C2.23996 0.00332812 0.00332812 2.23996 0 5.00001V19C0.00332812 21.76 2.23996 23.9967 5.00001 24H15.515C15.678 24 15.839 23.987 16 23.976V18.9999C16 17.3431 17.3432 16 19 16H23.976C23.987 15.8389 24 15.678 24 15.5149V4.99996C23.9967 2.23996 21.76 0.00332812 18.9999 0ZM4.73399 4.54401H6.20497C7.37028 4.54401 8.31495 5.48868 8.31495 6.65399C8.31495 7.8193 7.37028 8.76397 6.20497 8.76397H5.36497V10.4269C5.36497 10.7721 5.08513 11.0519 4.73999 11.0519C4.39485 11.0519 4.11501 10.7721 4.11501 10.4269V5.16899C4.11318 5.13294 4.1053 4.89529 4.29398 4.71168C4.47341 4.53707 4.69612 4.54246 4.73399 4.54401ZM13.631 9.39997C13.3992 10.4066 12.4809 11.1035 11.449 11.056C10.5788 11.0613 9.74562 10.7044 9.149 10.071C8.91922 9.8134 8.94176 9.41829 9.19939 9.18851C9.19958 9.18833 9.19981 9.18814 9.2 9.18795C9.40868 8.99169 9.72696 8.97036 9.95998 9.13695C9.97596 9.14797 10.06 9.21397 10.087 9.23693C10.3362 9.45476 10.6237 9.62431 10.935 9.73695C11.2548 9.83164 11.5968 9.81931 11.909 9.70193C12.1143 9.64039 12.2816 9.49095 12.366 9.29393C12.4306 9.08829 12.3728 8.86381 12.217 8.71494C12.0777 8.58969 11.9134 8.49561 11.7349 8.43894C11.32 8.28692 10.9109 8.12394 10.5019 7.95594C10.1112 7.82019 9.77426 7.56256 9.54097 7.22094C9.3342 6.89394 9.25118 6.5038 9.30697 6.12093C9.33753 5.90807 9.40775 5.70285 9.51397 5.51591C9.74046 5.12183 10.1066 4.82704 10.54 4.68993C11.3604 4.47182 12.234 4.59102 12.966 5.02091C13.1295 5.10294 13.2695 5.2251 13.373 5.3759C13.5296 5.60071 13.5165 5.90249 13.341 6.11291C13.104 6.39289 12.757 6.31293 12.463 6.18693C12.1958 6.06819 11.922 5.96502 11.643 5.87793C11.449 5.80639 11.2423 5.77607 11.036 5.78891C10.8265 5.80489 10.6407 5.92935 10.546 6.11689C10.4707 6.33468 10.5297 6.57641 10.697 6.73489C10.8641 6.88695 11.0695 6.99064 11.291 7.03489C11.57 7.10788 11.853 7.15888 12.126 7.25188C12.4594 7.364 12.7673 7.54109 13.032 7.77289C13.5023 8.17334 13.7294 8.79022 13.631 9.39997ZM17.07 10.966C16.656 10.974 15.584 10.978 15.584 10.978C15.2396 10.978 14.9601 10.6993 14.959 10.3549L14.948 5.24901C14.948 4.90349 15.2275 4.62313 15.573 4.62201H17.0199C18.624 4.62201 19.6999 5.9 19.6999 7.79998C19.7 9.608 18.6 10.94 17.07 10.966Z" fill="#374957"/>
</svg>
