<svg width="24" height="24" viewBox="0 0 24 24" fill="none" xmlns="http://www.w3.org/2000/svg">
<g clip-path="url(#clip0_1178_20174)">
<path d="M21 15C20.2044 15 19.4413 15.3161 18.8787 15.8787C18.3161 16.4413 18 17.2044 18 18V21C18 21.7956 18.3161 22.5587 18.8787 23.1213C19.4413 23.6839 20.2044 24 21 24C21.7956 24 22.5587 23.6839 23.1213 23.1213C23.6839 22.5587 24 21.7956 24 21V18C24 17.2044 23.6839 16.4413 23.1213 15.8787C22.5587 15.3161 21.7956 15 21 15ZM22 21C22 21.2652 21.8946 21.5196 21.7071 21.7071C21.5196 21.8946 21.2652 22 21 22C20.7348 22 20.4804 21.8946 20.2929 21.7071C20.1054 21.5196 20 21.2652 20 21V18C20 17.7348 20.1054 17.4804 20.2929 17.2929C20.4804 17.1054 20.7348 17 21 17C21.2652 17 21.5196 17.1054 21.7071 17.2929C21.8946 17.4804 22 17.7348 22 18V21Z" fill="#374957"/>
<path d="M13 12V7C13 6.73478 12.8946 6.48043 12.7071 6.29289C12.5196 6.10536 12.2652 6 12 6C11.7348 6 11.4804 6.10536 11.2929 6.29289C11.1054 6.48043 11 6.73478 11 7V11H8C7.73478 11 7.48043 11.1054 7.29289 11.2929C7.10536 11.4804 7 11.7348 7 12C7 12.2652 7.10536 12.5196 7.29289 12.7071C7.48043 12.8946 7.73478 13 8 13H12C12.2652 13 12.5196 12.8946 12.7071 12.7071C12.8946 12.5196 13 12.2652 13 12Z" fill="#374957"/>
<path d="M23.0003 1.99956C22.7351 1.99956 22.4807 2.10492 22.2932 2.29245C22.1056 2.47999 22.0003 2.73434 22.0003 2.99956V5.37356C20.9584 3.80113 19.5604 2.49648 17.9199 1.56546C16.2793 0.634445 14.4424 0.103285 12.5582 0.0150807C10.674 -0.0731234 8.79546 0.284113 7.07512 1.0578C5.35479 1.8315 3.84108 2.99985 2.65681 4.46806C1.47254 5.93628 0.651075 7.663 0.259064 9.50812C-0.132947 11.3532 -0.0844604 13.2648 0.400589 15.0877C0.885639 16.9105 1.79359 18.5934 3.05077 19.9997C4.30795 21.406 5.87894 22.4961 7.63629 23.1816C7.75243 23.2264 7.87581 23.2494 8.00029 23.2496C8.23365 23.2499 8.45979 23.1687 8.63954 23.0198C8.81929 22.871 8.94134 22.664 8.98455 22.4347C9.02775 22.2054 8.9894 21.9682 8.87612 21.7641C8.76284 21.5601 8.58178 21.4021 8.36429 21.3176C6.87232 20.7406 5.54051 19.8142 4.48067 18.6161C3.42084 17.4179 2.6639 15.983 2.2734 14.4318C1.8829 12.8805 1.87023 11.2582 2.23647 9.7011C2.6027 8.14395 3.33714 6.69739 4.37814 5.48283C5.41914 4.26828 6.73631 3.32118 8.2191 2.72103C9.70189 2.12089 11.307 1.88522 12.8997 2.03381C14.4924 2.18239 16.0263 2.71089 17.3725 3.57495C18.7187 4.43901 19.8379 5.61341 20.6363 6.99956H18.0003C17.7351 6.99956 17.4807 7.10492 17.2932 7.29245C17.1056 7.47999 17.0003 7.73434 17.0003 7.99956C17.0003 8.26478 17.1056 8.51913 17.2932 8.70667C17.4807 8.8942 17.7351 8.99956 18.0003 8.99956H21.0003C21.7959 8.99956 22.559 8.68349 23.1216 8.12088C23.6842 7.55827 24.0003 6.79521 24.0003 5.99956V2.99956C24.0003 2.73434 23.8949 2.47999 23.7074 2.29245C23.5199 2.10492 23.2655 1.99956 23.0003 1.99956V1.99956Z" fill="#374957"/>
<path d="M15.3829 15.0761C15.2001 15.0004 14.999 14.9806 14.805 15.0192C14.611 15.0579 14.4328 15.1532 14.2929 15.2931L11.2929 18.2931C11.1108 18.4817 11.01 18.7343 11.0122 18.9965C11.0145 19.2587 11.1197 19.5095 11.3051 19.6949C11.4905 19.8804 11.7413 19.9855 12.0035 19.9878C12.2657 19.9901 12.5183 19.8893 12.7069 19.7071L13.9999 18.4141V23.0001C13.9999 23.2654 14.1053 23.5197 14.2928 23.7073C14.4803 23.8948 14.7347 24.0001 14.9999 24.0001C15.2651 24.0001 15.5195 23.8948 15.707 23.7073C15.8946 23.5197 15.9999 23.2654 15.9999 23.0001V16.0001C16 15.8024 15.9414 15.609 15.8316 15.4445C15.7217 15.2801 15.5656 15.1519 15.3829 15.0761Z" fill="#374957"/>
</g>
<defs>
<clipPath id="clip0_1178_20174">
<rect width="24" height="24" fill="white"/>
</clipPath>
</defs>
</svg>
