<svg width="24" height="24" viewBox="0 0 24 24" fill="none" xmlns="http://www.w3.org/2000/svg">
<g clip-path="url(#clip0_1178_19923)">
<path d="M16.3392 2.97565C16.9752 2.11665 18.9622 1.43965 20.3832 1.04765C20.5708 0.99477 20.768 0.985695 20.9596 1.02112C21.1513 1.05655 21.3322 1.13554 21.4884 1.25198C21.6447 1.36843 21.7721 1.51922 21.8609 1.69272C21.9496 1.86622 21.9973 2.05779 22.0002 2.25265C22.0282 3.74565 21.9442 5.88165 21.3002 6.74465C21.0586 7.07371 20.7539 7.35138 20.4038 7.56146C20.0537 7.77155 19.6654 7.90985 19.2613 7.9683C18.8573 8.02676 18.4456 8.00419 18.0504 7.90193C17.6551 7.79966 17.2842 7.61974 16.9592 7.37265C16.3004 6.86714 15.8663 6.1232 15.7503 5.3009C15.6344 4.47859 15.8458 3.64363 16.3392 2.97565V2.97565ZM16.5202 19.0536C17.4802 19.1778 18.3624 19.6465 19.0026 20.3726C19.6428 21.0987 19.9973 22.0327 20.0002 23.0006C20.0002 23.2659 19.8949 23.5202 19.7073 23.7078C19.5198 23.8953 19.2654 24.0006 19.0002 24.0006C18.735 24.0006 18.4807 23.8953 18.2931 23.7078C18.1056 23.5202 18.0002 23.2659 18.0002 23.0006C18.0002 22.4702 17.7895 21.9615 17.4144 21.5864C17.0394 21.2114 16.5307 21.0006 16.0002 21.0006H14.3002C14.4829 21.2009 14.646 21.4183 14.7872 21.6496C14.9267 21.8827 15.001 22.149 15.0024 22.4206C15.0038 22.6921 14.9322 22.9591 14.7952 23.1936C14.6563 23.4384 14.4551 23.6419 14.212 23.7837C13.9689 23.9254 13.6926 24.0003 13.4112 24.0006H10.5892C10.3082 23.9999 10.0323 23.9249 9.78961 23.7832C9.54691 23.6414 9.34599 23.4381 9.20723 23.1936C9.07022 22.9591 8.99869 22.6921 9.0001 22.4206C9.00151 22.149 9.0758 21.8827 9.21523 21.6496C9.48197 21.2129 9.81648 20.8213 10.2062 20.4896C6.63523 19.2786 0.000228776 16.1206 0.000228776 12.0776C-0.00475075 11.6718 0.0716039 11.269 0.224789 10.8931C0.377973 10.5172 0.604886 10.1758 0.892141 9.88901C1.1794 9.60222 1.52118 9.37586 1.89732 9.22328C2.27347 9.07071 2.67636 8.99501 3.08223 9.00065H20.9182C21.3241 8.99501 21.727 9.07071 22.1031 9.22328C22.4793 9.37586 22.8211 9.60222 23.1083 9.88901C23.3956 10.1758 23.6225 10.5172 23.7757 10.8931C23.9289 11.269 24.0052 11.6718 24.0002 12.0776C24.0002 15.3366 19.9212 17.7006 16.5202 19.0536ZM16.2322 13.0296C15.9752 12.9695 15.7047 13.0134 15.4799 13.1518C15.2551 13.2903 15.0942 13.512 15.0322 13.7686C14.4379 15.6122 13.3963 17.2799 12.0002 18.6226C10.606 17.2793 9.56607 15.6117 8.97323 13.7686C8.9121 13.5105 8.7509 13.2871 8.52511 13.1478C8.29932 13.0085 8.02742 12.9645 7.76923 13.0256C7.51104 13.0868 7.28771 13.248 7.14837 13.4738C7.00903 13.6996 6.9651 13.9715 7.02623 14.2296C7.05523 14.3526 7.52623 17.1216 11.1942 20.6146C11.4092 20.834 11.6946 20.9707 12.0002 21.0006C12.4102 21.0006 13.3252 20.1296 13.3252 20.1296C14.9538 18.4499 16.1988 16.437 16.9742 14.2296C17.0343 13.9722 16.99 13.7014 16.8509 13.4765C16.7119 13.2516 16.4894 13.0909 16.2322 13.0296V13.0296ZM12.0002 8.00065C12.8709 8.00065 13.706 7.65476 14.3217 7.03908C14.9373 6.4234 15.2832 5.58835 15.2832 4.71765C15.2832 3.58865 14.0112 1.74565 13.0512 0.517648C12.9265 0.358228 12.7672 0.229292 12.5853 0.140618C12.4033 0.0519439 12.2036 0.00585937 12.0012 0.00585938C11.7988 0.00585937 11.5991 0.0519439 11.4172 0.140618C11.2353 0.229292 11.0759 0.358228 10.9512 0.517648C9.99123 1.74965 8.71923 3.59265 8.71923 4.71765C8.71923 5.58801 9.06484 6.42275 9.68009 7.03837C10.2953 7.654 11.1299 8.00012 12.0002 8.00065V8.00065ZM7.04123 7.37265C7.70094 6.86707 8.13561 6.12255 8.25159 5.29952C8.36756 4.47649 8.15554 3.64084 7.66123 2.97265C7.02523 2.11365 5.03823 1.43665 3.61723 1.04465C3.43039 0.992777 3.23416 0.984311 3.04354 1.0199C2.85292 1.05548 2.67296 1.13418 2.51742 1.24997C2.36188 1.36575 2.23487 1.51557 2.14609 1.68797C2.05732 1.86037 2.00914 2.05078 2.00523 2.24465C1.97723 3.73765 2.06123 5.87365 2.70523 6.73665C2.94624 7.06561 3.25026 7.34336 3.59961 7.55374C3.94895 7.76413 4.33664 7.90295 4.74012 7.96213C5.1436 8.02132 5.55483 7.99968 5.94987 7.89848C6.34492 7.79728 6.7159 7.61854 7.04123 7.37265V7.37265Z" fill="#374957"/>
</g>
<defs>
<clipPath id="clip0_1178_19923">
<rect width="24" height="24" fill="white"/>
</clipPath>
</defs>
</svg>
