<svg width="24" height="24" viewBox="0 0 24 24" fill="none" xmlns="http://www.w3.org/2000/svg">
<g clip-path="url(#clip0_1178_19832)">
<path d="M23.7071 22.2924C23.8026 22.3847 23.8788 22.495 23.9312 22.617C23.9836 22.739 24.0112 22.8702 24.0124 23.003C24.0135 23.1358 23.9882 23.2675 23.9379 23.3904C23.8876 23.5133 23.8134 23.6249 23.7195 23.7188C23.6256 23.8127 23.5139 23.887 23.3911 23.9373C23.2682 23.9875 23.1365 24.0128 23.0037 24.0117C22.8709 24.0105 22.7397 23.9829 22.6177 23.9305C22.4957 23.8781 22.3853 23.8019 22.2931 23.7064L0.293097 1.70643C0.110939 1.51783 0.0101446 1.26523 0.012423 1.00303C0.0147014 0.740833 0.11987 0.49002 0.305278 0.304612C0.490687 0.119204 0.741499 0.014035 1.0037 0.0117566C1.26589 0.00947813 1.5185 0.110273 1.7071 0.292431L4.5771 3.16243C5.74365 2.05271 7.22247 1.32744 8.8141 1.08443C10.7041 0.79956 12.6335 1.20206 14.252 2.21881C15.8704 3.23557 17.0704 4.79912 17.6341 6.62543C17.6843 6.79806 17.7766 6.95555 17.9026 7.08381C18.0286 7.21207 18.1844 7.30711 18.3561 7.36043C20.0982 7.88935 21.6063 8.99946 22.629 10.5057C23.6517 12.0119 24.1271 13.8231 23.9761 15.6374C23.8429 17.429 23.0607 19.1105 21.7761 20.3664L23.7071 22.2924ZM3.4411 7.66243C3.33435 7.55504 3.19968 7.47968 3.05231 7.44488C2.90495 7.41008 2.75079 7.41722 2.60728 7.46551C2.46377 7.5138 2.33664 7.6013 2.24029 7.7181C2.14394 7.83491 2.08221 7.97636 2.0621 8.12643C2.02236 8.42883 2.00165 8.73343 2.0001 9.03843C2.00146 10.3019 2.32535 11.5441 2.9411 12.6474C1.92978 13.1697 1.10764 13.9959 0.590308 15.0097C0.0729787 16.0236 -0.113502 17.1741 0.057097 18.2994C0.317748 19.6072 1.01791 20.7865 2.04131 21.6415C3.06472 22.4965 4.34978 22.9756 5.6831 22.9994H14.7831C15.437 23.0006 16.0899 22.9478 16.7351 22.8414C16.8875 22.817 17.0303 22.7509 17.1476 22.6506C17.2649 22.5502 17.3522 22.4194 17.4 22.2726C17.4478 22.1258 17.4541 21.9686 17.4183 21.8185C17.3825 21.6683 17.306 21.5309 17.1971 21.4214L3.4411 7.66243Z" fill="#374957"/>
</g>
<defs>
<clipPath id="clip0_1178_19832">
<rect width="24" height="24" fill="white"/>
</clipPath>
</defs>
</svg>
