<svg width="24" height="24" viewBox="0 0 24 24" fill="none" xmlns="http://www.w3.org/2000/svg">
<g clip-path="url(#clip0_1178_19805)">
<path d="M12.8868 16.5723L16.4508 23.9993H7.18784L11.1208 16.5613C11.1993 16.3926 11.3245 16.25 11.4817 16.1504C11.6389 16.0509 11.8213 15.9985 12.0074 15.9997C12.1934 16.0009 12.3752 16.0554 12.5311 16.157C12.687 16.2585 12.8105 16.4026 12.8868 16.5723V16.5723ZM23.5218 16.8673L16.5348 2.89931C16.1344 2.03723 15.4964 1.30717 14.6958 0.794707C13.8952 0.282243 12.9652 0.00860876 12.0146 0.00587999C11.064 0.00315121 10.1324 0.271441 9.32889 0.7793C8.52536 1.28716 7.88326 2.01355 7.47784 2.87331L0.469837 16.8993C0.118544 17.655 -0.038074 18.4867 0.0142502 19.3184C0.0665744 20.1502 0.326178 20.9556 0.769411 21.6614C1.21264 22.3671 1.82542 22.9507 2.55191 23.3591C3.27841 23.7675 4.09553 23.9875 4.92884 23.9993L9.32884 15.6773C9.57422 15.1718 9.95796 14.7463 10.4355 14.4502C10.9131 14.1541 11.4648 13.9995 12.0267 14.0044C12.5886 14.0093 13.1375 14.1735 13.6098 14.478C14.0821 14.7824 14.4583 15.2146 14.6948 15.7243L18.6688 23.9993H18.9998C19.8423 23.9992 20.671 23.7862 21.4091 23.3802C22.1472 22.9741 22.7708 22.3882 23.2219 21.6767C23.673 20.9652 23.937 20.1513 23.9895 19.3105C24.0419 18.4697 23.881 17.6293 23.5218 16.8673Z" fill="#374957"/>
</g>
<defs>
<clipPath id="clip0_1178_19805">
<rect width="24" height="24" fill="white"/>
</clipPath>
</defs>
</svg>
