<svg width="24" height="24" viewBox="0 0 24 24" fill="none" xmlns="http://www.w3.org/2000/svg">
<g clip-path="url(#clip0_1178_20222)">
<path d="M22.7918 1.61045L13.2618 14.0005H17.9998C18.265 14.0005 18.5193 14.1058 18.7069 14.2933C18.8944 14.4809 18.9998 14.7352 18.9998 15.0005C18.9998 15.2657 18.8944 15.52 18.7069 15.7076C18.5193 15.8951 18.265 16.0005 17.9998 16.0005H12.9998V18.0005H17.9998C18.265 18.0005 18.5193 18.1058 18.7069 18.2933C18.8944 18.4809 18.9998 18.7352 18.9998 19.0005C18.9998 19.2657 18.8944 19.52 18.7069 19.7076C18.5193 19.8951 18.265 20.0005 17.9998 20.0005H12.9998V23.0005C12.9998 23.2657 12.8944 23.52 12.7069 23.7076C12.5193 23.8951 12.265 24.0005 11.9998 24.0005C11.7345 24.0005 11.4802 23.8951 11.2926 23.7076C11.1051 23.52 10.9998 23.2657 10.9998 23.0005V20.0005H5.99975C5.73454 20.0005 5.48018 19.8951 5.29265 19.7076C5.10511 19.52 4.99975 19.2657 4.99975 19.0005C4.99975 18.7352 5.10511 18.4809 5.29265 18.2933C5.48018 18.1058 5.73454 18.0005 5.99975 18.0005H10.9998V16.0005H5.99975C5.73454 16.0005 5.48018 15.8951 5.29265 15.7076C5.10511 15.52 4.99975 15.2657 4.99975 15.0005C4.99975 14.7352 5.10511 14.4809 5.29265 14.2933C5.48018 14.1058 5.73454 14.0005 5.99975 14.0005H10.7378L1.20775 1.61045C1.05385 1.39984 0.988324 1.13743 1.02516 0.879199C1.062 0.620964 1.19829 0.387345 1.40495 0.228177C1.6116 0.0690078 1.87228 -0.00311073 2.13136 0.0272048C2.39044 0.0575203 2.62742 0.18787 2.79175 0.390449L11.9998 12.3604L21.2078 0.390449C21.2865 0.282707 21.386 0.191814 21.5004 0.123124C21.6148 0.0544348 21.7418 0.00933826 21.8739 -0.00950806C22.006 -0.0283544 22.1406 -0.0205693 22.2696 0.0133885C22.3987 0.0473463 22.5196 0.10679 22.6253 0.188217C22.7311 0.269644 22.8194 0.371407 22.8852 0.487511C22.951 0.603615 22.9929 0.73171 23.0084 0.86425C23.0239 0.996791 23.0127 1.13109 22.9755 1.25925C22.9383 1.3874 22.8758 1.50681 22.7918 1.61045Z" fill="#374957"/>
</g>
<defs>
<clipPath id="clip0_1178_20222">
<rect width="24" height="24" fill="white"/>
</clipPath>
</defs>
</svg>
