<svg width="24" height="24" viewBox="0 0 24 24" fill="none" xmlns="http://www.w3.org/2000/svg">
<g clip-path="url(#clip0_1178_20215)">
<path d="M23.9919 12.1599C23.9681 13.9103 23.5583 15.6339 22.7919 17.2079C22.7183 17.2071 22.6448 17.2148 22.5729 17.2309C20.7551 17.7653 18.8675 18.0245 16.9729 17.9999C14.9334 18.0569 12.8979 17.7868 10.9439 17.1999C10.7115 17.1211 10.5025 16.9857 10.3355 16.8059C10.1685 16.6262 10.049 16.4076 9.98754 16.1701C9.92612 15.9326 9.9248 15.6835 9.9837 15.4453C10.0426 15.2072 10.1599 14.9874 10.3249 14.8059C10.6616 14.4312 11.0217 14.0781 11.4029 13.7489C11.5996 13.5905 11.834 13.4858 12.0832 13.445C12.3324 13.4042 12.5879 13.4286 12.8249 13.5159C14.1034 13.9424 15.4422 14.1605 16.7899 14.1619C19.3243 14.1358 21.8076 13.4455 23.9919 12.1599ZM15.2479 12.0239C15.4746 12.0606 15.7066 12.0445 15.926 11.9766C16.1454 11.9087 16.3461 11.791 16.5123 11.6327C16.6786 11.4743 16.806 11.2796 16.8845 11.0638C16.963 10.8481 16.9905 10.617 16.9649 10.3889C16.5019 6.60952 14.7921 3.09241 12.1059 0.393859C12.0037 0.283134 11.9285 0.150369 11.8859 0.00585938C10.304 0.0174555 8.74018 0.344149 7.2859 0.96686C8.80377 2.09934 10.0745 3.52976 11.0202 5.17051C11.9659 6.81125 12.5668 8.62779 12.7859 10.5089C12.8271 10.7983 12.9529 11.0691 13.1476 11.2872C13.3422 11.5054 13.597 11.6611 13.8799 11.7349C14.329 11.8612 14.786 11.9578 15.2479 12.0239ZM20.9219 11.3809C21.9382 11.0079 22.9063 10.5151 23.8059 9.91286C23.3934 7.59616 22.3099 5.45152 20.6897 3.74496C19.0696 2.03841 16.9841 0.845032 14.6919 0.312859C17.0296 3.12309 18.507 6.54801 18.9469 10.1769C18.9738 10.3978 19.0504 10.6097 19.1709 10.7968C19.2915 10.9839 19.4528 11.1413 19.6428 11.2571C19.8329 11.373 20.0467 11.4443 20.2682 11.4657C20.4897 11.4872 20.7132 11.4581 20.9219 11.3809ZM16.7999 19.9999C14.3368 20.0407 11.8857 19.6477 9.5589 18.8389C9.37159 18.7704 9.1721 18.7416 8.97307 18.7543C8.77404 18.7669 8.57982 18.8208 8.4027 18.9125C8.22558 19.0041 8.06943 19.1316 7.94415 19.2867C7.81887 19.4419 7.72718 19.6214 7.6749 19.8139C7.40703 20.8692 7.28622 21.9565 7.3159 23.0449C9.69547 24.0564 12.3384 24.2711 14.85 23.6571C17.3617 23.0431 19.6074 21.6331 21.2519 19.6379C19.7849 19.9159 18.2925 20.0373 16.7999 19.9999ZM10.7999 10.8309C10.7364 10.2409 10.6284 9.65656 10.4769 9.08286C10.4114 8.84467 10.2868 8.62689 10.1146 8.44976C9.9424 8.27262 9.72824 8.14187 9.49201 8.06964C9.25577 7.99741 9.00511 7.98605 8.76331 8.03661C8.52151 8.08718 8.2964 8.19802 8.1089 8.35886C5.22609 10.8896 3.1705 14.2283 2.2089 17.9419C2.16004 18.2203 2.12897 18.5015 2.1159 18.7839C2.97429 20.0322 4.05983 21.1079 5.3159 21.9549C5.4227 20.0602 5.91594 18.2073 6.76531 16.5103C7.61469 14.8133 8.80222 13.3079 10.2549 12.0869C10.4416 11.9381 10.589 11.7458 10.684 11.5268C10.779 11.3078 10.8188 11.0688 10.7999 10.8309ZM7.7669 4.10886C7.04279 3.31217 6.2127 2.61869 5.2999 2.04786C3.08328 3.5286 1.42609 5.70869 0.592419 8.24069C-0.241249 10.7727 -0.203412 13.5109 0.699901 16.0189C1.99547 12.1488 4.38357 8.73648 7.5759 6.19386C7.72985 6.07265 7.85747 5.92134 7.95099 5.74916C8.04451 5.57699 8.10196 5.38756 8.11984 5.19244C8.13771 4.99732 8.11564 4.80061 8.05495 4.61431C7.99427 4.428 7.89626 4.25602 7.7669 4.10886Z" fill="#374957"/>
</g>
<defs>
<clipPath id="clip0_1178_20215">
<rect width="24" height="24" fill="white"/>
</clipPath>
</defs>
</svg>
