<svg width="24" height="24" viewBox="0 0 24 24" fill="none" xmlns="http://www.w3.org/2000/svg">
<path d="M6.0791 22.5005C6.07945 22.1028 6.23772 21.7215 6.5191 21.4405L14.1911 13.7685C14.4233 13.5364 14.6075 13.2607 14.7332 12.9574C14.8589 12.654 14.9236 12.3289 14.9236 12.0005C14.9236 11.6721 14.8589 11.347 14.7332 11.0436C14.6075 10.7403 14.4233 10.4647 14.1911 10.2325L6.5291 2.56551C6.25586 2.2826 6.10467 1.9037 6.10809 1.5104C6.11151 1.11711 6.26926 0.74089 6.54737 0.462777C6.82549 0.184665 7.2017 0.0269118 7.595 0.0234942C7.9883 0.0200766 8.3672 0.171268 8.6501 0.444505L16.3121 8.10551C17.3423 9.13777 17.9209 10.5366 17.9209 11.995C17.9209 13.4534 17.3423 14.8522 16.3121 15.8845L8.6401 23.5565C8.43062 23.7661 8.16374 23.909 7.87315 23.9671C7.58255 24.0252 7.28126 23.9959 7.00729 23.8829C6.73332 23.77 6.49895 23.5784 6.33376 23.3323C6.16857 23.0863 6.07995 22.7969 6.0791 22.5005V22.5005Z" fill="#374957"/>
</svg>
