<svg width="24" height="24" viewBox="0 0 24 24" fill="none" xmlns="http://www.w3.org/2000/svg">
<g clip-path="url(#clip0_1178_20122)">
<path d="M6.99998 22H4.99997C3.34312 22 1.99997 20.6568 1.99997 19V5.00002C1.99997 3.34317 3.34312 2.00002 4.99997 2.00002H6.99998C7.55227 2.00002 7.99997 1.55231 7.99997 1.00003C7.99997 0.44775 7.55227 0 6.99998 0H4.99997C2.23997 0.00332813 0.00332813 2.23997 0 5.00002V19C0.00332813 21.76 2.23997 23.9967 5.00002 24H7.00003C7.55231 24 8.00002 23.5523 8.00002 23C8.00002 22.4477 7.55227 22 6.99998 22Z" fill="#374957"/>
<path d="M23.0001 11.0006L7.22306 11.0326C7.31076 10.8697 7.42045 10.7196 7.54907 10.5866L11.4281 6.70757C11.8253 6.3239 11.8364 5.69081 11.4527 5.29359C11.069 4.89632 10.4359 4.88531 10.0387 5.26898C10.0304 5.27704 10.0222 5.28525 10.0141 5.29359L6.13307 9.17259C4.57153 10.7346 4.57153 13.2666 6.13307 14.8286L10.0121 18.7076C10.3957 19.1048 11.0288 19.1158 11.4261 18.7321C11.8233 18.3485 11.8343 17.7154 11.4506 17.3182C11.4426 17.3098 11.4344 17.3016 11.4261 17.2936L7.54706 13.4146C7.43512 13.2993 7.33743 13.1711 7.25606 13.0326L23.0001 13.0006C23.5523 13.0006 24 12.5529 24 12.0006C24 11.4483 23.5523 11.0006 23.0001 11.0006Z" fill="#374957"/>
</g>
<defs>
<clipPath id="clip0_1178_20122">
<rect width="24" height="24" fill="white"/>
</clipPath>
</defs>
</svg>
