<svg width="24" height="24" viewBox="0 0 24 24" fill="none" xmlns="http://www.w3.org/2000/svg">
<g clip-path="url(#clip0_1178_19775)">
<path d="M2.30977 17.1922L7.80977 22.6922C7.04074 23.0054 6.1964 23.0848 5.38249 22.9203C4.56857 22.7559 3.82125 22.355 3.23409 21.7679C2.64694 21.1807 2.24606 20.4334 2.08164 19.6195C1.91722 18.8056 1.99658 17.9612 2.30977 17.1922V17.1922ZM7.32677 1.9802C7.58668 1.92716 7.81487 1.77304 7.96115 1.55175C8.10743 1.33045 8.15981 1.06012 8.10677 0.800204C8.05372 0.540292 7.8996 0.312096 7.67831 0.165818C7.45702 0.0195396 7.18668 -0.0328393 6.92677 0.020204C4.24511 0.49 1.84378 1.96535 0.212767 4.1452C0.0647452 4.35878 0.00567532 4.62159 0.0480691 4.87797C0.0904629 5.13435 0.230991 5.36415 0.439887 5.51871C0.648783 5.67327 0.909641 5.74045 1.16721 5.70601C1.42477 5.67157 1.65882 5.53822 1.81977 5.3342C3.15392 3.54753 5.12711 2.34578 7.32677 1.9802V1.9802ZM23.1998 16.0232C22.9408 15.9664 22.6698 16.0147 22.4465 16.1576C22.2232 16.3005 22.0657 16.5263 22.0088 16.7852C21.6288 18.943 20.4431 20.8758 18.6918 22.1922C18.4775 22.3487 18.3341 22.5839 18.2932 22.8461C18.2523 23.1082 18.3173 23.3759 18.4738 23.5902C18.6302 23.8045 18.8654 23.9479 19.1276 23.9887C19.3898 24.0296 19.6575 23.9647 19.8718 23.8082C22.0119 22.1996 23.4713 19.8472 23.9618 17.2152C23.9901 17.0869 23.9928 16.9543 23.9698 16.8249C23.9468 16.6956 23.8985 16.572 23.8278 16.4613C23.757 16.3506 23.6651 16.2549 23.5574 16.1798C23.4496 16.1046 23.3281 16.0514 23.1998 16.0232ZM20.1668 5.2472L21.7068 3.7072C21.8023 3.61496 21.8785 3.50461 21.9309 3.38261C21.9833 3.2606 22.0109 3.12938 22.012 2.99661C22.0132 2.86383 21.9879 2.73215 21.9376 2.60925C21.8873 2.48635 21.8131 2.3747 21.7192 2.28081C21.6253 2.18692 21.5136 2.11266 21.3907 2.06238C21.2678 2.0121 21.1361 1.9868 21.0034 1.98795C20.8706 1.98911 20.7394 2.01669 20.6174 2.0691C20.4954 2.12151 20.385 2.19769 20.2928 2.2932L18.7508 3.8352C17.3701 2.73812 15.6811 2.10011 13.9199 2.01045C12.1588 1.9208 10.4137 2.38399 8.92877 3.3352L3.42877 6.73521C2.78382 7.13379 2.2374 7.67312 1.83044 8.31282C1.42347 8.95251 1.1665 9.67599 1.07878 10.4291C0.991051 11.1822 1.07484 11.9453 1.32387 12.6614C1.57289 13.3776 1.98071 14.028 2.51677 14.5642L9.47577 21.5232C10.0129 22.0605 10.6649 22.469 11.3827 22.7181C12.1004 22.9671 12.8653 23.0502 13.6198 22.9611C14.3743 22.872 15.0988 22.613 15.7388 22.2035C16.3788 21.7941 16.9176 21.2449 17.3148 20.5972L20.9148 14.7212C21.7422 13.2455 22.1129 11.5572 21.9797 9.8706C21.8466 8.18394 21.2156 6.57481 20.1668 5.2472V5.2472Z" fill="#374957"/>
</g>
<defs>
<clipPath id="clip0_1178_19775">
<rect width="24" height="24" fill="white"/>
</clipPath>
</defs>
</svg>
