<svg width="24" height="24" viewBox="0 0 24 24" fill="none" xmlns="http://www.w3.org/2000/svg">
<g clip-path="url(#clip0_1178_19824)">
<path d="M24.0001 11.5073C23.9981 10.9985 23.9309 10.492 23.8001 10.0003H2.67307C2.29845 9.99981 1.9314 10.1058 1.61467 10.3058C1.29794 10.5059 1.04457 10.7918 0.88407 11.1303C-0.64693 14.8393 -0.53093 23.9203 4.83307 24.0003H7.76307C8.0741 23.9991 8.37706 23.9013 8.63003 23.7203C8.883 23.5394 9.07347 23.2843 9.17507 22.9903C9.38941 22.4139 9.77494 21.9169 10.2799 21.5659C10.7849 21.2149 11.3851 21.0268 12.0001 21.0268C12.615 21.0268 13.2153 21.2149 13.7202 21.5659C14.2252 21.9169 14.6107 22.4139 14.8251 22.9903C14.9267 23.2843 15.1171 23.5394 15.3701 23.7203C15.6231 23.9013 15.926 23.9991 16.2371 24.0003H18.8001C19.4716 24.0206 20.1405 23.9066 20.7674 23.665C21.3944 23.4234 21.9668 23.0591 22.4511 22.5934C22.9354 22.1277 23.3219 21.57 23.5879 20.953C23.8538 20.336 23.994 19.6722 24.0001 19.0003V11.5073ZM7.00007 17.0003C6.46964 17.0003 5.96093 16.7896 5.58586 16.4145C5.21078 16.0395 5.00007 15.5307 5.00007 15.0003C5.00007 14.4699 5.21078 13.9612 5.58586 13.5861C5.96093 13.211 6.46964 13.0003 7.00007 13.0003C7.5305 13.0003 8.03921 13.211 8.41428 13.5861C8.78936 13.9612 9.00007 14.4699 9.00007 15.0003C9.00007 15.5307 8.78936 16.0395 8.41428 16.4145C8.03921 16.7896 7.5305 17.0003 7.00007 17.0003ZM18.0001 19.0003C17.4696 19.0003 16.9609 18.7896 16.5859 18.4145C16.2108 18.0395 16.0001 17.5307 16.0001 17.0003C16.0001 16.4699 16.2108 15.9612 16.5859 15.5861C16.9609 15.211 17.4696 15.0003 18.0001 15.0003C18.5305 15.0003 19.0392 15.211 19.4143 15.5861C19.7894 15.9612 20.0001 16.4699 20.0001 17.0003C20.0001 17.5307 19.7894 18.0395 19.4143 18.4145C19.0392 18.7896 18.5305 19.0003 18.0001 19.0003ZM22.8531 8.00031H2.67307C2.49574 8.00164 2.31869 8.01467 2.14307 8.03931C3.53831 5.25675 5.55746 2.8341 8.04307 0.960311C8.86713 0.356051 9.85768 0.0210019 10.8793 0.00095516C11.901 -0.0190915 12.9039 0.276842 13.7511 0.848311L17.9511 3.98031L21.5891 6.70031C22.0742 7.06674 22.5004 7.50513 22.8531 8.00031V8.00031Z" fill="#374957"/>
</g>
<defs>
<clipPath id="clip0_1178_19824">
<rect width="24" height="24" fill="white"/>
</clipPath>
</defs>
</svg>
