<svg width="24" height="24" viewBox="0 0 24 24" fill="none" xmlns="http://www.w3.org/2000/svg">
<g clip-path="url(#clip0_1178_20002)">
<path d="M19.7902 3.27962C15.5427 -1.04099 8.59681 -1.10024 4.2762 3.14729C-0.044409 7.39482 -0.103659 14.3407 4.14387 18.6613C4.19665 18.715 4.25 18.7682 4.3039 18.8208L8.23634 22.454C10.3386 24.5106 13.6964 24.5191 15.809 22.473L19.7902 18.7939C24.0742 14.5096 24.0742 7.56381 19.7902 3.27962ZM15.7302 13.3236C16.1263 13.7062 16.1373 14.3376 15.7546 14.7338C15.3719 15.1299 14.7406 15.1409 14.3444 14.7582C14.3361 14.7502 14.328 14.7421 14.32 14.7338L12.0331 12.4469L9.74623 14.7338C9.35004 15.1164 8.71868 15.1055 8.33604 14.7093C7.96273 14.3229 7.96273 13.7101 8.33604 13.3236L10.6229 11.0368L8.33604 8.74993C7.93986 8.36729 7.92889 7.73593 8.31153 7.33974C8.69417 6.94356 9.32553 6.93259 9.72172 7.31523C9.73001 7.32324 9.73822 7.33145 9.74623 7.33974L12.0331 9.62659L14.3199 7.33974C14.7026 6.94356 15.334 6.93259 15.7301 7.31527C16.1262 7.69796 16.1373 8.32932 15.7546 8.72546C15.7466 8.73376 15.7384 8.74192 15.7301 8.74993L13.4433 11.0368L15.7302 13.3236Z" fill="#374957"/>
</g>
<defs>
<clipPath id="clip0_1178_20002">
<rect width="24" height="24" fill="white"/>
</clipPath>
</defs>
</svg>
