<svg width="24" height="24" viewBox="0 0 24 24" fill="none" xmlns="http://www.w3.org/2000/svg">
<path d="M22.101 5.03281C21.2053 3.44056 19.6131 2.54492 17.8217 2.54492H5.97929C4.188 2.54492 2.59571 3.44056 1.70007 5.03281C0.605395 7.02312 0.00830078 9.21252 0.00830078 11.5014C0.00830078 16.9748 2.19764 21.453 4.98413 21.453C6.47686 21.453 7.6711 20.0598 8.56674 17.1738C8.66625 16.7758 9.06432 16.4772 9.5619 16.4772H14.4382C14.8363 16.4772 15.2343 16.7758 15.4334 17.1738C16.329 20.0598 17.5232 21.453 19.016 21.453C21.8025 21.453 23.9918 16.9748 23.9918 11.5014C23.7928 9.21247 23.1957 7.02312 22.101 5.03281ZM8.9648 10.5062H7.96965V11.5014C7.96965 12.0985 7.57158 12.4965 6.97449 12.4965C6.3774 12.4965 5.97933 12.0985 5.97933 11.5014V10.5062H4.98418C4.38708 10.5062 3.98902 10.1082 3.98902 9.51106C3.98902 8.91397 4.38708 8.51591 4.98418 8.51591H5.97933V7.52075C5.97933 6.92366 6.3774 6.52559 6.97449 6.52559C7.57158 6.52559 7.96965 6.92366 7.96965 7.52075V8.51591H8.9648C9.5619 8.51591 9.95996 8.91397 9.95996 9.51106C9.95996 10.1082 9.5619 10.5062 8.9648 10.5062ZM15.5329 12.4965C14.7368 12.4965 14.0401 11.7999 14.0401 11.0038C14.0401 10.2077 14.7368 9.51106 15.5329 9.51106C16.329 9.51106 17.0256 10.2077 17.0256 11.0038C17.0256 11.7999 16.2295 12.4965 15.5329 12.4965ZM18.4189 9.51106C17.7223 9.51106 16.9261 8.81445 16.9261 8.01833C16.9261 7.2222 17.7223 6.52559 18.4189 6.52559C19.1155 6.52559 19.9116 7.2222 19.9116 8.01833C19.9116 8.81445 19.215 9.51106 18.4189 9.51106Z" fill="#374957"/>
</svg>
