<svg width="24" height="24" viewBox="0 0 24 24" fill="none" xmlns="http://www.w3.org/2000/svg">
<g clip-path="url(#clip0_1178_20099)">
<path d="M19 14.0011C18.177 14.0065 17.3684 14.2179 16.648 14.6161L13.3 10.6011L20.767 1.6411C20.9293 1.43659 21.0051 1.17674 20.9784 0.917053C20.9516 0.657367 20.8244 0.418439 20.6238 0.251312C20.4233 0.0841854 20.1653 0.00211194 19.9051 0.0226254C19.6448 0.0431389 19.4029 0.164613 19.231 0.361096L12 9.0391L4.768 0.361096C4.59611 0.164613 4.3542 0.0431389 4.09394 0.0226254C3.83369 0.00211194 3.57573 0.0841854 3.37518 0.251312C3.17463 0.418439 3.04739 0.657367 3.02063 0.917053C2.99388 1.17674 3.06974 1.43659 3.232 1.6411L10.7 10.6011L7.352 14.6161C6.63146 14.2184 5.82299 14.007 5 14.0011C4.0111 14.0011 3.0444 14.2943 2.22215 14.8437C1.39991 15.3932 0.759043 16.174 0.380605 17.0877C0.00216642 18.0013 -0.0968503 19.0066 0.0960759 19.9765C0.289002 20.9465 0.765206 21.8374 1.46447 22.5366C2.16373 23.2359 3.05465 23.7121 4.02455 23.905C4.99446 24.0979 5.99979 23.9989 6.91342 23.6205C7.82705 23.2421 8.60794 22.6012 9.15735 21.7789C9.70676 20.9567 10 19.99 10 19.0011C9.99427 17.8711 9.60185 16.7771 8.888 15.9011L12 12.1631L15.111 15.9011C14.3981 16.7776 14.0061 17.8713 14 19.0011C14 19.99 14.2932 20.9567 14.8427 21.7789C15.3921 22.6012 16.173 23.2421 17.0866 23.6205C18.0002 23.9989 19.0055 24.0979 19.9755 23.905C20.9454 23.7121 21.8363 23.2359 22.5355 22.5366C23.2348 21.8374 23.711 20.9465 23.9039 19.9765C24.0969 19.0066 23.9978 18.0013 23.6194 17.0877C23.241 16.174 22.6001 15.3932 21.7779 14.8437C20.9556 14.2943 19.9889 14.0011 19 14.0011V14.0011ZM5 22.0011C4.40666 22.0011 3.82664 21.8252 3.33329 21.4955C2.83994 21.1659 2.45543 20.6973 2.22836 20.1491C2.0013 19.601 1.94189 18.9978 2.05765 18.4158C2.1734 17.8339 2.45912 17.2993 2.87868 16.8798C3.29824 16.4602 3.83279 16.1745 4.41473 16.0587C4.99667 15.943 5.59987 16.0024 6.14805 16.2295C6.69623 16.4565 7.16477 16.841 7.49441 17.3344C7.82406 17.8277 8 18.4078 8 19.0011C8 19.7967 7.68393 20.5598 7.12132 21.1224C6.55871 21.685 5.79565 22.0011 5 22.0011ZM19 22.0011C18.4067 22.0011 17.8266 21.8252 17.3333 21.4955C16.8399 21.1659 16.4554 20.6973 16.2284 20.1491C16.0013 19.601 15.9419 18.9978 16.0576 18.4158C16.1734 17.8339 16.4591 17.2993 16.8787 16.8798C17.2982 16.4602 17.8328 16.1745 18.4147 16.0587C18.9967 15.943 19.5999 16.0024 20.1481 16.2295C20.6962 16.4565 21.1648 16.841 21.4944 17.3344C21.8241 17.8277 22 18.4078 22 19.0011C22 19.7967 21.6839 20.5598 21.1213 21.1224C20.5587 21.685 19.7957 22.0011 19 22.0011Z" fill="#374957"/>
</g>
<defs>
<clipPath id="clip0_1178_20099">
<rect width="24" height="24" fill="white"/>
</clipPath>
</defs>
</svg>
