<svg width="24" height="24" viewBox="0 0 24 24" fill="none" xmlns="http://www.w3.org/2000/svg">
<path d="M1.51313 15.4865L5.67913 19.6525C6.24172 20.2149 7.00464 20.5309 7.80013 20.5309C8.59563 20.5309 9.35855 20.2149 9.92113 19.6525L22.7871 6.78651C22.9693 6.59791 23.0701 6.3453 23.0678 6.08311C23.0655 5.82091 22.9604 5.5701 22.775 5.38469C22.5895 5.19928 22.3387 5.09411 22.0765 5.09183C21.8143 5.08956 21.5617 5.19035 21.3731 5.37251L8.50713 18.2385C8.31961 18.426 8.0653 18.5313 7.80013 18.5313C7.53497 18.5313 7.28066 18.426 7.09313 18.2385L2.92713 14.0725C2.73853 13.8904 2.48593 13.7896 2.22373 13.7918C1.96154 13.7941 1.71072 13.8993 1.52532 14.0847C1.33991 14.2701 1.23474 14.5209 1.23246 14.7831C1.23018 15.0453 1.33098 15.2979 1.51313 15.4865V15.4865Z" fill="#374957"/>
</svg>
