<svg width="24" height="24" viewBox="0 0 24 24" fill="none" xmlns="http://www.w3.org/2000/svg">
<g clip-path="url(#clip0_1178_20098)">
<path d="M4.343 10.9999H0C0.00158786 9.67433 0.528882 8.40348 1.46622 7.46614C2.40356 6.52881 3.6744 6.00151 5 5.99992H11V1.63592C11.0002 1.36065 11.0698 1.08987 11.2023 0.848629C11.3349 0.607385 11.5262 0.403465 11.7584 0.255731C11.9907 0.107997 12.2565 0.0212198 12.5312 0.00342458C12.8059 -0.0143706 13.0806 0.0373912 13.33 0.153923L16.53 1.65392C16.6747 1.74361 16.7941 1.86875 16.8769 2.0175C16.9598 2.16625 17.0032 2.33368 17.0032 2.50392C17.0032 2.67417 16.9598 2.8416 16.8769 2.99035C16.7941 3.1391 16.6747 3.26424 16.53 3.35392L13 4.99992V5.99992H19C20.3256 6.00151 21.5964 6.52881 22.5338 7.46614C23.4711 8.40348 23.9984 9.67433 24 10.9999H19.657C18.8757 11.0001 18.1252 10.6955 17.565 10.1509L14.829 7.17192C14.0643 6.43443 13.0418 6.02483 11.9794 6.03043C10.917 6.03604 9.89888 6.45641 9.142 7.20192L6.464 10.1209C5.90047 10.682 5.13821 10.9979 4.343 10.9999ZM12 18.9999C11.7348 18.9999 11.4804 19.1053 11.2929 19.2928C11.1054 19.4804 11 19.7347 11 19.9999V23.9999H13V19.9999C13 19.7347 12.8946 19.4804 12.7071 19.2928C12.5196 19.1053 12.2652 18.9999 12 18.9999ZM19.657 12.9999H24V20.9999C24 21.7956 23.6839 22.5586 23.1213 23.1212C22.5587 23.6839 21.7956 23.9999 21 23.9999H15V19.9999C15 19.2043 14.6839 18.4412 14.1213 17.8786C13.5587 17.316 12.7956 16.9999 12 16.9999C11.2044 16.9999 10.4413 17.316 9.87868 17.8786C9.31607 18.4412 9 19.2043 9 19.9999V23.9999H3C2.20435 23.9999 1.44129 23.6839 0.87868 23.1212C0.31607 22.5586 0 21.7956 0 20.9999L0 12.9999H4.343C5.00676 13.0002 5.66391 12.8681 6.27602 12.6114C6.88814 12.3547 7.44294 11.9785 7.908 11.5049L10.586 8.58592C10.9641 8.23114 11.4617 8.0312 11.9802 8.02564C12.4986 8.02009 13.0003 8.20933 13.386 8.55592L16.124 11.5349C16.5869 12.0004 17.1375 12.3696 17.7439 12.621C18.3503 12.8725 19.0005 13.0013 19.657 12.9999V12.9999ZM6 20.9999C6 20.7347 5.89464 20.4804 5.70711 20.2928C5.51957 20.1053 5.26522 19.9999 5 19.9999H4C3.73478 19.9999 3.48043 20.1053 3.29289 20.2928C3.10536 20.4804 3 20.7347 3 20.9999C3 21.2651 3.10536 21.5195 3.29289 21.707C3.48043 21.8946 3.73478 21.9999 4 21.9999H5C5.26522 21.9999 5.51957 21.8946 5.70711 21.707C5.89464 21.5195 6 21.2651 6 20.9999ZM6 16.9999C6 16.7347 5.89464 16.4804 5.70711 16.2928C5.51957 16.1053 5.26522 15.9999 5 15.9999H4C3.73478 15.9999 3.48043 16.1053 3.29289 16.2928C3.10536 16.4804 3 16.7347 3 16.9999C3 17.2651 3.10536 17.5195 3.29289 17.707C3.48043 17.8946 3.73478 17.9999 4 17.9999H5C5.26522 17.9999 5.51957 17.8946 5.70711 17.707C5.89464 17.5195 6 17.2651 6 16.9999ZM14 12.9999C14 12.6044 13.8827 12.2177 13.6629 11.8888C13.4432 11.5599 13.1308 11.3035 12.7654 11.1522C12.3999 11.0008 11.9978 10.9612 11.6098 11.0384C11.2219 11.1155 10.8655 11.306 10.5858 11.5857C10.3061 11.8654 10.1156 12.2218 10.0384 12.6097C9.96126 12.9977 10.0009 13.3998 10.1522 13.7653C10.3036 14.1307 10.56 14.4431 10.8889 14.6629C11.2178 14.8826 11.6044 14.9999 12 14.9999C12.5304 14.9999 13.0391 14.7892 13.4142 14.4141C13.7893 14.0391 14 13.5304 14 12.9999ZM21 20.9999C21 20.7347 20.8946 20.4804 20.7071 20.2928C20.5196 20.1053 20.2652 19.9999 20 19.9999H19C18.7348 19.9999 18.4804 20.1053 18.2929 20.2928C18.1054 20.4804 18 20.7347 18 20.9999C18 21.2651 18.1054 21.5195 18.2929 21.707C18.4804 21.8946 18.7348 21.9999 19 21.9999H20C20.2652 21.9999 20.5196 21.8946 20.7071 21.707C20.8946 21.5195 21 21.2651 21 20.9999ZM20 15.9999H19C18.7348 15.9999 18.4804 16.1053 18.2929 16.2928C18.1054 16.4804 18 16.7347 18 16.9999C18 17.2651 18.1054 17.5195 18.2929 17.707C18.4804 17.8946 18.7348 17.9999 19 17.9999H20C20.2652 17.9999 20.5196 17.8946 20.7071 17.707C20.8946 17.5195 21 17.2651 21 16.9999C21 16.7347 20.8946 16.4804 20.7071 16.2928C20.5196 16.1053 20.2652 15.9999 20 15.9999Z" fill="#374957"/>
</g>
<defs>
<clipPath id="clip0_1178_20098">
<rect width="24" height="24" fill="white"/>
</clipPath>
</defs>
</svg>
