<svg width="24" height="24" viewBox="0 0 24 24" fill="none" xmlns="http://www.w3.org/2000/svg">
<path d="M22.9565 10.957H1.04346C0.467168 10.957 0 11.4242 0 12.0005C0 12.5768 0.467168 13.044 1.04346 13.044H22.9565C23.5328 13.044 23.9999 12.5768 23.9999 12.0005C24 11.4242 23.5328 10.957 22.9565 10.957Z" fill="#374957"/>
<path d="M1.04346 5.73927H22.9565C23.5328 5.73927 23.9999 5.2721 23.9999 4.69581C23.9999 4.11951 23.5328 3.65234 22.9565 3.65234H1.04346C0.467168 3.65234 0 4.11951 0 4.69581C0 5.2721 0.467168 5.73927 1.04346 5.73927Z" fill="#374957"/>
<path d="M22.9565 18.2617H1.04346C0.467168 18.2617 0 18.7289 0 19.3052C0 19.8815 0.467168 20.3487 1.04346 20.3487H22.9565C23.5328 20.3487 23.9999 19.8815 23.9999 19.3052C24 18.7289 23.5328 18.2617 22.9565 18.2617Z" fill="#374957"/>
</svg>
