<svg width="24" height="24" viewBox="0 0 24 24" fill="none" xmlns="http://www.w3.org/2000/svg">
<path d="M23.5349 14.7242C23.3278 14.4727 23.0621 14.2759 22.7612 14.151C22.4602 14.0262 22.1333 13.9771 21.8089 14.0082C19.9426 14.1175 18.1401 14.7268 16.5903 15.7723C15.0404 16.8177 13.8003 18.2607 12.9999 19.9502V13.9152C14.3972 13.6772 15.6654 12.9529 16.5804 11.8703C17.4953 10.7878 17.9981 9.41662 17.9999 7.9992C17.9999 5.2062 16.0569 2.8472 14.1559 0.908203C14.0459 0.795599 13.9269 0.692249 13.7999 0.599203C12.6515 2.88716 12.0361 5.40547 11.9999 7.9652C12.0044 8.09653 11.9829 8.22744 11.9368 8.35047C11.8907 8.47351 11.8208 8.58625 11.7311 8.68227C11.6414 8.77828 11.5336 8.85569 11.414 8.91007C11.2944 8.96445 11.1652 8.99474 11.0339 8.9992C10.9026 9.00367 10.7717 8.98222 10.6487 8.93609C10.5256 8.88996 10.4129 8.82005 10.3169 8.73035C10.2208 8.64065 10.1434 8.53291 10.0891 8.4133C10.0347 8.29368 10.0044 8.16453 9.99992 8.0332C10.0105 5.26219 10.6413 2.52869 11.8459 0.0332031C11.0932 0.0630858 10.3792 0.375087 9.84592 0.907203C7.94292 2.8472 5.99992 5.2062 5.99992 7.9992C6.00174 9.41662 6.50455 10.7878 7.4195 11.8703C8.33445 12.9529 9.60263 13.6772 10.9999 13.9152V19.9512C10.1997 18.2615 8.95971 16.8182 7.40983 15.7725C5.85996 14.7269 4.05733 14.1175 2.19092 14.0082C1.86661 13.9773 1.53967 14.0264 1.23876 14.1513C0.937845 14.2761 0.672138 14.4728 0.464924 14.7242C0.259038 14.9687 0.115684 15.2595 0.0472195 15.5717C-0.0212449 15.8839 -0.0127663 16.208 0.0719245 16.5162C2.11092 23.8542 11.5909 23.9992 11.9939 23.9992H12.0059C12.4059 23.9992 21.8899 23.8542 23.9289 16.5162C24.0131 16.2079 24.0213 15.8838 23.9527 15.5717C23.884 15.2595 23.7407 14.9687 23.5349 14.7242V14.7242Z" fill="#374957"/>
</svg>
