<svg width="24" height="24" viewBox="0 0 24 24" fill="none" xmlns="http://www.w3.org/2000/svg">
<g clip-path="url(#clip0_1178_19796)">
<path d="M24 23.0003C24 23.2656 23.8946 23.5199 23.7071 23.7075C23.5196 23.895 23.2652 24.0003 23 24.0003H1C0.734784 24.0003 0.48043 23.895 0.292893 23.7075C0.105357 23.5199 0 23.2656 0 23.0003C0 22.7351 0.105357 22.4808 0.292893 22.2932C0.48043 22.1057 0.734784 22.0003 1 22.0003H23C23.2652 22.0003 23.5196 22.1057 23.7071 22.2932C23.8946 22.4808 24 22.7351 24 23.0003ZM3.75 15.0003C4.818 15.0003 5.5 14.3433 5.5 14.0003C5.5 13.7351 5.60536 13.4808 5.79289 13.2932C5.98043 13.1057 6.23478 13.0003 6.5 13.0003C6.76522 13.0003 7.01957 13.1057 7.20711 13.2932C7.39464 13.4808 7.5 13.7351 7.5 14.0003C7.5 14.3063 8.161 15.0003 9.25 15.0003C10.318 15.0003 11 14.3433 11 14.0003C11 13.7351 11.1054 13.4808 11.2929 13.2932C11.4804 13.1057 11.7348 13.0003 12 13.0003C12.2652 13.0003 12.5196 13.1057 12.7071 13.2932C12.8946 13.4808 13 13.7351 13 14.0003C13 14.3063 13.661 15.0003 14.75 15.0003C15.818 15.0003 16.5 14.3433 16.5 14.0003C16.5 13.7351 16.6054 13.4808 16.7929 13.2932C16.9804 13.1057 17.2348 13.0003 17.5 13.0003C17.7652 13.0003 18.0196 13.1057 18.2071 13.2932C18.3946 13.4808 18.5 13.7351 18.5 14.0003C18.5 14.3063 19.161 15.0003 20.25 15.0003C21.339 15.0003 22 14.3063 22 14.0003C21.9984 12.6748 21.4711 11.4039 20.5338 10.4666C19.5964 9.52923 18.3256 9.00193 17 9.00035H13V6.81635C13.5829 6.61026 14.0879 6.22911 14.4459 5.72504C14.8039 5.22098 14.9974 4.61861 15 4.00035C14.7853 2.72634 14.2059 1.54189 13.332 0.590346C13.159 0.412203 12.952 0.270585 12.7233 0.173879C12.4946 0.0771724 12.2488 0.0273438 12.0005 0.0273438C11.7522 0.0273437 11.5064 0.0771724 11.2777 0.173879C11.049 0.270585 10.842 0.412203 10.669 0.590346C9.79438 1.54154 9.2146 2.72611 9 4.00035C9.00256 4.61861 9.19608 5.22098 9.55409 5.72504C9.91209 6.22911 10.4171 6.61026 11 6.81635V9.00035H7C5.6744 9.00193 4.40356 9.52923 3.46622 10.4666C2.52888 11.4039 2.00159 12.6748 2 14.0003C2 14.3063 2.661 15.0003 3.75 15.0003ZM3 20.0003H21C21.2652 20.0003 21.5196 19.895 21.7071 19.7075C21.8946 19.5199 22 19.2656 22 19.0003V16.6253C21.4489 16.87 20.853 16.9977 20.25 17.0003C19.243 17.008 18.2669 16.653 17.5 16.0003C16.7286 16.6433 15.7569 16.9967 14.7527 16.9995C13.7485 17.0022 12.7749 16.6541 12 16.0153C11.2251 16.6541 10.2515 17.0022 9.2473 16.9995C8.24308 16.9967 7.27136 16.6433 6.5 16.0003C5.73312 16.653 4.75699 17.008 3.75 17.0003C3.14701 16.9977 2.55112 16.87 2 16.6253V19.0003C2 19.2656 2.10536 19.5199 2.29289 19.7075C2.48043 19.895 2.73478 20.0003 3 20.0003Z" fill="#374957"/>
</g>
<defs>
<clipPath id="clip0_1178_19796">
<rect width="24" height="24" fill="white"/>
</clipPath>
</defs>
</svg>
