<svg width="24" height="24" viewBox="0 0 24 24" fill="none" xmlns="http://www.w3.org/2000/svg">
<g clip-path="url(#clip0_1178_19932)">
<path d="M5.25169e-06 8.00787V2.00787C-0.000687977 1.70534 0.0672576 1.4066 0.198727 1.13414C0.330196 0.861671 0.521763 0.622581 0.759005 0.434865C0.994459 0.245722 1.27002 0.112889 1.56466 0.0465102C1.85929 -0.0198684 2.16519 -0.0180369 2.45901 0.051865C3.39477 0.302374 4.25789 0.770988 4.97766 1.41932C5.69744 2.06766 6.2534 2.87728 6.60001 3.78187C8.36032 3.29686 10.1744 3.03415 12 2.99987C13.8256 3.03415 15.6397 3.29686 17.4 3.78187C17.7468 2.87689 18.3032 2.06702 19.0236 1.41865C19.7439 0.770279 20.6077 0.301881 21.544 0.051865C21.8379 -0.0159907 22.1434 -0.0166461 22.4376 0.0499474C22.7318 0.116541 23.0072 0.248667 23.2433 0.436481C23.4794 0.624296 23.67 0.862957 23.801 1.13468C23.932 1.40641 24.0001 1.7042 24 2.00587V8.00587C22.3507 8.0464 20.7267 8.42059 19.226 9.10587C17.3041 9.92466 15.678 11.3109 14.5654 13.079C13.4527 14.8471 12.9066 16.9129 13 18.9999C13 19.2651 12.8946 19.5194 12.7071 19.707C12.5196 19.8945 12.2652 19.9999 12 19.9999C11.7348 19.9999 11.4804 19.8945 11.2929 19.707C11.1054 19.5194 11 19.2651 11 18.9999C11.0942 16.912 10.5485 14.8451 9.43584 13.0758C8.32318 11.3066 6.69668 9.91937 4.77401 9.09987C3.27255 8.4178 1.64868 8.04636 5.25169e-06 8.00787V8.00787ZM20 10.9999C19.8213 11.837 19.3637 12.5886 18.702 13.1316C18.0403 13.6747 17.2139 13.9769 16.358 13.9889C15.4195 15.488 14.9469 17.232 15 18.9999C15 19.7955 14.6839 20.5586 14.1213 21.1212C13.5587 21.6838 12.7957 21.9999 12 21.9999C11.2044 21.9999 10.4413 21.6838 9.87868 21.1212C9.31608 20.5586 9.00001 19.7955 9.00001 18.9999C9.05311 17.232 8.5805 15.488 7.64201 13.9889C6.78612 13.9769 5.95966 13.6747 5.298 13.1316C4.63633 12.5886 4.17868 11.837 4.00001 10.9999C2.74834 10.4 1.38698 10.063 5.25169e-06 10.0099C0.0314567 12.8758 1.1879 15.6147 3.22001 17.6359L7.87701 22.2929C8.97433 23.3776 10.4551 23.9859 11.998 23.9859C13.541 23.9859 15.0217 23.3776 16.119 22.2929L20.776 17.6359C22.8096 15.6153 23.9675 12.8764 24 10.0099C22.613 10.063 21.2517 10.4 20 10.9999V10.9999Z" fill="#374957"/>
</g>
<defs>
<clipPath id="clip0_1178_19932">
<rect width="24" height="24" fill="white"/>
</clipPath>
</defs>
</svg>
