<svg width="24" height="24" viewBox="0 0 24 24" fill="none" xmlns="http://www.w3.org/2000/svg">
<path d="M15 5.02658C15 5.82223 14.6839 6.58529 14.1213 7.1479C13.5587 7.71051 12.7956 8.02658 12 8.02658C11.2044 8.02658 10.4413 7.71051 9.87868 7.1479C9.31607 6.58529 9 5.82223 9 5.02658C9.26857 3.47542 9.86112 1.9983 10.739 0.691577C10.8749 0.480626 11.0615 0.307138 11.2818 0.186998C11.5021 0.0668583 11.7491 0.00390625 12 0.00390625C12.2509 0.00390625 12.4979 0.0668583 12.7182 0.186998C12.9385 0.307138 13.1251 0.480626 13.261 0.691577C14.1389 1.9983 14.7314 3.47542 15 5.02658ZM5.8 18.0006H18.2C18.0739 17.8224 17.9331 17.6552 17.779 17.5006C15.856 15.6416 15.071 13.4856 15.013 10.0006H16C16.2652 10.0006 16.5196 9.89522 16.7071 9.70768C16.8946 9.52015 17 9.26579 17 9.00058C17 8.73536 16.8946 8.48101 16.7071 8.29347C16.5196 8.10593 16.2652 8.00058 16 8.00058H8C7.73478 8.00058 7.48043 8.10593 7.29289 8.29347C7.10536 8.48101 7 8.73536 7 9.00058C7 9.26579 7.10536 9.52015 7.29289 9.70768C7.48043 9.89522 7.73478 10.0006 8 10.0006H8.989C8.931 13.4876 8.146 15.6436 6.223 17.5006C6.06881 17.6556 5.92735 17.8228 5.8 18.0006V18.0006ZM20 22.0006H19V20.3716C19 20.2466 18.974 20.1246 18.962 20.0006H5.038C5.026 20.1246 5 20.2466 5 20.3716V22.0006H4C3.73478 22.0006 3.48043 22.1059 3.29289 22.2935C3.10536 22.481 3 22.7354 3 23.0006C3 23.2658 3.10536 23.5201 3.29289 23.7077C3.48043 23.8952 3.73478 24.0006 4 24.0006H20C20.2652 24.0006 20.5196 23.8952 20.7071 23.7077C20.8946 23.5201 21 23.2658 21 23.0006C21 22.7354 20.8946 22.481 20.7071 22.2935C20.5196 22.1059 20.2652 22.0006 20 22.0006Z" fill="#374957"/>
</svg>
