<svg width="24" height="24" viewBox="0 0 24 24" fill="none" xmlns="http://www.w3.org/2000/svg">
<g clip-path="url(#clip0_1178_19734)">
<path d="M16 4.01715C17.1157 4.06256 18.1967 4.41842 19.1212 5.04471C20.0456 5.67099 20.777 6.54284 21.233 7.56215L22.761 10.9992H17C16.7348 10.9992 16.4804 10.8938 16.2929 10.7063C16.1054 10.5187 16 10.2644 16 9.99915V4.01715ZM8.942 20.9992C8.97863 21.1634 8.99807 21.3309 9 21.4992C9 22.1622 8.73661 22.7981 8.26777 23.2669C7.79893 23.7358 7.16304 23.9992 6.5 23.9992C5.83696 23.9992 5.20107 23.7358 4.73223 23.2669C4.26339 22.7981 4 22.1622 4 21.4992C4.00193 21.3309 4.02137 21.1634 4.058 20.9992H8.942ZM19.942 20.9992C19.9786 21.1634 19.9981 21.3309 20 21.4992C20 22.1622 19.7366 22.7981 19.2678 23.2669C18.7989 23.7358 18.163 23.9992 17.5 23.9992C16.837 23.9992 16.2011 23.7358 15.7322 23.2669C15.2634 22.7981 15 22.1622 15 21.4992C15.0019 21.3309 15.0214 21.1634 15.058 20.9992H19.942ZM24 16.1212C24.0041 16.5107 23.9283 16.8969 23.7774 17.256C23.6265 17.6151 23.4036 17.9394 23.1225 18.2091C22.8415 18.4787 22.5081 18.688 22.1431 18.8238C21.778 18.9597 21.389 19.0194 21 18.9992H3C2.20435 18.9992 1.44129 18.6831 0.87868 18.1205C0.31607 17.5579 0 16.7948 0 15.9992L0 8.99915C0.00158786 7.67356 0.528882 6.40271 1.46622 5.46537C2.40356 4.52803 3.6744 4.00074 5 3.99915H9.2L9.86 1.35715C9.95735 0.969404 10.1814 0.625281 10.4967 0.379408C10.8119 0.133535 11.2002 0 11.6 0C11.9998 0 12.3881 0.133535 12.7033 0.379408C13.0186 0.625281 13.2427 0.969404 13.34 1.35715L14 3.99915V9.99915C14 10.7948 14.3161 11.5579 14.8787 12.1205C15.4413 12.6831 16.2044 12.9992 17 12.9992H23.537C23.7931 14.0222 23.9482 15.0678 24 16.1212ZM10 11.9992C10 11.7339 9.89464 11.4796 9.70711 11.292C9.51957 11.1045 9.26522 10.9992 9 10.9992H8V9.99915C8 9.73394 7.89464 9.47958 7.70711 9.29205C7.51957 9.10451 7.26522 8.99915 7 8.99915C6.73478 8.99915 6.48043 9.10451 6.29289 9.29205C6.10536 9.47958 6 9.73394 6 9.99915V10.9992H5C4.73478 10.9992 4.48043 11.1045 4.29289 11.292C4.10536 11.4796 4 11.7339 4 11.9992C4 12.2644 4.10536 12.5187 4.29289 12.7063C4.48043 12.8938 4.73478 12.9992 5 12.9992H6V13.9992C6 14.2644 6.10536 14.5187 6.29289 14.7063C6.48043 14.8938 6.73478 14.9992 7 14.9992C7.26522 14.9992 7.51957 14.8938 7.70711 14.7063C7.89464 14.5187 8 14.2644 8 13.9992V12.9992H9C9.26522 12.9992 9.51957 12.8938 9.70711 12.7063C9.89464 12.5187 10 12.2644 10 11.9992Z" fill="#374957"/>
</g>
<defs>
<clipPath id="clip0_1178_19734">
<rect width="24" height="24" fill="white"/>
</clipPath>
</defs>
</svg>
