<svg width="24" height="24" viewBox="0 0 24 24" fill="none" xmlns="http://www.w3.org/2000/svg">
<g clip-path="url(#clip0_1178_20024)">
<path d="M16 10.5098C17.3807 10.5098 18.5 9.39048 18.5 8.00977C18.5 6.62905 17.3807 5.50977 16 5.50977C14.6193 5.50977 13.5 6.62905 13.5 8.00977C13.5 9.39048 14.6193 10.5098 16 10.5098Z" fill="#374957"/>
<path d="M23 16C22.7348 16 22.4804 16.1054 22.2929 16.2929C22.1053 16.4804 22 16.7348 22 17V19C22 19.7956 21.6839 20.5587 21.1213 21.1213C20.5587 21.6839 19.7956 22 19 22H17C16.7348 22 16.4804 22.1053 16.2929 22.2929C16.1054 22.4804 16 22.7348 16 23C16 23.2652 16.1054 23.5196 16.2929 23.7071C16.4804 23.8946 16.7348 24 17 24H19C20.3256 23.9984 21.5964 23.4711 22.5338 22.5338C23.4711 21.5964 23.9984 20.3256 24 19V17C24 16.7348 23.8946 16.4804 23.7071 16.2929C23.5196 16.1054 23.2652 16 23 16Z" fill="#374957"/>
<path d="M1 8C1.26522 8 1.51957 7.89464 1.70711 7.70711C1.89464 7.51957 2 7.26522 2 7V5C2 4.20435 2.31607 3.44129 2.87868 2.87868C3.44129 2.31607 4.20435 2 5 2H7C7.26522 2 7.51957 1.89464 7.70711 1.70711C7.89464 1.51957 8 1.26522 8 1C8 0.734784 7.89464 0.48043 7.70711 0.292893C7.51957 0.105357 7.26522 0 7 0L5 0C3.6744 0.00158786 2.40356 0.528882 1.46622 1.46622C0.528882 2.40356 0.00158786 3.6744 0 5L0 7C0 7.26522 0.105357 7.51957 0.292893 7.70711C0.48043 7.89464 0.734784 8 1 8Z" fill="#374957"/>
<path d="M7 22H5C4.20435 22 3.44129 21.6839 2.87868 21.1213C2.31607 20.5587 2 19.7956 2 19V17C2 16.7348 1.89464 16.4804 1.70711 16.2929C1.51957 16.1054 1.26522 16 1 16C0.734784 16 0.48043 16.1054 0.292893 16.2929C0.105357 16.4804 0 16.7348 0 17L0 19C0.00158786 20.3256 0.528882 21.5964 1.46622 22.5338C2.40356 23.4711 3.6744 23.9984 5 24H7C7.26522 24 7.51957 23.8946 7.70711 23.7071C7.89464 23.5196 8 23.2652 8 23C8 22.7348 7.89464 22.4804 7.70711 22.2929C7.51957 22.1053 7.26522 22 7 22Z" fill="#374957"/>
<path d="M19 0H17C16.7348 0 16.4804 0.105357 16.2929 0.292893C16.1054 0.48043 16 0.734784 16 1C16 1.26522 16.1054 1.51957 16.2929 1.70711C16.4804 1.89464 16.7348 2 17 2H19C19.7956 2 20.5587 2.31607 21.1213 2.87868C21.6839 3.44129 22 4.20435 22 5V7C22 7.26522 22.1053 7.51957 22.2929 7.70711C22.4804 7.89464 22.7348 8 23 8C23.2652 8 23.5196 7.89464 23.7071 7.70711C23.8946 7.51957 24 7.26522 24 7V5C23.9984 3.6744 23.4711 2.40356 22.5338 1.46622C21.5964 0.528882 20.3256 0.00158786 19 0V0Z" fill="#374957"/>
<path d="M18.707 17.2925L11.121 9.70648C10.5584 9.14407 9.79549 8.82813 9 8.82812C8.20451 8.82813 7.44158 9.14407 6.879 9.70648L4.586 11.9995C4.2109 12.3745 4.00011 12.8831 4 13.4135V15.9995C4 16.7951 4.31607 17.5582 4.87868 18.1208C5.44129 18.6834 6.20435 18.9995 7 18.9995H18C18.1978 18.9994 18.391 18.9408 18.5555 18.8309C18.7199 18.721 18.848 18.5648 18.9237 18.3821C18.9993 18.1994 19.0192 17.9984 18.9806 17.8044C18.942 17.6105 18.8468 17.4323 18.707 17.2925Z" fill="#374957"/>
</g>
<defs>
<clipPath id="clip0_1178_20024">
<rect width="24" height="24" fill="white"/>
</clipPath>
</defs>
</svg>
