<svg width="24" height="24" viewBox="0 0 24 24" fill="none" xmlns="http://www.w3.org/2000/svg">
<path d="M18.0611 9.5247L14.4751 5.9387C13.8083 5.30232 12.9219 4.94727 12.0001 4.94727C11.0783 4.94727 10.192 5.30232 9.52513 5.9387L5.93913 9.5247C5.65786 9.80609 5.49991 10.1877 5.5 10.5856C5.50009 10.9834 5.65823 11.3649 5.93963 11.6462C6.22102 11.9275 6.60262 12.0854 7.00048 12.0853C7.39834 12.0852 7.77986 11.9271 8.06113 11.6457L10.5001 9.2067V18.9997C10.5001 19.3975 10.6582 19.7791 10.9395 20.0604C11.2208 20.3417 11.6023 20.4997 12.0001 20.4997C12.398 20.4997 12.7795 20.3417 13.0608 20.0604C13.3421 19.7791 13.5001 19.3975 13.5001 18.9997V9.2067L15.9391 11.6457C16.0784 11.785 16.2437 11.8956 16.4257 11.971C16.6077 12.0464 16.8028 12.0853 16.9998 12.0853C17.1968 12.0854 17.3919 12.0466 17.5739 11.9713C17.7559 11.8959 17.9213 11.7855 18.0606 11.6462C18.2 11.5069 18.3105 11.3416 18.3859 11.1596C18.4614 10.9776 18.5002 10.7826 18.5003 10.5856C18.5003 10.3886 18.4615 10.1935 18.3862 10.0115C18.3109 9.82943 18.2004 9.66403 18.0611 9.5247Z" fill="#374957"/>
</svg>
