<svg width="24" height="24" viewBox="0 0 24 24" fill="none" xmlns="http://www.w3.org/2000/svg">
<g clip-path="url(#clip0_1178_20121)">
<path d="M18.9 0.000203227H5.1C3.76103 -0.0117955 2.472 0.50795 1.51584 1.44536C0.559682 2.38277 0.0145152 3.66126 0 5.0002L0 8.0002C0 8.26542 0.105357 8.51977 0.292893 8.70731C0.48043 8.89485 0.734784 9.0002 1 9.0002C1.26522 9.0002 1.51957 8.89485 1.70711 8.70731C1.89464 8.51977 2 8.26542 2 8.0002V5.0002C2.01421 4.1916 2.34856 3.42165 2.92971 2.85924C3.51087 2.29683 4.29137 1.9879 5.1 2.0002H18.9C19.7086 1.9879 20.4891 2.29683 21.0703 2.85924C21.6514 3.42165 21.9858 4.1916 22 5.0002V19.0002C21.9858 19.8088 21.6514 20.5788 21.0703 21.1412C20.4891 21.7036 19.7086 22.0125 18.9 22.0002H5.1C4.29137 22.0125 3.51087 21.7036 2.92971 21.1412C2.34856 20.5788 2.01421 19.8088 2 19.0002V16.0002C2 15.735 1.89464 15.4806 1.70711 15.2931C1.51957 15.1056 1.26522 15.0002 1 15.0002C0.734784 15.0002 0.48043 15.1056 0.292893 15.2931C0.105357 15.4806 0 15.735 0 16.0002L0 19.0002C0.0145152 20.3391 0.559682 21.6176 1.51584 22.555C2.472 23.4925 3.76103 24.0122 5.1 24.0002H18.9C20.239 24.0122 21.528 23.4925 22.4842 22.555C23.4403 21.6176 23.9855 20.3391 24 19.0002V5.0002C23.9855 3.66126 23.4403 2.38277 22.4842 1.44536C21.528 0.50795 20.239 -0.0117955 18.9 0.000203227V0.000203227Z" fill="#374957"/>
<path d="M3 11.9994C3 12.2646 3.10536 12.519 3.29289 12.7065C3.48043 12.8941 3.73478 12.9994 4 12.9994L17.188 12.9694L12.865 17.2924C12.7695 17.3847 12.6933 17.495 12.6409 17.617C12.5885 17.739 12.5609 17.8702 12.5597 18.003C12.5586 18.1358 12.5839 18.2675 12.6342 18.3904C12.6845 18.5133 12.7587 18.6249 12.8526 18.7188C12.9465 18.8127 13.0581 18.887 13.181 18.9373C13.3039 18.9875 13.4356 19.0128 13.5684 19.0117C13.7012 19.0105 13.8324 18.9829 13.9544 18.9305C14.0764 18.8781 14.1868 18.8019 14.279 18.7064L18.865 14.1204C19.4274 13.5578 19.7434 12.7949 19.7434 11.9994C19.7434 11.2039 19.4274 10.441 18.865 9.87843L14.281 5.29243C14.0924 5.11027 13.8398 5.00948 13.5776 5.01176C13.3154 5.01403 13.0646 5.1192 12.8792 5.30461C12.6938 5.49002 12.5886 5.74083 12.5863 6.00303C12.584 6.26523 12.6848 6.51783 12.867 6.70643L17.129 10.9694L4 10.9994C3.73478 10.9994 3.48043 11.1048 3.29289 11.2923C3.10536 11.4799 3 11.7342 3 11.9994V11.9994Z" fill="#374957"/>
</g>
<defs>
<clipPath id="clip0_1178_20121">
<rect width="24" height="24" fill="white"/>
</clipPath>
</defs>
</svg>
