<svg width="24" height="24" viewBox="0 0 24 24" fill="none" xmlns="http://www.w3.org/2000/svg">
<path d="M22.4662 8.46489L15.5362 1.53389C14.5975 0.597881 13.3259 0.0722656 12.0002 0.0722656C10.6746 0.0722656 9.403 0.597881 8.46425 1.53389L1.53424 8.46489C0.596889 9.40253 0.0703125 10.6741 0.0703125 11.9999C0.0703125 13.3257 0.596889 14.5973 1.53424 15.5349L8.46425 22.4659C9.40287 23.4021 10.6745 23.9279 12.0002 23.9279C13.326 23.9279 14.5976 23.4021 15.5362 22.4659L22.4662 15.5349C23.4036 14.5973 23.9302 13.3257 23.9302 11.9999C23.9302 10.6741 23.4036 9.40253 22.4662 8.46489V8.46489Z" fill="#374957"/>
</svg>
