<svg width="24" height="24" viewBox="0 0 24 24" fill="none" xmlns="http://www.w3.org/2000/svg">
<g clip-path="url(#clip0_1178_20223)">
<path d="M10.0002 20C12.3071 20.0028 14.5434 19.2047 16.3272 17.742L22.2932 23.707C22.4818 23.8892 22.7344 23.99 22.9966 23.9877C23.2588 23.9854 23.5096 23.8802 23.695 23.6948C23.8804 23.5094 23.9856 23.2586 23.9879 22.9964C23.9902 22.7342 23.8894 22.4816 23.7072 22.293L17.7412 16.328C19.1781 14.5698 19.9738 12.375 19.9975 10.1044C20.0212 7.83391 19.2715 5.62292 17.8717 3.8351C16.4718 2.04728 14.5052 0.789087 12.2953 0.267458C10.0854 -0.254171 7.76376 -0.00817549 5.71223 0.964985C3.66069 1.93815 2.00143 3.58052 1.00734 5.622C0.0132473 7.66347 -0.25648 9.98248 0.24252 12.1976C0.74152 14.4128 1.97953 16.3921 3.75294 17.8102C5.52635 19.2282 7.72956 20.0005 10.0002 20ZM7.00021 9.00001H9.00021V7.00001C9.00021 6.73479 9.10557 6.48044 9.2931 6.2929C9.48064 6.10537 9.73499 6.00001 10.0002 6.00001C10.2654 6.00001 10.5198 6.10537 10.7073 6.2929C10.8949 6.48044 11.0002 6.73479 11.0002 7.00001V9.00001H13.0002C13.2654 9.00001 13.5198 9.10537 13.7073 9.2929C13.8949 9.48044 14.0002 9.73479 14.0002 10C14.0002 10.2652 13.8949 10.5196 13.7073 10.7071C13.5198 10.8947 13.2654 11 13.0002 11H11.0002V13C11.0002 13.2652 10.8949 13.5196 10.7073 13.7071C10.5198 13.8947 10.2654 14 10.0002 14C9.73499 14 9.48064 13.8947 9.2931 13.7071C9.10557 13.5196 9.00021 13.2652 9.00021 13V11H7.00021C6.73499 11 6.48064 10.8947 6.2931 10.7071C6.10557 10.5196 6.00021 10.2652 6.00021 10C6.00021 9.73479 6.10557 9.48044 6.2931 9.2929C6.48064 9.10537 6.73499 9.00001 7.00021 9.00001Z" fill="#374957"/>
</g>
<defs>
<clipPath id="clip0_1178_20223">
<rect width="24" height="24" fill="white"/>
</clipPath>
</defs>
</svg>
