<svg width="24" height="24" viewBox="0 0 24 24" fill="none" xmlns="http://www.w3.org/2000/svg">
<g clip-path="url(#clip0_1178_20055)">
<path d="M24 13.5C24 13.8283 23.9353 14.1534 23.8097 14.4567C23.6841 14.7601 23.4999 15.0356 23.2678 15.2678C23.0356 15.4999 22.76 15.6841 22.4567 15.8097C22.1534 15.9354 21.8283 16 21.5 16H17.464L13.238 22.487C12.9779 22.9484 12.5993 23.3319 12.1413 23.5979C11.6833 23.8639 11.1626 24.0027 10.633 24C10.2081 24.0001 9.78943 23.8973 9.41295 23.7002C9.03648 23.5031 8.7134 23.2177 8.47137 22.8684C8.22934 22.5191 8.07558 22.1164 8.02327 21.6947C7.97096 21.273 8.02165 20.8449 8.171 20.447L10.019 16H6C5.29487 16.0001 4.60226 15.8137 3.99236 15.4599C3.38245 15.106 2.87692 14.5972 2.527 13.985L0.200002 10.16C0.100572 9.99492 0.035227 9.81156 0.00782364 9.62078C-0.0195797 9.43 -0.00848607 9.23566 0.0404498 9.04924C0.0893857 8.86282 0.175172 8.68809 0.292745 8.53536C0.410319 8.38264 0.557296 8.25502 0.725002 8.16003C0.991132 8.02049 1.29484 7.9695 1.59195 8.01446C1.88906 8.05942 2.16407 8.198 2.377 8.41003L3.794 9.82803C4.54397 10.5782 5.56122 10.9998 6.622 11H21.5C21.8283 11 22.1534 11.0647 22.4567 11.1903C22.76 11.316 23.0356 11.5001 23.2678 11.7323C23.4999 11.9644 23.6841 12.24 23.8097 12.5433C23.9353 12.8466 24 13.1717 24 13.5V13.5ZM17.731 9.00003L13.231 1.51303C12.9712 1.05204 12.5931 0.668756 12.1357 0.402775C11.6783 0.136793 11.1581 -0.00224375 10.629 2.73842e-05C10.2041 0.000143073 9.78564 0.103184 9.40929 0.300335C9.03295 0.497486 8.70997 0.782876 8.46799 1.13209C8.22601 1.4813 8.07223 1.88394 8.01981 2.30555C7.96739 2.72716 8.0179 3.15519 8.167 3.55303L10.285 9.00003H17.731Z" fill="#374957"/>
</g>
<defs>
<clipPath id="clip0_1178_20055">
<rect width="24" height="24" fill="white"/>
</clipPath>
</defs>
</svg>
