<svg width="24" height="24" viewBox="0 0 24 24" fill="none" xmlns="http://www.w3.org/2000/svg">
<path d="M20.44 16.854L18.959 14.633C19.2015 14.4721 19.41 14.2649 19.5724 14.0234C19.7348 13.7819 19.848 13.5107 19.9055 13.2253C19.963 12.94 19.9636 12.6461 19.9074 12.3605C19.8513 12.075 19.7393 11.8033 19.578 11.561L17.487 8.42598C17.6701 8.25926 17.8242 8.06326 17.943 7.84599C18.1331 7.49712 18.2256 7.10346 18.2108 6.70645C18.196 6.30944 18.0745 5.92376 17.859 5.58999C17.834 5.55199 13.678 0.698994 13.678 0.698994C13.453 0.476118 13.1858 0.300381 12.8921 0.182077C12.5983 0.063774 12.2839 0.00528369 11.9673 0.0100334C11.6506 0.014783 11.3381 0.0826771 11.048 0.209738C10.758 0.336799 10.4962 0.520471 10.278 0.749994C10.278 0.749994 6.15198 5.54999 6.12798 5.58199C5.84052 6.02466 5.72082 6.55554 5.79051 7.07874C5.86019 7.60195 6.11467 8.08298 6.50798 8.43498L4.42198 11.561C4.26067 11.8033 4.14871 12.075 4.09252 12.3605C4.03632 12.6461 4.03699 12.94 4.09448 13.2253C4.15198 13.5107 4.26517 13.7819 4.42758 14.0234C4.58999 14.2649 4.79843 14.4721 5.04098 14.633L3.55998 16.854C3.22768 17.3522 3.03684 17.9313 3.0078 18.5295C2.97876 19.1277 3.11261 19.7226 3.39509 20.2507C3.67756 20.7788 4.09807 21.2203 4.61176 21.5282C5.12546 21.8361 5.71308 21.9988 6.31198 21.999H11V22.999C11 23.2642 11.1053 23.5185 11.2929 23.7061C11.4804 23.8936 11.7348 23.999 12 23.999C12.2652 23.999 12.5196 23.8936 12.7071 23.7061C12.8946 23.5185 13 23.2642 13 22.999V21.999H17.687C18.286 21.999 18.8737 21.8364 19.3876 21.5286C19.9014 21.2208 20.3221 20.7792 20.6046 20.2511C20.8872 19.723 21.0212 19.1281 20.9922 18.5298C20.9632 17.9315 20.7723 17.3523 20.44 16.854V16.854ZM12 3.99899C12.1978 3.99899 12.3911 4.05764 12.5556 4.16752C12.72 4.2774 12.8482 4.43358 12.9239 4.61631C12.9996 4.79903 13.0194 5.0001 12.9808 5.19408C12.9422 5.38806 12.8469 5.56624 12.7071 5.7061C12.5672 5.84595 12.3891 5.94119 12.1951 5.97977C12.0011 6.01836 11.8 5.99856 11.6173 5.92287C11.4346 5.84718 11.2784 5.71901 11.1685 5.55456C11.0586 5.39011 11 5.19677 11 4.99899C11 4.73377 11.1053 4.47942 11.2929 4.29188C11.4804 4.10435 11.7348 3.99899 12 3.99899V3.99899ZM7.99998 18.999C7.8022 18.999 7.60886 18.9403 7.44441 18.8304C7.27996 18.7206 7.15179 18.5644 7.0761 18.3817C7.00042 18.1989 6.98061 17.9979 7.0192 17.8039C7.05778 17.6099 7.15303 17.4317 7.29288 17.2919C7.43273 17.152 7.61091 17.0568 7.80489 17.0182C7.99887 16.9796 8.19994 16.9994 8.38267 17.0751C8.56539 17.1508 8.72157 17.279 8.83145 17.4434C8.94134 17.6079 8.99998 17.8012 8.99998 17.999C8.99998 18.2642 8.89463 18.5185 8.70709 18.7061C8.51955 18.8936 8.2652 18.999 7.99998 18.999V18.999ZM7.99998 13.999C7.8022 13.999 7.60886 13.9403 7.44441 13.8304C7.27996 13.7206 7.15179 13.5644 7.0761 13.3817C7.00042 13.1989 6.98061 12.9979 7.0192 12.8039C7.05778 12.6099 7.15303 12.4317 7.29288 12.2919C7.43273 12.152 7.61091 12.0568 7.80489 12.0182C7.99887 11.9796 8.19994 11.9994 8.38267 12.0751C8.56539 12.1508 8.72157 12.279 8.83145 12.4434C8.94134 12.6079 8.99998 12.8012 8.99998 12.999C8.99998 13.2642 8.89463 13.5185 8.70709 13.7061C8.51955 13.8936 8.2652 13.999 7.99998 13.999V13.999ZM12 9.99898C11.8022 9.99898 11.6089 9.94033 11.4444 9.83045C11.28 9.72057 11.1518 9.56439 11.0761 9.38167C11.0004 9.19894 10.9806 8.99787 11.0192 8.80389C11.0578 8.60991 11.153 8.43173 11.2929 8.29188C11.4327 8.15203 11.6109 8.05679 11.8049 8.0182C11.9989 7.97961 12.1999 7.99942 12.3827 8.07511C12.5654 8.15079 12.7216 8.27897 12.8315 8.44341C12.9413 8.60786 13 8.8012 13 8.99898C13 9.2642 12.8946 9.51855 12.7071 9.70609C12.5196 9.89363 12.2652 9.99898 12 9.99898ZM16 11.999C15.8022 11.999 15.6089 11.9403 15.4444 11.8305C15.28 11.7206 15.1518 11.5644 15.0761 11.3817C15.0004 11.1989 14.9806 10.9979 15.0192 10.8039C15.0578 10.6099 15.153 10.4317 15.2929 10.2919C15.4327 10.152 15.6109 10.0568 15.8049 10.0182C15.9989 9.97961 16.1999 9.99942 16.3827 10.0751C16.5654 10.1508 16.7216 10.279 16.8315 10.4434C16.9413 10.6079 17 10.8012 17 10.999C17 11.2642 16.8946 11.5186 16.7071 11.7061C16.5196 11.8936 16.2652 11.999 16 11.999ZM16 17.999C15.8022 17.999 15.6089 17.9403 15.4444 17.8304C15.28 17.7206 15.1518 17.5644 15.0761 17.3817C15.0004 17.1989 14.9806 16.9979 15.0192 16.8039C15.0578 16.6099 15.153 16.4317 15.2929 16.2919C15.4327 16.152 15.6109 16.0568 15.8049 16.0182C15.9989 15.9796 16.1999 15.9994 16.3827 16.0751C16.5654 16.1508 16.7216 16.279 16.8315 16.4434C16.9413 16.6079 17 16.8012 17 16.999C17 17.2642 16.8946 17.5185 16.7071 17.7061C16.5196 17.8936 16.2652 17.999 16 17.999ZM12 15.999C11.8022 15.999 11.6089 15.9403 11.4444 15.8304C11.28 15.7206 11.1518 15.5644 11.0761 15.3817C11.0004 15.1989 10.9806 14.9979 11.0192 14.8039C11.0578 14.6099 11.153 14.4317 11.2929 14.2919C11.4327 14.152 11.6109 14.0568 11.8049 14.0182C11.9989 13.9796 12.1999 13.9994 12.3827 14.0751C12.5654 14.1508 12.7216 14.279 12.8315 14.4434C12.9413 14.6079 13 14.8012 13 14.999C13 15.2642 12.8946 15.5185 12.7071 15.7061C12.5196 15.8936 12.2652 15.999 12 15.999Z" fill="#374957"/>
</svg>
