<svg width="24" height="24" viewBox="0 0 24 24" fill="none" xmlns="http://www.w3.org/2000/svg">
<g clip-path="url(#clip0_1178_19776)">
<path d="M20.9997 7.00041C20.2041 7.00041 19.441 7.31648 18.8784 7.87909C18.3158 8.44169 17.9997 9.20476 17.9997 10.0004C17.9997 10.7961 18.3158 11.5591 18.8784 12.1217C19.441 12.6843 20.2041 13.0004 20.9997 13.0004C21.2109 12.9999 21.4215 12.9768 21.6277 12.9314C21.0745 15.1852 19.8895 17.2343 18.212 18.838C16.5345 20.4416 14.4341 21.5332 12.1577 21.9844C12.0183 22.0103 11.8749 22.0046 11.738 21.9678C11.6011 21.9309 11.4743 21.8638 11.3667 21.7714C11.252 21.6761 11.1596 21.5568 11.0962 21.4218C11.0328 21.2868 10.9998 21.1395 10.9997 20.9904V19.9294C12.6638 19.7622 14.2594 19.1802 15.6404 18.2368C17.0214 17.2934 18.1438 16.0187 18.9047 14.5294C18.0379 14.1324 17.3032 13.4949 16.7882 12.6925C16.2732 11.8902 15.9994 10.9568 15.9994 10.0034C15.9994 9.04998 16.2732 8.11661 16.7882 7.31427C17.3032 6.51193 18.0379 5.87437 18.9047 5.47741C18.1196 3.92834 16.9447 2.61042 15.4955 1.65342C14.0463 0.696411 12.3729 0.133303 10.64 0.0195316C8.90707 -0.0942401 7.17439 0.245247 5.61253 1.00457C4.05067 1.76389 2.71349 2.91687 1.73262 4.35C0.751749 5.78313 0.161012 7.447 0.0185634 9.1778C-0.123885 10.9086 0.186867 12.6467 0.920227 14.2209C1.65359 15.7951 2.78427 17.1512 4.20096 18.1557C5.61766 19.1601 7.27151 19.7783 8.99972 19.9494V20.9904C8.99963 21.4324 9.09678 21.869 9.28429 22.2692C9.4718 22.6695 9.74507 23.0236 10.0847 23.3064C10.4173 23.5866 10.8076 23.7898 11.2279 23.9015C11.6482 24.0132 12.0879 24.0306 12.5157 23.9524C15.746 23.3094 18.6544 21.5688 20.7475 19.0258C22.8407 16.4828 23.9897 13.294 23.9997 10.0004C23.9997 9.20476 23.6837 8.44169 23.121 7.87909C22.5584 7.31648 21.7954 7.00041 20.9997 7.00041V7.00041ZM9.99972 8.00041C10.3953 8.00041 10.782 8.1177 11.1109 8.33747C11.4398 8.55723 11.6961 8.86959 11.8475 9.23504C11.9989 9.60049 12.0385 10.0026 11.9613 10.3906C11.8841 10.7785 11.6936 11.1349 11.4139 11.4146C11.1342 11.6943 10.7779 11.8848 10.3899 11.962C10.0019 12.0391 9.59981 11.9995 9.23435 11.8482C8.8689 11.6968 8.55654 11.4404 8.33678 11.1115C8.11702 10.7826 7.99972 10.396 7.99972 10.0004C7.99972 9.46997 8.21043 8.96126 8.58551 8.58619C8.96058 8.21112 9.46929 8.00041 9.99972 8.00041V8.00041Z" fill="#374957"/>
</g>
<defs>
<clipPath id="clip0_1178_19776">
<rect width="24" height="24" fill="white"/>
</clipPath>
</defs>
</svg>
