<svg width="24" height="24" viewBox="0 0 24 24" fill="none" xmlns="http://www.w3.org/2000/svg">
<path d="M6.41385 15.5858H17.5858C17.7836 15.5857 17.9769 15.5271 18.1413 15.4172C18.3057 15.3073 18.4339 15.1511 18.5095 14.9684C18.5852 14.7857 18.605 14.5847 18.5664 14.3907C18.5279 14.1968 18.4327 14.0186 18.2928 13.8788L12.7068 8.29279C12.5193 8.10532 12.265 8 11.9998 8C11.7347 8 11.4804 8.10532 11.2928 8.29279L5.70685 13.8788C5.56704 14.0186 5.47183 14.1968 5.43327 14.3907C5.3947 14.5847 5.4145 14.7857 5.49017 14.9684C5.56584 15.1511 5.69398 15.3073 5.85839 15.4172C6.0228 15.5271 6.2161 15.5857 6.41385 15.5858Z" fill="#374957"/>
</svg>
