<svg width="24" height="24" viewBox="0 0 24 24" fill="none" xmlns="http://www.w3.org/2000/svg">
<g clip-path="url(#clip0_1178_20176)">
<path d="M14.181 0.208459C14.0368 0.181922 13.8885 0.187416 13.7467 0.224551C13.6049 0.261686 13.4729 0.329554 13.3603 0.423348C13.2476 0.517141 13.1569 0.634566 13.0946 0.767304C13.0324 0.900042 13.0001 1.04485 13 1.19146V4.07046C11.8707 3.92117 10.7225 4.01477 9.63234 4.34501C8.54214 4.67524 7.53503 5.23449 6.67839 5.98533C5.82175 6.73618 5.13534 7.66131 4.66508 8.69883C4.19482 9.73635 3.95155 10.8623 3.95155 12.0015C3.95155 13.1406 4.19482 14.2666 4.66508 15.3041C5.13534 16.3416 5.82175 17.2667 6.67839 18.0176C7.53503 18.7684 8.54214 19.3277 9.63234 19.6579C10.7225 19.9881 11.8707 20.0817 13 19.9325V22.8115C13.0001 22.9581 13.0324 23.1029 13.0946 23.2356C13.1569 23.3684 13.2476 23.4858 13.3603 23.5796C13.4729 23.6734 13.6049 23.7412 13.7467 23.7784C13.8885 23.8155 14.0368 23.821 14.181 23.7945C16.9385 23.287 19.431 21.8294 21.2252 19.6749C23.0194 17.5204 24.0019 14.8052 24.0019 12.0015C24.0019 9.19768 23.0194 6.48255 21.2252 4.32804C19.431 2.17353 16.9385 0.715874 14.181 0.208459V0.208459ZM13 13.7245V16.0015C13 16.2667 12.8946 16.521 12.7071 16.7086C12.5196 16.8961 12.2652 17.0015 12 17.0015C11.7348 17.0015 11.4804 16.8961 11.2929 16.7086C11.1054 16.521 11 16.2667 11 16.0015V13.7245C10.6961 13.551 10.4435 13.3002 10.2678 12.9976C10.0922 12.695 9.99963 12.3514 9.99963 12.0015C9.99963 11.6516 10.0922 11.3079 10.2678 11.0053C10.4435 10.7027 10.6961 10.4519 11 10.2785V7.00146C11 6.73624 11.1054 6.48189 11.2929 6.29435C11.4804 6.10682 11.7348 6.00146 12 6.00146C12.2652 6.00146 12.5196 6.10682 12.7071 6.29435C12.8946 6.48189 13 6.73624 13 7.00146V10.2785C13.3039 10.4519 13.5565 10.7027 13.7321 11.0053C13.9078 11.3079 14.0004 11.6516 14.0004 12.0015C14.0004 12.3514 13.9078 12.695 13.7321 12.9976C13.5565 13.3002 13.3039 13.551 13 13.7245V13.7245ZM2.986 4.96946C3.18011 5.00637 3.35894 5.09995 3.49991 5.2384C3.64089 5.37685 3.73769 5.55397 3.77809 5.74738C3.81849 5.9408 3.80069 6.14185 3.72693 6.32516C3.65317 6.50847 3.52676 6.66582 3.36365 6.77734C3.20054 6.88887 3.00805 6.94958 2.81047 6.9518C2.61289 6.95402 2.41908 6.89766 2.25351 6.78983C2.08793 6.68201 1.95801 6.52754 1.88014 6.34594C1.80228 6.16434 1.77995 5.96374 1.816 5.76946C1.84002 5.63997 1.88938 5.51651 1.96125 5.40615C2.03312 5.29579 2.12608 5.20072 2.23479 5.12638C2.3435 5.05205 2.46583 4.99992 2.59474 4.97299C2.72365 4.94606 2.85662 4.94486 2.986 4.96946ZM1.386 8.95646C1.58011 8.99337 1.75894 9.08695 1.89991 9.2254C2.04089 9.36385 2.13769 9.54097 2.17809 9.73438C2.21849 9.9278 2.20069 10.1289 2.12693 10.3122C2.05317 10.4955 1.92676 10.6528 1.76365 10.7643C1.60054 10.8759 1.40805 10.9366 1.21047 10.9388C1.01289 10.941 0.819082 10.8847 0.653505 10.7768C0.487929 10.669 0.358008 10.5145 0.280142 10.3329C0.202275 10.1513 0.179954 9.95074 0.215995 9.75646C0.240035 9.62728 0.289299 9.5041 0.360971 9.39396C0.432644 9.28383 0.525319 9.1889 0.633699 9.11461C0.74208 9.04031 0.86404 8.9881 0.992609 8.96096C1.12118 8.93383 1.25383 8.9323 1.383 8.95646H1.386ZM10.128 21.8245C10.3223 21.8616 10.5012 21.9556 10.642 22.0944C10.7829 22.2332 10.8795 22.4107 10.9195 22.6044C10.9595 22.7981 10.9411 22.9994 10.8668 23.1826C10.7924 23.3659 10.6653 23.523 10.5017 23.6341C10.338 23.7452 10.1451 23.8052 9.94728 23.8066C9.74949 23.808 9.55572 23.7508 9.39048 23.6421C9.22524 23.5333 9.09596 23.3781 9.01898 23.1959C8.94199 23.0137 8.92077 22.8127 8.958 22.6185C9.00793 22.3587 9.15877 22.1292 9.3775 21.9804C9.59623 21.8316 9.86501 21.7755 10.125 21.8245H10.128ZM6.008 1.90146C6.20211 1.93836 6.38094 2.03195 6.52191 2.1704C6.66289 2.30885 6.75969 2.48597 6.80009 2.67938C6.84049 2.8728 6.82269 3.07385 6.74893 3.25716C6.67517 3.44047 6.54876 3.59782 6.38565 3.70934C6.22254 3.82087 6.03005 3.88158 5.83247 3.8838C5.63489 3.88602 5.44108 3.82966 5.27551 3.72183C5.10993 3.614 4.98001 3.45954 4.90214 3.27794C4.82428 3.09634 4.80195 2.89574 4.838 2.70146C4.86202 2.57197 4.91138 2.44851 4.98325 2.33815C5.05512 2.22779 5.14808 2.13272 5.25679 2.05838C5.3655 1.98405 5.48783 1.93192 5.61674 1.90499C5.74565 1.87806 5.87862 1.87686 6.008 1.90146V1.90146ZM10.182 0.210459C10.3758 0.250818 10.5533 0.347789 10.6919 0.489091C10.8306 0.630392 10.9241 0.809665 10.9608 1.0042C10.9975 1.19873 10.9756 1.39978 10.8979 1.58186C10.8202 1.76394 10.6903 1.91887 10.5245 2.02703C10.3587 2.13518 10.1645 2.19169 9.96653 2.18939C9.76858 2.18709 9.57577 2.1261 9.41251 2.01413C9.24926 1.90216 9.12291 1.74426 9.04948 1.56042C8.97604 1.37659 8.95882 1.17509 9 0.981459C9.05501 0.722758 9.21027 0.496386 9.43179 0.351889C9.65332 0.207391 9.92306 0.156538 10.182 0.210459V0.210459ZM0.233995 14.0475C0.270901 13.8533 0.364486 13.6745 0.502937 13.5335C0.641389 13.3926 0.818501 13.2958 1.01192 13.2554C1.20534 13.215 1.40639 13.2328 1.58969 13.3065C1.773 13.3803 1.93035 13.5067 2.04188 13.6698C2.15341 13.8329 2.21411 14.0254 2.21633 14.223C2.21856 14.4206 2.1622 14.6144 2.05437 14.78C1.94654 14.9455 1.79208 15.0754 1.61047 15.1533C1.42887 15.2312 1.22827 15.2535 1.034 15.2175C0.904508 15.1934 0.781042 15.1441 0.670684 15.0722C0.560326 15.0003 0.465251 14.9074 0.390918 14.7987C0.316584 14.69 0.264456 14.5676 0.237527 14.4387C0.210598 14.3098 0.209398 14.1768 0.233995 14.0475V14.0475ZM1.915 18.0105C1.9519 17.8163 2.04549 17.6375 2.18394 17.4965C2.32239 17.3556 2.4995 17.2588 2.69292 17.2184C2.88633 17.178 3.08739 17.1958 3.27069 17.2695C3.454 17.3433 3.61135 17.4697 3.72288 17.6328C3.8344 17.7959 3.89511 17.9884 3.89733 18.186C3.89956 18.3836 3.8432 18.5774 3.73537 18.743C3.62754 18.9085 3.47308 19.0384 3.29147 19.1163C3.10987 19.1942 2.90927 19.2165 2.715 19.1805C2.58551 19.1564 2.46204 19.1071 2.35168 19.0352C2.24133 18.9633 2.14625 18.8704 2.07192 18.7617C1.99758 18.653 1.94546 18.5306 1.91853 18.4017C1.8916 18.2728 1.8904 18.1398 1.915 18.0105V18.0105ZM4.967 21.0015C5.0039 20.8073 5.09749 20.6285 5.23594 20.4875C5.37439 20.3466 5.5515 20.2498 5.74492 20.2094C5.93833 20.169 6.13939 20.1868 6.32269 20.2605C6.506 20.3343 6.66335 20.4607 6.77488 20.6238C6.8864 20.7869 6.94711 20.9794 6.94933 21.177C6.95156 21.3746 6.8952 21.5684 6.78737 21.734C6.67954 21.8995 6.52508 22.0294 6.34347 22.1073C6.16187 22.1852 5.96127 22.2075 5.767 22.1715C5.63751 22.1474 5.51404 22.0981 5.40368 22.0262C5.29333 21.9543 5.19825 21.8614 5.12392 21.7527C5.04958 21.644 4.99746 21.5216 4.97053 21.3927C4.9436 21.2638 4.9424 21.1308 4.967 21.0015V21.0015Z" fill="#374957"/>
</g>
<defs>
<clipPath id="clip0_1178_20176">
<rect width="24" height="24" fill="white"/>
</clipPath>
</defs>
</svg>
