<svg width="24" height="24" viewBox="0 0 24 24" fill="none" xmlns="http://www.w3.org/2000/svg">
<g clip-path="url(#clip0_1178_20193)">
<path d="M19.9481 22.9999H4.05207C3.36103 23.0039 2.68056 22.8302 2.07604 22.4954C1.47151 22.1605 0.963252 21.6759 0.600072 21.0879C0.241383 20.5141 0.0362524 19.8577 0.00438072 19.1817C-0.027491 18.5058 0.114966 17.833 0.418072 17.2279L8.38007 3.21193C8.7227 2.5437 9.2436 1.98336 9.88509 1.59296C10.5266 1.20255 11.2636 0.997334 12.0145 1.00003C12.7655 1.00272 13.501 1.21322 14.1397 1.60821C14.7784 2.0032 15.2952 2.56726 15.6331 3.23793L23.5551 17.1789C23.8691 17.7884 24.0198 18.4689 23.9924 19.154C23.9651 19.8391 23.7607 20.5054 23.3991 21.0879C23.036 21.6757 22.5279 22.1603 21.9235 22.4951C21.3192 22.8299 20.6389 23.0038 19.9481 22.9999V22.9999Z" fill="#374957"/>
</g>
<defs>
<clipPath id="clip0_1178_20193">
<rect width="24" height="24" fill="white"/>
</clipPath>
</defs>
</svg>
