<svg width="24" height="24" viewBox="0 0 24 24" fill="none" xmlns="http://www.w3.org/2000/svg">
<path d="M20.8001 12.0004C25.7391 9.01144 21.5731 1.54744 16.4001 4.36844C16.2271 -1.40556 7.77108 -1.40256 7.60008 4.36844C2.46708 1.55144 -1.76192 8.98644 3.20008 11.9444C-1.74892 14.9794 2.40008 22.1554 7.60008 19.6364C7.78008 25.4064 16.2221 25.4014 16.4001 19.6364C21.5621 22.1534 25.7721 15.0004 20.8001 12.0004ZM12.0001 16.0004C10.9392 16.0004 9.9218 15.579 9.17166 14.8289C8.42151 14.0787 8.00008 13.0613 8.00008 12.0004C8.00008 10.9396 8.42151 9.92216 9.17166 9.17201C9.9218 8.42186 10.9392 8.00044 12.0001 8.00044C13.061 8.00044 14.0784 8.42186 14.8285 9.17201C15.5787 9.92216 16.0001 10.9396 16.0001 12.0004C16.0001 13.0613 15.5787 14.0787 14.8285 14.8289C14.0784 15.579 13.061 16.0004 12.0001 16.0004ZM14.0001 12.0004C14.0001 12.5309 13.7894 13.0396 13.4143 13.4147C13.0392 13.7897 12.5305 14.0004 12.0001 14.0004C11.4697 14.0004 10.9609 13.7897 10.5859 13.4147C10.2108 13.0396 10.0001 12.5309 10.0001 12.0004C10.0001 11.47 10.2108 10.9613 10.5859 10.5862C10.9609 10.2112 11.4697 10.0004 12.0001 10.0004C12.5305 10.0004 13.0392 10.2112 13.4143 10.5862C13.7894 10.9613 14.0001 11.47 14.0001 12.0004V12.0004Z" fill="#374957"/>
</svg>
