<svg width="24" height="24" viewBox="0 0 24 24" fill="none" xmlns="http://www.w3.org/2000/svg">
<g clip-path="url(#clip0_1178_19959)">
<path d="M17.5 1.91602C16.3739 1.93353 15.2724 2.24787 14.3067 2.82729C13.341 3.4067 12.5453 4.23068 12 5.21602C11.4546 4.23068 10.6589 3.4067 9.6932 2.82729C8.7275 2.24787 7.62601 1.93353 6.49996 1.91602C4.7049 1.99401 3.01366 2.77927 1.79574 4.10025C0.577818 5.42123 -0.0677922 7.17054 -4.17093e-05 8.96602C-4.17093e-05 13.513 4.78596 18.479 8.79996 21.846C9.69618 22.5991 10.8293 23.012 12 23.012C13.1706 23.012 14.3037 22.5991 15.2 21.846C19.214 18.479 24 13.513 24 8.96602C24.0677 7.17054 23.4221 5.42123 22.2042 4.10025C20.9863 2.77927 19.295 1.99401 17.5 1.91602Z" fill="#374957"/>
</g>
<defs>
<clipPath id="clip0_1178_19959">
<rect width="24" height="24" fill="white"/>
</clipPath>
</defs>
</svg>
