<svg width="24" height="24" viewBox="0 0 24 24" fill="none" xmlns="http://www.w3.org/2000/svg">
<g clip-path="url(#clip0_1178_20199)">
<path d="M14.9999 6.99963H10.1699V5.41363C10.1698 5.01813 10.0525 4.63154 9.83272 4.30272C9.61295 3.9739 9.30063 3.71762 8.93523 3.56628C8.56983 3.41494 8.16776 3.37533 7.77986 3.45247C7.39195 3.5296 7.03562 3.72002 6.75592 3.99964L0.875918 9.87863C0.313505 10.4412 -0.00244141 11.2041 -0.00244141 11.9996C-0.00244141 12.7951 0.313505 13.558 0.875918 14.1206L6.75592 19.9996C7.03562 20.2792 7.39195 20.4696 7.77986 20.5468C8.16776 20.6239 8.56983 20.5843 8.93523 20.433C9.30063 20.2816 9.61295 20.0253 9.83272 19.6965C10.0525 19.3677 10.1698 18.9811 10.1699 18.5856V16.9996H15.9999C17.5907 17.0012 19.1159 17.6339 20.2408 18.7587C21.3657 19.8836 21.9983 21.4088 21.9999 22.9996C21.9999 23.2648 22.1053 23.5192 22.2928 23.7067C22.4803 23.8943 22.7347 23.9996 22.9999 23.9996C23.2651 23.9996 23.5195 23.8943 23.707 23.7067C23.8946 23.5192 23.9999 23.2648 23.9999 22.9996V15.9996C23.9973 13.6135 23.0482 11.3258 21.361 9.63859C19.6737 7.95134 17.3861 7.00228 14.9999 6.99963V6.99963Z" fill="#374957"/>
</g>
<defs>
<clipPath id="clip0_1178_20199">
<rect width="24" height="24" fill="white"/>
</clipPath>
</defs>
</svg>
