<svg width="24" height="24" viewBox="0 0 24 24" fill="none" xmlns="http://www.w3.org/2000/svg">
<g clip-path="url(#clip0_1178_19819)">
<path d="M22 18.1842V18.0002C21.9984 16.6746 21.4711 15.4038 20.5338 14.4664C19.5964 13.5291 18.3256 13.0018 17 13.0002H13V11.9102C14.4834 11.6595 15.8185 10.8606 16.7407 9.67195C17.6628 8.48328 18.1048 6.99155 17.979 5.49238C17.8532 3.99321 17.1688 2.59601 16.0614 1.57766C14.954 0.559315 13.5044 -0.00585937 12 -0.00585938C10.4956 -0.00585937 9.04602 0.559315 7.93864 1.57766C6.83125 2.59601 6.14683 3.99321 6.02102 5.49238C5.89521 6.99155 6.33719 8.48328 7.25936 9.67195C8.18154 10.8606 9.51661 11.6595 11 11.9102V13.0002H7.00001C5.67441 13.0018 4.40356 13.5291 3.46623 14.4664C2.52889 15.4038 2.00159 16.6746 2.00001 18.0002V18.1842C1.33279 18.4201 0.770452 18.8843 0.412375 19.4947C0.0542975 20.1051 -0.0764608 20.8225 0.0432105 21.52C0.162882 22.2175 0.525277 22.8502 1.06635 23.3063C1.60741 23.7625 2.29232 24.0127 3.00001 24.0127C3.70769 24.0127 4.3926 23.7625 4.93367 23.3063C5.47474 22.8502 5.83713 22.2175 5.9568 21.52C6.07647 20.8225 5.94572 20.1051 5.58764 19.4947C5.22956 18.8843 4.66722 18.4201 4.00001 18.1842V18.0002C4.00001 17.2046 4.31608 16.4415 4.87869 15.8789C5.4413 15.3163 6.20436 15.0002 7.00001 15.0002H11V18.1842C10.3328 18.4201 9.77045 18.8843 9.41238 19.4947C9.0543 20.1051 8.92354 20.8225 9.04321 21.52C9.16288 22.2175 9.52528 22.8502 10.0663 23.3063C10.6074 23.7625 11.2923 24.0127 12 24.0127C12.7077 24.0127 13.3926 23.7625 13.9337 23.3063C14.4747 22.8502 14.8371 22.2175 14.9568 21.52C15.0765 20.8225 14.9457 20.1051 14.5876 19.4947C14.2296 18.8843 13.6672 18.4201 13 18.1842V15.0002H17C17.7957 15.0002 18.5587 15.3163 19.1213 15.8789C19.6839 16.4415 20 17.2046 20 18.0002V18.1842C19.3328 18.4201 18.7705 18.8843 18.4124 19.4947C18.0543 20.1051 17.9235 20.8225 18.0432 21.52C18.1629 22.2175 18.5253 22.8502 19.0663 23.3063C19.6074 23.7625 20.2923 24.0127 21 24.0127C21.7077 24.0127 22.3926 23.7625 22.9337 23.3063C23.4747 22.8502 23.8371 22.2175 23.9568 21.52C24.0765 20.8225 23.9457 20.1051 23.5876 19.4947C23.2296 18.8843 22.6672 18.4201 22 18.1842Z" fill="#374957"/>
</g>
<defs>
<clipPath id="clip0_1178_19819">
<rect width="24" height="24" fill="white"/>
</clipPath>
</defs>
</svg>
