<svg width="24" height="24" viewBox="0 0 24 24" fill="none" xmlns="http://www.w3.org/2000/svg">
<g clip-path="url(#clip0_1178_19856)">
<path d="M19 24.0005H5C3.6744 23.999 2.40356 23.4717 1.46622 22.5343C0.528882 21.597 0.00158786 20.3261 0 19.0005L0 17.0005C0 16.2049 0.31607 15.4418 0.87868 14.8792C1.44129 14.3166 2.20435 14.0005 3 14.0005H21C21.7956 14.0005 22.5587 14.3166 23.1213 14.8792C23.6839 15.4418 24 16.2049 24 17.0005V19.0005C23.9984 20.3261 23.4711 21.597 22.5338 22.5343C21.5964 23.4717 20.3256 23.999 19 24.0005V24.0005ZM22 12.0005V10.0005C22 9.47011 21.7893 8.96141 21.4142 8.58633C21.0391 8.21126 20.5304 8.00055 20 8.00055H4C3.46957 8.00055 2.96086 8.21126 2.58579 8.58633C2.21071 8.96141 2 9.47011 2 10.0005V12.0005H22ZM18.961 6.00055C18.8623 4.03518 18.3069 2.11987 17.339 0.406546C17.2378 0.269129 17.1029 0.160079 16.9474 0.0898976C16.7918 0.0197161 16.6208 -0.00923339 16.4508 0.00583661C16.2808 0.0209066 16.1176 0.0794885 15.9768 0.175941C15.836 0.272394 15.7224 0.40347 15.647 0.556546C15.35 1.2884 14.8398 1.91403 14.1826 2.35219C13.5255 2.79034 12.7518 3.02077 11.962 3.01355H10C9.01339 2.93864 8.02956 3.19055 7.20036 3.73039C6.37117 4.27024 5.74271 5.068 5.412 6.00055H18.961Z" fill="#374957"/>
</g>
<defs>
<clipPath id="clip0_1178_19856">
<rect width="24" height="24" fill="white"/>
</clipPath>
</defs>
</svg>
