<svg width="24" height="24" viewBox="0 0 24 24" fill="none" xmlns="http://www.w3.org/2000/svg">
<g clip-path="url(#clip0_1178_19915)">
<path d="M21.4499 13.8635L12.7779 22.5355C11.8395 23.4717 10.568 23.9974 9.24242 23.9974C7.91684 23.9974 6.64538 23.4717 5.70692 22.5355L1.46492 18.2925C0.527259 17.3548 0.000488281 16.0831 0.000488281 14.757C0.000488281 13.4309 0.527259 12.1592 1.46492 11.2215L7.36492 5.3215L4.51092 2.4285C4.40852 2.33755 4.32589 2.22654 4.26815 2.10234C4.21042 1.97814 4.17882 1.84341 4.1753 1.7065C4.17178 1.56958 4.19642 1.4334 4.2477 1.3064C4.29898 1.17941 4.3758 1.0643 4.47339 0.968208C4.57099 0.872121 4.68729 0.797106 4.81507 0.747815C4.94285 0.698523 5.0794 0.676005 5.21624 0.681658C5.35308 0.687311 5.48731 0.721013 5.61059 0.780675C5.73387 0.840337 5.84358 0.924688 5.93292 1.0285L14.9029 10.1095L14.9119 10.1225C15.1042 10.2945 15.3558 10.3851 15.6136 10.3752C15.8714 10.3653 16.1153 10.2556 16.2938 10.0694C16.4723 9.88308 16.5714 9.63474 16.5704 9.37675C16.5693 9.11875 16.468 8.87126 16.2879 8.6865L9.07792 1.3865C8.98839 1.17284 8.97581 0.93472 9.04234 0.712817C9.10887 0.490914 9.25038 0.298993 9.44269 0.169838C9.63501 0.0406819 9.8662 -0.0176961 10.0968 0.00467531C10.3274 0.0270467 10.543 0.12878 10.7069 0.292497L23.7069 13.2925C23.8024 13.3847 23.8786 13.4951 23.931 13.6171C23.9834 13.7391 24.011 13.8703 24.0122 14.0031C24.0133 14.1359 23.988 14.2676 23.9377 14.3905C23.8875 14.5133 23.8132 14.625 23.7193 14.7189C23.6254 14.8128 23.5138 14.887 23.3909 14.9373C23.268 14.9876 23.1363 15.0129 23.0035 15.0117C22.8707 15.0106 22.7395 14.983 22.6175 14.9306C22.4955 14.8782 22.3852 14.802 22.2929 14.7065L21.4499 13.8635ZM20.6919 18.4305C19.9609 19.4915 18.9999 20.7245 18.9999 21.4995C18.9999 22.1625 19.2633 22.7984 19.7322 23.2673C20.201 23.7361 20.8369 23.9995 21.4999 23.9995C22.163 23.9995 22.7988 23.7361 23.2677 23.2673C23.7365 22.7984 23.9999 22.1625 23.9999 21.4995C23.9999 20.6505 23.0549 19.4555 22.3269 18.4215C22.2339 18.291 22.1109 18.1847 21.9682 18.1117C21.8255 18.0387 21.6674 18.001 21.5071 18.0019C21.3468 18.0028 21.1891 18.0422 21.0472 18.1168C20.9054 18.1914 20.7835 18.299 20.6919 18.4305V18.4305Z" fill="#374957"/>
</g>
<defs>
<clipPath id="clip0_1178_19915">
<rect width="24" height="24" fill="white"/>
</clipPath>
</defs>
</svg>
