<svg width="24" height="24" viewBox="0 0 24 24" fill="none" xmlns="http://www.w3.org/2000/svg">
<g clip-path="url(#clip0_1178_19942)">
<path d="M5.00007 8.00011C5.00007 6.41786 5.46926 4.87114 6.34831 3.55555C7.22736 2.23995 8.47679 1.21457 9.9386 0.609072C11.4004 0.00357062 13.0089 -0.154856 14.5608 0.153826C16.1126 0.462507 17.5381 1.22443 18.6569 2.34325C19.7757 3.46207 20.5377 4.88754 20.8464 6.43939C21.155 7.99123 20.9966 9.59977 20.3911 11.0616C19.7856 12.5234 18.7602 13.7728 17.4446 14.6519C16.129 15.5309 14.5823 16.0001 13.0001 16.0001C10.8791 15.9977 8.84562 15.1541 7.34585 13.6543C5.84607 12.1546 5.00245 10.1211 5.00007 8.00011V8.00011ZM22.6461 13.3831C22.4273 13.2333 22.1579 13.1765 21.8972 13.2253C21.6366 13.274 21.4059 13.4243 21.2561 13.6431C20.4931 14.7574 19.5124 15.7057 18.373 16.4307C17.2337 17.1556 15.9593 17.6423 14.6267 17.8614C13.2941 18.0804 11.9309 18.0273 10.6194 17.7052C9.30794 17.383 8.07528 16.7986 6.99581 15.9871C5.91633 15.1756 5.01241 14.1539 4.33855 12.9836C3.66469 11.8132 3.23487 10.5185 3.07501 9.17756C2.91514 7.83658 3.02855 6.47712 3.40838 5.18117C3.78822 3.88521 4.42662 2.67962 5.28507 1.63711C5.45401 1.43263 5.53481 1.16941 5.50968 0.905356C5.48455 0.641304 5.35555 0.398051 5.15107 0.229108C4.94659 0.060165 4.68337 -0.0206283 4.41932 0.00450159C4.15527 0.0296315 3.91201 0.158626 3.74307 0.363108C2.34923 2.05241 1.44455 4.09111 1.12713 6.25809C0.809715 8.42506 1.09169 10.6376 1.94247 12.6557C2.79325 14.6738 4.18036 16.4204 5.95335 17.7061C7.72633 18.9918 9.81751 19.7675 12.0001 19.9491V22.0001H8.00007C7.73485 22.0001 7.4805 22.1055 7.29296 22.293C7.10543 22.4805 7.00007 22.7349 7.00007 23.0001C7.00007 23.2653 7.10543 23.5197 7.29296 23.7072C7.4805 23.8948 7.73485 24.0001 8.00007 24.0001H18.0001C18.2653 24.0001 18.5196 23.8948 18.7072 23.7072C18.8947 23.5197 19.0001 23.2653 19.0001 23.0001C19.0001 22.7349 18.8947 22.4805 18.7072 22.293C18.5196 22.1055 18.2653 22.0001 18.0001 22.0001H14.0001V19.9391C15.7752 19.7935 17.4956 19.2543 19.0362 18.3607C20.5769 17.4671 21.8992 16.2416 22.9071 14.7731C22.9812 14.6647 23.0333 14.5428 23.0603 14.4142C23.0873 14.2857 23.0887 14.1531 23.0645 14.024C23.0402 13.895 22.9908 13.7719 22.919 13.662C22.8472 13.552 22.7545 13.4572 22.6461 13.3831V13.3831Z" fill="#374957"/>
</g>
<defs>
<clipPath id="clip0_1178_19942">
<rect width="24" height="24" fill="white"/>
</clipPath>
</defs>
</svg>
