<svg width="24" height="24" viewBox="0 0 24 24" fill="none" xmlns="http://www.w3.org/2000/svg">
<g clip-path="url(#clip0_1178_19902)">
<path d="M20.6783 7.39325C19.7623 8.30925 19.9713 10.2313 20.7033 11.5603C20.9827 12.0871 21.0636 12.6968 20.9313 13.2784C20.7991 13.8599 20.4624 14.3746 19.9826 14.7288C19.5027 15.083 18.9117 15.2532 18.317 15.2083C17.7223 15.1634 17.1635 14.9065 16.7423 14.4843L9.51628 7.25825C9.09658 6.8365 8.84184 6.27836 8.79824 5.68496C8.75464 5.09156 8.92505 4.50217 9.2786 4.0236C9.63214 3.54504 10.1454 3.20895 10.7254 3.07625C11.3055 2.94355 11.9138 3.02302 12.4403 3.30025C13.7693 4.03125 15.6913 4.24125 16.6073 3.32525L19.0863 0.843253C19.6346 0.319566 20.3636 0.0273438 21.1218 0.0273438C21.88 0.0273437 22.609 0.319566 23.1573 0.843253C23.425 1.11072 23.6374 1.42834 23.7823 1.77795C23.9273 2.12756 24.0018 2.5023 24.0018 2.88075C24.0018 3.25921 23.9273 3.63395 23.7823 3.98356C23.6374 4.33316 23.425 4.65078 23.1573 4.91825L20.6783 7.39325ZM1.96927 17.3473C1.47632 17.8448 1.15405 18.486 1.04892 19.1784C0.943781 19.8709 1.06121 20.5788 1.38427 21.2003L0.293275 22.2933C0.105804 22.4808 0.000488281 22.7351 0.000488281 23.0003C0.000488281 23.2654 0.105804 23.5197 0.293275 23.7073C0.480803 23.8947 0.735111 24 1.00027 24C1.26544 24 1.51975 23.8947 1.70727 23.7073L2.80027 22.6163C3.42034 22.9464 4.13038 23.0677 4.8249 22.9622C5.51941 22.8566 6.16133 22.5298 6.65528 22.0303L14.0553 14.6303L9.37328 9.94425L1.96927 17.3473Z" fill="#374957"/>
</g>
<defs>
<clipPath id="clip0_1178_19902">
<rect width="24" height="24" fill="white"/>
</clipPath>
</defs>
</svg>
