<svg width="24" height="24" viewBox="0 0 24 24" fill="none" xmlns="http://www.w3.org/2000/svg">
<g clip-path="url(#clip0_1178_20155)">
<path d="M13 20C13 20.2652 12.8946 20.5196 12.7071 20.7071C12.5196 20.8946 12.2652 21 12 21C11.7348 21 11.4804 20.8946 11.2929 20.7071C11.1054 20.5196 11 20.2652 11 20V19H2C2.00159 20.3256 2.52888 21.5964 3.46622 22.5338C4.40356 23.4711 5.6744 23.9984 7 24H17C18.3256 23.9984 19.5964 23.4711 20.5338 22.5338C21.4711 21.5964 21.9984 20.3256 22 19H13V20Z" fill="#374957"/>
<path d="M17 0H7C5.6744 0.00158786 4.40356 0.528882 3.46622 1.46622C2.52888 2.40356 2.00159 3.6744 2 5V17H22V5C21.9984 3.6744 21.4711 2.40356 20.5338 1.46622C19.5964 0.528882 18.3256 0.00158786 17 0V0Z" fill="#374957"/>
</g>
<defs>
<clipPath id="clip0_1178_20155">
<rect width="24" height="24" fill="white"/>
</clipPath>
</defs>
</svg>
