<svg width="24" height="24" viewBox="0 0 24 24" fill="none" xmlns="http://www.w3.org/2000/svg">
<g clip-path="url(#clip0_1178_20220)">
<path d="M23.9253 18.144C24.0501 18.8622 24.0163 19.599 23.8264 20.3028C23.6364 21.0066 23.2949 21.6604 22.8257 22.2183C22.3565 22.7762 21.771 23.2247 21.1102 23.5325C20.4494 23.8403 19.7293 23.9999 19.0003 24H16.0003C15.7351 24 15.4807 23.8947 15.2932 23.7071C15.1056 23.5196 15.0003 23.2652 15.0003 23V20.41C14.046 20.7926 13.0284 20.9928 12.0003 21C10.9716 20.9895 9.95394 20.786 9.00028 20.4V23C9.00028 23.2652 8.89493 23.5196 8.70739 23.7071C8.51985 23.8947 8.2655 24 8.00028 24H5.00028C4.27131 23.9999 3.5512 23.8403 2.89039 23.5325C2.22958 23.2247 1.64406 22.7762 1.17486 22.2183C0.705658 21.6604 0.364122 21.0066 0.17418 20.3028C-0.0157627 19.599 -0.0495163 18.8622 0.0752836 18.144L0.375284 16.404C0.475042 15.8253 0.745878 15.2898 1.15287 14.8664C1.55986 14.4431 2.08433 14.1514 2.65867 14.0289C3.233 13.9064 3.83085 13.9588 4.37513 14.1793C4.9194 14.3998 5.38514 14.7783 5.71228 15.266C6.97628 17.124 9.40928 19 12.0003 19C15.1303 19 18.2143 16.221 19.1303 13.624C19.2038 13.4288 19.3348 13.2605 19.5061 13.1414C19.6773 13.0223 19.8807 12.958 20.0893 12.957L20.5213 12.964C20.7149 12.9664 20.9071 12.9303 21.0866 12.8577C21.2661 12.7852 21.4295 12.6777 21.5671 12.5415C21.7047 12.4053 21.8139 12.243 21.8882 12.0642C21.9626 11.8855 22.0007 11.6937 22.0003 11.5C21.9999 11.1493 21.8767 10.8098 21.652 10.5405C21.4273 10.2712 21.1153 10.0892 20.7703 10.026C20.5575 9.98743 20.363 9.88091 20.2159 9.72244C20.0688 9.56396 19.977 9.36207 19.9543 9.14703C19.8216 7.88262 19.3881 6.66837 18.6899 5.60588C17.9917 4.5434 17.0492 3.66357 15.9413 3.04003C15.6585 3.92523 15.2806 4.7772 14.8143 5.58103C13.5163 7.42119 11.8229 8.9475 9.85828 10.048C10.1578 10.1216 10.4273 10.2856 10.6302 10.5178C10.8331 10.75 10.9595 11.0391 10.9922 11.3458C11.0249 11.6524 10.9623 11.9616 10.8129 12.2314C10.6635 12.5012 10.4346 12.7184 10.1573 12.8534C9.88009 12.9884 9.56798 13.0347 9.26349 12.9859C8.959 12.9371 8.67693 12.7957 8.45569 12.5809C8.23446 12.3661 8.08481 12.0883 8.02711 11.7854C7.96942 11.4825 8.0065 11.1691 8.13328 10.888C5.8341 11.819 3.34808 12.1958 0.876284 11.988C0.670255 11.9604 0.477953 11.8693 0.326121 11.7273C0.174288 11.5853 0.0704738 11.3996 0.029115 11.1959C-0.0122439 10.9921 0.0109088 10.7806 0.0953531 10.5907C0.179797 10.4007 0.321336 10.2418 0.500284 10.136C1.10482 9.45013 1.55467 8.64218 1.81928 7.76703C3.12428 4.67403 5.10028 2.80073e-05 12.0003 2.80073e-05C14.3547 -0.00554947 16.6351 0.822076 18.4378 2.33639C20.2406 3.85071 21.4494 5.95403 21.8503 8.27403C22.4867 8.54007 23.0302 8.98821 23.4127 9.56216C23.7953 10.1361 23.9997 10.8103 24.0003 11.5C23.9986 12.331 23.6951 13.1331 23.1463 13.757C23.1533 13.783 23.1713 13.804 23.1763 13.832L23.9253 18.144ZM16.0003 11.5C16.0003 11.2034 15.9123 10.9133 15.7475 10.6667C15.5827 10.42 15.3484 10.2277 15.0743 10.1142C14.8002 10.0007 14.4986 9.97097 14.2076 10.0288C13.9167 10.0867 13.6494 10.2296 13.4396 10.4394C13.2298 10.6491 13.087 10.9164 13.0291 11.2074C12.9712 11.4984 13.0009 11.8 13.1145 12.0741C13.228 12.3481 13.4203 12.5824 13.6669 12.7472C13.9136 12.9121 14.2036 13 14.5003 13C14.8981 13 15.2796 12.842 15.5609 12.5607C15.8422 12.2794 16.0003 11.8979 16.0003 11.5Z" fill="#374957"/>
</g>
<defs>
<clipPath id="clip0_1178_20220">
<rect width="24" height="24" fill="white"/>
</clipPath>
</defs>
</svg>
