<svg width="24" height="24" viewBox="0 0 24 24" fill="none" xmlns="http://www.w3.org/2000/svg">
<g clip-path="url(#clip0_1178_19833)">
<path d="M18.3572 7.36174C18.1856 7.30869 18.0299 7.21398 17.9039 7.08607C17.778 6.95816 17.6856 6.80104 17.6352 6.62874C17.106 4.92836 16.0246 3.45314 14.5624 2.43678C13.1001 1.42041 11.3405 0.920999 9.56227 1.01766C7.78409 1.11432 6.08899 1.80151 4.74548 2.9704C3.40198 4.13928 2.48689 5.72302 2.14516 7.47074C1.79361 9.23741 2.07692 11.0715 2.94516 12.6497C1.93379 13.1719 1.11138 13.9978 0.593399 15.0113C0.0754212 16.0249 -0.112101 17.1752 0.0571651 18.3007C0.317816 19.6085 1.01798 20.7879 2.04138 21.6428C3.06478 22.4978 4.34985 22.9769 5.68317 23.0007H14.7832C19.8562 23.0007 23.6342 19.9737 23.9722 15.6387C24.1235 13.8251 23.6487 12.0143 22.627 10.5082C21.6053 9.0021 20.0983 7.8916 18.3572 7.36174V7.36174ZM18.6652 18.7477L17.0792 20.1617C16.8074 20.4308 16.4852 20.6434 16.131 20.7874C15.7767 20.9314 15.3975 21.0039 15.0152 21.0007C14.6186 21.0015 14.2258 20.924 13.8592 20.7727C13.4927 20.6213 13.1596 20.3991 12.8792 20.1187L11.3352 18.7447C11.2371 18.6574 11.1571 18.5516 11.0999 18.4334C11.0427 18.3152 11.0093 18.1868 11.0017 18.0557C10.9864 17.7909 11.0768 17.5309 11.2532 17.3327C11.4295 17.1346 11.6774 17.0147 11.9422 16.9993C12.0733 16.9917 12.2046 17.01 12.3287 17.0531C12.4527 17.0963 12.5671 17.1634 12.6652 17.2507L14.0002 18.4447V11.0007C14.0002 10.7355 14.1055 10.4812 14.2931 10.2936C14.4806 10.1061 14.7349 10.0007 15.0002 10.0007C15.2654 10.0007 15.5197 10.1061 15.7073 10.2936C15.8948 10.4812 16.0002 10.7355 16.0002 11.0007V18.4457L17.3352 17.2537C17.5333 17.0774 17.7933 16.9869 18.0581 17.0023C18.323 17.0177 18.5708 17.1376 18.7472 17.3357C18.9235 17.5339 19.014 17.7939 18.9986 18.0587C18.9832 18.3235 18.8633 18.5714 18.6652 18.7477Z" fill="#374957"/>
</g>
<defs>
<clipPath id="clip0_1178_19833">
<rect width="24" height="24" fill="white"/>
</clipPath>
</defs>
</svg>
