<svg width="24" height="24" viewBox="0 0 24 24" fill="none" xmlns="http://www.w3.org/2000/svg">
<g clip-path="url(#clip0_1178_19944)">
<path d="M12 9.99999C11.315 9.99999 10.651 10.04 10 10.1V17C10 17.2652 9.89464 17.5196 9.70711 17.7071C9.51957 17.8946 9.26522 18 9 18C8.73478 18 8.48043 17.8946 8.29289 17.7071C8.10536 17.5196 8 17.2652 8 17L7.978 8.11499L12.987 6.03899C13.2921 5.88396 13.5523 5.65322 13.7428 5.36886C13.9332 5.08451 14.0475 4.75604 14.0747 4.41488C14.1019 4.07373 14.0411 3.73131 13.8981 3.42037C13.7551 3.10944 13.5347 2.8404 13.258 2.63899C13.226 2.60999 8.9 0.211991 8.9 0.211991C8.59494 0.0582676 8.25558 -0.0147548 7.91429 -0.000115495C7.573 0.0145239 7.24114 0.116337 6.95036 0.295618C6.65958 0.474899 6.41957 0.725672 6.2532 1.02403C6.08684 1.32239 5.99967 1.65838 6 1.99999V10.922C2.392 12.115 0 14.361 0 17C0 20.925 5.271 24 12 24C18.729 24 24 20.925 24 17C24 13.075 18.729 9.99999 12 9.99999ZM16 19C15.6044 19 15.2178 18.8827 14.8889 18.6629C14.56 18.4432 14.3036 18.1308 14.1522 17.7654C14.0009 17.3999 13.9613 16.9978 14.0384 16.6098C14.1156 16.2218 14.3061 15.8655 14.5858 15.5858C14.8655 15.3061 15.2219 15.1156 15.6098 15.0384C15.9978 14.9613 16.3999 15.0009 16.7654 15.1522C17.1308 15.3036 17.4432 15.56 17.6629 15.8889C17.8827 16.2178 18 16.6044 18 17C18 17.5304 17.7893 18.0391 17.4142 18.4142C17.0391 18.7893 16.5304 19 16 19V19Z" fill="#374957"/>
</g>
<defs>
<clipPath id="clip0_1178_19944">
<rect width="24" height="24" fill="white"/>
</clipPath>
</defs>
</svg>
