<svg width="24" height="24" viewBox="0 0 24 24" fill="none" xmlns="http://www.w3.org/2000/svg">
<path d="M7.38991 3.06746C7.77909 2.16798 8.42291 1.40199 9.24204 0.863884C10.0612 0.325778 11.0198 0.0390625 11.9999 0.0390625C12.98 0.0390625 13.9386 0.325778 14.7578 0.863884C15.5769 1.40199 16.2207 2.16798 16.6099 3.06746C15.6704 3.19818 14.7709 3.53295 13.9745 4.04827C13.1781 4.5636 12.5041 5.24698 11.9999 6.05046C11.4949 5.24767 10.8208 4.5648 10.0245 4.04957C9.22827 3.53434 8.32913 3.19917 7.38991 3.06746V3.06746ZM10.9999 9.49946C10.7539 3.21046 1.53291 3.75646 2.03491 10.0235C4.90675 10.571 7.81833 10.8844 10.7409 10.9605C10.9088 10.4915 10.9964 9.99757 10.9999 9.49946V9.49946ZM17.4999 4.99946C16.7845 5.00188 16.08 5.17483 15.4448 5.50396C14.8096 5.8331 14.262 6.30894 13.8475 6.89202C13.433 7.47509 13.1634 8.1486 13.0612 8.85667C12.9591 9.56474 13.0272 10.287 13.2599 10.9635C16.1825 10.8947 19.0943 10.5823 21.9649 10.0295C22.0388 9.39869 21.9784 8.75943 21.7879 8.1536C21.5974 7.54778 21.2809 6.98907 20.8593 6.51411C20.4377 6.03916 19.9205 5.6587 19.3415 5.39766C18.7626 5.13663 18.135 5.00093 17.4999 4.99946V4.99946ZM2.73591 12.1895C2.74991 12.2185 9.01891 22.3325 9.01891 22.3325C9.336 22.8363 9.77567 23.2516 10.2968 23.5393C10.818 23.8271 11.4036 23.9781 11.9989 23.9781C12.5942 23.9781 13.1799 23.8271 13.701 23.5393C14.2222 23.2516 14.6618 22.8363 14.9789 22.3325C14.9789 22.3325 21.2479 12.2235 21.2609 12.1995C18.202 12.727 15.104 12.9947 11.9999 12.9995C8.89468 12.9892 5.7958 12.7183 2.73591 12.1895V12.1895Z" fill="#374957"/>
</svg>
