<svg width="24" height="24" viewBox="0 0 24 24" fill="none" xmlns="http://www.w3.org/2000/svg">
<path d="M2.7481 23.9993C2.35346 23.9982 1.96366 23.9124 1.60508 23.7476C1.24649 23.5828 0.927498 23.3429 0.669682 23.0442C0.411866 22.7454 0.221248 22.3947 0.110729 22.0158C0.000211105 21.637 -0.0276272 21.2388 0.0290987 20.8483C0.288099 19.0423 1.1621 15.7143 2.4021 14.4743C3.34693 13.5297 4.6283 12.9992 5.96431 12.9994C7.30032 12.9996 8.58153 13.5305 9.5261 14.4753C10.4707 15.4201 11.0012 16.7015 11.001 18.0375C11.0008 19.3735 10.4699 20.6547 9.5251 21.5993C8.2861 22.8383 4.9581 23.7123 3.1511 23.9713C3.01764 23.9905 2.88294 23.9999 2.7481 23.9993V23.9993ZM23.1001 0.899298C22.5164 0.34332 21.7412 0.0332031 20.9351 0.0332031C20.129 0.0332031 19.3538 0.34332 18.7701 0.899298L8.2701 11.3993C9.27447 11.745 10.1866 12.3155 10.937 13.0673C11.6874 13.8191 12.2563 14.7323 12.6001 15.7373L23.1001 5.2293C23.6728 4.6543 23.9943 3.87583 23.9943 3.0643C23.9943 2.25277 23.6728 1.4743 23.1001 0.899298V0.899298Z" fill="#374957"/>
</svg>
