<svg width="24" height="24" viewBox="0 0 24 24" fill="none" xmlns="http://www.w3.org/2000/svg">
<g clip-path="url(#clip0_1178_19973)">
<path d="M23.7191 22.3036L22.6416 21.226L20.9107 19.4981L23.7011 16.7077C24.0915 16.3166 24.091 15.6832 23.7 15.2927C23.5969 15.1899 23.4727 15.1107 23.3359 15.0608L14.3623 11.8052C13.323 11.4296 12.1759 11.9676 11.8003 13.0069C11.6415 13.4462 11.6414 13.9272 11.8 14.3665L15.0647 23.3401C15.1812 23.6614 15.4536 23.901 15.7871 23.9755C15.8584 23.991 15.9312 23.9987 16.0042 23.9985C16.2695 23.9985 16.524 23.893 16.7116 23.7054L19.499 20.9099L21.2269 22.6378L22.3044 23.7154C22.7019 24.0993 23.3353 24.0882 23.7192 23.6908C24.0936 23.303 24.0936 22.6884 23.7192 22.3006L23.7191 22.3036Z" fill="#374957"/>
<path d="M10.0051 20.0103C4.47946 20.0103 0 15.5308 0 10.0052C0 4.47951 4.47946 0 10.0051 0C15.5307 0 20.0103 4.47946 20.0103 10.0052C20.0103 10.5577 19.5623 11.0056 19.0098 11.0056C18.4572 11.0056 18.0092 10.5577 18.0092 10.0052C18.0092 5.58459 14.4257 2.00104 10.0051 2.00104C5.58454 2.00104 2.00104 5.58459 2.00104 10.0052C2.00104 14.4257 5.58459 18.0093 10.0052 18.0093C10.5577 18.0093 11.0056 18.4572 11.0056 19.0098C11.0056 19.5623 10.5577 20.0103 10.0051 20.0103Z" fill="#374957"/>
<path d="M8.08818 15.6285C7.95668 15.6286 7.82649 15.6028 7.70497 15.5525C4.64318 14.2808 3.19198 10.7678 4.46365 7.70596C5.73531 4.64411 9.24832 3.19297 12.3101 4.46463C13.7797 5.07502 14.9468 6.24393 15.555 7.71445C15.7749 8.22138 15.5422 8.81057 15.0353 9.03048C14.5284 9.25039 13.9392 9.01772 13.7193 8.51084C13.7147 8.50024 13.7103 8.48959 13.7061 8.47885C12.8591 6.43729 10.5175 5.46892 8.47594 6.31592C6.43443 7.16291 5.46602 9.50453 6.31301 11.546C6.71864 12.5237 7.4951 13.301 8.47243 13.7075C8.98302 13.9188 9.22562 14.504 9.0143 15.0146C8.8593 15.3892 8.49358 15.6332 8.08823 15.6325L8.08818 15.6285Z" fill="#374957"/>
</g>
<defs>
<clipPath id="clip0_1178_19973">
<rect width="24" height="24" fill="white"/>
</clipPath>
</defs>
</svg>
