<svg width="24" height="24" viewBox="0 0 24 24" fill="none" xmlns="http://www.w3.org/2000/svg">
<g clip-path="url(#clip0_1178_20005)">
<path d="M19.7902 3.27962C15.5427 -1.04099 8.59681 -1.10024 4.2762 3.14729C-0.044409 7.39482 -0.103659 14.3407 4.14387 18.6613C4.19665 18.715 4.25 18.7682 4.3039 18.8208L8.23634 22.454C10.3386 24.5106 13.6964 24.5191 15.809 22.473L19.7902 18.7939C24.0742 14.5096 24.0742 7.56381 19.7902 3.27962ZM16.0224 12.034H13.0304V15.026C13.0304 15.5768 12.5839 16.0233 12.0331 16.0233C11.4823 16.0233 11.0358 15.5768 11.0358 15.026V12.034H8.04387C7.49309 12.034 7.04656 11.5875 7.04656 11.0367C7.04656 10.4859 7.49309 10.0394 8.04387 10.0394H11.0358V7.04748C11.0358 6.4967 11.4823 6.05017 12.0331 6.05017C12.5839 6.05017 13.0304 6.4967 13.0304 7.04748V10.0394H16.0224C16.5732 10.0394 17.0197 10.4859 17.0197 11.0367C17.0197 11.5875 16.5732 12.034 16.0224 12.034Z" fill="#374957"/>
</g>
<defs>
<clipPath id="clip0_1178_20005">
<rect width="24" height="24" fill="white"/>
</clipPath>
</defs>
</svg>
