<svg width="24" height="24" viewBox="0 0 24 24" fill="none" xmlns="http://www.w3.org/2000/svg">
<g clip-path="url(#clip0_1178_19919)">
<path d="M10.9998 5.27126C8.23575 5.47904 5.56861 6.38013 3.24485 7.89126C3.54871 6.68042 4.19226 5.58164 5.09971 4.72432C6.00716 3.86701 7.14071 3.28688 8.36685 3.05226C8.6913 2.98699 9.0263 2.99576 9.34689 3.07792C9.66748 3.16008 9.96541 3.31351 10.2185 3.52679C10.4715 3.74007 10.6732 4.00769 10.8085 4.30973C10.9438 4.61177 11.0092 4.94044 10.9998 5.27126V5.27126ZM23.6538 5.24826C23.2906 4.75131 22.8299 4.33361 22.2998 4.02069C21.7697 3.70777 21.1814 3.50619 20.5708 3.42826C20.4929 2.81766 20.2913 2.22936 19.9784 1.69929C19.6655 1.16921 19.2478 0.70849 18.7508 0.345257C18.496 0.153466 18.1928 0.0364157 17.8751 0.00721508C17.5575 -0.0219855 17.238 0.0378167 16.9524 0.179924C16.6669 0.322031 16.4265 0.540832 16.2583 0.811822C16.09 1.08281 16.0005 1.39529 15.9998 1.71426V6.99926C8.48285 6.99926 4.19385 8.43626 1.96285 12.1933C4.3303 12.8117 6.48994 14.0504 8.21909 15.7816C9.94825 17.5129 11.1843 19.6741 11.7998 22.0423C15.5608 19.8123 16.9998 15.5223 16.9998 7.99926H22.2848C22.6038 7.99856 22.9163 7.90908 23.1873 7.74084C23.4583 7.57259 23.6771 7.33223 23.8192 7.04667C23.9613 6.7611 24.0211 6.44161 23.9919 6.12398C23.9627 5.80635 23.8456 5.50312 23.6538 5.24826V5.24826ZM19.1999 12.9993H18.7248C18.574 14.3542 18.3019 15.6929 17.9118 16.9993H18.7258C21.2128 17.0763 22.0119 13.1233 19.1999 12.9993ZM9.95085 22.9103C7.55085 23.5983 3.41385 25.0533 1.17085 22.8283C0.768045 22.4267 0.455926 21.9435 0.255491 21.4112C0.0550564 20.8788 -0.0290439 20.3098 0.0088488 19.7423C0.101606 17.8011 0.465465 15.8825 1.08985 14.0423C3.2547 14.5302 5.2366 15.6226 6.80517 17.1924C8.37375 18.7623 9.46457 20.745 9.95085 22.9103V22.9103ZM4.99985 19.9993C4.99985 19.734 4.89449 19.4797 4.70696 19.2921C4.51942 19.1046 4.26507 18.9993 3.99985 18.9993C3.73463 18.9993 3.48028 19.1046 3.29274 19.2921C3.10521 19.4797 2.99985 19.734 2.99985 19.9993C2.99985 20.2645 3.10521 20.5188 3.29274 20.7064C3.48028 20.8939 3.73463 20.9993 3.99985 20.9993C4.26507 20.9993 4.51942 20.8939 4.70696 20.7064C4.89449 20.5188 4.99985 20.2645 4.99985 19.9993Z" fill="#374957"/>
</g>
<defs>
<clipPath id="clip0_1178_19919">
<rect width="24" height="24" fill="white"/>
</clipPath>
</defs>
</svg>
