<svg width="24" height="24" viewBox="0 0 24 24" fill="none" xmlns="http://www.w3.org/2000/svg">
<path d="M22.8307 9.17142L18.9517 5.29242C18.5544 4.90875 17.9214 4.91976 17.5377 5.31703C17.1634 5.70454 17.1634 6.31893 17.5377 6.70645L21.4167 10.5854C21.532 10.703 21.6327 10.8339 21.7167 10.9754C21.7017 10.9754 21.6897 10.9674 21.6747 10.9674L5.99071 10.9994C5.43843 10.9994 4.99072 11.4472 4.99072 11.9994C4.99072 12.5517 5.43843 12.9994 5.99071 12.9994L21.6687 12.9674C21.6967 12.9674 21.7197 12.9534 21.7467 12.9514C21.658 13.1206 21.5455 13.2762 21.4127 13.4134L17.5337 17.2924C17.1365 17.6761 17.1254 18.3091 17.5091 18.7064C17.8928 19.1037 18.5258 19.1147 18.9231 18.731C18.9314 18.7229 18.9396 18.7147 18.9477 18.7064L22.8267 14.8274C24.3883 13.2654 24.3883 10.7334 22.8267 9.17142H22.8307Z" fill="#374957"/>
<path d="M7.00194 22H5.00192C3.34508 22 2.00192 20.6568 2.00192 19V5.00002C2.00192 3.34317 3.34508 2.00002 5.00192 2.00002H7.00194C7.55422 2.00002 8.00192 1.55231 8.00192 1.00003C8.00192 0.44775 7.55427 0 7.00194 0H5.00192C2.24192 0.00332813 0.00528125 2.23997 0.00195312 5.00002V19C0.00528125 21.76 2.24192 23.9967 5.00197 24H7.00198C7.55427 24 8.00197 23.5523 8.00197 23C8.00197 22.4477 7.55427 22 7.00194 22Z" fill="#374957"/>
</svg>
