<svg width="24" height="24" viewBox="0 0 24 24" fill="none" xmlns="http://www.w3.org/2000/svg">
<g clip-path="url(#clip0_1178_19736)">
<path d="M11.8322 24.0005C11.5355 24.0006 11.2453 23.9127 10.9985 23.7479C10.7517 23.5831 10.5593 23.3488 10.4458 23.0746C10.3322 22.8004 10.3025 22.4987 10.3604 22.2077C10.4183 21.9166 10.5613 21.6493 10.7712 21.4395L18.4432 13.7685C18.6754 13.5363 18.8596 13.2607 18.9853 12.9573C19.111 12.654 19.1757 12.3288 19.1757 12.0005C19.1757 11.6721 19.111 11.347 18.9853 11.0436C18.8596 10.7403 18.6754 10.4646 18.4432 10.2325L10.7712 2.56148C10.6319 2.42215 10.5214 2.25674 10.446 2.07469C10.3706 1.89264 10.3317 1.69753 10.3317 1.50048C10.3317 1.10253 10.4898 0.720875 10.7712 0.439481C11.0526 0.158086 11.4343 0 11.8322 0C12.0293 0 12.2244 0.0388111 12.4064 0.114217C12.5885 0.189623 12.7539 0.300148 12.8932 0.439481L20.5642 8.11148C21.5956 9.14292 22.175 10.5418 22.175 12.0005C22.175 13.4591 21.5956 14.858 20.5642 15.8895L12.8932 23.5615C12.7539 23.7007 12.5884 23.8112 12.4064 23.8865C12.2243 23.9618 12.0292 24.0006 11.8322 24.0005V24.0005Z" fill="#374957"/>
<path d="M2.28728 24.0001C1.99059 24.0001 1.70059 23.912 1.45394 23.7471C1.2073 23.5822 1.01509 23.3479 0.901626 23.0738C0.788162 22.7997 0.75854 22.498 0.816506 22.2071C0.874472 21.9161 1.01742 21.6489 1.22728 21.4391L10.3123 12.3541C10.3588 12.3077 10.3958 12.2525 10.421 12.1918C10.4462 12.131 10.4592 12.0659 10.4592 12.0001C10.4592 11.9344 10.4462 11.8692 10.421 11.8085C10.3958 11.7477 10.3588 11.6926 10.3123 11.6461L1.22728 2.56113C0.945883 2.27987 0.787745 1.89834 0.787651 1.50048C0.787557 1.10262 0.945516 0.721022 1.22678 0.439627C1.50804 0.158232 1.88957 9.38099e-05 2.28742 4.17235e-08C2.68528 -9.37265e-05 3.06688 0.157865 3.34828 0.439127L12.4343 9.52513C13.0887 10.1824 13.4561 11.0721 13.4561 11.9996C13.4561 12.9271 13.0887 13.8169 12.4343 14.4741L3.34828 23.5611C3.20892 23.7004 3.0435 23.8108 2.86145 23.8862C2.6794 23.9615 2.48429 24.0002 2.28728 24.0001V24.0001Z" fill="#374957"/>
</g>
<defs>
<clipPath id="clip0_1178_19736">
<rect width="24" height="24" fill="white"/>
</clipPath>
</defs>
</svg>
