<svg width="24" height="24" viewBox="0 0 24 24" fill="none" xmlns="http://www.w3.org/2000/svg">
<g clip-path="url(#clip0_1178_19940)">
<path d="M23.3 22.5714L18.842 23.9554C18.5888 24.0342 18.3146 24.0091 18.0798 23.8857C17.845 23.7623 17.6688 23.5507 17.59 23.2974C17.5113 23.0441 17.5363 22.7699 17.6597 22.5351C17.7831 22.3003 17.9948 22.1242 18.248 22.0454L19.492 21.6594L18.574 18.9594C18.3813 18.9842 18.1873 18.9976 17.993 18.9994C16.9021 18.9972 15.8419 18.6382 14.974 17.9772C14.1061 17.3162 13.4782 16.3895 13.186 15.3384L13.059 14.9634L14.059 11.9984H22.6L22.8 12.6054C23.117 13.6823 23.0588 14.8348 22.6349 15.8743C22.211 16.9137 21.4467 17.7783 20.467 18.3264L21.398 21.0634L22.698 20.6634C22.9513 20.5847 23.2255 20.6097 23.4603 20.7331C23.6951 20.8565 23.8713 21.0681 23.95 21.3214C24.0288 21.5747 24.0037 21.8489 23.8803 22.0837C23.7569 22.3185 23.5453 22.4947 23.292 22.5734L23.3 22.5714ZM14.656 10.0004H21.923L20.957 7.13242C20.7251 6.38497 20.2123 5.75661 19.5265 5.37951C18.8408 5.0024 18.0355 4.90594 17.28 5.11042L13.756 6.09242C13.8991 6.27375 14.0297 6.46452 14.147 6.66342C14.7036 7.68137 14.8838 8.86283 14.656 10.0004V10.0004ZM10.572 6.18442L6.71904 5.11042C5.9691 4.90356 5.1682 4.99528 4.48445 5.36633C3.80071 5.73739 3.28731 6.35891 3.05204 7.10042L2.07804 10.0004H12.619L12.639 9.94142C12.7545 9.55906 12.7924 9.1575 12.7506 8.7603C12.7087 8.36309 12.588 7.97823 12.3955 7.6283C12.203 7.27836 11.9425 6.97039 11.6294 6.72245C11.3163 6.47451 10.9568 6.29159 10.572 6.18442V6.18442ZM1.18504 12.6574C0.881054 13.7323 0.949137 14.8784 1.37824 15.9098C1.80734 16.9412 2.5723 17.7973 3.54904 18.3394L2.60504 21.0674L1.30004 20.6614C1.17462 20.622 1.04268 20.6077 0.911737 20.6193C0.780794 20.6309 0.653418 20.6682 0.536881 20.729C0.420343 20.7898 0.316926 20.873 0.232536 20.9738C0.148145 21.0746 0.0844321 21.191 0.0450355 21.3164C0.00563893 21.4418 -0.00867006 21.5738 0.00292551 21.7047C0.0145211 21.8357 0.0517941 21.963 0.112616 22.0796C0.173439 22.1961 0.256619 22.2995 0.357409 22.3839C0.458199 22.4683 0.574623 22.532 0.700036 22.5714L5.15804 23.9554C5.41132 24.0342 5.68552 24.0091 5.92031 23.8857C6.15511 23.7623 6.33127 23.5507 6.41004 23.2974C6.4888 23.0441 6.46373 22.7699 6.34033 22.5351C6.21693 22.3003 6.00532 22.1242 5.75204 22.0454L4.51604 21.6604L5.45104 18.9604C5.63647 18.9842 5.8231 18.9976 6.01004 19.0004C7.0912 18.9978 8.14238 18.6447 9.00597 17.9942C9.86956 17.3437 10.499 16.4308 10.8 15.3924L11.945 12.0004H1.40604L1.18504 12.6574ZM15.553 3.90042C15.6711 3.95978 15.7998 3.99515 15.9316 4.00449C16.0634 4.01383 16.1958 3.99695 16.321 3.95483C16.4463 3.9127 16.5619 3.84617 16.6613 3.75908C16.7607 3.67199 16.8418 3.56606 16.9 3.44742L17.9 1.44742C18.0186 1.21005 18.038 0.935308 17.954 0.683634C17.87 0.43196 17.6894 0.22397 17.452 0.105418C17.2147 -0.013134 16.9399 -0.0325358 16.6883 0.0514805C16.4366 0.135497 16.2286 0.316049 16.11 0.553418L15.11 2.55342C15.0503 2.67088 15.0144 2.79899 15.0044 2.93037C14.9943 3.06176 15.0103 3.19384 15.0515 3.31901C15.0927 3.44419 15.1582 3.55999 15.2442 3.65977C15.3303 3.75955 15.4353 3.84133 15.553 3.90042V3.90042ZM7.10504 3.44742C7.22359 3.68545 7.43184 3.86664 7.68398 3.95112C7.80883 3.99296 7.9407 4.00979 8.07205 4.00066C8.2034 3.99153 8.33167 3.95662 8.44954 3.89792C8.5674 3.83922 8.67254 3.75788 8.75897 3.65854C8.84539 3.5592 8.91141 3.44382 8.95324 3.31897C8.99507 3.19412 9.01191 3.06226 9.00278 2.9309C8.99365 2.79955 8.95874 2.67128 8.90003 2.55342L7.90004 0.553418C7.84133 0.435885 7.76006 0.331065 7.66085 0.244942C7.56164 0.158819 7.44644 0.0930811 7.32182 0.0514805C7.07015 -0.0325358 6.7954 -0.013134 6.55804 0.105418C6.32067 0.22397 6.14011 0.43196 6.0561 0.683634C5.97208 0.935308 5.99148 1.21005 6.11004 1.44742L7.10504 3.44742ZM12 0.000417791C11.7348 0.000417791 11.4805 0.105775 11.2929 0.293311C11.1054 0.480847 11 0.735201 11 1.00042V3.00042C11 3.26563 11.1054 3.51999 11.2929 3.70752C11.4805 3.89506 11.7348 4.00042 12 4.00042C12.2653 4.00042 12.5196 3.89506 12.7071 3.70752C12.8947 3.51999 13 3.26563 13 3.00042V1.00042C13 0.735201 12.8947 0.480847 12.7071 0.293311C12.5196 0.105775 12.2653 0.000417791 12 0.000417791V0.000417791Z" fill="#374957"/>
</g>
<defs>
<clipPath id="clip0_1178_19940">
<rect width="24" height="24" fill="white"/>
</clipPath>
</defs>
</svg>
