<svg width="24" height="24" viewBox="0 0 24 24" fill="none" xmlns="http://www.w3.org/2000/svg">
<g clip-path="url(#clip0_1178_20071)">
<path d="M23 21.0006C22.7348 21.0006 22.4804 20.8953 22.2929 20.7077C22.1054 20.5202 22 20.2658 22 20.0006V15.0006C21.449 1.73063 2.546 1.74163 2 15.0006V20.0006C2 20.2658 1.89464 20.5202 1.70711 20.7077C1.51957 20.8953 1.26522 21.0006 1 21.0006C0.734784 21.0006 0.48043 20.8953 0.292893 20.7077C0.105357 20.5202 0 20.2658 0 20.0006V15.0006C0.661 -0.923374 23.345 -0.910375 24 15.0006V20.0006C24 20.2658 23.8946 20.5202 23.7071 20.7077C23.5196 20.8953 23.2652 21.0006 23 21.0006ZM20 20.0006V15.0006C19.6 4.40063 4.4 4.40763 4 15.0006V20.0006C4 20.2658 4.10536 20.5202 4.29289 20.7077C4.48043 20.8953 4.73478 21.0006 5 21.0006C5.26522 21.0006 5.51957 20.8953 5.70711 20.7077C5.89464 20.5202 6 20.2658 6 20.0006V15.0006C6.253 7.06863 17.75 7.07463 18 15.0006V20.0006C18 20.2658 18.1054 20.5202 18.2929 20.7077C18.4804 20.8953 18.7348 21.0006 19 21.0006C19.2652 21.0006 19.5196 20.8953 19.7071 20.7077C19.8946 20.5202 20 20.2658 20 20.0006ZM16 20.0006V15.0006C16 13.9398 15.5786 12.9223 14.8284 12.1722C14.0783 11.4221 13.0609 11.0006 12 11.0006C10.9391 11.0006 9.92172 11.4221 9.17157 12.1722C8.42143 12.9223 8 13.9398 8 15.0006V20.0006C8 20.2658 8.10536 20.5202 8.29289 20.7077C8.48043 20.8953 8.73478 21.0006 9 21.0006C9.26522 21.0006 9.51957 20.8953 9.70711 20.7077C9.89464 20.5202 10 20.2658 10 20.0006V15.0006C10 14.4702 10.2107 13.9615 10.5858 13.5864C10.9609 13.2113 11.4696 13.0006 12 13.0006C12.5304 13.0006 13.0391 13.2113 13.4142 13.5864C13.7893 13.9615 14 14.4702 14 15.0006V20.0006C14 20.2658 14.1054 20.5202 14.2929 20.7077C14.4804 20.8953 14.7348 21.0006 15 21.0006C15.2652 21.0006 15.5196 20.8953 15.7071 20.7077C15.8946 20.5202 16 20.2658 16 20.0006Z" fill="#374957"/>
</g>
<defs>
<clipPath id="clip0_1178_20071">
<rect width="24" height="24" fill="white"/>
</clipPath>
</defs>
</svg>
