<svg width="24" height="24" viewBox="0 0 24 24" fill="none" xmlns="http://www.w3.org/2000/svg">
<g clip-path="url(#clip0_1178_19961)">
<path d="M12 8.9991C11.2087 8.99887 10.4351 9.23334 9.77712 9.67285C9.11911 10.1124 8.60625 10.7372 8.3034 11.4682C8.00056 12.1993 7.92134 13.0037 8.07578 13.7798C8.23021 14.5558 8.61136 15.2687 9.171 15.8281L11.458 18.0641C11.6034 18.2043 11.7975 18.2827 11.9995 18.2827C12.2015 18.2827 12.3956 18.2043 12.541 18.0641L14.841 15.8201C15.3986 15.2595 15.7776 14.5463 15.9301 13.7705C16.0826 12.9946 16.0017 12.191 15.6977 11.4611C15.3937 10.7312 14.8802 10.1078 14.222 9.66961C13.5639 9.2314 12.7907 8.99807 12 8.9991V8.9991ZM12 13.9911C11.8022 13.9911 11.6089 13.9324 11.4444 13.8226C11.28 13.7127 11.1518 13.5565 11.0761 13.3738C11.0004 13.1911 10.9806 12.99 11.0192 12.796C11.0578 12.602 11.153 12.4238 11.2929 12.284C11.4327 12.1441 11.6109 12.0489 11.8049 12.0103C11.9989 11.9717 12.2 11.9915 12.3827 12.0672C12.5654 12.1429 12.7216 12.2711 12.8315 12.4355C12.9414 12.6 13 12.7933 13 12.9911C13 13.2563 12.8946 13.5107 12.7071 13.6982C12.5196 13.8857 12.2652 13.9911 12 13.9911ZM21.8 5.5781L14.8 0.854096C13.9742 0.292493 12.9987 -0.0078125 12 -0.0078125C11.0014 -0.0078125 10.0258 0.292493 9.2 0.854096L2.2 5.5781C1.52215 6.03627 0.967097 6.65379 0.583525 7.37647C0.199953 8.09916 -0.000414419 8.90493 6.43539e-07 9.7231V18.9991C0.0015885 20.3247 0.528883 21.5955 1.46622 22.5329C2.40356 23.4702 3.67441 23.9975 5 23.9991H19C20.3256 23.9975 21.5964 23.4702 22.5338 22.5329C23.4711 21.5955 23.9984 20.3247 24 18.9991V9.7231C24.0004 8.90493 23.8001 8.09916 23.4165 7.37647C23.0329 6.65379 22.4778 6.03627 21.8 5.5781V5.5781ZM16.243 17.2421L13.94 19.4991C13.4197 20.0025 12.724 20.284 12 20.284C11.276 20.284 10.5803 20.0025 10.06 19.4991L7.76 17.2541C6.63376 16.1298 6.00025 14.6042 5.99885 13.0129C5.99744 11.4216 6.62825 9.89484 7.7525 8.7686C8.87675 7.64235 10.4024 7.00885 11.9937 7.00744C13.585 7.00604 15.1118 7.63684 16.238 8.7611V8.7611C17.3606 9.88651 17.9915 11.411 17.9924 13.0006C17.9934 14.5902 17.3643 16.1154 16.243 17.2421V17.2421Z" fill="#374957"/>
</g>
<defs>
<clipPath id="clip0_1178_19961">
<rect width="24" height="24" fill="white"/>
</clipPath>
</defs>
</svg>
