<svg width="24" height="24" viewBox="0 0 24 24" fill="none" xmlns="http://www.w3.org/2000/svg">
<g clip-path="url(#clip0_1178_20167)">
<path d="M23.2741 6.74356L17.3281 0.800562C16.9073 0.365301 16.347 0.091846 15.745 0.0280452C15.143 -0.0357557 14.5377 0.114161 14.0351 0.451563C13.7388 0.662301 13.492 0.935146 13.3119 1.25107C13.1319 1.56699 13.0229 1.91839 12.9926 2.28075C12.9624 2.64311 13.0115 3.00771 13.1366 3.34913C13.2617 3.69055 13.4598 4.00057 13.7171 4.25756L14.3091 4.84856C14.4599 5.00032 14.5446 5.20559 14.5446 5.41956C14.5446 5.63352 14.4599 5.8388 14.3091 5.99056L12.2091 8.09055C12.0248 8.27404 11.7961 8.40668 11.5453 8.47555C11.2946 8.54442 11.0302 8.54718 10.7781 8.48355L9.95808 8.27355C9.01246 8.02671 8.03005 7.95253 7.05808 8.05455C6.41932 8.12099 5.81287 8.36865 5.31022 8.76837C4.80757 9.16808 4.42967 9.70317 4.22108 10.3106C3.99261 10.9384 3.94812 11.6184 4.09285 12.2706C4.23757 12.9229 4.5655 13.5203 5.03808 13.9925L6.78408 15.8005L0.293081 22.2935C0.197571 22.3858 0.121389 22.4961 0.0689798 22.6181C0.0165708 22.7401 -0.0110155 22.8714 -0.0121693 23.0041C-0.0133231 23.1369 0.0119786 23.2686 0.0622595 23.3915C0.11254 23.5144 0.186793 23.626 0.280686 23.7199C0.374579 23.8138 0.486231 23.8881 0.609127 23.9384C0.732024 23.9886 0.863703 24.0139 0.996482 24.0128C1.12926 24.0116 1.26048 23.984 1.38249 23.9316C1.50449 23.8792 1.61483 23.803 1.70708 23.7075L8.17408 17.2405L9.42408 18.5345C10.2715 19.4336 11.4403 19.9606 12.6751 20.0005C13.0743 20.001 13.4706 19.9334 13.8471 19.8005C14.4216 19.6023 14.9263 19.2417 15.3001 18.7625C15.6738 18.2833 15.9007 17.706 15.9531 17.1005C16.0543 16.1375 15.9818 15.164 15.7391 14.2265L15.5271 13.2005C15.4676 12.9503 15.4732 12.689 15.5432 12.4415C15.6132 12.194 15.7454 11.9686 15.9271 11.7865L18.0161 9.70055C18.1786 9.55149 18.3887 9.46501 18.6091 9.45655C18.7058 9.45636 18.8016 9.47545 18.8909 9.5127C18.9802 9.54996 19.0612 9.60464 19.1291 9.67355L19.6351 10.1796C20.0536 10.6264 20.6178 10.9095 21.2262 10.9781C21.8346 11.0466 22.4476 10.8961 22.9551 10.5536C23.2515 10.3429 23.4984 10.0701 23.6785 9.75423C23.8586 9.43834 23.9677 9.08697 23.9981 8.7246C24.0284 8.36224 23.9794 7.99761 23.8543 7.65615C23.7293 7.31469 23.5313 7.00461 23.2741 6.74756V6.74356Z" fill="#374957"/>
</g>
<defs>
<clipPath id="clip0_1178_20167">
<rect width="24" height="24" fill="white"/>
</clipPath>
</defs>
</svg>
