<svg width="24" height="24" viewBox="0 0 24 24" fill="none" xmlns="http://www.w3.org/2000/svg">
<g clip-path="url(#clip0_1178_20200)">
<path d="M16.9992 8.00234H7.00073V7.00251C6.99998 4.24152 9.2376 2.00263 11.9986 2.00188C13.8178 2.00137 15.4936 2.98911 16.3743 4.58089C16.6424 5.06377 17.2512 5.23793 17.7341 4.96984C18.217 4.70176 18.3911 4.09295 18.1231 3.61006C16.2507 0.228402 11.9915 -0.99518 8.6098 0.877148C6.38221 2.11048 5.00017 4.45631 5.00101 7.00255V8.42636C3.18132 9.22053 2.00409 11.0162 2.00146 13.0017V19.0007C2.00479 21.7604 4.2411 23.9967 7.00073 24H16.9992C19.7588 23.9967 21.9951 21.7604 21.9985 19.0007V13.0017C21.9951 10.2419 19.7588 8.00562 16.9992 8.00234ZM12.9998 17.001C12.9998 17.5532 12.5522 18.0008 12 18.0008C11.4478 18.0008 11.0002 17.5532 11.0002 17.001V15.0013C11.0002 14.4491 11.4478 14.0014 12 14.0014C12.5522 14.0014 12.9998 14.4491 12.9998 15.0013V17.001V17.001Z" fill="#374957"/>
</g>
<defs>
<clipPath id="clip0_1178_20200">
<rect width="24" height="24" fill="white"/>
</clipPath>
</defs>
</svg>
