<svg width="24" height="24" viewBox="0 0 24 24" fill="none" xmlns="http://www.w3.org/2000/svg">
<g clip-path="url(#clip0_1178_20152)">
<path d="M19.9998 0.00992631C16.1878 0.00992631 11.8748 2.04793 8.46078 5.46093C5.02749 8.86476 2.26661 12.8853 0.322778 17.3119C0.0212657 18.0126 -0.072304 18.7851 0.0532346 19.5375C0.178773 20.2898 0.518119 20.9902 1.03078 21.5549L15.2928 7.29293C15.385 7.19742 15.4954 7.12123 15.6174 7.06883C15.7394 7.01642 15.8706 6.98883 16.0034 6.98768C16.1362 6.98652 16.2678 7.01182 16.3907 7.06211C16.5136 7.11239 16.6253 7.18664 16.7192 7.28053C16.8131 7.37442 16.8873 7.48608 16.9376 7.60897C16.9879 7.73187 17.0132 7.86355 17.012 7.99633C17.0109 8.12911 16.9833 8.26033 16.9309 8.38233C16.8785 8.50434 16.8023 8.61468 16.7068 8.70693L2.44878 22.9649C3.01021 23.4808 3.70923 23.8227 4.4611 23.9493C5.21297 24.0758 5.98541 23.9816 6.68478 23.6779C11.1141 21.7369 15.1362 18.9754 18.5388 15.5389C21.9518 12.1259 23.9898 7.81293 23.9898 3.99993C24.046 3.46214 23.9815 2.91858 23.8008 2.40892C23.6202 1.89926 23.328 1.43637 22.9457 1.05402C22.5633 0.671676 22.1004 0.379524 21.5908 0.198889C21.0811 0.0182551 20.5376 -0.0463032 19.9998 0.00992631V0.00992631Z" fill="#374957"/>
</g>
<defs>
<clipPath id="clip0_1178_20152">
<rect width="24" height="24" fill="white"/>
</clipPath>
</defs>
</svg>
