<svg width="24" height="24" viewBox="0 0 24 24" fill="none" xmlns="http://www.w3.org/2000/svg">
<path d="M21.7702 8.94875C21.607 8.8904 21.4579 8.79845 21.3325 8.67884C21.2071 8.55923 21.1082 8.41463 21.0422 8.25438C20.9762 8.09414 20.9446 7.92182 20.9495 7.74859C20.9543 7.57536 20.9954 7.40508 21.0702 7.24875C21.3572 6.6448 21.4502 5.96684 21.3366 5.30791C21.2229 4.64898 20.9081 4.04138 20.4353 3.56851C19.9625 3.09563 19.355 2.78067 18.6961 2.66684C18.0372 2.55301 17.3592 2.64589 16.7552 2.93275C16.5988 3.00737 16.4286 3.04838 16.2554 3.05312C16.0822 3.05786 15.91 3.02622 15.7498 2.96026C15.5895 2.89429 15.445 2.79546 15.3253 2.67015C15.2057 2.54484 15.1137 2.39583 15.0552 2.23275C14.8304 1.60383 14.4166 1.05978 13.8707 0.675117C13.3247 0.290454 12.6731 0.0839844 12.0052 0.0839844C11.3373 0.0839844 10.6857 0.290454 10.1397 0.675117C9.59374 1.05978 9.18001 1.60383 8.9552 2.23275C8.89685 2.39593 8.8049 2.54504 8.68529 2.67044C8.56568 2.79584 8.42107 2.89473 8.26083 2.96071C8.10059 3.0267 7.92827 3.0583 7.75504 3.05348C7.58181 3.04867 7.41153 3.00753 7.2552 2.93275C6.65087 2.64362 5.97176 2.54899 5.31142 2.6619C4.65107 2.77481 4.04198 3.0897 3.56805 3.56319C3.09412 4.03668 2.77867 4.64548 2.66515 5.30572C2.55163 5.96596 2.64563 6.64515 2.9342 7.24975C3.00914 7.40605 3.0504 7.57636 3.0553 7.74964C3.0602 7.92291 3.02862 8.09528 2.96262 8.25557C2.89662 8.41586 2.79767 8.56048 2.67218 8.68007C2.54669 8.79966 2.39747 8.89154 2.2342 8.94975C1.60572 9.17501 1.06218 9.58892 0.677913 10.1349C0.293641 10.6808 0.0874023 11.3321 0.0874023 11.9997C0.0874023 12.6674 0.293641 13.3187 0.677913 13.8646C1.06218 14.4106 1.60572 14.8245 2.2342 15.0497C2.39782 15.1076 2.54745 15.1991 2.6734 15.3185C2.79934 15.4379 2.89877 15.5825 2.96525 15.7428C3.03173 15.9031 3.06376 16.0755 3.05927 16.249C3.05478 16.4225 3.01387 16.5931 2.9392 16.7497C2.65203 17.3533 2.55869 18.031 2.67198 18.6897C2.78526 19.3484 3.09963 19.9559 3.57193 20.4289C4.04423 20.9019 4.65132 21.2171 5.30989 21.3313C5.96846 21.4455 6.64623 21.3531 7.2502 21.0667C7.40652 20.992 7.57681 20.9508 7.75004 20.946C7.92327 20.9412 8.09559 20.9728 8.25583 21.0388C8.41607 21.1048 8.56068 21.2037 8.68029 21.3291C8.7999 21.4545 8.89185 21.6036 8.9502 21.7667C9.17501 22.3957 9.58874 22.9397 10.1347 23.3244C10.6807 23.709 11.3323 23.9155 12.0002 23.9155C12.6681 23.9155 13.3197 23.709 13.8657 23.3244C14.4116 22.9397 14.8254 22.3957 15.0502 21.7667C15.1085 21.6036 15.2005 21.4545 15.3201 21.3291C15.4397 21.2037 15.5843 21.1048 15.7446 21.0388C15.9048 20.9728 16.0771 20.9412 16.2503 20.946C16.4236 20.9508 16.5939 20.992 16.7502 21.0667C17.3541 21.3537 18.0321 21.4468 18.691 21.3331C19.35 21.2194 19.9576 20.9046 20.4304 20.4318C20.9033 19.9591 21.2183 19.3516 21.3321 18.6926C21.4459 18.0337 21.353 17.3558 21.0662 16.7517C20.9916 16.5954 20.9506 16.4251 20.9458 16.2519C20.9411 16.0788 20.9727 15.9065 21.0387 15.7463C21.1046 15.5861 21.2035 15.4415 21.3288 15.3219C21.4541 15.2022 21.6031 15.1102 21.7662 15.0517C22.3951 14.8269 22.9392 14.4132 23.3238 13.8672C23.7085 13.3212 23.915 12.6696 23.915 12.0017C23.915 11.3339 23.7085 10.6823 23.3238 10.1363C22.9392 9.59029 22.3951 9.17656 21.7662 8.95175L21.7702 8.94875Z" fill="#374957"/>
</svg>
