<svg width="24" height="24" viewBox="0 0 24 24" fill="none" xmlns="http://www.w3.org/2000/svg">
<g clip-path="url(#clip0_1178_19946)">
<path d="M19 4H9V20H19C20.3256 19.9984 21.5964 19.4711 22.5338 18.5338C23.4711 17.5964 23.9984 16.3256 24 15V9C23.9984 7.6744 23.4711 6.40356 22.5338 5.46622C21.5964 4.52888 20.3256 4.00159 19 4V4Z" fill="#374957"/>
<path d="M2 9V11H1C0.734784 11 0.48043 11.1054 0.292893 11.2929C0.105357 11.4804 0 11.7348 0 12C0 12.2652 0.105357 12.5196 0.292893 12.7071C0.48043 12.8946 0.734784 13 1 13H2V15C2.00159 16.3256 2.52888 17.5964 3.46622 18.5338C4.40356 19.4711 5.67441 19.9984 7 20V4C5.67441 4.00159 4.40356 4.52888 3.46622 5.46622C2.52888 6.40356 2.00159 7.6744 2 9V9Z" fill="#374957"/>
</g>
<defs>
<clipPath id="clip0_1178_19946">
<rect width="24" height="24" fill="white"/>
</clipPath>
</defs>
</svg>
