<svg width="24" height="24" viewBox="0 0 24 24" fill="none" xmlns="http://www.w3.org/2000/svg">
<g clip-path="url(#clip0_1178_20153)">
<path d="M23.4141 0.585448C23.1632 0.33833 22.8522 0.161008 22.5118 0.0710306C22.1713 -0.0189464 21.8133 -0.018458 21.4731 0.0724476C19.0321 0.876163 16.8132 2.24023 14.9941 4.05545L5.51808 13.5304C4.14986 12.7931 2.67255 12.2793 1.14208 12.0084C0.882462 11.9765 0.62065 12.0475 0.412786 12.2063C0.204922 12.3651 0.0675555 12.599 0.0301412 12.8579C-0.00727305 13.1168 0.058244 13.3801 0.212644 13.5912C0.367043 13.8024 0.598033 13.9446 0.856081 13.9874C2.80288 14.3524 4.63657 15.1701 6.20908 16.3744L2.50008 20.0845L1.70708 19.2914C1.61483 19.1959 1.50449 19.1198 1.38249 19.0673C1.26048 19.0149 1.12926 18.9874 0.996482 18.9862C0.863703 18.985 0.732024 19.0103 0.609127 19.0606C0.486231 19.1109 0.374579 19.1852 0.280686 19.2791C0.186794 19.3729 0.11254 19.4846 0.0622595 19.6075C0.0119786 19.7304 -0.0133231 19.8621 -0.0121693 19.9949C-0.0110155 20.1276 0.0165708 20.2589 0.0689798 20.3809C0.121389 20.5029 0.197571 20.6132 0.293081 20.7055L3.29308 23.7055C3.38533 23.801 3.49567 23.8771 3.61768 23.9296C3.73968 23.982 3.8709 24.0095 4.00368 24.0107C4.13646 24.0119 4.26814 23.9866 4.39104 23.9363C4.51393 23.886 4.62558 23.8117 4.71948 23.7178C4.81337 23.624 4.88762 23.5123 4.9379 23.3894C4.98818 23.2665 5.01349 23.1348 5.01233 23.002C5.01118 22.8693 4.98359 22.738 4.93118 22.616C4.87877 22.494 4.80259 22.3837 4.70708 22.2914L3.91408 21.4984L7.62308 17.7885C8.82831 19.3608 9.64608 21.195 10.0101 23.1424C10.0447 23.3803 10.1638 23.5977 10.3456 23.7549C10.5274 23.9121 10.7597 23.9986 11.0001 23.9985C11.0483 23.9987 11.0965 23.9951 11.1441 23.9875C11.4061 23.9496 11.6424 23.8093 11.8011 23.5975C11.9599 23.3857 12.0282 23.1196 11.9911 22.8574C11.7213 21.3267 11.2074 19.8492 10.4691 18.4814L19.9441 9.00545C21.7799 7.16059 23.1539 4.90807 23.9541 2.43145C24.027 2.10318 24.0158 1.76179 23.9214 1.43904C23.827 1.11628 23.6525 0.822649 23.4141 0.585448V0.585448Z" fill="#374957"/>
</g>
<defs>
<clipPath id="clip0_1178_20153">
<rect width="24" height="24" fill="white"/>
</clipPath>
</defs>
</svg>
