<svg width="24" height="24" viewBox="0 0 24 24" fill="none" xmlns="http://www.w3.org/2000/svg">
<g clip-path="url(#clip0_1178_20000)">
<path d="M6.4 24.0005C4.70318 23.9986 3.07639 23.3237 1.87656 22.1239C0.676732 20.9241 0.00185286 19.2973 0 17.6005C0 14.5415 3.952 13.2735 6.286 13.0075C6.43559 12.9895 6.58732 13.0059 6.72961 13.0554C6.8719 13.105 7.00098 13.1864 7.107 13.2935L10.707 16.8935C10.8134 16.9998 10.8945 17.1287 10.9442 17.2707C10.9939 17.4127 11.0109 17.564 10.994 17.7135C10.727 20.0485 9.458 24.0005 6.4 24.0005V24.0005ZM10.16 9.22848L7.88 11.2375L12.763 16.1205L14.772 13.8405L10.16 9.22848ZM23.284 0.716479C22.8446 0.279943 22.2563 0.0258536 21.6373 0.00526288C21.0183 -0.0153279 20.4144 0.199105 19.947 0.605479L11.664 7.90048L16.1 12.3365L23.4 4.05048C23.8053 3.58284 24.0186 2.97915 23.9971 2.36069C23.9756 1.74223 23.7208 1.15482 23.284 0.716479V0.716479Z" fill="#374957"/>
</g>
<defs>
<clipPath id="clip0_1178_20000">
<rect width="24" height="24" fill="white"/>
</clipPath>
</defs>
</svg>
