<svg width="24" height="24" viewBox="0 0 24 24" fill="none" xmlns="http://www.w3.org/2000/svg">
<g clip-path="url(#clip0_1178_20128)">
<path d="M21.835 2.16488C21.1488 1.47854 20.3342 0.934094 19.4376 0.56264C18.541 0.191187 17.58 0 16.6095 0C15.639 0 14.678 0.191187 13.7814 0.56264C12.8848 0.934094 12.0701 1.47854 11.384 2.16488L2.16496 11.3839C1.47569 12.0694 0.928456 12.8842 0.554609 13.7816C0.180762 14.679 -0.0123504 15.6414 -0.0136651 16.6135C-0.0149798 17.5857 0.175529 18.5485 0.546948 19.4469C0.918366 20.3453 1.46339 21.1616 2.15081 21.849C2.83822 22.5364 3.65451 23.0815 4.55291 23.4529C5.45132 23.8243 6.41417 24.0148 7.38632 24.0135C8.35847 24.0122 9.32081 23.8191 10.2182 23.4452C11.1156 23.0714 11.9304 22.5241 12.616 21.8349L21.835 12.6159C22.5213 11.9297 23.0657 11.1151 23.4372 10.2185C23.8087 9.32187 23.9998 8.36088 23.9998 7.39038C23.9998 6.41988 23.8087 5.45888 23.4372 4.56228C23.0657 3.66568 22.5213 2.85103 21.835 2.16488V2.16488ZM12.707 16.7069L9.70696 19.7069C9.51836 19.889 9.26576 19.9898 9.00356 19.9876C8.74136 19.9853 8.49055 19.8801 8.30514 19.6947C8.11974 19.5093 8.01457 19.2585 8.01229 18.9963C8.01001 18.7341 8.1108 18.4815 8.29296 18.2929L9.08596 17.4999L6.49996 14.9139L5.70696 15.7069C5.51836 15.889 5.26576 15.9898 5.00356 15.9875C4.74136 15.9853 4.49055 15.8801 4.30514 15.6947C4.11973 15.5093 4.01457 15.2585 4.01229 14.9963C4.01001 14.7341 4.1108 14.4815 4.29296 14.2929L7.29296 11.2929C7.48156 11.1107 7.73417 11.0099 7.99636 11.0122C8.25856 11.0145 8.50937 11.1196 8.69478 11.3051C8.88019 11.4905 8.98536 11.7413 8.98764 12.0035C8.98991 12.2657 8.88912 12.5183 8.70696 12.7069L7.91396 13.4999L10.5 16.0859L11.293 15.2929C11.4816 15.1107 11.7342 15.0099 11.9964 15.0122C12.2586 15.0145 12.5094 15.1196 12.6948 15.3051C12.8802 15.4905 12.9854 15.7413 12.9876 16.0035C12.9899 16.2657 12.8891 16.5183 12.707 16.7069V16.7069ZM19.707 9.70688L16.707 12.7069C16.5184 12.889 16.2658 12.9898 16.0036 12.9875C15.7414 12.9853 15.4906 12.8801 15.3051 12.6947C15.1197 12.5093 15.0146 12.2585 15.0123 11.9963C15.01 11.7341 15.1108 11.4815 15.293 11.2929L16.086 10.4999L13.5 7.91388L12.707 8.70688C12.5184 8.88903 12.2658 8.98983 12.0036 8.98755C11.7414 8.98527 11.4906 8.8801 11.3051 8.69469C11.1197 8.50929 11.0146 8.25847 11.0123 7.99628C11.01 7.73408 11.1108 7.48148 11.293 7.29288L14.293 4.29288C14.3852 4.19737 14.4956 4.12118 14.6176 4.06877C14.7396 4.01637 14.8708 3.98878 15.0036 3.98763C15.1363 3.98647 15.268 4.01177 15.3909 4.06205C15.5138 4.11234 15.6255 4.18659 15.7194 4.28048C15.8132 4.37437 15.8875 4.48603 15.9378 4.60892C15.9881 4.73182 16.0134 4.8635 16.0122 4.99628C16.0111 5.12906 15.9835 5.26028 15.9311 5.38228C15.8787 5.50428 15.8025 5.61463 15.707 5.70688L14.914 6.49988L17.5 9.08588L18.293 8.29288C18.4816 8.11072 18.7342 8.00992 18.9964 8.0122C19.2586 8.01448 19.5094 8.11965 19.6948 8.30506C19.8802 8.49047 19.9854 8.74128 19.9876 9.00348C19.9899 9.26567 19.8891 9.51827 19.707 9.70688V9.70688Z" fill="#374957"/>
</g>
<defs>
<clipPath id="clip0_1178_20128">
<rect width="24" height="24" fill="white"/>
</clipPath>
</defs>
</svg>
