<svg width="24" height="24" viewBox="0 0 24 24" fill="none" xmlns="http://www.w3.org/2000/svg">
<g clip-path="url(#clip0_1178_20224)">
<path d="M23.7072 22.2936L17.7412 16.3286C19.3648 14.3423 20.1629 11.8078 19.9703 9.24957C19.7778 6.69129 18.6094 4.30487 16.7068 2.58386C14.8042 0.862845 12.3129 -0.061091 9.74818 0.00313764C7.18348 0.0673663 4.74156 1.11485 2.92747 2.92894C1.11338 4.74302 0.0659015 7.18494 0.00167279 9.74965C-0.0625559 12.3144 0.86138 14.8056 2.58239 16.7083C4.3034 18.6109 6.68983 19.7793 9.2481 19.9718C11.8064 20.1643 14.3408 19.3663 16.3272 17.7426L22.2932 23.7076C22.4818 23.8898 22.7344 23.9906 22.9966 23.9883C23.2588 23.986 23.5096 23.8809 23.695 23.6955C23.8804 23.51 23.9856 23.2592 23.9878 22.997C23.9901 22.7348 23.8893 22.4822 23.7072 22.2936ZM13.0002 11.0006H7.00017C6.73496 11.0006 6.4806 10.8953 6.29307 10.7077C6.10553 10.5202 6.00017 10.2659 6.00017 10.0006C6.00017 9.73542 6.10553 9.48107 6.29307 9.29353C6.4806 9.106 6.73496 9.00064 7.00017 9.00064H13.0002C13.2654 9.00064 13.5197 9.106 13.7073 9.29353C13.8948 9.48107 14.0002 9.73542 14.0002 10.0006C14.0002 10.2659 13.8948 10.5202 13.7073 10.7077C13.5197 10.8953 13.2654 11.0006 13.0002 11.0006Z" fill="#374957"/>
</g>
<defs>
<clipPath id="clip0_1178_20224">
<rect width="24" height="24" fill="white"/>
</clipPath>
</defs>
</svg>
