<svg width="24" height="24" viewBox="0 0 24 24" fill="none" xmlns="http://www.w3.org/2000/svg">
<g clip-path="url(#clip0_1178_19989)">
<path d="M6.99994 12.0008C7.00013 11.021 7.28994 10.0632 7.83294 9.24777L2.84494 4.25977C1.00836 6.42091 0 9.16465 0 12.0008C0 14.8369 1.00836 17.5806 2.84494 19.7418L7.83294 14.7538C7.28994 13.9383 7.00013 12.9805 6.99994 12.0008V12.0008Z" fill="#374957"/>
<path d="M21.155 4.25977L16.167 9.24777C16.7101 10.0632 16.9999 11.021 16.9999 12.0008C16.9999 12.9805 16.7101 13.9384 16.167 14.7538L21.155 19.7418C22.9916 17.5806 23.9999 14.8369 23.9999 12.0008C23.9999 9.16465 22.9916 6.42091 21.155 4.25977V4.25977Z" fill="#374957"/>
<path d="M11.9998 16.999C11.0201 16.9988 10.0623 16.709 9.24679 16.166L4.25879 21.154C6.41994 22.9906 9.16367 23.999 11.9998 23.999C14.8359 23.999 17.5796 22.9906 19.7408 21.154L14.7528 16.166C13.9373 16.709 12.9795 16.9988 11.9998 16.999Z" fill="#374957"/>
<path d="M11.9998 6.99994C12.9795 7.00013 13.9373 7.28994 14.7528 7.83294L19.7408 2.84494C17.5796 1.00836 14.8359 0 11.9998 0C9.16367 0 6.41994 1.00836 4.25879 2.84494L9.24679 7.83294C10.0623 7.28994 11.0201 7.00013 11.9998 6.99994V6.99994Z" fill="#374957"/>
</g>
<defs>
<clipPath id="clip0_1178_19989">
<rect width="24" height="24" fill="white"/>
</clipPath>
</defs>
</svg>
