<svg width="24" height="24" viewBox="0 0 24 24" fill="none" xmlns="http://www.w3.org/2000/svg">
<path d="M4.25927 2.84478C6.15976 1.23299 8.51681 0.256046 11.0003 0.0507812V1.35078C11.0678 3.75945 11.8626 6.09131 13.2803 8.03978C13.4265 8.25173 13.4929 8.50859 13.4678 8.76484C13.4428 9.02109 13.3278 9.2602 13.1433 9.43978L12.7763 9.80678C12.5701 10.012 12.2911 10.1272 12.0003 10.1272C11.7094 10.1272 11.4304 10.012 11.2243 9.80678L4.25927 2.84478ZM17.5903 7.82378C17.4728 7.94018 17.383 8.08159 17.3277 8.23746C17.2724 8.39334 17.253 8.55968 17.2709 8.72411C17.2888 8.88854 17.3435 9.04682 17.431 9.18717C17.5185 9.32753 17.6365 9.44634 17.7763 9.53478C19.2626 10.4472 20.9629 10.9525 22.7063 10.9998H23.9493C23.744 8.51632 22.7671 6.15927 21.1553 4.25878L17.5903 7.82378ZM13.0003 0.0507812V1.32278C13.051 3.05624 13.5562 4.74595 14.4653 6.22278C14.5537 6.36238 14.6725 6.48024 14.8128 6.56763C14.953 6.65502 15.1112 6.70968 15.2755 6.72755C15.4398 6.74542 15.606 6.72604 15.7618 6.67086C15.9175 6.61567 16.0589 6.52609 16.1753 6.40878L19.7413 2.84278C17.8406 1.2316 15.4835 0.255347 13.0003 0.0507812V0.0507812ZM14.5573 10.8568L14.1903 11.2238C13.9851 11.4299 13.8699 11.7089 13.8699 11.9998C13.8699 12.2906 13.9851 12.5696 14.1903 12.7758L21.1553 19.7408C22.7672 17.8404 23.7441 15.4833 23.9493 12.9998H22.6773C20.2593 12.9361 17.9174 12.1412 15.9603 10.7198C15.7479 10.5732 15.4905 10.5065 15.2337 10.5316C14.9769 10.5566 14.7372 10.6719 14.5573 10.8568ZM9.44327 13.1428L9.81027 12.7758C10.0155 12.5696 10.1306 12.2906 10.1306 11.9998C10.1306 11.7089 10.0155 11.4299 9.81027 11.2238L2.84527 4.25878C1.23337 6.1592 0.256403 8.51629 0.0512695 10.9998H1.32327C3.74127 11.0633 6.08323 11.8582 8.04027 13.2798C8.25261 13.4264 8.51002 13.4931 8.76684 13.468C9.02366 13.4429 9.2633 13.3277 9.44327 13.1428V13.1428ZM11.2243 14.1898L10.8573 14.5568C10.6731 14.7366 10.5584 14.9756 10.5333 15.2318C10.5083 15.4879 10.5745 15.7447 10.7203 15.9568C12.1388 17.9055 12.9337 20.2383 13.0003 22.6478V23.9478C15.4838 23.7426 17.8409 22.7657 19.7413 21.1538L12.7763 14.1898C12.5701 13.9846 12.2911 13.8694 12.0003 13.8694C11.7094 13.8694 11.4304 13.9846 11.2243 14.1898V14.1898ZM11.0003 22.6768C10.9495 20.9433 10.4443 19.2536 9.53527 17.7768C9.44673 17.6373 9.32789 17.5195 9.18758 17.4322C9.04727 17.3449 8.8891 17.2903 8.72481 17.2726C8.56053 17.2548 8.39434 17.2742 8.23861 17.3295C8.08288 17.3848 7.9416 17.4744 7.82527 17.5918L4.25927 21.1548C6.15969 22.7667 8.51678 23.7436 11.0003 23.9488V22.6768ZM1.29427 12.9998H0.0512695C0.256535 15.4832 1.23348 17.8403 2.84527 19.7408L6.41027 16.1758C6.52777 16.0594 6.61751 15.918 6.6728 15.7621C6.7281 15.6062 6.74754 15.4399 6.72966 15.2755C6.71179 15.111 6.65706 14.9527 6.56956 14.8124C6.48206 14.672 6.36404 14.5532 6.22427 14.4648C4.73793 13.5524 3.03768 13.0471 1.29427 12.9998V12.9998Z" fill="#374957"/>
</svg>
