<svg width="24" height="24" viewBox="0 0 24 24" fill="none" xmlns="http://www.w3.org/2000/svg">
<g clip-path="url(#clip0_1178_19895)">
<path d="M1.225 8.46809C1.331 8.34509 8.48 1.45009 8.48 1.45009C9.4223 0.525588 10.6905 0.00892343 12.0106 0.0117301C13.3307 0.0145368 14.5966 0.536589 15.535 1.46509C15.535 1.46509 22.669 8.34509 22.774 8.46509L14.121 17.1191C13.5493 17.664 12.7898 17.968 12 17.968C11.2102 17.968 10.4507 17.664 9.879 17.1191L1.225 8.46809ZM15.535 18.5371C14.5943 19.4686 13.3239 19.9912 12 19.9912C10.6761 19.9912 9.40572 19.4686 8.465 18.5371L0.229 10.3011C0.0852498 10.7569 0.00811962 11.2312 0 11.7091L0 19.0011C0.00158786 20.3267 0.528882 21.5975 1.46622 22.5349C2.40356 23.4722 3.6744 23.9995 5 24.0011H19C20.3256 23.9995 21.5964 23.4722 22.5338 22.5349C23.4711 21.5975 23.9984 20.3267 24 19.0011V11.7091C23.9919 11.2312 23.9148 10.7569 23.771 10.3011L15.535 18.5371Z" fill="#374957"/>
</g>
<defs>
<clipPath id="clip0_1178_19895">
<rect width="24" height="24" fill="white"/>
</clipPath>
</defs>
</svg>
