<svg width="24" height="24" viewBox="0 0 24 24" fill="none" xmlns="http://www.w3.org/2000/svg">
<g clip-path="url(#clip0_1178_19816)">
<path d="M12.3003 10.1779C12.404 10.4105 12.5254 10.6348 12.6633 10.8489L23.5253 8.6879C23.0826 7.13212 22.3289 5.6823 21.3099 4.4261C20.2908 3.1699 19.0276 2.13343 17.5966 1.37935C16.1655 0.625282 14.5965 0.169276 12.9842 0.0389126C11.3719 -0.0914512 9.7499 0.106535 8.21631 0.6209L12.3003 10.1779Z" fill="#374957"/>
<path d="M12.631 13.7423C11.6838 13.0175 10.9372 12.0631 10.462 10.9693L6.37698 1.40625C4.82754 2.22475 3.47632 3.3729 2.41843 4.76989C1.36055 6.16688 0.621706 7.77876 0.25391 9.49207C-0.113885 11.2054 -0.101694 12.9785 0.289626 14.6866C0.680945 16.3947 1.44188 17.9962 2.51888 19.3785C3.59587 20.7608 4.96275 21.8903 6.5233 22.6874C8.08385 23.4845 9.80014 23.9299 11.5514 23.9922C13.3026 24.0546 15.0462 23.7323 16.6595 23.0481C18.2727 22.364 19.7165 21.3345 20.889 20.0323L12.631 13.7423Z" fill="#374957"/>
<path d="M14.3652 12.5484L22.1062 18.4484C23.3433 16.5251 24.0008 14.2863 24.0002 11.9994C23.9985 11.5479 23.9715 11.0969 23.9192 10.6484L14.3652 12.5484Z" fill="#374957"/>
</g>
<defs>
<clipPath id="clip0_1178_19816">
<rect width="24" height="24" fill="white"/>
</clipPath>
</defs>
</svg>
