<svg width="24" height="24" viewBox="0 0 24 24" fill="none" xmlns="http://www.w3.org/2000/svg">
<path d="M18.9997 10.5001H10.2067L12.6457 8.06113C12.9271 7.77986 13.0852 7.39834 13.0853 7.00048C13.0854 6.60262 12.9275 6.22102 12.6462 5.93963C12.365 5.65823 11.9834 5.50009 11.5856 5.5C11.1877 5.49991 10.8061 5.65786 10.5247 5.93913L6.93871 9.52513C6.28348 10.1822 5.91553 11.0722 5.91553 12.0001C5.91553 12.928 6.28348 13.8181 6.93871 14.4751L10.5247 18.0611C10.8061 18.3424 11.1877 18.5003 11.5856 18.5003C11.9834 18.5002 12.365 18.342 12.6462 18.0606C12.9275 17.7792 13.0854 17.3976 13.0853 16.9998C13.0852 16.6019 12.9271 16.2204 12.6457 15.9391L10.2067 13.5001H18.9997C19.3975 13.5001 19.7791 13.3421 20.0604 13.0608C20.3417 12.7795 20.4997 12.398 20.4997 12.0001C20.4997 11.6023 20.3417 11.2208 20.0604 10.9395C19.7791 10.6582 19.3975 10.5001 18.9997 10.5001Z" fill="#374957"/>
</svg>
