<svg width="24" height="24" viewBox="0 0 24 24" fill="none" xmlns="http://www.w3.org/2000/svg">
<g clip-path="url(#clip0_1178_19950)">
<path d="M22.9421 6.83754L20.7601 4.65454L21.7071 3.70754C21.8026 3.61529 21.8788 3.50495 21.9312 3.38294C21.9836 3.26094 22.0112 3.12972 22.0124 2.99694C22.0135 2.86416 21.9882 2.73248 21.9379 2.60958C21.8876 2.48669 21.8134 2.37504 21.7195 2.28114C21.6256 2.18725 21.514 2.113 21.3911 2.06272C21.2682 2.01244 21.1365 1.98713 21.0037 1.98829C20.8709 1.98944 20.7397 2.01703 20.6177 2.06944C20.4957 2.12185 20.3853 2.19803 20.2931 2.29354L19.3461 3.24054L17.1631 1.05854C16.475 0.40286 15.561 0.0371094 14.6106 0.0371094C13.6602 0.0371094 12.7462 0.40286 12.0581 1.05854C11.7227 1.3937 11.4566 1.79169 11.275 2.22975C11.0934 2.6678 11 3.13735 11 3.61154C11 4.08573 11.0934 4.55527 11.275 4.99333C11.4566 5.43139 11.7227 5.82937 12.0581 6.16454L14.2401 8.34654L8.3461 14.2405L6.1631 12.0585C5.47504 11.4029 4.56105 11.0371 3.6106 11.0371C2.66016 11.0371 1.74617 11.4029 1.0581 12.0585C0.722662 12.3937 0.456559 12.7917 0.275003 13.2297C0.0934482 13.6678 0 14.1373 0 14.6115C0 15.0857 0.0934482 15.5553 0.275003 15.9933C0.456559 16.4314 0.722662 16.8294 1.0581 17.1645L3.2401 19.3465L2.2931 20.2935C2.19759 20.3858 2.12141 20.4961 2.069 20.6181C2.01659 20.7401 1.98901 20.8714 1.98785 21.0041C1.9867 21.1369 2.012 21.2686 2.06228 21.3915C2.11256 21.5144 2.18682 21.626 2.28071 21.7199C2.3746 21.8138 2.48625 21.8881 2.60915 21.9384C2.73205 21.9886 2.86373 22.0139 2.99651 22.0128C3.12928 22.0116 3.2605 21.984 3.38251 21.9316C3.50451 21.8792 3.61486 21.803 3.7071 21.7075L4.6541 20.7605L6.8371 22.9425C7.17225 23.2778 7.57017 23.5438 8.00814 23.7253C8.4461 23.9067 8.91553 24.0001 9.3896 24.0001C9.86368 24.0001 10.3331 23.9067 10.7711 23.7253C11.209 23.5438 11.607 23.2778 11.9421 22.9425C12.2775 22.6075 12.5436 22.2096 12.7251 21.7716C12.9067 21.3336 13.0001 20.8641 13.0001 20.39C13.0001 19.9159 12.9067 19.4465 12.7251 19.0085C12.5436 18.5705 12.2775 18.1726 11.9421 17.8375L9.7601 15.6555L15.6601 9.76054L17.8421 11.9425C18.1772 12.2778 18.5752 12.5438 19.0131 12.7253C19.4511 12.9067 19.9205 13.0001 20.3946 13.0001C20.8687 13.0001 21.3381 12.9067 21.7761 12.7253C22.214 12.5438 22.612 12.2778 22.9471 11.9425C23.2825 11.6075 23.5486 11.2096 23.7301 10.7716C23.9117 10.3336 24.0051 9.86415 24.0051 9.39004C24.0051 8.91593 23.9117 8.44647 23.7301 8.00849C23.5486 7.57052 23.2825 7.17262 22.9471 6.83754H22.9421Z" fill="#374957"/>
</g>
<defs>
<clipPath id="clip0_1178_19950">
<rect width="24" height="24" fill="white"/>
</clipPath>
</defs>
</svg>
