<svg width="24" height="24" viewBox="0 0 24 24" fill="none" xmlns="http://www.w3.org/2000/svg">
<g clip-path="url(#clip0_1178_19931)">
<path d="M3.787 20.6557C2.78296 20.6552 1.82018 20.2562 1.11013 19.5463C0.400068 18.8364 0.000794959 17.8738 1.34638e-07 16.8697V7.12971C-0.000186396 6.43044 0.193447 5.7448 0.559399 5.14894C0.92535 4.55307 1.4493 4.07029 2.07306 3.75421C2.69682 3.43814 3.39598 3.30114 4.0929 3.35842C4.78982 3.4157 5.45722 3.66503 6.021 4.07871L9.8 6.85271C9.8494 6.17893 10.0783 5.53067 10.463 4.9753C10.8477 4.41992 11.3741 3.97769 11.9875 3.69457C12.6009 3.41144 13.2789 3.29775 13.9511 3.3653C14.6233 3.43286 15.2652 3.67919 15.81 4.07871L22.451 8.94871C22.9297 9.30024 23.3189 9.75951 23.5872 10.2894C23.8555 10.8192 23.9953 11.4048 23.9953 11.9987C23.9953 12.5926 23.8555 13.1782 23.5872 13.7081C23.3189 14.2379 22.9297 14.6972 22.451 15.0487L15.81 19.9187C15.2653 20.3182 14.6237 20.5645 13.9516 20.6322C13.2796 20.6998 12.6017 20.5863 11.9883 20.3034C11.375 20.0205 10.8485 19.5785 10.4637 19.0234C10.0789 18.4683 9.84973 17.8203 9.8 17.1467L6.021 19.9207C5.37359 20.3973 4.59093 20.6548 3.787 20.6557V20.6557Z" fill="#374957"/>
</g>
<defs>
<clipPath id="clip0_1178_19931">
<rect width="24" height="24" fill="white"/>
</clipPath>
</defs>
</svg>
