<svg width="24" height="24" viewBox="0 0 24 24" fill="none" xmlns="http://www.w3.org/2000/svg">
<g clip-path="url(#clip0_1178_19821)">
<path d="M22.5002 3.97656H19.4142C19.2165 3.9766 19.0232 4.03528 18.8588 4.14516C18.6943 4.25505 18.5662 4.41121 18.4905 4.59391C18.4149 4.77661 18.3951 4.97764 18.4336 5.17159C18.4722 5.36555 18.5674 5.54371 18.7072 5.68356L19.7932 6.76956L16.2072 10.3546C16.0167 10.5367 15.7633 10.6383 15.4997 10.6383C15.2362 10.6383 14.9827 10.5367 14.7922 10.3546L14.6222 10.1836C14.0508 9.63763 13.291 9.33299 12.5007 9.33299C11.7104 9.33299 10.9506 9.63763 10.3792 10.1836L5.27921 15.2836C5.09131 15.472 4.98595 15.7274 4.98633 15.9935C4.9867 16.2596 5.09278 16.5147 5.28121 16.7026C5.46965 16.8905 5.72501 16.9958 5.99113 16.9954C6.25724 16.9951 6.51231 16.889 6.70021 16.7006L11.8002 11.6006C11.9906 11.4182 12.2441 11.3165 12.5077 11.3165C12.7713 11.3165 13.0248 11.4182 13.2152 11.6006L13.3852 11.7716C13.9568 12.317 14.7166 12.6214 15.5067 12.6214C16.2968 12.6214 17.0566 12.317 17.6282 11.7716L21.2142 8.18556L22.3002 9.27156C22.4405 9.40911 22.6183 9.50227 22.8112 9.53941C23.0042 9.57655 23.2038 9.55602 23.3852 9.48038C23.5665 9.40475 23.7216 9.27736 23.8309 9.11413C23.9403 8.9509 23.9992 8.75906 24.0002 8.56256V5.47656C24.0002 5.07874 23.8422 4.69721 23.5609 4.4159C23.2796 4.1346 22.898 3.97656 22.5002 3.97656Z" fill="#374957"/>
<path d="M23 21.976H5C4.20435 21.976 3.44129 21.6599 2.87868 21.0973C2.31607 20.5347 2 19.7716 2 18.976V1C2 0.734784 1.89464 0.48043 1.70711 0.292893C1.51957 0.105357 1.26522 0 1 0C0.734784 0 0.48043 0.105357 0.292893 0.292893C0.105357 0.48043 0 0.734784 0 1L0 18.976C0.00158786 20.3016 0.528882 21.5724 1.46622 22.5098C2.40356 23.4471 3.6744 23.9744 5 23.976H23C23.2652 23.976 23.5196 23.8706 23.7071 23.6831C23.8946 23.4956 24 23.2412 24 22.976C24 22.7108 23.8946 22.4564 23.7071 22.2689C23.5196 22.0814 23.2652 21.976 23 21.976Z" fill="#374957"/>
</g>
<defs>
<clipPath id="clip0_1178_19821">
<rect width="24" height="24" fill="white"/>
</clipPath>
</defs>
</svg>
