<svg width="24" height="24" viewBox="0 0 24 24" fill="none" xmlns="http://www.w3.org/2000/svg">
<path d="M18 22.0007H13V2.82371L17.3 7.12371C17.4886 7.30587 17.7412 7.40666 18.0034 7.40439C18.2656 7.40211 18.5164 7.29694 18.7018 7.11153C18.8872 6.92612 18.9924 6.67531 18.9947 6.41311C18.997 6.15092 18.8962 5.89832 18.714 5.70971L13.768 0.763716C13.5359 0.5315 13.2602 0.347292 12.9569 0.221614C12.6535 0.0959362 12.3284 0.03125 12 0.03125C11.6717 0.03125 11.3465 0.0959362 11.0432 0.221614C10.7398 0.347292 10.4642 0.5315 10.232 0.763716L5.28201 5.71371C5.0945 5.90175 4.98937 6.15658 4.98975 6.42213C4.99012 6.68768 5.09597 6.9422 5.28401 7.12971C5.47205 7.31722 5.72687 7.42235 5.99242 7.42198C6.25798 7.4216 6.5125 7.31575 6.70001 7.12771L11 2.82771V22.0007H6.00001C5.73479 22.0007 5.48044 22.1061 5.2929 22.2936C5.10537 22.4811 5.00001 22.7355 5.00001 23.0007C5.00001 23.2659 5.10537 23.5203 5.2929 23.7078C5.48044 23.8953 5.73479 24.0007 6.00001 24.0007H18C18.2652 24.0007 18.5196 23.8953 18.7071 23.7078C18.8947 23.5203 19 23.2659 19 23.0007C19 22.7355 18.8947 22.4811 18.7071 22.2936C18.5196 22.1061 18.2652 22.0007 18 22.0007Z" fill="#374957"/>
</svg>
