<svg width="24" height="24" viewBox="0 0 24 24" fill="none" xmlns="http://www.w3.org/2000/svg">
<g clip-path="url(#clip0_1178_19886)">
<path d="M21.5 2.50013C19.8937 0.908539 17.7239 0.015625 15.4625 0.015625C13.2012 0.015625 11.0314 0.908539 9.42505 2.50013C7.04804 4.87712 6.26804 10.4091 6.01504 13.5001C5.94547 14.3686 6.15008 15.237 6.60005 15.9831L2.80004 19.7831C2.65894 19.525 2.44506 19.3141 2.18502 19.1766C1.92497 19.0391 1.63024 18.9811 1.33749 19.0098C1.04473 19.0385 0.766883 19.1527 0.538504 19.3381C0.310124 19.5235 0.141295 19.7719 0.0530209 20.0525C-0.035253 20.3331 -0.0390753 20.6335 0.0420294 20.9162C0.123134 21.199 0.285586 21.4516 0.509174 21.6428C0.732762 21.8339 1.00762 21.9551 1.29954 21.9913C1.59147 22.0274 1.88758 21.9769 2.15104 21.8461C2.02021 22.1096 1.96973 22.4057 2.00588 22.6976C2.04203 22.9895 2.16322 23.2644 2.35436 23.488C2.54551 23.7116 2.79818 23.874 3.08093 23.9551C3.36369 24.0362 3.66405 24.0324 3.94465 23.9441C4.22525 23.8559 4.4737 23.687 4.65909 23.4586C4.84449 23.2303 4.95864 22.9524 4.98735 22.6597C5.01606 22.3669 4.95806 22.0722 4.82056 21.8121C4.68307 21.5521 4.47215 21.3382 4.21405 21.1971L8.01404 17.3971C8.75888 17.8515 9.62833 18.0587 10.498 17.9891C13.584 17.7361 19.115 16.9571 21.498 14.5791C23.0914 12.973 23.9856 10.8024 23.9859 8.54003C23.9863 6.27767 23.0928 4.10678 21.5 2.50013V2.50013Z" fill="#374957"/>
</g>
<defs>
<clipPath id="clip0_1178_19886">
<rect width="24" height="24" fill="white"/>
</clipPath>
</defs>
</svg>
