<svg width="24" height="24" viewBox="0 0 24 24" fill="none" xmlns="http://www.w3.org/2000/svg">
<g clip-path="url(#clip0_1178_19843)">
<path d="M12.8356 0.0273152C11.1212 -0.0926437 9.40099 0.157061 7.79142 0.759532C6.18184 1.362 4.72046 2.30319 3.50615 3.51939C2.29184 4.73559 1.35294 6.19845 0.752982 7.80896C0.153023 9.41947 -0.0939973 11.1401 0.0286368 12.8543C0.469637 19.2073 6.08164 23.9993 13.0826 23.9993H18.9996C20.3252 23.9977 21.5961 23.4704 22.5334 22.5331C23.4708 21.5958 23.9981 20.3249 23.9996 18.9993V12.3393C24.0369 9.25676 22.9067 6.27421 20.836 3.99049C18.7652 1.70676 15.9071 0.290953 12.8356 0.0273152V0.0273152ZM11.9996 4.99932C12.3975 4.99932 12.779 5.15735 13.0603 5.43866C13.3416 5.71996 13.4996 6.10149 13.4996 6.49932C13.4996 6.89714 13.3416 7.27867 13.0603 7.55998C12.779 7.84128 12.3975 7.99932 11.9996 7.99932C11.6018 7.99932 11.2203 7.84128 10.939 7.55998C10.6577 7.27867 10.4996 6.89714 10.4996 6.49932C10.4996 6.10149 10.6577 5.71996 10.939 5.43866C11.2203 5.15735 11.6018 4.99932 11.9996 4.99932ZM13.9996 17.9993C13.9996 18.2645 13.8943 18.5189 13.7067 18.7064C13.5192 18.894 13.2649 18.9993 12.9996 18.9993C12.7344 18.9993 12.4801 18.894 12.2925 18.7064C12.105 18.5189 11.9996 18.2645 11.9996 17.9993V11.9993H10.9996C10.7344 11.9993 10.4801 11.894 10.2925 11.7064C10.105 11.5189 9.99964 11.2645 9.99964 10.9993C9.99964 10.7341 10.105 10.4797 10.2925 10.2922C10.4801 10.1047 10.7344 9.99932 10.9996 9.99932H11.9996C12.5301 9.99932 13.0388 10.21 13.4139 10.5851C13.7889 10.9602 13.9996 11.4689 13.9996 11.9993V17.9993Z" fill="#374957"/>
</g>
<defs>
<clipPath id="clip0_1178_19843">
<rect width="24" height="24" fill="white"/>
</clipPath>
</defs>
</svg>
