<svg width="24" height="24" viewBox="0 0 24 24" fill="none" xmlns="http://www.w3.org/2000/svg">
<path d="M16.4236 21.9748C15.8439 22.7652 15.0422 23.3653 14.1206 23.699C13.199 24.0327 12.1989 24.0848 11.2476 23.8488V23.8488C8.59469 23.1207 6.17683 21.715 4.23159 19.7698C2.28635 17.8245 0.88064 15.4067 0.152583 12.7538C-0.0827611 11.8035 -0.0302544 10.8047 0.30343 9.88427C0.637114 8.96388 1.23691 8.16348 2.02658 7.58479C2.03688 11.3993 3.55724 15.0545 6.25517 17.7512C8.9531 20.4478 12.6091 21.9663 16.4236 21.9748V21.9748ZM23.8316 3.67479L17.3996 20.0008H16.9996C15.2764 20.0602 13.5594 19.7646 11.9552 19.1324C10.3511 18.5001 8.89417 17.5446 7.67495 16.3254C6.45573 15.1062 5.5003 13.6493 4.86802 12.0451C4.23575 10.441 3.94014 8.724 3.99958 7.00079V6.60079L20.2996 0.178791C20.7888 0.00111891 21.3184 -0.0340112 21.8268 0.0774863C22.3353 0.188984 22.8016 0.442527 23.1715 0.808628C23.5415 1.17473 23.8 1.63834 23.9168 2.14555C24.0336 2.65276 24.0041 3.18272 23.8316 3.67379V3.67479ZM11.9996 10.0008C11.9996 9.47036 11.7889 8.96165 11.4138 8.58658C11.0387 8.2115 10.53 8.00079 9.99958 8.00079C9.46915 8.00079 8.96044 8.2115 8.58537 8.58658C8.2103 8.96165 7.99958 9.47036 7.99958 10.0008C7.99958 10.5312 8.2103 11.0399 8.58537 11.415C8.96044 11.7901 9.46915 12.0008 9.99958 12.0008C10.53 12.0008 11.0387 11.7901 11.4138 11.415C11.7889 11.0399 11.9996 10.5312 11.9996 10.0008ZM18.1216 12.7168L20.6756 6.23079C16.4156 4.73879 14.0576 10.9068 18.1216 12.7168V12.7168Z" fill="#374957"/>
</svg>
