<svg width="24" height="24" viewBox="0 0 24 24" fill="none" xmlns="http://www.w3.org/2000/svg">
<g clip-path="url(#clip0_1178_19771)">
<path d="M24 11.9994C24.0012 14.8648 22.9719 17.635 21.1 19.8044C19.5887 18.7568 18.4135 17.2934 17.717 15.5914L19.375 14.9284C19.497 14.8797 19.6082 14.8074 19.7023 14.7158C19.7964 14.6241 19.8714 14.5147 19.9233 14.394C19.9751 14.2733 20.0026 14.1436 20.0043 14.0122C20.006 13.8808 19.9817 13.7504 19.933 13.6284C19.8843 13.5064 19.812 13.3952 19.7203 13.3012C19.6286 13.2071 19.5193 13.132 19.3986 13.0802C19.2779 13.0284 19.1481 13.0009 19.0168 12.9992C18.8854 12.9975 18.755 13.0217 18.633 13.0704L17.167 13.6574C17.0625 13.1108 17.0066 12.556 17 11.9994C17.0053 11.443 17.0598 10.8882 17.163 10.3414L18.629 10.9284C18.8754 11.0268 19.1508 11.0233 19.3946 10.9187C19.6384 10.814 19.8306 10.6168 19.929 10.3704C20.0274 10.1241 20.0239 9.84867 19.9193 9.60488C19.8146 9.36108 19.6174 9.16884 19.371 9.07044L17.713 8.40744C18.4115 6.70682 19.5879 5.24516 21.1 4.19944C22.9708 6.36755 24 9.1358 24 11.9994V11.9994ZM15.857 16.3334L14.371 16.9284C14.249 16.9772 14.1186 17.0014 13.9873 16.9997C13.8559 16.998 13.7262 16.9705 13.6055 16.9187C13.4847 16.8669 13.3754 16.7918 13.2837 16.6977C13.192 16.6036 13.1197 16.4924 13.071 16.3704C13.0223 16.2484 12.9981 16.118 12.9998 15.9867C13.0014 15.8553 13.029 15.7256 13.0808 15.6049C13.1326 15.4842 13.2077 15.3748 13.3017 15.2831C13.3958 15.1914 13.507 15.1192 13.629 15.0704L15.273 14.4134C15.0974 13.6206 15.0059 12.8115 15 11.9994C15.0059 11.1874 15.0974 10.3783 15.273 9.58544L13.629 8.92844C13.507 8.87972 13.3958 8.80745 13.3017 8.71575C13.2077 8.62405 13.1326 8.51472 13.0808 8.39401C13.029 8.27329 13.0014 8.14355 12.9998 8.01219C12.9981 7.88084 13.0223 7.75044 13.071 7.62844C13.1197 7.50644 13.192 7.39524 13.2837 7.30117C13.3754 7.2071 13.4847 7.13202 13.6055 7.0802C13.7262 7.02839 13.8559 7.00086 13.9873 6.99918C14.1186 6.99751 14.249 7.02172 14.371 7.07044L15.857 7.67044C16.6536 5.72214 17.971 4.0307 19.665 2.78144C17.5173 0.989216 14.8096 0.00580058 12.0123 0.00196439C9.21501 -0.0018718 6.50469 0.974113 4.35202 2.76044C6.04186 4.01665 7.35594 5.71112 8.15202 7.66044L9.63302 7.06744C9.75502 7.01872 9.88542 6.99451 10.0168 6.99618C10.1481 6.99786 10.2779 7.02539 10.3986 7.0772C10.5193 7.12902 10.6286 7.2041 10.7203 7.29817C10.812 7.39224 10.8843 7.50344 10.933 7.62544C10.9817 7.74744 11.006 7.87784 11.0043 8.00919C11.0026 8.14055 10.9751 8.27029 10.9233 8.39101C10.8714 8.51172 10.7964 8.62105 10.7023 8.71275C10.6082 8.80445 10.497 8.87672 10.375 8.92544L8.73202 9.58244C8.90579 10.3765 8.99562 11.1866 9.00002 11.9994C8.99409 12.8114 8.90293 13.6205 8.72802 14.4134L10.371 15.0704C10.6174 15.1688 10.8146 15.3611 10.9193 15.6049C11.0239 15.8487 11.0274 16.1241 10.929 16.3704C10.8306 16.6168 10.6384 16.814 10.3946 16.9187C10.1508 17.0233 9.87541 17.0268 9.62902 16.9284L8.14802 16.3354C7.35194 18.2848 6.03786 19.9792 4.34802 21.2354C6.50011 23.0225 9.2101 23.9993 12.0074 23.9964C14.8047 23.9935 17.5127 23.011 19.661 21.2194C17.9689 19.9705 16.6529 18.2802 15.857 16.3334V16.3334ZM6.29102 15.5934L4.62902 14.9284C4.50702 14.8797 4.39582 14.8074 4.30175 14.7158C4.20768 14.6241 4.1326 14.5147 4.08078 14.394C4.02897 14.2733 4.00144 14.1436 3.99976 14.0122C3.99809 13.8808 4.0223 13.7504 4.07102 13.6284C4.11974 13.5064 4.19201 13.3952 4.28371 13.3012C4.37541 13.2071 4.48474 13.132 4.60546 13.0802C4.72617 13.0284 4.85591 13.0009 4.98727 12.9992C5.11862 12.9975 5.24902 13.0217 5.37102 13.0704L6.83802 13.6574C6.94039 13.1106 6.99459 12.5558 7.00002 11.9994C6.99459 11.4431 6.94039 10.8883 6.83802 10.3414L5.37102 10.9284C5.24902 10.9772 5.11862 11.0014 4.98727 10.9997C4.85591 10.998 4.72617 10.9705 4.60546 10.9187C4.48474 10.8669 4.37541 10.7918 4.28371 10.6977C4.19201 10.6036 4.11974 10.4924 4.07102 10.3704C4.0223 10.2484 3.99809 10.118 3.99976 9.98669C4.00144 9.85533 4.02897 9.72559 4.08078 9.60488C4.1326 9.48416 4.20768 9.37483 4.30175 9.28313C4.39582 9.19143 4.50702 9.11916 4.62902 9.07044L6.29102 8.40544C5.59786 6.70093 4.42689 5.23304 2.91902 4.17844C1.03643 6.34916 0 9.12609 0 11.9994C0 14.8728 1.03643 17.6497 2.91902 19.8204C4.42689 18.7658 5.59786 17.298 6.29102 15.5934V15.5934Z" fill="#374957"/>
</g>
<defs>
<clipPath id="clip0_1178_19771">
<rect width="24" height="24" fill="white"/>
</clipPath>
</defs>
</svg>
