<svg width="24" height="24" viewBox="0 0 24 24" fill="none" xmlns="http://www.w3.org/2000/svg">
<g clip-path="url(#clip0_1178_20169)">
<path d="M24 20C24 20.552 23.552 21 23 21H21V23C21 23.552 20.552 24 20 24C19.448 24 19 23.552 19 23V21H17C16.448 21 16 20.552 16 20C16 19.448 16.448 19 17 19H19V17C19 16.448 19.448 16 20 16C20.552 16 21 16.448 21 17V19H23C23.552 19 24 19.448 24 20Z" fill="#374957"/>
<path d="M14.035 20.0145C14.031 16.7175 16.7 14.0415 19.996 14.0365C21.279 14.0345 22.529 14.4465 23.559 15.2115C25.332 8.82655 21.593 2.21355 15.209 0.440545C8.82499 -1.33245 2.21299 2.40555 0.439986 8.79055C-1.33301 15.1755 2.40599 21.7895 8.78999 23.5625C10.89 24.1455 13.109 24.1455 15.209 23.5625C14.447 22.5365 14.035 21.2925 14.035 20.0145ZM13 12.0215C13 12.2875 12.894 12.5415 12.706 12.7295L9.70099 15.7355C9.30299 16.1195 8.66899 16.1085 8.28499 15.7105C7.90999 15.3225 7.90999 14.7065 8.28499 14.3185L10.997 11.6065V7.01255C10.997 6.45955 11.445 6.01055 11.999 6.01055C12.552 6.01055 13 6.45955 13 7.01255V12.0215Z" fill="#374957"/>
</g>
<defs>
<clipPath id="clip0_1178_20169">
<rect width="24" height="24" fill="white"/>
</clipPath>
</defs>
</svg>
