<svg width="24" height="24" viewBox="0 0 24 24" fill="none" xmlns="http://www.w3.org/2000/svg">
<g clip-path="url(#clip0_1178_20118)">
<path d="M18 12C16.9464 12.0012 15.9111 11.7247 14.9984 11.1982C14.0858 10.6717 13.328 9.91396 12.8016 9.00128C12.2752 8.08859 11.9987 7.05326 12 5.99965C12.0013 4.94604 12.2803 3.91139 12.809 3H4.242L4.2 2.648C4.11382 1.9186 3.76306 1.24615 3.21419 0.758104C2.66532 0.270054 1.95647 0.000312836 1.222 0L1 0C0.734784 0 0.48043 0.105357 0.292893 0.292893C0.105357 0.48043 0 0.734784 0 1C0 1.26522 0.105357 1.51957 0.292893 1.70711C0.48043 1.89464 0.734784 2 1 2H1.222C1.46693 2.00003 1.70334 2.08996 1.88637 2.25272C2.06941 2.41547 2.18634 2.63975 2.215 2.883L3.591 14.583C3.73385 15.7998 4.31848 16.9218 5.23391 17.736C6.14934 18.5502 7.33185 19 8.557 19H19C19.2652 19 19.5196 18.8946 19.7071 18.7071C19.8946 18.5196 20 18.2652 20 18C20 17.7348 19.8946 17.4804 19.7071 17.2929C19.5196 17.1054 19.2652 17 19 17H8.557C7.93788 16.9985 7.33441 16.8054 6.82934 16.4473C6.32428 16.0893 5.94237 15.5837 5.736 15H17.657C18.8293 15.0001 19.9643 14.5882 20.8638 13.8364C21.7633 13.0846 22.37 12.0407 22.578 10.887L22.816 9.568C22.2597 10.3222 21.5341 10.9351 20.6976 11.3576C19.8611 11.78 18.9371 12 18 12V12Z" fill="#374957"/>
<path d="M7 24C8.10456 24 8.99999 23.1046 8.99999 22C8.99999 20.8954 8.10456 20 7 20C5.89543 20 5 20.8954 5 22C5 23.1046 5.89543 24 7 24Z" fill="#374957"/>
<path d="M17 24C18.1046 24 19 23.1046 19 22C19 20.8954 18.1046 20 17 20C15.8954 20 15 20.8954 15 22C15 23.1046 15.8954 24 17 24Z" fill="#374957"/>
<path d="M15.7333 8.9451C15.9052 9.13085 16.1131 9.27979 16.3443 9.38292C16.5755 9.48605 16.8251 9.54122 17.0783 9.5451H17.1113C17.3593 9.54592 17.6051 9.49745 17.8342 9.40252C18.0634 9.30759 18.2714 9.16808 18.4463 8.9921L22.7182 4.7201C22.9067 4.53206 23.0127 4.27687 23.013 4.01066C23.0133 3.74445 22.9078 3.48903 22.7197 3.3006C22.5317 3.11216 22.2765 3.00614 22.0103 3.00586C21.7441 3.00558 21.4887 3.11106 21.3003 3.2991L17.1133 7.4931L15.8793 6.1691C15.6981 5.97509 15.4473 5.86099 15.1821 5.8519C14.9168 5.8428 14.6588 5.93945 14.4648 6.1206C14.2708 6.30174 14.1567 6.55253 14.1476 6.8178C14.1385 7.08307 14.2351 7.34109 14.4163 7.5351L15.7333 8.9451Z" fill="#374957"/>
</g>
<defs>
<clipPath id="clip0_1178_20118">
<rect width="24" height="24" fill="white"/>
</clipPath>
</defs>
</svg>
