<svg width="24" height="24" viewBox="0 0 24 24" fill="none" xmlns="http://www.w3.org/2000/svg">
<path d="M5.81992 19.3056C5.87392 19.3496 5.93592 19.3796 5.99092 19.4226L1.70692 23.7066C1.51832 23.8888 1.26571 23.9896 1.00352 23.9873C0.741321 23.985 0.490508 23.8798 0.3051 23.6944C0.119692 23.509 0.0145233 23.2582 0.0122448 22.996C0.00996641 22.7338 0.110761 22.4812 0.292919 22.2926L4.57792 18.0076C4.94082 18.4864 5.35756 18.922 5.81992 19.3056V19.3056ZM9.99992 12.5856L16.2929 6.29261C16.3852 6.1971 16.4955 6.12091 16.6175 6.06851C16.7395 6.0161 16.8707 5.98851 17.0035 5.98736C17.1363 5.9862 17.268 6.0115 17.3909 6.06179C17.5138 6.11207 17.6254 6.18632 17.7193 6.28021C17.8132 6.3741 17.8875 6.48576 17.9377 6.60865C17.988 6.73155 18.0133 6.86323 18.0122 6.99601C18.011 7.12879 17.9834 7.26001 17.931 7.38201C17.8786 7.50402 17.8024 7.61436 17.7069 7.70661L14.4139 10.9996H21.5999C22.5722 9.06076 23.3365 7.02441 23.8799 4.92461C24.0397 4.25829 24.0252 3.56208 23.8379 2.90297C23.6507 2.24386 23.2969 1.64405 22.8107 1.16125C22.3245 0.678456 21.7222 0.328936 21.0618 0.146329C20.4014 -0.0362782 19.7051 -0.0458251 19.0399 0.118607C15.8374 0.969415 12.7874 2.31495 9.99992 4.10661V12.5856ZM12.4999 12.9996C12.4749 12.9996 12.4529 12.9866 12.4279 12.9856L5.99092 19.4226C7.30402 20.4478 8.92299 21.0031 10.5889 20.9996C11.6932 20.9954 12.7852 20.7677 13.7991 20.3304C14.8131 19.893 15.7281 19.2549 16.4889 18.4546C18.0479 16.8026 19.4054 14.9715 20.5329 12.9996H12.4999ZM7.99992 14.4996V5.50661C7.03238 6.23035 6.11557 7.01953 5.25592 7.86861C4.49752 8.63159 3.90611 9.54399 3.51927 10.5478C3.13244 11.5517 2.95864 12.625 3.00892 13.6996C3.08055 15.2595 3.62809 16.7601 4.57792 17.9996L8.01392 14.5626C8.01292 14.5466 7.99992 14.5246 7.99992 14.4996V14.4996Z" fill="#374957"/>
</svg>
